G04 #@! TF.GenerationSoftware,KiCad,Pcbnew,5.0.2+dfsg1-1*
G04 #@! TF.CreationDate,2021-04-02T15:59:18+02:00*
G04 #@! TF.ProjectId,pico-dev,7069636f-2d64-4657-962e-6b696361645f,rev?*
G04 #@! TF.SameCoordinates,Original*
G04 #@! TF.FileFunction,Copper,L1,Top*
G04 #@! TF.FilePolarity,Positive*
%FSLAX46Y46*%
G04 Gerber Fmt 4.6, Leading zero omitted, Abs format (unit mm)*
G04 Created by KiCad (PCBNEW 5.0.2+dfsg1-1) date ven. 02 avril 2021 15:59:18 CEST*
%MOMM*%
%LPD*%
G01*
G04 APERTURE LIST*
G04 #@! TA.AperFunction,ComponentPad*
%ADD10C,1.700000*%
G04 #@! TD*
G04 #@! TA.AperFunction,ComponentPad*
%ADD11R,1.700000X1.700000*%
G04 #@! TD*
G04 #@! TA.AperFunction,Conductor*
%ADD12C,0.100000*%
G04 #@! TD*
G04 #@! TA.AperFunction,SMDPad,CuDef*
%ADD13C,1.425000*%
G04 #@! TD*
G04 #@! TA.AperFunction,ComponentPad*
%ADD14C,2.000000*%
G04 #@! TD*
G04 #@! TA.AperFunction,ComponentPad*
%ADD15O,1.700000X1.700000*%
G04 #@! TD*
G04 #@! TA.AperFunction,SMDPad,CuDef*
%ADD16R,3.500000X1.700000*%
G04 #@! TD*
G04 #@! TA.AperFunction,SMDPad,CuDef*
%ADD17R,1.700000X3.500000*%
G04 #@! TD*
G04 #@! TA.AperFunction,SMDPad,CuDef*
%ADD18R,1.800000X2.500000*%
G04 #@! TD*
G04 #@! TA.AperFunction,ComponentPad*
%ADD19R,1.600000X1.600000*%
G04 #@! TD*
G04 #@! TA.AperFunction,ComponentPad*
%ADD20C,1.600000*%
G04 #@! TD*
G04 #@! TA.AperFunction,SMDPad,CuDef*
%ADD21R,1.900000X0.800000*%
G04 #@! TD*
G04 #@! TA.AperFunction,ViaPad*
%ADD22C,1.200000*%
G04 #@! TD*
G04 #@! TA.AperFunction,ViaPad*
%ADD23C,0.800000*%
G04 #@! TD*
G04 #@! TA.AperFunction,Conductor*
%ADD24C,1.100000*%
G04 #@! TD*
G04 #@! TA.AperFunction,Conductor*
%ADD25C,0.600000*%
G04 #@! TD*
G04 #@! TA.AperFunction,Conductor*
%ADD26C,0.900000*%
G04 #@! TD*
G04 #@! TA.AperFunction,Conductor*
%ADD27C,1.000000*%
G04 #@! TD*
G04 APERTURE END LIST*
D10*
G04 #@! TO.P,U2,4*
G04 #@! TO.N,SDA1_GP14*
X155575000Y-76500000D03*
G04 #@! TO.P,U2,3*
G04 #@! TO.N,SCL1_GP15*
X153035000Y-76500000D03*
G04 #@! TO.P,U2,2*
G04 #@! TO.N,Net-(JP1-Pad2)*
X150495000Y-76500000D03*
D11*
G04 #@! TO.P,U2,1*
G04 #@! TO.N,GND*
X147955000Y-76500000D03*
G04 #@! TD*
D12*
G04 #@! TO.N,GP9*
G04 #@! TO.C,R2*
G36*
X104827004Y-88026204D02*
X104851273Y-88029804D01*
X104875071Y-88035765D01*
X104898171Y-88044030D01*
X104920349Y-88054520D01*
X104941393Y-88067133D01*
X104961098Y-88081747D01*
X104979277Y-88098223D01*
X104995753Y-88116402D01*
X105010367Y-88136107D01*
X105022980Y-88157151D01*
X105033470Y-88179329D01*
X105041735Y-88202429D01*
X105047696Y-88226227D01*
X105051296Y-88250496D01*
X105052500Y-88275000D01*
X105052500Y-89525000D01*
X105051296Y-89549504D01*
X105047696Y-89573773D01*
X105041735Y-89597571D01*
X105033470Y-89620671D01*
X105022980Y-89642849D01*
X105010367Y-89663893D01*
X104995753Y-89683598D01*
X104979277Y-89701777D01*
X104961098Y-89718253D01*
X104941393Y-89732867D01*
X104920349Y-89745480D01*
X104898171Y-89755970D01*
X104875071Y-89764235D01*
X104851273Y-89770196D01*
X104827004Y-89773796D01*
X104802500Y-89775000D01*
X103877500Y-89775000D01*
X103852996Y-89773796D01*
X103828727Y-89770196D01*
X103804929Y-89764235D01*
X103781829Y-89755970D01*
X103759651Y-89745480D01*
X103738607Y-89732867D01*
X103718902Y-89718253D01*
X103700723Y-89701777D01*
X103684247Y-89683598D01*
X103669633Y-89663893D01*
X103657020Y-89642849D01*
X103646530Y-89620671D01*
X103638265Y-89597571D01*
X103632304Y-89573773D01*
X103628704Y-89549504D01*
X103627500Y-89525000D01*
X103627500Y-88275000D01*
X103628704Y-88250496D01*
X103632304Y-88226227D01*
X103638265Y-88202429D01*
X103646530Y-88179329D01*
X103657020Y-88157151D01*
X103669633Y-88136107D01*
X103684247Y-88116402D01*
X103700723Y-88098223D01*
X103718902Y-88081747D01*
X103738607Y-88067133D01*
X103759651Y-88054520D01*
X103781829Y-88044030D01*
X103804929Y-88035765D01*
X103828727Y-88029804D01*
X103852996Y-88026204D01*
X103877500Y-88025000D01*
X104802500Y-88025000D01*
X104827004Y-88026204D01*
X104827004Y-88026204D01*
G37*
D13*
G04 #@! TD*
G04 #@! TO.P,R2,2*
G04 #@! TO.N,GP9*
X104340000Y-88900000D03*
D12*
G04 #@! TO.N,+3V3*
G04 #@! TO.C,R2*
G36*
X107802004Y-88026204D02*
X107826273Y-88029804D01*
X107850071Y-88035765D01*
X107873171Y-88044030D01*
X107895349Y-88054520D01*
X107916393Y-88067133D01*
X107936098Y-88081747D01*
X107954277Y-88098223D01*
X107970753Y-88116402D01*
X107985367Y-88136107D01*
X107997980Y-88157151D01*
X108008470Y-88179329D01*
X108016735Y-88202429D01*
X108022696Y-88226227D01*
X108026296Y-88250496D01*
X108027500Y-88275000D01*
X108027500Y-89525000D01*
X108026296Y-89549504D01*
X108022696Y-89573773D01*
X108016735Y-89597571D01*
X108008470Y-89620671D01*
X107997980Y-89642849D01*
X107985367Y-89663893D01*
X107970753Y-89683598D01*
X107954277Y-89701777D01*
X107936098Y-89718253D01*
X107916393Y-89732867D01*
X107895349Y-89745480D01*
X107873171Y-89755970D01*
X107850071Y-89764235D01*
X107826273Y-89770196D01*
X107802004Y-89773796D01*
X107777500Y-89775000D01*
X106852500Y-89775000D01*
X106827996Y-89773796D01*
X106803727Y-89770196D01*
X106779929Y-89764235D01*
X106756829Y-89755970D01*
X106734651Y-89745480D01*
X106713607Y-89732867D01*
X106693902Y-89718253D01*
X106675723Y-89701777D01*
X106659247Y-89683598D01*
X106644633Y-89663893D01*
X106632020Y-89642849D01*
X106621530Y-89620671D01*
X106613265Y-89597571D01*
X106607304Y-89573773D01*
X106603704Y-89549504D01*
X106602500Y-89525000D01*
X106602500Y-88275000D01*
X106603704Y-88250496D01*
X106607304Y-88226227D01*
X106613265Y-88202429D01*
X106621530Y-88179329D01*
X106632020Y-88157151D01*
X106644633Y-88136107D01*
X106659247Y-88116402D01*
X106675723Y-88098223D01*
X106693902Y-88081747D01*
X106713607Y-88067133D01*
X106734651Y-88054520D01*
X106756829Y-88044030D01*
X106779929Y-88035765D01*
X106803727Y-88029804D01*
X106827996Y-88026204D01*
X106852500Y-88025000D01*
X107777500Y-88025000D01*
X107802004Y-88026204D01*
X107802004Y-88026204D01*
G37*
D13*
G04 #@! TD*
G04 #@! TO.P,R2,1*
G04 #@! TO.N,+3V3*
X107315000Y-88900000D03*
D14*
G04 #@! TO.P,SW1,2*
G04 #@! TO.N,GND*
X140970000Y-60475000D03*
G04 #@! TO.P,SW1,1*
G04 #@! TO.N,RUN*
X136470000Y-60475000D03*
G04 #@! TO.P,SW1,2*
G04 #@! TO.N,GND*
X140970000Y-53975000D03*
G04 #@! TO.P,SW1,1*
G04 #@! TO.N,RUN*
X136470000Y-53975000D03*
G04 #@! TD*
D12*
G04 #@! TO.N,LED*
G04 #@! TO.C,R4*
G36*
X134672004Y-48021204D02*
X134696273Y-48024804D01*
X134720071Y-48030765D01*
X134743171Y-48039030D01*
X134765349Y-48049520D01*
X134786393Y-48062133D01*
X134806098Y-48076747D01*
X134824277Y-48093223D01*
X134840753Y-48111402D01*
X134855367Y-48131107D01*
X134867980Y-48152151D01*
X134878470Y-48174329D01*
X134886735Y-48197429D01*
X134892696Y-48221227D01*
X134896296Y-48245496D01*
X134897500Y-48270000D01*
X134897500Y-49520000D01*
X134896296Y-49544504D01*
X134892696Y-49568773D01*
X134886735Y-49592571D01*
X134878470Y-49615671D01*
X134867980Y-49637849D01*
X134855367Y-49658893D01*
X134840753Y-49678598D01*
X134824277Y-49696777D01*
X134806098Y-49713253D01*
X134786393Y-49727867D01*
X134765349Y-49740480D01*
X134743171Y-49750970D01*
X134720071Y-49759235D01*
X134696273Y-49765196D01*
X134672004Y-49768796D01*
X134647500Y-49770000D01*
X133722500Y-49770000D01*
X133697996Y-49768796D01*
X133673727Y-49765196D01*
X133649929Y-49759235D01*
X133626829Y-49750970D01*
X133604651Y-49740480D01*
X133583607Y-49727867D01*
X133563902Y-49713253D01*
X133545723Y-49696777D01*
X133529247Y-49678598D01*
X133514633Y-49658893D01*
X133502020Y-49637849D01*
X133491530Y-49615671D01*
X133483265Y-49592571D01*
X133477304Y-49568773D01*
X133473704Y-49544504D01*
X133472500Y-49520000D01*
X133472500Y-48270000D01*
X133473704Y-48245496D01*
X133477304Y-48221227D01*
X133483265Y-48197429D01*
X133491530Y-48174329D01*
X133502020Y-48152151D01*
X133514633Y-48131107D01*
X133529247Y-48111402D01*
X133545723Y-48093223D01*
X133563902Y-48076747D01*
X133583607Y-48062133D01*
X133604651Y-48049520D01*
X133626829Y-48039030D01*
X133649929Y-48030765D01*
X133673727Y-48024804D01*
X133697996Y-48021204D01*
X133722500Y-48020000D01*
X134647500Y-48020000D01*
X134672004Y-48021204D01*
X134672004Y-48021204D01*
G37*
D13*
G04 #@! TD*
G04 #@! TO.P,R4,2*
G04 #@! TO.N,LED*
X134185000Y-48895000D03*
D12*
G04 #@! TO.N,Net-(D2-Pad2)*
G04 #@! TO.C,R4*
G36*
X137647004Y-48021204D02*
X137671273Y-48024804D01*
X137695071Y-48030765D01*
X137718171Y-48039030D01*
X137740349Y-48049520D01*
X137761393Y-48062133D01*
X137781098Y-48076747D01*
X137799277Y-48093223D01*
X137815753Y-48111402D01*
X137830367Y-48131107D01*
X137842980Y-48152151D01*
X137853470Y-48174329D01*
X137861735Y-48197429D01*
X137867696Y-48221227D01*
X137871296Y-48245496D01*
X137872500Y-48270000D01*
X137872500Y-49520000D01*
X137871296Y-49544504D01*
X137867696Y-49568773D01*
X137861735Y-49592571D01*
X137853470Y-49615671D01*
X137842980Y-49637849D01*
X137830367Y-49658893D01*
X137815753Y-49678598D01*
X137799277Y-49696777D01*
X137781098Y-49713253D01*
X137761393Y-49727867D01*
X137740349Y-49740480D01*
X137718171Y-49750970D01*
X137695071Y-49759235D01*
X137671273Y-49765196D01*
X137647004Y-49768796D01*
X137622500Y-49770000D01*
X136697500Y-49770000D01*
X136672996Y-49768796D01*
X136648727Y-49765196D01*
X136624929Y-49759235D01*
X136601829Y-49750970D01*
X136579651Y-49740480D01*
X136558607Y-49727867D01*
X136538902Y-49713253D01*
X136520723Y-49696777D01*
X136504247Y-49678598D01*
X136489633Y-49658893D01*
X136477020Y-49637849D01*
X136466530Y-49615671D01*
X136458265Y-49592571D01*
X136452304Y-49568773D01*
X136448704Y-49544504D01*
X136447500Y-49520000D01*
X136447500Y-48270000D01*
X136448704Y-48245496D01*
X136452304Y-48221227D01*
X136458265Y-48197429D01*
X136466530Y-48174329D01*
X136477020Y-48152151D01*
X136489633Y-48131107D01*
X136504247Y-48111402D01*
X136520723Y-48093223D01*
X136538902Y-48076747D01*
X136558607Y-48062133D01*
X136579651Y-48049520D01*
X136601829Y-48039030D01*
X136624929Y-48030765D01*
X136648727Y-48024804D01*
X136672996Y-48021204D01*
X136697500Y-48020000D01*
X137622500Y-48020000D01*
X137647004Y-48021204D01*
X137647004Y-48021204D01*
G37*
D13*
G04 #@! TD*
G04 #@! TO.P,R4,1*
G04 #@! TO.N,Net-(D2-Pad2)*
X137160000Y-48895000D03*
D11*
G04 #@! TO.P,J18,1*
G04 #@! TO.N,GND*
X97155000Y-67310000D03*
D15*
G04 #@! TO.P,J18,2*
G04 #@! TO.N,GP9*
X97155000Y-64770000D03*
G04 #@! TO.P,J18,3*
G04 #@! TO.N,GP8*
X97155000Y-62230000D03*
G04 #@! TO.P,J18,4*
G04 #@! TO.N,GP7*
X97155000Y-59690000D03*
G04 #@! TO.P,J18,5*
G04 #@! TO.N,GP6*
X97155000Y-57150000D03*
G04 #@! TD*
D11*
G04 #@! TO.P,J1,1*
G04 #@! TO.N,GND*
X143510000Y-36830000D03*
D15*
G04 #@! TO.P,J1,2*
G04 #@! TO.N,MODE*
X140970000Y-36830000D03*
G04 #@! TD*
G04 #@! TO.P,U1,1*
G04 #@! TO.N,U_TX*
X108839000Y-27432000D03*
G04 #@! TO.P,U1,2*
G04 #@! TO.N,U_RX*
X108839000Y-29972000D03*
D11*
G04 #@! TO.P,U1,3*
G04 #@! TO.N,GND*
X108839000Y-32512000D03*
D15*
G04 #@! TO.P,U1,4*
G04 #@! TO.N,GP2*
X108839000Y-35052000D03*
G04 #@! TO.P,U1,5*
G04 #@! TO.N,GP3*
X108839000Y-37592000D03*
G04 #@! TO.P,U1,6*
G04 #@! TO.N,SDA_0*
X108839000Y-40132000D03*
G04 #@! TO.P,U1,7*
G04 #@! TO.N,SCL_0*
X108839000Y-42672000D03*
D11*
G04 #@! TO.P,U1,8*
G04 #@! TO.N,GND*
X108839000Y-45212000D03*
D15*
G04 #@! TO.P,U1,9*
G04 #@! TO.N,GP6*
X108839000Y-47752000D03*
G04 #@! TO.P,U1,10*
G04 #@! TO.N,GP7*
X108839000Y-50292000D03*
G04 #@! TO.P,U1,11*
G04 #@! TO.N,GP8*
X108839000Y-52832000D03*
G04 #@! TO.P,U1,12*
G04 #@! TO.N,GP9*
X108839000Y-55372000D03*
D11*
G04 #@! TO.P,U1,13*
G04 #@! TO.N,GND*
X108839000Y-57912000D03*
D15*
G04 #@! TO.P,U1,14*
G04 #@! TO.N,SPI1_CK_GP10_I2S_CLK*
X108839000Y-60452000D03*
G04 #@! TO.P,U1,15*
G04 #@! TO.N,SPI1_MOSI_GP11_I2S_WS*
X108839000Y-62992000D03*
G04 #@! TO.P,U1,16*
G04 #@! TO.N,SPI1_MISO_GP12_I2S_SD*
X108839000Y-65532000D03*
G04 #@! TO.P,U1,17*
G04 #@! TO.N,SPI1_CS1_GP13*
X108839000Y-68072000D03*
D11*
G04 #@! TO.P,U1,18*
G04 #@! TO.N,GND*
X108839000Y-70612000D03*
D15*
G04 #@! TO.P,U1,19*
G04 #@! TO.N,SDA1_GP14*
X108839000Y-73152000D03*
G04 #@! TO.P,U1,20*
G04 #@! TO.N,SCL1_GP15*
X108839000Y-75692000D03*
G04 #@! TO.P,U1,21*
G04 #@! TO.N,SPI0_MISO*
X126619000Y-75692000D03*
G04 #@! TO.P,U1,22*
G04 #@! TO.N,SPI0_CS1*
X126619000Y-73152000D03*
D11*
G04 #@! TO.P,U1,23*
G04 #@! TO.N,GND*
X126619000Y-70612000D03*
D15*
G04 #@! TO.P,U1,24*
G04 #@! TO.N,SPI0_CK*
X126619000Y-68072000D03*
G04 #@! TO.P,U1,25*
G04 #@! TO.N,SPI0_MOSI*
X126619000Y-65532000D03*
G04 #@! TO.P,U1,26*
G04 #@! TO.N,SPI0_CS2*
X126619000Y-62992000D03*
G04 #@! TO.P,U1,27*
G04 #@! TO.N,WS2812_3V*
X126619000Y-60452000D03*
D11*
G04 #@! TO.P,U1,28*
G04 #@! TO.N,GND*
X126619000Y-57912000D03*
D15*
G04 #@! TO.P,U1,29*
G04 #@! TO.N,LED*
X126619000Y-55372000D03*
G04 #@! TO.P,U1,30*
G04 #@! TO.N,RUN*
X126619000Y-52832000D03*
G04 #@! TO.P,U1,31*
G04 #@! TO.N,ADC0*
X126619000Y-50292000D03*
G04 #@! TO.P,U1,32*
G04 #@! TO.N,ADC1*
X126619000Y-47752000D03*
D11*
G04 #@! TO.P,U1,33*
G04 #@! TO.N,AGND*
X126619000Y-45212000D03*
D15*
G04 #@! TO.P,U1,34*
G04 #@! TO.N,MODE*
X126619000Y-42672000D03*
G04 #@! TO.P,U1,35*
G04 #@! TO.N,Net-(U1-Pad35)*
X126619000Y-40132000D03*
G04 #@! TO.P,U1,36*
G04 #@! TO.N,+3V3*
X126619000Y-37592000D03*
G04 #@! TO.P,U1,37*
G04 #@! TO.N,Net-(U1-Pad37)*
X126619000Y-35052000D03*
D11*
G04 #@! TO.P,U1,38*
G04 #@! TO.N,GND*
X126619000Y-32512000D03*
D15*
G04 #@! TO.P,U1,39*
G04 #@! TO.N,+5V*
X126619000Y-29972000D03*
G04 #@! TO.P,U1,40*
G04 #@! TO.N,Net-(U1-Pad40)*
X126619000Y-27432000D03*
D16*
G04 #@! TO.P,U1,1*
G04 #@! TO.N,U_TX*
X107939000Y-27432000D03*
G04 #@! TO.P,U1,2*
G04 #@! TO.N,U_RX*
X107939000Y-29972000D03*
G04 #@! TO.P,U1,3*
G04 #@! TO.N,GND*
X107939000Y-32512000D03*
G04 #@! TO.P,U1,4*
G04 #@! TO.N,GP2*
X107939000Y-35052000D03*
G04 #@! TO.P,U1,5*
G04 #@! TO.N,GP3*
X107939000Y-37592000D03*
G04 #@! TO.P,U1,6*
G04 #@! TO.N,SDA_0*
X107939000Y-40132000D03*
G04 #@! TO.P,U1,7*
G04 #@! TO.N,SCL_0*
X107939000Y-42672000D03*
G04 #@! TO.P,U1,8*
G04 #@! TO.N,GND*
X107939000Y-45212000D03*
G04 #@! TO.P,U1,9*
G04 #@! TO.N,GP6*
X107939000Y-47752000D03*
G04 #@! TO.P,U1,10*
G04 #@! TO.N,GP7*
X107939000Y-50292000D03*
G04 #@! TO.P,U1,11*
G04 #@! TO.N,GP8*
X107939000Y-52832000D03*
G04 #@! TO.P,U1,12*
G04 #@! TO.N,GP9*
X107939000Y-55372000D03*
G04 #@! TO.P,U1,13*
G04 #@! TO.N,GND*
X107939000Y-57912000D03*
G04 #@! TO.P,U1,14*
G04 #@! TO.N,SPI1_CK_GP10_I2S_CLK*
X107939000Y-60452000D03*
G04 #@! TO.P,U1,15*
G04 #@! TO.N,SPI1_MOSI_GP11_I2S_WS*
X107939000Y-62992000D03*
G04 #@! TO.P,U1,16*
G04 #@! TO.N,SPI1_MISO_GP12_I2S_SD*
X107939000Y-65532000D03*
G04 #@! TO.P,U1,17*
G04 #@! TO.N,SPI1_CS1_GP13*
X107939000Y-68072000D03*
G04 #@! TO.P,U1,18*
G04 #@! TO.N,GND*
X107939000Y-70612000D03*
G04 #@! TO.P,U1,19*
G04 #@! TO.N,SDA1_GP14*
X107939000Y-73152000D03*
G04 #@! TO.P,U1,20*
G04 #@! TO.N,SCL1_GP15*
X107939000Y-75692000D03*
G04 #@! TO.P,U1,40*
G04 #@! TO.N,Net-(U1-Pad40)*
X127519000Y-27432000D03*
G04 #@! TO.P,U1,39*
G04 #@! TO.N,+5V*
X127519000Y-29972000D03*
G04 #@! TO.P,U1,38*
G04 #@! TO.N,GND*
X127519000Y-32512000D03*
G04 #@! TO.P,U1,37*
G04 #@! TO.N,Net-(U1-Pad37)*
X127519000Y-35052000D03*
G04 #@! TO.P,U1,36*
G04 #@! TO.N,+3V3*
X127519000Y-37592000D03*
G04 #@! TO.P,U1,35*
G04 #@! TO.N,Net-(U1-Pad35)*
X127519000Y-40132000D03*
G04 #@! TO.P,U1,34*
G04 #@! TO.N,MODE*
X127519000Y-42672000D03*
G04 #@! TO.P,U1,33*
G04 #@! TO.N,AGND*
X127519000Y-45212000D03*
G04 #@! TO.P,U1,32*
G04 #@! TO.N,ADC1*
X127519000Y-47752000D03*
G04 #@! TO.P,U1,31*
G04 #@! TO.N,ADC0*
X127519000Y-50292000D03*
G04 #@! TO.P,U1,30*
G04 #@! TO.N,RUN*
X127519000Y-52832000D03*
G04 #@! TO.P,U1,29*
G04 #@! TO.N,LED*
X127519000Y-55372000D03*
G04 #@! TO.P,U1,28*
G04 #@! TO.N,GND*
X127519000Y-57912000D03*
G04 #@! TO.P,U1,27*
G04 #@! TO.N,WS2812_3V*
X127519000Y-60452000D03*
G04 #@! TO.P,U1,26*
G04 #@! TO.N,SPI0_CS2*
X127519000Y-62992000D03*
G04 #@! TO.P,U1,25*
G04 #@! TO.N,SPI0_MOSI*
X127519000Y-65532000D03*
G04 #@! TO.P,U1,24*
G04 #@! TO.N,SPI0_CK*
X127519000Y-68072000D03*
G04 #@! TO.P,U1,23*
G04 #@! TO.N,GND*
X127519000Y-70612000D03*
G04 #@! TO.P,U1,22*
G04 #@! TO.N,SPI0_CS1*
X127519000Y-73152000D03*
G04 #@! TO.P,U1,21*
G04 #@! TO.N,SPI0_MISO*
X127519000Y-75692000D03*
D17*
G04 #@! TO.P,U1,41*
G04 #@! TO.N,SWCLK*
X115189000Y-76362000D03*
D15*
X115189000Y-75462000D03*
D17*
G04 #@! TO.P,U1,42*
G04 #@! TO.N,GND*
X117729000Y-76362000D03*
D11*
X117729000Y-75462000D03*
D17*
G04 #@! TO.P,U1,43*
G04 #@! TO.N,SWDIO*
X120269000Y-76362000D03*
D15*
X120269000Y-75462000D03*
G04 #@! TD*
D11*
G04 #@! TO.P,J5,1*
G04 #@! TO.N,GND*
X97155000Y-50673000D03*
D15*
G04 #@! TO.P,J5,2*
G04 #@! TO.N,SCL_0*
X97155000Y-48133000D03*
G04 #@! TO.P,J5,3*
G04 #@! TO.N,SDA_0*
X97155000Y-45593000D03*
G04 #@! TO.P,J5,4*
G04 #@! TO.N,+3V3*
X97155000Y-43053000D03*
G04 #@! TD*
G04 #@! TO.P,J6,4*
G04 #@! TO.N,+3V3*
X89535000Y-43053000D03*
G04 #@! TO.P,J6,3*
G04 #@! TO.N,SDA_0*
X89535000Y-45593000D03*
G04 #@! TO.P,J6,2*
G04 #@! TO.N,SCL_0*
X89535000Y-48133000D03*
D11*
G04 #@! TO.P,J6,1*
G04 #@! TO.N,GND*
X89535000Y-50673000D03*
G04 #@! TD*
G04 #@! TO.P,J7,1*
G04 #@! TO.N,GND*
X81915000Y-50673000D03*
D15*
G04 #@! TO.P,J7,2*
G04 #@! TO.N,SCL_0*
X81915000Y-48133000D03*
G04 #@! TO.P,J7,3*
G04 #@! TO.N,SDA_0*
X81915000Y-45593000D03*
G04 #@! TO.P,J7,4*
G04 #@! TO.N,+3V3*
X81915000Y-43053000D03*
G04 #@! TD*
G04 #@! TO.P,J8,3*
G04 #@! TO.N,U_TX*
X87630000Y-29845000D03*
G04 #@! TO.P,J8,2*
G04 #@! TO.N,U_RX*
X87630000Y-32385000D03*
D11*
G04 #@! TO.P,J8,1*
G04 #@! TO.N,GND*
X87630000Y-34925000D03*
G04 #@! TD*
G04 #@! TO.P,J9,1*
G04 #@! TO.N,GND*
X160020000Y-66675000D03*
D15*
G04 #@! TO.P,J9,2*
G04 #@! TO.N,SPI0_CS1*
X160020000Y-64135000D03*
G04 #@! TO.P,J9,3*
G04 #@! TO.N,SPI0_MISO*
X160020000Y-61595000D03*
G04 #@! TO.P,J9,4*
G04 #@! TO.N,SPI0_CK*
X160020000Y-59055000D03*
G04 #@! TO.P,J9,5*
G04 #@! TO.N,SPI0_MOSI*
X160020000Y-56515000D03*
G04 #@! TO.P,J9,6*
G04 #@! TO.N,+3V3*
X160020000Y-53975000D03*
G04 #@! TD*
D11*
G04 #@! TO.P,J10,1*
G04 #@! TO.N,GND*
X149860000Y-66675000D03*
D15*
G04 #@! TO.P,J10,2*
G04 #@! TO.N,SPI0_CS2*
X149860000Y-64135000D03*
G04 #@! TO.P,J10,3*
G04 #@! TO.N,SPI0_MISO*
X149860000Y-61595000D03*
G04 #@! TO.P,J10,4*
G04 #@! TO.N,SPI0_CK*
X149860000Y-59055000D03*
G04 #@! TO.P,J10,5*
G04 #@! TO.N,SPI0_MOSI*
X149860000Y-56515000D03*
G04 #@! TO.P,J10,6*
G04 #@! TO.N,+3V3*
X149860000Y-53975000D03*
G04 #@! TD*
D11*
G04 #@! TO.P,J12,1*
G04 #@! TO.N,GND*
X97155000Y-85090000D03*
D15*
G04 #@! TO.P,J12,2*
G04 #@! TO.N,SPI1_CS1_GP13*
X97155000Y-82550000D03*
G04 #@! TO.P,J12,3*
G04 #@! TO.N,SPI1_MISO_GP12_I2S_SD*
X97155000Y-80010000D03*
G04 #@! TO.P,J12,4*
G04 #@! TO.N,SPI1_MOSI_GP11_I2S_WS*
X97155000Y-77470000D03*
G04 #@! TO.P,J12,5*
G04 #@! TO.N,SPI1_CK_GP10_I2S_CLK*
X97155000Y-74930000D03*
G04 #@! TO.P,J12,6*
G04 #@! TO.N,+3V3*
X97155000Y-72390000D03*
G04 #@! TD*
G04 #@! TO.P,J13,3*
G04 #@! TO.N,+3V3*
X81915000Y-62230000D03*
G04 #@! TO.P,J13,2*
X81915000Y-59690000D03*
D11*
G04 #@! TO.P,J13,1*
X81915000Y-57150000D03*
G04 #@! TD*
G04 #@! TO.P,J14,1*
G04 #@! TO.N,+5V*
X144018000Y-27940000D03*
D15*
G04 #@! TO.P,J14,2*
X146558000Y-27940000D03*
G04 #@! TO.P,J14,3*
X149098000Y-27940000D03*
G04 #@! TD*
D11*
G04 #@! TO.P,J15,1*
G04 #@! TO.N,GND*
X162560000Y-27940000D03*
D15*
G04 #@! TO.P,J15,2*
X160020000Y-27940000D03*
G04 #@! TO.P,J15,3*
X157480000Y-27940000D03*
G04 #@! TD*
D11*
G04 #@! TO.P,J16,1*
G04 #@! TO.N,GND*
X89535000Y-57150000D03*
D15*
G04 #@! TO.P,J16,2*
X89535000Y-59690000D03*
G04 #@! TO.P,J16,3*
X89535000Y-62230000D03*
G04 #@! TD*
G04 #@! TO.P,J17,3*
G04 #@! TO.N,+3V3*
X169545000Y-59055000D03*
G04 #@! TO.P,J17,2*
X169545000Y-56515000D03*
D11*
G04 #@! TO.P,J17,1*
X169545000Y-53975000D03*
G04 #@! TD*
D18*
G04 #@! TO.P,D1,1*
G04 #@! TO.N,+5V*
X111760000Y-81090000D03*
G04 #@! TO.P,D1,2*
G04 #@! TO.N,+5VD*
X111760000Y-85090000D03*
G04 #@! TD*
D14*
G04 #@! TO.P,SW2,1*
G04 #@! TO.N,GP9*
X106045000Y-92710000D03*
G04 #@! TO.P,SW2,2*
G04 #@! TO.N,GND*
X106045000Y-97210000D03*
G04 #@! TO.P,SW2,1*
G04 #@! TO.N,GP9*
X99545000Y-92710000D03*
G04 #@! TO.P,SW2,2*
G04 #@! TO.N,GND*
X99545000Y-97210000D03*
G04 #@! TD*
G04 #@! TO.P,SW3,2*
G04 #@! TO.N,GND*
X84940000Y-97210000D03*
G04 #@! TO.P,SW3,1*
G04 #@! TO.N,GP8*
X84940000Y-92710000D03*
G04 #@! TO.P,SW3,2*
G04 #@! TO.N,GND*
X91440000Y-97210000D03*
G04 #@! TO.P,SW3,1*
G04 #@! TO.N,GP8*
X91440000Y-92710000D03*
G04 #@! TD*
D19*
G04 #@! TO.P,C1,1*
G04 #@! TO.N,+5V*
X135255000Y-28250000D03*
D20*
G04 #@! TO.P,C1,2*
G04 #@! TO.N,GND*
X135255000Y-31750000D03*
G04 #@! TD*
D11*
G04 #@! TO.P,J20,1*
G04 #@! TO.N,GND*
X97155000Y-34925000D03*
D15*
G04 #@! TO.P,J20,2*
G04 #@! TO.N,GP3*
X97155000Y-32385000D03*
G04 #@! TO.P,J20,3*
G04 #@! TO.N,GP2*
X97155000Y-29845000D03*
G04 #@! TD*
D21*
G04 #@! TO.P,Q1,1*
G04 #@! TO.N,+3V3*
X157655000Y-38420000D03*
G04 #@! TO.P,Q1,2*
G04 #@! TO.N,WS2812_3V*
X157655000Y-40320000D03*
G04 #@! TO.P,Q1,3*
G04 #@! TO.N,WS2812B_5V*
X160655000Y-39370000D03*
G04 #@! TD*
D12*
G04 #@! TO.N,+3V3*
G04 #@! TO.C,R1*
G36*
X135904504Y-35483704D02*
X135928773Y-35487304D01*
X135952571Y-35493265D01*
X135975671Y-35501530D01*
X135997849Y-35512020D01*
X136018893Y-35524633D01*
X136038598Y-35539247D01*
X136056777Y-35555723D01*
X136073253Y-35573902D01*
X136087867Y-35593607D01*
X136100480Y-35614651D01*
X136110970Y-35636829D01*
X136119235Y-35659929D01*
X136125196Y-35683727D01*
X136128796Y-35707996D01*
X136130000Y-35732500D01*
X136130000Y-36657500D01*
X136128796Y-36682004D01*
X136125196Y-36706273D01*
X136119235Y-36730071D01*
X136110970Y-36753171D01*
X136100480Y-36775349D01*
X136087867Y-36796393D01*
X136073253Y-36816098D01*
X136056777Y-36834277D01*
X136038598Y-36850753D01*
X136018893Y-36865367D01*
X135997849Y-36877980D01*
X135975671Y-36888470D01*
X135952571Y-36896735D01*
X135928773Y-36902696D01*
X135904504Y-36906296D01*
X135880000Y-36907500D01*
X134630000Y-36907500D01*
X134605496Y-36906296D01*
X134581227Y-36902696D01*
X134557429Y-36896735D01*
X134534329Y-36888470D01*
X134512151Y-36877980D01*
X134491107Y-36865367D01*
X134471402Y-36850753D01*
X134453223Y-36834277D01*
X134436747Y-36816098D01*
X134422133Y-36796393D01*
X134409520Y-36775349D01*
X134399030Y-36753171D01*
X134390765Y-36730071D01*
X134384804Y-36706273D01*
X134381204Y-36682004D01*
X134380000Y-36657500D01*
X134380000Y-35732500D01*
X134381204Y-35707996D01*
X134384804Y-35683727D01*
X134390765Y-35659929D01*
X134399030Y-35636829D01*
X134409520Y-35614651D01*
X134422133Y-35593607D01*
X134436747Y-35573902D01*
X134453223Y-35555723D01*
X134471402Y-35539247D01*
X134491107Y-35524633D01*
X134512151Y-35512020D01*
X134534329Y-35501530D01*
X134557429Y-35493265D01*
X134581227Y-35487304D01*
X134605496Y-35483704D01*
X134630000Y-35482500D01*
X135880000Y-35482500D01*
X135904504Y-35483704D01*
X135904504Y-35483704D01*
G37*
D13*
G04 #@! TD*
G04 #@! TO.P,R1,1*
G04 #@! TO.N,+3V3*
X135255000Y-36195000D03*
D12*
G04 #@! TO.N,MODE*
G04 #@! TO.C,R1*
G36*
X135904504Y-38458704D02*
X135928773Y-38462304D01*
X135952571Y-38468265D01*
X135975671Y-38476530D01*
X135997849Y-38487020D01*
X136018893Y-38499633D01*
X136038598Y-38514247D01*
X136056777Y-38530723D01*
X136073253Y-38548902D01*
X136087867Y-38568607D01*
X136100480Y-38589651D01*
X136110970Y-38611829D01*
X136119235Y-38634929D01*
X136125196Y-38658727D01*
X136128796Y-38682996D01*
X136130000Y-38707500D01*
X136130000Y-39632500D01*
X136128796Y-39657004D01*
X136125196Y-39681273D01*
X136119235Y-39705071D01*
X136110970Y-39728171D01*
X136100480Y-39750349D01*
X136087867Y-39771393D01*
X136073253Y-39791098D01*
X136056777Y-39809277D01*
X136038598Y-39825753D01*
X136018893Y-39840367D01*
X135997849Y-39852980D01*
X135975671Y-39863470D01*
X135952571Y-39871735D01*
X135928773Y-39877696D01*
X135904504Y-39881296D01*
X135880000Y-39882500D01*
X134630000Y-39882500D01*
X134605496Y-39881296D01*
X134581227Y-39877696D01*
X134557429Y-39871735D01*
X134534329Y-39863470D01*
X134512151Y-39852980D01*
X134491107Y-39840367D01*
X134471402Y-39825753D01*
X134453223Y-39809277D01*
X134436747Y-39791098D01*
X134422133Y-39771393D01*
X134409520Y-39750349D01*
X134399030Y-39728171D01*
X134390765Y-39705071D01*
X134384804Y-39681273D01*
X134381204Y-39657004D01*
X134380000Y-39632500D01*
X134380000Y-38707500D01*
X134381204Y-38682996D01*
X134384804Y-38658727D01*
X134390765Y-38634929D01*
X134399030Y-38611829D01*
X134409520Y-38589651D01*
X134422133Y-38568607D01*
X134436747Y-38548902D01*
X134453223Y-38530723D01*
X134471402Y-38514247D01*
X134491107Y-38499633D01*
X134512151Y-38487020D01*
X134534329Y-38476530D01*
X134557429Y-38468265D01*
X134581227Y-38462304D01*
X134605496Y-38458704D01*
X134630000Y-38457500D01*
X135880000Y-38457500D01*
X135904504Y-38458704D01*
X135904504Y-38458704D01*
G37*
D13*
G04 #@! TD*
G04 #@! TO.P,R1,2*
G04 #@! TO.N,MODE*
X135255000Y-39170000D03*
D12*
G04 #@! TO.N,GP8*
G04 #@! TO.C,R3*
G36*
X95899504Y-91781204D02*
X95923773Y-91784804D01*
X95947571Y-91790765D01*
X95970671Y-91799030D01*
X95992849Y-91809520D01*
X96013893Y-91822133D01*
X96033598Y-91836747D01*
X96051777Y-91853223D01*
X96068253Y-91871402D01*
X96082867Y-91891107D01*
X96095480Y-91912151D01*
X96105970Y-91934329D01*
X96114235Y-91957429D01*
X96120196Y-91981227D01*
X96123796Y-92005496D01*
X96125000Y-92030000D01*
X96125000Y-92955000D01*
X96123796Y-92979504D01*
X96120196Y-93003773D01*
X96114235Y-93027571D01*
X96105970Y-93050671D01*
X96095480Y-93072849D01*
X96082867Y-93093893D01*
X96068253Y-93113598D01*
X96051777Y-93131777D01*
X96033598Y-93148253D01*
X96013893Y-93162867D01*
X95992849Y-93175480D01*
X95970671Y-93185970D01*
X95947571Y-93194235D01*
X95923773Y-93200196D01*
X95899504Y-93203796D01*
X95875000Y-93205000D01*
X94625000Y-93205000D01*
X94600496Y-93203796D01*
X94576227Y-93200196D01*
X94552429Y-93194235D01*
X94529329Y-93185970D01*
X94507151Y-93175480D01*
X94486107Y-93162867D01*
X94466402Y-93148253D01*
X94448223Y-93131777D01*
X94431747Y-93113598D01*
X94417133Y-93093893D01*
X94404520Y-93072849D01*
X94394030Y-93050671D01*
X94385765Y-93027571D01*
X94379804Y-93003773D01*
X94376204Y-92979504D01*
X94375000Y-92955000D01*
X94375000Y-92030000D01*
X94376204Y-92005496D01*
X94379804Y-91981227D01*
X94385765Y-91957429D01*
X94394030Y-91934329D01*
X94404520Y-91912151D01*
X94417133Y-91891107D01*
X94431747Y-91871402D01*
X94448223Y-91853223D01*
X94466402Y-91836747D01*
X94486107Y-91822133D01*
X94507151Y-91809520D01*
X94529329Y-91799030D01*
X94552429Y-91790765D01*
X94576227Y-91784804D01*
X94600496Y-91781204D01*
X94625000Y-91780000D01*
X95875000Y-91780000D01*
X95899504Y-91781204D01*
X95899504Y-91781204D01*
G37*
D13*
G04 #@! TD*
G04 #@! TO.P,R3,2*
G04 #@! TO.N,GP8*
X95250000Y-92492500D03*
D12*
G04 #@! TO.N,+3V3*
G04 #@! TO.C,R3*
G36*
X95899504Y-94756204D02*
X95923773Y-94759804D01*
X95947571Y-94765765D01*
X95970671Y-94774030D01*
X95992849Y-94784520D01*
X96013893Y-94797133D01*
X96033598Y-94811747D01*
X96051777Y-94828223D01*
X96068253Y-94846402D01*
X96082867Y-94866107D01*
X96095480Y-94887151D01*
X96105970Y-94909329D01*
X96114235Y-94932429D01*
X96120196Y-94956227D01*
X96123796Y-94980496D01*
X96125000Y-95005000D01*
X96125000Y-95930000D01*
X96123796Y-95954504D01*
X96120196Y-95978773D01*
X96114235Y-96002571D01*
X96105970Y-96025671D01*
X96095480Y-96047849D01*
X96082867Y-96068893D01*
X96068253Y-96088598D01*
X96051777Y-96106777D01*
X96033598Y-96123253D01*
X96013893Y-96137867D01*
X95992849Y-96150480D01*
X95970671Y-96160970D01*
X95947571Y-96169235D01*
X95923773Y-96175196D01*
X95899504Y-96178796D01*
X95875000Y-96180000D01*
X94625000Y-96180000D01*
X94600496Y-96178796D01*
X94576227Y-96175196D01*
X94552429Y-96169235D01*
X94529329Y-96160970D01*
X94507151Y-96150480D01*
X94486107Y-96137867D01*
X94466402Y-96123253D01*
X94448223Y-96106777D01*
X94431747Y-96088598D01*
X94417133Y-96068893D01*
X94404520Y-96047849D01*
X94394030Y-96025671D01*
X94385765Y-96002571D01*
X94379804Y-95978773D01*
X94376204Y-95954504D01*
X94375000Y-95930000D01*
X94375000Y-95005000D01*
X94376204Y-94980496D01*
X94379804Y-94956227D01*
X94385765Y-94932429D01*
X94394030Y-94909329D01*
X94404520Y-94887151D01*
X94417133Y-94866107D01*
X94431747Y-94846402D01*
X94448223Y-94828223D01*
X94466402Y-94811747D01*
X94486107Y-94797133D01*
X94507151Y-94784520D01*
X94529329Y-94774030D01*
X94552429Y-94765765D01*
X94576227Y-94759804D01*
X94600496Y-94756204D01*
X94625000Y-94755000D01*
X95875000Y-94755000D01*
X95899504Y-94756204D01*
X95899504Y-94756204D01*
G37*
D13*
G04 #@! TD*
G04 #@! TO.P,R3,1*
G04 #@! TO.N,+3V3*
X95250000Y-95467500D03*
D12*
G04 #@! TO.N,+3V3*
G04 #@! TO.C,R5*
G36*
X157532004Y-43576204D02*
X157556273Y-43579804D01*
X157580071Y-43585765D01*
X157603171Y-43594030D01*
X157625349Y-43604520D01*
X157646393Y-43617133D01*
X157666098Y-43631747D01*
X157684277Y-43648223D01*
X157700753Y-43666402D01*
X157715367Y-43686107D01*
X157727980Y-43707151D01*
X157738470Y-43729329D01*
X157746735Y-43752429D01*
X157752696Y-43776227D01*
X157756296Y-43800496D01*
X157757500Y-43825000D01*
X157757500Y-45075000D01*
X157756296Y-45099504D01*
X157752696Y-45123773D01*
X157746735Y-45147571D01*
X157738470Y-45170671D01*
X157727980Y-45192849D01*
X157715367Y-45213893D01*
X157700753Y-45233598D01*
X157684277Y-45251777D01*
X157666098Y-45268253D01*
X157646393Y-45282867D01*
X157625349Y-45295480D01*
X157603171Y-45305970D01*
X157580071Y-45314235D01*
X157556273Y-45320196D01*
X157532004Y-45323796D01*
X157507500Y-45325000D01*
X156582500Y-45325000D01*
X156557996Y-45323796D01*
X156533727Y-45320196D01*
X156509929Y-45314235D01*
X156486829Y-45305970D01*
X156464651Y-45295480D01*
X156443607Y-45282867D01*
X156423902Y-45268253D01*
X156405723Y-45251777D01*
X156389247Y-45233598D01*
X156374633Y-45213893D01*
X156362020Y-45192849D01*
X156351530Y-45170671D01*
X156343265Y-45147571D01*
X156337304Y-45123773D01*
X156333704Y-45099504D01*
X156332500Y-45075000D01*
X156332500Y-43825000D01*
X156333704Y-43800496D01*
X156337304Y-43776227D01*
X156343265Y-43752429D01*
X156351530Y-43729329D01*
X156362020Y-43707151D01*
X156374633Y-43686107D01*
X156389247Y-43666402D01*
X156405723Y-43648223D01*
X156423902Y-43631747D01*
X156443607Y-43617133D01*
X156464651Y-43604520D01*
X156486829Y-43594030D01*
X156509929Y-43585765D01*
X156533727Y-43579804D01*
X156557996Y-43576204D01*
X156582500Y-43575000D01*
X157507500Y-43575000D01*
X157532004Y-43576204D01*
X157532004Y-43576204D01*
G37*
D13*
G04 #@! TD*
G04 #@! TO.P,R5,1*
G04 #@! TO.N,+3V3*
X157045000Y-44450000D03*
D12*
G04 #@! TO.N,WS2812_3V*
G04 #@! TO.C,R5*
G36*
X160507004Y-43576204D02*
X160531273Y-43579804D01*
X160555071Y-43585765D01*
X160578171Y-43594030D01*
X160600349Y-43604520D01*
X160621393Y-43617133D01*
X160641098Y-43631747D01*
X160659277Y-43648223D01*
X160675753Y-43666402D01*
X160690367Y-43686107D01*
X160702980Y-43707151D01*
X160713470Y-43729329D01*
X160721735Y-43752429D01*
X160727696Y-43776227D01*
X160731296Y-43800496D01*
X160732500Y-43825000D01*
X160732500Y-45075000D01*
X160731296Y-45099504D01*
X160727696Y-45123773D01*
X160721735Y-45147571D01*
X160713470Y-45170671D01*
X160702980Y-45192849D01*
X160690367Y-45213893D01*
X160675753Y-45233598D01*
X160659277Y-45251777D01*
X160641098Y-45268253D01*
X160621393Y-45282867D01*
X160600349Y-45295480D01*
X160578171Y-45305970D01*
X160555071Y-45314235D01*
X160531273Y-45320196D01*
X160507004Y-45323796D01*
X160482500Y-45325000D01*
X159557500Y-45325000D01*
X159532996Y-45323796D01*
X159508727Y-45320196D01*
X159484929Y-45314235D01*
X159461829Y-45305970D01*
X159439651Y-45295480D01*
X159418607Y-45282867D01*
X159398902Y-45268253D01*
X159380723Y-45251777D01*
X159364247Y-45233598D01*
X159349633Y-45213893D01*
X159337020Y-45192849D01*
X159326530Y-45170671D01*
X159318265Y-45147571D01*
X159312304Y-45123773D01*
X159308704Y-45099504D01*
X159307500Y-45075000D01*
X159307500Y-43825000D01*
X159308704Y-43800496D01*
X159312304Y-43776227D01*
X159318265Y-43752429D01*
X159326530Y-43729329D01*
X159337020Y-43707151D01*
X159349633Y-43686107D01*
X159364247Y-43666402D01*
X159380723Y-43648223D01*
X159398902Y-43631747D01*
X159418607Y-43617133D01*
X159439651Y-43604520D01*
X159461829Y-43594030D01*
X159484929Y-43585765D01*
X159508727Y-43579804D01*
X159532996Y-43576204D01*
X159557500Y-43575000D01*
X160482500Y-43575000D01*
X160507004Y-43576204D01*
X160507004Y-43576204D01*
G37*
D13*
G04 #@! TD*
G04 #@! TO.P,R5,2*
G04 #@! TO.N,WS2812_3V*
X160020000Y-44450000D03*
D12*
G04 #@! TO.N,WS2812B_5V*
G04 #@! TO.C,R6*
G36*
X158602004Y-33416204D02*
X158626273Y-33419804D01*
X158650071Y-33425765D01*
X158673171Y-33434030D01*
X158695349Y-33444520D01*
X158716393Y-33457133D01*
X158736098Y-33471747D01*
X158754277Y-33488223D01*
X158770753Y-33506402D01*
X158785367Y-33526107D01*
X158797980Y-33547151D01*
X158808470Y-33569329D01*
X158816735Y-33592429D01*
X158822696Y-33616227D01*
X158826296Y-33640496D01*
X158827500Y-33665000D01*
X158827500Y-34915000D01*
X158826296Y-34939504D01*
X158822696Y-34963773D01*
X158816735Y-34987571D01*
X158808470Y-35010671D01*
X158797980Y-35032849D01*
X158785367Y-35053893D01*
X158770753Y-35073598D01*
X158754277Y-35091777D01*
X158736098Y-35108253D01*
X158716393Y-35122867D01*
X158695349Y-35135480D01*
X158673171Y-35145970D01*
X158650071Y-35154235D01*
X158626273Y-35160196D01*
X158602004Y-35163796D01*
X158577500Y-35165000D01*
X157652500Y-35165000D01*
X157627996Y-35163796D01*
X157603727Y-35160196D01*
X157579929Y-35154235D01*
X157556829Y-35145970D01*
X157534651Y-35135480D01*
X157513607Y-35122867D01*
X157493902Y-35108253D01*
X157475723Y-35091777D01*
X157459247Y-35073598D01*
X157444633Y-35053893D01*
X157432020Y-35032849D01*
X157421530Y-35010671D01*
X157413265Y-34987571D01*
X157407304Y-34963773D01*
X157403704Y-34939504D01*
X157402500Y-34915000D01*
X157402500Y-33665000D01*
X157403704Y-33640496D01*
X157407304Y-33616227D01*
X157413265Y-33592429D01*
X157421530Y-33569329D01*
X157432020Y-33547151D01*
X157444633Y-33526107D01*
X157459247Y-33506402D01*
X157475723Y-33488223D01*
X157493902Y-33471747D01*
X157513607Y-33457133D01*
X157534651Y-33444520D01*
X157556829Y-33434030D01*
X157579929Y-33425765D01*
X157603727Y-33419804D01*
X157627996Y-33416204D01*
X157652500Y-33415000D01*
X158577500Y-33415000D01*
X158602004Y-33416204D01*
X158602004Y-33416204D01*
G37*
D13*
G04 #@! TD*
G04 #@! TO.P,R6,2*
G04 #@! TO.N,WS2812B_5V*
X158115000Y-34290000D03*
D12*
G04 #@! TO.N,+5V*
G04 #@! TO.C,R6*
G36*
X155627004Y-33416204D02*
X155651273Y-33419804D01*
X155675071Y-33425765D01*
X155698171Y-33434030D01*
X155720349Y-33444520D01*
X155741393Y-33457133D01*
X155761098Y-33471747D01*
X155779277Y-33488223D01*
X155795753Y-33506402D01*
X155810367Y-33526107D01*
X155822980Y-33547151D01*
X155833470Y-33569329D01*
X155841735Y-33592429D01*
X155847696Y-33616227D01*
X155851296Y-33640496D01*
X155852500Y-33665000D01*
X155852500Y-34915000D01*
X155851296Y-34939504D01*
X155847696Y-34963773D01*
X155841735Y-34987571D01*
X155833470Y-35010671D01*
X155822980Y-35032849D01*
X155810367Y-35053893D01*
X155795753Y-35073598D01*
X155779277Y-35091777D01*
X155761098Y-35108253D01*
X155741393Y-35122867D01*
X155720349Y-35135480D01*
X155698171Y-35145970D01*
X155675071Y-35154235D01*
X155651273Y-35160196D01*
X155627004Y-35163796D01*
X155602500Y-35165000D01*
X154677500Y-35165000D01*
X154652996Y-35163796D01*
X154628727Y-35160196D01*
X154604929Y-35154235D01*
X154581829Y-35145970D01*
X154559651Y-35135480D01*
X154538607Y-35122867D01*
X154518902Y-35108253D01*
X154500723Y-35091777D01*
X154484247Y-35073598D01*
X154469633Y-35053893D01*
X154457020Y-35032849D01*
X154446530Y-35010671D01*
X154438265Y-34987571D01*
X154432304Y-34963773D01*
X154428704Y-34939504D01*
X154427500Y-34915000D01*
X154427500Y-33665000D01*
X154428704Y-33640496D01*
X154432304Y-33616227D01*
X154438265Y-33592429D01*
X154446530Y-33569329D01*
X154457020Y-33547151D01*
X154469633Y-33526107D01*
X154484247Y-33506402D01*
X154500723Y-33488223D01*
X154518902Y-33471747D01*
X154538607Y-33457133D01*
X154559651Y-33444520D01*
X154581829Y-33434030D01*
X154604929Y-33425765D01*
X154628727Y-33419804D01*
X154652996Y-33416204D01*
X154677500Y-33415000D01*
X155602500Y-33415000D01*
X155627004Y-33416204D01*
X155627004Y-33416204D01*
G37*
D13*
G04 #@! TD*
G04 #@! TO.P,R6,1*
G04 #@! TO.N,+5V*
X155140000Y-34290000D03*
D11*
G04 #@! TO.P,J3,1*
G04 #@! TO.N,AGND*
X149860000Y-43180000D03*
D15*
G04 #@! TO.P,J3,2*
G04 #@! TO.N,ADC1*
X149860000Y-40640000D03*
G04 #@! TO.P,J3,3*
G04 #@! TO.N,ADC0*
X149860000Y-38100000D03*
G04 #@! TO.P,J3,4*
G04 #@! TO.N,+3V3*
X149860000Y-35560000D03*
G04 #@! TD*
G04 #@! TO.P,J19,5*
G04 #@! TO.N,+3V3*
X85090000Y-74930000D03*
G04 #@! TO.P,J19,4*
G04 #@! TO.N,SPI1_CK_GP10_I2S_CLK*
X85090000Y-77470000D03*
G04 #@! TO.P,J19,3*
G04 #@! TO.N,SPI1_MOSI_GP11_I2S_WS*
X85090000Y-80010000D03*
G04 #@! TO.P,J19,2*
G04 #@! TO.N,SPI1_MISO_GP12_I2S_SD*
X85090000Y-82550000D03*
D11*
G04 #@! TO.P,J19,1*
G04 #@! TO.N,GND*
X85090000Y-85090000D03*
G04 #@! TD*
D12*
G04 #@! TO.N,Net-(D2-Pad2)*
G04 #@! TO.C,D2*
G36*
X140822004Y-44846204D02*
X140846273Y-44849804D01*
X140870071Y-44855765D01*
X140893171Y-44864030D01*
X140915349Y-44874520D01*
X140936393Y-44887133D01*
X140956098Y-44901747D01*
X140974277Y-44918223D01*
X140990753Y-44936402D01*
X141005367Y-44956107D01*
X141017980Y-44977151D01*
X141028470Y-44999329D01*
X141036735Y-45022429D01*
X141042696Y-45046227D01*
X141046296Y-45070496D01*
X141047500Y-45095000D01*
X141047500Y-46345000D01*
X141046296Y-46369504D01*
X141042696Y-46393773D01*
X141036735Y-46417571D01*
X141028470Y-46440671D01*
X141017980Y-46462849D01*
X141005367Y-46483893D01*
X140990753Y-46503598D01*
X140974277Y-46521777D01*
X140956098Y-46538253D01*
X140936393Y-46552867D01*
X140915349Y-46565480D01*
X140893171Y-46575970D01*
X140870071Y-46584235D01*
X140846273Y-46590196D01*
X140822004Y-46593796D01*
X140797500Y-46595000D01*
X139872500Y-46595000D01*
X139847996Y-46593796D01*
X139823727Y-46590196D01*
X139799929Y-46584235D01*
X139776829Y-46575970D01*
X139754651Y-46565480D01*
X139733607Y-46552867D01*
X139713902Y-46538253D01*
X139695723Y-46521777D01*
X139679247Y-46503598D01*
X139664633Y-46483893D01*
X139652020Y-46462849D01*
X139641530Y-46440671D01*
X139633265Y-46417571D01*
X139627304Y-46393773D01*
X139623704Y-46369504D01*
X139622500Y-46345000D01*
X139622500Y-45095000D01*
X139623704Y-45070496D01*
X139627304Y-45046227D01*
X139633265Y-45022429D01*
X139641530Y-44999329D01*
X139652020Y-44977151D01*
X139664633Y-44956107D01*
X139679247Y-44936402D01*
X139695723Y-44918223D01*
X139713902Y-44901747D01*
X139733607Y-44887133D01*
X139754651Y-44874520D01*
X139776829Y-44864030D01*
X139799929Y-44855765D01*
X139823727Y-44849804D01*
X139847996Y-44846204D01*
X139872500Y-44845000D01*
X140797500Y-44845000D01*
X140822004Y-44846204D01*
X140822004Y-44846204D01*
G37*
D13*
G04 #@! TD*
G04 #@! TO.P,D2,2*
G04 #@! TO.N,Net-(D2-Pad2)*
X140335000Y-45720000D03*
D12*
G04 #@! TO.N,GND*
G04 #@! TO.C,D2*
G36*
X143797004Y-44846204D02*
X143821273Y-44849804D01*
X143845071Y-44855765D01*
X143868171Y-44864030D01*
X143890349Y-44874520D01*
X143911393Y-44887133D01*
X143931098Y-44901747D01*
X143949277Y-44918223D01*
X143965753Y-44936402D01*
X143980367Y-44956107D01*
X143992980Y-44977151D01*
X144003470Y-44999329D01*
X144011735Y-45022429D01*
X144017696Y-45046227D01*
X144021296Y-45070496D01*
X144022500Y-45095000D01*
X144022500Y-46345000D01*
X144021296Y-46369504D01*
X144017696Y-46393773D01*
X144011735Y-46417571D01*
X144003470Y-46440671D01*
X143992980Y-46462849D01*
X143980367Y-46483893D01*
X143965753Y-46503598D01*
X143949277Y-46521777D01*
X143931098Y-46538253D01*
X143911393Y-46552867D01*
X143890349Y-46565480D01*
X143868171Y-46575970D01*
X143845071Y-46584235D01*
X143821273Y-46590196D01*
X143797004Y-46593796D01*
X143772500Y-46595000D01*
X142847500Y-46595000D01*
X142822996Y-46593796D01*
X142798727Y-46590196D01*
X142774929Y-46584235D01*
X142751829Y-46575970D01*
X142729651Y-46565480D01*
X142708607Y-46552867D01*
X142688902Y-46538253D01*
X142670723Y-46521777D01*
X142654247Y-46503598D01*
X142639633Y-46483893D01*
X142627020Y-46462849D01*
X142616530Y-46440671D01*
X142608265Y-46417571D01*
X142602304Y-46393773D01*
X142598704Y-46369504D01*
X142597500Y-46345000D01*
X142597500Y-45095000D01*
X142598704Y-45070496D01*
X142602304Y-45046227D01*
X142608265Y-45022429D01*
X142616530Y-44999329D01*
X142627020Y-44977151D01*
X142639633Y-44956107D01*
X142654247Y-44936402D01*
X142670723Y-44918223D01*
X142688902Y-44901747D01*
X142708607Y-44887133D01*
X142729651Y-44874520D01*
X142751829Y-44864030D01*
X142774929Y-44855765D01*
X142798727Y-44849804D01*
X142822996Y-44846204D01*
X142847500Y-44845000D01*
X143772500Y-44845000D01*
X143797004Y-44846204D01*
X143797004Y-44846204D01*
G37*
D13*
G04 #@! TD*
G04 #@! TO.P,D2,1*
G04 #@! TO.N,GND*
X143310000Y-45720000D03*
D11*
G04 #@! TO.P,J22,1*
G04 #@! TO.N,GND*
X127635000Y-95250000D03*
D15*
G04 #@! TO.P,J22,2*
G04 #@! TO.N,SDA1_GP14*
X127635000Y-92710000D03*
G04 #@! TO.P,J22,3*
G04 #@! TO.N,SCL1_GP15*
X127635000Y-90170000D03*
G04 #@! TO.P,J22,4*
G04 #@! TO.N,+3V3*
X127635000Y-87630000D03*
G04 #@! TD*
G04 #@! TO.P,J23,4*
G04 #@! TO.N,+3V3*
X135255000Y-87630000D03*
G04 #@! TO.P,J23,3*
G04 #@! TO.N,SCL1_GP15*
X135255000Y-90170000D03*
G04 #@! TO.P,J23,2*
G04 #@! TO.N,SDA1_GP14*
X135255000Y-92710000D03*
D11*
G04 #@! TO.P,J23,1*
G04 #@! TO.N,GND*
X135255000Y-95250000D03*
G04 #@! TD*
D20*
G04 #@! TO.P,C2,2*
G04 #@! TO.N,GND*
X167045000Y-69215000D03*
D19*
G04 #@! TO.P,C2,1*
G04 #@! TO.N,+3V3*
X169545000Y-69215000D03*
G04 #@! TD*
G04 #@! TO.P,C3,1*
G04 #@! TO.N,+3V3*
X76240000Y-69850000D03*
D20*
G04 #@! TO.P,C3,2*
G04 #@! TO.N,GND*
X78740000Y-69850000D03*
G04 #@! TD*
G04 #@! TO.P,C4,2*
G04 #@! TO.N,GND*
X78740000Y-36830000D03*
D19*
G04 #@! TO.P,C4,1*
G04 #@! TO.N,+3V3*
X76240000Y-36830000D03*
G04 #@! TD*
G04 #@! TO.P,C5,1*
G04 #@! TO.N,+3V3*
X135215000Y-80010000D03*
D20*
G04 #@! TO.P,C5,2*
G04 #@! TO.N,GND*
X132715000Y-80010000D03*
G04 #@! TD*
D11*
G04 #@! TO.P,J2,1*
G04 #@! TO.N,GND*
X120650000Y-91440000D03*
D15*
G04 #@! TO.P,J2,2*
G04 #@! TO.N,SWDIO*
X118110000Y-91440000D03*
G04 #@! TO.P,J2,3*
G04 #@! TO.N,SWCLK*
X115570000Y-91440000D03*
G04 #@! TO.P,J2,4*
G04 #@! TO.N,+5VD*
X113030000Y-91440000D03*
G04 #@! TD*
D11*
G04 #@! TO.P,J21,1*
G04 #@! TO.N,WS2812_3V*
X169545000Y-45085000D03*
D15*
G04 #@! TO.P,J21,2*
G04 #@! TO.N,GND*
X169545000Y-42545000D03*
G04 #@! TO.P,J21,3*
X169545000Y-40005000D03*
G04 #@! TO.P,J21,4*
G04 #@! TO.N,WS2812B_5V*
X169545000Y-37465000D03*
G04 #@! TD*
D11*
G04 #@! TO.P,JP1,1*
G04 #@! TO.N,+3V3*
X170180000Y-77470000D03*
D15*
G04 #@! TO.P,JP1,2*
G04 #@! TO.N,Net-(JP1-Pad2)*
X167640000Y-77470000D03*
G04 #@! TD*
D22*
G04 #@! TO.N,+3V3*
X156845000Y-47625000D03*
D23*
G04 #@! TO.N,SPI0_CS1*
X137160000Y-69850000D03*
X142240000Y-69850000D03*
G04 #@! TD*
D24*
G04 #@! TO.N,GND*
X94615000Y-67310000D02*
X89535000Y-62230000D01*
X97155000Y-67310000D02*
X94615000Y-67310000D01*
X85090000Y-85090000D02*
X97155000Y-85090000D01*
X143310000Y-51635000D02*
X140970000Y-53975000D01*
X143310000Y-45720000D02*
X143310000Y-51635000D01*
D25*
G04 #@! TO.N,MODE*
X126619000Y-42672000D02*
X130048000Y-42672000D01*
X133550000Y-39170000D02*
X135255000Y-39170000D01*
X130048000Y-42672000D02*
X133550000Y-39170000D01*
X138630000Y-39170000D02*
X140970000Y-36830000D01*
X135255000Y-39170000D02*
X138630000Y-39170000D01*
D24*
G04 #@! TO.N,+5V*
X111760000Y-81090000D02*
X111760000Y-47629204D01*
X111760000Y-47629204D02*
X120652102Y-38737102D01*
X120652102Y-38737102D02*
X120015000Y-39370000D01*
X120652102Y-38737102D02*
X123905010Y-35484194D01*
X123905010Y-35484194D02*
X123905010Y-31034990D01*
X124968000Y-29972000D02*
X126619000Y-29972000D01*
X123905010Y-31034990D02*
X124968000Y-29972000D01*
X155140000Y-33982000D02*
X149098000Y-27940000D01*
X155140000Y-34290000D02*
X155140000Y-33982000D01*
X149098000Y-27940000D02*
X146558000Y-27940000D01*
X146558000Y-27940000D02*
X144018000Y-27940000D01*
X133533000Y-29972000D02*
X135255000Y-28250000D01*
X126619000Y-29972000D02*
X133533000Y-29972000D01*
X135565000Y-27940000D02*
X143510000Y-27940000D01*
X135255000Y-28250000D02*
X135565000Y-27940000D01*
G04 #@! TO.N,+5VD*
X111760000Y-90170000D02*
X111760000Y-85090000D01*
X113030000Y-91440000D02*
X111760000Y-90170000D01*
D25*
G04 #@! TO.N,SWCLK*
X115189000Y-91059000D02*
X115570000Y-91440000D01*
X115189000Y-75462000D02*
X115189000Y-91059000D01*
G04 #@! TO.N,SWDIO*
X118110000Y-91440000D02*
X118110000Y-84455000D01*
X120269000Y-82296000D02*
X120269000Y-75462000D01*
X118110000Y-84455000D02*
X120269000Y-82296000D01*
D24*
G04 #@! TO.N,+3V3*
X97155000Y-43053000D02*
X89535000Y-43053000D01*
X89535000Y-43053000D02*
X81915000Y-43053000D01*
X135255000Y-80050000D02*
X135215000Y-80010000D01*
X135255000Y-87630000D02*
X135255000Y-80050000D01*
X149860000Y-53975000D02*
X160020000Y-53975000D01*
X126619000Y-37592000D02*
X131953000Y-37592000D01*
X133350000Y-36195000D02*
X135255000Y-36195000D01*
X131953000Y-37592000D02*
X133350000Y-36195000D01*
X135255000Y-36195000D02*
X136525000Y-36195000D01*
X136525000Y-36195000D02*
X139700000Y-33020000D01*
X147320000Y-33020000D02*
X149860000Y-35560000D01*
X139700000Y-33020000D02*
X147320000Y-33020000D01*
X157655000Y-38420000D02*
X155260000Y-38420000D01*
X152400000Y-35560000D02*
X149860000Y-35560000D01*
X155260000Y-38420000D02*
X152400000Y-35560000D01*
X157045000Y-44450000D02*
X157045000Y-44015000D01*
X155260000Y-42230000D02*
X155260000Y-38420000D01*
X157045000Y-44015000D02*
X155260000Y-42230000D01*
X83185000Y-99695000D02*
X81915000Y-98425000D01*
X81915000Y-98425000D02*
X81915000Y-95250000D01*
X81915000Y-95250000D02*
X76240000Y-89575000D01*
X76240000Y-69850000D02*
X76240000Y-62825000D01*
X76835000Y-62230000D02*
X81915000Y-62230000D01*
X76240000Y-62825000D02*
X76835000Y-62230000D01*
X81915000Y-62230000D02*
X81915000Y-59690000D01*
X81915000Y-59690000D02*
X81915000Y-57150000D01*
X81915000Y-43053000D02*
X79502000Y-43053000D01*
X79502000Y-43053000D02*
X76240000Y-46315000D01*
X76240000Y-46315000D02*
X76240000Y-47625000D01*
X76240000Y-36830000D02*
X76240000Y-47625000D01*
X76240000Y-47625000D02*
X76240000Y-69850000D01*
X95250000Y-95467500D02*
X95250000Y-99695000D01*
X95250000Y-99695000D02*
X83185000Y-99695000D01*
X109220000Y-99695000D02*
X95250000Y-99695000D01*
X87630000Y-72390000D02*
X85090000Y-74930000D01*
X76240000Y-89575000D02*
X76240000Y-74930000D01*
X76240000Y-74930000D02*
X76240000Y-69850000D01*
X109220000Y-99695000D02*
X109220000Y-90170000D01*
X108585000Y-90170000D02*
X107315000Y-88900000D01*
X109220000Y-90170000D02*
X108585000Y-90170000D01*
X130175000Y-99695000D02*
X130175000Y-87630000D01*
X109220000Y-99695000D02*
X130175000Y-99695000D01*
X127635000Y-87630000D02*
X130175000Y-87630000D01*
X130175000Y-87630000D02*
X135255000Y-87630000D01*
X85090000Y-74930000D02*
X76240000Y-74930000D01*
X87630000Y-72390000D02*
X97155000Y-72390000D01*
X169545000Y-53975000D02*
X160020000Y-53975000D01*
X169545000Y-53975000D02*
X169545000Y-56515000D01*
X169545000Y-56515000D02*
X169545000Y-59055000D01*
X170180000Y-69850000D02*
X169545000Y-69215000D01*
X170180000Y-77470000D02*
X170180000Y-69850000D01*
X169545000Y-69215000D02*
X169545000Y-59055000D01*
X123190000Y-83185000D02*
X127635000Y-87630000D01*
X123190000Y-39370000D02*
X123190000Y-83185000D01*
X124968000Y-37592000D02*
X123190000Y-39370000D01*
X126619000Y-37592000D02*
X124968000Y-37592000D01*
X156845000Y-44650000D02*
X157045000Y-44450000D01*
X156845000Y-47625000D02*
X156845000Y-44650000D01*
X170180000Y-77470000D02*
X170180000Y-76835000D01*
X170180000Y-76835000D02*
X167005000Y-73660000D01*
X141565000Y-73660000D02*
X135215000Y-80010000D01*
X167005000Y-73660000D02*
X141565000Y-73660000D01*
D25*
G04 #@! TO.N,ADC0*
X126619000Y-50292000D02*
X128778000Y-50292000D01*
X128778000Y-50292000D02*
X135890000Y-43180000D01*
X135890000Y-43180000D02*
X145415000Y-43180000D01*
X145415000Y-43180000D02*
X147955000Y-45720000D01*
X147955000Y-45720000D02*
X151765000Y-45720000D01*
X151765000Y-45720000D02*
X153035000Y-44450000D01*
X153035000Y-44450000D02*
X153035000Y-39370000D01*
X151765000Y-38100000D02*
X149860000Y-38100000D01*
X153035000Y-39370000D02*
X151765000Y-38100000D01*
G04 #@! TO.N,ADC1*
X126619000Y-47752000D02*
X129678010Y-47752000D01*
X136790010Y-40640000D02*
X149860000Y-40640000D01*
X129678010Y-47752000D02*
X136790010Y-40640000D01*
G04 #@! TO.N,GP9*
X97155000Y-64770000D02*
X98425000Y-64770000D01*
X98425000Y-64770000D02*
X104775000Y-58420000D01*
X104775000Y-58420000D02*
X104775000Y-56515000D01*
X105918000Y-55372000D02*
X108839000Y-55372000D01*
X104775000Y-56515000D02*
X105918000Y-55372000D01*
X106045000Y-92710000D02*
X106045000Y-92075000D01*
X104340000Y-90370000D02*
X104340000Y-88900000D01*
X106045000Y-92075000D02*
X104340000Y-90370000D01*
G04 #@! TO.N,GP8*
X97155000Y-62230000D02*
X97790000Y-62230000D01*
X97790000Y-62230000D02*
X103505000Y-56515000D01*
X103505000Y-56515000D02*
X103505000Y-54610000D01*
X105283000Y-52832000D02*
X108839000Y-52832000D01*
X103505000Y-54610000D02*
X105283000Y-52832000D01*
X95032500Y-92710000D02*
X95250000Y-92492500D01*
X91440000Y-92710000D02*
X95032500Y-92710000D01*
G04 #@! TO.N,SCL_0*
X97155000Y-48133000D02*
X99187000Y-48133000D01*
X104648000Y-42672000D02*
X108839000Y-42672000D01*
X99187000Y-48133000D02*
X104648000Y-42672000D01*
X97155000Y-48133000D02*
X89535000Y-48133000D01*
X81915000Y-48133000D02*
X89535000Y-48133000D01*
G04 #@! TO.N,SDA_0*
X97155000Y-45593000D02*
X99187000Y-45593000D01*
X104648000Y-40132000D02*
X108839000Y-40132000D01*
X99187000Y-45593000D02*
X104648000Y-40132000D01*
X81915000Y-45593000D02*
X89535000Y-45593000D01*
X89535000Y-45593000D02*
X97155000Y-45593000D01*
G04 #@! TO.N,U_RX*
X102870000Y-27940000D02*
X104902000Y-29972000D01*
X87630000Y-32385000D02*
X92075000Y-27940000D01*
X104902000Y-29972000D02*
X108839000Y-29972000D01*
X92075000Y-27940000D02*
X102870000Y-27940000D01*
G04 #@! TO.N,U_TX*
X87630000Y-29845000D02*
X90805000Y-26670000D01*
X90805000Y-26670000D02*
X103505000Y-26670000D01*
X104267000Y-27432000D02*
X108839000Y-27432000D01*
X103505000Y-26670000D02*
X104267000Y-27432000D01*
G04 #@! TO.N,SPI0_CS1*
X126619000Y-73152000D02*
X130683000Y-73152000D01*
X130683000Y-73152000D02*
X133985000Y-69850000D01*
X133985000Y-69850000D02*
X137160000Y-69850000D01*
X142240000Y-69850000D02*
X151130000Y-69850000D01*
X156845000Y-64135000D02*
X160020000Y-64135000D01*
X151130000Y-69850000D02*
X156845000Y-64135000D01*
G04 #@! TO.N,SPI1_CS1_GP13*
X108839000Y-68072000D02*
X105283000Y-68072000D01*
X105283000Y-68072000D02*
X104140000Y-69215000D01*
X104140000Y-69215000D02*
X104140000Y-77470000D01*
X99060000Y-82550000D02*
X97155000Y-82550000D01*
X104140000Y-77470000D02*
X99060000Y-82550000D01*
D26*
G04 #@! TO.N,Net-(D2-Pad2)*
X137160000Y-48895000D02*
X140335000Y-45720000D01*
D25*
G04 #@! TO.N,GP7*
X97155000Y-59690000D02*
X97790000Y-59690000D01*
X97790000Y-59690000D02*
X102235000Y-55245000D01*
X102235000Y-55245000D02*
X102235000Y-53340000D01*
X105283000Y-50292000D02*
X108839000Y-50292000D01*
X102235000Y-53340000D02*
X105283000Y-50292000D01*
G04 #@! TO.N,GP6*
X97155000Y-57150000D02*
X97155000Y-55880000D01*
X105283000Y-47752000D02*
X108839000Y-47752000D01*
X97155000Y-55880000D02*
X105283000Y-47752000D01*
G04 #@! TO.N,WS2812_3V*
X126619000Y-60452000D02*
X130683000Y-60452000D01*
X130683000Y-60452000D02*
X133985000Y-57150000D01*
X133985000Y-57150000D02*
X142240000Y-57150000D01*
X142240000Y-57150000D02*
X149225000Y-50165000D01*
X149225000Y-50165000D02*
X156845000Y-50165000D01*
X160020000Y-46990000D02*
X160020000Y-44450000D01*
X156845000Y-50165000D02*
X160020000Y-46990000D01*
X160020000Y-42685000D02*
X157655000Y-40320000D01*
X160020000Y-44450000D02*
X160020000Y-42685000D01*
X160655000Y-45085000D02*
X160020000Y-44450000D01*
X169545000Y-45085000D02*
X160655000Y-45085000D01*
G04 #@! TO.N,WS2812B_5V*
X160655000Y-39370000D02*
X161290000Y-38735000D01*
X161290000Y-38735000D02*
X161290000Y-36195000D01*
X159385000Y-34290000D02*
X158115000Y-34290000D01*
X161290000Y-36195000D02*
X159385000Y-34290000D01*
X160655000Y-39370000D02*
X163830000Y-39370000D01*
X165735000Y-37465000D02*
X169545000Y-37465000D01*
X163830000Y-39370000D02*
X165735000Y-37465000D01*
G04 #@! TO.N,GP2*
X97155000Y-29845000D02*
X99695000Y-29845000D01*
X104902000Y-35052000D02*
X108839000Y-35052000D01*
X99695000Y-29845000D02*
X104902000Y-35052000D01*
G04 #@! TO.N,GP3*
X108839000Y-37592000D02*
X104902000Y-37592000D01*
X99695000Y-32385000D02*
X97155000Y-32385000D01*
X104902000Y-37592000D02*
X99695000Y-32385000D01*
D26*
G04 #@! TO.N,LED*
X134185000Y-48895000D02*
X134185000Y-51870000D01*
X130683000Y-55372000D02*
X126619000Y-55372000D01*
X134185000Y-51870000D02*
X130683000Y-55372000D01*
D25*
G04 #@! TO.N,SPI0_MISO*
X126619000Y-75692000D02*
X133858000Y-75692000D01*
X147955000Y-61595000D02*
X149860000Y-61595000D01*
X133858000Y-75692000D02*
X147955000Y-61595000D01*
X149860000Y-61595000D02*
X160020000Y-61595000D01*
G04 #@! TO.N,SPI0_CK*
X126619000Y-68072000D02*
X138938000Y-68072000D01*
X147955000Y-59055000D02*
X149860000Y-59055000D01*
X138938000Y-68072000D02*
X147955000Y-59055000D01*
X149860000Y-59055000D02*
X160020000Y-59055000D01*
G04 #@! TO.N,SPI0_MOSI*
X149860000Y-56515000D02*
X160020000Y-56515000D01*
X139065000Y-66040000D02*
X127127000Y-66040000D01*
X127127000Y-66040000D02*
X126619000Y-65532000D01*
X149860000Y-56515000D02*
X148590000Y-56515000D01*
X148590000Y-56515000D02*
X139065000Y-66040000D01*
G04 #@! TO.N,SPI1_CK_GP10_I2S_CLK*
X108839000Y-60452000D02*
X105918000Y-60452000D01*
X105918000Y-60452000D02*
X100330000Y-66040000D01*
X100330000Y-66040000D02*
X100330000Y-73405001D01*
X98805001Y-74930000D02*
X97155000Y-74930000D01*
X100330000Y-73405001D02*
X98805001Y-74930000D01*
X85090000Y-77470000D02*
X88265000Y-77470000D01*
X92075000Y-74930000D02*
X97155000Y-74930000D01*
X88265000Y-77470000D02*
X90805000Y-74930000D01*
X90805000Y-74930000D02*
X92075000Y-74930000D01*
G04 #@! TO.N,SPI1_MOSI_GP11_I2S_WS*
X108839000Y-62992000D02*
X105918000Y-62992000D01*
X105918000Y-62992000D02*
X101600000Y-67310000D01*
X101600000Y-67310000D02*
X101600000Y-74930000D01*
X99060000Y-77470000D02*
X97155000Y-77470000D01*
X101600000Y-74930000D02*
X99060000Y-77470000D01*
X85090000Y-80010000D02*
X88265000Y-80010000D01*
X92075000Y-77470000D02*
X97155000Y-77470000D01*
X88265000Y-80010000D02*
X90805000Y-77470000D01*
X90805000Y-77470000D02*
X92075000Y-77470000D01*
G04 #@! TO.N,SPI1_MISO_GP12_I2S_SD*
X108839000Y-65532000D02*
X105283000Y-65532000D01*
X105283000Y-65532000D02*
X102870000Y-67945000D01*
X102870000Y-67945000D02*
X102870000Y-76200000D01*
X99060000Y-80010000D02*
X97155000Y-80010000D01*
X102870000Y-76200000D02*
X99060000Y-80010000D01*
X92710000Y-80010000D02*
X97155000Y-80010000D01*
X85090000Y-82550000D02*
X90170000Y-82550000D01*
X90170000Y-82550000D02*
X92710000Y-80010000D01*
G04 #@! TD*
D27*
G04 #@! TO.N,+3V3*
G36*
X87475838Y-27595000D02*
X87408394Y-27595000D01*
X86752094Y-27725546D01*
X86007840Y-28222840D01*
X85510546Y-28967094D01*
X85335920Y-29845000D01*
X85510546Y-30722906D01*
X85772535Y-31115000D01*
X85510546Y-31507094D01*
X85335920Y-32385000D01*
X85510546Y-33262906D01*
X85574702Y-33358923D01*
X85461229Y-33528747D01*
X85352573Y-34075000D01*
X85352573Y-35775000D01*
X85461229Y-36321253D01*
X85770657Y-36784343D01*
X86233747Y-37093771D01*
X86780000Y-37202427D01*
X88480000Y-37202427D01*
X89026253Y-37093771D01*
X89489343Y-36784343D01*
X89798771Y-36321253D01*
X89907427Y-35775000D01*
X89907427Y-34075000D01*
X89798771Y-33528747D01*
X89685298Y-33358923D01*
X89749454Y-33262906D01*
X89896746Y-32522416D01*
X92779163Y-29640000D01*
X94901697Y-29640000D01*
X94860920Y-29845000D01*
X95035546Y-30722906D01*
X95297535Y-31115000D01*
X95035546Y-31507094D01*
X94860920Y-32385000D01*
X95035546Y-33262906D01*
X95099702Y-33358923D01*
X94986229Y-33528747D01*
X94877573Y-34075000D01*
X94877573Y-35775000D01*
X94986229Y-36321253D01*
X95295657Y-36784343D01*
X95758747Y-37093771D01*
X96305000Y-37202427D01*
X98005000Y-37202427D01*
X98551253Y-37093771D01*
X99014343Y-36784343D01*
X99323771Y-36321253D01*
X99432427Y-35775000D01*
X99432427Y-34526589D01*
X103581527Y-38675690D01*
X103638961Y-38761647D01*
X103422369Y-38906369D01*
X103327527Y-39048310D01*
X98554065Y-43821773D01*
X98032906Y-43473546D01*
X97376606Y-43343000D01*
X96933394Y-43343000D01*
X96277094Y-43473546D01*
X95649336Y-43893000D01*
X91040664Y-43893000D01*
X90412906Y-43473546D01*
X89756606Y-43343000D01*
X89313394Y-43343000D01*
X88657094Y-43473546D01*
X88029336Y-43893000D01*
X83420664Y-43893000D01*
X82792906Y-43473546D01*
X82136606Y-43343000D01*
X81693394Y-43343000D01*
X81037094Y-43473546D01*
X80292840Y-43970840D01*
X79795546Y-44715094D01*
X79620920Y-45593000D01*
X79795546Y-46470906D01*
X80057535Y-46863000D01*
X79795546Y-47255094D01*
X79620920Y-48133000D01*
X79795546Y-49010906D01*
X79859702Y-49106923D01*
X79746229Y-49276747D01*
X79637573Y-49823000D01*
X79637573Y-51523000D01*
X79746229Y-52069253D01*
X80055657Y-52532343D01*
X80518747Y-52841771D01*
X81065000Y-52950427D01*
X82765000Y-52950427D01*
X83311253Y-52841771D01*
X83774343Y-52532343D01*
X84083771Y-52069253D01*
X84192427Y-51523000D01*
X84192427Y-49833000D01*
X87257573Y-49833000D01*
X87257573Y-51523000D01*
X87366229Y-52069253D01*
X87675657Y-52532343D01*
X88138747Y-52841771D01*
X88685000Y-52950427D01*
X90385000Y-52950427D01*
X90931253Y-52841771D01*
X91394343Y-52532343D01*
X91703771Y-52069253D01*
X91812427Y-51523000D01*
X91812427Y-49833000D01*
X94877573Y-49833000D01*
X94877573Y-51523000D01*
X94986229Y-52069253D01*
X95295657Y-52532343D01*
X95758747Y-52841771D01*
X96305000Y-52950427D01*
X97680411Y-52950427D01*
X96071311Y-54559527D01*
X95929370Y-54654369D01*
X95834528Y-54796310D01*
X95553636Y-55216694D01*
X95507229Y-55450000D01*
X95474326Y-55615412D01*
X95035546Y-56272094D01*
X94860920Y-57150000D01*
X95035546Y-58027906D01*
X95297535Y-58420000D01*
X95035546Y-58812094D01*
X94860920Y-59690000D01*
X95035546Y-60567906D01*
X95297535Y-60960000D01*
X95035546Y-61352094D01*
X94860920Y-62230000D01*
X95035546Y-63107906D01*
X95297535Y-63500000D01*
X95035546Y-63892094D01*
X94860920Y-64770000D01*
X94867923Y-64805207D01*
X91713958Y-61651243D01*
X91654454Y-61352094D01*
X91392465Y-60960000D01*
X91654454Y-60567906D01*
X91829080Y-59690000D01*
X91654454Y-58812094D01*
X91590298Y-58716077D01*
X91703771Y-58546253D01*
X91812427Y-58000000D01*
X91812427Y-56300000D01*
X91703771Y-55753747D01*
X91394343Y-55290657D01*
X90931253Y-54981229D01*
X90385000Y-54872573D01*
X88685000Y-54872573D01*
X88138747Y-54981229D01*
X87675657Y-55290657D01*
X87366229Y-55753747D01*
X87257573Y-56300000D01*
X87257573Y-58000000D01*
X87366229Y-58546253D01*
X87479702Y-58716077D01*
X87415546Y-58812094D01*
X87240920Y-59690000D01*
X87415546Y-60567906D01*
X87677535Y-60960000D01*
X87415546Y-61352094D01*
X87240920Y-62230000D01*
X87415546Y-63107906D01*
X87912840Y-63852160D01*
X88657094Y-64349454D01*
X88956243Y-64408958D01*
X93100338Y-68553054D01*
X93209129Y-68715871D01*
X93854148Y-69146859D01*
X94422946Y-69260000D01*
X94422949Y-69260000D01*
X94615000Y-69298201D01*
X94807050Y-69260000D01*
X95431334Y-69260000D01*
X95758747Y-69478771D01*
X96305000Y-69587427D01*
X98005000Y-69587427D01*
X98551253Y-69478771D01*
X98630000Y-69426153D01*
X98630001Y-72700837D01*
X98325073Y-73005766D01*
X98032906Y-72810546D01*
X97376606Y-72680000D01*
X96933394Y-72680000D01*
X96277094Y-72810546D01*
X95649336Y-73230000D01*
X90972424Y-73230000D01*
X90804999Y-73196697D01*
X90637574Y-73230000D01*
X90637570Y-73230000D01*
X90141693Y-73328636D01*
X89579369Y-73704369D01*
X89484527Y-73846310D01*
X87560838Y-75770000D01*
X86595664Y-75770000D01*
X85967906Y-75350546D01*
X85311606Y-75220000D01*
X84868394Y-75220000D01*
X84212094Y-75350546D01*
X83467840Y-75847840D01*
X82970546Y-76592094D01*
X82795920Y-77470000D01*
X82970546Y-78347906D01*
X83232535Y-78740000D01*
X82970546Y-79132094D01*
X82795920Y-80010000D01*
X82970546Y-80887906D01*
X83232535Y-81280000D01*
X82970546Y-81672094D01*
X82795920Y-82550000D01*
X82970546Y-83427906D01*
X83034702Y-83523923D01*
X82921229Y-83693747D01*
X82812573Y-84240000D01*
X82812573Y-85940000D01*
X82921229Y-86486253D01*
X83230657Y-86949343D01*
X83693747Y-87258771D01*
X84240000Y-87367427D01*
X85940000Y-87367427D01*
X86486253Y-87258771D01*
X86813666Y-87040000D01*
X95431334Y-87040000D01*
X95758747Y-87258771D01*
X96305000Y-87367427D01*
X98005000Y-87367427D01*
X98551253Y-87258771D01*
X99014343Y-86949343D01*
X99323771Y-86486253D01*
X99432427Y-85940000D01*
X99432427Y-84240000D01*
X99426538Y-84210395D01*
X99723307Y-84151364D01*
X100285631Y-83775631D01*
X100380475Y-83633687D01*
X105223691Y-78790472D01*
X105365631Y-78695631D01*
X105741364Y-78133307D01*
X105789758Y-77890013D01*
X106189000Y-77969427D01*
X109689000Y-77969427D01*
X109810000Y-77945359D01*
X109810000Y-78891504D01*
X109541229Y-79293747D01*
X109432573Y-79840000D01*
X109432573Y-82340000D01*
X109541229Y-82886253D01*
X109677369Y-83090000D01*
X109541229Y-83293747D01*
X109432573Y-83840000D01*
X109432573Y-86340000D01*
X109541229Y-86886253D01*
X109810001Y-87288497D01*
X109810000Y-89977949D01*
X109771799Y-90170000D01*
X109810000Y-90362050D01*
X109810000Y-90362053D01*
X109923141Y-90930851D01*
X110354129Y-91575871D01*
X110516948Y-91684663D01*
X110851042Y-92018757D01*
X110910546Y-92317906D01*
X111407840Y-93062160D01*
X112152094Y-93559454D01*
X112808394Y-93690000D01*
X113251606Y-93690000D01*
X113907906Y-93559454D01*
X114300000Y-93297465D01*
X114692094Y-93559454D01*
X115348394Y-93690000D01*
X115791606Y-93690000D01*
X116447906Y-93559454D01*
X116840000Y-93297465D01*
X117232094Y-93559454D01*
X117888394Y-93690000D01*
X118331606Y-93690000D01*
X118987906Y-93559454D01*
X119083923Y-93495298D01*
X119253747Y-93608771D01*
X119800000Y-93717427D01*
X121500000Y-93717427D01*
X122046253Y-93608771D01*
X122509343Y-93299343D01*
X122818771Y-92836253D01*
X122927427Y-92290000D01*
X122927427Y-90590000D01*
X122843885Y-90170000D01*
X125340920Y-90170000D01*
X125515546Y-91047906D01*
X125777535Y-91440000D01*
X125515546Y-91832094D01*
X125340920Y-92710000D01*
X125515546Y-93587906D01*
X125579702Y-93683923D01*
X125466229Y-93853747D01*
X125357573Y-94400000D01*
X125357573Y-96100000D01*
X125466229Y-96646253D01*
X125775657Y-97109343D01*
X126238747Y-97418771D01*
X126785000Y-97527427D01*
X128485000Y-97527427D01*
X129031253Y-97418771D01*
X129494343Y-97109343D01*
X129803771Y-96646253D01*
X129912427Y-96100000D01*
X129912427Y-94400000D01*
X129803771Y-93853747D01*
X129690298Y-93683923D01*
X129754454Y-93587906D01*
X129929080Y-92710000D01*
X129754454Y-91832094D01*
X129492465Y-91440000D01*
X129754454Y-91047906D01*
X129929080Y-90170000D01*
X132960920Y-90170000D01*
X133135546Y-91047906D01*
X133397535Y-91440000D01*
X133135546Y-91832094D01*
X132960920Y-92710000D01*
X133135546Y-93587906D01*
X133199702Y-93683923D01*
X133086229Y-93853747D01*
X132977573Y-94400000D01*
X132977573Y-96100000D01*
X133086229Y-96646253D01*
X133395657Y-97109343D01*
X133858747Y-97418771D01*
X134405000Y-97527427D01*
X136105000Y-97527427D01*
X136651253Y-97418771D01*
X137114343Y-97109343D01*
X137423771Y-96646253D01*
X137532427Y-96100000D01*
X137532427Y-94400000D01*
X137423771Y-93853747D01*
X137310298Y-93683923D01*
X137374454Y-93587906D01*
X137549080Y-92710000D01*
X137374454Y-91832094D01*
X137112465Y-91440000D01*
X137374454Y-91047906D01*
X137549080Y-90170000D01*
X137374454Y-89292094D01*
X136877160Y-88547840D01*
X136132906Y-88050546D01*
X135476606Y-87920000D01*
X135033394Y-87920000D01*
X134377094Y-88050546D01*
X133632840Y-88547840D01*
X133135546Y-89292094D01*
X132960920Y-90170000D01*
X129929080Y-90170000D01*
X129754454Y-89292094D01*
X129257160Y-88547840D01*
X128512906Y-88050546D01*
X127856606Y-87920000D01*
X127413394Y-87920000D01*
X126757094Y-88050546D01*
X126012840Y-88547840D01*
X125515546Y-89292094D01*
X125340920Y-90170000D01*
X122843885Y-90170000D01*
X122818771Y-90043747D01*
X122509343Y-89580657D01*
X122046253Y-89271229D01*
X121500000Y-89162573D01*
X119810000Y-89162573D01*
X119810000Y-85159162D01*
X121352690Y-83616473D01*
X121494631Y-83521631D01*
X121870364Y-82959307D01*
X121969000Y-82463430D01*
X121969000Y-82463427D01*
X122002303Y-82296001D01*
X121969000Y-82128574D01*
X121969000Y-79572393D01*
X130515000Y-79572393D01*
X130515000Y-80447607D01*
X130849930Y-81256200D01*
X131468800Y-81875070D01*
X132277393Y-82210000D01*
X133152607Y-82210000D01*
X133961200Y-81875070D01*
X134580070Y-81256200D01*
X134915000Y-80447607D01*
X134915000Y-79572393D01*
X134833238Y-79375000D01*
X138565000Y-79375000D01*
X138565000Y-95885000D01*
X138603060Y-96076342D01*
X138711447Y-96238553D01*
X140616447Y-98143553D01*
X140778658Y-98251940D01*
X140970000Y-98290000D01*
X162560000Y-98290000D01*
X162751342Y-98251940D01*
X162913553Y-98143553D01*
X164818553Y-96238553D01*
X164926940Y-96076342D01*
X164965000Y-95885000D01*
X164965000Y-79375000D01*
X164895237Y-79120253D01*
X164765000Y-78975000D01*
X162758334Y-77470000D01*
X165345920Y-77470000D01*
X165520546Y-78347906D01*
X166017840Y-79092160D01*
X166762094Y-79589454D01*
X167418394Y-79720000D01*
X167861606Y-79720000D01*
X168517906Y-79589454D01*
X169262160Y-79092160D01*
X169759454Y-78347906D01*
X169934080Y-77470000D01*
X169759454Y-76592094D01*
X169262160Y-75847840D01*
X168517906Y-75350546D01*
X167861606Y-75220000D01*
X167418394Y-75220000D01*
X166762094Y-75350546D01*
X166017840Y-75847840D01*
X165520546Y-76592094D01*
X165345920Y-77470000D01*
X162758334Y-77470000D01*
X162225000Y-77070000D01*
X162116342Y-77008060D01*
X161925000Y-76970000D01*
X157815702Y-76970000D01*
X157825000Y-76947553D01*
X157825000Y-76052447D01*
X157482458Y-75225477D01*
X156849523Y-74592542D01*
X156022553Y-74250000D01*
X155127447Y-74250000D01*
X154305000Y-74590669D01*
X153482553Y-74250000D01*
X152587447Y-74250000D01*
X151765000Y-74590669D01*
X150942553Y-74250000D01*
X150047447Y-74250000D01*
X149542629Y-74459103D01*
X149351253Y-74331229D01*
X148805000Y-74222573D01*
X147105000Y-74222573D01*
X146558747Y-74331229D01*
X146095657Y-74640657D01*
X145786229Y-75103747D01*
X145677573Y-75650000D01*
X145677573Y-76970000D01*
X140970000Y-76970000D01*
X140778658Y-77008060D01*
X140616447Y-77116447D01*
X138711447Y-79021447D01*
X138603060Y-79183658D01*
X138565000Y-79375000D01*
X134833238Y-79375000D01*
X134580070Y-78763800D01*
X133961200Y-78144930D01*
X133152607Y-77810000D01*
X132277393Y-77810000D01*
X131468800Y-78144930D01*
X130849930Y-78763800D01*
X130515000Y-79572393D01*
X121969000Y-79572393D01*
X121969000Y-79227813D01*
X122128343Y-79121343D01*
X122437771Y-78658253D01*
X122546427Y-78112000D01*
X122546427Y-75545720D01*
X122563080Y-75462000D01*
X122546427Y-75378280D01*
X122546427Y-74612000D01*
X122437771Y-74065747D01*
X122128343Y-73602657D01*
X121665253Y-73293229D01*
X121119000Y-73184573D01*
X119419000Y-73184573D01*
X118999000Y-73268116D01*
X118579000Y-73184573D01*
X116879000Y-73184573D01*
X116459000Y-73268116D01*
X116039000Y-73184573D01*
X114339000Y-73184573D01*
X113792747Y-73293229D01*
X113710000Y-73348519D01*
X113710000Y-48436919D01*
X122028689Y-40118231D01*
X122162640Y-39985164D01*
X122164459Y-39982461D01*
X122166762Y-39980158D01*
X122166764Y-39980155D01*
X125044950Y-37101971D01*
X125222747Y-37220771D01*
X125769000Y-37329427D01*
X129269000Y-37329427D01*
X129815253Y-37220771D01*
X130278343Y-36911343D01*
X130587771Y-36448253D01*
X130696427Y-35902000D01*
X130696427Y-34202000D01*
X130612884Y-33782000D01*
X130696427Y-33362000D01*
X130696427Y-31922000D01*
X133055000Y-31922000D01*
X133055000Y-32187607D01*
X133389930Y-32996200D01*
X134008800Y-33615070D01*
X134817393Y-33950000D01*
X135692607Y-33950000D01*
X136501200Y-33615070D01*
X137120070Y-32996200D01*
X137455000Y-32187607D01*
X137455000Y-31312393D01*
X137120070Y-30503800D01*
X136831317Y-30215047D01*
X137064343Y-30059343D01*
X137177495Y-29890000D01*
X142294334Y-29890000D01*
X142621747Y-30108771D01*
X143168000Y-30217427D01*
X144868000Y-30217427D01*
X145414253Y-30108771D01*
X145584077Y-29995298D01*
X145680094Y-30059454D01*
X146336394Y-30190000D01*
X146779606Y-30190000D01*
X147435906Y-30059454D01*
X147689512Y-29890000D01*
X147966488Y-29890000D01*
X148220094Y-30059454D01*
X148519243Y-30118958D01*
X153000073Y-34599789D01*
X153000073Y-34915000D01*
X153127760Y-35556924D01*
X153491380Y-36101120D01*
X154035576Y-36464740D01*
X154677500Y-36592427D01*
X155602500Y-36592427D01*
X156244424Y-36464740D01*
X156627500Y-36208777D01*
X157010576Y-36464740D01*
X157652500Y-36592427D01*
X158577500Y-36592427D01*
X159166170Y-36475333D01*
X159590001Y-36899163D01*
X159590000Y-37565448D01*
X159158747Y-37651229D01*
X158695657Y-37960657D01*
X158386229Y-38423747D01*
X158372539Y-38492573D01*
X156705000Y-38492573D01*
X156158747Y-38601229D01*
X155695657Y-38910657D01*
X155386229Y-39373747D01*
X155277573Y-39920000D01*
X155277573Y-40720000D01*
X155386229Y-41266253D01*
X155695657Y-41729343D01*
X156158747Y-42038771D01*
X156705000Y-42147427D01*
X157078265Y-42147427D01*
X158050279Y-43119442D01*
X158007760Y-43183076D01*
X157880073Y-43825000D01*
X157880073Y-45075000D01*
X158007760Y-45716924D01*
X158320000Y-46184225D01*
X158320000Y-46285837D01*
X156140838Y-48465000D01*
X149392430Y-48465000D01*
X149225000Y-48431696D01*
X149057570Y-48465000D01*
X148561693Y-48563636D01*
X147999369Y-48939369D01*
X147904527Y-49081310D01*
X145285132Y-51700705D01*
X145298202Y-51635000D01*
X145260000Y-51442946D01*
X145260000Y-47080073D01*
X145322240Y-46986924D01*
X145449927Y-46345000D01*
X145449927Y-45619089D01*
X146634527Y-46803690D01*
X146729369Y-46945631D01*
X147291693Y-47321364D01*
X147787570Y-47420000D01*
X147787574Y-47420000D01*
X147954999Y-47453303D01*
X148122424Y-47420000D01*
X151597574Y-47420000D01*
X151765000Y-47453303D01*
X151932426Y-47420000D01*
X151932430Y-47420000D01*
X152428307Y-47321364D01*
X152990631Y-46945631D01*
X153085475Y-46803688D01*
X154118690Y-45770473D01*
X154260631Y-45675631D01*
X154636364Y-45113307D01*
X154735000Y-44617430D01*
X154735000Y-44617427D01*
X154768303Y-44450001D01*
X154735000Y-44282574D01*
X154735000Y-39537426D01*
X154768303Y-39369999D01*
X154735000Y-39202573D01*
X154735000Y-39202570D01*
X154636364Y-38706693D01*
X154260631Y-38144369D01*
X154118690Y-38049527D01*
X153085475Y-37016312D01*
X152990631Y-36874369D01*
X152428307Y-36498636D01*
X151932430Y-36400000D01*
X151932426Y-36400000D01*
X151765000Y-36366697D01*
X151597574Y-36400000D01*
X151365664Y-36400000D01*
X150737906Y-35980546D01*
X150081606Y-35850000D01*
X149638394Y-35850000D01*
X148982094Y-35980546D01*
X148237840Y-36477840D01*
X147740546Y-37222094D01*
X147565920Y-38100000D01*
X147733006Y-38940000D01*
X144994210Y-38940000D01*
X145369343Y-38689343D01*
X145678771Y-38226253D01*
X145787427Y-37680000D01*
X145787427Y-35980000D01*
X145678771Y-35433747D01*
X145369343Y-34970657D01*
X144906253Y-34661229D01*
X144360000Y-34552573D01*
X142660000Y-34552573D01*
X142113747Y-34661229D01*
X141943923Y-34774702D01*
X141847906Y-34710546D01*
X141191606Y-34580000D01*
X140748394Y-34580000D01*
X140092094Y-34710546D01*
X139347840Y-35207840D01*
X138850546Y-35952094D01*
X138703254Y-36692584D01*
X137925838Y-37470000D01*
X136989224Y-37470000D01*
X136521924Y-37157760D01*
X135880000Y-37030073D01*
X134630000Y-37030073D01*
X133988076Y-37157760D01*
X133565889Y-37439856D01*
X133550000Y-37436696D01*
X133124265Y-37521380D01*
X132886693Y-37568636D01*
X132324369Y-37944369D01*
X132229527Y-38086310D01*
X130696427Y-39619410D01*
X130696427Y-39282000D01*
X130587771Y-38735747D01*
X130278343Y-38272657D01*
X129815253Y-37963229D01*
X129269000Y-37854573D01*
X125769000Y-37854573D01*
X125222747Y-37963229D01*
X124759657Y-38272657D01*
X124450229Y-38735747D01*
X124341573Y-39282000D01*
X124341573Y-40048280D01*
X124324920Y-40132000D01*
X124341573Y-40215720D01*
X124341573Y-40982000D01*
X124425116Y-41402000D01*
X124341573Y-41822000D01*
X124341573Y-42588280D01*
X124324920Y-42672000D01*
X124341573Y-42755720D01*
X124341573Y-43522000D01*
X124425116Y-43942000D01*
X124341573Y-44362000D01*
X124341573Y-46062000D01*
X124425116Y-46482000D01*
X124341573Y-46902000D01*
X124341573Y-47668280D01*
X124324920Y-47752000D01*
X124341573Y-47835720D01*
X124341573Y-48602000D01*
X124425116Y-49022000D01*
X124341573Y-49442000D01*
X124341573Y-50208280D01*
X124324920Y-50292000D01*
X124341573Y-50375720D01*
X124341573Y-51142000D01*
X124425116Y-51562000D01*
X124341573Y-51982000D01*
X124341573Y-52748280D01*
X124324920Y-52832000D01*
X124341573Y-52915720D01*
X124341573Y-53682000D01*
X124425116Y-54102000D01*
X124341573Y-54522000D01*
X124341573Y-55288280D01*
X124324920Y-55372000D01*
X124341573Y-55455720D01*
X124341573Y-56222000D01*
X124425116Y-56642000D01*
X124341573Y-57062000D01*
X124341573Y-58762000D01*
X124425116Y-59182000D01*
X124341573Y-59602000D01*
X124341573Y-60368280D01*
X124324920Y-60452000D01*
X124341573Y-60535720D01*
X124341573Y-61302000D01*
X124425116Y-61722000D01*
X124341573Y-62142000D01*
X124341573Y-62908280D01*
X124324920Y-62992000D01*
X124341573Y-63075720D01*
X124341573Y-63842000D01*
X124425116Y-64262000D01*
X124341573Y-64682000D01*
X124341573Y-65448280D01*
X124324920Y-65532000D01*
X124341573Y-65615720D01*
X124341573Y-66382000D01*
X124425116Y-66802000D01*
X124341573Y-67222000D01*
X124341573Y-67988280D01*
X124324920Y-68072000D01*
X124341573Y-68155720D01*
X124341573Y-68922000D01*
X124425116Y-69342000D01*
X124341573Y-69762000D01*
X124341573Y-71462000D01*
X124425116Y-71882000D01*
X124341573Y-72302000D01*
X124341573Y-73068280D01*
X124324920Y-73152000D01*
X124341573Y-73235720D01*
X124341573Y-74002000D01*
X124425116Y-74422000D01*
X124341573Y-74842000D01*
X124341573Y-75608280D01*
X124324920Y-75692000D01*
X124341573Y-75775720D01*
X124341573Y-76542000D01*
X124450229Y-77088253D01*
X124759657Y-77551343D01*
X125222747Y-77860771D01*
X125769000Y-77969427D01*
X129269000Y-77969427D01*
X129815253Y-77860771D01*
X130278343Y-77551343D01*
X130384813Y-77392000D01*
X133690574Y-77392000D01*
X133858000Y-77425303D01*
X134025426Y-77392000D01*
X134025430Y-77392000D01*
X134521307Y-77293364D01*
X135083631Y-76917631D01*
X135178475Y-76775687D01*
X140899289Y-71054873D01*
X141220382Y-71375966D01*
X141881958Y-71650000D01*
X142598042Y-71650000D01*
X142839463Y-71550000D01*
X150962574Y-71550000D01*
X151130000Y-71583303D01*
X151297426Y-71550000D01*
X151297430Y-71550000D01*
X151793307Y-71451364D01*
X152355631Y-71075631D01*
X152450475Y-70933687D01*
X157549163Y-65835000D01*
X157742573Y-65835000D01*
X157742573Y-67525000D01*
X157851229Y-68071253D01*
X158160657Y-68534343D01*
X158623747Y-68843771D01*
X159170000Y-68952427D01*
X160870000Y-68952427D01*
X161416253Y-68843771D01*
X161515594Y-68777393D01*
X164845000Y-68777393D01*
X164845000Y-69652607D01*
X165179930Y-70461200D01*
X165798800Y-71080070D01*
X166607393Y-71415000D01*
X167482607Y-71415000D01*
X168291200Y-71080070D01*
X168910070Y-70461200D01*
X169245000Y-69652607D01*
X169245000Y-68777393D01*
X168910070Y-67968800D01*
X168291200Y-67349930D01*
X167482607Y-67015000D01*
X166607393Y-67015000D01*
X165798800Y-67349930D01*
X165179930Y-67968800D01*
X164845000Y-68777393D01*
X161515594Y-68777393D01*
X161879343Y-68534343D01*
X162188771Y-68071253D01*
X162297427Y-67525000D01*
X162297427Y-65825000D01*
X162188771Y-65278747D01*
X162075298Y-65108923D01*
X162139454Y-65012906D01*
X162314080Y-64135000D01*
X162139454Y-63257094D01*
X161877465Y-62865000D01*
X162139454Y-62472906D01*
X162314080Y-61595000D01*
X162139454Y-60717094D01*
X161877465Y-60325000D01*
X162139454Y-59932906D01*
X162314080Y-59055000D01*
X162139454Y-58177094D01*
X161877465Y-57785000D01*
X162139454Y-57392906D01*
X162314080Y-56515000D01*
X162139454Y-55637094D01*
X161642160Y-54892840D01*
X160897906Y-54395546D01*
X160241606Y-54265000D01*
X159798394Y-54265000D01*
X159142094Y-54395546D01*
X158514336Y-54815000D01*
X151365664Y-54815000D01*
X150737906Y-54395546D01*
X150081606Y-54265000D01*
X149638394Y-54265000D01*
X148982094Y-54395546D01*
X148325413Y-54834326D01*
X147926693Y-54913636D01*
X147364369Y-55289369D01*
X147269527Y-55431310D01*
X143174707Y-59526131D01*
X143004622Y-59115509D01*
X142684083Y-58794970D01*
X142903307Y-58751364D01*
X143465631Y-58375631D01*
X143560475Y-58233687D01*
X149929163Y-51865000D01*
X156677574Y-51865000D01*
X156845000Y-51898303D01*
X157012426Y-51865000D01*
X157012430Y-51865000D01*
X157508307Y-51766364D01*
X158070631Y-51390631D01*
X158165475Y-51248687D01*
X161103690Y-48310473D01*
X161245631Y-48215631D01*
X161621364Y-47653307D01*
X161720000Y-47157430D01*
X161720000Y-47157427D01*
X161753303Y-46990001D01*
X161720000Y-46822574D01*
X161720000Y-46785000D01*
X167579187Y-46785000D01*
X167685657Y-46944343D01*
X168148747Y-47253771D01*
X168695000Y-47362427D01*
X170395000Y-47362427D01*
X170941253Y-47253771D01*
X171245000Y-47050813D01*
X171245001Y-95882361D01*
X170609363Y-95246723D01*
X169506737Y-94790000D01*
X168313263Y-94790000D01*
X167210637Y-95246723D01*
X166366723Y-96090637D01*
X165910000Y-97193263D01*
X165910000Y-98386737D01*
X166366723Y-99489363D01*
X167002360Y-100125000D01*
X79377640Y-100125000D01*
X80013277Y-99489363D01*
X80470000Y-98386737D01*
X80470000Y-97193263D01*
X80013277Y-96090637D01*
X79169363Y-95246723D01*
X78066737Y-94790000D01*
X76873263Y-94790000D01*
X75770637Y-95246723D01*
X75135000Y-95882360D01*
X75135000Y-92232610D01*
X82540000Y-92232610D01*
X82540000Y-93187390D01*
X82905378Y-94069491D01*
X83580509Y-94744622D01*
X84100478Y-94960000D01*
X83580509Y-95175378D01*
X82905378Y-95850509D01*
X82540000Y-96732610D01*
X82540000Y-97687390D01*
X82905378Y-98569491D01*
X83580509Y-99244622D01*
X84462610Y-99610000D01*
X85417390Y-99610000D01*
X86299491Y-99244622D01*
X86974622Y-98569491D01*
X87340000Y-97687390D01*
X87340000Y-96732610D01*
X86974622Y-95850509D01*
X86299491Y-95175378D01*
X85779522Y-94960000D01*
X86299491Y-94744622D01*
X86974622Y-94069491D01*
X87340000Y-93187390D01*
X87340000Y-92232610D01*
X89040000Y-92232610D01*
X89040000Y-93187390D01*
X89405378Y-94069491D01*
X90080509Y-94744622D01*
X90600478Y-94960000D01*
X90080509Y-95175378D01*
X89405378Y-95850509D01*
X89040000Y-96732610D01*
X89040000Y-97687390D01*
X89405378Y-98569491D01*
X90080509Y-99244622D01*
X90962610Y-99610000D01*
X91917390Y-99610000D01*
X92799491Y-99244622D01*
X93474622Y-98569491D01*
X93840000Y-97687390D01*
X93840000Y-96732610D01*
X93474622Y-95850509D01*
X92799491Y-95175378D01*
X92279522Y-94960000D01*
X92799491Y-94744622D01*
X93134113Y-94410000D01*
X93841288Y-94410000D01*
X93983076Y-94504740D01*
X94625000Y-94632427D01*
X95875000Y-94632427D01*
X96516924Y-94504740D01*
X97061120Y-94141120D01*
X97356770Y-93698648D01*
X97510378Y-94069491D01*
X98185509Y-94744622D01*
X98705478Y-94960000D01*
X98185509Y-95175378D01*
X97510378Y-95850509D01*
X97145000Y-96732610D01*
X97145000Y-97687390D01*
X97510378Y-98569491D01*
X98185509Y-99244622D01*
X99067610Y-99610000D01*
X100022390Y-99610000D01*
X100904491Y-99244622D01*
X101579622Y-98569491D01*
X101945000Y-97687390D01*
X101945000Y-96732610D01*
X101579622Y-95850509D01*
X100904491Y-95175378D01*
X100384522Y-94960000D01*
X100904491Y-94744622D01*
X101579622Y-94069491D01*
X101945000Y-93187390D01*
X101945000Y-92232610D01*
X101579622Y-91350509D01*
X100904491Y-90675378D01*
X100022390Y-90310000D01*
X99067610Y-90310000D01*
X98185509Y-90675378D01*
X97510378Y-91350509D01*
X97447475Y-91502371D01*
X97424740Y-91388076D01*
X97061120Y-90843880D01*
X96516924Y-90480260D01*
X95875000Y-90352573D01*
X94625000Y-90352573D01*
X93983076Y-90480260D01*
X93438880Y-90843880D01*
X93327882Y-91010000D01*
X93134113Y-91010000D01*
X92799491Y-90675378D01*
X91917390Y-90310000D01*
X90962610Y-90310000D01*
X90080509Y-90675378D01*
X89405378Y-91350509D01*
X89040000Y-92232610D01*
X87340000Y-92232610D01*
X86974622Y-91350509D01*
X86299491Y-90675378D01*
X85417390Y-90310000D01*
X84462610Y-90310000D01*
X83580509Y-90675378D01*
X82905378Y-91350509D01*
X82540000Y-92232610D01*
X75135000Y-92232610D01*
X75135000Y-88275000D01*
X102200073Y-88275000D01*
X102200073Y-89525000D01*
X102327760Y-90166924D01*
X102667415Y-90675254D01*
X102738636Y-91033306D01*
X103114369Y-91595631D01*
X103256313Y-91690475D01*
X103689944Y-92124106D01*
X103645000Y-92232610D01*
X103645000Y-93187390D01*
X104010378Y-94069491D01*
X104685509Y-94744622D01*
X105205478Y-94960000D01*
X104685509Y-95175378D01*
X104010378Y-95850509D01*
X103645000Y-96732610D01*
X103645000Y-97687390D01*
X104010378Y-98569491D01*
X104685509Y-99244622D01*
X105567610Y-99610000D01*
X106522390Y-99610000D01*
X107404491Y-99244622D01*
X108079622Y-98569491D01*
X108445000Y-97687390D01*
X108445000Y-96732610D01*
X108079622Y-95850509D01*
X107404491Y-95175378D01*
X106884522Y-94960000D01*
X107404491Y-94744622D01*
X108079622Y-94069491D01*
X108445000Y-93187390D01*
X108445000Y-92232610D01*
X108079622Y-91350509D01*
X107404491Y-90675378D01*
X106798553Y-90424390D01*
X106383572Y-90009409D01*
X106479927Y-89525000D01*
X106479927Y-88275000D01*
X106352240Y-87633076D01*
X105988620Y-87088880D01*
X105444424Y-86725260D01*
X104802500Y-86597573D01*
X103877500Y-86597573D01*
X103235576Y-86725260D01*
X102691380Y-87088880D01*
X102327760Y-87633076D01*
X102200073Y-88275000D01*
X75135000Y-88275000D01*
X75135000Y-69412393D01*
X76540000Y-69412393D01*
X76540000Y-70287607D01*
X76874930Y-71096200D01*
X77493800Y-71715070D01*
X78302393Y-72050000D01*
X79177607Y-72050000D01*
X79986200Y-71715070D01*
X80605070Y-71096200D01*
X80940000Y-70287607D01*
X80940000Y-69412393D01*
X80605070Y-68603800D01*
X79986200Y-67984930D01*
X79177607Y-67650000D01*
X78302393Y-67650000D01*
X77493800Y-67984930D01*
X76874930Y-68603800D01*
X76540000Y-69412393D01*
X75135000Y-69412393D01*
X75135000Y-36392393D01*
X76540000Y-36392393D01*
X76540000Y-37267607D01*
X76874930Y-38076200D01*
X77493800Y-38695070D01*
X78302393Y-39030000D01*
X79177607Y-39030000D01*
X79986200Y-38695070D01*
X80605070Y-38076200D01*
X80940000Y-37267607D01*
X80940000Y-36392393D01*
X80605070Y-35583800D01*
X79986200Y-34964930D01*
X79177607Y-34630000D01*
X78302393Y-34630000D01*
X77493800Y-34964930D01*
X76874930Y-35583800D01*
X76540000Y-36392393D01*
X75135000Y-36392393D01*
X75135000Y-31117640D01*
X75770637Y-31753277D01*
X76873263Y-32210000D01*
X78066737Y-32210000D01*
X79169363Y-31753277D01*
X80013277Y-30909363D01*
X80470000Y-29806737D01*
X80470000Y-28613263D01*
X80013277Y-27510637D01*
X79377640Y-26875000D01*
X88195837Y-26875000D01*
X87475838Y-27595000D01*
X87475838Y-27595000D01*
G37*
X87475838Y-27595000D02*
X87408394Y-27595000D01*
X86752094Y-27725546D01*
X86007840Y-28222840D01*
X85510546Y-28967094D01*
X85335920Y-29845000D01*
X85510546Y-30722906D01*
X85772535Y-31115000D01*
X85510546Y-31507094D01*
X85335920Y-32385000D01*
X85510546Y-33262906D01*
X85574702Y-33358923D01*
X85461229Y-33528747D01*
X85352573Y-34075000D01*
X85352573Y-35775000D01*
X85461229Y-36321253D01*
X85770657Y-36784343D01*
X86233747Y-37093771D01*
X86780000Y-37202427D01*
X88480000Y-37202427D01*
X89026253Y-37093771D01*
X89489343Y-36784343D01*
X89798771Y-36321253D01*
X89907427Y-35775000D01*
X89907427Y-34075000D01*
X89798771Y-33528747D01*
X89685298Y-33358923D01*
X89749454Y-33262906D01*
X89896746Y-32522416D01*
X92779163Y-29640000D01*
X94901697Y-29640000D01*
X94860920Y-29845000D01*
X95035546Y-30722906D01*
X95297535Y-31115000D01*
X95035546Y-31507094D01*
X94860920Y-32385000D01*
X95035546Y-33262906D01*
X95099702Y-33358923D01*
X94986229Y-33528747D01*
X94877573Y-34075000D01*
X94877573Y-35775000D01*
X94986229Y-36321253D01*
X95295657Y-36784343D01*
X95758747Y-37093771D01*
X96305000Y-37202427D01*
X98005000Y-37202427D01*
X98551253Y-37093771D01*
X99014343Y-36784343D01*
X99323771Y-36321253D01*
X99432427Y-35775000D01*
X99432427Y-34526589D01*
X103581527Y-38675690D01*
X103638961Y-38761647D01*
X103422369Y-38906369D01*
X103327527Y-39048310D01*
X98554065Y-43821773D01*
X98032906Y-43473546D01*
X97376606Y-43343000D01*
X96933394Y-43343000D01*
X96277094Y-43473546D01*
X95649336Y-43893000D01*
X91040664Y-43893000D01*
X90412906Y-43473546D01*
X89756606Y-43343000D01*
X89313394Y-43343000D01*
X88657094Y-43473546D01*
X88029336Y-43893000D01*
X83420664Y-43893000D01*
X82792906Y-43473546D01*
X82136606Y-43343000D01*
X81693394Y-43343000D01*
X81037094Y-43473546D01*
X80292840Y-43970840D01*
X79795546Y-44715094D01*
X79620920Y-45593000D01*
X79795546Y-46470906D01*
X80057535Y-46863000D01*
X79795546Y-47255094D01*
X79620920Y-48133000D01*
X79795546Y-49010906D01*
X79859702Y-49106923D01*
X79746229Y-49276747D01*
X79637573Y-49823000D01*
X79637573Y-51523000D01*
X79746229Y-52069253D01*
X80055657Y-52532343D01*
X80518747Y-52841771D01*
X81065000Y-52950427D01*
X82765000Y-52950427D01*
X83311253Y-52841771D01*
X83774343Y-52532343D01*
X84083771Y-52069253D01*
X84192427Y-51523000D01*
X84192427Y-49833000D01*
X87257573Y-49833000D01*
X87257573Y-51523000D01*
X87366229Y-52069253D01*
X87675657Y-52532343D01*
X88138747Y-52841771D01*
X88685000Y-52950427D01*
X90385000Y-52950427D01*
X90931253Y-52841771D01*
X91394343Y-52532343D01*
X91703771Y-52069253D01*
X91812427Y-51523000D01*
X91812427Y-49833000D01*
X94877573Y-49833000D01*
X94877573Y-51523000D01*
X94986229Y-52069253D01*
X95295657Y-52532343D01*
X95758747Y-52841771D01*
X96305000Y-52950427D01*
X97680411Y-52950427D01*
X96071311Y-54559527D01*
X95929370Y-54654369D01*
X95834528Y-54796310D01*
X95553636Y-55216694D01*
X95507229Y-55450000D01*
X95474326Y-55615412D01*
X95035546Y-56272094D01*
X94860920Y-57150000D01*
X95035546Y-58027906D01*
X95297535Y-58420000D01*
X95035546Y-58812094D01*
X94860920Y-59690000D01*
X95035546Y-60567906D01*
X95297535Y-60960000D01*
X95035546Y-61352094D01*
X94860920Y-62230000D01*
X95035546Y-63107906D01*
X95297535Y-63500000D01*
X95035546Y-63892094D01*
X94860920Y-64770000D01*
X94867923Y-64805207D01*
X91713958Y-61651243D01*
X91654454Y-61352094D01*
X91392465Y-60960000D01*
X91654454Y-60567906D01*
X91829080Y-59690000D01*
X91654454Y-58812094D01*
X91590298Y-58716077D01*
X91703771Y-58546253D01*
X91812427Y-58000000D01*
X91812427Y-56300000D01*
X91703771Y-55753747D01*
X91394343Y-55290657D01*
X90931253Y-54981229D01*
X90385000Y-54872573D01*
X88685000Y-54872573D01*
X88138747Y-54981229D01*
X87675657Y-55290657D01*
X87366229Y-55753747D01*
X87257573Y-56300000D01*
X87257573Y-58000000D01*
X87366229Y-58546253D01*
X87479702Y-58716077D01*
X87415546Y-58812094D01*
X87240920Y-59690000D01*
X87415546Y-60567906D01*
X87677535Y-60960000D01*
X87415546Y-61352094D01*
X87240920Y-62230000D01*
X87415546Y-63107906D01*
X87912840Y-63852160D01*
X88657094Y-64349454D01*
X88956243Y-64408958D01*
X93100338Y-68553054D01*
X93209129Y-68715871D01*
X93854148Y-69146859D01*
X94422946Y-69260000D01*
X94422949Y-69260000D01*
X94615000Y-69298201D01*
X94807050Y-69260000D01*
X95431334Y-69260000D01*
X95758747Y-69478771D01*
X96305000Y-69587427D01*
X98005000Y-69587427D01*
X98551253Y-69478771D01*
X98630000Y-69426153D01*
X98630001Y-72700837D01*
X98325073Y-73005766D01*
X98032906Y-72810546D01*
X97376606Y-72680000D01*
X96933394Y-72680000D01*
X96277094Y-72810546D01*
X95649336Y-73230000D01*
X90972424Y-73230000D01*
X90804999Y-73196697D01*
X90637574Y-73230000D01*
X90637570Y-73230000D01*
X90141693Y-73328636D01*
X89579369Y-73704369D01*
X89484527Y-73846310D01*
X87560838Y-75770000D01*
X86595664Y-75770000D01*
X85967906Y-75350546D01*
X85311606Y-75220000D01*
X84868394Y-75220000D01*
X84212094Y-75350546D01*
X83467840Y-75847840D01*
X82970546Y-76592094D01*
X82795920Y-77470000D01*
X82970546Y-78347906D01*
X83232535Y-78740000D01*
X82970546Y-79132094D01*
X82795920Y-80010000D01*
X82970546Y-80887906D01*
X83232535Y-81280000D01*
X82970546Y-81672094D01*
X82795920Y-82550000D01*
X82970546Y-83427906D01*
X83034702Y-83523923D01*
X82921229Y-83693747D01*
X82812573Y-84240000D01*
X82812573Y-85940000D01*
X82921229Y-86486253D01*
X83230657Y-86949343D01*
X83693747Y-87258771D01*
X84240000Y-87367427D01*
X85940000Y-87367427D01*
X86486253Y-87258771D01*
X86813666Y-87040000D01*
X95431334Y-87040000D01*
X95758747Y-87258771D01*
X96305000Y-87367427D01*
X98005000Y-87367427D01*
X98551253Y-87258771D01*
X99014343Y-86949343D01*
X99323771Y-86486253D01*
X99432427Y-85940000D01*
X99432427Y-84240000D01*
X99426538Y-84210395D01*
X99723307Y-84151364D01*
X100285631Y-83775631D01*
X100380475Y-83633687D01*
X105223691Y-78790472D01*
X105365631Y-78695631D01*
X105741364Y-78133307D01*
X105789758Y-77890013D01*
X106189000Y-77969427D01*
X109689000Y-77969427D01*
X109810000Y-77945359D01*
X109810000Y-78891504D01*
X109541229Y-79293747D01*
X109432573Y-79840000D01*
X109432573Y-82340000D01*
X109541229Y-82886253D01*
X109677369Y-83090000D01*
X109541229Y-83293747D01*
X109432573Y-83840000D01*
X109432573Y-86340000D01*
X109541229Y-86886253D01*
X109810001Y-87288497D01*
X109810000Y-89977949D01*
X109771799Y-90170000D01*
X109810000Y-90362050D01*
X109810000Y-90362053D01*
X109923141Y-90930851D01*
X110354129Y-91575871D01*
X110516948Y-91684663D01*
X110851042Y-92018757D01*
X110910546Y-92317906D01*
X111407840Y-93062160D01*
X112152094Y-93559454D01*
X112808394Y-93690000D01*
X113251606Y-93690000D01*
X113907906Y-93559454D01*
X114300000Y-93297465D01*
X114692094Y-93559454D01*
X115348394Y-93690000D01*
X115791606Y-93690000D01*
X116447906Y-93559454D01*
X116840000Y-93297465D01*
X117232094Y-93559454D01*
X117888394Y-93690000D01*
X118331606Y-93690000D01*
X118987906Y-93559454D01*
X119083923Y-93495298D01*
X119253747Y-93608771D01*
X119800000Y-93717427D01*
X121500000Y-93717427D01*
X122046253Y-93608771D01*
X122509343Y-93299343D01*
X122818771Y-92836253D01*
X122927427Y-92290000D01*
X122927427Y-90590000D01*
X122843885Y-90170000D01*
X125340920Y-90170000D01*
X125515546Y-91047906D01*
X125777535Y-91440000D01*
X125515546Y-91832094D01*
X125340920Y-92710000D01*
X125515546Y-93587906D01*
X125579702Y-93683923D01*
X125466229Y-93853747D01*
X125357573Y-94400000D01*
X125357573Y-96100000D01*
X125466229Y-96646253D01*
X125775657Y-97109343D01*
X126238747Y-97418771D01*
X126785000Y-97527427D01*
X128485000Y-97527427D01*
X129031253Y-97418771D01*
X129494343Y-97109343D01*
X129803771Y-96646253D01*
X129912427Y-96100000D01*
X129912427Y-94400000D01*
X129803771Y-93853747D01*
X129690298Y-93683923D01*
X129754454Y-93587906D01*
X129929080Y-92710000D01*
X129754454Y-91832094D01*
X129492465Y-91440000D01*
X129754454Y-91047906D01*
X129929080Y-90170000D01*
X132960920Y-90170000D01*
X133135546Y-91047906D01*
X133397535Y-91440000D01*
X133135546Y-91832094D01*
X132960920Y-92710000D01*
X133135546Y-93587906D01*
X133199702Y-93683923D01*
X133086229Y-93853747D01*
X132977573Y-94400000D01*
X132977573Y-96100000D01*
X133086229Y-96646253D01*
X133395657Y-97109343D01*
X133858747Y-97418771D01*
X134405000Y-97527427D01*
X136105000Y-97527427D01*
X136651253Y-97418771D01*
X137114343Y-97109343D01*
X137423771Y-96646253D01*
X137532427Y-96100000D01*
X137532427Y-94400000D01*
X137423771Y-93853747D01*
X137310298Y-93683923D01*
X137374454Y-93587906D01*
X137549080Y-92710000D01*
X137374454Y-91832094D01*
X137112465Y-91440000D01*
X137374454Y-91047906D01*
X137549080Y-90170000D01*
X137374454Y-89292094D01*
X136877160Y-88547840D01*
X136132906Y-88050546D01*
X135476606Y-87920000D01*
X135033394Y-87920000D01*
X134377094Y-88050546D01*
X133632840Y-88547840D01*
X133135546Y-89292094D01*
X132960920Y-90170000D01*
X129929080Y-90170000D01*
X129754454Y-89292094D01*
X129257160Y-88547840D01*
X128512906Y-88050546D01*
X127856606Y-87920000D01*
X127413394Y-87920000D01*
X126757094Y-88050546D01*
X126012840Y-88547840D01*
X125515546Y-89292094D01*
X125340920Y-90170000D01*
X122843885Y-90170000D01*
X122818771Y-90043747D01*
X122509343Y-89580657D01*
X122046253Y-89271229D01*
X121500000Y-89162573D01*
X119810000Y-89162573D01*
X119810000Y-85159162D01*
X121352690Y-83616473D01*
X121494631Y-83521631D01*
X121870364Y-82959307D01*
X121969000Y-82463430D01*
X121969000Y-82463427D01*
X122002303Y-82296001D01*
X121969000Y-82128574D01*
X121969000Y-79572393D01*
X130515000Y-79572393D01*
X130515000Y-80447607D01*
X130849930Y-81256200D01*
X131468800Y-81875070D01*
X132277393Y-82210000D01*
X133152607Y-82210000D01*
X133961200Y-81875070D01*
X134580070Y-81256200D01*
X134915000Y-80447607D01*
X134915000Y-79572393D01*
X134833238Y-79375000D01*
X138565000Y-79375000D01*
X138565000Y-95885000D01*
X138603060Y-96076342D01*
X138711447Y-96238553D01*
X140616447Y-98143553D01*
X140778658Y-98251940D01*
X140970000Y-98290000D01*
X162560000Y-98290000D01*
X162751342Y-98251940D01*
X162913553Y-98143553D01*
X164818553Y-96238553D01*
X164926940Y-96076342D01*
X164965000Y-95885000D01*
X164965000Y-79375000D01*
X164895237Y-79120253D01*
X164765000Y-78975000D01*
X162758334Y-77470000D01*
X165345920Y-77470000D01*
X165520546Y-78347906D01*
X166017840Y-79092160D01*
X166762094Y-79589454D01*
X167418394Y-79720000D01*
X167861606Y-79720000D01*
X168517906Y-79589454D01*
X169262160Y-79092160D01*
X169759454Y-78347906D01*
X169934080Y-77470000D01*
X169759454Y-76592094D01*
X169262160Y-75847840D01*
X168517906Y-75350546D01*
X167861606Y-75220000D01*
X167418394Y-75220000D01*
X166762094Y-75350546D01*
X166017840Y-75847840D01*
X165520546Y-76592094D01*
X165345920Y-77470000D01*
X162758334Y-77470000D01*
X162225000Y-77070000D01*
X162116342Y-77008060D01*
X161925000Y-76970000D01*
X157815702Y-76970000D01*
X157825000Y-76947553D01*
X157825000Y-76052447D01*
X157482458Y-75225477D01*
X156849523Y-74592542D01*
X156022553Y-74250000D01*
X155127447Y-74250000D01*
X154305000Y-74590669D01*
X153482553Y-74250000D01*
X152587447Y-74250000D01*
X151765000Y-74590669D01*
X150942553Y-74250000D01*
X150047447Y-74250000D01*
X149542629Y-74459103D01*
X149351253Y-74331229D01*
X148805000Y-74222573D01*
X147105000Y-74222573D01*
X146558747Y-74331229D01*
X146095657Y-74640657D01*
X145786229Y-75103747D01*
X145677573Y-75650000D01*
X145677573Y-76970000D01*
X140970000Y-76970000D01*
X140778658Y-77008060D01*
X140616447Y-77116447D01*
X138711447Y-79021447D01*
X138603060Y-79183658D01*
X138565000Y-79375000D01*
X134833238Y-79375000D01*
X134580070Y-78763800D01*
X133961200Y-78144930D01*
X133152607Y-77810000D01*
X132277393Y-77810000D01*
X131468800Y-78144930D01*
X130849930Y-78763800D01*
X130515000Y-79572393D01*
X121969000Y-79572393D01*
X121969000Y-79227813D01*
X122128343Y-79121343D01*
X122437771Y-78658253D01*
X122546427Y-78112000D01*
X122546427Y-75545720D01*
X122563080Y-75462000D01*
X122546427Y-75378280D01*
X122546427Y-74612000D01*
X122437771Y-74065747D01*
X122128343Y-73602657D01*
X121665253Y-73293229D01*
X121119000Y-73184573D01*
X119419000Y-73184573D01*
X118999000Y-73268116D01*
X118579000Y-73184573D01*
X116879000Y-73184573D01*
X116459000Y-73268116D01*
X116039000Y-73184573D01*
X114339000Y-73184573D01*
X113792747Y-73293229D01*
X113710000Y-73348519D01*
X113710000Y-48436919D01*
X122028689Y-40118231D01*
X122162640Y-39985164D01*
X122164459Y-39982461D01*
X122166762Y-39980158D01*
X122166764Y-39980155D01*
X125044950Y-37101971D01*
X125222747Y-37220771D01*
X125769000Y-37329427D01*
X129269000Y-37329427D01*
X129815253Y-37220771D01*
X130278343Y-36911343D01*
X130587771Y-36448253D01*
X130696427Y-35902000D01*
X130696427Y-34202000D01*
X130612884Y-33782000D01*
X130696427Y-33362000D01*
X130696427Y-31922000D01*
X133055000Y-31922000D01*
X133055000Y-32187607D01*
X133389930Y-32996200D01*
X134008800Y-33615070D01*
X134817393Y-33950000D01*
X135692607Y-33950000D01*
X136501200Y-33615070D01*
X137120070Y-32996200D01*
X137455000Y-32187607D01*
X137455000Y-31312393D01*
X137120070Y-30503800D01*
X136831317Y-30215047D01*
X137064343Y-30059343D01*
X137177495Y-29890000D01*
X142294334Y-29890000D01*
X142621747Y-30108771D01*
X143168000Y-30217427D01*
X144868000Y-30217427D01*
X145414253Y-30108771D01*
X145584077Y-29995298D01*
X145680094Y-30059454D01*
X146336394Y-30190000D01*
X146779606Y-30190000D01*
X147435906Y-30059454D01*
X147689512Y-29890000D01*
X147966488Y-29890000D01*
X148220094Y-30059454D01*
X148519243Y-30118958D01*
X153000073Y-34599789D01*
X153000073Y-34915000D01*
X153127760Y-35556924D01*
X153491380Y-36101120D01*
X154035576Y-36464740D01*
X154677500Y-36592427D01*
X155602500Y-36592427D01*
X156244424Y-36464740D01*
X156627500Y-36208777D01*
X157010576Y-36464740D01*
X157652500Y-36592427D01*
X158577500Y-36592427D01*
X159166170Y-36475333D01*
X159590001Y-36899163D01*
X159590000Y-37565448D01*
X159158747Y-37651229D01*
X158695657Y-37960657D01*
X158386229Y-38423747D01*
X158372539Y-38492573D01*
X156705000Y-38492573D01*
X156158747Y-38601229D01*
X155695657Y-38910657D01*
X155386229Y-39373747D01*
X155277573Y-39920000D01*
X155277573Y-40720000D01*
X155386229Y-41266253D01*
X155695657Y-41729343D01*
X156158747Y-42038771D01*
X156705000Y-42147427D01*
X157078265Y-42147427D01*
X158050279Y-43119442D01*
X158007760Y-43183076D01*
X157880073Y-43825000D01*
X157880073Y-45075000D01*
X158007760Y-45716924D01*
X158320000Y-46184225D01*
X158320000Y-46285837D01*
X156140838Y-48465000D01*
X149392430Y-48465000D01*
X149225000Y-48431696D01*
X149057570Y-48465000D01*
X148561693Y-48563636D01*
X147999369Y-48939369D01*
X147904527Y-49081310D01*
X145285132Y-51700705D01*
X145298202Y-51635000D01*
X145260000Y-51442946D01*
X145260000Y-47080073D01*
X145322240Y-46986924D01*
X145449927Y-46345000D01*
X145449927Y-45619089D01*
X146634527Y-46803690D01*
X146729369Y-46945631D01*
X147291693Y-47321364D01*
X147787570Y-47420000D01*
X147787574Y-47420000D01*
X147954999Y-47453303D01*
X148122424Y-47420000D01*
X151597574Y-47420000D01*
X151765000Y-47453303D01*
X151932426Y-47420000D01*
X151932430Y-47420000D01*
X152428307Y-47321364D01*
X152990631Y-46945631D01*
X153085475Y-46803688D01*
X154118690Y-45770473D01*
X154260631Y-45675631D01*
X154636364Y-45113307D01*
X154735000Y-44617430D01*
X154735000Y-44617427D01*
X154768303Y-44450001D01*
X154735000Y-44282574D01*
X154735000Y-39537426D01*
X154768303Y-39369999D01*
X154735000Y-39202573D01*
X154735000Y-39202570D01*
X154636364Y-38706693D01*
X154260631Y-38144369D01*
X154118690Y-38049527D01*
X153085475Y-37016312D01*
X152990631Y-36874369D01*
X152428307Y-36498636D01*
X151932430Y-36400000D01*
X151932426Y-36400000D01*
X151765000Y-36366697D01*
X151597574Y-36400000D01*
X151365664Y-36400000D01*
X150737906Y-35980546D01*
X150081606Y-35850000D01*
X149638394Y-35850000D01*
X148982094Y-35980546D01*
X148237840Y-36477840D01*
X147740546Y-37222094D01*
X147565920Y-38100000D01*
X147733006Y-38940000D01*
X144994210Y-38940000D01*
X145369343Y-38689343D01*
X145678771Y-38226253D01*
X145787427Y-37680000D01*
X145787427Y-35980000D01*
X145678771Y-35433747D01*
X145369343Y-34970657D01*
X144906253Y-34661229D01*
X144360000Y-34552573D01*
X142660000Y-34552573D01*
X142113747Y-34661229D01*
X141943923Y-34774702D01*
X141847906Y-34710546D01*
X141191606Y-34580000D01*
X140748394Y-34580000D01*
X140092094Y-34710546D01*
X139347840Y-35207840D01*
X138850546Y-35952094D01*
X138703254Y-36692584D01*
X137925838Y-37470000D01*
X136989224Y-37470000D01*
X136521924Y-37157760D01*
X135880000Y-37030073D01*
X134630000Y-37030073D01*
X133988076Y-37157760D01*
X133565889Y-37439856D01*
X133550000Y-37436696D01*
X133124265Y-37521380D01*
X132886693Y-37568636D01*
X132324369Y-37944369D01*
X132229527Y-38086310D01*
X130696427Y-39619410D01*
X130696427Y-39282000D01*
X130587771Y-38735747D01*
X130278343Y-38272657D01*
X129815253Y-37963229D01*
X129269000Y-37854573D01*
X125769000Y-37854573D01*
X125222747Y-37963229D01*
X124759657Y-38272657D01*
X124450229Y-38735747D01*
X124341573Y-39282000D01*
X124341573Y-40048280D01*
X124324920Y-40132000D01*
X124341573Y-40215720D01*
X124341573Y-40982000D01*
X124425116Y-41402000D01*
X124341573Y-41822000D01*
X124341573Y-42588280D01*
X124324920Y-42672000D01*
X124341573Y-42755720D01*
X124341573Y-43522000D01*
X124425116Y-43942000D01*
X124341573Y-44362000D01*
X124341573Y-46062000D01*
X124425116Y-46482000D01*
X124341573Y-46902000D01*
X124341573Y-47668280D01*
X124324920Y-47752000D01*
X124341573Y-47835720D01*
X124341573Y-48602000D01*
X124425116Y-49022000D01*
X124341573Y-49442000D01*
X124341573Y-50208280D01*
X124324920Y-50292000D01*
X124341573Y-50375720D01*
X124341573Y-51142000D01*
X124425116Y-51562000D01*
X124341573Y-51982000D01*
X124341573Y-52748280D01*
X124324920Y-52832000D01*
X124341573Y-52915720D01*
X124341573Y-53682000D01*
X124425116Y-54102000D01*
X124341573Y-54522000D01*
X124341573Y-55288280D01*
X124324920Y-55372000D01*
X124341573Y-55455720D01*
X124341573Y-56222000D01*
X124425116Y-56642000D01*
X124341573Y-57062000D01*
X124341573Y-58762000D01*
X124425116Y-59182000D01*
X124341573Y-59602000D01*
X124341573Y-60368280D01*
X124324920Y-60452000D01*
X124341573Y-60535720D01*
X124341573Y-61302000D01*
X124425116Y-61722000D01*
X124341573Y-62142000D01*
X124341573Y-62908280D01*
X124324920Y-62992000D01*
X124341573Y-63075720D01*
X124341573Y-63842000D01*
X124425116Y-64262000D01*
X124341573Y-64682000D01*
X124341573Y-65448280D01*
X124324920Y-65532000D01*
X124341573Y-65615720D01*
X124341573Y-66382000D01*
X124425116Y-66802000D01*
X124341573Y-67222000D01*
X124341573Y-67988280D01*
X124324920Y-68072000D01*
X124341573Y-68155720D01*
X124341573Y-68922000D01*
X124425116Y-69342000D01*
X124341573Y-69762000D01*
X124341573Y-71462000D01*
X124425116Y-71882000D01*
X124341573Y-72302000D01*
X124341573Y-73068280D01*
X124324920Y-73152000D01*
X124341573Y-73235720D01*
X124341573Y-74002000D01*
X124425116Y-74422000D01*
X124341573Y-74842000D01*
X124341573Y-75608280D01*
X124324920Y-75692000D01*
X124341573Y-75775720D01*
X124341573Y-76542000D01*
X124450229Y-77088253D01*
X124759657Y-77551343D01*
X125222747Y-77860771D01*
X125769000Y-77969427D01*
X129269000Y-77969427D01*
X129815253Y-77860771D01*
X130278343Y-77551343D01*
X130384813Y-77392000D01*
X133690574Y-77392000D01*
X133858000Y-77425303D01*
X134025426Y-77392000D01*
X134025430Y-77392000D01*
X134521307Y-77293364D01*
X135083631Y-76917631D01*
X135178475Y-76775687D01*
X140899289Y-71054873D01*
X141220382Y-71375966D01*
X141881958Y-71650000D01*
X142598042Y-71650000D01*
X142839463Y-71550000D01*
X150962574Y-71550000D01*
X151130000Y-71583303D01*
X151297426Y-71550000D01*
X151297430Y-71550000D01*
X151793307Y-71451364D01*
X152355631Y-71075631D01*
X152450475Y-70933687D01*
X157549163Y-65835000D01*
X157742573Y-65835000D01*
X157742573Y-67525000D01*
X157851229Y-68071253D01*
X158160657Y-68534343D01*
X158623747Y-68843771D01*
X159170000Y-68952427D01*
X160870000Y-68952427D01*
X161416253Y-68843771D01*
X161515594Y-68777393D01*
X164845000Y-68777393D01*
X164845000Y-69652607D01*
X165179930Y-70461200D01*
X165798800Y-71080070D01*
X166607393Y-71415000D01*
X167482607Y-71415000D01*
X168291200Y-71080070D01*
X168910070Y-70461200D01*
X169245000Y-69652607D01*
X169245000Y-68777393D01*
X168910070Y-67968800D01*
X168291200Y-67349930D01*
X167482607Y-67015000D01*
X166607393Y-67015000D01*
X165798800Y-67349930D01*
X165179930Y-67968800D01*
X164845000Y-68777393D01*
X161515594Y-68777393D01*
X161879343Y-68534343D01*
X162188771Y-68071253D01*
X162297427Y-67525000D01*
X162297427Y-65825000D01*
X162188771Y-65278747D01*
X162075298Y-65108923D01*
X162139454Y-65012906D01*
X162314080Y-64135000D01*
X162139454Y-63257094D01*
X161877465Y-62865000D01*
X162139454Y-62472906D01*
X162314080Y-61595000D01*
X162139454Y-60717094D01*
X161877465Y-60325000D01*
X162139454Y-59932906D01*
X162314080Y-59055000D01*
X162139454Y-58177094D01*
X161877465Y-57785000D01*
X162139454Y-57392906D01*
X162314080Y-56515000D01*
X162139454Y-55637094D01*
X161642160Y-54892840D01*
X160897906Y-54395546D01*
X160241606Y-54265000D01*
X159798394Y-54265000D01*
X159142094Y-54395546D01*
X158514336Y-54815000D01*
X151365664Y-54815000D01*
X150737906Y-54395546D01*
X150081606Y-54265000D01*
X149638394Y-54265000D01*
X148982094Y-54395546D01*
X148325413Y-54834326D01*
X147926693Y-54913636D01*
X147364369Y-55289369D01*
X147269527Y-55431310D01*
X143174707Y-59526131D01*
X143004622Y-59115509D01*
X142684083Y-58794970D01*
X142903307Y-58751364D01*
X143465631Y-58375631D01*
X143560475Y-58233687D01*
X149929163Y-51865000D01*
X156677574Y-51865000D01*
X156845000Y-51898303D01*
X157012426Y-51865000D01*
X157012430Y-51865000D01*
X157508307Y-51766364D01*
X158070631Y-51390631D01*
X158165475Y-51248687D01*
X161103690Y-48310473D01*
X161245631Y-48215631D01*
X161621364Y-47653307D01*
X161720000Y-47157430D01*
X161720000Y-47157427D01*
X161753303Y-46990001D01*
X161720000Y-46822574D01*
X161720000Y-46785000D01*
X167579187Y-46785000D01*
X167685657Y-46944343D01*
X168148747Y-47253771D01*
X168695000Y-47362427D01*
X170395000Y-47362427D01*
X170941253Y-47253771D01*
X171245000Y-47050813D01*
X171245001Y-95882361D01*
X170609363Y-95246723D01*
X169506737Y-94790000D01*
X168313263Y-94790000D01*
X167210637Y-95246723D01*
X166366723Y-96090637D01*
X165910000Y-97193263D01*
X165910000Y-98386737D01*
X166366723Y-99489363D01*
X167002360Y-100125000D01*
X79377640Y-100125000D01*
X80013277Y-99489363D01*
X80470000Y-98386737D01*
X80470000Y-97193263D01*
X80013277Y-96090637D01*
X79169363Y-95246723D01*
X78066737Y-94790000D01*
X76873263Y-94790000D01*
X75770637Y-95246723D01*
X75135000Y-95882360D01*
X75135000Y-92232610D01*
X82540000Y-92232610D01*
X82540000Y-93187390D01*
X82905378Y-94069491D01*
X83580509Y-94744622D01*
X84100478Y-94960000D01*
X83580509Y-95175378D01*
X82905378Y-95850509D01*
X82540000Y-96732610D01*
X82540000Y-97687390D01*
X82905378Y-98569491D01*
X83580509Y-99244622D01*
X84462610Y-99610000D01*
X85417390Y-99610000D01*
X86299491Y-99244622D01*
X86974622Y-98569491D01*
X87340000Y-97687390D01*
X87340000Y-96732610D01*
X86974622Y-95850509D01*
X86299491Y-95175378D01*
X85779522Y-94960000D01*
X86299491Y-94744622D01*
X86974622Y-94069491D01*
X87340000Y-93187390D01*
X87340000Y-92232610D01*
X89040000Y-92232610D01*
X89040000Y-93187390D01*
X89405378Y-94069491D01*
X90080509Y-94744622D01*
X90600478Y-94960000D01*
X90080509Y-95175378D01*
X89405378Y-95850509D01*
X89040000Y-96732610D01*
X89040000Y-97687390D01*
X89405378Y-98569491D01*
X90080509Y-99244622D01*
X90962610Y-99610000D01*
X91917390Y-99610000D01*
X92799491Y-99244622D01*
X93474622Y-98569491D01*
X93840000Y-97687390D01*
X93840000Y-96732610D01*
X93474622Y-95850509D01*
X92799491Y-95175378D01*
X92279522Y-94960000D01*
X92799491Y-94744622D01*
X93134113Y-94410000D01*
X93841288Y-94410000D01*
X93983076Y-94504740D01*
X94625000Y-94632427D01*
X95875000Y-94632427D01*
X96516924Y-94504740D01*
X97061120Y-94141120D01*
X97356770Y-93698648D01*
X97510378Y-94069491D01*
X98185509Y-94744622D01*
X98705478Y-94960000D01*
X98185509Y-95175378D01*
X97510378Y-95850509D01*
X97145000Y-96732610D01*
X97145000Y-97687390D01*
X97510378Y-98569491D01*
X98185509Y-99244622D01*
X99067610Y-99610000D01*
X100022390Y-99610000D01*
X100904491Y-99244622D01*
X101579622Y-98569491D01*
X101945000Y-97687390D01*
X101945000Y-96732610D01*
X101579622Y-95850509D01*
X100904491Y-95175378D01*
X100384522Y-94960000D01*
X100904491Y-94744622D01*
X101579622Y-94069491D01*
X101945000Y-93187390D01*
X101945000Y-92232610D01*
X101579622Y-91350509D01*
X100904491Y-90675378D01*
X100022390Y-90310000D01*
X99067610Y-90310000D01*
X98185509Y-90675378D01*
X97510378Y-91350509D01*
X97447475Y-91502371D01*
X97424740Y-91388076D01*
X97061120Y-90843880D01*
X96516924Y-90480260D01*
X95875000Y-90352573D01*
X94625000Y-90352573D01*
X93983076Y-90480260D01*
X93438880Y-90843880D01*
X93327882Y-91010000D01*
X93134113Y-91010000D01*
X92799491Y-90675378D01*
X91917390Y-90310000D01*
X90962610Y-90310000D01*
X90080509Y-90675378D01*
X89405378Y-91350509D01*
X89040000Y-92232610D01*
X87340000Y-92232610D01*
X86974622Y-91350509D01*
X86299491Y-90675378D01*
X85417390Y-90310000D01*
X84462610Y-90310000D01*
X83580509Y-90675378D01*
X82905378Y-91350509D01*
X82540000Y-92232610D01*
X75135000Y-92232610D01*
X75135000Y-88275000D01*
X102200073Y-88275000D01*
X102200073Y-89525000D01*
X102327760Y-90166924D01*
X102667415Y-90675254D01*
X102738636Y-91033306D01*
X103114369Y-91595631D01*
X103256313Y-91690475D01*
X103689944Y-92124106D01*
X103645000Y-92232610D01*
X103645000Y-93187390D01*
X104010378Y-94069491D01*
X104685509Y-94744622D01*
X105205478Y-94960000D01*
X104685509Y-95175378D01*
X104010378Y-95850509D01*
X103645000Y-96732610D01*
X103645000Y-97687390D01*
X104010378Y-98569491D01*
X104685509Y-99244622D01*
X105567610Y-99610000D01*
X106522390Y-99610000D01*
X107404491Y-99244622D01*
X108079622Y-98569491D01*
X108445000Y-97687390D01*
X108445000Y-96732610D01*
X108079622Y-95850509D01*
X107404491Y-95175378D01*
X106884522Y-94960000D01*
X107404491Y-94744622D01*
X108079622Y-94069491D01*
X108445000Y-93187390D01*
X108445000Y-92232610D01*
X108079622Y-91350509D01*
X107404491Y-90675378D01*
X106798553Y-90424390D01*
X106383572Y-90009409D01*
X106479927Y-89525000D01*
X106479927Y-88275000D01*
X106352240Y-87633076D01*
X105988620Y-87088880D01*
X105444424Y-86725260D01*
X104802500Y-86597573D01*
X103877500Y-86597573D01*
X103235576Y-86725260D01*
X102691380Y-87088880D01*
X102327760Y-87633076D01*
X102200073Y-88275000D01*
X75135000Y-88275000D01*
X75135000Y-69412393D01*
X76540000Y-69412393D01*
X76540000Y-70287607D01*
X76874930Y-71096200D01*
X77493800Y-71715070D01*
X78302393Y-72050000D01*
X79177607Y-72050000D01*
X79986200Y-71715070D01*
X80605070Y-71096200D01*
X80940000Y-70287607D01*
X80940000Y-69412393D01*
X80605070Y-68603800D01*
X79986200Y-67984930D01*
X79177607Y-67650000D01*
X78302393Y-67650000D01*
X77493800Y-67984930D01*
X76874930Y-68603800D01*
X76540000Y-69412393D01*
X75135000Y-69412393D01*
X75135000Y-36392393D01*
X76540000Y-36392393D01*
X76540000Y-37267607D01*
X76874930Y-38076200D01*
X77493800Y-38695070D01*
X78302393Y-39030000D01*
X79177607Y-39030000D01*
X79986200Y-38695070D01*
X80605070Y-38076200D01*
X80940000Y-37267607D01*
X80940000Y-36392393D01*
X80605070Y-35583800D01*
X79986200Y-34964930D01*
X79177607Y-34630000D01*
X78302393Y-34630000D01*
X77493800Y-34964930D01*
X76874930Y-35583800D01*
X76540000Y-36392393D01*
X75135000Y-36392393D01*
X75135000Y-31117640D01*
X75770637Y-31753277D01*
X76873263Y-32210000D01*
X78066737Y-32210000D01*
X79169363Y-31753277D01*
X80013277Y-30909363D01*
X80470000Y-29806737D01*
X80470000Y-28613263D01*
X80013277Y-27510637D01*
X79377640Y-26875000D01*
X88195837Y-26875000D01*
X87475838Y-27595000D01*
G04 #@! TD*
M02*
