G04 #@! TF.GenerationSoftware,KiCad,Pcbnew,5.0.2+dfsg1-1*
G04 #@! TF.CreationDate,2021-04-26T17:45:04+02:00*
G04 #@! TF.ProjectId,pico-dev,7069636f-2d64-4657-962e-6b696361645f,rev?*
G04 #@! TF.SameCoordinates,Original*
G04 #@! TF.FileFunction,Copper,L2,Bot*
G04 #@! TF.FilePolarity,Positive*
%FSLAX46Y46*%
G04 Gerber Fmt 4.6, Leading zero omitted, Abs format (unit mm)*
G04 Created by KiCad (PCBNEW 5.0.2+dfsg1-1) date lun. 26 avril 2021 17:45:04 CEST*
%MOMM*%
%LPD*%
G01*
G04 APERTURE LIST*
G04 #@! TA.AperFunction,ComponentPad*
%ADD10C,1.700000*%
G04 #@! TD*
G04 #@! TA.AperFunction,ComponentPad*
%ADD11R,1.700000X1.700000*%
G04 #@! TD*
G04 #@! TA.AperFunction,ComponentPad*
%ADD12C,2.000000*%
G04 #@! TD*
G04 #@! TA.AperFunction,ComponentPad*
%ADD13O,1.700000X1.700000*%
G04 #@! TD*
G04 #@! TA.AperFunction,ComponentPad*
%ADD14R,1.600000X1.600000*%
G04 #@! TD*
G04 #@! TA.AperFunction,ComponentPad*
%ADD15C,1.600000*%
G04 #@! TD*
G04 #@! TA.AperFunction,ViaPad*
%ADD16C,1.200000*%
G04 #@! TD*
G04 #@! TA.AperFunction,ViaPad*
%ADD17C,0.800000*%
G04 #@! TD*
G04 #@! TA.AperFunction,Conductor*
%ADD18C,1.100000*%
G04 #@! TD*
G04 #@! TA.AperFunction,Conductor*
%ADD19C,0.600000*%
G04 #@! TD*
G04 #@! TA.AperFunction,Conductor*
%ADD20C,1.000000*%
G04 #@! TD*
G04 APERTURE END LIST*
D10*
G04 #@! TO.P,U2,4*
G04 #@! TO.N,SDA1_GP14*
X155575000Y-76500000D03*
G04 #@! TO.P,U2,3*
G04 #@! TO.N,SCL1_GP15*
X153035000Y-76500000D03*
G04 #@! TO.P,U2,2*
G04 #@! TO.N,Net-(JP1-Pad2)*
X150495000Y-76500000D03*
D11*
G04 #@! TO.P,U2,1*
G04 #@! TO.N,GND*
X147955000Y-76500000D03*
G04 #@! TD*
D12*
G04 #@! TO.P,SW1,2*
G04 #@! TO.N,GND*
X140970000Y-60475000D03*
G04 #@! TO.P,SW1,1*
G04 #@! TO.N,RUN*
X136470000Y-60475000D03*
G04 #@! TO.P,SW1,2*
G04 #@! TO.N,GND*
X140970000Y-53975000D03*
G04 #@! TO.P,SW1,1*
G04 #@! TO.N,RUN*
X136470000Y-53975000D03*
G04 #@! TD*
D11*
G04 #@! TO.P,J18,1*
G04 #@! TO.N,GND*
X97155000Y-67310000D03*
D13*
G04 #@! TO.P,J18,2*
G04 #@! TO.N,GP9*
X97155000Y-64770000D03*
G04 #@! TO.P,J18,3*
G04 #@! TO.N,GP8*
X97155000Y-62230000D03*
G04 #@! TO.P,J18,4*
G04 #@! TO.N,GP7*
X97155000Y-59690000D03*
G04 #@! TO.P,J18,5*
G04 #@! TO.N,GP6*
X97155000Y-57150000D03*
G04 #@! TD*
D11*
G04 #@! TO.P,J1,1*
G04 #@! TO.N,GND*
X143510000Y-36830000D03*
D13*
G04 #@! TO.P,J1,2*
G04 #@! TO.N,MODE*
X140970000Y-36830000D03*
G04 #@! TD*
G04 #@! TO.P,U1,1*
G04 #@! TO.N,U_TX*
X108839000Y-27432000D03*
G04 #@! TO.P,U1,2*
G04 #@! TO.N,U_RX*
X108839000Y-29972000D03*
D11*
G04 #@! TO.P,U1,3*
G04 #@! TO.N,GND*
X108839000Y-32512000D03*
D13*
G04 #@! TO.P,U1,4*
G04 #@! TO.N,GP2*
X108839000Y-35052000D03*
G04 #@! TO.P,U1,5*
G04 #@! TO.N,GP3*
X108839000Y-37592000D03*
G04 #@! TO.P,U1,6*
G04 #@! TO.N,SDA_0*
X108839000Y-40132000D03*
G04 #@! TO.P,U1,7*
G04 #@! TO.N,SCL_0*
X108839000Y-42672000D03*
D11*
G04 #@! TO.P,U1,8*
G04 #@! TO.N,GND*
X108839000Y-45212000D03*
D13*
G04 #@! TO.P,U1,9*
G04 #@! TO.N,GP6*
X108839000Y-47752000D03*
G04 #@! TO.P,U1,10*
G04 #@! TO.N,GP7*
X108839000Y-50292000D03*
G04 #@! TO.P,U1,11*
G04 #@! TO.N,GP8*
X108839000Y-52832000D03*
G04 #@! TO.P,U1,12*
G04 #@! TO.N,GP9*
X108839000Y-55372000D03*
D11*
G04 #@! TO.P,U1,13*
G04 #@! TO.N,GND*
X108839000Y-57912000D03*
D13*
G04 #@! TO.P,U1,14*
G04 #@! TO.N,SPI1_CK_GP10_I2S_CLK*
X108839000Y-60452000D03*
G04 #@! TO.P,U1,15*
G04 #@! TO.N,SPI1_MOSI_GP11_I2S_WS*
X108839000Y-62992000D03*
G04 #@! TO.P,U1,16*
G04 #@! TO.N,SPI1_MISO_GP12_I2S_SD*
X108839000Y-65532000D03*
G04 #@! TO.P,U1,17*
G04 #@! TO.N,SPI1_CS1_GP13*
X108839000Y-68072000D03*
D11*
G04 #@! TO.P,U1,18*
G04 #@! TO.N,GND*
X108839000Y-70612000D03*
D13*
G04 #@! TO.P,U1,19*
G04 #@! TO.N,SDA1_GP14*
X108839000Y-73152000D03*
G04 #@! TO.P,U1,20*
G04 #@! TO.N,SCL1_GP15*
X108839000Y-75692000D03*
G04 #@! TO.P,U1,21*
G04 #@! TO.N,SPI0_MISO*
X126619000Y-75692000D03*
G04 #@! TO.P,U1,22*
G04 #@! TO.N,SPI0_CS1*
X126619000Y-73152000D03*
D11*
G04 #@! TO.P,U1,23*
G04 #@! TO.N,GND*
X126619000Y-70612000D03*
D13*
G04 #@! TO.P,U1,24*
G04 #@! TO.N,SPI0_CK*
X126619000Y-68072000D03*
G04 #@! TO.P,U1,25*
G04 #@! TO.N,SPI0_MOSI*
X126619000Y-65532000D03*
G04 #@! TO.P,U1,26*
G04 #@! TO.N,SPI0_CS2*
X126619000Y-62992000D03*
G04 #@! TO.P,U1,27*
G04 #@! TO.N,WS2812_3V*
X126619000Y-60452000D03*
D11*
G04 #@! TO.P,U1,28*
G04 #@! TO.N,GND*
X126619000Y-57912000D03*
D13*
G04 #@! TO.P,U1,29*
G04 #@! TO.N,LED*
X126619000Y-55372000D03*
G04 #@! TO.P,U1,30*
G04 #@! TO.N,RUN*
X126619000Y-52832000D03*
G04 #@! TO.P,U1,31*
G04 #@! TO.N,ADC0*
X126619000Y-50292000D03*
G04 #@! TO.P,U1,32*
G04 #@! TO.N,ADC1*
X126619000Y-47752000D03*
D11*
G04 #@! TO.P,U1,33*
G04 #@! TO.N,AGND*
X126619000Y-45212000D03*
D13*
G04 #@! TO.P,U1,34*
G04 #@! TO.N,MODE*
X126619000Y-42672000D03*
G04 #@! TO.P,U1,35*
G04 #@! TO.N,Net-(U1-Pad35)*
X126619000Y-40132000D03*
G04 #@! TO.P,U1,36*
G04 #@! TO.N,+3V3*
X126619000Y-37592000D03*
G04 #@! TO.P,U1,37*
G04 #@! TO.N,Net-(U1-Pad37)*
X126619000Y-35052000D03*
D11*
G04 #@! TO.P,U1,38*
G04 #@! TO.N,GND*
X126619000Y-32512000D03*
D13*
G04 #@! TO.P,U1,39*
G04 #@! TO.N,+5V*
X126619000Y-29972000D03*
G04 #@! TO.P,U1,40*
G04 #@! TO.N,Net-(U1-Pad40)*
X126619000Y-27432000D03*
G04 #@! TO.P,U1,41*
G04 #@! TO.N,SWCLK*
X115189000Y-75462000D03*
D11*
G04 #@! TO.P,U1,42*
G04 #@! TO.N,GND*
X117729000Y-75462000D03*
D13*
G04 #@! TO.P,U1,43*
G04 #@! TO.N,SWDIO*
X120269000Y-75462000D03*
G04 #@! TD*
D11*
G04 #@! TO.P,J5,1*
G04 #@! TO.N,GND*
X97155000Y-50673000D03*
D13*
G04 #@! TO.P,J5,2*
G04 #@! TO.N,SCL_0*
X97155000Y-48133000D03*
G04 #@! TO.P,J5,3*
G04 #@! TO.N,SDA_0*
X97155000Y-45593000D03*
G04 #@! TO.P,J5,4*
G04 #@! TO.N,+3V3*
X97155000Y-43053000D03*
G04 #@! TD*
G04 #@! TO.P,J6,4*
G04 #@! TO.N,+3V3*
X89535000Y-43053000D03*
G04 #@! TO.P,J6,3*
G04 #@! TO.N,SDA_0*
X89535000Y-45593000D03*
G04 #@! TO.P,J6,2*
G04 #@! TO.N,SCL_0*
X89535000Y-48133000D03*
D11*
G04 #@! TO.P,J6,1*
G04 #@! TO.N,GND*
X89535000Y-50673000D03*
G04 #@! TD*
G04 #@! TO.P,J7,1*
G04 #@! TO.N,GND*
X81915000Y-50673000D03*
D13*
G04 #@! TO.P,J7,2*
G04 #@! TO.N,SCL_0*
X81915000Y-48133000D03*
G04 #@! TO.P,J7,3*
G04 #@! TO.N,SDA_0*
X81915000Y-45593000D03*
G04 #@! TO.P,J7,4*
G04 #@! TO.N,+3V3*
X81915000Y-43053000D03*
G04 #@! TD*
G04 #@! TO.P,J8,3*
G04 #@! TO.N,U_TX*
X87630000Y-29845000D03*
G04 #@! TO.P,J8,2*
G04 #@! TO.N,U_RX*
X87630000Y-32385000D03*
D11*
G04 #@! TO.P,J8,1*
G04 #@! TO.N,GND*
X87630000Y-34925000D03*
G04 #@! TD*
G04 #@! TO.P,J9,1*
G04 #@! TO.N,GND*
X160020000Y-66675000D03*
D13*
G04 #@! TO.P,J9,2*
G04 #@! TO.N,SPI0_CS1*
X160020000Y-64135000D03*
G04 #@! TO.P,J9,3*
G04 #@! TO.N,SPI0_MISO*
X160020000Y-61595000D03*
G04 #@! TO.P,J9,4*
G04 #@! TO.N,SPI0_CK*
X160020000Y-59055000D03*
G04 #@! TO.P,J9,5*
G04 #@! TO.N,SPI0_MOSI*
X160020000Y-56515000D03*
G04 #@! TO.P,J9,6*
G04 #@! TO.N,+3V3*
X160020000Y-53975000D03*
G04 #@! TD*
D11*
G04 #@! TO.P,J10,1*
G04 #@! TO.N,GND*
X149860000Y-66675000D03*
D13*
G04 #@! TO.P,J10,2*
G04 #@! TO.N,SPI0_CS2*
X149860000Y-64135000D03*
G04 #@! TO.P,J10,3*
G04 #@! TO.N,SPI0_MISO*
X149860000Y-61595000D03*
G04 #@! TO.P,J10,4*
G04 #@! TO.N,SPI0_CK*
X149860000Y-59055000D03*
G04 #@! TO.P,J10,5*
G04 #@! TO.N,SPI0_MOSI*
X149860000Y-56515000D03*
G04 #@! TO.P,J10,6*
G04 #@! TO.N,+3V3*
X149860000Y-53975000D03*
G04 #@! TD*
D11*
G04 #@! TO.P,J12,1*
G04 #@! TO.N,GND*
X97155000Y-85090000D03*
D13*
G04 #@! TO.P,J12,2*
G04 #@! TO.N,SPI1_CS1_GP13*
X97155000Y-82550000D03*
G04 #@! TO.P,J12,3*
G04 #@! TO.N,SPI1_MISO_GP12_I2S_SD*
X97155000Y-80010000D03*
G04 #@! TO.P,J12,4*
G04 #@! TO.N,SPI1_MOSI_GP11_I2S_WS*
X97155000Y-77470000D03*
G04 #@! TO.P,J12,5*
G04 #@! TO.N,SPI1_CK_GP10_I2S_CLK*
X97155000Y-74930000D03*
G04 #@! TO.P,J12,6*
G04 #@! TO.N,+3V3*
X97155000Y-72390000D03*
G04 #@! TD*
G04 #@! TO.P,J13,3*
G04 #@! TO.N,+3V3*
X81915000Y-62230000D03*
G04 #@! TO.P,J13,2*
X81915000Y-59690000D03*
D11*
G04 #@! TO.P,J13,1*
X81915000Y-57150000D03*
G04 #@! TD*
G04 #@! TO.P,J14,1*
G04 #@! TO.N,+5V*
X144018000Y-27940000D03*
D13*
G04 #@! TO.P,J14,2*
X146558000Y-27940000D03*
G04 #@! TO.P,J14,3*
X149098000Y-27940000D03*
G04 #@! TD*
D11*
G04 #@! TO.P,J15,1*
G04 #@! TO.N,GND*
X162560000Y-27940000D03*
D13*
G04 #@! TO.P,J15,2*
X160020000Y-27940000D03*
G04 #@! TO.P,J15,3*
X157480000Y-27940000D03*
G04 #@! TD*
D11*
G04 #@! TO.P,J16,1*
G04 #@! TO.N,GND*
X89535000Y-57150000D03*
D13*
G04 #@! TO.P,J16,2*
X89535000Y-59690000D03*
G04 #@! TO.P,J16,3*
X89535000Y-62230000D03*
G04 #@! TD*
G04 #@! TO.P,J17,3*
G04 #@! TO.N,+3V3*
X169545000Y-59055000D03*
G04 #@! TO.P,J17,2*
X169545000Y-56515000D03*
D11*
G04 #@! TO.P,J17,1*
X169545000Y-53975000D03*
G04 #@! TD*
D12*
G04 #@! TO.P,SW2,1*
G04 #@! TO.N,GP9*
X106045000Y-92710000D03*
G04 #@! TO.P,SW2,2*
G04 #@! TO.N,GND*
X106045000Y-97210000D03*
G04 #@! TO.P,SW2,1*
G04 #@! TO.N,GP9*
X99545000Y-92710000D03*
G04 #@! TO.P,SW2,2*
G04 #@! TO.N,GND*
X99545000Y-97210000D03*
G04 #@! TD*
G04 #@! TO.P,SW3,2*
G04 #@! TO.N,GND*
X84940000Y-97210000D03*
G04 #@! TO.P,SW3,1*
G04 #@! TO.N,GP8*
X84940000Y-92710000D03*
G04 #@! TO.P,SW3,2*
G04 #@! TO.N,GND*
X91440000Y-97210000D03*
G04 #@! TO.P,SW3,1*
G04 #@! TO.N,GP8*
X91440000Y-92710000D03*
G04 #@! TD*
D14*
G04 #@! TO.P,C1,1*
G04 #@! TO.N,+5V*
X135255000Y-28250000D03*
D15*
G04 #@! TO.P,C1,2*
G04 #@! TO.N,GND*
X135255000Y-31750000D03*
G04 #@! TD*
D11*
G04 #@! TO.P,J20,1*
G04 #@! TO.N,GND*
X97155000Y-34925000D03*
D13*
G04 #@! TO.P,J20,2*
G04 #@! TO.N,GP3*
X97155000Y-32385000D03*
G04 #@! TO.P,J20,3*
G04 #@! TO.N,GP2*
X97155000Y-29845000D03*
G04 #@! TD*
D11*
G04 #@! TO.P,J3,1*
G04 #@! TO.N,AGND*
X149860000Y-43180000D03*
D13*
G04 #@! TO.P,J3,2*
G04 #@! TO.N,ADC1*
X149860000Y-40640000D03*
G04 #@! TO.P,J3,3*
G04 #@! TO.N,ADC0*
X149860000Y-38100000D03*
G04 #@! TO.P,J3,4*
G04 #@! TO.N,+3V3*
X149860000Y-35560000D03*
G04 #@! TD*
G04 #@! TO.P,J19,5*
G04 #@! TO.N,+3V3*
X85090000Y-74930000D03*
G04 #@! TO.P,J19,4*
G04 #@! TO.N,SPI1_CK_GP10_I2S_CLK*
X85090000Y-77470000D03*
G04 #@! TO.P,J19,3*
G04 #@! TO.N,SPI1_MOSI_GP11_I2S_WS*
X85090000Y-80010000D03*
G04 #@! TO.P,J19,2*
G04 #@! TO.N,SPI1_MISO_GP12_I2S_SD*
X85090000Y-82550000D03*
D11*
G04 #@! TO.P,J19,1*
G04 #@! TO.N,GND*
X85090000Y-85090000D03*
G04 #@! TD*
G04 #@! TO.P,J22,1*
G04 #@! TO.N,GND*
X127635000Y-95250000D03*
D13*
G04 #@! TO.P,J22,2*
G04 #@! TO.N,SDA1_GP14*
X127635000Y-92710000D03*
G04 #@! TO.P,J22,3*
G04 #@! TO.N,SCL1_GP15*
X127635000Y-90170000D03*
G04 #@! TO.P,J22,4*
G04 #@! TO.N,+3V3*
X127635000Y-87630000D03*
G04 #@! TD*
G04 #@! TO.P,J23,4*
G04 #@! TO.N,+3V3*
X135255000Y-87630000D03*
G04 #@! TO.P,J23,3*
G04 #@! TO.N,SCL1_GP15*
X135255000Y-90170000D03*
G04 #@! TO.P,J23,2*
G04 #@! TO.N,SDA1_GP14*
X135255000Y-92710000D03*
D11*
G04 #@! TO.P,J23,1*
G04 #@! TO.N,GND*
X135255000Y-95250000D03*
G04 #@! TD*
D15*
G04 #@! TO.P,C2,2*
G04 #@! TO.N,GND*
X167045000Y-69215000D03*
D14*
G04 #@! TO.P,C2,1*
G04 #@! TO.N,+3V3*
X169545000Y-69215000D03*
G04 #@! TD*
G04 #@! TO.P,C3,1*
G04 #@! TO.N,+3V3*
X76240000Y-69850000D03*
D15*
G04 #@! TO.P,C3,2*
G04 #@! TO.N,GND*
X78740000Y-69850000D03*
G04 #@! TD*
G04 #@! TO.P,C4,2*
G04 #@! TO.N,GND*
X78740000Y-36830000D03*
D14*
G04 #@! TO.P,C4,1*
G04 #@! TO.N,+3V3*
X76240000Y-36830000D03*
G04 #@! TD*
G04 #@! TO.P,C5,1*
G04 #@! TO.N,+3V3*
X135215000Y-80010000D03*
D15*
G04 #@! TO.P,C5,2*
G04 #@! TO.N,GND*
X132715000Y-80010000D03*
G04 #@! TD*
D11*
G04 #@! TO.P,J2,1*
G04 #@! TO.N,GND*
X120650000Y-91440000D03*
D13*
G04 #@! TO.P,J2,2*
G04 #@! TO.N,SWDIO*
X118110000Y-91440000D03*
G04 #@! TO.P,J2,3*
G04 #@! TO.N,SWCLK*
X115570000Y-91440000D03*
G04 #@! TO.P,J2,4*
G04 #@! TO.N,+5VD*
X113030000Y-91440000D03*
G04 #@! TD*
D11*
G04 #@! TO.P,J21,1*
G04 #@! TO.N,WS2812_3V*
X169545000Y-45085000D03*
D13*
G04 #@! TO.P,J21,2*
G04 #@! TO.N,GND*
X169545000Y-42545000D03*
G04 #@! TO.P,J21,3*
X169545000Y-40005000D03*
G04 #@! TO.P,J21,4*
G04 #@! TO.N,WS2812B_5V*
X169545000Y-37465000D03*
G04 #@! TD*
D11*
G04 #@! TO.P,JP1,1*
G04 #@! TO.N,+3V3*
X170180000Y-77470000D03*
D13*
G04 #@! TO.P,JP1,2*
G04 #@! TO.N,Net-(JP1-Pad2)*
X167640000Y-77470000D03*
G04 #@! TD*
D16*
G04 #@! TO.N,+3V3*
X156845000Y-47625000D03*
D17*
G04 #@! TO.N,SPI0_CS1*
X137160000Y-69850000D03*
X142240000Y-69850000D03*
G04 #@! TD*
D18*
G04 #@! TO.N,GND*
X162560000Y-27940000D02*
X160020000Y-27940000D01*
X160020000Y-27940000D02*
X157480000Y-27940000D01*
X143510000Y-36830000D02*
X143510000Y-34290000D01*
X143510000Y-34290000D02*
X146685000Y-31115000D01*
X154305000Y-31115000D02*
X157480000Y-27940000D01*
X146685000Y-31115000D02*
X154305000Y-31115000D01*
X140970000Y-31750000D02*
X143510000Y-34290000D01*
X164465000Y-42545000D02*
X164465000Y-66040000D01*
X163830000Y-66675000D02*
X160020000Y-66675000D01*
X164465000Y-66040000D02*
X163830000Y-66675000D01*
X149860000Y-66675000D02*
X160020000Y-66675000D01*
X149860000Y-66675000D02*
X149860000Y-71755000D01*
X147955000Y-73660000D02*
X147955000Y-76500000D01*
X149860000Y-71755000D02*
X147955000Y-73660000D01*
X160020000Y-66675000D02*
X163235000Y-66675000D01*
X149860000Y-66675000D02*
X151130000Y-66675000D01*
X151130000Y-66675000D02*
X155575000Y-62230000D01*
X155575000Y-62230000D02*
X155575000Y-53975000D01*
X155575000Y-53975000D02*
X151765000Y-50165000D01*
X144780000Y-50165000D02*
X140970000Y-53975000D01*
X151765000Y-50165000D02*
X144780000Y-50165000D01*
X126619000Y-57912000D02*
X123698000Y-57912000D01*
X123698000Y-57912000D02*
X123190000Y-58420000D01*
X140970000Y-60475000D02*
X140970000Y-53975000D01*
X123317000Y-70612000D02*
X123190000Y-70485000D01*
X126619000Y-70612000D02*
X123317000Y-70612000D01*
X123190000Y-58420000D02*
X123190000Y-70485000D01*
X135255000Y-95250000D02*
X127635000Y-95250000D01*
X124460000Y-95250000D02*
X120650000Y-91440000D01*
X127635000Y-95250000D02*
X124460000Y-95250000D01*
X120650000Y-94615000D02*
X120650000Y-91440000D01*
X118055000Y-97210000D02*
X120650000Y-94615000D01*
X106045000Y-97210000D02*
X99545000Y-97210000D01*
X99545000Y-97210000D02*
X91440000Y-97210000D01*
X91440000Y-97210000D02*
X84940000Y-97210000D01*
X108839000Y-70612000D02*
X103632000Y-70612000D01*
X100330000Y-67310000D02*
X97155000Y-67310000D01*
X103632000Y-70612000D02*
X100330000Y-67310000D01*
X89535000Y-62230000D02*
X89535000Y-59690000D01*
X89535000Y-59690000D02*
X89535000Y-57150000D01*
X81915000Y-50673000D02*
X89535000Y-50673000D01*
X89535000Y-50673000D02*
X97155000Y-50673000D01*
X89535000Y-57150000D02*
X89535000Y-50673000D01*
X108839000Y-57912000D02*
X104013000Y-57912000D01*
X100330000Y-61595000D02*
X100330000Y-67310000D01*
X104013000Y-57912000D02*
X100330000Y-61595000D01*
X108839000Y-45212000D02*
X105283000Y-45212000D01*
X99822000Y-50673000D02*
X97155000Y-50673000D01*
X105283000Y-45212000D02*
X99822000Y-50673000D01*
X85725000Y-36830000D02*
X87630000Y-34925000D01*
X78740000Y-36830000D02*
X85725000Y-36830000D01*
X87630000Y-34925000D02*
X97155000Y-34925000D01*
X97155000Y-34925000D02*
X102235000Y-34925000D01*
X104648000Y-32512000D02*
X108839000Y-32512000D01*
X102235000Y-34925000D02*
X104648000Y-32512000D01*
X81915000Y-69850000D02*
X89535000Y-62230000D01*
X78740000Y-69850000D02*
X81915000Y-69850000D01*
X102235000Y-42164000D02*
X105283000Y-45212000D01*
X102235000Y-34925000D02*
X102235000Y-42164000D01*
X117729000Y-73279000D02*
X117729000Y-75462000D01*
X108839000Y-70612000D02*
X115062000Y-70612000D01*
X115062000Y-70612000D02*
X117729000Y-73279000D01*
X123825000Y-79375000D02*
X124460000Y-80010000D01*
X123190000Y-78740000D02*
X123825000Y-79375000D01*
X123190000Y-70485000D02*
X123190000Y-78740000D01*
X117729000Y-75462000D02*
X117729000Y-78994000D01*
X118745000Y-80010000D02*
X125730000Y-80010000D01*
X117729000Y-78994000D02*
X118745000Y-80010000D01*
X124460000Y-80010000D02*
X125730000Y-80010000D01*
X125730000Y-80010000D02*
X132715000Y-80010000D01*
X109220000Y-97210000D02*
X118055000Y-97210000D01*
X109220000Y-97210000D02*
X109220000Y-88265000D01*
X106045000Y-97210000D02*
X109220000Y-97210000D01*
X103632000Y-82677000D02*
X103632000Y-70612000D01*
X109220000Y-88265000D02*
X103632000Y-82677000D01*
X81915000Y-88265000D02*
X85090000Y-85090000D01*
X81915000Y-94615000D02*
X81915000Y-88265000D01*
X84940000Y-97210000D02*
X84510000Y-97210000D01*
X84510000Y-97210000D02*
X81915000Y-94615000D01*
X164465000Y-42545000D02*
X169545000Y-42545000D01*
X162560000Y-40640000D02*
X164465000Y-42545000D01*
X162560000Y-27940000D02*
X162560000Y-40640000D01*
X167005000Y-40005000D02*
X164465000Y-42545000D01*
X169545000Y-40005000D02*
X167005000Y-40005000D01*
X166370000Y-69215000D02*
X163830000Y-66675000D01*
X167045000Y-69215000D02*
X166370000Y-69215000D01*
X140970000Y-31750000D02*
X135255000Y-31750000D01*
X134493000Y-32512000D02*
X126619000Y-32512000D01*
X135255000Y-31750000D02*
X134493000Y-32512000D01*
X140970000Y-60475000D02*
X140970000Y-60960000D01*
X140970000Y-60475000D02*
X138453000Y-62992000D01*
X138453000Y-62992000D02*
X135636000Y-62992000D01*
X130556000Y-57912000D02*
X126619000Y-57912000D01*
X135636000Y-62992000D02*
X130556000Y-57912000D01*
D19*
G04 #@! TO.N,RUN*
X135327000Y-52832000D02*
X136470000Y-53975000D01*
X126619000Y-52832000D02*
X135327000Y-52832000D01*
X136470000Y-53975000D02*
X136470000Y-60475000D01*
D18*
G04 #@! TO.N,+3V3*
X160020000Y-50800000D02*
X160020000Y-53975000D01*
X156845000Y-47625000D02*
X160020000Y-50800000D01*
D19*
G04 #@! TO.N,AGND*
X146685000Y-41910000D02*
X147955000Y-43180000D01*
X133350000Y-41910000D02*
X146685000Y-41910000D01*
X126619000Y-45212000D02*
X130048000Y-45212000D01*
X147955000Y-43180000D02*
X149860000Y-43180000D01*
X130048000Y-45212000D02*
X133350000Y-41910000D01*
G04 #@! TO.N,GP9*
X106045000Y-92710000D02*
X99545000Y-92710000D01*
X99545000Y-92710000D02*
X99545000Y-91925000D01*
X99545000Y-92710000D02*
X99060000Y-92710000D01*
X99060000Y-92710000D02*
X94615000Y-88265000D01*
X94615000Y-88265000D02*
X94615000Y-66040000D01*
X95885000Y-64770000D02*
X97155000Y-64770000D01*
X94615000Y-66040000D02*
X95885000Y-64770000D01*
G04 #@! TO.N,GP8*
X91440000Y-92710000D02*
X91440000Y-66675000D01*
X95885000Y-62230000D02*
X97155000Y-62230000D01*
X91440000Y-66675000D02*
X95885000Y-62230000D01*
X84940000Y-92710000D02*
X91440000Y-92710000D01*
G04 #@! TO.N,SPI0_CS1*
X137160000Y-69850000D02*
X142240000Y-69850000D01*
G04 #@! TO.N,SPI0_CS2*
X126619000Y-62992000D02*
X130810000Y-62992000D01*
X130810000Y-62992000D02*
X132542999Y-64724999D01*
X149270001Y-64724999D02*
X149860000Y-64135000D01*
X132542999Y-64724999D02*
X149270001Y-64724999D01*
D18*
G04 #@! TO.N,Net-(JP1-Pad2)*
X167640000Y-77470000D02*
X163830000Y-73660000D01*
X163830000Y-73660000D02*
X163756491Y-73733509D01*
X163756491Y-73733509D02*
X151691491Y-73733509D01*
X150495000Y-74930000D02*
X150495000Y-76500000D01*
X151691491Y-73733509D02*
X150495000Y-74930000D01*
D19*
G04 #@! TO.N,SDA1_GP14*
X127635000Y-92710000D02*
X126365000Y-92710000D01*
X126365000Y-92710000D02*
X116205000Y-82550000D01*
X116205000Y-82550000D02*
X109220000Y-82550000D01*
X109220000Y-82550000D02*
X105410000Y-78740000D01*
X105410000Y-78740000D02*
X105410000Y-74930000D01*
X107188000Y-73152000D02*
X108839000Y-73152000D01*
X105410000Y-74930000D02*
X107188000Y-73152000D01*
X127635000Y-92710000D02*
X135255000Y-92710000D01*
X135255000Y-92710000D02*
X142240000Y-92710000D01*
X155575000Y-79375000D02*
X155575000Y-76500000D01*
X142240000Y-92710000D02*
X155575000Y-79375000D01*
G04 #@! TO.N,SCL1_GP15*
X127635000Y-90170000D02*
X126365000Y-90170000D01*
X126365000Y-90170000D02*
X116840000Y-80645000D01*
X116840000Y-80645000D02*
X111125000Y-80645000D01*
X108839000Y-78359000D02*
X108839000Y-75692000D01*
X111125000Y-80645000D02*
X108839000Y-78359000D01*
X127635000Y-90170000D02*
X135255000Y-90170000D01*
X135255000Y-90170000D02*
X142240000Y-90170000D01*
X153035000Y-79375000D02*
X153035000Y-76500000D01*
X142240000Y-90170000D02*
X153035000Y-79375000D01*
G04 #@! TD*
D20*
G04 #@! TO.N,GND*
G36*
X106544920Y-27432000D02*
X106719546Y-28309906D01*
X106981535Y-28702000D01*
X106719546Y-29094094D01*
X106544920Y-29972000D01*
X106719546Y-30849906D01*
X107216840Y-31594160D01*
X107961094Y-32091454D01*
X108617394Y-32222000D01*
X109060606Y-32222000D01*
X109716906Y-32091454D01*
X110461160Y-31594160D01*
X110958454Y-30849906D01*
X111133080Y-29972000D01*
X110958454Y-29094094D01*
X110696465Y-28702000D01*
X110958454Y-28309906D01*
X111133080Y-27432000D01*
X111022286Y-26875000D01*
X111411800Y-26875000D01*
X112033539Y-27185870D01*
X112200484Y-27297419D01*
X112436903Y-27344446D01*
X112669390Y-27408112D01*
X112690070Y-27405505D01*
X112658941Y-27562000D01*
X112837448Y-28459415D01*
X113345793Y-29220207D01*
X113545610Y-29353720D01*
X113278745Y-29753112D01*
X113111880Y-30592000D01*
X113278745Y-31430888D01*
X113753937Y-32142063D01*
X114465112Y-32617255D01*
X115092248Y-32742000D01*
X115515752Y-32742000D01*
X116142888Y-32617255D01*
X116854063Y-32142063D01*
X117329255Y-31430888D01*
X117496120Y-30592000D01*
X117329255Y-29753112D01*
X116854063Y-29041937D01*
X116803775Y-29008336D01*
X117170552Y-28459415D01*
X117349059Y-27562000D01*
X117313454Y-27383000D01*
X118144546Y-27383000D01*
X118108941Y-27562000D01*
X118287448Y-28459415D01*
X118654225Y-29008336D01*
X118603937Y-29041937D01*
X118128745Y-29753112D01*
X117961880Y-30592000D01*
X118128745Y-31430888D01*
X118603937Y-32142063D01*
X119315112Y-32617255D01*
X119942248Y-32742000D01*
X120365752Y-32742000D01*
X120992888Y-32617255D01*
X121704063Y-32142063D01*
X122179255Y-31430888D01*
X122346120Y-30592000D01*
X122179255Y-29753112D01*
X121912390Y-29353720D01*
X122112207Y-29220207D01*
X122620552Y-28459415D01*
X122799059Y-27562000D01*
X122756369Y-27347383D01*
X122767086Y-27344448D01*
X123003516Y-27297419D01*
X123170468Y-27185865D01*
X123792199Y-26875000D01*
X124435714Y-26875000D01*
X124324920Y-27432000D01*
X124499546Y-28309906D01*
X124761535Y-28702000D01*
X124499546Y-29094094D01*
X124324920Y-29972000D01*
X124499546Y-30849906D01*
X124996840Y-31594160D01*
X125741094Y-32091454D01*
X126397394Y-32222000D01*
X126840606Y-32222000D01*
X127496906Y-32091454D01*
X128241160Y-31594160D01*
X128738454Y-30849906D01*
X128913080Y-29972000D01*
X128738454Y-29094094D01*
X128476465Y-28702000D01*
X128738454Y-28309906D01*
X128913080Y-27432000D01*
X128802286Y-26875000D01*
X133155437Y-26875000D01*
X133136229Y-26903747D01*
X133027573Y-27450000D01*
X133027573Y-29050000D01*
X133136229Y-29596253D01*
X133445657Y-30059343D01*
X133908747Y-30368771D01*
X134455000Y-30477427D01*
X136055000Y-30477427D01*
X136601253Y-30368771D01*
X137064343Y-30059343D01*
X137373771Y-29596253D01*
X137482427Y-29050000D01*
X137482427Y-27450000D01*
X137373771Y-26903747D01*
X137354563Y-26875000D01*
X141783339Y-26875000D01*
X141740573Y-27090000D01*
X141740573Y-28790000D01*
X141849229Y-29336253D01*
X142158657Y-29799343D01*
X142621747Y-30108771D01*
X143168000Y-30217427D01*
X144868000Y-30217427D01*
X145414253Y-30108771D01*
X145584077Y-29995298D01*
X145680094Y-30059454D01*
X146336394Y-30190000D01*
X146779606Y-30190000D01*
X147435906Y-30059454D01*
X147828000Y-29797465D01*
X148220094Y-30059454D01*
X148876394Y-30190000D01*
X149319606Y-30190000D01*
X149975906Y-30059454D01*
X150720160Y-29562160D01*
X151217454Y-28817906D01*
X151392080Y-27940000D01*
X151217454Y-27062094D01*
X151092442Y-26875000D01*
X167002360Y-26875000D01*
X166366723Y-27510637D01*
X165910000Y-28613263D01*
X165910000Y-29806737D01*
X166366723Y-30909363D01*
X167210637Y-31753277D01*
X168313263Y-32210000D01*
X169506737Y-32210000D01*
X170609363Y-31753277D01*
X171245000Y-31117640D01*
X171245000Y-35959336D01*
X171167160Y-35842840D01*
X170422906Y-35345546D01*
X169766606Y-35215000D01*
X169323394Y-35215000D01*
X168667094Y-35345546D01*
X167922840Y-35842840D01*
X167425546Y-36587094D01*
X167250920Y-37465000D01*
X167425546Y-38342906D01*
X167922840Y-39087160D01*
X168667094Y-39584454D01*
X169323394Y-39715000D01*
X169766606Y-39715000D01*
X170422906Y-39584454D01*
X171167160Y-39087160D01*
X171245000Y-38970664D01*
X171245000Y-43119187D01*
X170941253Y-42916229D01*
X170395000Y-42807573D01*
X168695000Y-42807573D01*
X168148747Y-42916229D01*
X167685657Y-43225657D01*
X167376229Y-43688747D01*
X167267573Y-44235000D01*
X167267573Y-45935000D01*
X167376229Y-46481253D01*
X167685657Y-46944343D01*
X168148747Y-47253771D01*
X168695000Y-47362427D01*
X170395000Y-47362427D01*
X170941253Y-47253771D01*
X171245000Y-47050813D01*
X171245000Y-52009187D01*
X170941253Y-51806229D01*
X170395000Y-51697573D01*
X168695000Y-51697573D01*
X168148747Y-51806229D01*
X167685657Y-52115657D01*
X167376229Y-52578747D01*
X167267573Y-53125000D01*
X167267573Y-54825000D01*
X167376229Y-55371253D01*
X167489702Y-55541077D01*
X167425546Y-55637094D01*
X167250920Y-56515000D01*
X167425546Y-57392906D01*
X167687535Y-57785000D01*
X167425546Y-58177094D01*
X167250920Y-59055000D01*
X167425546Y-59932906D01*
X167922840Y-60677160D01*
X168667094Y-61174454D01*
X169323394Y-61305000D01*
X169766606Y-61305000D01*
X170422906Y-61174454D01*
X171167160Y-60677160D01*
X171245000Y-60560663D01*
X171245001Y-67332596D01*
X170891253Y-67096229D01*
X170345000Y-66987573D01*
X168745000Y-66987573D01*
X168198747Y-67096229D01*
X167735657Y-67405657D01*
X167426229Y-67868747D01*
X167317573Y-68415000D01*
X167317573Y-70015000D01*
X167426229Y-70561253D01*
X167735657Y-71024343D01*
X168198747Y-71333771D01*
X168745000Y-71442427D01*
X170345000Y-71442427D01*
X170891253Y-71333771D01*
X171245001Y-71097404D01*
X171245001Y-75235339D01*
X171030000Y-75192573D01*
X169330000Y-75192573D01*
X168783747Y-75301229D01*
X168613923Y-75414702D01*
X168517906Y-75350546D01*
X168218758Y-75291042D01*
X165344658Y-72416943D01*
X165235870Y-72254130D01*
X165073056Y-72145341D01*
X165073055Y-72145340D01*
X164590851Y-71823141D01*
X163830000Y-71671799D01*
X163829999Y-71671799D01*
X163678657Y-71701903D01*
X163268393Y-71783509D01*
X151883541Y-71783509D01*
X151691491Y-71745308D01*
X151499440Y-71783509D01*
X151499437Y-71783509D01*
X150930639Y-71896650D01*
X150285620Y-72327638D01*
X150176830Y-72490454D01*
X149251948Y-73415337D01*
X149089129Y-73524129D01*
X148658141Y-74169149D01*
X148545000Y-74737947D01*
X148545000Y-74737950D01*
X148506799Y-74930000D01*
X148545000Y-75122050D01*
X148545000Y-75328183D01*
X148245000Y-76052447D01*
X148245000Y-76947553D01*
X148587542Y-77774523D01*
X149220477Y-78407458D01*
X150047447Y-78750000D01*
X150942553Y-78750000D01*
X151335000Y-78587443D01*
X151335000Y-78670837D01*
X141535838Y-88470000D01*
X137381994Y-88470000D01*
X137549080Y-87630000D01*
X137374454Y-86752094D01*
X136877160Y-86007840D01*
X136132906Y-85510546D01*
X135476606Y-85380000D01*
X135033394Y-85380000D01*
X134377094Y-85510546D01*
X133632840Y-86007840D01*
X133135546Y-86752094D01*
X132960920Y-87630000D01*
X133128006Y-88470000D01*
X129761994Y-88470000D01*
X129929080Y-87630000D01*
X129754454Y-86752094D01*
X129257160Y-86007840D01*
X128512906Y-85510546D01*
X127856606Y-85380000D01*
X127413394Y-85380000D01*
X126757094Y-85510546D01*
X126012840Y-86007840D01*
X125515546Y-86752094D01*
X125488289Y-86889126D01*
X118160475Y-79561313D01*
X118065631Y-79419369D01*
X117752289Y-79210000D01*
X132987573Y-79210000D01*
X132987573Y-80810000D01*
X133096229Y-81356253D01*
X133405657Y-81819343D01*
X133868747Y-82128771D01*
X134415000Y-82237427D01*
X136015000Y-82237427D01*
X136561253Y-82128771D01*
X137024343Y-81819343D01*
X137333771Y-81356253D01*
X137442427Y-80810000D01*
X137442427Y-79210000D01*
X137333771Y-78663747D01*
X137024343Y-78200657D01*
X136561253Y-77891229D01*
X136015000Y-77782573D01*
X134415000Y-77782573D01*
X133868747Y-77891229D01*
X133405657Y-78200657D01*
X133096229Y-78663747D01*
X132987573Y-79210000D01*
X117752289Y-79210000D01*
X117503307Y-79043636D01*
X117007430Y-78945000D01*
X117007426Y-78945000D01*
X116840000Y-78911697D01*
X116672574Y-78945000D01*
X111829163Y-78945000D01*
X110539000Y-77654838D01*
X110539000Y-77197664D01*
X110958454Y-76569906D01*
X111133080Y-75692000D01*
X111087331Y-75462000D01*
X112894920Y-75462000D01*
X113069546Y-76339906D01*
X113566840Y-77084160D01*
X114311094Y-77581454D01*
X114967394Y-77712000D01*
X115410606Y-77712000D01*
X116066906Y-77581454D01*
X116811160Y-77084160D01*
X117308454Y-76339906D01*
X117483080Y-75462000D01*
X117974920Y-75462000D01*
X118149546Y-76339906D01*
X118646840Y-77084160D01*
X119391094Y-77581454D01*
X120047394Y-77712000D01*
X120490606Y-77712000D01*
X121146906Y-77581454D01*
X121891160Y-77084160D01*
X122388454Y-76339906D01*
X122563080Y-75462000D01*
X122388454Y-74584094D01*
X121891160Y-73839840D01*
X121146906Y-73342546D01*
X120490606Y-73212000D01*
X120047394Y-73212000D01*
X119391094Y-73342546D01*
X118646840Y-73839840D01*
X118149546Y-74584094D01*
X117974920Y-75462000D01*
X117483080Y-75462000D01*
X117308454Y-74584094D01*
X116811160Y-73839840D01*
X116066906Y-73342546D01*
X115410606Y-73212000D01*
X114967394Y-73212000D01*
X114311094Y-73342546D01*
X113566840Y-73839840D01*
X113069546Y-74584094D01*
X112894920Y-75462000D01*
X111087331Y-75462000D01*
X110958454Y-74814094D01*
X110696465Y-74422000D01*
X110958454Y-74029906D01*
X111133080Y-73152000D01*
X124324920Y-73152000D01*
X124499546Y-74029906D01*
X124761535Y-74422000D01*
X124499546Y-74814094D01*
X124324920Y-75692000D01*
X124499546Y-76569906D01*
X124996840Y-77314160D01*
X125741094Y-77811454D01*
X126397394Y-77942000D01*
X126840606Y-77942000D01*
X127496906Y-77811454D01*
X128241160Y-77314160D01*
X128738454Y-76569906D01*
X128913080Y-75692000D01*
X128738454Y-74814094D01*
X128476465Y-74422000D01*
X128738454Y-74029906D01*
X128913080Y-73152000D01*
X128738454Y-72274094D01*
X128241160Y-71529840D01*
X127496906Y-71032546D01*
X126840606Y-70902000D01*
X126397394Y-70902000D01*
X125741094Y-71032546D01*
X124996840Y-71529840D01*
X124499546Y-72274094D01*
X124324920Y-73152000D01*
X111133080Y-73152000D01*
X110958454Y-72274094D01*
X110461160Y-71529840D01*
X109716906Y-71032546D01*
X109060606Y-70902000D01*
X108617394Y-70902000D01*
X107961094Y-71032546D01*
X107338404Y-71448613D01*
X107188000Y-71418696D01*
X107020570Y-71452000D01*
X106524693Y-71550636D01*
X105962369Y-71926369D01*
X105867527Y-72068310D01*
X104326311Y-73609527D01*
X104184370Y-73704369D01*
X104089528Y-73846310D01*
X103808636Y-74266694D01*
X103676697Y-74930000D01*
X103710001Y-75097431D01*
X103710000Y-78572573D01*
X103676697Y-78740000D01*
X103710000Y-78907426D01*
X103710000Y-78907429D01*
X103808636Y-79403306D01*
X104184369Y-79965631D01*
X104326313Y-80060475D01*
X107899527Y-83633690D01*
X107994369Y-83775631D01*
X108136309Y-83870472D01*
X108556693Y-84151364D01*
X109220000Y-84283304D01*
X109387430Y-84250000D01*
X115500838Y-84250000D01*
X125044527Y-93793690D01*
X125139369Y-93935631D01*
X125281309Y-94030472D01*
X125701693Y-94311364D01*
X126100413Y-94390674D01*
X126757094Y-94829454D01*
X127413394Y-94960000D01*
X127856606Y-94960000D01*
X128512906Y-94829454D01*
X129140664Y-94410000D01*
X133749336Y-94410000D01*
X134377094Y-94829454D01*
X135033394Y-94960000D01*
X135476606Y-94960000D01*
X136132906Y-94829454D01*
X136760664Y-94410000D01*
X142072574Y-94410000D01*
X142240000Y-94443303D01*
X142407426Y-94410000D01*
X142407430Y-94410000D01*
X142903307Y-94311364D01*
X143465631Y-93935631D01*
X143560475Y-93793687D01*
X156658691Y-80695472D01*
X156800631Y-80600631D01*
X157176364Y-80038307D01*
X157275000Y-79542430D01*
X157275000Y-79542429D01*
X157308304Y-79375000D01*
X157275000Y-79207570D01*
X157275000Y-77981981D01*
X157482458Y-77774523D01*
X157825000Y-76947553D01*
X157825000Y-76052447D01*
X157672181Y-75683509D01*
X163095794Y-75683509D01*
X165461042Y-78048759D01*
X165520546Y-78347906D01*
X166017840Y-79092160D01*
X166762094Y-79589454D01*
X167418394Y-79720000D01*
X167861606Y-79720000D01*
X168517906Y-79589454D01*
X168613923Y-79525298D01*
X168783747Y-79638771D01*
X169330000Y-79747427D01*
X171030000Y-79747427D01*
X171245001Y-79704661D01*
X171245001Y-95882361D01*
X170609363Y-95246723D01*
X169506737Y-94790000D01*
X168313263Y-94790000D01*
X167210637Y-95246723D01*
X166366723Y-96090637D01*
X165910000Y-97193263D01*
X165910000Y-98386737D01*
X166366723Y-99489363D01*
X167002360Y-100125000D01*
X79377640Y-100125000D01*
X80013277Y-99489363D01*
X80470000Y-98386737D01*
X80470000Y-97193263D01*
X80013277Y-96090637D01*
X79169363Y-95246723D01*
X78066737Y-94790000D01*
X76873263Y-94790000D01*
X75770637Y-95246723D01*
X75135000Y-95882360D01*
X75135000Y-92232610D01*
X82540000Y-92232610D01*
X82540000Y-93187390D01*
X82905378Y-94069491D01*
X83580509Y-94744622D01*
X84462610Y-95110000D01*
X85417390Y-95110000D01*
X86299491Y-94744622D01*
X86634113Y-94410000D01*
X89745887Y-94410000D01*
X90080509Y-94744622D01*
X90962610Y-95110000D01*
X91917390Y-95110000D01*
X92799491Y-94744622D01*
X93474622Y-94069491D01*
X93840000Y-93187390D01*
X93840000Y-92232610D01*
X93474622Y-91350509D01*
X93140000Y-91015887D01*
X93140000Y-89117423D01*
X93389369Y-89490631D01*
X93531313Y-89585475D01*
X97153325Y-93207487D01*
X97510378Y-94069491D01*
X98185509Y-94744622D01*
X99067610Y-95110000D01*
X100022390Y-95110000D01*
X100904491Y-94744622D01*
X101239113Y-94410000D01*
X104350887Y-94410000D01*
X104685509Y-94744622D01*
X105567610Y-95110000D01*
X106522390Y-95110000D01*
X107404491Y-94744622D01*
X108079622Y-94069491D01*
X108445000Y-93187390D01*
X108445000Y-92232610D01*
X108116691Y-91440000D01*
X110735920Y-91440000D01*
X110910546Y-92317906D01*
X111407840Y-93062160D01*
X112152094Y-93559454D01*
X112808394Y-93690000D01*
X113251606Y-93690000D01*
X113907906Y-93559454D01*
X114300000Y-93297465D01*
X114692094Y-93559454D01*
X115348394Y-93690000D01*
X115791606Y-93690000D01*
X116447906Y-93559454D01*
X116840000Y-93297465D01*
X117232094Y-93559454D01*
X117888394Y-93690000D01*
X118331606Y-93690000D01*
X118987906Y-93559454D01*
X119732160Y-93062160D01*
X120229454Y-92317906D01*
X120404080Y-91440000D01*
X120229454Y-90562094D01*
X119732160Y-89817840D01*
X118987906Y-89320546D01*
X118331606Y-89190000D01*
X117888394Y-89190000D01*
X117232094Y-89320546D01*
X116840000Y-89582535D01*
X116447906Y-89320546D01*
X115791606Y-89190000D01*
X115348394Y-89190000D01*
X114692094Y-89320546D01*
X114300000Y-89582535D01*
X113907906Y-89320546D01*
X113251606Y-89190000D01*
X112808394Y-89190000D01*
X112152094Y-89320546D01*
X111407840Y-89817840D01*
X110910546Y-90562094D01*
X110735920Y-91440000D01*
X108116691Y-91440000D01*
X108079622Y-91350509D01*
X107404491Y-90675378D01*
X106522390Y-90310000D01*
X105567610Y-90310000D01*
X104685509Y-90675378D01*
X104350887Y-91010000D01*
X101239113Y-91010000D01*
X100904491Y-90675378D01*
X100457842Y-90490370D01*
X100208307Y-90323636D01*
X99545000Y-90191696D01*
X99045263Y-90291100D01*
X96315000Y-87560838D01*
X96315000Y-84676994D01*
X96933394Y-84800000D01*
X97376606Y-84800000D01*
X98032906Y-84669454D01*
X98777160Y-84172160D01*
X99274454Y-83427906D01*
X99449080Y-82550000D01*
X99274454Y-81672094D01*
X99012465Y-81280000D01*
X99274454Y-80887906D01*
X99449080Y-80010000D01*
X99274454Y-79132094D01*
X99012465Y-78740000D01*
X99274454Y-78347906D01*
X99449080Y-77470000D01*
X99274454Y-76592094D01*
X99012465Y-76200000D01*
X99274454Y-75807906D01*
X99449080Y-74930000D01*
X99274454Y-74052094D01*
X99012465Y-73660000D01*
X99274454Y-73267906D01*
X99449080Y-72390000D01*
X99274454Y-71512094D01*
X98777160Y-70767840D01*
X98032906Y-70270546D01*
X97376606Y-70140000D01*
X96933394Y-70140000D01*
X96315000Y-70263006D01*
X96315000Y-66896994D01*
X96933394Y-67020000D01*
X97376606Y-67020000D01*
X98032906Y-66889454D01*
X98777160Y-66392160D01*
X99274454Y-65647906D01*
X99449080Y-64770000D01*
X99274454Y-63892094D01*
X99012465Y-63500000D01*
X99274454Y-63107906D01*
X99449080Y-62230000D01*
X99274454Y-61352094D01*
X99012465Y-60960000D01*
X99274454Y-60567906D01*
X99297509Y-60452000D01*
X106544920Y-60452000D01*
X106719546Y-61329906D01*
X106981535Y-61722000D01*
X106719546Y-62114094D01*
X106544920Y-62992000D01*
X106719546Y-63869906D01*
X106981535Y-64262000D01*
X106719546Y-64654094D01*
X106544920Y-65532000D01*
X106719546Y-66409906D01*
X106981535Y-66802000D01*
X106719546Y-67194094D01*
X106544920Y-68072000D01*
X106719546Y-68949906D01*
X107216840Y-69694160D01*
X107961094Y-70191454D01*
X108617394Y-70322000D01*
X109060606Y-70322000D01*
X109716906Y-70191454D01*
X110461160Y-69694160D01*
X110958454Y-68949906D01*
X111133080Y-68072000D01*
X110958454Y-67194094D01*
X110696465Y-66802000D01*
X110958454Y-66409906D01*
X111133080Y-65532000D01*
X110958454Y-64654094D01*
X110696465Y-64262000D01*
X110958454Y-63869906D01*
X111133080Y-62992000D01*
X110958454Y-62114094D01*
X110696465Y-61722000D01*
X110958454Y-61329906D01*
X111133080Y-60452000D01*
X124324920Y-60452000D01*
X124499546Y-61329906D01*
X124761535Y-61722000D01*
X124499546Y-62114094D01*
X124324920Y-62992000D01*
X124499546Y-63869906D01*
X124761535Y-64262000D01*
X124499546Y-64654094D01*
X124324920Y-65532000D01*
X124499546Y-66409906D01*
X124761535Y-66802000D01*
X124499546Y-67194094D01*
X124324920Y-68072000D01*
X124499546Y-68949906D01*
X124996840Y-69694160D01*
X125741094Y-70191454D01*
X126397394Y-70322000D01*
X126840606Y-70322000D01*
X127496906Y-70191454D01*
X128241160Y-69694160D01*
X128376266Y-69491958D01*
X135360000Y-69491958D01*
X135360000Y-70208042D01*
X135634034Y-70869618D01*
X136140382Y-71375966D01*
X136801958Y-71650000D01*
X137518042Y-71650000D01*
X137759463Y-71550000D01*
X141640537Y-71550000D01*
X141881958Y-71650000D01*
X142598042Y-71650000D01*
X143259618Y-71375966D01*
X143765966Y-70869618D01*
X144040000Y-70208042D01*
X144040000Y-69491958D01*
X143765966Y-68830382D01*
X143259618Y-68324034D01*
X142598042Y-68050000D01*
X141881958Y-68050000D01*
X141640537Y-68150000D01*
X137759463Y-68150000D01*
X137518042Y-68050000D01*
X136801958Y-68050000D01*
X136140382Y-68324034D01*
X135634034Y-68830382D01*
X135360000Y-69491958D01*
X128376266Y-69491958D01*
X128738454Y-68949906D01*
X128913080Y-68072000D01*
X128738454Y-67194094D01*
X128476465Y-66802000D01*
X128738454Y-66409906D01*
X128913080Y-65532000D01*
X128745994Y-64692000D01*
X130105838Y-64692000D01*
X131222526Y-65808689D01*
X131317368Y-65950630D01*
X131459308Y-66045471D01*
X131879692Y-66326363D01*
X132542999Y-66458303D01*
X132710429Y-66424999D01*
X149102575Y-66424999D01*
X149270001Y-66458302D01*
X149437427Y-66424999D01*
X149437431Y-66424999D01*
X149638520Y-66385000D01*
X150081606Y-66385000D01*
X150737906Y-66254454D01*
X151482160Y-65757160D01*
X151979454Y-65012906D01*
X152154080Y-64135000D01*
X151979454Y-63257094D01*
X151717465Y-62865000D01*
X151979454Y-62472906D01*
X152154080Y-61595000D01*
X151979454Y-60717094D01*
X151717465Y-60325000D01*
X151979454Y-59932906D01*
X152154080Y-59055000D01*
X151979454Y-58177094D01*
X151717465Y-57785000D01*
X151979454Y-57392906D01*
X152154080Y-56515000D01*
X151979454Y-55637094D01*
X151717465Y-55245000D01*
X151979454Y-54852906D01*
X152154080Y-53975000D01*
X151979454Y-53097094D01*
X151482160Y-52352840D01*
X150737906Y-51855546D01*
X150081606Y-51725000D01*
X149638394Y-51725000D01*
X148982094Y-51855546D01*
X148237840Y-52352840D01*
X147740546Y-53097094D01*
X147565920Y-53975000D01*
X147740546Y-54852906D01*
X148002535Y-55245000D01*
X147740546Y-55637094D01*
X147565920Y-56515000D01*
X147740546Y-57392906D01*
X148002535Y-57785000D01*
X147740546Y-58177094D01*
X147565920Y-59055000D01*
X147740546Y-59932906D01*
X148002535Y-60325000D01*
X147740546Y-60717094D01*
X147565920Y-61595000D01*
X147740546Y-62472906D01*
X148002535Y-62865000D01*
X147895627Y-63024999D01*
X133247162Y-63024999D01*
X132130475Y-61908313D01*
X132035631Y-61766369D01*
X131473307Y-61390636D01*
X130977430Y-61292000D01*
X130977426Y-61292000D01*
X130810000Y-61258697D01*
X130642574Y-61292000D01*
X128745994Y-61292000D01*
X128913080Y-60452000D01*
X128738454Y-59574094D01*
X128241160Y-58829840D01*
X127496906Y-58332546D01*
X126840606Y-58202000D01*
X126397394Y-58202000D01*
X125741094Y-58332546D01*
X124996840Y-58829840D01*
X124499546Y-59574094D01*
X124324920Y-60452000D01*
X111133080Y-60452000D01*
X110958454Y-59574094D01*
X110461160Y-58829840D01*
X109716906Y-58332546D01*
X109060606Y-58202000D01*
X108617394Y-58202000D01*
X107961094Y-58332546D01*
X107216840Y-58829840D01*
X106719546Y-59574094D01*
X106544920Y-60452000D01*
X99297509Y-60452000D01*
X99449080Y-59690000D01*
X99274454Y-58812094D01*
X99012465Y-58420000D01*
X99274454Y-58027906D01*
X99449080Y-57150000D01*
X99274454Y-56272094D01*
X98777160Y-55527840D01*
X98032906Y-55030546D01*
X97376606Y-54900000D01*
X96933394Y-54900000D01*
X96277094Y-55030546D01*
X95532840Y-55527840D01*
X95035546Y-56272094D01*
X94860920Y-57150000D01*
X95035546Y-58027906D01*
X95297535Y-58420000D01*
X95035546Y-58812094D01*
X94860920Y-59690000D01*
X95035546Y-60567906D01*
X95121055Y-60695880D01*
X94659369Y-61004369D01*
X94564527Y-61146310D01*
X90356311Y-65354527D01*
X90214370Y-65449369D01*
X90119528Y-65591310D01*
X89838636Y-66011694D01*
X89706697Y-66675000D01*
X89740001Y-66842431D01*
X89740000Y-91010000D01*
X86634113Y-91010000D01*
X86299491Y-90675378D01*
X85417390Y-90310000D01*
X84462610Y-90310000D01*
X83580509Y-90675378D01*
X82905378Y-91350509D01*
X82540000Y-92232610D01*
X75135000Y-92232610D01*
X75135000Y-74930000D01*
X82795920Y-74930000D01*
X82970546Y-75807906D01*
X83232535Y-76200000D01*
X82970546Y-76592094D01*
X82795920Y-77470000D01*
X82970546Y-78347906D01*
X83232535Y-78740000D01*
X82970546Y-79132094D01*
X82795920Y-80010000D01*
X82970546Y-80887906D01*
X83232535Y-81280000D01*
X82970546Y-81672094D01*
X82795920Y-82550000D01*
X82970546Y-83427906D01*
X83467840Y-84172160D01*
X84212094Y-84669454D01*
X84868394Y-84800000D01*
X85311606Y-84800000D01*
X85967906Y-84669454D01*
X86712160Y-84172160D01*
X87209454Y-83427906D01*
X87384080Y-82550000D01*
X87209454Y-81672094D01*
X86947465Y-81280000D01*
X87209454Y-80887906D01*
X87384080Y-80010000D01*
X87209454Y-79132094D01*
X86947465Y-78740000D01*
X87209454Y-78347906D01*
X87384080Y-77470000D01*
X87209454Y-76592094D01*
X86947465Y-76200000D01*
X87209454Y-75807906D01*
X87384080Y-74930000D01*
X87209454Y-74052094D01*
X86712160Y-73307840D01*
X85967906Y-72810546D01*
X85311606Y-72680000D01*
X84868394Y-72680000D01*
X84212094Y-72810546D01*
X83467840Y-73307840D01*
X82970546Y-74052094D01*
X82795920Y-74930000D01*
X75135000Y-74930000D01*
X75135000Y-72016759D01*
X75440000Y-72077427D01*
X77040000Y-72077427D01*
X77586253Y-71968771D01*
X78049343Y-71659343D01*
X78358771Y-71196253D01*
X78467427Y-70650000D01*
X78467427Y-69050000D01*
X78358771Y-68503747D01*
X78049343Y-68040657D01*
X77586253Y-67731229D01*
X77040000Y-67622573D01*
X75440000Y-67622573D01*
X75135000Y-67683241D01*
X75135000Y-59690000D01*
X79620920Y-59690000D01*
X79795546Y-60567906D01*
X80057535Y-60960000D01*
X79795546Y-61352094D01*
X79620920Y-62230000D01*
X79795546Y-63107906D01*
X80292840Y-63852160D01*
X81037094Y-64349454D01*
X81693394Y-64480000D01*
X82136606Y-64480000D01*
X82792906Y-64349454D01*
X83537160Y-63852160D01*
X84034454Y-63107906D01*
X84209080Y-62230000D01*
X84034454Y-61352094D01*
X83772465Y-60960000D01*
X84034454Y-60567906D01*
X84209080Y-59690000D01*
X84034454Y-58812094D01*
X83970298Y-58716077D01*
X84083771Y-58546253D01*
X84192427Y-58000000D01*
X84192427Y-56300000D01*
X84083771Y-55753747D01*
X83774343Y-55290657D01*
X83311253Y-54981229D01*
X82765000Y-54872573D01*
X81065000Y-54872573D01*
X80518747Y-54981229D01*
X80055657Y-55290657D01*
X79746229Y-55753747D01*
X79637573Y-56300000D01*
X79637573Y-58000000D01*
X79746229Y-58546253D01*
X79859702Y-58716077D01*
X79795546Y-58812094D01*
X79620920Y-59690000D01*
X75135000Y-59690000D01*
X75135000Y-43053000D01*
X79620920Y-43053000D01*
X79795546Y-43930906D01*
X80057535Y-44323000D01*
X79795546Y-44715094D01*
X79620920Y-45593000D01*
X79795546Y-46470906D01*
X80057535Y-46863000D01*
X79795546Y-47255094D01*
X79620920Y-48133000D01*
X79795546Y-49010906D01*
X80292840Y-49755160D01*
X81037094Y-50252454D01*
X81693394Y-50383000D01*
X82136606Y-50383000D01*
X82792906Y-50252454D01*
X83537160Y-49755160D01*
X84034454Y-49010906D01*
X84209080Y-48133000D01*
X84034454Y-47255094D01*
X83772465Y-46863000D01*
X84034454Y-46470906D01*
X84209080Y-45593000D01*
X84034454Y-44715094D01*
X83772465Y-44323000D01*
X84034454Y-43930906D01*
X84209080Y-43053000D01*
X87240920Y-43053000D01*
X87415546Y-43930906D01*
X87677535Y-44323000D01*
X87415546Y-44715094D01*
X87240920Y-45593000D01*
X87415546Y-46470906D01*
X87677535Y-46863000D01*
X87415546Y-47255094D01*
X87240920Y-48133000D01*
X87415546Y-49010906D01*
X87912840Y-49755160D01*
X88657094Y-50252454D01*
X89313394Y-50383000D01*
X89756606Y-50383000D01*
X90412906Y-50252454D01*
X91157160Y-49755160D01*
X91654454Y-49010906D01*
X91829080Y-48133000D01*
X91654454Y-47255094D01*
X91392465Y-46863000D01*
X91654454Y-46470906D01*
X91829080Y-45593000D01*
X91654454Y-44715094D01*
X91392465Y-44323000D01*
X91654454Y-43930906D01*
X91829080Y-43053000D01*
X94860920Y-43053000D01*
X95035546Y-43930906D01*
X95297535Y-44323000D01*
X95035546Y-44715094D01*
X94860920Y-45593000D01*
X95035546Y-46470906D01*
X95297535Y-46863000D01*
X95035546Y-47255094D01*
X94860920Y-48133000D01*
X95035546Y-49010906D01*
X95532840Y-49755160D01*
X96277094Y-50252454D01*
X96933394Y-50383000D01*
X97376606Y-50383000D01*
X98032906Y-50252454D01*
X98777160Y-49755160D01*
X99274454Y-49010906D01*
X99449080Y-48133000D01*
X99373295Y-47752000D01*
X106544920Y-47752000D01*
X106719546Y-48629906D01*
X106981535Y-49022000D01*
X106719546Y-49414094D01*
X106544920Y-50292000D01*
X106719546Y-51169906D01*
X106981535Y-51562000D01*
X106719546Y-51954094D01*
X106544920Y-52832000D01*
X106719546Y-53709906D01*
X106981535Y-54102000D01*
X106719546Y-54494094D01*
X106544920Y-55372000D01*
X106719546Y-56249906D01*
X107216840Y-56994160D01*
X107961094Y-57491454D01*
X108617394Y-57622000D01*
X109060606Y-57622000D01*
X109716906Y-57491454D01*
X110461160Y-56994160D01*
X110958454Y-56249906D01*
X111133080Y-55372000D01*
X110958454Y-54494094D01*
X110696465Y-54102000D01*
X110958454Y-53709906D01*
X111133080Y-52832000D01*
X110958454Y-51954094D01*
X110696465Y-51562000D01*
X110958454Y-51169906D01*
X111133080Y-50292000D01*
X110958454Y-49414094D01*
X110696465Y-49022000D01*
X110958454Y-48629906D01*
X111133080Y-47752000D01*
X110958454Y-46874094D01*
X110461160Y-46129840D01*
X109716906Y-45632546D01*
X109060606Y-45502000D01*
X108617394Y-45502000D01*
X107961094Y-45632546D01*
X107216840Y-46129840D01*
X106719546Y-46874094D01*
X106544920Y-47752000D01*
X99373295Y-47752000D01*
X99274454Y-47255094D01*
X99012465Y-46863000D01*
X99274454Y-46470906D01*
X99449080Y-45593000D01*
X99274454Y-44715094D01*
X99012465Y-44323000D01*
X99274454Y-43930906D01*
X99449080Y-43053000D01*
X99274454Y-42175094D01*
X98777160Y-41430840D01*
X98032906Y-40933546D01*
X97376606Y-40803000D01*
X96933394Y-40803000D01*
X96277094Y-40933546D01*
X95532840Y-41430840D01*
X95035546Y-42175094D01*
X94860920Y-43053000D01*
X91829080Y-43053000D01*
X91654454Y-42175094D01*
X91157160Y-41430840D01*
X90412906Y-40933546D01*
X89756606Y-40803000D01*
X89313394Y-40803000D01*
X88657094Y-40933546D01*
X87912840Y-41430840D01*
X87415546Y-42175094D01*
X87240920Y-43053000D01*
X84209080Y-43053000D01*
X84034454Y-42175094D01*
X83537160Y-41430840D01*
X82792906Y-40933546D01*
X82136606Y-40803000D01*
X81693394Y-40803000D01*
X81037094Y-40933546D01*
X80292840Y-41430840D01*
X79795546Y-42175094D01*
X79620920Y-43053000D01*
X75135000Y-43053000D01*
X75135000Y-38996759D01*
X75440000Y-39057427D01*
X77040000Y-39057427D01*
X77586253Y-38948771D01*
X78049343Y-38639343D01*
X78358771Y-38176253D01*
X78467427Y-37630000D01*
X78467427Y-36030000D01*
X78358771Y-35483747D01*
X78070286Y-35052000D01*
X106544920Y-35052000D01*
X106719546Y-35929906D01*
X106981535Y-36322000D01*
X106719546Y-36714094D01*
X106544920Y-37592000D01*
X106719546Y-38469906D01*
X106981535Y-38862000D01*
X106719546Y-39254094D01*
X106544920Y-40132000D01*
X106719546Y-41009906D01*
X106981535Y-41402000D01*
X106719546Y-41794094D01*
X106544920Y-42672000D01*
X106719546Y-43549906D01*
X107216840Y-44294160D01*
X107961094Y-44791454D01*
X108617394Y-44922000D01*
X109060606Y-44922000D01*
X109716906Y-44791454D01*
X110461160Y-44294160D01*
X110958454Y-43549906D01*
X111133080Y-42672000D01*
X110958454Y-41794094D01*
X110696465Y-41402000D01*
X110958454Y-41009906D01*
X111133080Y-40132000D01*
X110958454Y-39254094D01*
X110696465Y-38862000D01*
X110958454Y-38469906D01*
X111133080Y-37592000D01*
X110958454Y-36714094D01*
X110696465Y-36322000D01*
X110958454Y-35929906D01*
X111133080Y-35052000D01*
X124324920Y-35052000D01*
X124499546Y-35929906D01*
X124761535Y-36322000D01*
X124499546Y-36714094D01*
X124324920Y-37592000D01*
X124499546Y-38469906D01*
X124761535Y-38862000D01*
X124499546Y-39254094D01*
X124324920Y-40132000D01*
X124499546Y-41009906D01*
X124761535Y-41402000D01*
X124499546Y-41794094D01*
X124324920Y-42672000D01*
X124499546Y-43549906D01*
X124563702Y-43645923D01*
X124450229Y-43815747D01*
X124341573Y-44362000D01*
X124341573Y-46062000D01*
X124450229Y-46608253D01*
X124563702Y-46778077D01*
X124499546Y-46874094D01*
X124324920Y-47752000D01*
X124499546Y-48629906D01*
X124761535Y-49022000D01*
X124499546Y-49414094D01*
X124324920Y-50292000D01*
X124499546Y-51169906D01*
X124761535Y-51562000D01*
X124499546Y-51954094D01*
X124324920Y-52832000D01*
X124499546Y-53709906D01*
X124761535Y-54102000D01*
X124499546Y-54494094D01*
X124324920Y-55372000D01*
X124499546Y-56249906D01*
X124996840Y-56994160D01*
X125741094Y-57491454D01*
X126397394Y-57622000D01*
X126840606Y-57622000D01*
X127496906Y-57491454D01*
X128241160Y-56994160D01*
X128738454Y-56249906D01*
X128913080Y-55372000D01*
X128745994Y-54532000D01*
X134102976Y-54532000D01*
X134435378Y-55334491D01*
X134770000Y-55669113D01*
X134770001Y-58780886D01*
X134435378Y-59115509D01*
X134070000Y-59997610D01*
X134070000Y-60952390D01*
X134435378Y-61834491D01*
X135110509Y-62509622D01*
X135992610Y-62875000D01*
X136947390Y-62875000D01*
X137829491Y-62509622D01*
X138504622Y-61834491D01*
X138870000Y-60952390D01*
X138870000Y-59997610D01*
X138504622Y-59115509D01*
X138170000Y-58780887D01*
X138170000Y-55669113D01*
X138504622Y-55334491D01*
X138870000Y-54452390D01*
X138870000Y-53497610D01*
X138504622Y-52615509D01*
X137829491Y-51940378D01*
X136947390Y-51575000D01*
X136505684Y-51575000D01*
X135990307Y-51230636D01*
X135494430Y-51132000D01*
X135494426Y-51132000D01*
X135327000Y-51098697D01*
X135159574Y-51132000D01*
X128745994Y-51132000D01*
X128913080Y-50292000D01*
X128738454Y-49414094D01*
X128476465Y-49022000D01*
X128738454Y-48629906D01*
X128913080Y-47752000D01*
X128808687Y-47227175D01*
X154845000Y-47227175D01*
X154845000Y-48022825D01*
X155149482Y-48757909D01*
X155712091Y-49320518D01*
X155832804Y-49370519D01*
X158070000Y-51607716D01*
X158070001Y-52843487D01*
X157900546Y-53097094D01*
X157725920Y-53975000D01*
X157900546Y-54852906D01*
X158162535Y-55245000D01*
X157900546Y-55637094D01*
X157725920Y-56515000D01*
X157900546Y-57392906D01*
X158162535Y-57785000D01*
X157900546Y-58177094D01*
X157725920Y-59055000D01*
X157900546Y-59932906D01*
X158162535Y-60325000D01*
X157900546Y-60717094D01*
X157725920Y-61595000D01*
X157900546Y-62472906D01*
X158162535Y-62865000D01*
X157900546Y-63257094D01*
X157725920Y-64135000D01*
X157900546Y-65012906D01*
X158397840Y-65757160D01*
X159142094Y-66254454D01*
X159798394Y-66385000D01*
X160241606Y-66385000D01*
X160897906Y-66254454D01*
X161642160Y-65757160D01*
X162139454Y-65012906D01*
X162314080Y-64135000D01*
X162139454Y-63257094D01*
X161877465Y-62865000D01*
X162139454Y-62472906D01*
X162314080Y-61595000D01*
X162139454Y-60717094D01*
X161877465Y-60325000D01*
X162139454Y-59932906D01*
X162314080Y-59055000D01*
X162139454Y-58177094D01*
X161877465Y-57785000D01*
X162139454Y-57392906D01*
X162314080Y-56515000D01*
X162139454Y-55637094D01*
X161877465Y-55245000D01*
X162139454Y-54852906D01*
X162314080Y-53975000D01*
X162139454Y-53097094D01*
X161970000Y-52843488D01*
X161970000Y-50992050D01*
X162008201Y-50799999D01*
X161970000Y-50607947D01*
X161970000Y-50607946D01*
X161856859Y-50039148D01*
X161425871Y-49394129D01*
X161263055Y-49285339D01*
X158590519Y-46612804D01*
X158540518Y-46492091D01*
X157977909Y-45929482D01*
X157242825Y-45625000D01*
X156447175Y-45625000D01*
X155712091Y-45929482D01*
X155149482Y-46492091D01*
X154845000Y-47227175D01*
X128808687Y-47227175D01*
X128745994Y-46912000D01*
X129880574Y-46912000D01*
X130048000Y-46945303D01*
X130215426Y-46912000D01*
X130215430Y-46912000D01*
X130711307Y-46813364D01*
X131273631Y-46437631D01*
X131368475Y-46295687D01*
X134054163Y-43610000D01*
X145980838Y-43610000D01*
X146634527Y-44263690D01*
X146729369Y-44405631D01*
X147291693Y-44781364D01*
X147787570Y-44880000D01*
X147787573Y-44880000D01*
X147910529Y-44904457D01*
X148000657Y-45039343D01*
X148463747Y-45348771D01*
X149010000Y-45457427D01*
X150710000Y-45457427D01*
X151256253Y-45348771D01*
X151719343Y-45039343D01*
X152028771Y-44576253D01*
X152137427Y-44030000D01*
X152137427Y-42330000D01*
X152028771Y-41783747D01*
X151915298Y-41613923D01*
X151979454Y-41517906D01*
X152154080Y-40640000D01*
X151979454Y-39762094D01*
X151717465Y-39370000D01*
X151979454Y-38977906D01*
X152154080Y-38100000D01*
X151979454Y-37222094D01*
X151717465Y-36830000D01*
X151979454Y-36437906D01*
X152154080Y-35560000D01*
X151979454Y-34682094D01*
X151482160Y-33937840D01*
X150737906Y-33440546D01*
X150081606Y-33310000D01*
X149638394Y-33310000D01*
X148982094Y-33440546D01*
X148237840Y-33937840D01*
X147740546Y-34682094D01*
X147565920Y-35560000D01*
X147740546Y-36437906D01*
X148002535Y-36830000D01*
X147740546Y-37222094D01*
X147565920Y-38100000D01*
X147740546Y-38977906D01*
X148002535Y-39370000D01*
X147740546Y-39762094D01*
X147598570Y-40475857D01*
X147348307Y-40308636D01*
X146852430Y-40210000D01*
X146852426Y-40210000D01*
X146685000Y-40176697D01*
X146517574Y-40210000D01*
X133517426Y-40210000D01*
X133349999Y-40176697D01*
X133182573Y-40210000D01*
X133182570Y-40210000D01*
X132686693Y-40308636D01*
X132124369Y-40684369D01*
X132029527Y-40826310D01*
X129343838Y-43512000D01*
X128745994Y-43512000D01*
X128913080Y-42672000D01*
X128738454Y-41794094D01*
X128476465Y-41402000D01*
X128738454Y-41009906D01*
X128913080Y-40132000D01*
X128738454Y-39254094D01*
X128476465Y-38862000D01*
X128738454Y-38469906D01*
X128913080Y-37592000D01*
X128761510Y-36830000D01*
X138675920Y-36830000D01*
X138850546Y-37707906D01*
X139347840Y-38452160D01*
X140092094Y-38949454D01*
X140748394Y-39080000D01*
X141191606Y-39080000D01*
X141847906Y-38949454D01*
X142592160Y-38452160D01*
X143089454Y-37707906D01*
X143264080Y-36830000D01*
X143089454Y-35952094D01*
X142592160Y-35207840D01*
X141847906Y-34710546D01*
X141191606Y-34580000D01*
X140748394Y-34580000D01*
X140092094Y-34710546D01*
X139347840Y-35207840D01*
X138850546Y-35952094D01*
X138675920Y-36830000D01*
X128761510Y-36830000D01*
X128738454Y-36714094D01*
X128476465Y-36322000D01*
X128738454Y-35929906D01*
X128913080Y-35052000D01*
X128738454Y-34174094D01*
X128241160Y-33429840D01*
X127496906Y-32932546D01*
X126840606Y-32802000D01*
X126397394Y-32802000D01*
X125741094Y-32932546D01*
X124996840Y-33429840D01*
X124499546Y-34174094D01*
X124324920Y-35052000D01*
X111133080Y-35052000D01*
X110958454Y-34174094D01*
X110461160Y-33429840D01*
X109716906Y-32932546D01*
X109060606Y-32802000D01*
X108617394Y-32802000D01*
X107961094Y-32932546D01*
X107216840Y-33429840D01*
X106719546Y-34174094D01*
X106544920Y-35052000D01*
X78070286Y-35052000D01*
X78049343Y-35020657D01*
X77586253Y-34711229D01*
X77040000Y-34602573D01*
X75440000Y-34602573D01*
X75135000Y-34663241D01*
X75135000Y-31117640D01*
X75770637Y-31753277D01*
X76873263Y-32210000D01*
X78066737Y-32210000D01*
X79169363Y-31753277D01*
X80013277Y-30909363D01*
X80454150Y-29845000D01*
X85335920Y-29845000D01*
X85510546Y-30722906D01*
X85772535Y-31115000D01*
X85510546Y-31507094D01*
X85335920Y-32385000D01*
X85510546Y-33262906D01*
X86007840Y-34007160D01*
X86752094Y-34504454D01*
X87408394Y-34635000D01*
X87851606Y-34635000D01*
X88507906Y-34504454D01*
X89252160Y-34007160D01*
X89749454Y-33262906D01*
X89924080Y-32385000D01*
X89749454Y-31507094D01*
X89487465Y-31115000D01*
X89749454Y-30722906D01*
X89924080Y-29845000D01*
X94860920Y-29845000D01*
X95035546Y-30722906D01*
X95297535Y-31115000D01*
X95035546Y-31507094D01*
X94860920Y-32385000D01*
X95035546Y-33262906D01*
X95532840Y-34007160D01*
X96277094Y-34504454D01*
X96933394Y-34635000D01*
X97376606Y-34635000D01*
X98032906Y-34504454D01*
X98777160Y-34007160D01*
X99274454Y-33262906D01*
X99449080Y-32385000D01*
X99274454Y-31507094D01*
X99012465Y-31115000D01*
X99274454Y-30722906D01*
X99449080Y-29845000D01*
X99274454Y-28967094D01*
X98777160Y-28222840D01*
X98032906Y-27725546D01*
X97376606Y-27595000D01*
X96933394Y-27595000D01*
X96277094Y-27725546D01*
X95532840Y-28222840D01*
X95035546Y-28967094D01*
X94860920Y-29845000D01*
X89924080Y-29845000D01*
X89749454Y-28967094D01*
X89252160Y-28222840D01*
X88507906Y-27725546D01*
X87851606Y-27595000D01*
X87408394Y-27595000D01*
X86752094Y-27725546D01*
X86007840Y-28222840D01*
X85510546Y-28967094D01*
X85335920Y-29845000D01*
X80454150Y-29845000D01*
X80470000Y-29806737D01*
X80470000Y-28613263D01*
X80013277Y-27510637D01*
X79377640Y-26875000D01*
X106655714Y-26875000D01*
X106544920Y-27432000D01*
X106544920Y-27432000D01*
G37*
X106544920Y-27432000D02*
X106719546Y-28309906D01*
X106981535Y-28702000D01*
X106719546Y-29094094D01*
X106544920Y-29972000D01*
X106719546Y-30849906D01*
X107216840Y-31594160D01*
X107961094Y-32091454D01*
X108617394Y-32222000D01*
X109060606Y-32222000D01*
X109716906Y-32091454D01*
X110461160Y-31594160D01*
X110958454Y-30849906D01*
X111133080Y-29972000D01*
X110958454Y-29094094D01*
X110696465Y-28702000D01*
X110958454Y-28309906D01*
X111133080Y-27432000D01*
X111022286Y-26875000D01*
X111411800Y-26875000D01*
X112033539Y-27185870D01*
X112200484Y-27297419D01*
X112436903Y-27344446D01*
X112669390Y-27408112D01*
X112690070Y-27405505D01*
X112658941Y-27562000D01*
X112837448Y-28459415D01*
X113345793Y-29220207D01*
X113545610Y-29353720D01*
X113278745Y-29753112D01*
X113111880Y-30592000D01*
X113278745Y-31430888D01*
X113753937Y-32142063D01*
X114465112Y-32617255D01*
X115092248Y-32742000D01*
X115515752Y-32742000D01*
X116142888Y-32617255D01*
X116854063Y-32142063D01*
X117329255Y-31430888D01*
X117496120Y-30592000D01*
X117329255Y-29753112D01*
X116854063Y-29041937D01*
X116803775Y-29008336D01*
X117170552Y-28459415D01*
X117349059Y-27562000D01*
X117313454Y-27383000D01*
X118144546Y-27383000D01*
X118108941Y-27562000D01*
X118287448Y-28459415D01*
X118654225Y-29008336D01*
X118603937Y-29041937D01*
X118128745Y-29753112D01*
X117961880Y-30592000D01*
X118128745Y-31430888D01*
X118603937Y-32142063D01*
X119315112Y-32617255D01*
X119942248Y-32742000D01*
X120365752Y-32742000D01*
X120992888Y-32617255D01*
X121704063Y-32142063D01*
X122179255Y-31430888D01*
X122346120Y-30592000D01*
X122179255Y-29753112D01*
X121912390Y-29353720D01*
X122112207Y-29220207D01*
X122620552Y-28459415D01*
X122799059Y-27562000D01*
X122756369Y-27347383D01*
X122767086Y-27344448D01*
X123003516Y-27297419D01*
X123170468Y-27185865D01*
X123792199Y-26875000D01*
X124435714Y-26875000D01*
X124324920Y-27432000D01*
X124499546Y-28309906D01*
X124761535Y-28702000D01*
X124499546Y-29094094D01*
X124324920Y-29972000D01*
X124499546Y-30849906D01*
X124996840Y-31594160D01*
X125741094Y-32091454D01*
X126397394Y-32222000D01*
X126840606Y-32222000D01*
X127496906Y-32091454D01*
X128241160Y-31594160D01*
X128738454Y-30849906D01*
X128913080Y-29972000D01*
X128738454Y-29094094D01*
X128476465Y-28702000D01*
X128738454Y-28309906D01*
X128913080Y-27432000D01*
X128802286Y-26875000D01*
X133155437Y-26875000D01*
X133136229Y-26903747D01*
X133027573Y-27450000D01*
X133027573Y-29050000D01*
X133136229Y-29596253D01*
X133445657Y-30059343D01*
X133908747Y-30368771D01*
X134455000Y-30477427D01*
X136055000Y-30477427D01*
X136601253Y-30368771D01*
X137064343Y-30059343D01*
X137373771Y-29596253D01*
X137482427Y-29050000D01*
X137482427Y-27450000D01*
X137373771Y-26903747D01*
X137354563Y-26875000D01*
X141783339Y-26875000D01*
X141740573Y-27090000D01*
X141740573Y-28790000D01*
X141849229Y-29336253D01*
X142158657Y-29799343D01*
X142621747Y-30108771D01*
X143168000Y-30217427D01*
X144868000Y-30217427D01*
X145414253Y-30108771D01*
X145584077Y-29995298D01*
X145680094Y-30059454D01*
X146336394Y-30190000D01*
X146779606Y-30190000D01*
X147435906Y-30059454D01*
X147828000Y-29797465D01*
X148220094Y-30059454D01*
X148876394Y-30190000D01*
X149319606Y-30190000D01*
X149975906Y-30059454D01*
X150720160Y-29562160D01*
X151217454Y-28817906D01*
X151392080Y-27940000D01*
X151217454Y-27062094D01*
X151092442Y-26875000D01*
X167002360Y-26875000D01*
X166366723Y-27510637D01*
X165910000Y-28613263D01*
X165910000Y-29806737D01*
X166366723Y-30909363D01*
X167210637Y-31753277D01*
X168313263Y-32210000D01*
X169506737Y-32210000D01*
X170609363Y-31753277D01*
X171245000Y-31117640D01*
X171245000Y-35959336D01*
X171167160Y-35842840D01*
X170422906Y-35345546D01*
X169766606Y-35215000D01*
X169323394Y-35215000D01*
X168667094Y-35345546D01*
X167922840Y-35842840D01*
X167425546Y-36587094D01*
X167250920Y-37465000D01*
X167425546Y-38342906D01*
X167922840Y-39087160D01*
X168667094Y-39584454D01*
X169323394Y-39715000D01*
X169766606Y-39715000D01*
X170422906Y-39584454D01*
X171167160Y-39087160D01*
X171245000Y-38970664D01*
X171245000Y-43119187D01*
X170941253Y-42916229D01*
X170395000Y-42807573D01*
X168695000Y-42807573D01*
X168148747Y-42916229D01*
X167685657Y-43225657D01*
X167376229Y-43688747D01*
X167267573Y-44235000D01*
X167267573Y-45935000D01*
X167376229Y-46481253D01*
X167685657Y-46944343D01*
X168148747Y-47253771D01*
X168695000Y-47362427D01*
X170395000Y-47362427D01*
X170941253Y-47253771D01*
X171245000Y-47050813D01*
X171245000Y-52009187D01*
X170941253Y-51806229D01*
X170395000Y-51697573D01*
X168695000Y-51697573D01*
X168148747Y-51806229D01*
X167685657Y-52115657D01*
X167376229Y-52578747D01*
X167267573Y-53125000D01*
X167267573Y-54825000D01*
X167376229Y-55371253D01*
X167489702Y-55541077D01*
X167425546Y-55637094D01*
X167250920Y-56515000D01*
X167425546Y-57392906D01*
X167687535Y-57785000D01*
X167425546Y-58177094D01*
X167250920Y-59055000D01*
X167425546Y-59932906D01*
X167922840Y-60677160D01*
X168667094Y-61174454D01*
X169323394Y-61305000D01*
X169766606Y-61305000D01*
X170422906Y-61174454D01*
X171167160Y-60677160D01*
X171245000Y-60560663D01*
X171245001Y-67332596D01*
X170891253Y-67096229D01*
X170345000Y-66987573D01*
X168745000Y-66987573D01*
X168198747Y-67096229D01*
X167735657Y-67405657D01*
X167426229Y-67868747D01*
X167317573Y-68415000D01*
X167317573Y-70015000D01*
X167426229Y-70561253D01*
X167735657Y-71024343D01*
X168198747Y-71333771D01*
X168745000Y-71442427D01*
X170345000Y-71442427D01*
X170891253Y-71333771D01*
X171245001Y-71097404D01*
X171245001Y-75235339D01*
X171030000Y-75192573D01*
X169330000Y-75192573D01*
X168783747Y-75301229D01*
X168613923Y-75414702D01*
X168517906Y-75350546D01*
X168218758Y-75291042D01*
X165344658Y-72416943D01*
X165235870Y-72254130D01*
X165073056Y-72145341D01*
X165073055Y-72145340D01*
X164590851Y-71823141D01*
X163830000Y-71671799D01*
X163829999Y-71671799D01*
X163678657Y-71701903D01*
X163268393Y-71783509D01*
X151883541Y-71783509D01*
X151691491Y-71745308D01*
X151499440Y-71783509D01*
X151499437Y-71783509D01*
X150930639Y-71896650D01*
X150285620Y-72327638D01*
X150176830Y-72490454D01*
X149251948Y-73415337D01*
X149089129Y-73524129D01*
X148658141Y-74169149D01*
X148545000Y-74737947D01*
X148545000Y-74737950D01*
X148506799Y-74930000D01*
X148545000Y-75122050D01*
X148545000Y-75328183D01*
X148245000Y-76052447D01*
X148245000Y-76947553D01*
X148587542Y-77774523D01*
X149220477Y-78407458D01*
X150047447Y-78750000D01*
X150942553Y-78750000D01*
X151335000Y-78587443D01*
X151335000Y-78670837D01*
X141535838Y-88470000D01*
X137381994Y-88470000D01*
X137549080Y-87630000D01*
X137374454Y-86752094D01*
X136877160Y-86007840D01*
X136132906Y-85510546D01*
X135476606Y-85380000D01*
X135033394Y-85380000D01*
X134377094Y-85510546D01*
X133632840Y-86007840D01*
X133135546Y-86752094D01*
X132960920Y-87630000D01*
X133128006Y-88470000D01*
X129761994Y-88470000D01*
X129929080Y-87630000D01*
X129754454Y-86752094D01*
X129257160Y-86007840D01*
X128512906Y-85510546D01*
X127856606Y-85380000D01*
X127413394Y-85380000D01*
X126757094Y-85510546D01*
X126012840Y-86007840D01*
X125515546Y-86752094D01*
X125488289Y-86889126D01*
X118160475Y-79561313D01*
X118065631Y-79419369D01*
X117752289Y-79210000D01*
X132987573Y-79210000D01*
X132987573Y-80810000D01*
X133096229Y-81356253D01*
X133405657Y-81819343D01*
X133868747Y-82128771D01*
X134415000Y-82237427D01*
X136015000Y-82237427D01*
X136561253Y-82128771D01*
X137024343Y-81819343D01*
X137333771Y-81356253D01*
X137442427Y-80810000D01*
X137442427Y-79210000D01*
X137333771Y-78663747D01*
X137024343Y-78200657D01*
X136561253Y-77891229D01*
X136015000Y-77782573D01*
X134415000Y-77782573D01*
X133868747Y-77891229D01*
X133405657Y-78200657D01*
X133096229Y-78663747D01*
X132987573Y-79210000D01*
X117752289Y-79210000D01*
X117503307Y-79043636D01*
X117007430Y-78945000D01*
X117007426Y-78945000D01*
X116840000Y-78911697D01*
X116672574Y-78945000D01*
X111829163Y-78945000D01*
X110539000Y-77654838D01*
X110539000Y-77197664D01*
X110958454Y-76569906D01*
X111133080Y-75692000D01*
X111087331Y-75462000D01*
X112894920Y-75462000D01*
X113069546Y-76339906D01*
X113566840Y-77084160D01*
X114311094Y-77581454D01*
X114967394Y-77712000D01*
X115410606Y-77712000D01*
X116066906Y-77581454D01*
X116811160Y-77084160D01*
X117308454Y-76339906D01*
X117483080Y-75462000D01*
X117974920Y-75462000D01*
X118149546Y-76339906D01*
X118646840Y-77084160D01*
X119391094Y-77581454D01*
X120047394Y-77712000D01*
X120490606Y-77712000D01*
X121146906Y-77581454D01*
X121891160Y-77084160D01*
X122388454Y-76339906D01*
X122563080Y-75462000D01*
X122388454Y-74584094D01*
X121891160Y-73839840D01*
X121146906Y-73342546D01*
X120490606Y-73212000D01*
X120047394Y-73212000D01*
X119391094Y-73342546D01*
X118646840Y-73839840D01*
X118149546Y-74584094D01*
X117974920Y-75462000D01*
X117483080Y-75462000D01*
X117308454Y-74584094D01*
X116811160Y-73839840D01*
X116066906Y-73342546D01*
X115410606Y-73212000D01*
X114967394Y-73212000D01*
X114311094Y-73342546D01*
X113566840Y-73839840D01*
X113069546Y-74584094D01*
X112894920Y-75462000D01*
X111087331Y-75462000D01*
X110958454Y-74814094D01*
X110696465Y-74422000D01*
X110958454Y-74029906D01*
X111133080Y-73152000D01*
X124324920Y-73152000D01*
X124499546Y-74029906D01*
X124761535Y-74422000D01*
X124499546Y-74814094D01*
X124324920Y-75692000D01*
X124499546Y-76569906D01*
X124996840Y-77314160D01*
X125741094Y-77811454D01*
X126397394Y-77942000D01*
X126840606Y-77942000D01*
X127496906Y-77811454D01*
X128241160Y-77314160D01*
X128738454Y-76569906D01*
X128913080Y-75692000D01*
X128738454Y-74814094D01*
X128476465Y-74422000D01*
X128738454Y-74029906D01*
X128913080Y-73152000D01*
X128738454Y-72274094D01*
X128241160Y-71529840D01*
X127496906Y-71032546D01*
X126840606Y-70902000D01*
X126397394Y-70902000D01*
X125741094Y-71032546D01*
X124996840Y-71529840D01*
X124499546Y-72274094D01*
X124324920Y-73152000D01*
X111133080Y-73152000D01*
X110958454Y-72274094D01*
X110461160Y-71529840D01*
X109716906Y-71032546D01*
X109060606Y-70902000D01*
X108617394Y-70902000D01*
X107961094Y-71032546D01*
X107338404Y-71448613D01*
X107188000Y-71418696D01*
X107020570Y-71452000D01*
X106524693Y-71550636D01*
X105962369Y-71926369D01*
X105867527Y-72068310D01*
X104326311Y-73609527D01*
X104184370Y-73704369D01*
X104089528Y-73846310D01*
X103808636Y-74266694D01*
X103676697Y-74930000D01*
X103710001Y-75097431D01*
X103710000Y-78572573D01*
X103676697Y-78740000D01*
X103710000Y-78907426D01*
X103710000Y-78907429D01*
X103808636Y-79403306D01*
X104184369Y-79965631D01*
X104326313Y-80060475D01*
X107899527Y-83633690D01*
X107994369Y-83775631D01*
X108136309Y-83870472D01*
X108556693Y-84151364D01*
X109220000Y-84283304D01*
X109387430Y-84250000D01*
X115500838Y-84250000D01*
X125044527Y-93793690D01*
X125139369Y-93935631D01*
X125281309Y-94030472D01*
X125701693Y-94311364D01*
X126100413Y-94390674D01*
X126757094Y-94829454D01*
X127413394Y-94960000D01*
X127856606Y-94960000D01*
X128512906Y-94829454D01*
X129140664Y-94410000D01*
X133749336Y-94410000D01*
X134377094Y-94829454D01*
X135033394Y-94960000D01*
X135476606Y-94960000D01*
X136132906Y-94829454D01*
X136760664Y-94410000D01*
X142072574Y-94410000D01*
X142240000Y-94443303D01*
X142407426Y-94410000D01*
X142407430Y-94410000D01*
X142903307Y-94311364D01*
X143465631Y-93935631D01*
X143560475Y-93793687D01*
X156658691Y-80695472D01*
X156800631Y-80600631D01*
X157176364Y-80038307D01*
X157275000Y-79542430D01*
X157275000Y-79542429D01*
X157308304Y-79375000D01*
X157275000Y-79207570D01*
X157275000Y-77981981D01*
X157482458Y-77774523D01*
X157825000Y-76947553D01*
X157825000Y-76052447D01*
X157672181Y-75683509D01*
X163095794Y-75683509D01*
X165461042Y-78048759D01*
X165520546Y-78347906D01*
X166017840Y-79092160D01*
X166762094Y-79589454D01*
X167418394Y-79720000D01*
X167861606Y-79720000D01*
X168517906Y-79589454D01*
X168613923Y-79525298D01*
X168783747Y-79638771D01*
X169330000Y-79747427D01*
X171030000Y-79747427D01*
X171245001Y-79704661D01*
X171245001Y-95882361D01*
X170609363Y-95246723D01*
X169506737Y-94790000D01*
X168313263Y-94790000D01*
X167210637Y-95246723D01*
X166366723Y-96090637D01*
X165910000Y-97193263D01*
X165910000Y-98386737D01*
X166366723Y-99489363D01*
X167002360Y-100125000D01*
X79377640Y-100125000D01*
X80013277Y-99489363D01*
X80470000Y-98386737D01*
X80470000Y-97193263D01*
X80013277Y-96090637D01*
X79169363Y-95246723D01*
X78066737Y-94790000D01*
X76873263Y-94790000D01*
X75770637Y-95246723D01*
X75135000Y-95882360D01*
X75135000Y-92232610D01*
X82540000Y-92232610D01*
X82540000Y-93187390D01*
X82905378Y-94069491D01*
X83580509Y-94744622D01*
X84462610Y-95110000D01*
X85417390Y-95110000D01*
X86299491Y-94744622D01*
X86634113Y-94410000D01*
X89745887Y-94410000D01*
X90080509Y-94744622D01*
X90962610Y-95110000D01*
X91917390Y-95110000D01*
X92799491Y-94744622D01*
X93474622Y-94069491D01*
X93840000Y-93187390D01*
X93840000Y-92232610D01*
X93474622Y-91350509D01*
X93140000Y-91015887D01*
X93140000Y-89117423D01*
X93389369Y-89490631D01*
X93531313Y-89585475D01*
X97153325Y-93207487D01*
X97510378Y-94069491D01*
X98185509Y-94744622D01*
X99067610Y-95110000D01*
X100022390Y-95110000D01*
X100904491Y-94744622D01*
X101239113Y-94410000D01*
X104350887Y-94410000D01*
X104685509Y-94744622D01*
X105567610Y-95110000D01*
X106522390Y-95110000D01*
X107404491Y-94744622D01*
X108079622Y-94069491D01*
X108445000Y-93187390D01*
X108445000Y-92232610D01*
X108116691Y-91440000D01*
X110735920Y-91440000D01*
X110910546Y-92317906D01*
X111407840Y-93062160D01*
X112152094Y-93559454D01*
X112808394Y-93690000D01*
X113251606Y-93690000D01*
X113907906Y-93559454D01*
X114300000Y-93297465D01*
X114692094Y-93559454D01*
X115348394Y-93690000D01*
X115791606Y-93690000D01*
X116447906Y-93559454D01*
X116840000Y-93297465D01*
X117232094Y-93559454D01*
X117888394Y-93690000D01*
X118331606Y-93690000D01*
X118987906Y-93559454D01*
X119732160Y-93062160D01*
X120229454Y-92317906D01*
X120404080Y-91440000D01*
X120229454Y-90562094D01*
X119732160Y-89817840D01*
X118987906Y-89320546D01*
X118331606Y-89190000D01*
X117888394Y-89190000D01*
X117232094Y-89320546D01*
X116840000Y-89582535D01*
X116447906Y-89320546D01*
X115791606Y-89190000D01*
X115348394Y-89190000D01*
X114692094Y-89320546D01*
X114300000Y-89582535D01*
X113907906Y-89320546D01*
X113251606Y-89190000D01*
X112808394Y-89190000D01*
X112152094Y-89320546D01*
X111407840Y-89817840D01*
X110910546Y-90562094D01*
X110735920Y-91440000D01*
X108116691Y-91440000D01*
X108079622Y-91350509D01*
X107404491Y-90675378D01*
X106522390Y-90310000D01*
X105567610Y-90310000D01*
X104685509Y-90675378D01*
X104350887Y-91010000D01*
X101239113Y-91010000D01*
X100904491Y-90675378D01*
X100457842Y-90490370D01*
X100208307Y-90323636D01*
X99545000Y-90191696D01*
X99045263Y-90291100D01*
X96315000Y-87560838D01*
X96315000Y-84676994D01*
X96933394Y-84800000D01*
X97376606Y-84800000D01*
X98032906Y-84669454D01*
X98777160Y-84172160D01*
X99274454Y-83427906D01*
X99449080Y-82550000D01*
X99274454Y-81672094D01*
X99012465Y-81280000D01*
X99274454Y-80887906D01*
X99449080Y-80010000D01*
X99274454Y-79132094D01*
X99012465Y-78740000D01*
X99274454Y-78347906D01*
X99449080Y-77470000D01*
X99274454Y-76592094D01*
X99012465Y-76200000D01*
X99274454Y-75807906D01*
X99449080Y-74930000D01*
X99274454Y-74052094D01*
X99012465Y-73660000D01*
X99274454Y-73267906D01*
X99449080Y-72390000D01*
X99274454Y-71512094D01*
X98777160Y-70767840D01*
X98032906Y-70270546D01*
X97376606Y-70140000D01*
X96933394Y-70140000D01*
X96315000Y-70263006D01*
X96315000Y-66896994D01*
X96933394Y-67020000D01*
X97376606Y-67020000D01*
X98032906Y-66889454D01*
X98777160Y-66392160D01*
X99274454Y-65647906D01*
X99449080Y-64770000D01*
X99274454Y-63892094D01*
X99012465Y-63500000D01*
X99274454Y-63107906D01*
X99449080Y-62230000D01*
X99274454Y-61352094D01*
X99012465Y-60960000D01*
X99274454Y-60567906D01*
X99297509Y-60452000D01*
X106544920Y-60452000D01*
X106719546Y-61329906D01*
X106981535Y-61722000D01*
X106719546Y-62114094D01*
X106544920Y-62992000D01*
X106719546Y-63869906D01*
X106981535Y-64262000D01*
X106719546Y-64654094D01*
X106544920Y-65532000D01*
X106719546Y-66409906D01*
X106981535Y-66802000D01*
X106719546Y-67194094D01*
X106544920Y-68072000D01*
X106719546Y-68949906D01*
X107216840Y-69694160D01*
X107961094Y-70191454D01*
X108617394Y-70322000D01*
X109060606Y-70322000D01*
X109716906Y-70191454D01*
X110461160Y-69694160D01*
X110958454Y-68949906D01*
X111133080Y-68072000D01*
X110958454Y-67194094D01*
X110696465Y-66802000D01*
X110958454Y-66409906D01*
X111133080Y-65532000D01*
X110958454Y-64654094D01*
X110696465Y-64262000D01*
X110958454Y-63869906D01*
X111133080Y-62992000D01*
X110958454Y-62114094D01*
X110696465Y-61722000D01*
X110958454Y-61329906D01*
X111133080Y-60452000D01*
X124324920Y-60452000D01*
X124499546Y-61329906D01*
X124761535Y-61722000D01*
X124499546Y-62114094D01*
X124324920Y-62992000D01*
X124499546Y-63869906D01*
X124761535Y-64262000D01*
X124499546Y-64654094D01*
X124324920Y-65532000D01*
X124499546Y-66409906D01*
X124761535Y-66802000D01*
X124499546Y-67194094D01*
X124324920Y-68072000D01*
X124499546Y-68949906D01*
X124996840Y-69694160D01*
X125741094Y-70191454D01*
X126397394Y-70322000D01*
X126840606Y-70322000D01*
X127496906Y-70191454D01*
X128241160Y-69694160D01*
X128376266Y-69491958D01*
X135360000Y-69491958D01*
X135360000Y-70208042D01*
X135634034Y-70869618D01*
X136140382Y-71375966D01*
X136801958Y-71650000D01*
X137518042Y-71650000D01*
X137759463Y-71550000D01*
X141640537Y-71550000D01*
X141881958Y-71650000D01*
X142598042Y-71650000D01*
X143259618Y-71375966D01*
X143765966Y-70869618D01*
X144040000Y-70208042D01*
X144040000Y-69491958D01*
X143765966Y-68830382D01*
X143259618Y-68324034D01*
X142598042Y-68050000D01*
X141881958Y-68050000D01*
X141640537Y-68150000D01*
X137759463Y-68150000D01*
X137518042Y-68050000D01*
X136801958Y-68050000D01*
X136140382Y-68324034D01*
X135634034Y-68830382D01*
X135360000Y-69491958D01*
X128376266Y-69491958D01*
X128738454Y-68949906D01*
X128913080Y-68072000D01*
X128738454Y-67194094D01*
X128476465Y-66802000D01*
X128738454Y-66409906D01*
X128913080Y-65532000D01*
X128745994Y-64692000D01*
X130105838Y-64692000D01*
X131222526Y-65808689D01*
X131317368Y-65950630D01*
X131459308Y-66045471D01*
X131879692Y-66326363D01*
X132542999Y-66458303D01*
X132710429Y-66424999D01*
X149102575Y-66424999D01*
X149270001Y-66458302D01*
X149437427Y-66424999D01*
X149437431Y-66424999D01*
X149638520Y-66385000D01*
X150081606Y-66385000D01*
X150737906Y-66254454D01*
X151482160Y-65757160D01*
X151979454Y-65012906D01*
X152154080Y-64135000D01*
X151979454Y-63257094D01*
X151717465Y-62865000D01*
X151979454Y-62472906D01*
X152154080Y-61595000D01*
X151979454Y-60717094D01*
X151717465Y-60325000D01*
X151979454Y-59932906D01*
X152154080Y-59055000D01*
X151979454Y-58177094D01*
X151717465Y-57785000D01*
X151979454Y-57392906D01*
X152154080Y-56515000D01*
X151979454Y-55637094D01*
X151717465Y-55245000D01*
X151979454Y-54852906D01*
X152154080Y-53975000D01*
X151979454Y-53097094D01*
X151482160Y-52352840D01*
X150737906Y-51855546D01*
X150081606Y-51725000D01*
X149638394Y-51725000D01*
X148982094Y-51855546D01*
X148237840Y-52352840D01*
X147740546Y-53097094D01*
X147565920Y-53975000D01*
X147740546Y-54852906D01*
X148002535Y-55245000D01*
X147740546Y-55637094D01*
X147565920Y-56515000D01*
X147740546Y-57392906D01*
X148002535Y-57785000D01*
X147740546Y-58177094D01*
X147565920Y-59055000D01*
X147740546Y-59932906D01*
X148002535Y-60325000D01*
X147740546Y-60717094D01*
X147565920Y-61595000D01*
X147740546Y-62472906D01*
X148002535Y-62865000D01*
X147895627Y-63024999D01*
X133247162Y-63024999D01*
X132130475Y-61908313D01*
X132035631Y-61766369D01*
X131473307Y-61390636D01*
X130977430Y-61292000D01*
X130977426Y-61292000D01*
X130810000Y-61258697D01*
X130642574Y-61292000D01*
X128745994Y-61292000D01*
X128913080Y-60452000D01*
X128738454Y-59574094D01*
X128241160Y-58829840D01*
X127496906Y-58332546D01*
X126840606Y-58202000D01*
X126397394Y-58202000D01*
X125741094Y-58332546D01*
X124996840Y-58829840D01*
X124499546Y-59574094D01*
X124324920Y-60452000D01*
X111133080Y-60452000D01*
X110958454Y-59574094D01*
X110461160Y-58829840D01*
X109716906Y-58332546D01*
X109060606Y-58202000D01*
X108617394Y-58202000D01*
X107961094Y-58332546D01*
X107216840Y-58829840D01*
X106719546Y-59574094D01*
X106544920Y-60452000D01*
X99297509Y-60452000D01*
X99449080Y-59690000D01*
X99274454Y-58812094D01*
X99012465Y-58420000D01*
X99274454Y-58027906D01*
X99449080Y-57150000D01*
X99274454Y-56272094D01*
X98777160Y-55527840D01*
X98032906Y-55030546D01*
X97376606Y-54900000D01*
X96933394Y-54900000D01*
X96277094Y-55030546D01*
X95532840Y-55527840D01*
X95035546Y-56272094D01*
X94860920Y-57150000D01*
X95035546Y-58027906D01*
X95297535Y-58420000D01*
X95035546Y-58812094D01*
X94860920Y-59690000D01*
X95035546Y-60567906D01*
X95121055Y-60695880D01*
X94659369Y-61004369D01*
X94564527Y-61146310D01*
X90356311Y-65354527D01*
X90214370Y-65449369D01*
X90119528Y-65591310D01*
X89838636Y-66011694D01*
X89706697Y-66675000D01*
X89740001Y-66842431D01*
X89740000Y-91010000D01*
X86634113Y-91010000D01*
X86299491Y-90675378D01*
X85417390Y-90310000D01*
X84462610Y-90310000D01*
X83580509Y-90675378D01*
X82905378Y-91350509D01*
X82540000Y-92232610D01*
X75135000Y-92232610D01*
X75135000Y-74930000D01*
X82795920Y-74930000D01*
X82970546Y-75807906D01*
X83232535Y-76200000D01*
X82970546Y-76592094D01*
X82795920Y-77470000D01*
X82970546Y-78347906D01*
X83232535Y-78740000D01*
X82970546Y-79132094D01*
X82795920Y-80010000D01*
X82970546Y-80887906D01*
X83232535Y-81280000D01*
X82970546Y-81672094D01*
X82795920Y-82550000D01*
X82970546Y-83427906D01*
X83467840Y-84172160D01*
X84212094Y-84669454D01*
X84868394Y-84800000D01*
X85311606Y-84800000D01*
X85967906Y-84669454D01*
X86712160Y-84172160D01*
X87209454Y-83427906D01*
X87384080Y-82550000D01*
X87209454Y-81672094D01*
X86947465Y-81280000D01*
X87209454Y-80887906D01*
X87384080Y-80010000D01*
X87209454Y-79132094D01*
X86947465Y-78740000D01*
X87209454Y-78347906D01*
X87384080Y-77470000D01*
X87209454Y-76592094D01*
X86947465Y-76200000D01*
X87209454Y-75807906D01*
X87384080Y-74930000D01*
X87209454Y-74052094D01*
X86712160Y-73307840D01*
X85967906Y-72810546D01*
X85311606Y-72680000D01*
X84868394Y-72680000D01*
X84212094Y-72810546D01*
X83467840Y-73307840D01*
X82970546Y-74052094D01*
X82795920Y-74930000D01*
X75135000Y-74930000D01*
X75135000Y-72016759D01*
X75440000Y-72077427D01*
X77040000Y-72077427D01*
X77586253Y-71968771D01*
X78049343Y-71659343D01*
X78358771Y-71196253D01*
X78467427Y-70650000D01*
X78467427Y-69050000D01*
X78358771Y-68503747D01*
X78049343Y-68040657D01*
X77586253Y-67731229D01*
X77040000Y-67622573D01*
X75440000Y-67622573D01*
X75135000Y-67683241D01*
X75135000Y-59690000D01*
X79620920Y-59690000D01*
X79795546Y-60567906D01*
X80057535Y-60960000D01*
X79795546Y-61352094D01*
X79620920Y-62230000D01*
X79795546Y-63107906D01*
X80292840Y-63852160D01*
X81037094Y-64349454D01*
X81693394Y-64480000D01*
X82136606Y-64480000D01*
X82792906Y-64349454D01*
X83537160Y-63852160D01*
X84034454Y-63107906D01*
X84209080Y-62230000D01*
X84034454Y-61352094D01*
X83772465Y-60960000D01*
X84034454Y-60567906D01*
X84209080Y-59690000D01*
X84034454Y-58812094D01*
X83970298Y-58716077D01*
X84083771Y-58546253D01*
X84192427Y-58000000D01*
X84192427Y-56300000D01*
X84083771Y-55753747D01*
X83774343Y-55290657D01*
X83311253Y-54981229D01*
X82765000Y-54872573D01*
X81065000Y-54872573D01*
X80518747Y-54981229D01*
X80055657Y-55290657D01*
X79746229Y-55753747D01*
X79637573Y-56300000D01*
X79637573Y-58000000D01*
X79746229Y-58546253D01*
X79859702Y-58716077D01*
X79795546Y-58812094D01*
X79620920Y-59690000D01*
X75135000Y-59690000D01*
X75135000Y-43053000D01*
X79620920Y-43053000D01*
X79795546Y-43930906D01*
X80057535Y-44323000D01*
X79795546Y-44715094D01*
X79620920Y-45593000D01*
X79795546Y-46470906D01*
X80057535Y-46863000D01*
X79795546Y-47255094D01*
X79620920Y-48133000D01*
X79795546Y-49010906D01*
X80292840Y-49755160D01*
X81037094Y-50252454D01*
X81693394Y-50383000D01*
X82136606Y-50383000D01*
X82792906Y-50252454D01*
X83537160Y-49755160D01*
X84034454Y-49010906D01*
X84209080Y-48133000D01*
X84034454Y-47255094D01*
X83772465Y-46863000D01*
X84034454Y-46470906D01*
X84209080Y-45593000D01*
X84034454Y-44715094D01*
X83772465Y-44323000D01*
X84034454Y-43930906D01*
X84209080Y-43053000D01*
X87240920Y-43053000D01*
X87415546Y-43930906D01*
X87677535Y-44323000D01*
X87415546Y-44715094D01*
X87240920Y-45593000D01*
X87415546Y-46470906D01*
X87677535Y-46863000D01*
X87415546Y-47255094D01*
X87240920Y-48133000D01*
X87415546Y-49010906D01*
X87912840Y-49755160D01*
X88657094Y-50252454D01*
X89313394Y-50383000D01*
X89756606Y-50383000D01*
X90412906Y-50252454D01*
X91157160Y-49755160D01*
X91654454Y-49010906D01*
X91829080Y-48133000D01*
X91654454Y-47255094D01*
X91392465Y-46863000D01*
X91654454Y-46470906D01*
X91829080Y-45593000D01*
X91654454Y-44715094D01*
X91392465Y-44323000D01*
X91654454Y-43930906D01*
X91829080Y-43053000D01*
X94860920Y-43053000D01*
X95035546Y-43930906D01*
X95297535Y-44323000D01*
X95035546Y-44715094D01*
X94860920Y-45593000D01*
X95035546Y-46470906D01*
X95297535Y-46863000D01*
X95035546Y-47255094D01*
X94860920Y-48133000D01*
X95035546Y-49010906D01*
X95532840Y-49755160D01*
X96277094Y-50252454D01*
X96933394Y-50383000D01*
X97376606Y-50383000D01*
X98032906Y-50252454D01*
X98777160Y-49755160D01*
X99274454Y-49010906D01*
X99449080Y-48133000D01*
X99373295Y-47752000D01*
X106544920Y-47752000D01*
X106719546Y-48629906D01*
X106981535Y-49022000D01*
X106719546Y-49414094D01*
X106544920Y-50292000D01*
X106719546Y-51169906D01*
X106981535Y-51562000D01*
X106719546Y-51954094D01*
X106544920Y-52832000D01*
X106719546Y-53709906D01*
X106981535Y-54102000D01*
X106719546Y-54494094D01*
X106544920Y-55372000D01*
X106719546Y-56249906D01*
X107216840Y-56994160D01*
X107961094Y-57491454D01*
X108617394Y-57622000D01*
X109060606Y-57622000D01*
X109716906Y-57491454D01*
X110461160Y-56994160D01*
X110958454Y-56249906D01*
X111133080Y-55372000D01*
X110958454Y-54494094D01*
X110696465Y-54102000D01*
X110958454Y-53709906D01*
X111133080Y-52832000D01*
X110958454Y-51954094D01*
X110696465Y-51562000D01*
X110958454Y-51169906D01*
X111133080Y-50292000D01*
X110958454Y-49414094D01*
X110696465Y-49022000D01*
X110958454Y-48629906D01*
X111133080Y-47752000D01*
X110958454Y-46874094D01*
X110461160Y-46129840D01*
X109716906Y-45632546D01*
X109060606Y-45502000D01*
X108617394Y-45502000D01*
X107961094Y-45632546D01*
X107216840Y-46129840D01*
X106719546Y-46874094D01*
X106544920Y-47752000D01*
X99373295Y-47752000D01*
X99274454Y-47255094D01*
X99012465Y-46863000D01*
X99274454Y-46470906D01*
X99449080Y-45593000D01*
X99274454Y-44715094D01*
X99012465Y-44323000D01*
X99274454Y-43930906D01*
X99449080Y-43053000D01*
X99274454Y-42175094D01*
X98777160Y-41430840D01*
X98032906Y-40933546D01*
X97376606Y-40803000D01*
X96933394Y-40803000D01*
X96277094Y-40933546D01*
X95532840Y-41430840D01*
X95035546Y-42175094D01*
X94860920Y-43053000D01*
X91829080Y-43053000D01*
X91654454Y-42175094D01*
X91157160Y-41430840D01*
X90412906Y-40933546D01*
X89756606Y-40803000D01*
X89313394Y-40803000D01*
X88657094Y-40933546D01*
X87912840Y-41430840D01*
X87415546Y-42175094D01*
X87240920Y-43053000D01*
X84209080Y-43053000D01*
X84034454Y-42175094D01*
X83537160Y-41430840D01*
X82792906Y-40933546D01*
X82136606Y-40803000D01*
X81693394Y-40803000D01*
X81037094Y-40933546D01*
X80292840Y-41430840D01*
X79795546Y-42175094D01*
X79620920Y-43053000D01*
X75135000Y-43053000D01*
X75135000Y-38996759D01*
X75440000Y-39057427D01*
X77040000Y-39057427D01*
X77586253Y-38948771D01*
X78049343Y-38639343D01*
X78358771Y-38176253D01*
X78467427Y-37630000D01*
X78467427Y-36030000D01*
X78358771Y-35483747D01*
X78070286Y-35052000D01*
X106544920Y-35052000D01*
X106719546Y-35929906D01*
X106981535Y-36322000D01*
X106719546Y-36714094D01*
X106544920Y-37592000D01*
X106719546Y-38469906D01*
X106981535Y-38862000D01*
X106719546Y-39254094D01*
X106544920Y-40132000D01*
X106719546Y-41009906D01*
X106981535Y-41402000D01*
X106719546Y-41794094D01*
X106544920Y-42672000D01*
X106719546Y-43549906D01*
X107216840Y-44294160D01*
X107961094Y-44791454D01*
X108617394Y-44922000D01*
X109060606Y-44922000D01*
X109716906Y-44791454D01*
X110461160Y-44294160D01*
X110958454Y-43549906D01*
X111133080Y-42672000D01*
X110958454Y-41794094D01*
X110696465Y-41402000D01*
X110958454Y-41009906D01*
X111133080Y-40132000D01*
X110958454Y-39254094D01*
X110696465Y-38862000D01*
X110958454Y-38469906D01*
X111133080Y-37592000D01*
X110958454Y-36714094D01*
X110696465Y-36322000D01*
X110958454Y-35929906D01*
X111133080Y-35052000D01*
X124324920Y-35052000D01*
X124499546Y-35929906D01*
X124761535Y-36322000D01*
X124499546Y-36714094D01*
X124324920Y-37592000D01*
X124499546Y-38469906D01*
X124761535Y-38862000D01*
X124499546Y-39254094D01*
X124324920Y-40132000D01*
X124499546Y-41009906D01*
X124761535Y-41402000D01*
X124499546Y-41794094D01*
X124324920Y-42672000D01*
X124499546Y-43549906D01*
X124563702Y-43645923D01*
X124450229Y-43815747D01*
X124341573Y-44362000D01*
X124341573Y-46062000D01*
X124450229Y-46608253D01*
X124563702Y-46778077D01*
X124499546Y-46874094D01*
X124324920Y-47752000D01*
X124499546Y-48629906D01*
X124761535Y-49022000D01*
X124499546Y-49414094D01*
X124324920Y-50292000D01*
X124499546Y-51169906D01*
X124761535Y-51562000D01*
X124499546Y-51954094D01*
X124324920Y-52832000D01*
X124499546Y-53709906D01*
X124761535Y-54102000D01*
X124499546Y-54494094D01*
X124324920Y-55372000D01*
X124499546Y-56249906D01*
X124996840Y-56994160D01*
X125741094Y-57491454D01*
X126397394Y-57622000D01*
X126840606Y-57622000D01*
X127496906Y-57491454D01*
X128241160Y-56994160D01*
X128738454Y-56249906D01*
X128913080Y-55372000D01*
X128745994Y-54532000D01*
X134102976Y-54532000D01*
X134435378Y-55334491D01*
X134770000Y-55669113D01*
X134770001Y-58780886D01*
X134435378Y-59115509D01*
X134070000Y-59997610D01*
X134070000Y-60952390D01*
X134435378Y-61834491D01*
X135110509Y-62509622D01*
X135992610Y-62875000D01*
X136947390Y-62875000D01*
X137829491Y-62509622D01*
X138504622Y-61834491D01*
X138870000Y-60952390D01*
X138870000Y-59997610D01*
X138504622Y-59115509D01*
X138170000Y-58780887D01*
X138170000Y-55669113D01*
X138504622Y-55334491D01*
X138870000Y-54452390D01*
X138870000Y-53497610D01*
X138504622Y-52615509D01*
X137829491Y-51940378D01*
X136947390Y-51575000D01*
X136505684Y-51575000D01*
X135990307Y-51230636D01*
X135494430Y-51132000D01*
X135494426Y-51132000D01*
X135327000Y-51098697D01*
X135159574Y-51132000D01*
X128745994Y-51132000D01*
X128913080Y-50292000D01*
X128738454Y-49414094D01*
X128476465Y-49022000D01*
X128738454Y-48629906D01*
X128913080Y-47752000D01*
X128808687Y-47227175D01*
X154845000Y-47227175D01*
X154845000Y-48022825D01*
X155149482Y-48757909D01*
X155712091Y-49320518D01*
X155832804Y-49370519D01*
X158070000Y-51607716D01*
X158070001Y-52843487D01*
X157900546Y-53097094D01*
X157725920Y-53975000D01*
X157900546Y-54852906D01*
X158162535Y-55245000D01*
X157900546Y-55637094D01*
X157725920Y-56515000D01*
X157900546Y-57392906D01*
X158162535Y-57785000D01*
X157900546Y-58177094D01*
X157725920Y-59055000D01*
X157900546Y-59932906D01*
X158162535Y-60325000D01*
X157900546Y-60717094D01*
X157725920Y-61595000D01*
X157900546Y-62472906D01*
X158162535Y-62865000D01*
X157900546Y-63257094D01*
X157725920Y-64135000D01*
X157900546Y-65012906D01*
X158397840Y-65757160D01*
X159142094Y-66254454D01*
X159798394Y-66385000D01*
X160241606Y-66385000D01*
X160897906Y-66254454D01*
X161642160Y-65757160D01*
X162139454Y-65012906D01*
X162314080Y-64135000D01*
X162139454Y-63257094D01*
X161877465Y-62865000D01*
X162139454Y-62472906D01*
X162314080Y-61595000D01*
X162139454Y-60717094D01*
X161877465Y-60325000D01*
X162139454Y-59932906D01*
X162314080Y-59055000D01*
X162139454Y-58177094D01*
X161877465Y-57785000D01*
X162139454Y-57392906D01*
X162314080Y-56515000D01*
X162139454Y-55637094D01*
X161877465Y-55245000D01*
X162139454Y-54852906D01*
X162314080Y-53975000D01*
X162139454Y-53097094D01*
X161970000Y-52843488D01*
X161970000Y-50992050D01*
X162008201Y-50799999D01*
X161970000Y-50607947D01*
X161970000Y-50607946D01*
X161856859Y-50039148D01*
X161425871Y-49394129D01*
X161263055Y-49285339D01*
X158590519Y-46612804D01*
X158540518Y-46492091D01*
X157977909Y-45929482D01*
X157242825Y-45625000D01*
X156447175Y-45625000D01*
X155712091Y-45929482D01*
X155149482Y-46492091D01*
X154845000Y-47227175D01*
X128808687Y-47227175D01*
X128745994Y-46912000D01*
X129880574Y-46912000D01*
X130048000Y-46945303D01*
X130215426Y-46912000D01*
X130215430Y-46912000D01*
X130711307Y-46813364D01*
X131273631Y-46437631D01*
X131368475Y-46295687D01*
X134054163Y-43610000D01*
X145980838Y-43610000D01*
X146634527Y-44263690D01*
X146729369Y-44405631D01*
X147291693Y-44781364D01*
X147787570Y-44880000D01*
X147787573Y-44880000D01*
X147910529Y-44904457D01*
X148000657Y-45039343D01*
X148463747Y-45348771D01*
X149010000Y-45457427D01*
X150710000Y-45457427D01*
X151256253Y-45348771D01*
X151719343Y-45039343D01*
X152028771Y-44576253D01*
X152137427Y-44030000D01*
X152137427Y-42330000D01*
X152028771Y-41783747D01*
X151915298Y-41613923D01*
X151979454Y-41517906D01*
X152154080Y-40640000D01*
X151979454Y-39762094D01*
X151717465Y-39370000D01*
X151979454Y-38977906D01*
X152154080Y-38100000D01*
X151979454Y-37222094D01*
X151717465Y-36830000D01*
X151979454Y-36437906D01*
X152154080Y-35560000D01*
X151979454Y-34682094D01*
X151482160Y-33937840D01*
X150737906Y-33440546D01*
X150081606Y-33310000D01*
X149638394Y-33310000D01*
X148982094Y-33440546D01*
X148237840Y-33937840D01*
X147740546Y-34682094D01*
X147565920Y-35560000D01*
X147740546Y-36437906D01*
X148002535Y-36830000D01*
X147740546Y-37222094D01*
X147565920Y-38100000D01*
X147740546Y-38977906D01*
X148002535Y-39370000D01*
X147740546Y-39762094D01*
X147598570Y-40475857D01*
X147348307Y-40308636D01*
X146852430Y-40210000D01*
X146852426Y-40210000D01*
X146685000Y-40176697D01*
X146517574Y-40210000D01*
X133517426Y-40210000D01*
X133349999Y-40176697D01*
X133182573Y-40210000D01*
X133182570Y-40210000D01*
X132686693Y-40308636D01*
X132124369Y-40684369D01*
X132029527Y-40826310D01*
X129343838Y-43512000D01*
X128745994Y-43512000D01*
X128913080Y-42672000D01*
X128738454Y-41794094D01*
X128476465Y-41402000D01*
X128738454Y-41009906D01*
X128913080Y-40132000D01*
X128738454Y-39254094D01*
X128476465Y-38862000D01*
X128738454Y-38469906D01*
X128913080Y-37592000D01*
X128761510Y-36830000D01*
X138675920Y-36830000D01*
X138850546Y-37707906D01*
X139347840Y-38452160D01*
X140092094Y-38949454D01*
X140748394Y-39080000D01*
X141191606Y-39080000D01*
X141847906Y-38949454D01*
X142592160Y-38452160D01*
X143089454Y-37707906D01*
X143264080Y-36830000D01*
X143089454Y-35952094D01*
X142592160Y-35207840D01*
X141847906Y-34710546D01*
X141191606Y-34580000D01*
X140748394Y-34580000D01*
X140092094Y-34710546D01*
X139347840Y-35207840D01*
X138850546Y-35952094D01*
X138675920Y-36830000D01*
X128761510Y-36830000D01*
X128738454Y-36714094D01*
X128476465Y-36322000D01*
X128738454Y-35929906D01*
X128913080Y-35052000D01*
X128738454Y-34174094D01*
X128241160Y-33429840D01*
X127496906Y-32932546D01*
X126840606Y-32802000D01*
X126397394Y-32802000D01*
X125741094Y-32932546D01*
X124996840Y-33429840D01*
X124499546Y-34174094D01*
X124324920Y-35052000D01*
X111133080Y-35052000D01*
X110958454Y-34174094D01*
X110461160Y-33429840D01*
X109716906Y-32932546D01*
X109060606Y-32802000D01*
X108617394Y-32802000D01*
X107961094Y-32932546D01*
X107216840Y-33429840D01*
X106719546Y-34174094D01*
X106544920Y-35052000D01*
X78070286Y-35052000D01*
X78049343Y-35020657D01*
X77586253Y-34711229D01*
X77040000Y-34602573D01*
X75440000Y-34602573D01*
X75135000Y-34663241D01*
X75135000Y-31117640D01*
X75770637Y-31753277D01*
X76873263Y-32210000D01*
X78066737Y-32210000D01*
X79169363Y-31753277D01*
X80013277Y-30909363D01*
X80454150Y-29845000D01*
X85335920Y-29845000D01*
X85510546Y-30722906D01*
X85772535Y-31115000D01*
X85510546Y-31507094D01*
X85335920Y-32385000D01*
X85510546Y-33262906D01*
X86007840Y-34007160D01*
X86752094Y-34504454D01*
X87408394Y-34635000D01*
X87851606Y-34635000D01*
X88507906Y-34504454D01*
X89252160Y-34007160D01*
X89749454Y-33262906D01*
X89924080Y-32385000D01*
X89749454Y-31507094D01*
X89487465Y-31115000D01*
X89749454Y-30722906D01*
X89924080Y-29845000D01*
X94860920Y-29845000D01*
X95035546Y-30722906D01*
X95297535Y-31115000D01*
X95035546Y-31507094D01*
X94860920Y-32385000D01*
X95035546Y-33262906D01*
X95532840Y-34007160D01*
X96277094Y-34504454D01*
X96933394Y-34635000D01*
X97376606Y-34635000D01*
X98032906Y-34504454D01*
X98777160Y-34007160D01*
X99274454Y-33262906D01*
X99449080Y-32385000D01*
X99274454Y-31507094D01*
X99012465Y-31115000D01*
X99274454Y-30722906D01*
X99449080Y-29845000D01*
X99274454Y-28967094D01*
X98777160Y-28222840D01*
X98032906Y-27725546D01*
X97376606Y-27595000D01*
X96933394Y-27595000D01*
X96277094Y-27725546D01*
X95532840Y-28222840D01*
X95035546Y-28967094D01*
X94860920Y-29845000D01*
X89924080Y-29845000D01*
X89749454Y-28967094D01*
X89252160Y-28222840D01*
X88507906Y-27725546D01*
X87851606Y-27595000D01*
X87408394Y-27595000D01*
X86752094Y-27725546D01*
X86007840Y-28222840D01*
X85510546Y-28967094D01*
X85335920Y-29845000D01*
X80454150Y-29845000D01*
X80470000Y-29806737D01*
X80470000Y-28613263D01*
X80013277Y-27510637D01*
X79377640Y-26875000D01*
X106655714Y-26875000D01*
X106544920Y-27432000D01*
G04 #@! TD*
M02*
