M48
;DRILL file {KiCad 5.0.2+dfsg1-1} date lun. 26 avril 2021 17:45:02 CEST
;FORMAT={-:-/ absolute / inch / decimal}
FMAT,2
INCH,TZ
T1C0.0157
T2C0.0236
T3C0.0315
T4C0.0394
T5C0.0402
T6C0.0433
T7C0.0591
T8C0.0709
T9C0.1260
%
G90
G05
T1
X5.4Y-2.75
X5.6Y-2.75
T2
X6.175Y-1.875
T3
X6.5766Y-2.725
X6.675Y-2.725
X5.325Y-1.1122
X5.325Y-1.25
X3.0016Y-2.75
X3.1Y-2.75
X3.0016Y-1.45
X3.1Y-1.45
X5.225Y-3.15
X5.3234Y-3.15
T4
X4.45Y-3.6
X4.55Y-3.6
X4.65Y-3.6
X4.75Y-3.6
X5.325Y-3.45
X5.325Y-3.55
X5.325Y-3.65
X5.325Y-3.75
X3.825Y-1.175
X3.825Y-1.275
X3.825Y-1.375
X3.825Y-2.25
X3.825Y-2.35
X3.825Y-2.45
X3.825Y-2.55
X3.825Y-2.65
X3.825Y-1.695
X3.825Y-1.795
X3.825Y-1.895
X3.825Y-1.995
X5.9Y-1.4
X5.9Y-1.5
X5.9Y-1.6
X5.9Y-1.7
X3.525Y-2.25
X3.525Y-2.35
X3.525Y-2.45
X3.225Y-1.695
X3.225Y-1.795
X3.225Y-1.895
X3.225Y-1.995
X5.9Y-2.125
X5.9Y-2.225
X5.9Y-2.325
X5.9Y-2.425
X5.9Y-2.525
X5.9Y-2.625
X3.825Y-2.85
X3.825Y-2.95
X3.825Y-3.05
X3.825Y-3.15
X3.825Y-3.25
X3.825Y-3.35
X3.225Y-2.25
X3.225Y-2.35
X3.225Y-2.45
X6.3Y-2.125
X6.3Y-2.225
X6.3Y-2.325
X6.3Y-2.425
X6.3Y-2.525
X6.3Y-2.625
X3.35Y-2.95
X3.35Y-3.05
X3.35Y-3.15
X3.35Y-3.25
X3.35Y-3.35
X5.55Y-1.45
X5.65Y-1.45
X3.525Y-1.695
X3.525Y-1.795
X3.525Y-1.895
X3.525Y-1.995
X6.675Y-2.125
X6.675Y-2.225
X6.675Y-2.325
X3.45Y-1.175
X3.45Y-1.275
X3.45Y-1.375
X6.6Y-3.05
X6.7Y-3.05
X5.025Y-3.45
X5.025Y-3.55
X5.025Y-3.65
X5.025Y-3.75
X6.2Y-1.1
X6.3Y-1.1
X6.4Y-1.1
X5.67Y-1.1
X5.77Y-1.1
X5.87Y-1.1
X6.675Y-1.475
X6.675Y-1.575
X6.675Y-1.675
X6.675Y-1.775
T5
X5.825Y-3.0118
X5.925Y-3.0118
X6.025Y-3.0118
X6.125Y-3.0118
X4.285Y-1.08
X4.285Y-1.18
X4.285Y-1.28
X4.285Y-1.38
X4.285Y-1.48
X4.285Y-1.58
X4.285Y-1.68
X4.285Y-1.78
X4.285Y-1.88
X4.285Y-1.98
X4.285Y-2.08
X4.285Y-2.18
X4.285Y-2.28
X4.285Y-2.38
X4.285Y-2.48
X4.285Y-2.58
X4.285Y-2.68
X4.285Y-2.78
X4.285Y-2.88
X4.285Y-2.98
X4.535Y-2.9709
X4.635Y-2.9709
X4.735Y-2.9709
X4.985Y-1.08
X4.985Y-1.18
X4.985Y-1.28
X4.985Y-1.38
X4.985Y-1.48
X4.985Y-1.58
X4.985Y-1.68
X4.985Y-1.78
X4.985Y-1.88
X4.985Y-1.98
X4.985Y-2.08
X4.985Y-2.18
X4.985Y-2.28
X4.985Y-2.38
X4.985Y-2.48
X4.985Y-2.58
X4.985Y-2.68
X4.985Y-2.78
X4.985Y-2.88
X4.985Y-2.98
T6
X3.3441Y-3.65
X3.3441Y-3.8272
X3.6Y-3.65
X3.6Y-3.8272
X5.3728Y-2.125
X5.3728Y-2.3809
X5.55Y-2.125
X5.55Y-2.3809
X3.9191Y-3.65
X3.9191Y-3.8272
X4.175Y-3.65
X4.175Y-3.8272
T7
X4.5395Y-1.2044
X4.7305Y-1.2044
T8
X4.5277Y-1.0851
X4.7423Y-1.0851
T9
X3.05Y-1.15
X3.05Y-3.85
X6.65Y-3.85
X6.65Y-1.15
T0
M30
