G04 #@! TF.GenerationSoftware,KiCad,Pcbnew,5.0.2+dfsg1-1*
G04 #@! TF.CreationDate,2021-04-26T17:45:04+02:00*
G04 #@! TF.ProjectId,pico-dev,7069636f-2d64-4657-962e-6b696361645f,rev?*
G04 #@! TF.SameCoordinates,Original*
G04 #@! TF.FileFunction,Legend,Bot*
G04 #@! TF.FilePolarity,Positive*
%FSLAX46Y46*%
G04 Gerber Fmt 4.6, Leading zero omitted, Abs format (unit mm)*
G04 Created by KiCad (PCBNEW 5.0.2+dfsg1-1) date lun. 26 avril 2021 17:45:04 CEST*
%MOMM*%
%LPD*%
G01*
G04 APERTURE LIST*
%ADD10C,0.400000*%
G04 APERTURE END LIST*
D10*
X158971666Y-87374523D02*
X159162142Y-87469761D01*
X159543095Y-87469761D01*
X159733571Y-87374523D01*
X159828809Y-87184047D01*
X159828809Y-86422142D01*
X159733571Y-86231666D01*
X159543095Y-86136428D01*
X159162142Y-86136428D01*
X158971666Y-86231666D01*
X158876428Y-86422142D01*
X158876428Y-86612619D01*
X159828809Y-86803095D01*
X158209761Y-87469761D02*
X157162142Y-86136428D01*
X158209761Y-86136428D02*
X157162142Y-87469761D01*
X155638333Y-87374523D02*
X155828809Y-87469761D01*
X156209761Y-87469761D01*
X156400238Y-87374523D01*
X156495476Y-87184047D01*
X156495476Y-86422142D01*
X156400238Y-86231666D01*
X156209761Y-86136428D01*
X155828809Y-86136428D01*
X155638333Y-86231666D01*
X155543095Y-86422142D01*
X155543095Y-86612619D01*
X156495476Y-86803095D01*
X153828809Y-87374523D02*
X154019285Y-87469761D01*
X154400238Y-87469761D01*
X154590714Y-87374523D01*
X154685952Y-87279285D01*
X154781190Y-87088809D01*
X154781190Y-86517380D01*
X154685952Y-86326904D01*
X154590714Y-86231666D01*
X154400238Y-86136428D01*
X154019285Y-86136428D01*
X153828809Y-86231666D01*
X152114523Y-86136428D02*
X152114523Y-87469761D01*
X152971666Y-86136428D02*
X152971666Y-87184047D01*
X152876428Y-87374523D01*
X152685952Y-87469761D01*
X152400238Y-87469761D01*
X152209761Y-87374523D01*
X152114523Y-87279285D01*
X150305000Y-87374523D02*
X150495476Y-87469761D01*
X150876428Y-87469761D01*
X151066904Y-87374523D01*
X151162142Y-87279285D01*
X151257380Y-87088809D01*
X151257380Y-86517380D01*
X151162142Y-86326904D01*
X151066904Y-86231666D01*
X150876428Y-86136428D01*
X150495476Y-86136428D01*
X150305000Y-86231666D01*
X163685952Y-89536428D02*
X163685952Y-91536428D01*
X163685952Y-89631666D02*
X163495476Y-89536428D01*
X163114523Y-89536428D01*
X162924047Y-89631666D01*
X162828809Y-89726904D01*
X162733571Y-89917380D01*
X162733571Y-90488809D01*
X162828809Y-90679285D01*
X162924047Y-90774523D01*
X163114523Y-90869761D01*
X163495476Y-90869761D01*
X163685952Y-90774523D01*
X161876428Y-90869761D02*
X161876428Y-89536428D01*
X161876428Y-88869761D02*
X161971666Y-88965000D01*
X161876428Y-89060238D01*
X161781190Y-88965000D01*
X161876428Y-88869761D01*
X161876428Y-89060238D01*
X160066904Y-90774523D02*
X160257380Y-90869761D01*
X160638333Y-90869761D01*
X160828809Y-90774523D01*
X160924047Y-90679285D01*
X161019285Y-90488809D01*
X161019285Y-89917380D01*
X160924047Y-89726904D01*
X160828809Y-89631666D01*
X160638333Y-89536428D01*
X160257380Y-89536428D01*
X160066904Y-89631666D01*
X158924047Y-90869761D02*
X159114523Y-90774523D01*
X159209761Y-90679285D01*
X159305000Y-90488809D01*
X159305000Y-89917380D01*
X159209761Y-89726904D01*
X159114523Y-89631666D01*
X158924047Y-89536428D01*
X158638333Y-89536428D01*
X158447857Y-89631666D01*
X158352619Y-89726904D01*
X158257380Y-89917380D01*
X158257380Y-90488809D01*
X158352619Y-90679285D01*
X158447857Y-90774523D01*
X158638333Y-90869761D01*
X158924047Y-90869761D01*
X157400238Y-90107857D02*
X155876428Y-90107857D01*
X154066904Y-90869761D02*
X154066904Y-88869761D01*
X154066904Y-90774523D02*
X154257380Y-90869761D01*
X154638333Y-90869761D01*
X154828809Y-90774523D01*
X154924047Y-90679285D01*
X155019285Y-90488809D01*
X155019285Y-89917380D01*
X154924047Y-89726904D01*
X154828809Y-89631666D01*
X154638333Y-89536428D01*
X154257380Y-89536428D01*
X154066904Y-89631666D01*
X152352619Y-90774523D02*
X152543095Y-90869761D01*
X152924047Y-90869761D01*
X153114523Y-90774523D01*
X153209761Y-90584047D01*
X153209761Y-89822142D01*
X153114523Y-89631666D01*
X152924047Y-89536428D01*
X152543095Y-89536428D01*
X152352619Y-89631666D01*
X152257380Y-89822142D01*
X152257380Y-90012619D01*
X153209761Y-90203095D01*
X151590714Y-89536428D02*
X151114523Y-90869761D01*
X150638333Y-89536428D01*
X149876428Y-90107857D02*
X148352619Y-90107857D01*
X147590714Y-89536428D02*
X147114523Y-90869761D01*
X146638333Y-89536428D01*
X145971666Y-89060238D02*
X145876428Y-88965000D01*
X145685952Y-88869761D01*
X145209761Y-88869761D01*
X145019285Y-88965000D01*
X144924047Y-89060238D01*
X144828809Y-89250714D01*
X144828809Y-89441190D01*
X144924047Y-89726904D01*
X146066904Y-90869761D01*
X144828809Y-90869761D01*
M02*
