M48
;DRILL file {KiCad 5.0.2+dfsg1-1} date jeu. 18 mars 2021 17:53:03 CET
;FORMAT={-:-/ absolute / inch / decimal}
FMAT,2
INCH,TZ
T1C0.0315
T2C0.0354
T3C0.0394
T4C0.0402
T5C0.0433
T6C0.0591
T7C0.0709
T8C0.1181
T9C0.1260
%
G90
G05
T1
X6.56Y-2.74
X6.6584Y-2.74
X3.86Y-3.24
X3.86Y-3.3384
X5.3Y-1.12
X5.3Y-1.2184
T2
X3.6Y-1.58
X3.7Y-1.58
T3
X3.2Y-2.5
X3.2Y-2.6
X3.2Y-2.7
X3.8Y-1.82
X3.8Y-1.92
X3.8Y-2.02
X3.8Y-2.12
X3.2Y-3.05
X3.2Y-3.15
X3.2Y-3.25
X5.62Y-1.1
X5.72Y-1.1
X5.82Y-1.1
X4.719Y-3.53
X4.819Y-3.53
X4.919Y-3.53
X5.019Y-3.53
X6.55Y-1.45
X6.55Y-1.55
X6.55Y-1.65
X3.4Y-1.2
X3.4Y-1.3
X3.4Y-1.4
X3.2Y-1.82
X3.2Y-1.92
X3.2Y-2.02
X3.2Y-2.12
X6.6Y-2.05
X6.6Y-2.15
X6.6Y-2.25
X3.5Y-1.82
X3.5Y-1.92
X3.5Y-2.02
X3.5Y-2.12
X5.9Y-2.05
X5.9Y-2.15
X5.9Y-2.25
X5.9Y-2.35
X5.9Y-2.45
X5.9Y-2.55
X3.769Y-1.363
X3.869Y-1.363
X3.5Y-2.5
X3.5Y-2.6
X3.5Y-2.7
X5.5Y-1.45
X5.6Y-1.45
X5.7Y-1.45
X5.8Y-1.45
X5.9Y-1.45
X3.8Y-2.4
X3.8Y-2.5
X3.8Y-2.6
X3.8Y-2.7
X3.8Y-2.8
X3.8Y-2.9
X6.3Y-2.05
X6.3Y-2.15
X6.3Y-2.25
X6.3Y-2.35
X6.3Y-2.45
X6.3Y-2.55
X6.25Y-1.45
X6.25Y-1.55
X6.25Y-1.65
X6.15Y-1.1
X6.25Y-1.1
X6.35Y-1.1
T4
X4.285Y-1.08
X4.285Y-1.18
X4.285Y-1.28
X4.285Y-1.38
X4.285Y-1.48
X4.285Y-1.58
X4.285Y-1.68
X4.285Y-1.78
X4.285Y-1.88
X4.285Y-1.98
X4.285Y-2.08
X4.285Y-2.18
X4.285Y-2.28
X4.285Y-2.38
X4.285Y-2.48
X4.285Y-2.58
X4.285Y-2.68
X4.285Y-2.78
X4.285Y-2.88
X4.285Y-2.98
X4.535Y-2.9709
X4.635Y-2.9709
X4.735Y-2.9709
X4.985Y-1.08
X4.985Y-1.18
X4.985Y-1.28
X4.985Y-1.38
X4.985Y-1.48
X4.985Y-1.58
X4.985Y-1.68
X4.985Y-1.78
X4.985Y-1.88
X4.985Y-1.98
X4.985Y-2.08
X4.985Y-2.18
X4.985Y-2.28
X4.985Y-2.38
X4.985Y-2.48
X4.985Y-2.58
X4.985Y-2.68
X4.985Y-2.78
X4.985Y-2.88
X4.985Y-2.98
X5.75Y-2.9118
X5.85Y-2.9118
X5.95Y-2.9118
X6.05Y-2.9118
T5
X5.373Y-1.7561
X5.373Y-2.012
X5.5502Y-1.7561
X5.5502Y-2.012
X4.05Y-3.575
X4.05Y-3.7522
X4.3059Y-3.575
X4.3059Y-3.7522
X3.4Y-3.575
X3.4Y-3.7522
X3.6559Y-3.575
X3.6559Y-3.7522
T6
X4.5395Y-1.2044
X4.7305Y-1.2044
T7
X4.5277Y-1.0851
X4.7423Y-1.0851
T8
X5.4413Y-2.9315
X5.4413Y-3.8685
X6.3587Y-2.9315
X6.3587Y-3.8685
T9
X6.65Y-1.15
X3.05Y-3.85
X6.65Y-3.85
X3.05Y-1.15
T0
M30
