G04 #@! TF.GenerationSoftware,KiCad,Pcbnew,5.0.2+dfsg1-1*
G04 #@! TF.CreationDate,2021-03-18T17:53:01+01:00*
G04 #@! TF.ProjectId,pico-dev,7069636f-2d64-4657-962e-6b696361645f,rev?*
G04 #@! TF.SameCoordinates,Original*
G04 #@! TF.FileFunction,Copper,L1,Top*
G04 #@! TF.FilePolarity,Positive*
%FSLAX46Y46*%
G04 Gerber Fmt 4.6, Leading zero omitted, Abs format (unit mm)*
G04 Created by KiCad (PCBNEW 5.0.2+dfsg1-1) date jeu. 18 mars 2021 17:53:01 CET*
%MOMM*%
%LPD*%
G01*
G04 APERTURE LIST*
G04 #@! TA.AperFunction,ComponentPad*
%ADD10C,1.700000*%
G04 #@! TD*
G04 #@! TA.AperFunction,ComponentPad*
%ADD11R,1.700000X1.700000*%
G04 #@! TD*
G04 #@! TA.AperFunction,ComponentPad*
%ADD12C,1.600000*%
G04 #@! TD*
G04 #@! TA.AperFunction,ComponentPad*
%ADD13R,1.600000X1.600000*%
G04 #@! TD*
G04 #@! TA.AperFunction,ComponentPad*
%ADD14O,1.700000X1.700000*%
G04 #@! TD*
G04 #@! TA.AperFunction,Conductor*
%ADD15C,0.100000*%
G04 #@! TD*
G04 #@! TA.AperFunction,SMDPad,CuDef*
%ADD16C,1.150000*%
G04 #@! TD*
G04 #@! TA.AperFunction,SMDPad,CuDef*
%ADD17R,3.500000X1.700000*%
G04 #@! TD*
G04 #@! TA.AperFunction,SMDPad,CuDef*
%ADD18R,1.700000X3.500000*%
G04 #@! TD*
G04 #@! TA.AperFunction,SMDPad,CuDef*
%ADD19R,2.500000X1.800000*%
G04 #@! TD*
G04 #@! TA.AperFunction,ComponentPad*
%ADD20C,2.000000*%
G04 #@! TD*
G04 #@! TA.AperFunction,ComponentPad*
%ADD21R,1.800000X1.800000*%
G04 #@! TD*
G04 #@! TA.AperFunction,ComponentPad*
%ADD22C,1.800000*%
G04 #@! TD*
G04 #@! TA.AperFunction,Conductor*
%ADD23C,0.900000*%
G04 #@! TD*
G04 #@! TA.AperFunction,Conductor*
%ADD24C,0.500000*%
G04 #@! TD*
G04 #@! TA.AperFunction,Conductor*
%ADD25C,1.000000*%
G04 #@! TD*
G04 #@! TA.AperFunction,Conductor*
%ADD26C,0.254000*%
G04 #@! TD*
G04 APERTURE END LIST*
D10*
G04 #@! TO.P,U2,4*
G04 #@! TO.N,SDA_1*
X153670000Y-73960000D03*
G04 #@! TO.P,U2,3*
G04 #@! TO.N,SCL_1*
X151130000Y-73960000D03*
G04 #@! TO.P,U2,2*
G04 #@! TO.N,+3V3*
X148590000Y-73960000D03*
D11*
G04 #@! TO.P,U2,1*
G04 #@! TO.N,GND*
X146050000Y-73960000D03*
G04 #@! TD*
D12*
G04 #@! TO.P,C1,2*
G04 #@! TO.N,GND*
X134620000Y-30948000D03*
D13*
G04 #@! TO.P,C1,1*
G04 #@! TO.N,+5V*
X134620000Y-28448000D03*
G04 #@! TD*
D11*
G04 #@! TO.P,J1,1*
G04 #@! TO.N,GND*
X95732600Y-34620200D03*
D14*
G04 #@! TO.P,J1,2*
G04 #@! TO.N,MODE*
X98272600Y-34620200D03*
G04 #@! TD*
D11*
G04 #@! TO.P,J2,1*
G04 #@! TO.N,+5VD*
X119862600Y-89662000D03*
D14*
G04 #@! TO.P,J2,2*
G04 #@! TO.N,SWCLK*
X122402600Y-89662000D03*
G04 #@! TO.P,J2,3*
G04 #@! TO.N,SWDIO*
X124942600Y-89662000D03*
G04 #@! TO.P,J2,4*
G04 #@! TO.N,GND*
X127482600Y-89662000D03*
G04 #@! TD*
G04 #@! TO.P,J3,3*
G04 #@! TO.N,+3V3*
X166370000Y-41910000D03*
G04 #@! TO.P,J3,2*
G04 #@! TO.N,ADC0*
X166370000Y-39370000D03*
D11*
G04 #@! TO.P,J3,1*
G04 #@! TO.N,AGND*
X166370000Y-36830000D03*
G04 #@! TD*
G04 #@! TO.P,J4,1*
G04 #@! TO.N,AGND*
X158750000Y-36830000D03*
D14*
G04 #@! TO.P,J4,2*
G04 #@! TO.N,ADC1*
X158750000Y-39370000D03*
G04 #@! TO.P,J4,3*
G04 #@! TO.N,+3V3*
X158750000Y-41910000D03*
G04 #@! TD*
D15*
G04 #@! TO.N,+3V3*
G04 #@! TO.C,R1*
G36*
X98291905Y-29171604D02*
X98316173Y-29175204D01*
X98339972Y-29181165D01*
X98363071Y-29189430D01*
X98385250Y-29199920D01*
X98406293Y-29212532D01*
X98425999Y-29227147D01*
X98444177Y-29243623D01*
X98460653Y-29261801D01*
X98475268Y-29281507D01*
X98487880Y-29302550D01*
X98498370Y-29324729D01*
X98506635Y-29347828D01*
X98512596Y-29371627D01*
X98516196Y-29395895D01*
X98517400Y-29420399D01*
X98517400Y-30320401D01*
X98516196Y-30344905D01*
X98512596Y-30369173D01*
X98506635Y-30392972D01*
X98498370Y-30416071D01*
X98487880Y-30438250D01*
X98475268Y-30459293D01*
X98460653Y-30478999D01*
X98444177Y-30497177D01*
X98425999Y-30513653D01*
X98406293Y-30528268D01*
X98385250Y-30540880D01*
X98363071Y-30551370D01*
X98339972Y-30559635D01*
X98316173Y-30565596D01*
X98291905Y-30569196D01*
X98267401Y-30570400D01*
X97617399Y-30570400D01*
X97592895Y-30569196D01*
X97568627Y-30565596D01*
X97544828Y-30559635D01*
X97521729Y-30551370D01*
X97499550Y-30540880D01*
X97478507Y-30528268D01*
X97458801Y-30513653D01*
X97440623Y-30497177D01*
X97424147Y-30478999D01*
X97409532Y-30459293D01*
X97396920Y-30438250D01*
X97386430Y-30416071D01*
X97378165Y-30392972D01*
X97372204Y-30369173D01*
X97368604Y-30344905D01*
X97367400Y-30320401D01*
X97367400Y-29420399D01*
X97368604Y-29395895D01*
X97372204Y-29371627D01*
X97378165Y-29347828D01*
X97386430Y-29324729D01*
X97396920Y-29302550D01*
X97409532Y-29281507D01*
X97424147Y-29261801D01*
X97440623Y-29243623D01*
X97458801Y-29227147D01*
X97478507Y-29212532D01*
X97499550Y-29199920D01*
X97521729Y-29189430D01*
X97544828Y-29181165D01*
X97568627Y-29175204D01*
X97592895Y-29171604D01*
X97617399Y-29170400D01*
X98267401Y-29170400D01*
X98291905Y-29171604D01*
X98291905Y-29171604D01*
G37*
D16*
G04 #@! TD*
G04 #@! TO.P,R1,1*
G04 #@! TO.N,+3V3*
X97942400Y-29870400D03*
D15*
G04 #@! TO.N,MODE*
G04 #@! TO.C,R1*
G36*
X100341905Y-29171604D02*
X100366173Y-29175204D01*
X100389972Y-29181165D01*
X100413071Y-29189430D01*
X100435250Y-29199920D01*
X100456293Y-29212532D01*
X100475999Y-29227147D01*
X100494177Y-29243623D01*
X100510653Y-29261801D01*
X100525268Y-29281507D01*
X100537880Y-29302550D01*
X100548370Y-29324729D01*
X100556635Y-29347828D01*
X100562596Y-29371627D01*
X100566196Y-29395895D01*
X100567400Y-29420399D01*
X100567400Y-30320401D01*
X100566196Y-30344905D01*
X100562596Y-30369173D01*
X100556635Y-30392972D01*
X100548370Y-30416071D01*
X100537880Y-30438250D01*
X100525268Y-30459293D01*
X100510653Y-30478999D01*
X100494177Y-30497177D01*
X100475999Y-30513653D01*
X100456293Y-30528268D01*
X100435250Y-30540880D01*
X100413071Y-30551370D01*
X100389972Y-30559635D01*
X100366173Y-30565596D01*
X100341905Y-30569196D01*
X100317401Y-30570400D01*
X99667399Y-30570400D01*
X99642895Y-30569196D01*
X99618627Y-30565596D01*
X99594828Y-30559635D01*
X99571729Y-30551370D01*
X99549550Y-30540880D01*
X99528507Y-30528268D01*
X99508801Y-30513653D01*
X99490623Y-30497177D01*
X99474147Y-30478999D01*
X99459532Y-30459293D01*
X99446920Y-30438250D01*
X99436430Y-30416071D01*
X99428165Y-30392972D01*
X99422204Y-30369173D01*
X99418604Y-30344905D01*
X99417400Y-30320401D01*
X99417400Y-29420399D01*
X99418604Y-29395895D01*
X99422204Y-29371627D01*
X99428165Y-29347828D01*
X99436430Y-29324729D01*
X99446920Y-29302550D01*
X99459532Y-29281507D01*
X99474147Y-29261801D01*
X99490623Y-29243623D01*
X99508801Y-29227147D01*
X99528507Y-29212532D01*
X99549550Y-29199920D01*
X99571729Y-29189430D01*
X99594828Y-29181165D01*
X99618627Y-29175204D01*
X99642895Y-29171604D01*
X99667399Y-29170400D01*
X100317401Y-29170400D01*
X100341905Y-29171604D01*
X100341905Y-29171604D01*
G37*
D16*
G04 #@! TD*
G04 #@! TO.P,R1,2*
G04 #@! TO.N,MODE*
X99992400Y-29870400D03*
D14*
G04 #@! TO.P,U1,1*
G04 #@! TO.N,U_TX*
X108839000Y-27432000D03*
G04 #@! TO.P,U1,2*
G04 #@! TO.N,U_RX*
X108839000Y-29972000D03*
D11*
G04 #@! TO.P,U1,3*
G04 #@! TO.N,GND*
X108839000Y-32512000D03*
D14*
G04 #@! TO.P,U1,4*
G04 #@! TO.N,MODE*
X108839000Y-35052000D03*
G04 #@! TO.P,U1,5*
G04 #@! TO.N,LED0*
X108839000Y-37592000D03*
G04 #@! TO.P,U1,6*
G04 #@! TO.N,SDA_0*
X108839000Y-40132000D03*
G04 #@! TO.P,U1,7*
G04 #@! TO.N,SCL_0*
X108839000Y-42672000D03*
D11*
G04 #@! TO.P,U1,8*
G04 #@! TO.N,GND*
X108839000Y-45212000D03*
D14*
G04 #@! TO.P,U1,9*
G04 #@! TO.N,GP6*
X108839000Y-47752000D03*
G04 #@! TO.P,U1,10*
G04 #@! TO.N,GP7*
X108839000Y-50292000D03*
G04 #@! TO.P,U1,11*
G04 #@! TO.N,GP8*
X108839000Y-52832000D03*
G04 #@! TO.P,U1,12*
G04 #@! TO.N,GP9*
X108839000Y-55372000D03*
D11*
G04 #@! TO.P,U1,13*
G04 #@! TO.N,GND*
X108839000Y-57912000D03*
D14*
G04 #@! TO.P,U1,14*
G04 #@! TO.N,SPI1_CK_GP10*
X108839000Y-60452000D03*
G04 #@! TO.P,U1,15*
G04 #@! TO.N,SPI1_MOSI_GP11*
X108839000Y-62992000D03*
G04 #@! TO.P,U1,16*
G04 #@! TO.N,SPI1_MISO_GP12*
X108839000Y-65532000D03*
G04 #@! TO.P,U1,17*
G04 #@! TO.N,SPI1_CS1_GP13*
X108839000Y-68072000D03*
D11*
G04 #@! TO.P,U1,18*
G04 #@! TO.N,GND*
X108839000Y-70612000D03*
D14*
G04 #@! TO.P,U1,19*
G04 #@! TO.N,SDA_1*
X108839000Y-73152000D03*
G04 #@! TO.P,U1,20*
G04 #@! TO.N,SCL_1*
X108839000Y-75692000D03*
G04 #@! TO.P,U1,21*
G04 #@! TO.N,SPI0_MISO*
X126619000Y-75692000D03*
G04 #@! TO.P,U1,22*
G04 #@! TO.N,SPI0_CS1*
X126619000Y-73152000D03*
D11*
G04 #@! TO.P,U1,23*
G04 #@! TO.N,GND*
X126619000Y-70612000D03*
D14*
G04 #@! TO.P,U1,24*
G04 #@! TO.N,SPI0_CK*
X126619000Y-68072000D03*
G04 #@! TO.P,U1,25*
G04 #@! TO.N,SPI0_MOSI*
X126619000Y-65532000D03*
G04 #@! TO.P,U1,26*
G04 #@! TO.N,SPI0_CS2*
X126619000Y-62992000D03*
G04 #@! TO.P,U1,27*
G04 #@! TO.N,GP21*
X126619000Y-60452000D03*
D11*
G04 #@! TO.P,U1,28*
G04 #@! TO.N,GND*
X126619000Y-57912000D03*
D14*
G04 #@! TO.P,U1,29*
G04 #@! TO.N,GP22*
X126619000Y-55372000D03*
G04 #@! TO.P,U1,30*
G04 #@! TO.N,RUN*
X126619000Y-52832000D03*
G04 #@! TO.P,U1,31*
G04 #@! TO.N,ADC0*
X126619000Y-50292000D03*
G04 #@! TO.P,U1,32*
G04 #@! TO.N,ADC1*
X126619000Y-47752000D03*
D11*
G04 #@! TO.P,U1,33*
G04 #@! TO.N,AGND*
X126619000Y-45212000D03*
D14*
G04 #@! TO.P,U1,34*
G04 #@! TO.N,GP28*
X126619000Y-42672000D03*
G04 #@! TO.P,U1,35*
G04 #@! TO.N,Net-(U1-Pad35)*
X126619000Y-40132000D03*
G04 #@! TO.P,U1,36*
G04 #@! TO.N,+3V3*
X126619000Y-37592000D03*
G04 #@! TO.P,U1,37*
G04 #@! TO.N,Net-(U1-Pad37)*
X126619000Y-35052000D03*
D11*
G04 #@! TO.P,U1,38*
G04 #@! TO.N,GND*
X126619000Y-32512000D03*
D14*
G04 #@! TO.P,U1,39*
G04 #@! TO.N,+5V*
X126619000Y-29972000D03*
G04 #@! TO.P,U1,40*
G04 #@! TO.N,Net-(U1-Pad40)*
X126619000Y-27432000D03*
D17*
G04 #@! TO.P,U1,1*
G04 #@! TO.N,U_TX*
X107939000Y-27432000D03*
G04 #@! TO.P,U1,2*
G04 #@! TO.N,U_RX*
X107939000Y-29972000D03*
G04 #@! TO.P,U1,3*
G04 #@! TO.N,GND*
X107939000Y-32512000D03*
G04 #@! TO.P,U1,4*
G04 #@! TO.N,MODE*
X107939000Y-35052000D03*
G04 #@! TO.P,U1,5*
G04 #@! TO.N,LED0*
X107939000Y-37592000D03*
G04 #@! TO.P,U1,6*
G04 #@! TO.N,SDA_0*
X107939000Y-40132000D03*
G04 #@! TO.P,U1,7*
G04 #@! TO.N,SCL_0*
X107939000Y-42672000D03*
G04 #@! TO.P,U1,8*
G04 #@! TO.N,GND*
X107939000Y-45212000D03*
G04 #@! TO.P,U1,9*
G04 #@! TO.N,GP6*
X107939000Y-47752000D03*
G04 #@! TO.P,U1,10*
G04 #@! TO.N,GP7*
X107939000Y-50292000D03*
G04 #@! TO.P,U1,11*
G04 #@! TO.N,GP8*
X107939000Y-52832000D03*
G04 #@! TO.P,U1,12*
G04 #@! TO.N,GP9*
X107939000Y-55372000D03*
G04 #@! TO.P,U1,13*
G04 #@! TO.N,GND*
X107939000Y-57912000D03*
G04 #@! TO.P,U1,14*
G04 #@! TO.N,SPI1_CK_GP10*
X107939000Y-60452000D03*
G04 #@! TO.P,U1,15*
G04 #@! TO.N,SPI1_MOSI_GP11*
X107939000Y-62992000D03*
G04 #@! TO.P,U1,16*
G04 #@! TO.N,SPI1_MISO_GP12*
X107939000Y-65532000D03*
G04 #@! TO.P,U1,17*
G04 #@! TO.N,SPI1_CS1_GP13*
X107939000Y-68072000D03*
G04 #@! TO.P,U1,18*
G04 #@! TO.N,GND*
X107939000Y-70612000D03*
G04 #@! TO.P,U1,19*
G04 #@! TO.N,SDA_1*
X107939000Y-73152000D03*
G04 #@! TO.P,U1,20*
G04 #@! TO.N,SCL_1*
X107939000Y-75692000D03*
G04 #@! TO.P,U1,40*
G04 #@! TO.N,Net-(U1-Pad40)*
X127519000Y-27432000D03*
G04 #@! TO.P,U1,39*
G04 #@! TO.N,+5V*
X127519000Y-29972000D03*
G04 #@! TO.P,U1,38*
G04 #@! TO.N,GND*
X127519000Y-32512000D03*
G04 #@! TO.P,U1,37*
G04 #@! TO.N,Net-(U1-Pad37)*
X127519000Y-35052000D03*
G04 #@! TO.P,U1,36*
G04 #@! TO.N,+3V3*
X127519000Y-37592000D03*
G04 #@! TO.P,U1,35*
G04 #@! TO.N,Net-(U1-Pad35)*
X127519000Y-40132000D03*
G04 #@! TO.P,U1,34*
G04 #@! TO.N,GP28*
X127519000Y-42672000D03*
G04 #@! TO.P,U1,33*
G04 #@! TO.N,AGND*
X127519000Y-45212000D03*
G04 #@! TO.P,U1,32*
G04 #@! TO.N,ADC1*
X127519000Y-47752000D03*
G04 #@! TO.P,U1,31*
G04 #@! TO.N,ADC0*
X127519000Y-50292000D03*
G04 #@! TO.P,U1,30*
G04 #@! TO.N,RUN*
X127519000Y-52832000D03*
G04 #@! TO.P,U1,29*
G04 #@! TO.N,GP22*
X127519000Y-55372000D03*
G04 #@! TO.P,U1,28*
G04 #@! TO.N,GND*
X127519000Y-57912000D03*
G04 #@! TO.P,U1,27*
G04 #@! TO.N,GP21*
X127519000Y-60452000D03*
G04 #@! TO.P,U1,26*
G04 #@! TO.N,SPI0_CS2*
X127519000Y-62992000D03*
G04 #@! TO.P,U1,25*
G04 #@! TO.N,SPI0_MOSI*
X127519000Y-65532000D03*
G04 #@! TO.P,U1,24*
G04 #@! TO.N,SPI0_CK*
X127519000Y-68072000D03*
G04 #@! TO.P,U1,23*
G04 #@! TO.N,GND*
X127519000Y-70612000D03*
G04 #@! TO.P,U1,22*
G04 #@! TO.N,SPI0_CS1*
X127519000Y-73152000D03*
G04 #@! TO.P,U1,21*
G04 #@! TO.N,SPI0_MISO*
X127519000Y-75692000D03*
D18*
G04 #@! TO.P,U1,41*
G04 #@! TO.N,SWCLK*
X115189000Y-76362000D03*
D14*
X115189000Y-75462000D03*
D18*
G04 #@! TO.P,U1,42*
G04 #@! TO.N,GND*
X117729000Y-76362000D03*
D11*
X117729000Y-75462000D03*
D18*
G04 #@! TO.P,U1,43*
G04 #@! TO.N,SWDIO*
X120269000Y-76362000D03*
D14*
X120269000Y-75462000D03*
G04 #@! TD*
D11*
G04 #@! TO.P,J5,1*
G04 #@! TO.N,GND*
X96520000Y-53848000D03*
D14*
G04 #@! TO.P,J5,2*
G04 #@! TO.N,SCL_0*
X96520000Y-51308000D03*
G04 #@! TO.P,J5,3*
G04 #@! TO.N,SDA_0*
X96520000Y-48768000D03*
G04 #@! TO.P,J5,4*
G04 #@! TO.N,+3V3*
X96520000Y-46228000D03*
G04 #@! TD*
G04 #@! TO.P,J6,4*
G04 #@! TO.N,+3V3*
X88900000Y-46228000D03*
G04 #@! TO.P,J6,3*
G04 #@! TO.N,SDA_0*
X88900000Y-48768000D03*
G04 #@! TO.P,J6,2*
G04 #@! TO.N,SCL_0*
X88900000Y-51308000D03*
D11*
G04 #@! TO.P,J6,1*
G04 #@! TO.N,GND*
X88900000Y-53848000D03*
G04 #@! TD*
G04 #@! TO.P,J7,1*
G04 #@! TO.N,GND*
X81280000Y-53848000D03*
D14*
G04 #@! TO.P,J7,2*
G04 #@! TO.N,SCL_0*
X81280000Y-51308000D03*
G04 #@! TO.P,J7,3*
G04 #@! TO.N,SDA_0*
X81280000Y-48768000D03*
G04 #@! TO.P,J7,4*
G04 #@! TO.N,+3V3*
X81280000Y-46228000D03*
G04 #@! TD*
D11*
G04 #@! TO.P,J8,1*
G04 #@! TO.N,GND*
X86360000Y-35560000D03*
D14*
G04 #@! TO.P,J8,2*
G04 #@! TO.N,U_RX*
X86360000Y-33020000D03*
G04 #@! TO.P,J8,3*
G04 #@! TO.N,U_TX*
X86360000Y-30480000D03*
G04 #@! TD*
D11*
G04 #@! TO.P,J9,1*
G04 #@! TO.N,+3V3*
X160020000Y-64770000D03*
D14*
G04 #@! TO.P,J9,2*
G04 #@! TO.N,SPI0_CK*
X160020000Y-62230000D03*
G04 #@! TO.P,J9,3*
G04 #@! TO.N,SPI0_MOSI*
X160020000Y-59690000D03*
G04 #@! TO.P,J9,4*
G04 #@! TO.N,SPI0_MISO*
X160020000Y-57150000D03*
G04 #@! TO.P,J9,5*
G04 #@! TO.N,SPI0_CS1*
X160020000Y-54610000D03*
G04 #@! TO.P,J9,6*
G04 #@! TO.N,GND*
X160020000Y-52070000D03*
G04 #@! TD*
D11*
G04 #@! TO.P,J10,1*
G04 #@! TO.N,+3V3*
X149860000Y-64770000D03*
D14*
G04 #@! TO.P,J10,2*
G04 #@! TO.N,SPI0_CK*
X149860000Y-62230000D03*
G04 #@! TO.P,J10,3*
G04 #@! TO.N,SPI0_MOSI*
X149860000Y-59690000D03*
G04 #@! TO.P,J10,4*
G04 #@! TO.N,SPI0_MISO*
X149860000Y-57150000D03*
G04 #@! TO.P,J10,5*
G04 #@! TO.N,SPI0_CS2*
X149860000Y-54610000D03*
G04 #@! TO.P,J10,6*
G04 #@! TO.N,GND*
X149860000Y-52070000D03*
G04 #@! TD*
D11*
G04 #@! TO.P,J11,1*
G04 #@! TO.N,GND*
X149860000Y-36830000D03*
D14*
G04 #@! TO.P,J11,2*
G04 #@! TO.N,GP21*
X147320000Y-36830000D03*
G04 #@! TO.P,J11,3*
G04 #@! TO.N,GP22*
X144780000Y-36830000D03*
G04 #@! TO.P,J11,4*
G04 #@! TO.N,GP28*
X142240000Y-36830000D03*
G04 #@! TO.P,J11,5*
G04 #@! TO.N,+3V3*
X139700000Y-36830000D03*
G04 #@! TD*
D11*
G04 #@! TO.P,J12,1*
G04 #@! TO.N,+3V3*
X96520000Y-60960000D03*
D14*
G04 #@! TO.P,J12,2*
G04 #@! TO.N,SPI1_CK_GP10*
X96520000Y-63500000D03*
G04 #@! TO.P,J12,3*
G04 #@! TO.N,SPI1_MOSI_GP11*
X96520000Y-66040000D03*
G04 #@! TO.P,J12,4*
G04 #@! TO.N,SPI1_MISO_GP12*
X96520000Y-68580000D03*
G04 #@! TO.P,J12,5*
G04 #@! TO.N,SPI1_CS1_GP13*
X96520000Y-71120000D03*
G04 #@! TO.P,J12,6*
G04 #@! TO.N,GND*
X96520000Y-73660000D03*
G04 #@! TD*
D15*
G04 #@! TO.N,GP9*
G04 #@! TO.C,R2*
G36*
X93347905Y-84569004D02*
X93372173Y-84572604D01*
X93395972Y-84578565D01*
X93419071Y-84586830D01*
X93441250Y-84597320D01*
X93462293Y-84609932D01*
X93481999Y-84624547D01*
X93500177Y-84641023D01*
X93516653Y-84659201D01*
X93531268Y-84678907D01*
X93543880Y-84699950D01*
X93554370Y-84722129D01*
X93562635Y-84745228D01*
X93568596Y-84769027D01*
X93572196Y-84793295D01*
X93573400Y-84817799D01*
X93573400Y-85717801D01*
X93572196Y-85742305D01*
X93568596Y-85766573D01*
X93562635Y-85790372D01*
X93554370Y-85813471D01*
X93543880Y-85835650D01*
X93531268Y-85856693D01*
X93516653Y-85876399D01*
X93500177Y-85894577D01*
X93481999Y-85911053D01*
X93462293Y-85925668D01*
X93441250Y-85938280D01*
X93419071Y-85948770D01*
X93395972Y-85957035D01*
X93372173Y-85962996D01*
X93347905Y-85966596D01*
X93323401Y-85967800D01*
X92673399Y-85967800D01*
X92648895Y-85966596D01*
X92624627Y-85962996D01*
X92600828Y-85957035D01*
X92577729Y-85948770D01*
X92555550Y-85938280D01*
X92534507Y-85925668D01*
X92514801Y-85911053D01*
X92496623Y-85894577D01*
X92480147Y-85876399D01*
X92465532Y-85856693D01*
X92452920Y-85835650D01*
X92442430Y-85813471D01*
X92434165Y-85790372D01*
X92428204Y-85766573D01*
X92424604Y-85742305D01*
X92423400Y-85717801D01*
X92423400Y-84817799D01*
X92424604Y-84793295D01*
X92428204Y-84769027D01*
X92434165Y-84745228D01*
X92442430Y-84722129D01*
X92452920Y-84699950D01*
X92465532Y-84678907D01*
X92480147Y-84659201D01*
X92496623Y-84641023D01*
X92514801Y-84624547D01*
X92534507Y-84609932D01*
X92555550Y-84597320D01*
X92577729Y-84586830D01*
X92600828Y-84578565D01*
X92624627Y-84572604D01*
X92648895Y-84569004D01*
X92673399Y-84567800D01*
X93323401Y-84567800D01*
X93347905Y-84569004D01*
X93347905Y-84569004D01*
G37*
D16*
G04 #@! TD*
G04 #@! TO.P,R2,2*
G04 #@! TO.N,GP9*
X92998400Y-85267800D03*
D15*
G04 #@! TO.N,+3V3*
G04 #@! TO.C,R2*
G36*
X91297905Y-84569004D02*
X91322173Y-84572604D01*
X91345972Y-84578565D01*
X91369071Y-84586830D01*
X91391250Y-84597320D01*
X91412293Y-84609932D01*
X91431999Y-84624547D01*
X91450177Y-84641023D01*
X91466653Y-84659201D01*
X91481268Y-84678907D01*
X91493880Y-84699950D01*
X91504370Y-84722129D01*
X91512635Y-84745228D01*
X91518596Y-84769027D01*
X91522196Y-84793295D01*
X91523400Y-84817799D01*
X91523400Y-85717801D01*
X91522196Y-85742305D01*
X91518596Y-85766573D01*
X91512635Y-85790372D01*
X91504370Y-85813471D01*
X91493880Y-85835650D01*
X91481268Y-85856693D01*
X91466653Y-85876399D01*
X91450177Y-85894577D01*
X91431999Y-85911053D01*
X91412293Y-85925668D01*
X91391250Y-85938280D01*
X91369071Y-85948770D01*
X91345972Y-85957035D01*
X91322173Y-85962996D01*
X91297905Y-85966596D01*
X91273401Y-85967800D01*
X90623399Y-85967800D01*
X90598895Y-85966596D01*
X90574627Y-85962996D01*
X90550828Y-85957035D01*
X90527729Y-85948770D01*
X90505550Y-85938280D01*
X90484507Y-85925668D01*
X90464801Y-85911053D01*
X90446623Y-85894577D01*
X90430147Y-85876399D01*
X90415532Y-85856693D01*
X90402920Y-85835650D01*
X90392430Y-85813471D01*
X90384165Y-85790372D01*
X90378204Y-85766573D01*
X90374604Y-85742305D01*
X90373400Y-85717801D01*
X90373400Y-84817799D01*
X90374604Y-84793295D01*
X90378204Y-84769027D01*
X90384165Y-84745228D01*
X90392430Y-84722129D01*
X90402920Y-84699950D01*
X90415532Y-84678907D01*
X90430147Y-84659201D01*
X90446623Y-84641023D01*
X90464801Y-84624547D01*
X90484507Y-84609932D01*
X90505550Y-84597320D01*
X90527729Y-84586830D01*
X90550828Y-84578565D01*
X90574627Y-84572604D01*
X90598895Y-84569004D01*
X90623399Y-84567800D01*
X91273401Y-84567800D01*
X91297905Y-84569004D01*
X91297905Y-84569004D01*
G37*
D16*
G04 #@! TD*
G04 #@! TO.P,R2,1*
G04 #@! TO.N,+3V3*
X90948400Y-85267800D03*
D15*
G04 #@! TO.N,+3V3*
G04 #@! TO.C,R3*
G36*
X107722705Y-84645204D02*
X107746973Y-84648804D01*
X107770772Y-84654765D01*
X107793871Y-84663030D01*
X107816050Y-84673520D01*
X107837093Y-84686132D01*
X107856799Y-84700747D01*
X107874977Y-84717223D01*
X107891453Y-84735401D01*
X107906068Y-84755107D01*
X107918680Y-84776150D01*
X107929170Y-84798329D01*
X107937435Y-84821428D01*
X107943396Y-84845227D01*
X107946996Y-84869495D01*
X107948200Y-84893999D01*
X107948200Y-85794001D01*
X107946996Y-85818505D01*
X107943396Y-85842773D01*
X107937435Y-85866572D01*
X107929170Y-85889671D01*
X107918680Y-85911850D01*
X107906068Y-85932893D01*
X107891453Y-85952599D01*
X107874977Y-85970777D01*
X107856799Y-85987253D01*
X107837093Y-86001868D01*
X107816050Y-86014480D01*
X107793871Y-86024970D01*
X107770772Y-86033235D01*
X107746973Y-86039196D01*
X107722705Y-86042796D01*
X107698201Y-86044000D01*
X107048199Y-86044000D01*
X107023695Y-86042796D01*
X106999427Y-86039196D01*
X106975628Y-86033235D01*
X106952529Y-86024970D01*
X106930350Y-86014480D01*
X106909307Y-86001868D01*
X106889601Y-85987253D01*
X106871423Y-85970777D01*
X106854947Y-85952599D01*
X106840332Y-85932893D01*
X106827720Y-85911850D01*
X106817230Y-85889671D01*
X106808965Y-85866572D01*
X106803004Y-85842773D01*
X106799404Y-85818505D01*
X106798200Y-85794001D01*
X106798200Y-84893999D01*
X106799404Y-84869495D01*
X106803004Y-84845227D01*
X106808965Y-84821428D01*
X106817230Y-84798329D01*
X106827720Y-84776150D01*
X106840332Y-84755107D01*
X106854947Y-84735401D01*
X106871423Y-84717223D01*
X106889601Y-84700747D01*
X106909307Y-84686132D01*
X106930350Y-84673520D01*
X106952529Y-84663030D01*
X106975628Y-84654765D01*
X106999427Y-84648804D01*
X107023695Y-84645204D01*
X107048199Y-84644000D01*
X107698201Y-84644000D01*
X107722705Y-84645204D01*
X107722705Y-84645204D01*
G37*
D16*
G04 #@! TD*
G04 #@! TO.P,R3,1*
G04 #@! TO.N,+3V3*
X107373200Y-85344000D03*
D15*
G04 #@! TO.N,GP8*
G04 #@! TO.C,R3*
G36*
X109772705Y-84645204D02*
X109796973Y-84648804D01*
X109820772Y-84654765D01*
X109843871Y-84663030D01*
X109866050Y-84673520D01*
X109887093Y-84686132D01*
X109906799Y-84700747D01*
X109924977Y-84717223D01*
X109941453Y-84735401D01*
X109956068Y-84755107D01*
X109968680Y-84776150D01*
X109979170Y-84798329D01*
X109987435Y-84821428D01*
X109993396Y-84845227D01*
X109996996Y-84869495D01*
X109998200Y-84893999D01*
X109998200Y-85794001D01*
X109996996Y-85818505D01*
X109993396Y-85842773D01*
X109987435Y-85866572D01*
X109979170Y-85889671D01*
X109968680Y-85911850D01*
X109956068Y-85932893D01*
X109941453Y-85952599D01*
X109924977Y-85970777D01*
X109906799Y-85987253D01*
X109887093Y-86001868D01*
X109866050Y-86014480D01*
X109843871Y-86024970D01*
X109820772Y-86033235D01*
X109796973Y-86039196D01*
X109772705Y-86042796D01*
X109748201Y-86044000D01*
X109098199Y-86044000D01*
X109073695Y-86042796D01*
X109049427Y-86039196D01*
X109025628Y-86033235D01*
X109002529Y-86024970D01*
X108980350Y-86014480D01*
X108959307Y-86001868D01*
X108939601Y-85987253D01*
X108921423Y-85970777D01*
X108904947Y-85952599D01*
X108890332Y-85932893D01*
X108877720Y-85911850D01*
X108867230Y-85889671D01*
X108858965Y-85866572D01*
X108853004Y-85842773D01*
X108849404Y-85818505D01*
X108848200Y-85794001D01*
X108848200Y-84893999D01*
X108849404Y-84869495D01*
X108853004Y-84845227D01*
X108858965Y-84821428D01*
X108867230Y-84798329D01*
X108877720Y-84776150D01*
X108890332Y-84755107D01*
X108904947Y-84735401D01*
X108921423Y-84717223D01*
X108939601Y-84700747D01*
X108959307Y-84686132D01*
X108980350Y-84673520D01*
X109002529Y-84663030D01*
X109025628Y-84654765D01*
X109049427Y-84648804D01*
X109073695Y-84645204D01*
X109098199Y-84644000D01*
X109748201Y-84644000D01*
X109772705Y-84645204D01*
X109772705Y-84645204D01*
G37*
D16*
G04 #@! TD*
G04 #@! TO.P,R3,2*
G04 #@! TO.N,GP8*
X109423200Y-85344000D03*
D15*
G04 #@! TO.N,Net-(D2-Pad2)*
G04 #@! TO.C,R4*
G36*
X98883505Y-39433204D02*
X98907773Y-39436804D01*
X98931572Y-39442765D01*
X98954671Y-39451030D01*
X98976850Y-39461520D01*
X98997893Y-39474132D01*
X99017599Y-39488747D01*
X99035777Y-39505223D01*
X99052253Y-39523401D01*
X99066868Y-39543107D01*
X99079480Y-39564150D01*
X99089970Y-39586329D01*
X99098235Y-39609428D01*
X99104196Y-39633227D01*
X99107796Y-39657495D01*
X99109000Y-39681999D01*
X99109000Y-40582001D01*
X99107796Y-40606505D01*
X99104196Y-40630773D01*
X99098235Y-40654572D01*
X99089970Y-40677671D01*
X99079480Y-40699850D01*
X99066868Y-40720893D01*
X99052253Y-40740599D01*
X99035777Y-40758777D01*
X99017599Y-40775253D01*
X98997893Y-40789868D01*
X98976850Y-40802480D01*
X98954671Y-40812970D01*
X98931572Y-40821235D01*
X98907773Y-40827196D01*
X98883505Y-40830796D01*
X98859001Y-40832000D01*
X98208999Y-40832000D01*
X98184495Y-40830796D01*
X98160227Y-40827196D01*
X98136428Y-40821235D01*
X98113329Y-40812970D01*
X98091150Y-40802480D01*
X98070107Y-40789868D01*
X98050401Y-40775253D01*
X98032223Y-40758777D01*
X98015747Y-40740599D01*
X98001132Y-40720893D01*
X97988520Y-40699850D01*
X97978030Y-40677671D01*
X97969765Y-40654572D01*
X97963804Y-40630773D01*
X97960204Y-40606505D01*
X97959000Y-40582001D01*
X97959000Y-39681999D01*
X97960204Y-39657495D01*
X97963804Y-39633227D01*
X97969765Y-39609428D01*
X97978030Y-39586329D01*
X97988520Y-39564150D01*
X98001132Y-39543107D01*
X98015747Y-39523401D01*
X98032223Y-39505223D01*
X98050401Y-39488747D01*
X98070107Y-39474132D01*
X98091150Y-39461520D01*
X98113329Y-39451030D01*
X98136428Y-39442765D01*
X98160227Y-39436804D01*
X98184495Y-39433204D01*
X98208999Y-39432000D01*
X98859001Y-39432000D01*
X98883505Y-39433204D01*
X98883505Y-39433204D01*
G37*
D16*
G04 #@! TD*
G04 #@! TO.P,R4,1*
G04 #@! TO.N,Net-(D2-Pad2)*
X98534000Y-40132000D03*
D15*
G04 #@! TO.N,LED0*
G04 #@! TO.C,R4*
G36*
X100933505Y-39433204D02*
X100957773Y-39436804D01*
X100981572Y-39442765D01*
X101004671Y-39451030D01*
X101026850Y-39461520D01*
X101047893Y-39474132D01*
X101067599Y-39488747D01*
X101085777Y-39505223D01*
X101102253Y-39523401D01*
X101116868Y-39543107D01*
X101129480Y-39564150D01*
X101139970Y-39586329D01*
X101148235Y-39609428D01*
X101154196Y-39633227D01*
X101157796Y-39657495D01*
X101159000Y-39681999D01*
X101159000Y-40582001D01*
X101157796Y-40606505D01*
X101154196Y-40630773D01*
X101148235Y-40654572D01*
X101139970Y-40677671D01*
X101129480Y-40699850D01*
X101116868Y-40720893D01*
X101102253Y-40740599D01*
X101085777Y-40758777D01*
X101067599Y-40775253D01*
X101047893Y-40789868D01*
X101026850Y-40802480D01*
X101004671Y-40812970D01*
X100981572Y-40821235D01*
X100957773Y-40827196D01*
X100933505Y-40830796D01*
X100909001Y-40832000D01*
X100258999Y-40832000D01*
X100234495Y-40830796D01*
X100210227Y-40827196D01*
X100186428Y-40821235D01*
X100163329Y-40812970D01*
X100141150Y-40802480D01*
X100120107Y-40789868D01*
X100100401Y-40775253D01*
X100082223Y-40758777D01*
X100065747Y-40740599D01*
X100051132Y-40720893D01*
X100038520Y-40699850D01*
X100028030Y-40677671D01*
X100019765Y-40654572D01*
X100013804Y-40630773D01*
X100010204Y-40606505D01*
X100009000Y-40582001D01*
X100009000Y-39681999D01*
X100010204Y-39657495D01*
X100013804Y-39633227D01*
X100019765Y-39609428D01*
X100028030Y-39586329D01*
X100038520Y-39564150D01*
X100051132Y-39543107D01*
X100065747Y-39523401D01*
X100082223Y-39505223D01*
X100100401Y-39488747D01*
X100120107Y-39474132D01*
X100141150Y-39461520D01*
X100163329Y-39451030D01*
X100186428Y-39442765D01*
X100210227Y-39436804D01*
X100234495Y-39433204D01*
X100258999Y-39432000D01*
X100909001Y-39432000D01*
X100933505Y-39433204D01*
X100933505Y-39433204D01*
G37*
D16*
G04 #@! TD*
G04 #@! TO.P,R4,2*
G04 #@! TO.N,LED0*
X100584000Y-40132000D03*
D14*
G04 #@! TO.P,J13,3*
G04 #@! TO.N,+3V3*
X81280000Y-68580000D03*
G04 #@! TO.P,J13,2*
X81280000Y-66040000D03*
D11*
G04 #@! TO.P,J13,1*
X81280000Y-63500000D03*
G04 #@! TD*
G04 #@! TO.P,J14,1*
G04 #@! TO.N,+5V*
X142748000Y-27940000D03*
D14*
G04 #@! TO.P,J14,2*
X145288000Y-27940000D03*
G04 #@! TO.P,J14,3*
X147828000Y-27940000D03*
G04 #@! TD*
D11*
G04 #@! TO.P,J15,1*
G04 #@! TO.N,GND*
X161290000Y-27940000D03*
D14*
G04 #@! TO.P,J15,2*
X158750000Y-27940000D03*
G04 #@! TO.P,J15,3*
X156210000Y-27940000D03*
G04 #@! TD*
D11*
G04 #@! TO.P,J16,1*
G04 #@! TO.N,GND*
X88900000Y-63500000D03*
D14*
G04 #@! TO.P,J16,2*
X88900000Y-66040000D03*
G04 #@! TO.P,J16,3*
X88900000Y-68580000D03*
G04 #@! TD*
G04 #@! TO.P,J17,3*
G04 #@! TO.N,+3V3*
X167640000Y-57150000D03*
G04 #@! TO.P,J17,2*
X167640000Y-54610000D03*
D11*
G04 #@! TO.P,J17,1*
X167640000Y-52070000D03*
G04 #@! TD*
G04 #@! TO.P,J18,1*
G04 #@! TO.N,GND*
X81280000Y-82550000D03*
D14*
G04 #@! TO.P,J18,2*
G04 #@! TO.N,GP7*
X81280000Y-80010000D03*
G04 #@! TO.P,J18,3*
G04 #@! TO.N,GP6*
X81280000Y-77470000D03*
G04 #@! TD*
D19*
G04 #@! TO.P,D1,1*
G04 #@! TO.N,+5V*
X114803800Y-83972400D03*
G04 #@! TO.P,D1,2*
G04 #@! TO.N,+5VD*
X118803800Y-83972400D03*
G04 #@! TD*
D20*
G04 #@! TO.P,SW1,2*
G04 #@! TO.N,GND*
X140974200Y-51104800D03*
G04 #@! TO.P,SW1,1*
G04 #@! TO.N,RUN*
X136474200Y-51104800D03*
G04 #@! TO.P,SW1,2*
G04 #@! TO.N,GND*
X140974200Y-44604800D03*
G04 #@! TO.P,SW1,1*
G04 #@! TO.N,RUN*
X136474200Y-44604800D03*
G04 #@! TD*
G04 #@! TO.P,SW2,1*
G04 #@! TO.N,GP9*
X92860000Y-90805000D03*
G04 #@! TO.P,SW2,2*
G04 #@! TO.N,GND*
X92860000Y-95305000D03*
G04 #@! TO.P,SW2,1*
G04 #@! TO.N,GP9*
X86360000Y-90805000D03*
G04 #@! TO.P,SW2,2*
G04 #@! TO.N,GND*
X86360000Y-95305000D03*
G04 #@! TD*
G04 #@! TO.P,SW3,2*
G04 #@! TO.N,GND*
X102870000Y-95305000D03*
G04 #@! TO.P,SW3,1*
G04 #@! TO.N,GP8*
X102870000Y-90805000D03*
G04 #@! TO.P,SW3,2*
G04 #@! TO.N,GND*
X109370000Y-95305000D03*
G04 #@! TO.P,SW3,1*
G04 #@! TO.N,GP8*
X109370000Y-90805000D03*
G04 #@! TD*
D13*
G04 #@! TO.P,C2,1*
G04 #@! TO.N,+3V3*
X166624000Y-69596000D03*
D12*
G04 #@! TO.P,C2,2*
G04 #@! TO.N,GND*
X169124000Y-69596000D03*
G04 #@! TD*
D13*
G04 #@! TO.P,C3,1*
G04 #@! TO.N,+3V3*
X98044000Y-82296000D03*
D12*
G04 #@! TO.P,C3,2*
G04 #@! TO.N,GND*
X98044000Y-84796000D03*
G04 #@! TD*
D21*
G04 #@! TO.P,D2,1*
G04 #@! TO.N,GND*
X91440000Y-40132000D03*
D22*
G04 #@! TO.P,D2,2*
G04 #@! TO.N,Net-(D2-Pad2)*
X93980000Y-40132000D03*
G04 #@! TD*
D23*
G04 #@! TO.N,GND*
X148894800Y-51104800D02*
X149860000Y-52070000D01*
X140974200Y-51104800D02*
X148894800Y-51104800D01*
X107089000Y-70612000D02*
X108839000Y-70612000D01*
X105988998Y-70612000D02*
X107089000Y-70612000D01*
X102940998Y-73660000D02*
X105988998Y-70612000D01*
X96520000Y-73660000D02*
X102940998Y-73660000D01*
D24*
G04 #@! TO.N,RUN*
X136474200Y-51104800D02*
X136474200Y-44604800D01*
G04 #@! TO.N,MODE*
X108407200Y-34620200D02*
X108839000Y-35052000D01*
X98272600Y-34620200D02*
X108407200Y-34620200D01*
X99992400Y-32900400D02*
X99992400Y-29870400D01*
X98272600Y-34620200D02*
X99992400Y-32900400D01*
D25*
G04 #@! TO.N,+5V*
X113138999Y-47846201D02*
X122885200Y-38100000D01*
X113138999Y-80907599D02*
X113138999Y-47846201D01*
X124917200Y-29972000D02*
X125416919Y-29972000D01*
X122885200Y-38100000D02*
X122885200Y-32004000D01*
X114303800Y-82072400D02*
X113138999Y-80907599D01*
X122885200Y-32004000D02*
X124917200Y-29972000D01*
X125416919Y-29972000D02*
X126619000Y-29972000D01*
X114303800Y-83972400D02*
X114303800Y-82072400D01*
X134159998Y-28448000D02*
X134620000Y-28448000D01*
X132635998Y-29972000D02*
X134159998Y-28448000D01*
X126619000Y-29972000D02*
X132635998Y-29972000D01*
X142240000Y-28448000D02*
X142748000Y-27940000D01*
X134620000Y-28448000D02*
X142240000Y-28448000D01*
X142748000Y-27940000D02*
X145288000Y-27940000D01*
X145288000Y-27940000D02*
X147828000Y-27940000D01*
G04 #@! TO.N,+5VD*
X119862600Y-84531200D02*
X119303800Y-83972400D01*
X119862600Y-89662000D02*
X119862600Y-84531200D01*
D24*
G04 #@! TO.N,SWCLK*
X115189000Y-77952002D02*
X115189000Y-75462000D01*
X116198999Y-78962001D02*
X115189000Y-77952002D01*
X118689001Y-78962001D02*
X116198999Y-78962001D01*
X122402600Y-82675600D02*
X118689001Y-78962001D01*
X122402600Y-89662000D02*
X122402600Y-82675600D01*
G04 #@! TO.N,SWDIO*
X124942600Y-80135600D02*
X120269000Y-75462000D01*
X124942600Y-89662000D02*
X124942600Y-80135600D01*
D23*
G04 #@! TO.N,+3V3*
X138938000Y-37592000D02*
X139700000Y-36830000D01*
X126619000Y-37592000D02*
X138938000Y-37592000D01*
X139700000Y-35627919D02*
X142561919Y-32766000D01*
X139700000Y-36830000D02*
X139700000Y-35627919D01*
X142561919Y-32766000D02*
X167919400Y-32766000D01*
X167919400Y-32766000D02*
X170611800Y-35458400D01*
X167640000Y-50320000D02*
X167640000Y-52070000D01*
X170611800Y-47348200D02*
X167640000Y-50320000D01*
X170611800Y-35458400D02*
X170611800Y-47348200D01*
X167640000Y-52070000D02*
X167640000Y-54610000D01*
X167640000Y-54610000D02*
X167640000Y-57150000D01*
X167640000Y-58900000D02*
X167640000Y-58352081D01*
X167640000Y-58352081D02*
X167640000Y-57150000D01*
X161770000Y-64770000D02*
X167640000Y-58900000D01*
X160020000Y-64770000D02*
X161770000Y-64770000D01*
X167640000Y-43180000D02*
X166370000Y-41910000D01*
X167640000Y-52070000D02*
X167640000Y-43180000D01*
X150737920Y-77310001D02*
X164294799Y-77310001D01*
X148590000Y-73960000D02*
X148590000Y-75162081D01*
X148590000Y-75162081D02*
X150737920Y-77310001D01*
X97267400Y-29870400D02*
X94575000Y-27178000D01*
X97942400Y-29870400D02*
X97267400Y-29870400D01*
X86849998Y-27178000D02*
X75742800Y-38285198D01*
X94575000Y-27178000D02*
X86849998Y-27178000D01*
X75742800Y-92140798D02*
X83982802Y-100380800D01*
X132224990Y-95105010D02*
X150462190Y-95105010D01*
X126949200Y-100380800D02*
X132224990Y-95105010D01*
X96520000Y-46228000D02*
X88900000Y-46228000D01*
X88900000Y-46228000D02*
X81280000Y-46228000D01*
X81280000Y-43822398D02*
X75742800Y-38285198D01*
X81280000Y-46228000D02*
X81280000Y-43822398D01*
X81280000Y-61750000D02*
X81280000Y-63500000D01*
X82070000Y-60960000D02*
X81280000Y-61750000D01*
X96520000Y-60960000D02*
X82070000Y-60960000D01*
X81280000Y-66040000D02*
X81280000Y-63500000D01*
X81280000Y-68580000D02*
X81280000Y-66040000D01*
X81280000Y-71755000D02*
X75742800Y-77292200D01*
X81280000Y-68580000D02*
X81280000Y-71755000D01*
X75742800Y-38285198D02*
X75742800Y-77292200D01*
X75742800Y-77292200D02*
X75742800Y-92140798D01*
X90948400Y-85267800D02*
X90948400Y-78248400D01*
X105296998Y-85344000D02*
X97866200Y-92774798D01*
X107373200Y-85344000D02*
X105296998Y-85344000D01*
X97866200Y-92774798D02*
X97866200Y-100380800D01*
X83982802Y-100380800D02*
X97866200Y-100380800D01*
X97866200Y-100380800D02*
X126949200Y-100380800D01*
X166624000Y-74980800D02*
X166624000Y-69596000D01*
X164294799Y-77310001D02*
X166624000Y-74980800D01*
X164924000Y-69596000D02*
X166624000Y-69596000D01*
X163096000Y-69596000D02*
X164924000Y-69596000D01*
X160020000Y-66520000D02*
X163096000Y-69596000D01*
X160020000Y-64770000D02*
X160020000Y-66520000D01*
X166624000Y-78943200D02*
X166624000Y-69596000D01*
X150462190Y-95105010D02*
X166624000Y-78943200D01*
X94996000Y-82296000D02*
X90424000Y-77724000D01*
X98044000Y-82296000D02*
X94996000Y-82296000D01*
X90948400Y-78248400D02*
X90424000Y-77724000D01*
X90424000Y-77724000D02*
X81280000Y-68580000D01*
D24*
G04 #@! TO.N,ADC0*
X128749002Y-50292000D02*
X132892800Y-46148202D01*
X126619000Y-50292000D02*
X128749002Y-50292000D01*
X132892800Y-46148202D02*
X132892800Y-44221400D01*
X134359401Y-42754799D02*
X154971999Y-42754799D01*
X132892800Y-44221400D02*
X134359401Y-42754799D01*
X154971999Y-42754799D02*
X156540200Y-44323000D01*
X161417000Y-44323000D02*
X166370000Y-39370000D01*
X156540200Y-44323000D02*
X161417000Y-44323000D01*
G04 #@! TO.N,AGND*
X128749002Y-45212000D02*
X133346402Y-40614600D01*
X126619000Y-45212000D02*
X128749002Y-45212000D01*
X153615400Y-40614600D02*
X157400000Y-36830000D01*
X157400000Y-36830000D02*
X158750000Y-36830000D01*
X133346402Y-40614600D02*
X153615400Y-40614600D01*
X158750000Y-36830000D02*
X166370000Y-36830000D01*
G04 #@! TO.N,ADC1*
X131992791Y-43848603D02*
X134134594Y-41706800D01*
X126619000Y-47752000D02*
X129971800Y-47752000D01*
X131992790Y-45731010D02*
X131992791Y-43848603D01*
X129971800Y-47752000D02*
X131992790Y-45731010D01*
X156413200Y-41706800D02*
X158750000Y-39370000D01*
X134134594Y-41706800D02*
X156413200Y-41706800D01*
G04 #@! TO.N,GP9*
X86360000Y-90805000D02*
X92860000Y-90805000D01*
X92998400Y-85267800D02*
X93621772Y-84644428D01*
X110041081Y-55372000D02*
X108839000Y-55372000D01*
X110539001Y-55869920D02*
X110041081Y-55372000D01*
X110539001Y-77116199D02*
X110539001Y-55869920D01*
X92860000Y-85406200D02*
X92998400Y-85267800D01*
X92860000Y-90805000D02*
X92860000Y-85406200D01*
X92998400Y-85267800D02*
X95614600Y-87884000D01*
X99771200Y-87884000D02*
X103632000Y-84023200D01*
X103010772Y-84644428D02*
X103632000Y-84023200D01*
X95614600Y-87884000D02*
X99771200Y-87884000D01*
X103632000Y-84023200D02*
X110539001Y-77116199D01*
G04 #@! TO.N,GP8*
X109688999Y-53681999D02*
X108839000Y-52832000D01*
X111439010Y-55102008D02*
X110019001Y-53681999D01*
X110019001Y-53681999D02*
X109688999Y-53681999D01*
X111439010Y-83328190D02*
X111439010Y-55102008D01*
X109423200Y-85344000D02*
X111439010Y-83328190D01*
X102870000Y-90805000D02*
X109370000Y-90805000D01*
X109370000Y-85397200D02*
X109423200Y-85344000D01*
X109370000Y-90805000D02*
X109370000Y-85397200D01*
G04 #@! TO.N,SCL_0*
X105156000Y-42672000D02*
X108839000Y-42672000D01*
X96520000Y-51308000D02*
X105156000Y-42672000D01*
X96520000Y-51308000D02*
X88900000Y-51308000D01*
X88900000Y-51308000D02*
X81280000Y-51308000D01*
G04 #@! TO.N,SDA_0*
X105156000Y-40132000D02*
X108839000Y-40132000D01*
X96520000Y-48768000D02*
X105156000Y-40132000D01*
X96520000Y-48768000D02*
X88900000Y-48768000D01*
X87697919Y-48768000D02*
X81280000Y-48768000D01*
X88900000Y-48768000D02*
X87697919Y-48768000D01*
G04 #@! TO.N,SPI0_CS1*
X126619000Y-73152000D02*
X131013200Y-73152000D01*
X133919810Y-70245390D02*
X151445810Y-70245390D01*
X131013200Y-73152000D02*
X133919810Y-70245390D01*
X151445810Y-70245390D02*
X154279600Y-67411600D01*
X154279600Y-67411600D02*
X154279600Y-56642000D01*
X156311600Y-54610000D02*
X160020000Y-54610000D01*
X154279600Y-56642000D02*
X156311600Y-54610000D01*
G04 #@! TO.N,SPI0_MISO*
X160020000Y-57150000D02*
X157454600Y-57150000D01*
X157454600Y-57150000D02*
X155244800Y-59359800D01*
X155244800Y-59359800D02*
X155244800Y-68173600D01*
X155244800Y-68173600D02*
X152273000Y-71145400D01*
X152273000Y-71145400D02*
X135458200Y-71145400D01*
X130911600Y-75692000D02*
X126619000Y-75692000D01*
X135458200Y-71145400D02*
X130911600Y-75692000D01*
G04 #@! TO.N,SPI0_MOSI*
X126619000Y-65532000D02*
X137033000Y-65532000D01*
X142875000Y-59690000D02*
X149860000Y-59690000D01*
X137033000Y-65532000D02*
X142875000Y-59690000D01*
G04 #@! TO.N,SPI0_CK*
X126619000Y-68072000D02*
X138404600Y-68072000D01*
X144246600Y-62230000D02*
X149860000Y-62230000D01*
X138404600Y-68072000D02*
X144246600Y-62230000D01*
G04 #@! TO.N,GP28*
X126619000Y-42672000D02*
X129159000Y-42672000D01*
X129159000Y-42672000D02*
X132562600Y-39268400D01*
X139801600Y-39268400D02*
X142240000Y-36830000D01*
X132562600Y-39268400D02*
X139801600Y-39268400D01*
G04 #@! TO.N,SPI1_CK_GP10*
X107636919Y-60452000D02*
X108839000Y-60452000D01*
X106708998Y-60452000D02*
X107636919Y-60452000D01*
X103660998Y-63500000D02*
X106708998Y-60452000D01*
X96520000Y-63500000D02*
X103660998Y-63500000D01*
G04 #@! TO.N,SPI1_MOSI_GP11*
X106708998Y-62992000D02*
X107636919Y-62992000D01*
X103660998Y-66040000D02*
X106708998Y-62992000D01*
X107636919Y-62992000D02*
X108839000Y-62992000D01*
X96520000Y-66040000D02*
X103660998Y-66040000D01*
G04 #@! TO.N,SPI1_MISO_GP12*
X106708998Y-65532000D02*
X107636919Y-65532000D01*
X107636919Y-65532000D02*
X108839000Y-65532000D01*
X103660998Y-68580000D02*
X106708998Y-65532000D01*
X96520000Y-68580000D02*
X103660998Y-68580000D01*
G04 #@! TO.N,SPI1_CS1_GP13*
X103300998Y-71120000D02*
X106348998Y-68072000D01*
X107636919Y-68072000D02*
X108839000Y-68072000D01*
X106348998Y-68072000D02*
X107636919Y-68072000D01*
X96520000Y-71120000D02*
X103300998Y-71120000D01*
G04 #@! TO.N,Net-(D2-Pad2)*
X98534000Y-40132000D02*
X93980000Y-40132000D01*
G04 #@! TO.N,LED0*
X103149400Y-37592000D02*
X108839000Y-37592000D01*
X101207372Y-39508628D02*
X101232772Y-39508628D01*
X101232772Y-39508628D02*
X103149400Y-37592000D01*
X100584000Y-40132000D02*
X101207372Y-39508628D01*
G04 #@! TD*
D26*
G04 #@! TO.N,+3V3*
G36*
X105504182Y-26298339D02*
X105447758Y-26582000D01*
X105447758Y-28282000D01*
X105504182Y-28565661D01*
X105595281Y-28702000D01*
X105504182Y-28838339D01*
X105447758Y-29122000D01*
X105447758Y-30822000D01*
X105504182Y-31105661D01*
X105595281Y-31242000D01*
X105504182Y-31378339D01*
X105447758Y-31662000D01*
X105447758Y-33362000D01*
X105503692Y-33643200D01*
X100639273Y-33643200D01*
X100696777Y-33604777D01*
X100912713Y-33281606D01*
X100969400Y-32996623D01*
X100969400Y-32996619D01*
X100988539Y-32900401D01*
X100969400Y-32804183D01*
X100969400Y-31053997D01*
X101018314Y-31021314D01*
X101233188Y-30699733D01*
X101308642Y-30320401D01*
X101308642Y-29420399D01*
X101233188Y-29041067D01*
X101018314Y-28719486D01*
X100696733Y-28504612D01*
X100317401Y-28429158D01*
X99667399Y-28429158D01*
X99288067Y-28504612D01*
X98966486Y-28719486D01*
X98965695Y-28720670D01*
X98877098Y-28632073D01*
X98643709Y-28535400D01*
X98228150Y-28535400D01*
X98069400Y-28694150D01*
X98069400Y-29743400D01*
X98089400Y-29743400D01*
X98089400Y-29997400D01*
X98069400Y-29997400D01*
X98069400Y-31046650D01*
X98228150Y-31205400D01*
X98643709Y-31205400D01*
X98877098Y-31108727D01*
X98965695Y-31020130D01*
X98966486Y-31021314D01*
X99015401Y-31053998D01*
X99015400Y-32495714D01*
X98461278Y-33049836D01*
X98427919Y-33043200D01*
X98117281Y-33043200D01*
X97657285Y-33134699D01*
X97225225Y-33423393D01*
X97106737Y-33246063D01*
X96866261Y-33085382D01*
X96582600Y-33028958D01*
X94882600Y-33028958D01*
X94598939Y-33085382D01*
X94358463Y-33246063D01*
X94197782Y-33486539D01*
X94141358Y-33770200D01*
X94141358Y-35470200D01*
X94197782Y-35753861D01*
X94358463Y-35994337D01*
X94598939Y-36155018D01*
X94882600Y-36211442D01*
X96582600Y-36211442D01*
X96866261Y-36155018D01*
X97106737Y-35994337D01*
X97225225Y-35817007D01*
X97657285Y-36105701D01*
X98117281Y-36197200D01*
X98427919Y-36197200D01*
X98887915Y-36105701D01*
X99409553Y-35757153D01*
X99516430Y-35597200D01*
X105447758Y-35597200D01*
X105447758Y-35902000D01*
X105504182Y-36185661D01*
X105595281Y-36322000D01*
X105504182Y-36458339D01*
X105473020Y-36615000D01*
X103245617Y-36615000D01*
X103149399Y-36595861D01*
X103053181Y-36615000D01*
X103053177Y-36615000D01*
X102768194Y-36671687D01*
X102768192Y-36671688D01*
X102768193Y-36671688D01*
X102526596Y-36833117D01*
X102526594Y-36833119D01*
X102445023Y-36887623D01*
X102390519Y-36969194D01*
X100668956Y-38690758D01*
X100258999Y-38690758D01*
X99879667Y-38766212D01*
X99559000Y-38980475D01*
X99238333Y-38766212D01*
X98859001Y-38690758D01*
X98208999Y-38690758D01*
X97829667Y-38766212D01*
X97508086Y-38981086D01*
X97391880Y-39155000D01*
X95303926Y-39155000D01*
X94901622Y-38752696D01*
X94303630Y-38505000D01*
X93656370Y-38505000D01*
X93058378Y-38752696D01*
X92959897Y-38851177D01*
X92864137Y-38707863D01*
X92623661Y-38547182D01*
X92340000Y-38490758D01*
X90540000Y-38490758D01*
X90256339Y-38547182D01*
X90015863Y-38707863D01*
X89855182Y-38948339D01*
X89798758Y-39232000D01*
X89798758Y-41032000D01*
X89855182Y-41315661D01*
X90015863Y-41556137D01*
X90256339Y-41716818D01*
X90540000Y-41773242D01*
X92340000Y-41773242D01*
X92623661Y-41716818D01*
X92864137Y-41556137D01*
X92959897Y-41412823D01*
X93058378Y-41511304D01*
X93656370Y-41759000D01*
X94303630Y-41759000D01*
X94901622Y-41511304D01*
X95303926Y-41109000D01*
X97391880Y-41109000D01*
X97508086Y-41282914D01*
X97829667Y-41497788D01*
X98208999Y-41573242D01*
X98859001Y-41573242D01*
X99238333Y-41497788D01*
X99559000Y-41283525D01*
X99879667Y-41497788D01*
X100258999Y-41573242D01*
X100909001Y-41573242D01*
X101288333Y-41497788D01*
X101609914Y-41282914D01*
X101824788Y-40961333D01*
X101900242Y-40582001D01*
X101900242Y-40237665D01*
X101937149Y-40213005D01*
X101991655Y-40131431D01*
X103554087Y-38569000D01*
X105473020Y-38569000D01*
X105504182Y-38725661D01*
X105595281Y-38862000D01*
X105504182Y-38998339D01*
X105473020Y-39155000D01*
X105252217Y-39155000D01*
X105155999Y-39135861D01*
X105059781Y-39155000D01*
X105059777Y-39155000D01*
X104774794Y-39211687D01*
X104693433Y-39266051D01*
X104533196Y-39373117D01*
X104533194Y-39373119D01*
X104451623Y-39427623D01*
X104397119Y-39509194D01*
X97879089Y-46027225D01*
X97961476Y-45871110D01*
X97791645Y-45461076D01*
X97401358Y-45032817D01*
X96876892Y-44786514D01*
X96647000Y-44907181D01*
X96647000Y-46101000D01*
X96667000Y-46101000D01*
X96667000Y-46355000D01*
X96647000Y-46355000D01*
X96647000Y-46375000D01*
X96393000Y-46375000D01*
X96393000Y-46355000D01*
X95199845Y-46355000D01*
X95078524Y-46584890D01*
X95248355Y-46994924D01*
X95638642Y-47423183D01*
X95671232Y-47438488D01*
X95383047Y-47631047D01*
X95276170Y-47791000D01*
X90143830Y-47791000D01*
X90036953Y-47631047D01*
X89748768Y-47438488D01*
X89781358Y-47423183D01*
X90171645Y-46994924D01*
X90341476Y-46584890D01*
X90220155Y-46355000D01*
X89027000Y-46355000D01*
X89027000Y-46375000D01*
X88773000Y-46375000D01*
X88773000Y-46355000D01*
X87579845Y-46355000D01*
X87458524Y-46584890D01*
X87628355Y-46994924D01*
X88018642Y-47423183D01*
X88051232Y-47438488D01*
X87763047Y-47631047D01*
X87656170Y-47791000D01*
X82523830Y-47791000D01*
X82416953Y-47631047D01*
X82128768Y-47438488D01*
X82161358Y-47423183D01*
X82551645Y-46994924D01*
X82721476Y-46584890D01*
X82600155Y-46355000D01*
X81407000Y-46355000D01*
X81407000Y-46375000D01*
X81153000Y-46375000D01*
X81153000Y-46355000D01*
X79959845Y-46355000D01*
X79838524Y-46584890D01*
X80008355Y-46994924D01*
X80398642Y-47423183D01*
X80431232Y-47438488D01*
X80143047Y-47631047D01*
X79794499Y-48152685D01*
X79672105Y-48768000D01*
X79794499Y-49383315D01*
X80143047Y-49904953D01*
X80342166Y-50038000D01*
X80143047Y-50171047D01*
X79794499Y-50692685D01*
X79672105Y-51308000D01*
X79794499Y-51923315D01*
X80083193Y-52355375D01*
X79905863Y-52473863D01*
X79745182Y-52714339D01*
X79688758Y-52998000D01*
X79688758Y-54698000D01*
X79745182Y-54981661D01*
X79905863Y-55222137D01*
X80146339Y-55382818D01*
X80430000Y-55439242D01*
X82130000Y-55439242D01*
X82413661Y-55382818D01*
X82654137Y-55222137D01*
X82814818Y-54981661D01*
X82871242Y-54698000D01*
X82871242Y-52998000D01*
X82814818Y-52714339D01*
X82654137Y-52473863D01*
X82476807Y-52355375D01*
X82523830Y-52285000D01*
X87656170Y-52285000D01*
X87703193Y-52355375D01*
X87525863Y-52473863D01*
X87365182Y-52714339D01*
X87308758Y-52998000D01*
X87308758Y-54698000D01*
X87365182Y-54981661D01*
X87525863Y-55222137D01*
X87766339Y-55382818D01*
X88050000Y-55439242D01*
X89750000Y-55439242D01*
X90033661Y-55382818D01*
X90274137Y-55222137D01*
X90434818Y-54981661D01*
X90491242Y-54698000D01*
X90491242Y-52998000D01*
X90434818Y-52714339D01*
X90274137Y-52473863D01*
X90096807Y-52355375D01*
X90143830Y-52285000D01*
X95276170Y-52285000D01*
X95323193Y-52355375D01*
X95145863Y-52473863D01*
X94985182Y-52714339D01*
X94928758Y-52998000D01*
X94928758Y-54698000D01*
X94985182Y-54981661D01*
X95145863Y-55222137D01*
X95386339Y-55382818D01*
X95670000Y-55439242D01*
X97370000Y-55439242D01*
X97653661Y-55382818D01*
X97894137Y-55222137D01*
X98054818Y-54981661D01*
X98111242Y-54698000D01*
X98111242Y-52998000D01*
X98054818Y-52714339D01*
X97894137Y-52473863D01*
X97716807Y-52355375D01*
X98005501Y-51923315D01*
X98127895Y-51308000D01*
X98090364Y-51119322D01*
X105487565Y-43722122D01*
X105504182Y-43805661D01*
X105595281Y-43942000D01*
X105504182Y-44078339D01*
X105447758Y-44362000D01*
X105447758Y-46062000D01*
X105504182Y-46345661D01*
X105595281Y-46482000D01*
X105504182Y-46618339D01*
X105447758Y-46902000D01*
X105447758Y-48602000D01*
X105504182Y-48885661D01*
X105595281Y-49022000D01*
X105504182Y-49158339D01*
X105447758Y-49442000D01*
X105447758Y-51142000D01*
X105504182Y-51425661D01*
X105595281Y-51562000D01*
X105504182Y-51698339D01*
X105447758Y-51982000D01*
X105447758Y-53682000D01*
X105504182Y-53965661D01*
X105595281Y-54102000D01*
X105504182Y-54238339D01*
X105447758Y-54522000D01*
X105447758Y-56222000D01*
X105504182Y-56505661D01*
X105595281Y-56642000D01*
X105504182Y-56778339D01*
X105447758Y-57062000D01*
X105447758Y-58762000D01*
X105504182Y-59045661D01*
X105595281Y-59182000D01*
X105504182Y-59318339D01*
X105447758Y-59602000D01*
X105447758Y-60331553D01*
X103256312Y-62523000D01*
X97763830Y-62523000D01*
X97665019Y-62375118D01*
X97729698Y-62348327D01*
X97908327Y-62169699D01*
X98005000Y-61936310D01*
X98005000Y-61245750D01*
X97846250Y-61087000D01*
X96647000Y-61087000D01*
X96647000Y-61107000D01*
X96393000Y-61107000D01*
X96393000Y-61087000D01*
X95193750Y-61087000D01*
X95035000Y-61245750D01*
X95035000Y-61936310D01*
X95131673Y-62169699D01*
X95310302Y-62348327D01*
X95374981Y-62375118D01*
X95034499Y-62884685D01*
X94912105Y-63500000D01*
X95034499Y-64115315D01*
X95383047Y-64636953D01*
X95582166Y-64770000D01*
X95383047Y-64903047D01*
X95034499Y-65424685D01*
X94912105Y-66040000D01*
X95034499Y-66655315D01*
X95383047Y-67176953D01*
X95582166Y-67310000D01*
X95383047Y-67443047D01*
X95034499Y-67964685D01*
X94912105Y-68580000D01*
X95034499Y-69195315D01*
X95383047Y-69716953D01*
X95582166Y-69850000D01*
X95383047Y-69983047D01*
X95034499Y-70504685D01*
X94912105Y-71120000D01*
X95034499Y-71735315D01*
X95383047Y-72256953D01*
X95582166Y-72390000D01*
X95383047Y-72523047D01*
X95034499Y-73044685D01*
X94912105Y-73660000D01*
X95034499Y-74275315D01*
X95383047Y-74796953D01*
X95904685Y-75145501D01*
X96364681Y-75237000D01*
X96675319Y-75237000D01*
X97135315Y-75145501D01*
X97597019Y-74837000D01*
X102825083Y-74837000D01*
X102940998Y-74860057D01*
X103056913Y-74837000D01*
X103056918Y-74837000D01*
X103400240Y-74768709D01*
X103789567Y-74508569D01*
X103855233Y-74410293D01*
X105447758Y-72817769D01*
X105447758Y-74002000D01*
X105504182Y-74285661D01*
X105595281Y-74422000D01*
X105504182Y-74558339D01*
X105447758Y-74842000D01*
X105447758Y-76542000D01*
X105504182Y-76825661D01*
X105664863Y-77066137D01*
X105905339Y-77226818D01*
X106189000Y-77283242D01*
X108990272Y-77283242D01*
X103009199Y-83264315D01*
X103009196Y-83264317D01*
X99366514Y-86907000D01*
X96019287Y-86907000D01*
X94380087Y-85267800D01*
X94380655Y-85267232D01*
X94542084Y-85025635D01*
X94617911Y-84644429D01*
X94587643Y-84492261D01*
X96517000Y-84492261D01*
X96517000Y-85099739D01*
X96749472Y-85660976D01*
X97179024Y-86090528D01*
X97740261Y-86323000D01*
X98347739Y-86323000D01*
X98908976Y-86090528D01*
X99338528Y-85660976D01*
X99571000Y-85099739D01*
X99571000Y-84492261D01*
X99338528Y-83931024D01*
X99089241Y-83681737D01*
X99203699Y-83634327D01*
X99382327Y-83455698D01*
X99479000Y-83222309D01*
X99479000Y-82581750D01*
X99320250Y-82423000D01*
X98171000Y-82423000D01*
X98171000Y-82443000D01*
X97917000Y-82443000D01*
X97917000Y-82423000D01*
X96767750Y-82423000D01*
X96609000Y-82581750D01*
X96609000Y-83222309D01*
X96705673Y-83455698D01*
X96884301Y-83634327D01*
X96998759Y-83681737D01*
X96749472Y-83931024D01*
X96517000Y-84492261D01*
X94587643Y-84492261D01*
X94542084Y-84263222D01*
X94326149Y-83940051D01*
X94002978Y-83724116D01*
X93621771Y-83648289D01*
X93240565Y-83724116D01*
X93087249Y-83826558D01*
X92673399Y-83826558D01*
X92294067Y-83902012D01*
X91972486Y-84116886D01*
X91971695Y-84118070D01*
X91883098Y-84029473D01*
X91649709Y-83932800D01*
X91234150Y-83932800D01*
X91075400Y-84091550D01*
X91075400Y-85140800D01*
X91095400Y-85140800D01*
X91095400Y-85394800D01*
X91075400Y-85394800D01*
X91075400Y-86444050D01*
X91234150Y-86602800D01*
X91649709Y-86602800D01*
X91883001Y-86506167D01*
X91883000Y-89340395D01*
X91881733Y-89340920D01*
X91395920Y-89826733D01*
X91395395Y-89828000D01*
X87824605Y-89828000D01*
X87824080Y-89826733D01*
X87338267Y-89340920D01*
X86703522Y-89078000D01*
X86016478Y-89078000D01*
X85381733Y-89340920D01*
X84895920Y-89826733D01*
X84633000Y-90461478D01*
X84633000Y-91148522D01*
X84895920Y-91783267D01*
X85381733Y-92269080D01*
X86016478Y-92532000D01*
X86703522Y-92532000D01*
X87338267Y-92269080D01*
X87824080Y-91783267D01*
X87824605Y-91782000D01*
X91395395Y-91782000D01*
X91395920Y-91783267D01*
X91881733Y-92269080D01*
X92516478Y-92532000D01*
X93203522Y-92532000D01*
X93838267Y-92269080D01*
X94324080Y-91783267D01*
X94587000Y-91148522D01*
X94587000Y-90461478D01*
X94324080Y-89826733D01*
X93838267Y-89340920D01*
X93837000Y-89340395D01*
X93837000Y-87488087D01*
X94855719Y-88506806D01*
X94910223Y-88588377D01*
X94991794Y-88642881D01*
X94991796Y-88642883D01*
X95233393Y-88804312D01*
X95233394Y-88804313D01*
X95518377Y-88861000D01*
X95518381Y-88861000D01*
X95614600Y-88880139D01*
X95710819Y-88861000D01*
X99674982Y-88861000D01*
X99771200Y-88880139D01*
X99867418Y-88861000D01*
X99867423Y-88861000D01*
X100152406Y-88804313D01*
X100475577Y-88588377D01*
X100530083Y-88506803D01*
X103407136Y-85629750D01*
X106163200Y-85629750D01*
X106163200Y-86170310D01*
X106259873Y-86403699D01*
X106438502Y-86582327D01*
X106671891Y-86679000D01*
X107087450Y-86679000D01*
X107246200Y-86520250D01*
X107246200Y-85471000D01*
X106321950Y-85471000D01*
X106163200Y-85629750D01*
X103407136Y-85629750D01*
X104390883Y-84646004D01*
X104390885Y-84646001D01*
X104519196Y-84517690D01*
X106163200Y-84517690D01*
X106163200Y-85058250D01*
X106321950Y-85217000D01*
X107246200Y-85217000D01*
X107246200Y-84167750D01*
X107087450Y-84009000D01*
X106671891Y-84009000D01*
X106438502Y-84105673D01*
X106259873Y-84284301D01*
X106163200Y-84517690D01*
X104519196Y-84517690D01*
X110462010Y-78574876D01*
X110462010Y-82923503D01*
X109482756Y-83902758D01*
X109098199Y-83902758D01*
X108718867Y-83978212D01*
X108397286Y-84193086D01*
X108396495Y-84194270D01*
X108307898Y-84105673D01*
X108074509Y-84009000D01*
X107658950Y-84009000D01*
X107500200Y-84167750D01*
X107500200Y-85217000D01*
X107520200Y-85217000D01*
X107520200Y-85471000D01*
X107500200Y-85471000D01*
X107500200Y-86520250D01*
X107658950Y-86679000D01*
X108074509Y-86679000D01*
X108307898Y-86582327D01*
X108393001Y-86497225D01*
X108393000Y-89340395D01*
X108391733Y-89340920D01*
X107905920Y-89826733D01*
X107905395Y-89828000D01*
X104334605Y-89828000D01*
X104334080Y-89826733D01*
X103848267Y-89340920D01*
X103213522Y-89078000D01*
X102526478Y-89078000D01*
X101891733Y-89340920D01*
X101405920Y-89826733D01*
X101143000Y-90461478D01*
X101143000Y-91148522D01*
X101405920Y-91783267D01*
X101891733Y-92269080D01*
X102526478Y-92532000D01*
X103213522Y-92532000D01*
X103848267Y-92269080D01*
X104334080Y-91783267D01*
X104334605Y-91782000D01*
X107905395Y-91782000D01*
X107905920Y-91783267D01*
X108391733Y-92269080D01*
X109026478Y-92532000D01*
X109713522Y-92532000D01*
X110348267Y-92269080D01*
X110834080Y-91783267D01*
X111097000Y-91148522D01*
X111097000Y-90461478D01*
X110834080Y-89826733D01*
X110348267Y-89340920D01*
X110347000Y-89340395D01*
X110347000Y-86563145D01*
X110449114Y-86494914D01*
X110663988Y-86173333D01*
X110739442Y-85794001D01*
X110739442Y-85409444D01*
X112061816Y-84087071D01*
X112143387Y-84032567D01*
X112197891Y-83950996D01*
X112197893Y-83950994D01*
X112359323Y-83709397D01*
X112374255Y-83634327D01*
X112416010Y-83424413D01*
X112416010Y-83424409D01*
X112435149Y-83328190D01*
X112416010Y-83231971D01*
X112416010Y-82061270D01*
X112906834Y-82552094D01*
X112774784Y-82749721D01*
X112710599Y-83072400D01*
X112710599Y-84872400D01*
X112774784Y-85195079D01*
X112957567Y-85468633D01*
X113231121Y-85651416D01*
X113553800Y-85715601D01*
X116053800Y-85715601D01*
X116376479Y-85651416D01*
X116650033Y-85468633D01*
X116803800Y-85238504D01*
X116957567Y-85468633D01*
X117231121Y-85651416D01*
X117553800Y-85715601D01*
X118535601Y-85715601D01*
X118535600Y-88136098D01*
X118416367Y-88215767D01*
X118233584Y-88489321D01*
X118169399Y-88812000D01*
X118169399Y-90512000D01*
X118233584Y-90834679D01*
X118416367Y-91108233D01*
X118689921Y-91291016D01*
X119012600Y-91355201D01*
X120712600Y-91355201D01*
X121035279Y-91291016D01*
X121308833Y-91108233D01*
X121438372Y-90914364D01*
X121787285Y-91147501D01*
X122247281Y-91239000D01*
X122557919Y-91239000D01*
X123017915Y-91147501D01*
X123539553Y-90798953D01*
X123672600Y-90599834D01*
X123805647Y-90798953D01*
X124327285Y-91147501D01*
X124787281Y-91239000D01*
X125097919Y-91239000D01*
X125557915Y-91147501D01*
X126079553Y-90798953D01*
X126212600Y-90599834D01*
X126345647Y-90798953D01*
X126867285Y-91147501D01*
X127327281Y-91239000D01*
X127637919Y-91239000D01*
X128097915Y-91147501D01*
X128619553Y-90798953D01*
X128968101Y-90277315D01*
X129090495Y-89662000D01*
X128968101Y-89046685D01*
X128619553Y-88525047D01*
X128097915Y-88176499D01*
X127637919Y-88085000D01*
X127327281Y-88085000D01*
X126867285Y-88176499D01*
X126345647Y-88525047D01*
X126212600Y-88724166D01*
X126079553Y-88525047D01*
X125919600Y-88418170D01*
X125919600Y-80231819D01*
X125938739Y-80135600D01*
X125919600Y-80039381D01*
X125919600Y-80039377D01*
X125862913Y-79754394D01*
X125729417Y-79554603D01*
X125701483Y-79512796D01*
X125701481Y-79512794D01*
X125646977Y-79431223D01*
X125565406Y-79376719D01*
X121860242Y-75671556D01*
X121860242Y-75545720D01*
X121876895Y-75462000D01*
X121860242Y-75378280D01*
X121860242Y-74612000D01*
X121803818Y-74328339D01*
X121643137Y-74087863D01*
X121402661Y-73927182D01*
X121119000Y-73870758D01*
X119419000Y-73870758D01*
X119135339Y-73927182D01*
X118999000Y-74018281D01*
X118862661Y-73927182D01*
X118579000Y-73870758D01*
X116879000Y-73870758D01*
X116595339Y-73927182D01*
X116459000Y-74018281D01*
X116322661Y-73927182D01*
X116039000Y-73870758D01*
X114465999Y-73870758D01*
X114465999Y-48395861D01*
X122729860Y-40132000D01*
X125011105Y-40132000D01*
X125027758Y-40215720D01*
X125027758Y-40982000D01*
X125084182Y-41265661D01*
X125175281Y-41402000D01*
X125084182Y-41538339D01*
X125027758Y-41822000D01*
X125027758Y-42588280D01*
X125011105Y-42672000D01*
X125027758Y-42755720D01*
X125027758Y-43522000D01*
X125084182Y-43805661D01*
X125175281Y-43942000D01*
X125084182Y-44078339D01*
X125027758Y-44362000D01*
X125027758Y-46062000D01*
X125084182Y-46345661D01*
X125175281Y-46482000D01*
X125084182Y-46618339D01*
X125027758Y-46902000D01*
X125027758Y-47668280D01*
X125011105Y-47752000D01*
X125027758Y-47835720D01*
X125027758Y-48602000D01*
X125084182Y-48885661D01*
X125175281Y-49022000D01*
X125084182Y-49158339D01*
X125027758Y-49442000D01*
X125027758Y-50208280D01*
X125011105Y-50292000D01*
X125027758Y-50375720D01*
X125027758Y-51142000D01*
X125084182Y-51425661D01*
X125175281Y-51562000D01*
X125084182Y-51698339D01*
X125027758Y-51982000D01*
X125027758Y-52748280D01*
X125011105Y-52832000D01*
X125027758Y-52915720D01*
X125027758Y-53682000D01*
X125084182Y-53965661D01*
X125175281Y-54102000D01*
X125084182Y-54238339D01*
X125027758Y-54522000D01*
X125027758Y-55288280D01*
X125011105Y-55372000D01*
X125027758Y-55455720D01*
X125027758Y-56222000D01*
X125084182Y-56505661D01*
X125175281Y-56642000D01*
X125084182Y-56778339D01*
X125027758Y-57062000D01*
X125027758Y-58762000D01*
X125084182Y-59045661D01*
X125175281Y-59182000D01*
X125084182Y-59318339D01*
X125027758Y-59602000D01*
X125027758Y-60368280D01*
X125011105Y-60452000D01*
X125027758Y-60535720D01*
X125027758Y-61302000D01*
X125084182Y-61585661D01*
X125175281Y-61722000D01*
X125084182Y-61858339D01*
X125027758Y-62142000D01*
X125027758Y-62908280D01*
X125011105Y-62992000D01*
X125027758Y-63075720D01*
X125027758Y-63842000D01*
X125084182Y-64125661D01*
X125175281Y-64262000D01*
X125084182Y-64398339D01*
X125027758Y-64682000D01*
X125027758Y-65448280D01*
X125011105Y-65532000D01*
X125027758Y-65615720D01*
X125027758Y-66382000D01*
X125084182Y-66665661D01*
X125175281Y-66802000D01*
X125084182Y-66938339D01*
X125027758Y-67222000D01*
X125027758Y-67988280D01*
X125011105Y-68072000D01*
X125027758Y-68155720D01*
X125027758Y-68922000D01*
X125084182Y-69205661D01*
X125175281Y-69342000D01*
X125084182Y-69478339D01*
X125027758Y-69762000D01*
X125027758Y-71462000D01*
X125084182Y-71745661D01*
X125175281Y-71882000D01*
X125084182Y-72018339D01*
X125027758Y-72302000D01*
X125027758Y-73068280D01*
X125011105Y-73152000D01*
X125027758Y-73235720D01*
X125027758Y-74002000D01*
X125084182Y-74285661D01*
X125175281Y-74422000D01*
X125084182Y-74558339D01*
X125027758Y-74842000D01*
X125027758Y-75608280D01*
X125011105Y-75692000D01*
X125027758Y-75775720D01*
X125027758Y-76542000D01*
X125084182Y-76825661D01*
X125244863Y-77066137D01*
X125485339Y-77226818D01*
X125769000Y-77283242D01*
X129269000Y-77283242D01*
X129552661Y-77226818D01*
X129793137Y-77066137D01*
X129953818Y-76825661D01*
X129984980Y-76669000D01*
X130815382Y-76669000D01*
X130911600Y-76688139D01*
X131007818Y-76669000D01*
X131007823Y-76669000D01*
X131292806Y-76612313D01*
X131615977Y-76396377D01*
X131670483Y-76314803D01*
X133968264Y-74017022D01*
X135983000Y-74017022D01*
X135983000Y-74902978D01*
X136322040Y-75721494D01*
X136948506Y-76347960D01*
X137767022Y-76687000D01*
X138652978Y-76687000D01*
X139471494Y-76347960D01*
X140097960Y-75721494D01*
X140437000Y-74902978D01*
X140437000Y-74017022D01*
X140097960Y-73198506D01*
X140009454Y-73110000D01*
X144458758Y-73110000D01*
X144458758Y-74810000D01*
X144515182Y-75093661D01*
X144675863Y-75334137D01*
X144916339Y-75494818D01*
X145200000Y-75551242D01*
X146900000Y-75551242D01*
X147183661Y-75494818D01*
X147424137Y-75334137D01*
X147584818Y-75093661D01*
X147585002Y-75092734D01*
X147610938Y-75118670D01*
X147725648Y-75003960D01*
X147805920Y-75255259D01*
X148361279Y-75456718D01*
X148951458Y-75430315D01*
X149374080Y-75255259D01*
X149454353Y-75003958D01*
X148590000Y-74139605D01*
X148575858Y-74153748D01*
X148396253Y-73974143D01*
X148410395Y-73960000D01*
X148769605Y-73960000D01*
X149633958Y-74824353D01*
X149763901Y-74782845D01*
X149793084Y-74853299D01*
X150236701Y-75296916D01*
X150816315Y-75537000D01*
X151443685Y-75537000D01*
X152023299Y-75296916D01*
X152400000Y-74920215D01*
X152776701Y-75296916D01*
X153356315Y-75537000D01*
X153983685Y-75537000D01*
X154563299Y-75296916D01*
X155006916Y-74853299D01*
X155247000Y-74273685D01*
X155247000Y-74017022D01*
X159283000Y-74017022D01*
X159283000Y-74902978D01*
X159622040Y-75721494D01*
X160248506Y-76347960D01*
X161067022Y-76687000D01*
X161952978Y-76687000D01*
X162771494Y-76347960D01*
X163397960Y-75721494D01*
X163737000Y-74902978D01*
X163737000Y-74017022D01*
X163397960Y-73198506D01*
X162771494Y-72572040D01*
X161952978Y-72233000D01*
X161067022Y-72233000D01*
X160248506Y-72572040D01*
X159622040Y-73198506D01*
X159283000Y-74017022D01*
X155247000Y-74017022D01*
X155247000Y-73646315D01*
X155006916Y-73066701D01*
X154563299Y-72623084D01*
X153983685Y-72383000D01*
X153356315Y-72383000D01*
X152776701Y-72623084D01*
X152400000Y-72999785D01*
X152023299Y-72623084D01*
X151443685Y-72383000D01*
X150816315Y-72383000D01*
X150236701Y-72623084D01*
X149793084Y-73066701D01*
X149763901Y-73137155D01*
X149633958Y-73095647D01*
X148769605Y-73960000D01*
X148410395Y-73960000D01*
X148396253Y-73945858D01*
X148575858Y-73766253D01*
X148590000Y-73780395D01*
X149454353Y-72916042D01*
X149374080Y-72664741D01*
X148818721Y-72463282D01*
X148228542Y-72489685D01*
X147805920Y-72664741D01*
X147725648Y-72916040D01*
X147610938Y-72801330D01*
X147585002Y-72827266D01*
X147584818Y-72826339D01*
X147424137Y-72585863D01*
X147183661Y-72425182D01*
X146900000Y-72368758D01*
X145200000Y-72368758D01*
X144916339Y-72425182D01*
X144675863Y-72585863D01*
X144515182Y-72826339D01*
X144458758Y-73110000D01*
X140009454Y-73110000D01*
X139471494Y-72572040D01*
X138652978Y-72233000D01*
X137767022Y-72233000D01*
X136948506Y-72572040D01*
X136322040Y-73198506D01*
X135983000Y-74017022D01*
X133968264Y-74017022D01*
X135862886Y-72122400D01*
X152176782Y-72122400D01*
X152273000Y-72141539D01*
X152369218Y-72122400D01*
X152369223Y-72122400D01*
X152654206Y-72065713D01*
X152977377Y-71849777D01*
X153031883Y-71768203D01*
X154918336Y-69881750D01*
X165189000Y-69881750D01*
X165189000Y-70522310D01*
X165285673Y-70755699D01*
X165464302Y-70934327D01*
X165697691Y-71031000D01*
X166338250Y-71031000D01*
X166497000Y-70872250D01*
X166497000Y-69723000D01*
X165347750Y-69723000D01*
X165189000Y-69881750D01*
X154918336Y-69881750D01*
X155867606Y-68932481D01*
X155949177Y-68877977D01*
X156003681Y-68796406D01*
X156003683Y-68796404D01*
X156088350Y-68669690D01*
X165189000Y-68669690D01*
X165189000Y-69310250D01*
X165347750Y-69469000D01*
X166497000Y-69469000D01*
X166497000Y-68319750D01*
X166751000Y-68319750D01*
X166751000Y-69469000D01*
X166771000Y-69469000D01*
X166771000Y-69723000D01*
X166751000Y-69723000D01*
X166751000Y-70872250D01*
X166909750Y-71031000D01*
X167550309Y-71031000D01*
X167783698Y-70934327D01*
X167962327Y-70755699D01*
X168009737Y-70641241D01*
X168259024Y-70890528D01*
X168820261Y-71123000D01*
X169427739Y-71123000D01*
X169988976Y-70890528D01*
X170418528Y-70460976D01*
X170651000Y-69899739D01*
X170651000Y-69292261D01*
X170418528Y-68731024D01*
X169988976Y-68301472D01*
X169427739Y-68069000D01*
X168820261Y-68069000D01*
X168259024Y-68301472D01*
X168009737Y-68550759D01*
X167962327Y-68436301D01*
X167783698Y-68257673D01*
X167550309Y-68161000D01*
X166909750Y-68161000D01*
X166751000Y-68319750D01*
X166497000Y-68319750D01*
X166338250Y-68161000D01*
X165697691Y-68161000D01*
X165464302Y-68257673D01*
X165285673Y-68436301D01*
X165189000Y-68669690D01*
X156088350Y-68669690D01*
X156165113Y-68554807D01*
X156185322Y-68453207D01*
X156221800Y-68269823D01*
X156221800Y-68269819D01*
X156240939Y-68173600D01*
X156221800Y-68077381D01*
X156221800Y-65055750D01*
X158535000Y-65055750D01*
X158535000Y-65746310D01*
X158631673Y-65979699D01*
X158810302Y-66158327D01*
X159043691Y-66255000D01*
X159734250Y-66255000D01*
X159893000Y-66096250D01*
X159893000Y-64897000D01*
X160147000Y-64897000D01*
X160147000Y-66096250D01*
X160305750Y-66255000D01*
X160996309Y-66255000D01*
X161229698Y-66158327D01*
X161408327Y-65979699D01*
X161505000Y-65746310D01*
X161505000Y-65055750D01*
X161346250Y-64897000D01*
X160147000Y-64897000D01*
X159893000Y-64897000D01*
X158693750Y-64897000D01*
X158535000Y-65055750D01*
X156221800Y-65055750D01*
X156221800Y-59764486D01*
X157859287Y-58127000D01*
X158776170Y-58127000D01*
X158883047Y-58286953D01*
X159082166Y-58420000D01*
X158883047Y-58553047D01*
X158534499Y-59074685D01*
X158412105Y-59690000D01*
X158534499Y-60305315D01*
X158883047Y-60826953D01*
X159082166Y-60960000D01*
X158883047Y-61093047D01*
X158534499Y-61614685D01*
X158412105Y-62230000D01*
X158534499Y-62845315D01*
X158874981Y-63354882D01*
X158810302Y-63381673D01*
X158631673Y-63560301D01*
X158535000Y-63793690D01*
X158535000Y-64484250D01*
X158693750Y-64643000D01*
X159893000Y-64643000D01*
X159893000Y-64623000D01*
X160147000Y-64623000D01*
X160147000Y-64643000D01*
X161346250Y-64643000D01*
X161505000Y-64484250D01*
X161505000Y-63793690D01*
X161408327Y-63560301D01*
X161229698Y-63381673D01*
X161165019Y-63354882D01*
X161505501Y-62845315D01*
X161627895Y-62230000D01*
X161505501Y-61614685D01*
X161156953Y-61093047D01*
X160957834Y-60960000D01*
X161156953Y-60826953D01*
X161505501Y-60305315D01*
X161627895Y-59690000D01*
X161505501Y-59074685D01*
X161156953Y-58553047D01*
X160957834Y-58420000D01*
X161156953Y-58286953D01*
X161505501Y-57765315D01*
X161556905Y-57506890D01*
X166198524Y-57506890D01*
X166368355Y-57916924D01*
X166758642Y-58345183D01*
X167283108Y-58591486D01*
X167513000Y-58470819D01*
X167513000Y-57277000D01*
X167767000Y-57277000D01*
X167767000Y-58470819D01*
X167996892Y-58591486D01*
X168521358Y-58345183D01*
X168911645Y-57916924D01*
X169081476Y-57506890D01*
X168960155Y-57277000D01*
X167767000Y-57277000D01*
X167513000Y-57277000D01*
X166319845Y-57277000D01*
X166198524Y-57506890D01*
X161556905Y-57506890D01*
X161627895Y-57150000D01*
X161505501Y-56534685D01*
X161156953Y-56013047D01*
X160957834Y-55880000D01*
X161156953Y-55746953D01*
X161505501Y-55225315D01*
X161556905Y-54966890D01*
X166198524Y-54966890D01*
X166368355Y-55376924D01*
X166758642Y-55805183D01*
X166917954Y-55880000D01*
X166758642Y-55954817D01*
X166368355Y-56383076D01*
X166198524Y-56793110D01*
X166319845Y-57023000D01*
X167513000Y-57023000D01*
X167513000Y-54737000D01*
X167767000Y-54737000D01*
X167767000Y-57023000D01*
X168960155Y-57023000D01*
X169081476Y-56793110D01*
X168911645Y-56383076D01*
X168521358Y-55954817D01*
X168362046Y-55880000D01*
X168521358Y-55805183D01*
X168911645Y-55376924D01*
X169081476Y-54966890D01*
X168960155Y-54737000D01*
X167767000Y-54737000D01*
X167513000Y-54737000D01*
X166319845Y-54737000D01*
X166198524Y-54966890D01*
X161556905Y-54966890D01*
X161627895Y-54610000D01*
X161505501Y-53994685D01*
X161156953Y-53473047D01*
X160957834Y-53340000D01*
X161156953Y-53206953D01*
X161505501Y-52685315D01*
X161571055Y-52355750D01*
X166155000Y-52355750D01*
X166155000Y-53046310D01*
X166251673Y-53279699D01*
X166430302Y-53458327D01*
X166639878Y-53545136D01*
X166368355Y-53843076D01*
X166198524Y-54253110D01*
X166319845Y-54483000D01*
X167513000Y-54483000D01*
X167513000Y-52197000D01*
X167767000Y-52197000D01*
X167767000Y-54483000D01*
X168960155Y-54483000D01*
X169081476Y-54253110D01*
X168911645Y-53843076D01*
X168640122Y-53545136D01*
X168849698Y-53458327D01*
X169028327Y-53279699D01*
X169125000Y-53046310D01*
X169125000Y-52355750D01*
X168966250Y-52197000D01*
X167767000Y-52197000D01*
X167513000Y-52197000D01*
X166313750Y-52197000D01*
X166155000Y-52355750D01*
X161571055Y-52355750D01*
X161627895Y-52070000D01*
X161505501Y-51454685D01*
X161264292Y-51093690D01*
X166155000Y-51093690D01*
X166155000Y-51784250D01*
X166313750Y-51943000D01*
X167513000Y-51943000D01*
X167513000Y-50743750D01*
X167767000Y-50743750D01*
X167767000Y-51943000D01*
X168966250Y-51943000D01*
X169125000Y-51784250D01*
X169125000Y-51093690D01*
X169028327Y-50860301D01*
X168849698Y-50681673D01*
X168616309Y-50585000D01*
X167925750Y-50585000D01*
X167767000Y-50743750D01*
X167513000Y-50743750D01*
X167354250Y-50585000D01*
X166663691Y-50585000D01*
X166430302Y-50681673D01*
X166251673Y-50860301D01*
X166155000Y-51093690D01*
X161264292Y-51093690D01*
X161156953Y-50933047D01*
X160635315Y-50584499D01*
X160175319Y-50493000D01*
X159864681Y-50493000D01*
X159404685Y-50584499D01*
X158883047Y-50933047D01*
X158534499Y-51454685D01*
X158412105Y-52070000D01*
X158534499Y-52685315D01*
X158883047Y-53206953D01*
X159082166Y-53340000D01*
X158883047Y-53473047D01*
X158776170Y-53633000D01*
X156407818Y-53633000D01*
X156311600Y-53613861D01*
X156215382Y-53633000D01*
X156215377Y-53633000D01*
X155930394Y-53689687D01*
X155930392Y-53689688D01*
X155930393Y-53689688D01*
X155688796Y-53851117D01*
X155688794Y-53851119D01*
X155607223Y-53905623D01*
X155552719Y-53987194D01*
X153656795Y-55883119D01*
X153575224Y-55937623D01*
X153520720Y-56019194D01*
X153520717Y-56019197D01*
X153359288Y-56260794D01*
X153283461Y-56642000D01*
X153302601Y-56738223D01*
X153302600Y-67006913D01*
X151041124Y-69268390D01*
X134016027Y-69268390D01*
X133919809Y-69249251D01*
X133823591Y-69268390D01*
X133823587Y-69268390D01*
X133538604Y-69325077D01*
X133538602Y-69325078D01*
X133538603Y-69325078D01*
X133297006Y-69486507D01*
X133297004Y-69486509D01*
X133215433Y-69541013D01*
X133160929Y-69622584D01*
X130608514Y-72175000D01*
X129984980Y-72175000D01*
X129953818Y-72018339D01*
X129862719Y-71882000D01*
X129953818Y-71745661D01*
X130010242Y-71462000D01*
X130010242Y-69762000D01*
X129953818Y-69478339D01*
X129862719Y-69342000D01*
X129953818Y-69205661D01*
X129984980Y-69049000D01*
X138308382Y-69049000D01*
X138404600Y-69068139D01*
X138500818Y-69049000D01*
X138500823Y-69049000D01*
X138785806Y-68992313D01*
X139108977Y-68776377D01*
X139163483Y-68694803D01*
X142802536Y-65055750D01*
X148375000Y-65055750D01*
X148375000Y-65746310D01*
X148471673Y-65979699D01*
X148650302Y-66158327D01*
X148883691Y-66255000D01*
X149574250Y-66255000D01*
X149733000Y-66096250D01*
X149733000Y-64897000D01*
X149987000Y-64897000D01*
X149987000Y-66096250D01*
X150145750Y-66255000D01*
X150836309Y-66255000D01*
X151069698Y-66158327D01*
X151248327Y-65979699D01*
X151345000Y-65746310D01*
X151345000Y-65055750D01*
X151186250Y-64897000D01*
X149987000Y-64897000D01*
X149733000Y-64897000D01*
X148533750Y-64897000D01*
X148375000Y-65055750D01*
X142802536Y-65055750D01*
X144651287Y-63207000D01*
X148616170Y-63207000D01*
X148714981Y-63354882D01*
X148650302Y-63381673D01*
X148471673Y-63560301D01*
X148375000Y-63793690D01*
X148375000Y-64484250D01*
X148533750Y-64643000D01*
X149733000Y-64643000D01*
X149733000Y-64623000D01*
X149987000Y-64623000D01*
X149987000Y-64643000D01*
X151186250Y-64643000D01*
X151345000Y-64484250D01*
X151345000Y-63793690D01*
X151248327Y-63560301D01*
X151069698Y-63381673D01*
X151005019Y-63354882D01*
X151345501Y-62845315D01*
X151467895Y-62230000D01*
X151345501Y-61614685D01*
X150996953Y-61093047D01*
X150797834Y-60960000D01*
X150996953Y-60826953D01*
X151345501Y-60305315D01*
X151467895Y-59690000D01*
X151345501Y-59074685D01*
X150996953Y-58553047D01*
X150797834Y-58420000D01*
X150996953Y-58286953D01*
X151345501Y-57765315D01*
X151467895Y-57150000D01*
X151345501Y-56534685D01*
X150996953Y-56013047D01*
X150797834Y-55880000D01*
X150996953Y-55746953D01*
X151345501Y-55225315D01*
X151467895Y-54610000D01*
X151345501Y-53994685D01*
X150996953Y-53473047D01*
X150797834Y-53340000D01*
X150996953Y-53206953D01*
X151345501Y-52685315D01*
X151467895Y-52070000D01*
X151345501Y-51454685D01*
X150996953Y-50933047D01*
X150475315Y-50584499D01*
X150015319Y-50493000D01*
X149947528Y-50493000D01*
X149809034Y-50354506D01*
X149743369Y-50256231D01*
X149354042Y-49996091D01*
X149010720Y-49927800D01*
X149010715Y-49927800D01*
X148894800Y-49904743D01*
X148778885Y-49927800D01*
X142239547Y-49927800D01*
X141952467Y-49640720D01*
X141317722Y-49377800D01*
X140630678Y-49377800D01*
X139995933Y-49640720D01*
X139510120Y-50126533D01*
X139247200Y-50761278D01*
X139247200Y-51448322D01*
X139510120Y-52083067D01*
X139995933Y-52568880D01*
X140630678Y-52831800D01*
X141317722Y-52831800D01*
X141952467Y-52568880D01*
X142239547Y-52281800D01*
X148294235Y-52281800D01*
X148374499Y-52685315D01*
X148723047Y-53206953D01*
X148922166Y-53340000D01*
X148723047Y-53473047D01*
X148374499Y-53994685D01*
X148252105Y-54610000D01*
X148374499Y-55225315D01*
X148723047Y-55746953D01*
X148922166Y-55880000D01*
X148723047Y-56013047D01*
X148374499Y-56534685D01*
X148252105Y-57150000D01*
X148374499Y-57765315D01*
X148723047Y-58286953D01*
X148922166Y-58420000D01*
X148723047Y-58553047D01*
X148616170Y-58713000D01*
X142971219Y-58713000D01*
X142875000Y-58693861D01*
X142778781Y-58713000D01*
X142778777Y-58713000D01*
X142532439Y-58762000D01*
X142493794Y-58769687D01*
X142252196Y-58931117D01*
X142252194Y-58931119D01*
X142170623Y-58985623D01*
X142116119Y-59067194D01*
X136628314Y-64555000D01*
X129984980Y-64555000D01*
X129953818Y-64398339D01*
X129862719Y-64262000D01*
X129953818Y-64125661D01*
X130010242Y-63842000D01*
X130010242Y-62142000D01*
X129953818Y-61858339D01*
X129862719Y-61722000D01*
X129953818Y-61585661D01*
X130010242Y-61302000D01*
X130010242Y-59602000D01*
X129953818Y-59318339D01*
X129862719Y-59182000D01*
X129953818Y-59045661D01*
X130010242Y-58762000D01*
X130010242Y-57062000D01*
X129953818Y-56778339D01*
X129862719Y-56642000D01*
X129953818Y-56505661D01*
X130010242Y-56222000D01*
X130010242Y-54522000D01*
X129953818Y-54238339D01*
X129862719Y-54102000D01*
X129953818Y-53965661D01*
X130010242Y-53682000D01*
X130010242Y-51982000D01*
X129953818Y-51698339D01*
X129862719Y-51562000D01*
X129953818Y-51425661D01*
X130010242Y-51142000D01*
X130010242Y-50412446D01*
X133515606Y-46907083D01*
X133597177Y-46852579D01*
X133651681Y-46771008D01*
X133651683Y-46771006D01*
X133813112Y-46529409D01*
X133813113Y-46529408D01*
X133869800Y-46244425D01*
X133869800Y-46244421D01*
X133888939Y-46148203D01*
X133869800Y-46051985D01*
X133869800Y-44626086D01*
X134764088Y-43731799D01*
X134966517Y-43731799D01*
X134747200Y-44261278D01*
X134747200Y-44948322D01*
X135010120Y-45583067D01*
X135495933Y-46068880D01*
X135497201Y-46069405D01*
X135497200Y-49640195D01*
X135495933Y-49640720D01*
X135010120Y-50126533D01*
X134747200Y-50761278D01*
X134747200Y-51448322D01*
X135010120Y-52083067D01*
X135495933Y-52568880D01*
X136130678Y-52831800D01*
X136817722Y-52831800D01*
X137452467Y-52568880D01*
X137938280Y-52083067D01*
X138201200Y-51448322D01*
X138201200Y-50761278D01*
X137938280Y-50126533D01*
X137452467Y-49640720D01*
X137451200Y-49640195D01*
X137451200Y-46069405D01*
X137452467Y-46068880D01*
X137938280Y-45583067D01*
X138201200Y-44948322D01*
X138201200Y-44261278D01*
X137981883Y-43731799D01*
X139466517Y-43731799D01*
X139247200Y-44261278D01*
X139247200Y-44948322D01*
X139510120Y-45583067D01*
X139995933Y-46068880D01*
X140630678Y-46331800D01*
X141317722Y-46331800D01*
X141952467Y-46068880D01*
X142438280Y-45583067D01*
X142701200Y-44948322D01*
X142701200Y-44261278D01*
X142481883Y-43731799D01*
X154567313Y-43731799D01*
X155781319Y-44945806D01*
X155835823Y-45027377D01*
X155917394Y-45081881D01*
X155917396Y-45081883D01*
X156077633Y-45188949D01*
X156158994Y-45243313D01*
X156443977Y-45300000D01*
X156443981Y-45300000D01*
X156540199Y-45319139D01*
X156636417Y-45300000D01*
X161320782Y-45300000D01*
X161417000Y-45319139D01*
X161513218Y-45300000D01*
X161513223Y-45300000D01*
X161798206Y-45243313D01*
X162121377Y-45027377D01*
X162175883Y-44945803D01*
X165010911Y-42110775D01*
X164928524Y-42266890D01*
X165098355Y-42676924D01*
X165488642Y-43105183D01*
X166013108Y-43351486D01*
X166243000Y-43230819D01*
X166243000Y-42037000D01*
X166497000Y-42037000D01*
X166497000Y-43230819D01*
X166726892Y-43351486D01*
X167251358Y-43105183D01*
X167641645Y-42676924D01*
X167811476Y-42266890D01*
X167690155Y-42037000D01*
X166497000Y-42037000D01*
X166243000Y-42037000D01*
X166223000Y-42037000D01*
X166223000Y-41783000D01*
X166243000Y-41783000D01*
X166243000Y-41763000D01*
X166497000Y-41763000D01*
X166497000Y-41783000D01*
X167690155Y-41783000D01*
X167811476Y-41553110D01*
X167641645Y-41143076D01*
X167251358Y-40714817D01*
X167218768Y-40699512D01*
X167506953Y-40506953D01*
X167855501Y-39985315D01*
X167977895Y-39370000D01*
X167855501Y-38754685D01*
X167566807Y-38322625D01*
X167744137Y-38204137D01*
X167904818Y-37963661D01*
X167961242Y-37680000D01*
X167961242Y-35980000D01*
X167904818Y-35696339D01*
X167744137Y-35455863D01*
X167503661Y-35295182D01*
X167220000Y-35238758D01*
X165520000Y-35238758D01*
X165236339Y-35295182D01*
X164995863Y-35455863D01*
X164835182Y-35696339D01*
X164804020Y-35853000D01*
X160315980Y-35853000D01*
X160284818Y-35696339D01*
X160124137Y-35455863D01*
X159883661Y-35295182D01*
X159600000Y-35238758D01*
X157900000Y-35238758D01*
X157616339Y-35295182D01*
X157375863Y-35455863D01*
X157215182Y-35696339D01*
X157179086Y-35877803D01*
X157057439Y-35902000D01*
X157018794Y-35909687D01*
X156777196Y-36071117D01*
X156777194Y-36071119D01*
X156695623Y-36125623D01*
X156641119Y-36207194D01*
X153210714Y-39637600D01*
X140814086Y-39637600D01*
X142051322Y-38400365D01*
X142084681Y-38407000D01*
X142395319Y-38407000D01*
X142855315Y-38315501D01*
X143376953Y-37966953D01*
X143510000Y-37767834D01*
X143643047Y-37966953D01*
X144164685Y-38315501D01*
X144624681Y-38407000D01*
X144935319Y-38407000D01*
X145395315Y-38315501D01*
X145916953Y-37966953D01*
X146050000Y-37767834D01*
X146183047Y-37966953D01*
X146704685Y-38315501D01*
X147164681Y-38407000D01*
X147475319Y-38407000D01*
X147935315Y-38315501D01*
X148367375Y-38026807D01*
X148485863Y-38204137D01*
X148726339Y-38364818D01*
X149010000Y-38421242D01*
X150710000Y-38421242D01*
X150993661Y-38364818D01*
X151234137Y-38204137D01*
X151394818Y-37963661D01*
X151451242Y-37680000D01*
X151451242Y-35980000D01*
X151394818Y-35696339D01*
X151234137Y-35455863D01*
X150993661Y-35295182D01*
X150710000Y-35238758D01*
X149010000Y-35238758D01*
X148726339Y-35295182D01*
X148485863Y-35455863D01*
X148367375Y-35633193D01*
X147935315Y-35344499D01*
X147475319Y-35253000D01*
X147164681Y-35253000D01*
X146704685Y-35344499D01*
X146183047Y-35693047D01*
X146050000Y-35892166D01*
X145916953Y-35693047D01*
X145395315Y-35344499D01*
X144935319Y-35253000D01*
X144624681Y-35253000D01*
X144164685Y-35344499D01*
X143643047Y-35693047D01*
X143510000Y-35892166D01*
X143376953Y-35693047D01*
X142855315Y-35344499D01*
X142395319Y-35253000D01*
X142084681Y-35253000D01*
X141624685Y-35344499D01*
X141103047Y-35693047D01*
X140910488Y-35981232D01*
X140895183Y-35948642D01*
X140466924Y-35558355D01*
X140056890Y-35388524D01*
X139827000Y-35509845D01*
X139827000Y-36703000D01*
X139847000Y-36703000D01*
X139847000Y-36957000D01*
X139827000Y-36957000D01*
X139827000Y-36977000D01*
X139573000Y-36977000D01*
X139573000Y-36957000D01*
X138379181Y-36957000D01*
X138258514Y-37186892D01*
X138504817Y-37711358D01*
X138933076Y-38101645D01*
X139343110Y-38271476D01*
X139499225Y-38189088D01*
X139396914Y-38291400D01*
X132658817Y-38291400D01*
X132562599Y-38272261D01*
X132466381Y-38291400D01*
X132466377Y-38291400D01*
X132181394Y-38348087D01*
X132100033Y-38402451D01*
X131939796Y-38509517D01*
X131939794Y-38509519D01*
X131858223Y-38564023D01*
X131803719Y-38645594D01*
X130010242Y-40439072D01*
X130010242Y-39282000D01*
X129953818Y-38998339D01*
X129813106Y-38787748D01*
X129904000Y-38568310D01*
X129904000Y-37877750D01*
X129745250Y-37719000D01*
X125292750Y-37719000D01*
X125134000Y-37877750D01*
X125134000Y-38568310D01*
X125224894Y-38787748D01*
X125084182Y-38998339D01*
X125027758Y-39282000D01*
X125027758Y-40048280D01*
X125011105Y-40132000D01*
X122729860Y-40132000D01*
X123731117Y-39130744D01*
X123841912Y-39056713D01*
X123915944Y-38945917D01*
X123915946Y-38945915D01*
X124075007Y-38707863D01*
X124135206Y-38617770D01*
X124212200Y-38230696D01*
X124212200Y-38230692D01*
X124238196Y-38100000D01*
X124212200Y-37969308D01*
X124212200Y-32553660D01*
X125027758Y-31738103D01*
X125027758Y-33362000D01*
X125084182Y-33645661D01*
X125175281Y-33782000D01*
X125084182Y-33918339D01*
X125027758Y-34202000D01*
X125027758Y-34968280D01*
X125011105Y-35052000D01*
X125027758Y-35135720D01*
X125027758Y-35902000D01*
X125084182Y-36185661D01*
X125224894Y-36396252D01*
X125134000Y-36615690D01*
X125134000Y-37306250D01*
X125292750Y-37465000D01*
X129745250Y-37465000D01*
X129904000Y-37306250D01*
X129904000Y-36615690D01*
X129844941Y-36473108D01*
X138258514Y-36473108D01*
X138379181Y-36703000D01*
X139573000Y-36703000D01*
X139573000Y-35509845D01*
X139343110Y-35388524D01*
X138933076Y-35558355D01*
X138504817Y-35948642D01*
X138258514Y-36473108D01*
X129844941Y-36473108D01*
X129813106Y-36396252D01*
X129953818Y-36185661D01*
X130010242Y-35902000D01*
X130010242Y-34202000D01*
X129953818Y-33918339D01*
X129862719Y-33782000D01*
X129953818Y-33645661D01*
X130010242Y-33362000D01*
X130010242Y-31662000D01*
X129953818Y-31378339D01*
X129922854Y-31331998D01*
X129944902Y-31299000D01*
X132505306Y-31299000D01*
X132635998Y-31324996D01*
X132766690Y-31299000D01*
X132766694Y-31299000D01*
X133093000Y-31234094D01*
X133093000Y-31251739D01*
X133325472Y-31812976D01*
X133755024Y-32242528D01*
X134316261Y-32475000D01*
X134923739Y-32475000D01*
X135484976Y-32242528D01*
X135914528Y-31812976D01*
X136147000Y-31251739D01*
X136147000Y-30644261D01*
X135914528Y-30083024D01*
X135812121Y-29980617D01*
X136016233Y-29844233D01*
X136062493Y-29775000D01*
X142109308Y-29775000D01*
X142240000Y-29800996D01*
X142370692Y-29775000D01*
X142370696Y-29775000D01*
X142757770Y-29698006D01*
X142854757Y-29633201D01*
X143598000Y-29633201D01*
X143920679Y-29569016D01*
X144194233Y-29386233D01*
X144268215Y-29275511D01*
X144633667Y-29519699D01*
X145122832Y-29617000D01*
X145453168Y-29617000D01*
X145942333Y-29519699D01*
X146320523Y-29267000D01*
X146795477Y-29267000D01*
X147173667Y-29519699D01*
X147662832Y-29617000D01*
X147993168Y-29617000D01*
X148482333Y-29519699D01*
X149037049Y-29149049D01*
X149407699Y-28594333D01*
X149537854Y-27940000D01*
X154602105Y-27940000D01*
X154724499Y-28555315D01*
X155073047Y-29076953D01*
X155594685Y-29425501D01*
X156054681Y-29517000D01*
X156365319Y-29517000D01*
X156825315Y-29425501D01*
X157346953Y-29076953D01*
X157480000Y-28877834D01*
X157613047Y-29076953D01*
X158134685Y-29425501D01*
X158594681Y-29517000D01*
X158905319Y-29517000D01*
X159365315Y-29425501D01*
X159797375Y-29136807D01*
X159915863Y-29314137D01*
X160156339Y-29474818D01*
X160440000Y-29531242D01*
X162140000Y-29531242D01*
X162423661Y-29474818D01*
X162664137Y-29314137D01*
X162824818Y-29073661D01*
X162881242Y-28790000D01*
X162881242Y-28747131D01*
X166583000Y-28747131D01*
X166583000Y-29672869D01*
X166937264Y-30528140D01*
X167591860Y-31182736D01*
X168447131Y-31537000D01*
X169372869Y-31537000D01*
X170228140Y-31182736D01*
X170882736Y-30528140D01*
X171237000Y-29672869D01*
X171237000Y-28747131D01*
X170882736Y-27891860D01*
X170228140Y-27237264D01*
X169372869Y-26883000D01*
X168447131Y-26883000D01*
X167591860Y-27237264D01*
X166937264Y-27891860D01*
X166583000Y-28747131D01*
X162881242Y-28747131D01*
X162881242Y-27090000D01*
X162824818Y-26806339D01*
X162664137Y-26565863D01*
X162423661Y-26405182D01*
X162140000Y-26348758D01*
X160440000Y-26348758D01*
X160156339Y-26405182D01*
X159915863Y-26565863D01*
X159797375Y-26743193D01*
X159365315Y-26454499D01*
X158905319Y-26363000D01*
X158594681Y-26363000D01*
X158134685Y-26454499D01*
X157613047Y-26803047D01*
X157480000Y-27002166D01*
X157346953Y-26803047D01*
X156825315Y-26454499D01*
X156365319Y-26363000D01*
X156054681Y-26363000D01*
X155594685Y-26454499D01*
X155073047Y-26803047D01*
X154724499Y-27324685D01*
X154602105Y-27940000D01*
X149537854Y-27940000D01*
X149407699Y-27285667D01*
X149037049Y-26730951D01*
X148482333Y-26360301D01*
X147993168Y-26263000D01*
X147662832Y-26263000D01*
X147173667Y-26360301D01*
X146795477Y-26613000D01*
X146320523Y-26613000D01*
X145942333Y-26360301D01*
X145453168Y-26263000D01*
X145122832Y-26263000D01*
X144633667Y-26360301D01*
X144268215Y-26604489D01*
X144194233Y-26493767D01*
X143920679Y-26310984D01*
X143598000Y-26246799D01*
X141898000Y-26246799D01*
X141575321Y-26310984D01*
X141301767Y-26493767D01*
X141118984Y-26767321D01*
X141054799Y-27090000D01*
X141054799Y-27121000D01*
X136062493Y-27121000D01*
X136016233Y-27051767D01*
X135742679Y-26868984D01*
X135420000Y-26804799D01*
X133820000Y-26804799D01*
X133497321Y-26868984D01*
X133223767Y-27051767D01*
X133040984Y-27325321D01*
X132976799Y-27648000D01*
X132976799Y-27754537D01*
X132086337Y-28645000D01*
X129944902Y-28645000D01*
X129922854Y-28612002D01*
X129953818Y-28565661D01*
X130010242Y-28282000D01*
X130010242Y-26582000D01*
X129953818Y-26298339D01*
X129827974Y-26110000D01*
X170135334Y-26110000D01*
X170633698Y-26172958D01*
X171058893Y-26341305D01*
X171428858Y-26610101D01*
X171720356Y-26962462D01*
X171915067Y-27376244D01*
X172007093Y-27858662D01*
X172010000Y-27951164D01*
X172010001Y-99015326D01*
X171947042Y-99513699D01*
X171778697Y-99938889D01*
X171509899Y-100308859D01*
X171157541Y-100600355D01*
X170743756Y-100795067D01*
X170261339Y-100887093D01*
X170168836Y-100890000D01*
X76244667Y-100890000D01*
X75746301Y-100827042D01*
X75321111Y-100658697D01*
X74951141Y-100389899D01*
X74659645Y-100037541D01*
X74464933Y-99623756D01*
X74372907Y-99141339D01*
X74370000Y-99048836D01*
X74370000Y-97327131D01*
X75143000Y-97327131D01*
X75143000Y-98252869D01*
X75497264Y-99108140D01*
X76151860Y-99762736D01*
X77007131Y-100117000D01*
X77932869Y-100117000D01*
X78788140Y-99762736D01*
X79442736Y-99108140D01*
X79797000Y-98252869D01*
X79797000Y-97817022D01*
X135983000Y-97817022D01*
X135983000Y-98702978D01*
X136322040Y-99521494D01*
X136948506Y-100147960D01*
X137767022Y-100487000D01*
X138652978Y-100487000D01*
X139471494Y-100147960D01*
X140097960Y-99521494D01*
X140437000Y-98702978D01*
X140437000Y-97817022D01*
X159283000Y-97817022D01*
X159283000Y-98702978D01*
X159622040Y-99521494D01*
X160248506Y-100147960D01*
X161067022Y-100487000D01*
X161952978Y-100487000D01*
X162771494Y-100147960D01*
X163397960Y-99521494D01*
X163737000Y-98702978D01*
X163737000Y-97817022D01*
X163534081Y-97327131D01*
X166583000Y-97327131D01*
X166583000Y-98252869D01*
X166937264Y-99108140D01*
X167591860Y-99762736D01*
X168447131Y-100117000D01*
X169372869Y-100117000D01*
X170228140Y-99762736D01*
X170882736Y-99108140D01*
X171237000Y-98252869D01*
X171237000Y-97327131D01*
X170882736Y-96471860D01*
X170228140Y-95817264D01*
X169372869Y-95463000D01*
X168447131Y-95463000D01*
X167591860Y-95817264D01*
X166937264Y-96471860D01*
X166583000Y-97327131D01*
X163534081Y-97327131D01*
X163397960Y-96998506D01*
X162771494Y-96372040D01*
X161952978Y-96033000D01*
X161067022Y-96033000D01*
X160248506Y-96372040D01*
X159622040Y-96998506D01*
X159283000Y-97817022D01*
X140437000Y-97817022D01*
X140097960Y-96998506D01*
X139471494Y-96372040D01*
X138652978Y-96033000D01*
X137767022Y-96033000D01*
X136948506Y-96372040D01*
X136322040Y-96998506D01*
X135983000Y-97817022D01*
X79797000Y-97817022D01*
X79797000Y-97327131D01*
X79442736Y-96471860D01*
X78788140Y-95817264D01*
X77932869Y-95463000D01*
X77007131Y-95463000D01*
X76151860Y-95817264D01*
X75497264Y-96471860D01*
X75143000Y-97327131D01*
X74370000Y-97327131D01*
X74370000Y-94961478D01*
X84633000Y-94961478D01*
X84633000Y-95648522D01*
X84895920Y-96283267D01*
X85381733Y-96769080D01*
X86016478Y-97032000D01*
X86703522Y-97032000D01*
X87338267Y-96769080D01*
X87824080Y-96283267D01*
X88087000Y-95648522D01*
X88087000Y-94961478D01*
X91133000Y-94961478D01*
X91133000Y-95648522D01*
X91395920Y-96283267D01*
X91881733Y-96769080D01*
X92516478Y-97032000D01*
X93203522Y-97032000D01*
X93838267Y-96769080D01*
X94324080Y-96283267D01*
X94587000Y-95648522D01*
X94587000Y-94961478D01*
X101143000Y-94961478D01*
X101143000Y-95648522D01*
X101405920Y-96283267D01*
X101891733Y-96769080D01*
X102526478Y-97032000D01*
X103213522Y-97032000D01*
X103848267Y-96769080D01*
X104334080Y-96283267D01*
X104597000Y-95648522D01*
X104597000Y-94961478D01*
X107643000Y-94961478D01*
X107643000Y-95648522D01*
X107905920Y-96283267D01*
X108391733Y-96769080D01*
X109026478Y-97032000D01*
X109713522Y-97032000D01*
X110348267Y-96769080D01*
X110834080Y-96283267D01*
X111097000Y-95648522D01*
X111097000Y-94961478D01*
X110834080Y-94326733D01*
X110348267Y-93840920D01*
X109713522Y-93578000D01*
X109026478Y-93578000D01*
X108391733Y-93840920D01*
X107905920Y-94326733D01*
X107643000Y-94961478D01*
X104597000Y-94961478D01*
X104334080Y-94326733D01*
X103848267Y-93840920D01*
X103213522Y-93578000D01*
X102526478Y-93578000D01*
X101891733Y-93840920D01*
X101405920Y-94326733D01*
X101143000Y-94961478D01*
X94587000Y-94961478D01*
X94324080Y-94326733D01*
X93838267Y-93840920D01*
X93203522Y-93578000D01*
X92516478Y-93578000D01*
X91881733Y-93840920D01*
X91395920Y-94326733D01*
X91133000Y-94961478D01*
X88087000Y-94961478D01*
X87824080Y-94326733D01*
X87338267Y-93840920D01*
X86703522Y-93578000D01*
X86016478Y-93578000D01*
X85381733Y-93840920D01*
X84895920Y-94326733D01*
X84633000Y-94961478D01*
X74370000Y-94961478D01*
X74370000Y-85553550D01*
X89738400Y-85553550D01*
X89738400Y-86094110D01*
X89835073Y-86327499D01*
X90013702Y-86506127D01*
X90247091Y-86602800D01*
X90662650Y-86602800D01*
X90821400Y-86444050D01*
X90821400Y-85394800D01*
X89897150Y-85394800D01*
X89738400Y-85553550D01*
X74370000Y-85553550D01*
X74370000Y-84441490D01*
X89738400Y-84441490D01*
X89738400Y-84982050D01*
X89897150Y-85140800D01*
X90821400Y-85140800D01*
X90821400Y-84091550D01*
X90662650Y-83932800D01*
X90247091Y-83932800D01*
X90013702Y-84029473D01*
X89835073Y-84208101D01*
X89738400Y-84441490D01*
X74370000Y-84441490D01*
X74370000Y-77470000D01*
X79672105Y-77470000D01*
X79794499Y-78085315D01*
X80143047Y-78606953D01*
X80342166Y-78740000D01*
X80143047Y-78873047D01*
X79794499Y-79394685D01*
X79672105Y-80010000D01*
X79794499Y-80625315D01*
X80083193Y-81057375D01*
X79905863Y-81175863D01*
X79745182Y-81416339D01*
X79688758Y-81700000D01*
X79688758Y-83400000D01*
X79745182Y-83683661D01*
X79905863Y-83924137D01*
X80146339Y-84084818D01*
X80430000Y-84141242D01*
X82130000Y-84141242D01*
X82413661Y-84084818D01*
X82654137Y-83924137D01*
X82814818Y-83683661D01*
X82871242Y-83400000D01*
X82871242Y-81700000D01*
X82814818Y-81416339D01*
X82783649Y-81369691D01*
X96609000Y-81369691D01*
X96609000Y-82010250D01*
X96767750Y-82169000D01*
X97917000Y-82169000D01*
X97917000Y-81019750D01*
X98171000Y-81019750D01*
X98171000Y-82169000D01*
X99320250Y-82169000D01*
X99479000Y-82010250D01*
X99479000Y-81369691D01*
X99382327Y-81136302D01*
X99203699Y-80957673D01*
X98970310Y-80861000D01*
X98329750Y-80861000D01*
X98171000Y-81019750D01*
X97917000Y-81019750D01*
X97758250Y-80861000D01*
X97117690Y-80861000D01*
X96884301Y-80957673D01*
X96705673Y-81136302D01*
X96609000Y-81369691D01*
X82783649Y-81369691D01*
X82654137Y-81175863D01*
X82476807Y-81057375D01*
X82765501Y-80625315D01*
X82887895Y-80010000D01*
X82765501Y-79394685D01*
X82416953Y-78873047D01*
X82217834Y-78740000D01*
X82416953Y-78606953D01*
X82765501Y-78085315D01*
X82887895Y-77470000D01*
X82765501Y-76854685D01*
X82416953Y-76333047D01*
X81895315Y-75984499D01*
X81435319Y-75893000D01*
X81124681Y-75893000D01*
X80664685Y-75984499D01*
X80143047Y-76333047D01*
X79794499Y-76854685D01*
X79672105Y-77470000D01*
X74370000Y-77470000D01*
X74370000Y-68936890D01*
X79838524Y-68936890D01*
X80008355Y-69346924D01*
X80398642Y-69775183D01*
X80923108Y-70021486D01*
X81153000Y-69900819D01*
X81153000Y-68707000D01*
X81407000Y-68707000D01*
X81407000Y-69900819D01*
X81636892Y-70021486D01*
X82161358Y-69775183D01*
X82551645Y-69346924D01*
X82721476Y-68936890D01*
X82600155Y-68707000D01*
X81407000Y-68707000D01*
X81153000Y-68707000D01*
X79959845Y-68707000D01*
X79838524Y-68936890D01*
X74370000Y-68936890D01*
X74370000Y-66396890D01*
X79838524Y-66396890D01*
X80008355Y-66806924D01*
X80398642Y-67235183D01*
X80557954Y-67310000D01*
X80398642Y-67384817D01*
X80008355Y-67813076D01*
X79838524Y-68223110D01*
X79959845Y-68453000D01*
X81153000Y-68453000D01*
X81153000Y-66167000D01*
X81407000Y-66167000D01*
X81407000Y-68453000D01*
X82600155Y-68453000D01*
X82721476Y-68223110D01*
X82551645Y-67813076D01*
X82161358Y-67384817D01*
X82002046Y-67310000D01*
X82161358Y-67235183D01*
X82551645Y-66806924D01*
X82721476Y-66396890D01*
X82600155Y-66167000D01*
X81407000Y-66167000D01*
X81153000Y-66167000D01*
X79959845Y-66167000D01*
X79838524Y-66396890D01*
X74370000Y-66396890D01*
X74370000Y-66040000D01*
X87292105Y-66040000D01*
X87414499Y-66655315D01*
X87763047Y-67176953D01*
X87962166Y-67310000D01*
X87763047Y-67443047D01*
X87414499Y-67964685D01*
X87292105Y-68580000D01*
X87414499Y-69195315D01*
X87763047Y-69716953D01*
X88284685Y-70065501D01*
X88744681Y-70157000D01*
X89055319Y-70157000D01*
X89515315Y-70065501D01*
X90036953Y-69716953D01*
X90385501Y-69195315D01*
X90507895Y-68580000D01*
X90385501Y-67964685D01*
X90036953Y-67443047D01*
X89837834Y-67310000D01*
X90036953Y-67176953D01*
X90385501Y-66655315D01*
X90507895Y-66040000D01*
X90385501Y-65424685D01*
X90096807Y-64992625D01*
X90274137Y-64874137D01*
X90434818Y-64633661D01*
X90491242Y-64350000D01*
X90491242Y-62650000D01*
X90434818Y-62366339D01*
X90274137Y-62125863D01*
X90033661Y-61965182D01*
X89750000Y-61908758D01*
X88050000Y-61908758D01*
X87766339Y-61965182D01*
X87525863Y-62125863D01*
X87365182Y-62366339D01*
X87308758Y-62650000D01*
X87308758Y-64350000D01*
X87365182Y-64633661D01*
X87525863Y-64874137D01*
X87703193Y-64992625D01*
X87414499Y-65424685D01*
X87292105Y-66040000D01*
X74370000Y-66040000D01*
X74370000Y-63785750D01*
X79795000Y-63785750D01*
X79795000Y-64476310D01*
X79891673Y-64709699D01*
X80070302Y-64888327D01*
X80279878Y-64975136D01*
X80008355Y-65273076D01*
X79838524Y-65683110D01*
X79959845Y-65913000D01*
X81153000Y-65913000D01*
X81153000Y-63627000D01*
X81407000Y-63627000D01*
X81407000Y-65913000D01*
X82600155Y-65913000D01*
X82721476Y-65683110D01*
X82551645Y-65273076D01*
X82280122Y-64975136D01*
X82489698Y-64888327D01*
X82668327Y-64709699D01*
X82765000Y-64476310D01*
X82765000Y-63785750D01*
X82606250Y-63627000D01*
X81407000Y-63627000D01*
X81153000Y-63627000D01*
X79953750Y-63627000D01*
X79795000Y-63785750D01*
X74370000Y-63785750D01*
X74370000Y-62523690D01*
X79795000Y-62523690D01*
X79795000Y-63214250D01*
X79953750Y-63373000D01*
X81153000Y-63373000D01*
X81153000Y-62173750D01*
X81407000Y-62173750D01*
X81407000Y-63373000D01*
X82606250Y-63373000D01*
X82765000Y-63214250D01*
X82765000Y-62523690D01*
X82668327Y-62290301D01*
X82489698Y-62111673D01*
X82256309Y-62015000D01*
X81565750Y-62015000D01*
X81407000Y-62173750D01*
X81153000Y-62173750D01*
X80994250Y-62015000D01*
X80303691Y-62015000D01*
X80070302Y-62111673D01*
X79891673Y-62290301D01*
X79795000Y-62523690D01*
X74370000Y-62523690D01*
X74370000Y-59983690D01*
X95035000Y-59983690D01*
X95035000Y-60674250D01*
X95193750Y-60833000D01*
X96393000Y-60833000D01*
X96393000Y-59633750D01*
X96647000Y-59633750D01*
X96647000Y-60833000D01*
X97846250Y-60833000D01*
X98005000Y-60674250D01*
X98005000Y-59983690D01*
X97908327Y-59750301D01*
X97729698Y-59571673D01*
X97496309Y-59475000D01*
X96805750Y-59475000D01*
X96647000Y-59633750D01*
X96393000Y-59633750D01*
X96234250Y-59475000D01*
X95543691Y-59475000D01*
X95310302Y-59571673D01*
X95131673Y-59750301D01*
X95035000Y-59983690D01*
X74370000Y-59983690D01*
X74370000Y-45871110D01*
X79838524Y-45871110D01*
X79959845Y-46101000D01*
X81153000Y-46101000D01*
X81153000Y-44907181D01*
X81407000Y-44907181D01*
X81407000Y-46101000D01*
X82600155Y-46101000D01*
X82721476Y-45871110D01*
X87458524Y-45871110D01*
X87579845Y-46101000D01*
X88773000Y-46101000D01*
X88773000Y-44907181D01*
X89027000Y-44907181D01*
X89027000Y-46101000D01*
X90220155Y-46101000D01*
X90341476Y-45871110D01*
X95078524Y-45871110D01*
X95199845Y-46101000D01*
X96393000Y-46101000D01*
X96393000Y-44907181D01*
X96163108Y-44786514D01*
X95638642Y-45032817D01*
X95248355Y-45461076D01*
X95078524Y-45871110D01*
X90341476Y-45871110D01*
X90171645Y-45461076D01*
X89781358Y-45032817D01*
X89256892Y-44786514D01*
X89027000Y-44907181D01*
X88773000Y-44907181D01*
X88543108Y-44786514D01*
X88018642Y-45032817D01*
X87628355Y-45461076D01*
X87458524Y-45871110D01*
X82721476Y-45871110D01*
X82551645Y-45461076D01*
X82161358Y-45032817D01*
X81636892Y-44786514D01*
X81407000Y-44907181D01*
X81153000Y-44907181D01*
X80923108Y-44786514D01*
X80398642Y-45032817D01*
X80008355Y-45461076D01*
X79838524Y-45871110D01*
X74370000Y-45871110D01*
X74370000Y-28747131D01*
X75143000Y-28747131D01*
X75143000Y-29672869D01*
X75497264Y-30528140D01*
X76151860Y-31182736D01*
X77007131Y-31537000D01*
X77932869Y-31537000D01*
X78788140Y-31182736D01*
X79442736Y-30528140D01*
X79462676Y-30480000D01*
X84752105Y-30480000D01*
X84874499Y-31095315D01*
X85223047Y-31616953D01*
X85422166Y-31750000D01*
X85223047Y-31883047D01*
X84874499Y-32404685D01*
X84752105Y-33020000D01*
X84874499Y-33635315D01*
X85163193Y-34067375D01*
X84985863Y-34185863D01*
X84825182Y-34426339D01*
X84768758Y-34710000D01*
X84768758Y-36410000D01*
X84825182Y-36693661D01*
X84985863Y-36934137D01*
X85226339Y-37094818D01*
X85510000Y-37151242D01*
X87210000Y-37151242D01*
X87493661Y-37094818D01*
X87734137Y-36934137D01*
X87894818Y-36693661D01*
X87951242Y-36410000D01*
X87951242Y-34710000D01*
X87894818Y-34426339D01*
X87734137Y-34185863D01*
X87556807Y-34067375D01*
X87845501Y-33635315D01*
X87967895Y-33020000D01*
X87845501Y-32404685D01*
X87496953Y-31883047D01*
X87297834Y-31750000D01*
X87496953Y-31616953D01*
X87845501Y-31095315D01*
X87967895Y-30480000D01*
X87903478Y-30156150D01*
X96732400Y-30156150D01*
X96732400Y-30696710D01*
X96829073Y-30930099D01*
X97007702Y-31108727D01*
X97241091Y-31205400D01*
X97656650Y-31205400D01*
X97815400Y-31046650D01*
X97815400Y-29997400D01*
X96891150Y-29997400D01*
X96732400Y-30156150D01*
X87903478Y-30156150D01*
X87845501Y-29864685D01*
X87496953Y-29343047D01*
X87049534Y-29044090D01*
X96732400Y-29044090D01*
X96732400Y-29584650D01*
X96891150Y-29743400D01*
X97815400Y-29743400D01*
X97815400Y-28694150D01*
X97656650Y-28535400D01*
X97241091Y-28535400D01*
X97007702Y-28632073D01*
X96829073Y-28810701D01*
X96732400Y-29044090D01*
X87049534Y-29044090D01*
X86975315Y-28994499D01*
X86515319Y-28903000D01*
X86204681Y-28903000D01*
X85744685Y-28994499D01*
X85223047Y-29343047D01*
X84874499Y-29864685D01*
X84752105Y-30480000D01*
X79462676Y-30480000D01*
X79797000Y-29672869D01*
X79797000Y-28747131D01*
X79442736Y-27891860D01*
X78788140Y-27237264D01*
X77932869Y-26883000D01*
X77007131Y-26883000D01*
X76151860Y-27237264D01*
X75497264Y-27891860D01*
X75143000Y-28747131D01*
X74370000Y-28747131D01*
X74370000Y-27984666D01*
X74432958Y-27486302D01*
X74601305Y-27061107D01*
X74870101Y-26691142D01*
X75222462Y-26399644D01*
X75636244Y-26204933D01*
X76118662Y-26112907D01*
X76211164Y-26110000D01*
X105630026Y-26110000D01*
X105504182Y-26298339D01*
X105504182Y-26298339D01*
G37*
X105504182Y-26298339D02*
X105447758Y-26582000D01*
X105447758Y-28282000D01*
X105504182Y-28565661D01*
X105595281Y-28702000D01*
X105504182Y-28838339D01*
X105447758Y-29122000D01*
X105447758Y-30822000D01*
X105504182Y-31105661D01*
X105595281Y-31242000D01*
X105504182Y-31378339D01*
X105447758Y-31662000D01*
X105447758Y-33362000D01*
X105503692Y-33643200D01*
X100639273Y-33643200D01*
X100696777Y-33604777D01*
X100912713Y-33281606D01*
X100969400Y-32996623D01*
X100969400Y-32996619D01*
X100988539Y-32900401D01*
X100969400Y-32804183D01*
X100969400Y-31053997D01*
X101018314Y-31021314D01*
X101233188Y-30699733D01*
X101308642Y-30320401D01*
X101308642Y-29420399D01*
X101233188Y-29041067D01*
X101018314Y-28719486D01*
X100696733Y-28504612D01*
X100317401Y-28429158D01*
X99667399Y-28429158D01*
X99288067Y-28504612D01*
X98966486Y-28719486D01*
X98965695Y-28720670D01*
X98877098Y-28632073D01*
X98643709Y-28535400D01*
X98228150Y-28535400D01*
X98069400Y-28694150D01*
X98069400Y-29743400D01*
X98089400Y-29743400D01*
X98089400Y-29997400D01*
X98069400Y-29997400D01*
X98069400Y-31046650D01*
X98228150Y-31205400D01*
X98643709Y-31205400D01*
X98877098Y-31108727D01*
X98965695Y-31020130D01*
X98966486Y-31021314D01*
X99015401Y-31053998D01*
X99015400Y-32495714D01*
X98461278Y-33049836D01*
X98427919Y-33043200D01*
X98117281Y-33043200D01*
X97657285Y-33134699D01*
X97225225Y-33423393D01*
X97106737Y-33246063D01*
X96866261Y-33085382D01*
X96582600Y-33028958D01*
X94882600Y-33028958D01*
X94598939Y-33085382D01*
X94358463Y-33246063D01*
X94197782Y-33486539D01*
X94141358Y-33770200D01*
X94141358Y-35470200D01*
X94197782Y-35753861D01*
X94358463Y-35994337D01*
X94598939Y-36155018D01*
X94882600Y-36211442D01*
X96582600Y-36211442D01*
X96866261Y-36155018D01*
X97106737Y-35994337D01*
X97225225Y-35817007D01*
X97657285Y-36105701D01*
X98117281Y-36197200D01*
X98427919Y-36197200D01*
X98887915Y-36105701D01*
X99409553Y-35757153D01*
X99516430Y-35597200D01*
X105447758Y-35597200D01*
X105447758Y-35902000D01*
X105504182Y-36185661D01*
X105595281Y-36322000D01*
X105504182Y-36458339D01*
X105473020Y-36615000D01*
X103245617Y-36615000D01*
X103149399Y-36595861D01*
X103053181Y-36615000D01*
X103053177Y-36615000D01*
X102768194Y-36671687D01*
X102768192Y-36671688D01*
X102768193Y-36671688D01*
X102526596Y-36833117D01*
X102526594Y-36833119D01*
X102445023Y-36887623D01*
X102390519Y-36969194D01*
X100668956Y-38690758D01*
X100258999Y-38690758D01*
X99879667Y-38766212D01*
X99559000Y-38980475D01*
X99238333Y-38766212D01*
X98859001Y-38690758D01*
X98208999Y-38690758D01*
X97829667Y-38766212D01*
X97508086Y-38981086D01*
X97391880Y-39155000D01*
X95303926Y-39155000D01*
X94901622Y-38752696D01*
X94303630Y-38505000D01*
X93656370Y-38505000D01*
X93058378Y-38752696D01*
X92959897Y-38851177D01*
X92864137Y-38707863D01*
X92623661Y-38547182D01*
X92340000Y-38490758D01*
X90540000Y-38490758D01*
X90256339Y-38547182D01*
X90015863Y-38707863D01*
X89855182Y-38948339D01*
X89798758Y-39232000D01*
X89798758Y-41032000D01*
X89855182Y-41315661D01*
X90015863Y-41556137D01*
X90256339Y-41716818D01*
X90540000Y-41773242D01*
X92340000Y-41773242D01*
X92623661Y-41716818D01*
X92864137Y-41556137D01*
X92959897Y-41412823D01*
X93058378Y-41511304D01*
X93656370Y-41759000D01*
X94303630Y-41759000D01*
X94901622Y-41511304D01*
X95303926Y-41109000D01*
X97391880Y-41109000D01*
X97508086Y-41282914D01*
X97829667Y-41497788D01*
X98208999Y-41573242D01*
X98859001Y-41573242D01*
X99238333Y-41497788D01*
X99559000Y-41283525D01*
X99879667Y-41497788D01*
X100258999Y-41573242D01*
X100909001Y-41573242D01*
X101288333Y-41497788D01*
X101609914Y-41282914D01*
X101824788Y-40961333D01*
X101900242Y-40582001D01*
X101900242Y-40237665D01*
X101937149Y-40213005D01*
X101991655Y-40131431D01*
X103554087Y-38569000D01*
X105473020Y-38569000D01*
X105504182Y-38725661D01*
X105595281Y-38862000D01*
X105504182Y-38998339D01*
X105473020Y-39155000D01*
X105252217Y-39155000D01*
X105155999Y-39135861D01*
X105059781Y-39155000D01*
X105059777Y-39155000D01*
X104774794Y-39211687D01*
X104693433Y-39266051D01*
X104533196Y-39373117D01*
X104533194Y-39373119D01*
X104451623Y-39427623D01*
X104397119Y-39509194D01*
X97879089Y-46027225D01*
X97961476Y-45871110D01*
X97791645Y-45461076D01*
X97401358Y-45032817D01*
X96876892Y-44786514D01*
X96647000Y-44907181D01*
X96647000Y-46101000D01*
X96667000Y-46101000D01*
X96667000Y-46355000D01*
X96647000Y-46355000D01*
X96647000Y-46375000D01*
X96393000Y-46375000D01*
X96393000Y-46355000D01*
X95199845Y-46355000D01*
X95078524Y-46584890D01*
X95248355Y-46994924D01*
X95638642Y-47423183D01*
X95671232Y-47438488D01*
X95383047Y-47631047D01*
X95276170Y-47791000D01*
X90143830Y-47791000D01*
X90036953Y-47631047D01*
X89748768Y-47438488D01*
X89781358Y-47423183D01*
X90171645Y-46994924D01*
X90341476Y-46584890D01*
X90220155Y-46355000D01*
X89027000Y-46355000D01*
X89027000Y-46375000D01*
X88773000Y-46375000D01*
X88773000Y-46355000D01*
X87579845Y-46355000D01*
X87458524Y-46584890D01*
X87628355Y-46994924D01*
X88018642Y-47423183D01*
X88051232Y-47438488D01*
X87763047Y-47631047D01*
X87656170Y-47791000D01*
X82523830Y-47791000D01*
X82416953Y-47631047D01*
X82128768Y-47438488D01*
X82161358Y-47423183D01*
X82551645Y-46994924D01*
X82721476Y-46584890D01*
X82600155Y-46355000D01*
X81407000Y-46355000D01*
X81407000Y-46375000D01*
X81153000Y-46375000D01*
X81153000Y-46355000D01*
X79959845Y-46355000D01*
X79838524Y-46584890D01*
X80008355Y-46994924D01*
X80398642Y-47423183D01*
X80431232Y-47438488D01*
X80143047Y-47631047D01*
X79794499Y-48152685D01*
X79672105Y-48768000D01*
X79794499Y-49383315D01*
X80143047Y-49904953D01*
X80342166Y-50038000D01*
X80143047Y-50171047D01*
X79794499Y-50692685D01*
X79672105Y-51308000D01*
X79794499Y-51923315D01*
X80083193Y-52355375D01*
X79905863Y-52473863D01*
X79745182Y-52714339D01*
X79688758Y-52998000D01*
X79688758Y-54698000D01*
X79745182Y-54981661D01*
X79905863Y-55222137D01*
X80146339Y-55382818D01*
X80430000Y-55439242D01*
X82130000Y-55439242D01*
X82413661Y-55382818D01*
X82654137Y-55222137D01*
X82814818Y-54981661D01*
X82871242Y-54698000D01*
X82871242Y-52998000D01*
X82814818Y-52714339D01*
X82654137Y-52473863D01*
X82476807Y-52355375D01*
X82523830Y-52285000D01*
X87656170Y-52285000D01*
X87703193Y-52355375D01*
X87525863Y-52473863D01*
X87365182Y-52714339D01*
X87308758Y-52998000D01*
X87308758Y-54698000D01*
X87365182Y-54981661D01*
X87525863Y-55222137D01*
X87766339Y-55382818D01*
X88050000Y-55439242D01*
X89750000Y-55439242D01*
X90033661Y-55382818D01*
X90274137Y-55222137D01*
X90434818Y-54981661D01*
X90491242Y-54698000D01*
X90491242Y-52998000D01*
X90434818Y-52714339D01*
X90274137Y-52473863D01*
X90096807Y-52355375D01*
X90143830Y-52285000D01*
X95276170Y-52285000D01*
X95323193Y-52355375D01*
X95145863Y-52473863D01*
X94985182Y-52714339D01*
X94928758Y-52998000D01*
X94928758Y-54698000D01*
X94985182Y-54981661D01*
X95145863Y-55222137D01*
X95386339Y-55382818D01*
X95670000Y-55439242D01*
X97370000Y-55439242D01*
X97653661Y-55382818D01*
X97894137Y-55222137D01*
X98054818Y-54981661D01*
X98111242Y-54698000D01*
X98111242Y-52998000D01*
X98054818Y-52714339D01*
X97894137Y-52473863D01*
X97716807Y-52355375D01*
X98005501Y-51923315D01*
X98127895Y-51308000D01*
X98090364Y-51119322D01*
X105487565Y-43722122D01*
X105504182Y-43805661D01*
X105595281Y-43942000D01*
X105504182Y-44078339D01*
X105447758Y-44362000D01*
X105447758Y-46062000D01*
X105504182Y-46345661D01*
X105595281Y-46482000D01*
X105504182Y-46618339D01*
X105447758Y-46902000D01*
X105447758Y-48602000D01*
X105504182Y-48885661D01*
X105595281Y-49022000D01*
X105504182Y-49158339D01*
X105447758Y-49442000D01*
X105447758Y-51142000D01*
X105504182Y-51425661D01*
X105595281Y-51562000D01*
X105504182Y-51698339D01*
X105447758Y-51982000D01*
X105447758Y-53682000D01*
X105504182Y-53965661D01*
X105595281Y-54102000D01*
X105504182Y-54238339D01*
X105447758Y-54522000D01*
X105447758Y-56222000D01*
X105504182Y-56505661D01*
X105595281Y-56642000D01*
X105504182Y-56778339D01*
X105447758Y-57062000D01*
X105447758Y-58762000D01*
X105504182Y-59045661D01*
X105595281Y-59182000D01*
X105504182Y-59318339D01*
X105447758Y-59602000D01*
X105447758Y-60331553D01*
X103256312Y-62523000D01*
X97763830Y-62523000D01*
X97665019Y-62375118D01*
X97729698Y-62348327D01*
X97908327Y-62169699D01*
X98005000Y-61936310D01*
X98005000Y-61245750D01*
X97846250Y-61087000D01*
X96647000Y-61087000D01*
X96647000Y-61107000D01*
X96393000Y-61107000D01*
X96393000Y-61087000D01*
X95193750Y-61087000D01*
X95035000Y-61245750D01*
X95035000Y-61936310D01*
X95131673Y-62169699D01*
X95310302Y-62348327D01*
X95374981Y-62375118D01*
X95034499Y-62884685D01*
X94912105Y-63500000D01*
X95034499Y-64115315D01*
X95383047Y-64636953D01*
X95582166Y-64770000D01*
X95383047Y-64903047D01*
X95034499Y-65424685D01*
X94912105Y-66040000D01*
X95034499Y-66655315D01*
X95383047Y-67176953D01*
X95582166Y-67310000D01*
X95383047Y-67443047D01*
X95034499Y-67964685D01*
X94912105Y-68580000D01*
X95034499Y-69195315D01*
X95383047Y-69716953D01*
X95582166Y-69850000D01*
X95383047Y-69983047D01*
X95034499Y-70504685D01*
X94912105Y-71120000D01*
X95034499Y-71735315D01*
X95383047Y-72256953D01*
X95582166Y-72390000D01*
X95383047Y-72523047D01*
X95034499Y-73044685D01*
X94912105Y-73660000D01*
X95034499Y-74275315D01*
X95383047Y-74796953D01*
X95904685Y-75145501D01*
X96364681Y-75237000D01*
X96675319Y-75237000D01*
X97135315Y-75145501D01*
X97597019Y-74837000D01*
X102825083Y-74837000D01*
X102940998Y-74860057D01*
X103056913Y-74837000D01*
X103056918Y-74837000D01*
X103400240Y-74768709D01*
X103789567Y-74508569D01*
X103855233Y-74410293D01*
X105447758Y-72817769D01*
X105447758Y-74002000D01*
X105504182Y-74285661D01*
X105595281Y-74422000D01*
X105504182Y-74558339D01*
X105447758Y-74842000D01*
X105447758Y-76542000D01*
X105504182Y-76825661D01*
X105664863Y-77066137D01*
X105905339Y-77226818D01*
X106189000Y-77283242D01*
X108990272Y-77283242D01*
X103009199Y-83264315D01*
X103009196Y-83264317D01*
X99366514Y-86907000D01*
X96019287Y-86907000D01*
X94380087Y-85267800D01*
X94380655Y-85267232D01*
X94542084Y-85025635D01*
X94617911Y-84644429D01*
X94587643Y-84492261D01*
X96517000Y-84492261D01*
X96517000Y-85099739D01*
X96749472Y-85660976D01*
X97179024Y-86090528D01*
X97740261Y-86323000D01*
X98347739Y-86323000D01*
X98908976Y-86090528D01*
X99338528Y-85660976D01*
X99571000Y-85099739D01*
X99571000Y-84492261D01*
X99338528Y-83931024D01*
X99089241Y-83681737D01*
X99203699Y-83634327D01*
X99382327Y-83455698D01*
X99479000Y-83222309D01*
X99479000Y-82581750D01*
X99320250Y-82423000D01*
X98171000Y-82423000D01*
X98171000Y-82443000D01*
X97917000Y-82443000D01*
X97917000Y-82423000D01*
X96767750Y-82423000D01*
X96609000Y-82581750D01*
X96609000Y-83222309D01*
X96705673Y-83455698D01*
X96884301Y-83634327D01*
X96998759Y-83681737D01*
X96749472Y-83931024D01*
X96517000Y-84492261D01*
X94587643Y-84492261D01*
X94542084Y-84263222D01*
X94326149Y-83940051D01*
X94002978Y-83724116D01*
X93621771Y-83648289D01*
X93240565Y-83724116D01*
X93087249Y-83826558D01*
X92673399Y-83826558D01*
X92294067Y-83902012D01*
X91972486Y-84116886D01*
X91971695Y-84118070D01*
X91883098Y-84029473D01*
X91649709Y-83932800D01*
X91234150Y-83932800D01*
X91075400Y-84091550D01*
X91075400Y-85140800D01*
X91095400Y-85140800D01*
X91095400Y-85394800D01*
X91075400Y-85394800D01*
X91075400Y-86444050D01*
X91234150Y-86602800D01*
X91649709Y-86602800D01*
X91883001Y-86506167D01*
X91883000Y-89340395D01*
X91881733Y-89340920D01*
X91395920Y-89826733D01*
X91395395Y-89828000D01*
X87824605Y-89828000D01*
X87824080Y-89826733D01*
X87338267Y-89340920D01*
X86703522Y-89078000D01*
X86016478Y-89078000D01*
X85381733Y-89340920D01*
X84895920Y-89826733D01*
X84633000Y-90461478D01*
X84633000Y-91148522D01*
X84895920Y-91783267D01*
X85381733Y-92269080D01*
X86016478Y-92532000D01*
X86703522Y-92532000D01*
X87338267Y-92269080D01*
X87824080Y-91783267D01*
X87824605Y-91782000D01*
X91395395Y-91782000D01*
X91395920Y-91783267D01*
X91881733Y-92269080D01*
X92516478Y-92532000D01*
X93203522Y-92532000D01*
X93838267Y-92269080D01*
X94324080Y-91783267D01*
X94587000Y-91148522D01*
X94587000Y-90461478D01*
X94324080Y-89826733D01*
X93838267Y-89340920D01*
X93837000Y-89340395D01*
X93837000Y-87488087D01*
X94855719Y-88506806D01*
X94910223Y-88588377D01*
X94991794Y-88642881D01*
X94991796Y-88642883D01*
X95233393Y-88804312D01*
X95233394Y-88804313D01*
X95518377Y-88861000D01*
X95518381Y-88861000D01*
X95614600Y-88880139D01*
X95710819Y-88861000D01*
X99674982Y-88861000D01*
X99771200Y-88880139D01*
X99867418Y-88861000D01*
X99867423Y-88861000D01*
X100152406Y-88804313D01*
X100475577Y-88588377D01*
X100530083Y-88506803D01*
X103407136Y-85629750D01*
X106163200Y-85629750D01*
X106163200Y-86170310D01*
X106259873Y-86403699D01*
X106438502Y-86582327D01*
X106671891Y-86679000D01*
X107087450Y-86679000D01*
X107246200Y-86520250D01*
X107246200Y-85471000D01*
X106321950Y-85471000D01*
X106163200Y-85629750D01*
X103407136Y-85629750D01*
X104390883Y-84646004D01*
X104390885Y-84646001D01*
X104519196Y-84517690D01*
X106163200Y-84517690D01*
X106163200Y-85058250D01*
X106321950Y-85217000D01*
X107246200Y-85217000D01*
X107246200Y-84167750D01*
X107087450Y-84009000D01*
X106671891Y-84009000D01*
X106438502Y-84105673D01*
X106259873Y-84284301D01*
X106163200Y-84517690D01*
X104519196Y-84517690D01*
X110462010Y-78574876D01*
X110462010Y-82923503D01*
X109482756Y-83902758D01*
X109098199Y-83902758D01*
X108718867Y-83978212D01*
X108397286Y-84193086D01*
X108396495Y-84194270D01*
X108307898Y-84105673D01*
X108074509Y-84009000D01*
X107658950Y-84009000D01*
X107500200Y-84167750D01*
X107500200Y-85217000D01*
X107520200Y-85217000D01*
X107520200Y-85471000D01*
X107500200Y-85471000D01*
X107500200Y-86520250D01*
X107658950Y-86679000D01*
X108074509Y-86679000D01*
X108307898Y-86582327D01*
X108393001Y-86497225D01*
X108393000Y-89340395D01*
X108391733Y-89340920D01*
X107905920Y-89826733D01*
X107905395Y-89828000D01*
X104334605Y-89828000D01*
X104334080Y-89826733D01*
X103848267Y-89340920D01*
X103213522Y-89078000D01*
X102526478Y-89078000D01*
X101891733Y-89340920D01*
X101405920Y-89826733D01*
X101143000Y-90461478D01*
X101143000Y-91148522D01*
X101405920Y-91783267D01*
X101891733Y-92269080D01*
X102526478Y-92532000D01*
X103213522Y-92532000D01*
X103848267Y-92269080D01*
X104334080Y-91783267D01*
X104334605Y-91782000D01*
X107905395Y-91782000D01*
X107905920Y-91783267D01*
X108391733Y-92269080D01*
X109026478Y-92532000D01*
X109713522Y-92532000D01*
X110348267Y-92269080D01*
X110834080Y-91783267D01*
X111097000Y-91148522D01*
X111097000Y-90461478D01*
X110834080Y-89826733D01*
X110348267Y-89340920D01*
X110347000Y-89340395D01*
X110347000Y-86563145D01*
X110449114Y-86494914D01*
X110663988Y-86173333D01*
X110739442Y-85794001D01*
X110739442Y-85409444D01*
X112061816Y-84087071D01*
X112143387Y-84032567D01*
X112197891Y-83950996D01*
X112197893Y-83950994D01*
X112359323Y-83709397D01*
X112374255Y-83634327D01*
X112416010Y-83424413D01*
X112416010Y-83424409D01*
X112435149Y-83328190D01*
X112416010Y-83231971D01*
X112416010Y-82061270D01*
X112906834Y-82552094D01*
X112774784Y-82749721D01*
X112710599Y-83072400D01*
X112710599Y-84872400D01*
X112774784Y-85195079D01*
X112957567Y-85468633D01*
X113231121Y-85651416D01*
X113553800Y-85715601D01*
X116053800Y-85715601D01*
X116376479Y-85651416D01*
X116650033Y-85468633D01*
X116803800Y-85238504D01*
X116957567Y-85468633D01*
X117231121Y-85651416D01*
X117553800Y-85715601D01*
X118535601Y-85715601D01*
X118535600Y-88136098D01*
X118416367Y-88215767D01*
X118233584Y-88489321D01*
X118169399Y-88812000D01*
X118169399Y-90512000D01*
X118233584Y-90834679D01*
X118416367Y-91108233D01*
X118689921Y-91291016D01*
X119012600Y-91355201D01*
X120712600Y-91355201D01*
X121035279Y-91291016D01*
X121308833Y-91108233D01*
X121438372Y-90914364D01*
X121787285Y-91147501D01*
X122247281Y-91239000D01*
X122557919Y-91239000D01*
X123017915Y-91147501D01*
X123539553Y-90798953D01*
X123672600Y-90599834D01*
X123805647Y-90798953D01*
X124327285Y-91147501D01*
X124787281Y-91239000D01*
X125097919Y-91239000D01*
X125557915Y-91147501D01*
X126079553Y-90798953D01*
X126212600Y-90599834D01*
X126345647Y-90798953D01*
X126867285Y-91147501D01*
X127327281Y-91239000D01*
X127637919Y-91239000D01*
X128097915Y-91147501D01*
X128619553Y-90798953D01*
X128968101Y-90277315D01*
X129090495Y-89662000D01*
X128968101Y-89046685D01*
X128619553Y-88525047D01*
X128097915Y-88176499D01*
X127637919Y-88085000D01*
X127327281Y-88085000D01*
X126867285Y-88176499D01*
X126345647Y-88525047D01*
X126212600Y-88724166D01*
X126079553Y-88525047D01*
X125919600Y-88418170D01*
X125919600Y-80231819D01*
X125938739Y-80135600D01*
X125919600Y-80039381D01*
X125919600Y-80039377D01*
X125862913Y-79754394D01*
X125729417Y-79554603D01*
X125701483Y-79512796D01*
X125701481Y-79512794D01*
X125646977Y-79431223D01*
X125565406Y-79376719D01*
X121860242Y-75671556D01*
X121860242Y-75545720D01*
X121876895Y-75462000D01*
X121860242Y-75378280D01*
X121860242Y-74612000D01*
X121803818Y-74328339D01*
X121643137Y-74087863D01*
X121402661Y-73927182D01*
X121119000Y-73870758D01*
X119419000Y-73870758D01*
X119135339Y-73927182D01*
X118999000Y-74018281D01*
X118862661Y-73927182D01*
X118579000Y-73870758D01*
X116879000Y-73870758D01*
X116595339Y-73927182D01*
X116459000Y-74018281D01*
X116322661Y-73927182D01*
X116039000Y-73870758D01*
X114465999Y-73870758D01*
X114465999Y-48395861D01*
X122729860Y-40132000D01*
X125011105Y-40132000D01*
X125027758Y-40215720D01*
X125027758Y-40982000D01*
X125084182Y-41265661D01*
X125175281Y-41402000D01*
X125084182Y-41538339D01*
X125027758Y-41822000D01*
X125027758Y-42588280D01*
X125011105Y-42672000D01*
X125027758Y-42755720D01*
X125027758Y-43522000D01*
X125084182Y-43805661D01*
X125175281Y-43942000D01*
X125084182Y-44078339D01*
X125027758Y-44362000D01*
X125027758Y-46062000D01*
X125084182Y-46345661D01*
X125175281Y-46482000D01*
X125084182Y-46618339D01*
X125027758Y-46902000D01*
X125027758Y-47668280D01*
X125011105Y-47752000D01*
X125027758Y-47835720D01*
X125027758Y-48602000D01*
X125084182Y-48885661D01*
X125175281Y-49022000D01*
X125084182Y-49158339D01*
X125027758Y-49442000D01*
X125027758Y-50208280D01*
X125011105Y-50292000D01*
X125027758Y-50375720D01*
X125027758Y-51142000D01*
X125084182Y-51425661D01*
X125175281Y-51562000D01*
X125084182Y-51698339D01*
X125027758Y-51982000D01*
X125027758Y-52748280D01*
X125011105Y-52832000D01*
X125027758Y-52915720D01*
X125027758Y-53682000D01*
X125084182Y-53965661D01*
X125175281Y-54102000D01*
X125084182Y-54238339D01*
X125027758Y-54522000D01*
X125027758Y-55288280D01*
X125011105Y-55372000D01*
X125027758Y-55455720D01*
X125027758Y-56222000D01*
X125084182Y-56505661D01*
X125175281Y-56642000D01*
X125084182Y-56778339D01*
X125027758Y-57062000D01*
X125027758Y-58762000D01*
X125084182Y-59045661D01*
X125175281Y-59182000D01*
X125084182Y-59318339D01*
X125027758Y-59602000D01*
X125027758Y-60368280D01*
X125011105Y-60452000D01*
X125027758Y-60535720D01*
X125027758Y-61302000D01*
X125084182Y-61585661D01*
X125175281Y-61722000D01*
X125084182Y-61858339D01*
X125027758Y-62142000D01*
X125027758Y-62908280D01*
X125011105Y-62992000D01*
X125027758Y-63075720D01*
X125027758Y-63842000D01*
X125084182Y-64125661D01*
X125175281Y-64262000D01*
X125084182Y-64398339D01*
X125027758Y-64682000D01*
X125027758Y-65448280D01*
X125011105Y-65532000D01*
X125027758Y-65615720D01*
X125027758Y-66382000D01*
X125084182Y-66665661D01*
X125175281Y-66802000D01*
X125084182Y-66938339D01*
X125027758Y-67222000D01*
X125027758Y-67988280D01*
X125011105Y-68072000D01*
X125027758Y-68155720D01*
X125027758Y-68922000D01*
X125084182Y-69205661D01*
X125175281Y-69342000D01*
X125084182Y-69478339D01*
X125027758Y-69762000D01*
X125027758Y-71462000D01*
X125084182Y-71745661D01*
X125175281Y-71882000D01*
X125084182Y-72018339D01*
X125027758Y-72302000D01*
X125027758Y-73068280D01*
X125011105Y-73152000D01*
X125027758Y-73235720D01*
X125027758Y-74002000D01*
X125084182Y-74285661D01*
X125175281Y-74422000D01*
X125084182Y-74558339D01*
X125027758Y-74842000D01*
X125027758Y-75608280D01*
X125011105Y-75692000D01*
X125027758Y-75775720D01*
X125027758Y-76542000D01*
X125084182Y-76825661D01*
X125244863Y-77066137D01*
X125485339Y-77226818D01*
X125769000Y-77283242D01*
X129269000Y-77283242D01*
X129552661Y-77226818D01*
X129793137Y-77066137D01*
X129953818Y-76825661D01*
X129984980Y-76669000D01*
X130815382Y-76669000D01*
X130911600Y-76688139D01*
X131007818Y-76669000D01*
X131007823Y-76669000D01*
X131292806Y-76612313D01*
X131615977Y-76396377D01*
X131670483Y-76314803D01*
X133968264Y-74017022D01*
X135983000Y-74017022D01*
X135983000Y-74902978D01*
X136322040Y-75721494D01*
X136948506Y-76347960D01*
X137767022Y-76687000D01*
X138652978Y-76687000D01*
X139471494Y-76347960D01*
X140097960Y-75721494D01*
X140437000Y-74902978D01*
X140437000Y-74017022D01*
X140097960Y-73198506D01*
X140009454Y-73110000D01*
X144458758Y-73110000D01*
X144458758Y-74810000D01*
X144515182Y-75093661D01*
X144675863Y-75334137D01*
X144916339Y-75494818D01*
X145200000Y-75551242D01*
X146900000Y-75551242D01*
X147183661Y-75494818D01*
X147424137Y-75334137D01*
X147584818Y-75093661D01*
X147585002Y-75092734D01*
X147610938Y-75118670D01*
X147725648Y-75003960D01*
X147805920Y-75255259D01*
X148361279Y-75456718D01*
X148951458Y-75430315D01*
X149374080Y-75255259D01*
X149454353Y-75003958D01*
X148590000Y-74139605D01*
X148575858Y-74153748D01*
X148396253Y-73974143D01*
X148410395Y-73960000D01*
X148769605Y-73960000D01*
X149633958Y-74824353D01*
X149763901Y-74782845D01*
X149793084Y-74853299D01*
X150236701Y-75296916D01*
X150816315Y-75537000D01*
X151443685Y-75537000D01*
X152023299Y-75296916D01*
X152400000Y-74920215D01*
X152776701Y-75296916D01*
X153356315Y-75537000D01*
X153983685Y-75537000D01*
X154563299Y-75296916D01*
X155006916Y-74853299D01*
X155247000Y-74273685D01*
X155247000Y-74017022D01*
X159283000Y-74017022D01*
X159283000Y-74902978D01*
X159622040Y-75721494D01*
X160248506Y-76347960D01*
X161067022Y-76687000D01*
X161952978Y-76687000D01*
X162771494Y-76347960D01*
X163397960Y-75721494D01*
X163737000Y-74902978D01*
X163737000Y-74017022D01*
X163397960Y-73198506D01*
X162771494Y-72572040D01*
X161952978Y-72233000D01*
X161067022Y-72233000D01*
X160248506Y-72572040D01*
X159622040Y-73198506D01*
X159283000Y-74017022D01*
X155247000Y-74017022D01*
X155247000Y-73646315D01*
X155006916Y-73066701D01*
X154563299Y-72623084D01*
X153983685Y-72383000D01*
X153356315Y-72383000D01*
X152776701Y-72623084D01*
X152400000Y-72999785D01*
X152023299Y-72623084D01*
X151443685Y-72383000D01*
X150816315Y-72383000D01*
X150236701Y-72623084D01*
X149793084Y-73066701D01*
X149763901Y-73137155D01*
X149633958Y-73095647D01*
X148769605Y-73960000D01*
X148410395Y-73960000D01*
X148396253Y-73945858D01*
X148575858Y-73766253D01*
X148590000Y-73780395D01*
X149454353Y-72916042D01*
X149374080Y-72664741D01*
X148818721Y-72463282D01*
X148228542Y-72489685D01*
X147805920Y-72664741D01*
X147725648Y-72916040D01*
X147610938Y-72801330D01*
X147585002Y-72827266D01*
X147584818Y-72826339D01*
X147424137Y-72585863D01*
X147183661Y-72425182D01*
X146900000Y-72368758D01*
X145200000Y-72368758D01*
X144916339Y-72425182D01*
X144675863Y-72585863D01*
X144515182Y-72826339D01*
X144458758Y-73110000D01*
X140009454Y-73110000D01*
X139471494Y-72572040D01*
X138652978Y-72233000D01*
X137767022Y-72233000D01*
X136948506Y-72572040D01*
X136322040Y-73198506D01*
X135983000Y-74017022D01*
X133968264Y-74017022D01*
X135862886Y-72122400D01*
X152176782Y-72122400D01*
X152273000Y-72141539D01*
X152369218Y-72122400D01*
X152369223Y-72122400D01*
X152654206Y-72065713D01*
X152977377Y-71849777D01*
X153031883Y-71768203D01*
X154918336Y-69881750D01*
X165189000Y-69881750D01*
X165189000Y-70522310D01*
X165285673Y-70755699D01*
X165464302Y-70934327D01*
X165697691Y-71031000D01*
X166338250Y-71031000D01*
X166497000Y-70872250D01*
X166497000Y-69723000D01*
X165347750Y-69723000D01*
X165189000Y-69881750D01*
X154918336Y-69881750D01*
X155867606Y-68932481D01*
X155949177Y-68877977D01*
X156003681Y-68796406D01*
X156003683Y-68796404D01*
X156088350Y-68669690D01*
X165189000Y-68669690D01*
X165189000Y-69310250D01*
X165347750Y-69469000D01*
X166497000Y-69469000D01*
X166497000Y-68319750D01*
X166751000Y-68319750D01*
X166751000Y-69469000D01*
X166771000Y-69469000D01*
X166771000Y-69723000D01*
X166751000Y-69723000D01*
X166751000Y-70872250D01*
X166909750Y-71031000D01*
X167550309Y-71031000D01*
X167783698Y-70934327D01*
X167962327Y-70755699D01*
X168009737Y-70641241D01*
X168259024Y-70890528D01*
X168820261Y-71123000D01*
X169427739Y-71123000D01*
X169988976Y-70890528D01*
X170418528Y-70460976D01*
X170651000Y-69899739D01*
X170651000Y-69292261D01*
X170418528Y-68731024D01*
X169988976Y-68301472D01*
X169427739Y-68069000D01*
X168820261Y-68069000D01*
X168259024Y-68301472D01*
X168009737Y-68550759D01*
X167962327Y-68436301D01*
X167783698Y-68257673D01*
X167550309Y-68161000D01*
X166909750Y-68161000D01*
X166751000Y-68319750D01*
X166497000Y-68319750D01*
X166338250Y-68161000D01*
X165697691Y-68161000D01*
X165464302Y-68257673D01*
X165285673Y-68436301D01*
X165189000Y-68669690D01*
X156088350Y-68669690D01*
X156165113Y-68554807D01*
X156185322Y-68453207D01*
X156221800Y-68269823D01*
X156221800Y-68269819D01*
X156240939Y-68173600D01*
X156221800Y-68077381D01*
X156221800Y-65055750D01*
X158535000Y-65055750D01*
X158535000Y-65746310D01*
X158631673Y-65979699D01*
X158810302Y-66158327D01*
X159043691Y-66255000D01*
X159734250Y-66255000D01*
X159893000Y-66096250D01*
X159893000Y-64897000D01*
X160147000Y-64897000D01*
X160147000Y-66096250D01*
X160305750Y-66255000D01*
X160996309Y-66255000D01*
X161229698Y-66158327D01*
X161408327Y-65979699D01*
X161505000Y-65746310D01*
X161505000Y-65055750D01*
X161346250Y-64897000D01*
X160147000Y-64897000D01*
X159893000Y-64897000D01*
X158693750Y-64897000D01*
X158535000Y-65055750D01*
X156221800Y-65055750D01*
X156221800Y-59764486D01*
X157859287Y-58127000D01*
X158776170Y-58127000D01*
X158883047Y-58286953D01*
X159082166Y-58420000D01*
X158883047Y-58553047D01*
X158534499Y-59074685D01*
X158412105Y-59690000D01*
X158534499Y-60305315D01*
X158883047Y-60826953D01*
X159082166Y-60960000D01*
X158883047Y-61093047D01*
X158534499Y-61614685D01*
X158412105Y-62230000D01*
X158534499Y-62845315D01*
X158874981Y-63354882D01*
X158810302Y-63381673D01*
X158631673Y-63560301D01*
X158535000Y-63793690D01*
X158535000Y-64484250D01*
X158693750Y-64643000D01*
X159893000Y-64643000D01*
X159893000Y-64623000D01*
X160147000Y-64623000D01*
X160147000Y-64643000D01*
X161346250Y-64643000D01*
X161505000Y-64484250D01*
X161505000Y-63793690D01*
X161408327Y-63560301D01*
X161229698Y-63381673D01*
X161165019Y-63354882D01*
X161505501Y-62845315D01*
X161627895Y-62230000D01*
X161505501Y-61614685D01*
X161156953Y-61093047D01*
X160957834Y-60960000D01*
X161156953Y-60826953D01*
X161505501Y-60305315D01*
X161627895Y-59690000D01*
X161505501Y-59074685D01*
X161156953Y-58553047D01*
X160957834Y-58420000D01*
X161156953Y-58286953D01*
X161505501Y-57765315D01*
X161556905Y-57506890D01*
X166198524Y-57506890D01*
X166368355Y-57916924D01*
X166758642Y-58345183D01*
X167283108Y-58591486D01*
X167513000Y-58470819D01*
X167513000Y-57277000D01*
X167767000Y-57277000D01*
X167767000Y-58470819D01*
X167996892Y-58591486D01*
X168521358Y-58345183D01*
X168911645Y-57916924D01*
X169081476Y-57506890D01*
X168960155Y-57277000D01*
X167767000Y-57277000D01*
X167513000Y-57277000D01*
X166319845Y-57277000D01*
X166198524Y-57506890D01*
X161556905Y-57506890D01*
X161627895Y-57150000D01*
X161505501Y-56534685D01*
X161156953Y-56013047D01*
X160957834Y-55880000D01*
X161156953Y-55746953D01*
X161505501Y-55225315D01*
X161556905Y-54966890D01*
X166198524Y-54966890D01*
X166368355Y-55376924D01*
X166758642Y-55805183D01*
X166917954Y-55880000D01*
X166758642Y-55954817D01*
X166368355Y-56383076D01*
X166198524Y-56793110D01*
X166319845Y-57023000D01*
X167513000Y-57023000D01*
X167513000Y-54737000D01*
X167767000Y-54737000D01*
X167767000Y-57023000D01*
X168960155Y-57023000D01*
X169081476Y-56793110D01*
X168911645Y-56383076D01*
X168521358Y-55954817D01*
X168362046Y-55880000D01*
X168521358Y-55805183D01*
X168911645Y-55376924D01*
X169081476Y-54966890D01*
X168960155Y-54737000D01*
X167767000Y-54737000D01*
X167513000Y-54737000D01*
X166319845Y-54737000D01*
X166198524Y-54966890D01*
X161556905Y-54966890D01*
X161627895Y-54610000D01*
X161505501Y-53994685D01*
X161156953Y-53473047D01*
X160957834Y-53340000D01*
X161156953Y-53206953D01*
X161505501Y-52685315D01*
X161571055Y-52355750D01*
X166155000Y-52355750D01*
X166155000Y-53046310D01*
X166251673Y-53279699D01*
X166430302Y-53458327D01*
X166639878Y-53545136D01*
X166368355Y-53843076D01*
X166198524Y-54253110D01*
X166319845Y-54483000D01*
X167513000Y-54483000D01*
X167513000Y-52197000D01*
X167767000Y-52197000D01*
X167767000Y-54483000D01*
X168960155Y-54483000D01*
X169081476Y-54253110D01*
X168911645Y-53843076D01*
X168640122Y-53545136D01*
X168849698Y-53458327D01*
X169028327Y-53279699D01*
X169125000Y-53046310D01*
X169125000Y-52355750D01*
X168966250Y-52197000D01*
X167767000Y-52197000D01*
X167513000Y-52197000D01*
X166313750Y-52197000D01*
X166155000Y-52355750D01*
X161571055Y-52355750D01*
X161627895Y-52070000D01*
X161505501Y-51454685D01*
X161264292Y-51093690D01*
X166155000Y-51093690D01*
X166155000Y-51784250D01*
X166313750Y-51943000D01*
X167513000Y-51943000D01*
X167513000Y-50743750D01*
X167767000Y-50743750D01*
X167767000Y-51943000D01*
X168966250Y-51943000D01*
X169125000Y-51784250D01*
X169125000Y-51093690D01*
X169028327Y-50860301D01*
X168849698Y-50681673D01*
X168616309Y-50585000D01*
X167925750Y-50585000D01*
X167767000Y-50743750D01*
X167513000Y-50743750D01*
X167354250Y-50585000D01*
X166663691Y-50585000D01*
X166430302Y-50681673D01*
X166251673Y-50860301D01*
X166155000Y-51093690D01*
X161264292Y-51093690D01*
X161156953Y-50933047D01*
X160635315Y-50584499D01*
X160175319Y-50493000D01*
X159864681Y-50493000D01*
X159404685Y-50584499D01*
X158883047Y-50933047D01*
X158534499Y-51454685D01*
X158412105Y-52070000D01*
X158534499Y-52685315D01*
X158883047Y-53206953D01*
X159082166Y-53340000D01*
X158883047Y-53473047D01*
X158776170Y-53633000D01*
X156407818Y-53633000D01*
X156311600Y-53613861D01*
X156215382Y-53633000D01*
X156215377Y-53633000D01*
X155930394Y-53689687D01*
X155930392Y-53689688D01*
X155930393Y-53689688D01*
X155688796Y-53851117D01*
X155688794Y-53851119D01*
X155607223Y-53905623D01*
X155552719Y-53987194D01*
X153656795Y-55883119D01*
X153575224Y-55937623D01*
X153520720Y-56019194D01*
X153520717Y-56019197D01*
X153359288Y-56260794D01*
X153283461Y-56642000D01*
X153302601Y-56738223D01*
X153302600Y-67006913D01*
X151041124Y-69268390D01*
X134016027Y-69268390D01*
X133919809Y-69249251D01*
X133823591Y-69268390D01*
X133823587Y-69268390D01*
X133538604Y-69325077D01*
X133538602Y-69325078D01*
X133538603Y-69325078D01*
X133297006Y-69486507D01*
X133297004Y-69486509D01*
X133215433Y-69541013D01*
X133160929Y-69622584D01*
X130608514Y-72175000D01*
X129984980Y-72175000D01*
X129953818Y-72018339D01*
X129862719Y-71882000D01*
X129953818Y-71745661D01*
X130010242Y-71462000D01*
X130010242Y-69762000D01*
X129953818Y-69478339D01*
X129862719Y-69342000D01*
X129953818Y-69205661D01*
X129984980Y-69049000D01*
X138308382Y-69049000D01*
X138404600Y-69068139D01*
X138500818Y-69049000D01*
X138500823Y-69049000D01*
X138785806Y-68992313D01*
X139108977Y-68776377D01*
X139163483Y-68694803D01*
X142802536Y-65055750D01*
X148375000Y-65055750D01*
X148375000Y-65746310D01*
X148471673Y-65979699D01*
X148650302Y-66158327D01*
X148883691Y-66255000D01*
X149574250Y-66255000D01*
X149733000Y-66096250D01*
X149733000Y-64897000D01*
X149987000Y-64897000D01*
X149987000Y-66096250D01*
X150145750Y-66255000D01*
X150836309Y-66255000D01*
X151069698Y-66158327D01*
X151248327Y-65979699D01*
X151345000Y-65746310D01*
X151345000Y-65055750D01*
X151186250Y-64897000D01*
X149987000Y-64897000D01*
X149733000Y-64897000D01*
X148533750Y-64897000D01*
X148375000Y-65055750D01*
X142802536Y-65055750D01*
X144651287Y-63207000D01*
X148616170Y-63207000D01*
X148714981Y-63354882D01*
X148650302Y-63381673D01*
X148471673Y-63560301D01*
X148375000Y-63793690D01*
X148375000Y-64484250D01*
X148533750Y-64643000D01*
X149733000Y-64643000D01*
X149733000Y-64623000D01*
X149987000Y-64623000D01*
X149987000Y-64643000D01*
X151186250Y-64643000D01*
X151345000Y-64484250D01*
X151345000Y-63793690D01*
X151248327Y-63560301D01*
X151069698Y-63381673D01*
X151005019Y-63354882D01*
X151345501Y-62845315D01*
X151467895Y-62230000D01*
X151345501Y-61614685D01*
X150996953Y-61093047D01*
X150797834Y-60960000D01*
X150996953Y-60826953D01*
X151345501Y-60305315D01*
X151467895Y-59690000D01*
X151345501Y-59074685D01*
X150996953Y-58553047D01*
X150797834Y-58420000D01*
X150996953Y-58286953D01*
X151345501Y-57765315D01*
X151467895Y-57150000D01*
X151345501Y-56534685D01*
X150996953Y-56013047D01*
X150797834Y-55880000D01*
X150996953Y-55746953D01*
X151345501Y-55225315D01*
X151467895Y-54610000D01*
X151345501Y-53994685D01*
X150996953Y-53473047D01*
X150797834Y-53340000D01*
X150996953Y-53206953D01*
X151345501Y-52685315D01*
X151467895Y-52070000D01*
X151345501Y-51454685D01*
X150996953Y-50933047D01*
X150475315Y-50584499D01*
X150015319Y-50493000D01*
X149947528Y-50493000D01*
X149809034Y-50354506D01*
X149743369Y-50256231D01*
X149354042Y-49996091D01*
X149010720Y-49927800D01*
X149010715Y-49927800D01*
X148894800Y-49904743D01*
X148778885Y-49927800D01*
X142239547Y-49927800D01*
X141952467Y-49640720D01*
X141317722Y-49377800D01*
X140630678Y-49377800D01*
X139995933Y-49640720D01*
X139510120Y-50126533D01*
X139247200Y-50761278D01*
X139247200Y-51448322D01*
X139510120Y-52083067D01*
X139995933Y-52568880D01*
X140630678Y-52831800D01*
X141317722Y-52831800D01*
X141952467Y-52568880D01*
X142239547Y-52281800D01*
X148294235Y-52281800D01*
X148374499Y-52685315D01*
X148723047Y-53206953D01*
X148922166Y-53340000D01*
X148723047Y-53473047D01*
X148374499Y-53994685D01*
X148252105Y-54610000D01*
X148374499Y-55225315D01*
X148723047Y-55746953D01*
X148922166Y-55880000D01*
X148723047Y-56013047D01*
X148374499Y-56534685D01*
X148252105Y-57150000D01*
X148374499Y-57765315D01*
X148723047Y-58286953D01*
X148922166Y-58420000D01*
X148723047Y-58553047D01*
X148616170Y-58713000D01*
X142971219Y-58713000D01*
X142875000Y-58693861D01*
X142778781Y-58713000D01*
X142778777Y-58713000D01*
X142532439Y-58762000D01*
X142493794Y-58769687D01*
X142252196Y-58931117D01*
X142252194Y-58931119D01*
X142170623Y-58985623D01*
X142116119Y-59067194D01*
X136628314Y-64555000D01*
X129984980Y-64555000D01*
X129953818Y-64398339D01*
X129862719Y-64262000D01*
X129953818Y-64125661D01*
X130010242Y-63842000D01*
X130010242Y-62142000D01*
X129953818Y-61858339D01*
X129862719Y-61722000D01*
X129953818Y-61585661D01*
X130010242Y-61302000D01*
X130010242Y-59602000D01*
X129953818Y-59318339D01*
X129862719Y-59182000D01*
X129953818Y-59045661D01*
X130010242Y-58762000D01*
X130010242Y-57062000D01*
X129953818Y-56778339D01*
X129862719Y-56642000D01*
X129953818Y-56505661D01*
X130010242Y-56222000D01*
X130010242Y-54522000D01*
X129953818Y-54238339D01*
X129862719Y-54102000D01*
X129953818Y-53965661D01*
X130010242Y-53682000D01*
X130010242Y-51982000D01*
X129953818Y-51698339D01*
X129862719Y-51562000D01*
X129953818Y-51425661D01*
X130010242Y-51142000D01*
X130010242Y-50412446D01*
X133515606Y-46907083D01*
X133597177Y-46852579D01*
X133651681Y-46771008D01*
X133651683Y-46771006D01*
X133813112Y-46529409D01*
X133813113Y-46529408D01*
X133869800Y-46244425D01*
X133869800Y-46244421D01*
X133888939Y-46148203D01*
X133869800Y-46051985D01*
X133869800Y-44626086D01*
X134764088Y-43731799D01*
X134966517Y-43731799D01*
X134747200Y-44261278D01*
X134747200Y-44948322D01*
X135010120Y-45583067D01*
X135495933Y-46068880D01*
X135497201Y-46069405D01*
X135497200Y-49640195D01*
X135495933Y-49640720D01*
X135010120Y-50126533D01*
X134747200Y-50761278D01*
X134747200Y-51448322D01*
X135010120Y-52083067D01*
X135495933Y-52568880D01*
X136130678Y-52831800D01*
X136817722Y-52831800D01*
X137452467Y-52568880D01*
X137938280Y-52083067D01*
X138201200Y-51448322D01*
X138201200Y-50761278D01*
X137938280Y-50126533D01*
X137452467Y-49640720D01*
X137451200Y-49640195D01*
X137451200Y-46069405D01*
X137452467Y-46068880D01*
X137938280Y-45583067D01*
X138201200Y-44948322D01*
X138201200Y-44261278D01*
X137981883Y-43731799D01*
X139466517Y-43731799D01*
X139247200Y-44261278D01*
X139247200Y-44948322D01*
X139510120Y-45583067D01*
X139995933Y-46068880D01*
X140630678Y-46331800D01*
X141317722Y-46331800D01*
X141952467Y-46068880D01*
X142438280Y-45583067D01*
X142701200Y-44948322D01*
X142701200Y-44261278D01*
X142481883Y-43731799D01*
X154567313Y-43731799D01*
X155781319Y-44945806D01*
X155835823Y-45027377D01*
X155917394Y-45081881D01*
X155917396Y-45081883D01*
X156077633Y-45188949D01*
X156158994Y-45243313D01*
X156443977Y-45300000D01*
X156443981Y-45300000D01*
X156540199Y-45319139D01*
X156636417Y-45300000D01*
X161320782Y-45300000D01*
X161417000Y-45319139D01*
X161513218Y-45300000D01*
X161513223Y-45300000D01*
X161798206Y-45243313D01*
X162121377Y-45027377D01*
X162175883Y-44945803D01*
X165010911Y-42110775D01*
X164928524Y-42266890D01*
X165098355Y-42676924D01*
X165488642Y-43105183D01*
X166013108Y-43351486D01*
X166243000Y-43230819D01*
X166243000Y-42037000D01*
X166497000Y-42037000D01*
X166497000Y-43230819D01*
X166726892Y-43351486D01*
X167251358Y-43105183D01*
X167641645Y-42676924D01*
X167811476Y-42266890D01*
X167690155Y-42037000D01*
X166497000Y-42037000D01*
X166243000Y-42037000D01*
X166223000Y-42037000D01*
X166223000Y-41783000D01*
X166243000Y-41783000D01*
X166243000Y-41763000D01*
X166497000Y-41763000D01*
X166497000Y-41783000D01*
X167690155Y-41783000D01*
X167811476Y-41553110D01*
X167641645Y-41143076D01*
X167251358Y-40714817D01*
X167218768Y-40699512D01*
X167506953Y-40506953D01*
X167855501Y-39985315D01*
X167977895Y-39370000D01*
X167855501Y-38754685D01*
X167566807Y-38322625D01*
X167744137Y-38204137D01*
X167904818Y-37963661D01*
X167961242Y-37680000D01*
X167961242Y-35980000D01*
X167904818Y-35696339D01*
X167744137Y-35455863D01*
X167503661Y-35295182D01*
X167220000Y-35238758D01*
X165520000Y-35238758D01*
X165236339Y-35295182D01*
X164995863Y-35455863D01*
X164835182Y-35696339D01*
X164804020Y-35853000D01*
X160315980Y-35853000D01*
X160284818Y-35696339D01*
X160124137Y-35455863D01*
X159883661Y-35295182D01*
X159600000Y-35238758D01*
X157900000Y-35238758D01*
X157616339Y-35295182D01*
X157375863Y-35455863D01*
X157215182Y-35696339D01*
X157179086Y-35877803D01*
X157057439Y-35902000D01*
X157018794Y-35909687D01*
X156777196Y-36071117D01*
X156777194Y-36071119D01*
X156695623Y-36125623D01*
X156641119Y-36207194D01*
X153210714Y-39637600D01*
X140814086Y-39637600D01*
X142051322Y-38400365D01*
X142084681Y-38407000D01*
X142395319Y-38407000D01*
X142855315Y-38315501D01*
X143376953Y-37966953D01*
X143510000Y-37767834D01*
X143643047Y-37966953D01*
X144164685Y-38315501D01*
X144624681Y-38407000D01*
X144935319Y-38407000D01*
X145395315Y-38315501D01*
X145916953Y-37966953D01*
X146050000Y-37767834D01*
X146183047Y-37966953D01*
X146704685Y-38315501D01*
X147164681Y-38407000D01*
X147475319Y-38407000D01*
X147935315Y-38315501D01*
X148367375Y-38026807D01*
X148485863Y-38204137D01*
X148726339Y-38364818D01*
X149010000Y-38421242D01*
X150710000Y-38421242D01*
X150993661Y-38364818D01*
X151234137Y-38204137D01*
X151394818Y-37963661D01*
X151451242Y-37680000D01*
X151451242Y-35980000D01*
X151394818Y-35696339D01*
X151234137Y-35455863D01*
X150993661Y-35295182D01*
X150710000Y-35238758D01*
X149010000Y-35238758D01*
X148726339Y-35295182D01*
X148485863Y-35455863D01*
X148367375Y-35633193D01*
X147935315Y-35344499D01*
X147475319Y-35253000D01*
X147164681Y-35253000D01*
X146704685Y-35344499D01*
X146183047Y-35693047D01*
X146050000Y-35892166D01*
X145916953Y-35693047D01*
X145395315Y-35344499D01*
X144935319Y-35253000D01*
X144624681Y-35253000D01*
X144164685Y-35344499D01*
X143643047Y-35693047D01*
X143510000Y-35892166D01*
X143376953Y-35693047D01*
X142855315Y-35344499D01*
X142395319Y-35253000D01*
X142084681Y-35253000D01*
X141624685Y-35344499D01*
X141103047Y-35693047D01*
X140910488Y-35981232D01*
X140895183Y-35948642D01*
X140466924Y-35558355D01*
X140056890Y-35388524D01*
X139827000Y-35509845D01*
X139827000Y-36703000D01*
X139847000Y-36703000D01*
X139847000Y-36957000D01*
X139827000Y-36957000D01*
X139827000Y-36977000D01*
X139573000Y-36977000D01*
X139573000Y-36957000D01*
X138379181Y-36957000D01*
X138258514Y-37186892D01*
X138504817Y-37711358D01*
X138933076Y-38101645D01*
X139343110Y-38271476D01*
X139499225Y-38189088D01*
X139396914Y-38291400D01*
X132658817Y-38291400D01*
X132562599Y-38272261D01*
X132466381Y-38291400D01*
X132466377Y-38291400D01*
X132181394Y-38348087D01*
X132100033Y-38402451D01*
X131939796Y-38509517D01*
X131939794Y-38509519D01*
X131858223Y-38564023D01*
X131803719Y-38645594D01*
X130010242Y-40439072D01*
X130010242Y-39282000D01*
X129953818Y-38998339D01*
X129813106Y-38787748D01*
X129904000Y-38568310D01*
X129904000Y-37877750D01*
X129745250Y-37719000D01*
X125292750Y-37719000D01*
X125134000Y-37877750D01*
X125134000Y-38568310D01*
X125224894Y-38787748D01*
X125084182Y-38998339D01*
X125027758Y-39282000D01*
X125027758Y-40048280D01*
X125011105Y-40132000D01*
X122729860Y-40132000D01*
X123731117Y-39130744D01*
X123841912Y-39056713D01*
X123915944Y-38945917D01*
X123915946Y-38945915D01*
X124075007Y-38707863D01*
X124135206Y-38617770D01*
X124212200Y-38230696D01*
X124212200Y-38230692D01*
X124238196Y-38100000D01*
X124212200Y-37969308D01*
X124212200Y-32553660D01*
X125027758Y-31738103D01*
X125027758Y-33362000D01*
X125084182Y-33645661D01*
X125175281Y-33782000D01*
X125084182Y-33918339D01*
X125027758Y-34202000D01*
X125027758Y-34968280D01*
X125011105Y-35052000D01*
X125027758Y-35135720D01*
X125027758Y-35902000D01*
X125084182Y-36185661D01*
X125224894Y-36396252D01*
X125134000Y-36615690D01*
X125134000Y-37306250D01*
X125292750Y-37465000D01*
X129745250Y-37465000D01*
X129904000Y-37306250D01*
X129904000Y-36615690D01*
X129844941Y-36473108D01*
X138258514Y-36473108D01*
X138379181Y-36703000D01*
X139573000Y-36703000D01*
X139573000Y-35509845D01*
X139343110Y-35388524D01*
X138933076Y-35558355D01*
X138504817Y-35948642D01*
X138258514Y-36473108D01*
X129844941Y-36473108D01*
X129813106Y-36396252D01*
X129953818Y-36185661D01*
X130010242Y-35902000D01*
X130010242Y-34202000D01*
X129953818Y-33918339D01*
X129862719Y-33782000D01*
X129953818Y-33645661D01*
X130010242Y-33362000D01*
X130010242Y-31662000D01*
X129953818Y-31378339D01*
X129922854Y-31331998D01*
X129944902Y-31299000D01*
X132505306Y-31299000D01*
X132635998Y-31324996D01*
X132766690Y-31299000D01*
X132766694Y-31299000D01*
X133093000Y-31234094D01*
X133093000Y-31251739D01*
X133325472Y-31812976D01*
X133755024Y-32242528D01*
X134316261Y-32475000D01*
X134923739Y-32475000D01*
X135484976Y-32242528D01*
X135914528Y-31812976D01*
X136147000Y-31251739D01*
X136147000Y-30644261D01*
X135914528Y-30083024D01*
X135812121Y-29980617D01*
X136016233Y-29844233D01*
X136062493Y-29775000D01*
X142109308Y-29775000D01*
X142240000Y-29800996D01*
X142370692Y-29775000D01*
X142370696Y-29775000D01*
X142757770Y-29698006D01*
X142854757Y-29633201D01*
X143598000Y-29633201D01*
X143920679Y-29569016D01*
X144194233Y-29386233D01*
X144268215Y-29275511D01*
X144633667Y-29519699D01*
X145122832Y-29617000D01*
X145453168Y-29617000D01*
X145942333Y-29519699D01*
X146320523Y-29267000D01*
X146795477Y-29267000D01*
X147173667Y-29519699D01*
X147662832Y-29617000D01*
X147993168Y-29617000D01*
X148482333Y-29519699D01*
X149037049Y-29149049D01*
X149407699Y-28594333D01*
X149537854Y-27940000D01*
X154602105Y-27940000D01*
X154724499Y-28555315D01*
X155073047Y-29076953D01*
X155594685Y-29425501D01*
X156054681Y-29517000D01*
X156365319Y-29517000D01*
X156825315Y-29425501D01*
X157346953Y-29076953D01*
X157480000Y-28877834D01*
X157613047Y-29076953D01*
X158134685Y-29425501D01*
X158594681Y-29517000D01*
X158905319Y-29517000D01*
X159365315Y-29425501D01*
X159797375Y-29136807D01*
X159915863Y-29314137D01*
X160156339Y-29474818D01*
X160440000Y-29531242D01*
X162140000Y-29531242D01*
X162423661Y-29474818D01*
X162664137Y-29314137D01*
X162824818Y-29073661D01*
X162881242Y-28790000D01*
X162881242Y-28747131D01*
X166583000Y-28747131D01*
X166583000Y-29672869D01*
X166937264Y-30528140D01*
X167591860Y-31182736D01*
X168447131Y-31537000D01*
X169372869Y-31537000D01*
X170228140Y-31182736D01*
X170882736Y-30528140D01*
X171237000Y-29672869D01*
X171237000Y-28747131D01*
X170882736Y-27891860D01*
X170228140Y-27237264D01*
X169372869Y-26883000D01*
X168447131Y-26883000D01*
X167591860Y-27237264D01*
X166937264Y-27891860D01*
X166583000Y-28747131D01*
X162881242Y-28747131D01*
X162881242Y-27090000D01*
X162824818Y-26806339D01*
X162664137Y-26565863D01*
X162423661Y-26405182D01*
X162140000Y-26348758D01*
X160440000Y-26348758D01*
X160156339Y-26405182D01*
X159915863Y-26565863D01*
X159797375Y-26743193D01*
X159365315Y-26454499D01*
X158905319Y-26363000D01*
X158594681Y-26363000D01*
X158134685Y-26454499D01*
X157613047Y-26803047D01*
X157480000Y-27002166D01*
X157346953Y-26803047D01*
X156825315Y-26454499D01*
X156365319Y-26363000D01*
X156054681Y-26363000D01*
X155594685Y-26454499D01*
X155073047Y-26803047D01*
X154724499Y-27324685D01*
X154602105Y-27940000D01*
X149537854Y-27940000D01*
X149407699Y-27285667D01*
X149037049Y-26730951D01*
X148482333Y-26360301D01*
X147993168Y-26263000D01*
X147662832Y-26263000D01*
X147173667Y-26360301D01*
X146795477Y-26613000D01*
X146320523Y-26613000D01*
X145942333Y-26360301D01*
X145453168Y-26263000D01*
X145122832Y-26263000D01*
X144633667Y-26360301D01*
X144268215Y-26604489D01*
X144194233Y-26493767D01*
X143920679Y-26310984D01*
X143598000Y-26246799D01*
X141898000Y-26246799D01*
X141575321Y-26310984D01*
X141301767Y-26493767D01*
X141118984Y-26767321D01*
X141054799Y-27090000D01*
X141054799Y-27121000D01*
X136062493Y-27121000D01*
X136016233Y-27051767D01*
X135742679Y-26868984D01*
X135420000Y-26804799D01*
X133820000Y-26804799D01*
X133497321Y-26868984D01*
X133223767Y-27051767D01*
X133040984Y-27325321D01*
X132976799Y-27648000D01*
X132976799Y-27754537D01*
X132086337Y-28645000D01*
X129944902Y-28645000D01*
X129922854Y-28612002D01*
X129953818Y-28565661D01*
X130010242Y-28282000D01*
X130010242Y-26582000D01*
X129953818Y-26298339D01*
X129827974Y-26110000D01*
X170135334Y-26110000D01*
X170633698Y-26172958D01*
X171058893Y-26341305D01*
X171428858Y-26610101D01*
X171720356Y-26962462D01*
X171915067Y-27376244D01*
X172007093Y-27858662D01*
X172010000Y-27951164D01*
X172010001Y-99015326D01*
X171947042Y-99513699D01*
X171778697Y-99938889D01*
X171509899Y-100308859D01*
X171157541Y-100600355D01*
X170743756Y-100795067D01*
X170261339Y-100887093D01*
X170168836Y-100890000D01*
X76244667Y-100890000D01*
X75746301Y-100827042D01*
X75321111Y-100658697D01*
X74951141Y-100389899D01*
X74659645Y-100037541D01*
X74464933Y-99623756D01*
X74372907Y-99141339D01*
X74370000Y-99048836D01*
X74370000Y-97327131D01*
X75143000Y-97327131D01*
X75143000Y-98252869D01*
X75497264Y-99108140D01*
X76151860Y-99762736D01*
X77007131Y-100117000D01*
X77932869Y-100117000D01*
X78788140Y-99762736D01*
X79442736Y-99108140D01*
X79797000Y-98252869D01*
X79797000Y-97817022D01*
X135983000Y-97817022D01*
X135983000Y-98702978D01*
X136322040Y-99521494D01*
X136948506Y-100147960D01*
X137767022Y-100487000D01*
X138652978Y-100487000D01*
X139471494Y-100147960D01*
X140097960Y-99521494D01*
X140437000Y-98702978D01*
X140437000Y-97817022D01*
X159283000Y-97817022D01*
X159283000Y-98702978D01*
X159622040Y-99521494D01*
X160248506Y-100147960D01*
X161067022Y-100487000D01*
X161952978Y-100487000D01*
X162771494Y-100147960D01*
X163397960Y-99521494D01*
X163737000Y-98702978D01*
X163737000Y-97817022D01*
X163534081Y-97327131D01*
X166583000Y-97327131D01*
X166583000Y-98252869D01*
X166937264Y-99108140D01*
X167591860Y-99762736D01*
X168447131Y-100117000D01*
X169372869Y-100117000D01*
X170228140Y-99762736D01*
X170882736Y-99108140D01*
X171237000Y-98252869D01*
X171237000Y-97327131D01*
X170882736Y-96471860D01*
X170228140Y-95817264D01*
X169372869Y-95463000D01*
X168447131Y-95463000D01*
X167591860Y-95817264D01*
X166937264Y-96471860D01*
X166583000Y-97327131D01*
X163534081Y-97327131D01*
X163397960Y-96998506D01*
X162771494Y-96372040D01*
X161952978Y-96033000D01*
X161067022Y-96033000D01*
X160248506Y-96372040D01*
X159622040Y-96998506D01*
X159283000Y-97817022D01*
X140437000Y-97817022D01*
X140097960Y-96998506D01*
X139471494Y-96372040D01*
X138652978Y-96033000D01*
X137767022Y-96033000D01*
X136948506Y-96372040D01*
X136322040Y-96998506D01*
X135983000Y-97817022D01*
X79797000Y-97817022D01*
X79797000Y-97327131D01*
X79442736Y-96471860D01*
X78788140Y-95817264D01*
X77932869Y-95463000D01*
X77007131Y-95463000D01*
X76151860Y-95817264D01*
X75497264Y-96471860D01*
X75143000Y-97327131D01*
X74370000Y-97327131D01*
X74370000Y-94961478D01*
X84633000Y-94961478D01*
X84633000Y-95648522D01*
X84895920Y-96283267D01*
X85381733Y-96769080D01*
X86016478Y-97032000D01*
X86703522Y-97032000D01*
X87338267Y-96769080D01*
X87824080Y-96283267D01*
X88087000Y-95648522D01*
X88087000Y-94961478D01*
X91133000Y-94961478D01*
X91133000Y-95648522D01*
X91395920Y-96283267D01*
X91881733Y-96769080D01*
X92516478Y-97032000D01*
X93203522Y-97032000D01*
X93838267Y-96769080D01*
X94324080Y-96283267D01*
X94587000Y-95648522D01*
X94587000Y-94961478D01*
X101143000Y-94961478D01*
X101143000Y-95648522D01*
X101405920Y-96283267D01*
X101891733Y-96769080D01*
X102526478Y-97032000D01*
X103213522Y-97032000D01*
X103848267Y-96769080D01*
X104334080Y-96283267D01*
X104597000Y-95648522D01*
X104597000Y-94961478D01*
X107643000Y-94961478D01*
X107643000Y-95648522D01*
X107905920Y-96283267D01*
X108391733Y-96769080D01*
X109026478Y-97032000D01*
X109713522Y-97032000D01*
X110348267Y-96769080D01*
X110834080Y-96283267D01*
X111097000Y-95648522D01*
X111097000Y-94961478D01*
X110834080Y-94326733D01*
X110348267Y-93840920D01*
X109713522Y-93578000D01*
X109026478Y-93578000D01*
X108391733Y-93840920D01*
X107905920Y-94326733D01*
X107643000Y-94961478D01*
X104597000Y-94961478D01*
X104334080Y-94326733D01*
X103848267Y-93840920D01*
X103213522Y-93578000D01*
X102526478Y-93578000D01*
X101891733Y-93840920D01*
X101405920Y-94326733D01*
X101143000Y-94961478D01*
X94587000Y-94961478D01*
X94324080Y-94326733D01*
X93838267Y-93840920D01*
X93203522Y-93578000D01*
X92516478Y-93578000D01*
X91881733Y-93840920D01*
X91395920Y-94326733D01*
X91133000Y-94961478D01*
X88087000Y-94961478D01*
X87824080Y-94326733D01*
X87338267Y-93840920D01*
X86703522Y-93578000D01*
X86016478Y-93578000D01*
X85381733Y-93840920D01*
X84895920Y-94326733D01*
X84633000Y-94961478D01*
X74370000Y-94961478D01*
X74370000Y-85553550D01*
X89738400Y-85553550D01*
X89738400Y-86094110D01*
X89835073Y-86327499D01*
X90013702Y-86506127D01*
X90247091Y-86602800D01*
X90662650Y-86602800D01*
X90821400Y-86444050D01*
X90821400Y-85394800D01*
X89897150Y-85394800D01*
X89738400Y-85553550D01*
X74370000Y-85553550D01*
X74370000Y-84441490D01*
X89738400Y-84441490D01*
X89738400Y-84982050D01*
X89897150Y-85140800D01*
X90821400Y-85140800D01*
X90821400Y-84091550D01*
X90662650Y-83932800D01*
X90247091Y-83932800D01*
X90013702Y-84029473D01*
X89835073Y-84208101D01*
X89738400Y-84441490D01*
X74370000Y-84441490D01*
X74370000Y-77470000D01*
X79672105Y-77470000D01*
X79794499Y-78085315D01*
X80143047Y-78606953D01*
X80342166Y-78740000D01*
X80143047Y-78873047D01*
X79794499Y-79394685D01*
X79672105Y-80010000D01*
X79794499Y-80625315D01*
X80083193Y-81057375D01*
X79905863Y-81175863D01*
X79745182Y-81416339D01*
X79688758Y-81700000D01*
X79688758Y-83400000D01*
X79745182Y-83683661D01*
X79905863Y-83924137D01*
X80146339Y-84084818D01*
X80430000Y-84141242D01*
X82130000Y-84141242D01*
X82413661Y-84084818D01*
X82654137Y-83924137D01*
X82814818Y-83683661D01*
X82871242Y-83400000D01*
X82871242Y-81700000D01*
X82814818Y-81416339D01*
X82783649Y-81369691D01*
X96609000Y-81369691D01*
X96609000Y-82010250D01*
X96767750Y-82169000D01*
X97917000Y-82169000D01*
X97917000Y-81019750D01*
X98171000Y-81019750D01*
X98171000Y-82169000D01*
X99320250Y-82169000D01*
X99479000Y-82010250D01*
X99479000Y-81369691D01*
X99382327Y-81136302D01*
X99203699Y-80957673D01*
X98970310Y-80861000D01*
X98329750Y-80861000D01*
X98171000Y-81019750D01*
X97917000Y-81019750D01*
X97758250Y-80861000D01*
X97117690Y-80861000D01*
X96884301Y-80957673D01*
X96705673Y-81136302D01*
X96609000Y-81369691D01*
X82783649Y-81369691D01*
X82654137Y-81175863D01*
X82476807Y-81057375D01*
X82765501Y-80625315D01*
X82887895Y-80010000D01*
X82765501Y-79394685D01*
X82416953Y-78873047D01*
X82217834Y-78740000D01*
X82416953Y-78606953D01*
X82765501Y-78085315D01*
X82887895Y-77470000D01*
X82765501Y-76854685D01*
X82416953Y-76333047D01*
X81895315Y-75984499D01*
X81435319Y-75893000D01*
X81124681Y-75893000D01*
X80664685Y-75984499D01*
X80143047Y-76333047D01*
X79794499Y-76854685D01*
X79672105Y-77470000D01*
X74370000Y-77470000D01*
X74370000Y-68936890D01*
X79838524Y-68936890D01*
X80008355Y-69346924D01*
X80398642Y-69775183D01*
X80923108Y-70021486D01*
X81153000Y-69900819D01*
X81153000Y-68707000D01*
X81407000Y-68707000D01*
X81407000Y-69900819D01*
X81636892Y-70021486D01*
X82161358Y-69775183D01*
X82551645Y-69346924D01*
X82721476Y-68936890D01*
X82600155Y-68707000D01*
X81407000Y-68707000D01*
X81153000Y-68707000D01*
X79959845Y-68707000D01*
X79838524Y-68936890D01*
X74370000Y-68936890D01*
X74370000Y-66396890D01*
X79838524Y-66396890D01*
X80008355Y-66806924D01*
X80398642Y-67235183D01*
X80557954Y-67310000D01*
X80398642Y-67384817D01*
X80008355Y-67813076D01*
X79838524Y-68223110D01*
X79959845Y-68453000D01*
X81153000Y-68453000D01*
X81153000Y-66167000D01*
X81407000Y-66167000D01*
X81407000Y-68453000D01*
X82600155Y-68453000D01*
X82721476Y-68223110D01*
X82551645Y-67813076D01*
X82161358Y-67384817D01*
X82002046Y-67310000D01*
X82161358Y-67235183D01*
X82551645Y-66806924D01*
X82721476Y-66396890D01*
X82600155Y-66167000D01*
X81407000Y-66167000D01*
X81153000Y-66167000D01*
X79959845Y-66167000D01*
X79838524Y-66396890D01*
X74370000Y-66396890D01*
X74370000Y-66040000D01*
X87292105Y-66040000D01*
X87414499Y-66655315D01*
X87763047Y-67176953D01*
X87962166Y-67310000D01*
X87763047Y-67443047D01*
X87414499Y-67964685D01*
X87292105Y-68580000D01*
X87414499Y-69195315D01*
X87763047Y-69716953D01*
X88284685Y-70065501D01*
X88744681Y-70157000D01*
X89055319Y-70157000D01*
X89515315Y-70065501D01*
X90036953Y-69716953D01*
X90385501Y-69195315D01*
X90507895Y-68580000D01*
X90385501Y-67964685D01*
X90036953Y-67443047D01*
X89837834Y-67310000D01*
X90036953Y-67176953D01*
X90385501Y-66655315D01*
X90507895Y-66040000D01*
X90385501Y-65424685D01*
X90096807Y-64992625D01*
X90274137Y-64874137D01*
X90434818Y-64633661D01*
X90491242Y-64350000D01*
X90491242Y-62650000D01*
X90434818Y-62366339D01*
X90274137Y-62125863D01*
X90033661Y-61965182D01*
X89750000Y-61908758D01*
X88050000Y-61908758D01*
X87766339Y-61965182D01*
X87525863Y-62125863D01*
X87365182Y-62366339D01*
X87308758Y-62650000D01*
X87308758Y-64350000D01*
X87365182Y-64633661D01*
X87525863Y-64874137D01*
X87703193Y-64992625D01*
X87414499Y-65424685D01*
X87292105Y-66040000D01*
X74370000Y-66040000D01*
X74370000Y-63785750D01*
X79795000Y-63785750D01*
X79795000Y-64476310D01*
X79891673Y-64709699D01*
X80070302Y-64888327D01*
X80279878Y-64975136D01*
X80008355Y-65273076D01*
X79838524Y-65683110D01*
X79959845Y-65913000D01*
X81153000Y-65913000D01*
X81153000Y-63627000D01*
X81407000Y-63627000D01*
X81407000Y-65913000D01*
X82600155Y-65913000D01*
X82721476Y-65683110D01*
X82551645Y-65273076D01*
X82280122Y-64975136D01*
X82489698Y-64888327D01*
X82668327Y-64709699D01*
X82765000Y-64476310D01*
X82765000Y-63785750D01*
X82606250Y-63627000D01*
X81407000Y-63627000D01*
X81153000Y-63627000D01*
X79953750Y-63627000D01*
X79795000Y-63785750D01*
X74370000Y-63785750D01*
X74370000Y-62523690D01*
X79795000Y-62523690D01*
X79795000Y-63214250D01*
X79953750Y-63373000D01*
X81153000Y-63373000D01*
X81153000Y-62173750D01*
X81407000Y-62173750D01*
X81407000Y-63373000D01*
X82606250Y-63373000D01*
X82765000Y-63214250D01*
X82765000Y-62523690D01*
X82668327Y-62290301D01*
X82489698Y-62111673D01*
X82256309Y-62015000D01*
X81565750Y-62015000D01*
X81407000Y-62173750D01*
X81153000Y-62173750D01*
X80994250Y-62015000D01*
X80303691Y-62015000D01*
X80070302Y-62111673D01*
X79891673Y-62290301D01*
X79795000Y-62523690D01*
X74370000Y-62523690D01*
X74370000Y-59983690D01*
X95035000Y-59983690D01*
X95035000Y-60674250D01*
X95193750Y-60833000D01*
X96393000Y-60833000D01*
X96393000Y-59633750D01*
X96647000Y-59633750D01*
X96647000Y-60833000D01*
X97846250Y-60833000D01*
X98005000Y-60674250D01*
X98005000Y-59983690D01*
X97908327Y-59750301D01*
X97729698Y-59571673D01*
X97496309Y-59475000D01*
X96805750Y-59475000D01*
X96647000Y-59633750D01*
X96393000Y-59633750D01*
X96234250Y-59475000D01*
X95543691Y-59475000D01*
X95310302Y-59571673D01*
X95131673Y-59750301D01*
X95035000Y-59983690D01*
X74370000Y-59983690D01*
X74370000Y-45871110D01*
X79838524Y-45871110D01*
X79959845Y-46101000D01*
X81153000Y-46101000D01*
X81153000Y-44907181D01*
X81407000Y-44907181D01*
X81407000Y-46101000D01*
X82600155Y-46101000D01*
X82721476Y-45871110D01*
X87458524Y-45871110D01*
X87579845Y-46101000D01*
X88773000Y-46101000D01*
X88773000Y-44907181D01*
X89027000Y-44907181D01*
X89027000Y-46101000D01*
X90220155Y-46101000D01*
X90341476Y-45871110D01*
X95078524Y-45871110D01*
X95199845Y-46101000D01*
X96393000Y-46101000D01*
X96393000Y-44907181D01*
X96163108Y-44786514D01*
X95638642Y-45032817D01*
X95248355Y-45461076D01*
X95078524Y-45871110D01*
X90341476Y-45871110D01*
X90171645Y-45461076D01*
X89781358Y-45032817D01*
X89256892Y-44786514D01*
X89027000Y-44907181D01*
X88773000Y-44907181D01*
X88543108Y-44786514D01*
X88018642Y-45032817D01*
X87628355Y-45461076D01*
X87458524Y-45871110D01*
X82721476Y-45871110D01*
X82551645Y-45461076D01*
X82161358Y-45032817D01*
X81636892Y-44786514D01*
X81407000Y-44907181D01*
X81153000Y-44907181D01*
X80923108Y-44786514D01*
X80398642Y-45032817D01*
X80008355Y-45461076D01*
X79838524Y-45871110D01*
X74370000Y-45871110D01*
X74370000Y-28747131D01*
X75143000Y-28747131D01*
X75143000Y-29672869D01*
X75497264Y-30528140D01*
X76151860Y-31182736D01*
X77007131Y-31537000D01*
X77932869Y-31537000D01*
X78788140Y-31182736D01*
X79442736Y-30528140D01*
X79462676Y-30480000D01*
X84752105Y-30480000D01*
X84874499Y-31095315D01*
X85223047Y-31616953D01*
X85422166Y-31750000D01*
X85223047Y-31883047D01*
X84874499Y-32404685D01*
X84752105Y-33020000D01*
X84874499Y-33635315D01*
X85163193Y-34067375D01*
X84985863Y-34185863D01*
X84825182Y-34426339D01*
X84768758Y-34710000D01*
X84768758Y-36410000D01*
X84825182Y-36693661D01*
X84985863Y-36934137D01*
X85226339Y-37094818D01*
X85510000Y-37151242D01*
X87210000Y-37151242D01*
X87493661Y-37094818D01*
X87734137Y-36934137D01*
X87894818Y-36693661D01*
X87951242Y-36410000D01*
X87951242Y-34710000D01*
X87894818Y-34426339D01*
X87734137Y-34185863D01*
X87556807Y-34067375D01*
X87845501Y-33635315D01*
X87967895Y-33020000D01*
X87845501Y-32404685D01*
X87496953Y-31883047D01*
X87297834Y-31750000D01*
X87496953Y-31616953D01*
X87845501Y-31095315D01*
X87967895Y-30480000D01*
X87903478Y-30156150D01*
X96732400Y-30156150D01*
X96732400Y-30696710D01*
X96829073Y-30930099D01*
X97007702Y-31108727D01*
X97241091Y-31205400D01*
X97656650Y-31205400D01*
X97815400Y-31046650D01*
X97815400Y-29997400D01*
X96891150Y-29997400D01*
X96732400Y-30156150D01*
X87903478Y-30156150D01*
X87845501Y-29864685D01*
X87496953Y-29343047D01*
X87049534Y-29044090D01*
X96732400Y-29044090D01*
X96732400Y-29584650D01*
X96891150Y-29743400D01*
X97815400Y-29743400D01*
X97815400Y-28694150D01*
X97656650Y-28535400D01*
X97241091Y-28535400D01*
X97007702Y-28632073D01*
X96829073Y-28810701D01*
X96732400Y-29044090D01*
X87049534Y-29044090D01*
X86975315Y-28994499D01*
X86515319Y-28903000D01*
X86204681Y-28903000D01*
X85744685Y-28994499D01*
X85223047Y-29343047D01*
X84874499Y-29864685D01*
X84752105Y-30480000D01*
X79462676Y-30480000D01*
X79797000Y-29672869D01*
X79797000Y-28747131D01*
X79442736Y-27891860D01*
X78788140Y-27237264D01*
X77932869Y-26883000D01*
X77007131Y-26883000D01*
X76151860Y-27237264D01*
X75497264Y-27891860D01*
X75143000Y-28747131D01*
X74370000Y-28747131D01*
X74370000Y-27984666D01*
X74432958Y-27486302D01*
X74601305Y-27061107D01*
X74870101Y-26691142D01*
X75222462Y-26399644D01*
X75636244Y-26204933D01*
X76118662Y-26112907D01*
X76211164Y-26110000D01*
X105630026Y-26110000D01*
X105504182Y-26298339D01*
G36*
X164835182Y-37963661D02*
X164995863Y-38204137D01*
X165173193Y-38322625D01*
X164884499Y-38754685D01*
X164762105Y-39370000D01*
X164799635Y-39558678D01*
X161012314Y-43346000D01*
X159118574Y-43346000D01*
X159631358Y-43105183D01*
X160021645Y-42676924D01*
X160191476Y-42266890D01*
X160070155Y-42037000D01*
X158877000Y-42037000D01*
X158877000Y-42057000D01*
X158623000Y-42057000D01*
X158623000Y-42037000D01*
X158603000Y-42037000D01*
X158603000Y-41783000D01*
X158623000Y-41783000D01*
X158623000Y-41763000D01*
X158877000Y-41763000D01*
X158877000Y-41783000D01*
X160070155Y-41783000D01*
X160191476Y-41553110D01*
X160021645Y-41143076D01*
X159631358Y-40714817D01*
X159598768Y-40699512D01*
X159886953Y-40506953D01*
X160235501Y-39985315D01*
X160357895Y-39370000D01*
X160235501Y-38754685D01*
X159946807Y-38322625D01*
X160124137Y-38204137D01*
X160284818Y-37963661D01*
X160315980Y-37807000D01*
X164804020Y-37807000D01*
X164835182Y-37963661D01*
X164835182Y-37963661D01*
G37*
X164835182Y-37963661D02*
X164995863Y-38204137D01*
X165173193Y-38322625D01*
X164884499Y-38754685D01*
X164762105Y-39370000D01*
X164799635Y-39558678D01*
X161012314Y-43346000D01*
X159118574Y-43346000D01*
X159631358Y-43105183D01*
X160021645Y-42676924D01*
X160191476Y-42266890D01*
X160070155Y-42037000D01*
X158877000Y-42037000D01*
X158877000Y-42057000D01*
X158623000Y-42057000D01*
X158623000Y-42037000D01*
X158603000Y-42037000D01*
X158603000Y-41783000D01*
X158623000Y-41783000D01*
X158623000Y-41763000D01*
X158877000Y-41763000D01*
X158877000Y-41783000D01*
X160070155Y-41783000D01*
X160191476Y-41553110D01*
X160021645Y-41143076D01*
X159631358Y-40714817D01*
X159598768Y-40699512D01*
X159886953Y-40506953D01*
X160235501Y-39985315D01*
X160357895Y-39370000D01*
X160235501Y-38754685D01*
X159946807Y-38322625D01*
X160124137Y-38204137D01*
X160284818Y-37963661D01*
X160315980Y-37807000D01*
X164804020Y-37807000D01*
X164835182Y-37963661D01*
G04 #@! TD*
M02*
