G04 #@! TF.GenerationSoftware,KiCad,Pcbnew,5.0.2+dfsg1-1*
G04 #@! TF.CreationDate,2021-03-18T17:53:01+01:00*
G04 #@! TF.ProjectId,pico-dev,7069636f-2d64-4657-962e-6b696361645f,rev?*
G04 #@! TF.SameCoordinates,Original*
G04 #@! TF.FileFunction,Legend,Top*
G04 #@! TF.FilePolarity,Positive*
%FSLAX46Y46*%
G04 Gerber Fmt 4.6, Leading zero omitted, Abs format (unit mm)*
G04 Created by KiCad (PCBNEW 5.0.2+dfsg1-1) date jeu. 18 mars 2021 17:53:01 CET*
%MOMM*%
%LPD*%
G01*
G04 APERTURE LIST*
%ADD10C,0.200000*%
%ADD11C,0.300000*%
%ADD12C,0.250000*%
%ADD13C,0.275000*%
%ADD14C,0.150000*%
%ADD15C,0.120000*%
%ADD16C,0.450000*%
G04 APERTURE END LIST*
D10*
X82550000Y-29210000D02*
X82550000Y-26035000D01*
X82550000Y-38100000D02*
X82550000Y-34925000D01*
D11*
X81692857Y-33055000D02*
X81578571Y-32997857D01*
X81407142Y-32997857D01*
X81235714Y-33055000D01*
X81121428Y-33169285D01*
X81064285Y-33283571D01*
X81007142Y-33512142D01*
X81007142Y-33683571D01*
X81064285Y-33912142D01*
X81121428Y-34026428D01*
X81235714Y-34140714D01*
X81407142Y-34197857D01*
X81521428Y-34197857D01*
X81692857Y-34140714D01*
X81750000Y-34083571D01*
X81750000Y-33683571D01*
X81521428Y-33683571D01*
X82264285Y-34197857D02*
X82264285Y-32997857D01*
X82721428Y-32997857D01*
X82835714Y-33055000D01*
X82892857Y-33112142D01*
X82950000Y-33226428D01*
X82950000Y-33397857D01*
X82892857Y-33512142D01*
X82835714Y-33569285D01*
X82721428Y-33626428D01*
X82264285Y-33626428D01*
X84092857Y-34197857D02*
X83407142Y-34197857D01*
X83750000Y-34197857D02*
X83750000Y-32997857D01*
X83635714Y-33169285D01*
X83521428Y-33283571D01*
X83407142Y-33340714D01*
X81692857Y-29880000D02*
X81578571Y-29822857D01*
X81407142Y-29822857D01*
X81235714Y-29880000D01*
X81121428Y-29994285D01*
X81064285Y-30108571D01*
X81007142Y-30337142D01*
X81007142Y-30508571D01*
X81064285Y-30737142D01*
X81121428Y-30851428D01*
X81235714Y-30965714D01*
X81407142Y-31022857D01*
X81521428Y-31022857D01*
X81692857Y-30965714D01*
X81750000Y-30908571D01*
X81750000Y-30508571D01*
X81521428Y-30508571D01*
X82264285Y-31022857D02*
X82264285Y-29822857D01*
X82721428Y-29822857D01*
X82835714Y-29880000D01*
X82892857Y-29937142D01*
X82950000Y-30051428D01*
X82950000Y-30222857D01*
X82892857Y-30337142D01*
X82835714Y-30394285D01*
X82721428Y-30451428D01*
X82264285Y-30451428D01*
X83692857Y-29822857D02*
X83807142Y-29822857D01*
X83921428Y-29880000D01*
X83978571Y-29937142D01*
X84035714Y-30051428D01*
X84092857Y-30280000D01*
X84092857Y-30565714D01*
X84035714Y-30794285D01*
X83978571Y-30908571D01*
X83921428Y-30965714D01*
X83807142Y-31022857D01*
X83692857Y-31022857D01*
X83578571Y-30965714D01*
X83521428Y-30908571D01*
X83464285Y-30794285D01*
X83407142Y-30565714D01*
X83407142Y-30280000D01*
X83464285Y-30051428D01*
X83521428Y-29937142D01*
X83578571Y-29880000D01*
X83692857Y-29822857D01*
X91852857Y-50835000D02*
X91738571Y-50777857D01*
X91567142Y-50777857D01*
X91395714Y-50835000D01*
X91281428Y-50949285D01*
X91224285Y-51063571D01*
X91167142Y-51292142D01*
X91167142Y-51463571D01*
X91224285Y-51692142D01*
X91281428Y-51806428D01*
X91395714Y-51920714D01*
X91567142Y-51977857D01*
X91681428Y-51977857D01*
X91852857Y-51920714D01*
X91910000Y-51863571D01*
X91910000Y-51463571D01*
X91681428Y-51463571D01*
X92424285Y-51977857D02*
X92424285Y-50777857D01*
X92881428Y-50777857D01*
X92995714Y-50835000D01*
X93052857Y-50892142D01*
X93110000Y-51006428D01*
X93110000Y-51177857D01*
X93052857Y-51292142D01*
X92995714Y-51349285D01*
X92881428Y-51406428D01*
X92424285Y-51406428D01*
X94195714Y-50777857D02*
X93624285Y-50777857D01*
X93567142Y-51349285D01*
X93624285Y-51292142D01*
X93738571Y-51235000D01*
X94024285Y-51235000D01*
X94138571Y-51292142D01*
X94195714Y-51349285D01*
X94252857Y-51463571D01*
X94252857Y-51749285D01*
X94195714Y-51863571D01*
X94138571Y-51920714D01*
X94024285Y-51977857D01*
X93738571Y-51977857D01*
X93624285Y-51920714D01*
X93567142Y-51863571D01*
X91852857Y-48295000D02*
X91738571Y-48237857D01*
X91567142Y-48237857D01*
X91395714Y-48295000D01*
X91281428Y-48409285D01*
X91224285Y-48523571D01*
X91167142Y-48752142D01*
X91167142Y-48923571D01*
X91224285Y-49152142D01*
X91281428Y-49266428D01*
X91395714Y-49380714D01*
X91567142Y-49437857D01*
X91681428Y-49437857D01*
X91852857Y-49380714D01*
X91910000Y-49323571D01*
X91910000Y-48923571D01*
X91681428Y-48923571D01*
X92424285Y-49437857D02*
X92424285Y-48237857D01*
X92881428Y-48237857D01*
X92995714Y-48295000D01*
X93052857Y-48352142D01*
X93110000Y-48466428D01*
X93110000Y-48637857D01*
X93052857Y-48752142D01*
X92995714Y-48809285D01*
X92881428Y-48866428D01*
X92424285Y-48866428D01*
X94138571Y-48637857D02*
X94138571Y-49437857D01*
X93852857Y-48180714D02*
X93567142Y-49037857D01*
X94310000Y-49037857D01*
X84232857Y-50835000D02*
X84118571Y-50777857D01*
X83947142Y-50777857D01*
X83775714Y-50835000D01*
X83661428Y-50949285D01*
X83604285Y-51063571D01*
X83547142Y-51292142D01*
X83547142Y-51463571D01*
X83604285Y-51692142D01*
X83661428Y-51806428D01*
X83775714Y-51920714D01*
X83947142Y-51977857D01*
X84061428Y-51977857D01*
X84232857Y-51920714D01*
X84290000Y-51863571D01*
X84290000Y-51463571D01*
X84061428Y-51463571D01*
X84804285Y-51977857D02*
X84804285Y-50777857D01*
X85261428Y-50777857D01*
X85375714Y-50835000D01*
X85432857Y-50892142D01*
X85490000Y-51006428D01*
X85490000Y-51177857D01*
X85432857Y-51292142D01*
X85375714Y-51349285D01*
X85261428Y-51406428D01*
X84804285Y-51406428D01*
X86575714Y-50777857D02*
X86004285Y-50777857D01*
X85947142Y-51349285D01*
X86004285Y-51292142D01*
X86118571Y-51235000D01*
X86404285Y-51235000D01*
X86518571Y-51292142D01*
X86575714Y-51349285D01*
X86632857Y-51463571D01*
X86632857Y-51749285D01*
X86575714Y-51863571D01*
X86518571Y-51920714D01*
X86404285Y-51977857D01*
X86118571Y-51977857D01*
X86004285Y-51920714D01*
X85947142Y-51863571D01*
X84232857Y-48295000D02*
X84118571Y-48237857D01*
X83947142Y-48237857D01*
X83775714Y-48295000D01*
X83661428Y-48409285D01*
X83604285Y-48523571D01*
X83547142Y-48752142D01*
X83547142Y-48923571D01*
X83604285Y-49152142D01*
X83661428Y-49266428D01*
X83775714Y-49380714D01*
X83947142Y-49437857D01*
X84061428Y-49437857D01*
X84232857Y-49380714D01*
X84290000Y-49323571D01*
X84290000Y-48923571D01*
X84061428Y-48923571D01*
X84804285Y-49437857D02*
X84804285Y-48237857D01*
X85261428Y-48237857D01*
X85375714Y-48295000D01*
X85432857Y-48352142D01*
X85490000Y-48466428D01*
X85490000Y-48637857D01*
X85432857Y-48752142D01*
X85375714Y-48809285D01*
X85261428Y-48866428D01*
X84804285Y-48866428D01*
X86518571Y-48637857D02*
X86518571Y-49437857D01*
X86232857Y-48180714D02*
X85947142Y-49037857D01*
X86690000Y-49037857D01*
X143986428Y-56550000D02*
X143872142Y-56492857D01*
X143700714Y-56492857D01*
X143529285Y-56550000D01*
X143415000Y-56664285D01*
X143357857Y-56778571D01*
X143300714Y-57007142D01*
X143300714Y-57178571D01*
X143357857Y-57407142D01*
X143415000Y-57521428D01*
X143529285Y-57635714D01*
X143700714Y-57692857D01*
X143815000Y-57692857D01*
X143986428Y-57635714D01*
X144043571Y-57578571D01*
X144043571Y-57178571D01*
X143815000Y-57178571D01*
X144557857Y-57692857D02*
X144557857Y-56492857D01*
X145015000Y-56492857D01*
X145129285Y-56550000D01*
X145186428Y-56607142D01*
X145243571Y-56721428D01*
X145243571Y-56892857D01*
X145186428Y-57007142D01*
X145129285Y-57064285D01*
X145015000Y-57121428D01*
X144557857Y-57121428D01*
X146386428Y-57692857D02*
X145700714Y-57692857D01*
X146043571Y-57692857D02*
X146043571Y-56492857D01*
X145929285Y-56664285D01*
X145815000Y-56778571D01*
X145700714Y-56835714D01*
X147415000Y-56492857D02*
X147186428Y-56492857D01*
X147072142Y-56550000D01*
X147015000Y-56607142D01*
X146900714Y-56778571D01*
X146843571Y-57007142D01*
X146843571Y-57464285D01*
X146900714Y-57578571D01*
X146957857Y-57635714D01*
X147072142Y-57692857D01*
X147300714Y-57692857D01*
X147415000Y-57635714D01*
X147472142Y-57578571D01*
X147529285Y-57464285D01*
X147529285Y-57178571D01*
X147472142Y-57064285D01*
X147415000Y-57007142D01*
X147300714Y-56950000D01*
X147072142Y-56950000D01*
X146957857Y-57007142D01*
X146900714Y-57064285D01*
X146843571Y-57178571D01*
X143986428Y-59090000D02*
X143872142Y-59032857D01*
X143700714Y-59032857D01*
X143529285Y-59090000D01*
X143415000Y-59204285D01*
X143357857Y-59318571D01*
X143300714Y-59547142D01*
X143300714Y-59718571D01*
X143357857Y-59947142D01*
X143415000Y-60061428D01*
X143529285Y-60175714D01*
X143700714Y-60232857D01*
X143815000Y-60232857D01*
X143986428Y-60175714D01*
X144043571Y-60118571D01*
X144043571Y-59718571D01*
X143815000Y-59718571D01*
X144557857Y-60232857D02*
X144557857Y-59032857D01*
X145015000Y-59032857D01*
X145129285Y-59090000D01*
X145186428Y-59147142D01*
X145243571Y-59261428D01*
X145243571Y-59432857D01*
X145186428Y-59547142D01*
X145129285Y-59604285D01*
X145015000Y-59661428D01*
X144557857Y-59661428D01*
X146386428Y-60232857D02*
X145700714Y-60232857D01*
X146043571Y-60232857D02*
X146043571Y-59032857D01*
X145929285Y-59204285D01*
X145815000Y-59318571D01*
X145700714Y-59375714D01*
X146957857Y-60232857D02*
X147186428Y-60232857D01*
X147300714Y-60175714D01*
X147357857Y-60118571D01*
X147472142Y-59947142D01*
X147529285Y-59718571D01*
X147529285Y-59261428D01*
X147472142Y-59147142D01*
X147415000Y-59090000D01*
X147300714Y-59032857D01*
X147072142Y-59032857D01*
X146957857Y-59090000D01*
X146900714Y-59147142D01*
X146843571Y-59261428D01*
X146843571Y-59547142D01*
X146900714Y-59661428D01*
X146957857Y-59718571D01*
X147072142Y-59775714D01*
X147300714Y-59775714D01*
X147415000Y-59718571D01*
X147472142Y-59661428D01*
X147529285Y-59547142D01*
X143859428Y-61630000D02*
X143745142Y-61572857D01*
X143573714Y-61572857D01*
X143402285Y-61630000D01*
X143288000Y-61744285D01*
X143230857Y-61858571D01*
X143173714Y-62087142D01*
X143173714Y-62258571D01*
X143230857Y-62487142D01*
X143288000Y-62601428D01*
X143402285Y-62715714D01*
X143573714Y-62772857D01*
X143688000Y-62772857D01*
X143859428Y-62715714D01*
X143916571Y-62658571D01*
X143916571Y-62258571D01*
X143688000Y-62258571D01*
X144430857Y-62772857D02*
X144430857Y-61572857D01*
X144888000Y-61572857D01*
X145002285Y-61630000D01*
X145059428Y-61687142D01*
X145116571Y-61801428D01*
X145116571Y-61972857D01*
X145059428Y-62087142D01*
X145002285Y-62144285D01*
X144888000Y-62201428D01*
X144430857Y-62201428D01*
X146259428Y-62772857D02*
X145573714Y-62772857D01*
X145916571Y-62772857D02*
X145916571Y-61572857D01*
X145802285Y-61744285D01*
X145688000Y-61858571D01*
X145573714Y-61915714D01*
X146945142Y-62087142D02*
X146830857Y-62030000D01*
X146773714Y-61972857D01*
X146716571Y-61858571D01*
X146716571Y-61801428D01*
X146773714Y-61687142D01*
X146830857Y-61630000D01*
X146945142Y-61572857D01*
X147173714Y-61572857D01*
X147288000Y-61630000D01*
X147345142Y-61687142D01*
X147402285Y-61801428D01*
X147402285Y-61858571D01*
X147345142Y-61972857D01*
X147288000Y-62030000D01*
X147173714Y-62087142D01*
X146945142Y-62087142D01*
X146830857Y-62144285D01*
X146773714Y-62201428D01*
X146716571Y-62315714D01*
X146716571Y-62544285D01*
X146773714Y-62658571D01*
X146830857Y-62715714D01*
X146945142Y-62772857D01*
X147173714Y-62772857D01*
X147288000Y-62715714D01*
X147345142Y-62658571D01*
X147402285Y-62544285D01*
X147402285Y-62315714D01*
X147345142Y-62201428D01*
X147288000Y-62144285D01*
X147173714Y-62087142D01*
D10*
X142748000Y-53848000D02*
X141732000Y-53848000D01*
X142748000Y-42672000D02*
X142748000Y-53848000D01*
X134620000Y-42672000D02*
X142748000Y-42672000D01*
X134620000Y-53848000D02*
X134620000Y-42672000D01*
X135636000Y-53848000D02*
X134620000Y-53848000D01*
X102616000Y-32004000D02*
X100076000Y-32004000D01*
X102616000Y-36576000D02*
X102616000Y-32004000D01*
X93472000Y-36576000D02*
X102616000Y-36576000D01*
X93472000Y-32004000D02*
X93472000Y-36576000D01*
D11*
X100850000Y-35615428D02*
X100778571Y-35758285D01*
X100778571Y-35972571D01*
X100850000Y-36186857D01*
X100992857Y-36329714D01*
X101135714Y-36401142D01*
X101421428Y-36472571D01*
X101635714Y-36472571D01*
X101921428Y-36401142D01*
X102064285Y-36329714D01*
X102207142Y-36186857D01*
X102278571Y-35972571D01*
X102278571Y-35829714D01*
X102207142Y-35615428D01*
X102135714Y-35544000D01*
X101635714Y-35544000D01*
X101635714Y-35829714D01*
X102278571Y-34901142D02*
X100778571Y-34901142D01*
X100778571Y-34329714D01*
X100850000Y-34186857D01*
X100921428Y-34115428D01*
X101064285Y-34044000D01*
X101278571Y-34044000D01*
X101421428Y-34115428D01*
X101492857Y-34186857D01*
X101564285Y-34329714D01*
X101564285Y-34901142D01*
X100921428Y-33472571D02*
X100850000Y-33401142D01*
X100778571Y-33258285D01*
X100778571Y-32901142D01*
X100850000Y-32758285D01*
X100921428Y-32686857D01*
X101064285Y-32615428D01*
X101207142Y-32615428D01*
X101421428Y-32686857D01*
X102278571Y-33544000D01*
X102278571Y-32615428D01*
X85796571Y-39382000D02*
X85653714Y-39310571D01*
X85439428Y-39310571D01*
X85225142Y-39382000D01*
X85082285Y-39524857D01*
X85010857Y-39667714D01*
X84939428Y-39953428D01*
X84939428Y-40167714D01*
X85010857Y-40453428D01*
X85082285Y-40596285D01*
X85225142Y-40739142D01*
X85439428Y-40810571D01*
X85582285Y-40810571D01*
X85796571Y-40739142D01*
X85868000Y-40667714D01*
X85868000Y-40167714D01*
X85582285Y-40167714D01*
X86510857Y-40810571D02*
X86510857Y-39310571D01*
X87082285Y-39310571D01*
X87225142Y-39382000D01*
X87296571Y-39453428D01*
X87368000Y-39596285D01*
X87368000Y-39810571D01*
X87296571Y-39953428D01*
X87225142Y-40024857D01*
X87082285Y-40096285D01*
X86510857Y-40096285D01*
X87868000Y-39310571D02*
X88796571Y-39310571D01*
X88296571Y-39882000D01*
X88510857Y-39882000D01*
X88653714Y-39953428D01*
X88725142Y-40024857D01*
X88796571Y-40167714D01*
X88796571Y-40524857D01*
X88725142Y-40667714D01*
X88653714Y-40739142D01*
X88510857Y-40810571D01*
X88082285Y-40810571D01*
X87939428Y-40739142D01*
X87868000Y-40667714D01*
D12*
X136941142Y-54390857D02*
X136541142Y-53819428D01*
X136255428Y-54390857D02*
X136255428Y-53190857D01*
X136712571Y-53190857D01*
X136826857Y-53248000D01*
X136884000Y-53305142D01*
X136941142Y-53419428D01*
X136941142Y-53590857D01*
X136884000Y-53705142D01*
X136826857Y-53762285D01*
X136712571Y-53819428D01*
X136255428Y-53819428D01*
X137455428Y-53762285D02*
X137855428Y-53762285D01*
X138026857Y-54390857D02*
X137455428Y-54390857D01*
X137455428Y-53190857D01*
X138026857Y-53190857D01*
X138484000Y-54333714D02*
X138655428Y-54390857D01*
X138941142Y-54390857D01*
X139055428Y-54333714D01*
X139112571Y-54276571D01*
X139169714Y-54162285D01*
X139169714Y-54048000D01*
X139112571Y-53933714D01*
X139055428Y-53876571D01*
X138941142Y-53819428D01*
X138712571Y-53762285D01*
X138598285Y-53705142D01*
X138541142Y-53648000D01*
X138484000Y-53533714D01*
X138484000Y-53419428D01*
X138541142Y-53305142D01*
X138598285Y-53248000D01*
X138712571Y-53190857D01*
X138998285Y-53190857D01*
X139169714Y-53248000D01*
X139684000Y-53762285D02*
X140084000Y-53762285D01*
X140255428Y-54390857D02*
X139684000Y-54390857D01*
X139684000Y-53190857D01*
X140255428Y-53190857D01*
X140598285Y-53190857D02*
X141284000Y-53190857D01*
X140941142Y-54390857D02*
X140941142Y-53190857D01*
D10*
X170561000Y-93980000D02*
X170561000Y-75692000D01*
D13*
X170042619Y-93714571D02*
X168942619Y-93714571D01*
X168942619Y-93295523D01*
X168995000Y-93190761D01*
X169047380Y-93138380D01*
X169152142Y-93086000D01*
X169309285Y-93086000D01*
X169414047Y-93138380D01*
X169466428Y-93190761D01*
X169518809Y-93295523D01*
X169518809Y-93714571D01*
X170042619Y-92614571D02*
X168942619Y-92614571D01*
X169937857Y-91462190D02*
X169990238Y-91514571D01*
X170042619Y-91671714D01*
X170042619Y-91776476D01*
X169990238Y-91933619D01*
X169885476Y-92038380D01*
X169780714Y-92090761D01*
X169571190Y-92143142D01*
X169414047Y-92143142D01*
X169204523Y-92090761D01*
X169099761Y-92038380D01*
X168995000Y-91933619D01*
X168942619Y-91776476D01*
X168942619Y-91671714D01*
X168995000Y-91514571D01*
X169047380Y-91462190D01*
X168942619Y-90781238D02*
X168942619Y-90571714D01*
X168995000Y-90466952D01*
X169099761Y-90362190D01*
X169309285Y-90309809D01*
X169675952Y-90309809D01*
X169885476Y-90362190D01*
X169990238Y-90466952D01*
X170042619Y-90571714D01*
X170042619Y-90781238D01*
X169990238Y-90886000D01*
X169885476Y-90990761D01*
X169675952Y-91043142D01*
X169309285Y-91043142D01*
X169099761Y-90990761D01*
X168995000Y-90886000D01*
X168942619Y-90781238D01*
X170042619Y-89000285D02*
X168942619Y-89000285D01*
X169466428Y-89000285D02*
X169466428Y-88371714D01*
X170042619Y-88371714D02*
X168942619Y-88371714D01*
X169466428Y-87847904D02*
X169466428Y-87481238D01*
X170042619Y-87324095D02*
X170042619Y-87847904D01*
X168942619Y-87847904D01*
X168942619Y-87324095D01*
X169728333Y-86905047D02*
X169728333Y-86381238D01*
X170042619Y-87009809D02*
X168942619Y-86643142D01*
X170042619Y-86276476D01*
X170042619Y-85909809D02*
X168942619Y-85909809D01*
X168942619Y-85647904D01*
X168995000Y-85490761D01*
X169099761Y-85386000D01*
X169204523Y-85333619D01*
X169414047Y-85281238D01*
X169571190Y-85281238D01*
X169780714Y-85333619D01*
X169885476Y-85386000D01*
X169990238Y-85490761D01*
X170042619Y-85647904D01*
X170042619Y-85909809D01*
X169466428Y-84809809D02*
X169466428Y-84443142D01*
X170042619Y-84286000D02*
X170042619Y-84809809D01*
X168942619Y-84809809D01*
X168942619Y-84286000D01*
X170042619Y-83186000D02*
X169518809Y-83552666D01*
X170042619Y-83814571D02*
X168942619Y-83814571D01*
X168942619Y-83395523D01*
X168995000Y-83290761D01*
X169047380Y-83238380D01*
X169152142Y-83186000D01*
X169309285Y-83186000D01*
X169414047Y-83238380D01*
X169466428Y-83290761D01*
X169518809Y-83395523D01*
X169518809Y-83814571D01*
X169990238Y-82766952D02*
X170042619Y-82609809D01*
X170042619Y-82347904D01*
X169990238Y-82243142D01*
X169937857Y-82190761D01*
X169833095Y-82138380D01*
X169728333Y-82138380D01*
X169623571Y-82190761D01*
X169571190Y-82243142D01*
X169518809Y-82347904D01*
X169466428Y-82557428D01*
X169414047Y-82662190D01*
X169361666Y-82714571D01*
X169256904Y-82766952D01*
X169152142Y-82766952D01*
X169047380Y-82714571D01*
X168995000Y-82662190D01*
X168942619Y-82557428D01*
X168942619Y-82295523D01*
X168995000Y-82138380D01*
X169466428Y-80462190D02*
X169518809Y-80305047D01*
X169571190Y-80252666D01*
X169675952Y-80200285D01*
X169833095Y-80200285D01*
X169937857Y-80252666D01*
X169990238Y-80305047D01*
X170042619Y-80409809D01*
X170042619Y-80828857D01*
X168942619Y-80828857D01*
X168942619Y-80462190D01*
X168995000Y-80357428D01*
X169047380Y-80305047D01*
X169152142Y-80252666D01*
X169256904Y-80252666D01*
X169361666Y-80305047D01*
X169414047Y-80357428D01*
X169466428Y-80462190D01*
X169466428Y-80828857D01*
X168942619Y-79519333D02*
X168942619Y-79309809D01*
X168995000Y-79205047D01*
X169099761Y-79100285D01*
X169309285Y-79047904D01*
X169675952Y-79047904D01*
X169885476Y-79100285D01*
X169990238Y-79205047D01*
X170042619Y-79309809D01*
X170042619Y-79519333D01*
X169990238Y-79624095D01*
X169885476Y-79728857D01*
X169675952Y-79781238D01*
X169309285Y-79781238D01*
X169099761Y-79728857D01*
X168995000Y-79624095D01*
X168942619Y-79519333D01*
X169728333Y-78628857D02*
X169728333Y-78105047D01*
X170042619Y-78733619D02*
X168942619Y-78366952D01*
X170042619Y-78000285D01*
X170042619Y-77005047D02*
X169518809Y-77371714D01*
X170042619Y-77633619D02*
X168942619Y-77633619D01*
X168942619Y-77214571D01*
X168995000Y-77109809D01*
X169047380Y-77057428D01*
X169152142Y-77005047D01*
X169309285Y-77005047D01*
X169414047Y-77057428D01*
X169466428Y-77109809D01*
X169518809Y-77214571D01*
X169518809Y-77633619D01*
X170042619Y-76533619D02*
X168942619Y-76533619D01*
X168942619Y-76271714D01*
X168995000Y-76114571D01*
X169099761Y-76009809D01*
X169204523Y-75957428D01*
X169414047Y-75905047D01*
X169571190Y-75905047D01*
X169780714Y-75957428D01*
X169885476Y-76009809D01*
X169990238Y-76114571D01*
X170042619Y-76271714D01*
X170042619Y-76533619D01*
D10*
X117475000Y-86360000D02*
X117475000Y-99060000D01*
X121285000Y-86360000D02*
X117475000Y-86360000D01*
X129540000Y-86360000D02*
X126365000Y-86360000D01*
X129540000Y-99060000D02*
X129540000Y-86360000D01*
X117475000Y-99060000D02*
X129540000Y-99060000D01*
X101600000Y-75565000D02*
X101600000Y-74930000D01*
X152400000Y-34290000D02*
X152400000Y-31750000D01*
X136525000Y-34290000D02*
X136525000Y-31750000D01*
D11*
X139785714Y-35540714D02*
X139785714Y-34626428D01*
X140242857Y-35083571D02*
X139328571Y-35083571D01*
X139042857Y-34169285D02*
X139042857Y-33426428D01*
X139500000Y-33826428D01*
X139500000Y-33655000D01*
X139557142Y-33540714D01*
X139614285Y-33483571D01*
X139728571Y-33426428D01*
X140014285Y-33426428D01*
X140128571Y-33483571D01*
X140185714Y-33540714D01*
X140242857Y-33655000D01*
X140242857Y-33997857D01*
X140185714Y-34112142D01*
X140128571Y-34169285D01*
X140128571Y-32912142D02*
X140185714Y-32855000D01*
X140242857Y-32912142D01*
X140185714Y-32969285D01*
X140128571Y-32912142D01*
X140242857Y-32912142D01*
X139042857Y-32455000D02*
X139042857Y-31712142D01*
X139500000Y-32112142D01*
X139500000Y-31940714D01*
X139557142Y-31826428D01*
X139614285Y-31769285D01*
X139728571Y-31712142D01*
X140014285Y-31712142D01*
X140128571Y-31769285D01*
X140185714Y-31826428D01*
X140242857Y-31940714D01*
X140242857Y-32283571D01*
X140185714Y-32397857D01*
X140128571Y-32455000D01*
X141640000Y-34483571D02*
X141582857Y-34597857D01*
X141582857Y-34769285D01*
X141640000Y-34940714D01*
X141754285Y-35055000D01*
X141868571Y-35112142D01*
X142097142Y-35169285D01*
X142268571Y-35169285D01*
X142497142Y-35112142D01*
X142611428Y-35055000D01*
X142725714Y-34940714D01*
X142782857Y-34769285D01*
X142782857Y-34655000D01*
X142725714Y-34483571D01*
X142668571Y-34426428D01*
X142268571Y-34426428D01*
X142268571Y-34655000D01*
X141697142Y-33969285D02*
X141640000Y-33912142D01*
X141582857Y-33797857D01*
X141582857Y-33512142D01*
X141640000Y-33397857D01*
X141697142Y-33340714D01*
X141811428Y-33283571D01*
X141925714Y-33283571D01*
X142097142Y-33340714D01*
X142782857Y-34026428D01*
X142782857Y-33283571D01*
X142097142Y-32597857D02*
X142040000Y-32712142D01*
X141982857Y-32769285D01*
X141868571Y-32826428D01*
X141811428Y-32826428D01*
X141697142Y-32769285D01*
X141640000Y-32712142D01*
X141582857Y-32597857D01*
X141582857Y-32369285D01*
X141640000Y-32255000D01*
X141697142Y-32197857D01*
X141811428Y-32140714D01*
X141868571Y-32140714D01*
X141982857Y-32197857D01*
X142040000Y-32255000D01*
X142097142Y-32369285D01*
X142097142Y-32597857D01*
X142154285Y-32712142D01*
X142211428Y-32769285D01*
X142325714Y-32826428D01*
X142554285Y-32826428D01*
X142668571Y-32769285D01*
X142725714Y-32712142D01*
X142782857Y-32597857D01*
X142782857Y-32369285D01*
X142725714Y-32255000D01*
X142668571Y-32197857D01*
X142554285Y-32140714D01*
X142325714Y-32140714D01*
X142211428Y-32197857D01*
X142154285Y-32255000D01*
X142097142Y-32369285D01*
X144180000Y-34483571D02*
X144122857Y-34597857D01*
X144122857Y-34769285D01*
X144180000Y-34940714D01*
X144294285Y-35055000D01*
X144408571Y-35112142D01*
X144637142Y-35169285D01*
X144808571Y-35169285D01*
X145037142Y-35112142D01*
X145151428Y-35055000D01*
X145265714Y-34940714D01*
X145322857Y-34769285D01*
X145322857Y-34655000D01*
X145265714Y-34483571D01*
X145208571Y-34426428D01*
X144808571Y-34426428D01*
X144808571Y-34655000D01*
X144237142Y-33969285D02*
X144180000Y-33912142D01*
X144122857Y-33797857D01*
X144122857Y-33512142D01*
X144180000Y-33397857D01*
X144237142Y-33340714D01*
X144351428Y-33283571D01*
X144465714Y-33283571D01*
X144637142Y-33340714D01*
X145322857Y-34026428D01*
X145322857Y-33283571D01*
X144237142Y-32826428D02*
X144180000Y-32769285D01*
X144122857Y-32655000D01*
X144122857Y-32369285D01*
X144180000Y-32255000D01*
X144237142Y-32197857D01*
X144351428Y-32140714D01*
X144465714Y-32140714D01*
X144637142Y-32197857D01*
X145322857Y-32883571D01*
X145322857Y-32140714D01*
X146720000Y-34483571D02*
X146662857Y-34597857D01*
X146662857Y-34769285D01*
X146720000Y-34940714D01*
X146834285Y-35055000D01*
X146948571Y-35112142D01*
X147177142Y-35169285D01*
X147348571Y-35169285D01*
X147577142Y-35112142D01*
X147691428Y-35055000D01*
X147805714Y-34940714D01*
X147862857Y-34769285D01*
X147862857Y-34655000D01*
X147805714Y-34483571D01*
X147748571Y-34426428D01*
X147348571Y-34426428D01*
X147348571Y-34655000D01*
X146777142Y-33969285D02*
X146720000Y-33912142D01*
X146662857Y-33797857D01*
X146662857Y-33512142D01*
X146720000Y-33397857D01*
X146777142Y-33340714D01*
X146891428Y-33283571D01*
X147005714Y-33283571D01*
X147177142Y-33340714D01*
X147862857Y-34026428D01*
X147862857Y-33283571D01*
X147862857Y-32140714D02*
X147862857Y-32826428D01*
X147862857Y-32483571D02*
X146662857Y-32483571D01*
X146834285Y-32597857D01*
X146948571Y-32712142D01*
X147005714Y-32826428D01*
X149260000Y-34569285D02*
X149202857Y-34683571D01*
X149202857Y-34855000D01*
X149260000Y-35026428D01*
X149374285Y-35140714D01*
X149488571Y-35197857D01*
X149717142Y-35255000D01*
X149888571Y-35255000D01*
X150117142Y-35197857D01*
X150231428Y-35140714D01*
X150345714Y-35026428D01*
X150402857Y-34855000D01*
X150402857Y-34740714D01*
X150345714Y-34569285D01*
X150288571Y-34512142D01*
X149888571Y-34512142D01*
X149888571Y-34740714D01*
X150402857Y-33997857D02*
X149202857Y-33997857D01*
X150402857Y-33312142D01*
X149202857Y-33312142D01*
X150402857Y-32740714D02*
X149202857Y-32740714D01*
X149202857Y-32455000D01*
X149260000Y-32283571D01*
X149374285Y-32169285D01*
X149488571Y-32112142D01*
X149717142Y-32055000D01*
X149888571Y-32055000D01*
X150117142Y-32112142D01*
X150231428Y-32169285D01*
X150345714Y-32283571D01*
X150402857Y-32455000D01*
X150402857Y-32740714D01*
X140760714Y-71163571D02*
X140760714Y-69663571D01*
X141403571Y-69806428D02*
X141475000Y-69735000D01*
X141617857Y-69663571D01*
X141975000Y-69663571D01*
X142117857Y-69735000D01*
X142189285Y-69806428D01*
X142260714Y-69949285D01*
X142260714Y-70092142D01*
X142189285Y-70306428D01*
X141332142Y-71163571D01*
X142260714Y-71163571D01*
X143760714Y-71020714D02*
X143689285Y-71092142D01*
X143475000Y-71163571D01*
X143332142Y-71163571D01*
X143117857Y-71092142D01*
X142975000Y-70949285D01*
X142903571Y-70806428D01*
X142832142Y-70520714D01*
X142832142Y-70306428D01*
X142903571Y-70020714D01*
X142975000Y-69877857D01*
X143117857Y-69735000D01*
X143332142Y-69663571D01*
X143475000Y-69663571D01*
X143689285Y-69735000D01*
X143760714Y-69806428D01*
X145189285Y-71163571D02*
X144332142Y-71163571D01*
X144760714Y-71163571D02*
X144760714Y-69663571D01*
X144617857Y-69877857D01*
X144475000Y-70020714D01*
X144332142Y-70092142D01*
X146260714Y-71735000D02*
X146189285Y-71663571D01*
X146046428Y-71449285D01*
X145975000Y-71306428D01*
X145903571Y-71092142D01*
X145832142Y-70735000D01*
X145832142Y-70449285D01*
X145903571Y-70092142D01*
X145975000Y-69877857D01*
X146046428Y-69735000D01*
X146189285Y-69520714D01*
X146260714Y-69449285D01*
X147617857Y-69735000D02*
X147475000Y-69663571D01*
X147260714Y-69663571D01*
X147046428Y-69735000D01*
X146903571Y-69877857D01*
X146832142Y-70020714D01*
X146760714Y-70306428D01*
X146760714Y-70520714D01*
X146832142Y-70806428D01*
X146903571Y-70949285D01*
X147046428Y-71092142D01*
X147260714Y-71163571D01*
X147403571Y-71163571D01*
X147617857Y-71092142D01*
X147689285Y-71020714D01*
X147689285Y-70520714D01*
X147403571Y-70520714D01*
X148332142Y-71163571D02*
X148332142Y-69663571D01*
X148903571Y-69663571D01*
X149046428Y-69735000D01*
X149117857Y-69806428D01*
X149189285Y-69949285D01*
X149189285Y-70163571D01*
X149117857Y-70306428D01*
X149046428Y-70377857D01*
X148903571Y-70449285D01*
X148332142Y-70449285D01*
X150617857Y-71163571D02*
X149760714Y-71163571D01*
X150189285Y-71163571D02*
X150189285Y-69663571D01*
X150046428Y-69877857D01*
X149903571Y-70020714D01*
X149760714Y-70092142D01*
X151903571Y-70163571D02*
X151903571Y-71163571D01*
X151546428Y-69592142D02*
X151189285Y-70663571D01*
X152117857Y-70663571D01*
X153903571Y-71163571D02*
X153832142Y-71163571D01*
X153689285Y-71092142D01*
X153475000Y-70877857D01*
X153117857Y-70449285D01*
X152975000Y-70235000D01*
X152903571Y-70020714D01*
X152903571Y-69877857D01*
X152975000Y-69735000D01*
X153117857Y-69663571D01*
X153189285Y-69663571D01*
X153332142Y-69735000D01*
X153403571Y-69877857D01*
X153403571Y-69949285D01*
X153332142Y-70092142D01*
X153260714Y-70163571D01*
X152832142Y-70449285D01*
X152760714Y-70520714D01*
X152689285Y-70663571D01*
X152689285Y-70877857D01*
X152760714Y-71020714D01*
X152832142Y-71092142D01*
X152975000Y-71163571D01*
X153189285Y-71163571D01*
X153332142Y-71092142D01*
X153403571Y-71020714D01*
X153617857Y-70735000D01*
X153689285Y-70520714D01*
X153689285Y-70377857D01*
X155332142Y-71163571D02*
X154475000Y-71163571D01*
X154903571Y-71163571D02*
X154903571Y-69663571D01*
X154760714Y-69877857D01*
X154617857Y-70020714D01*
X154475000Y-70092142D01*
X156689285Y-69663571D02*
X155975000Y-69663571D01*
X155903571Y-70377857D01*
X155975000Y-70306428D01*
X156117857Y-70235000D01*
X156475000Y-70235000D01*
X156617857Y-70306428D01*
X156689285Y-70377857D01*
X156760714Y-70520714D01*
X156760714Y-70877857D01*
X156689285Y-71020714D01*
X156617857Y-71092142D01*
X156475000Y-71163571D01*
X156117857Y-71163571D01*
X155975000Y-71092142D01*
X155903571Y-71020714D01*
X157260714Y-71735000D02*
X157332142Y-71663571D01*
X157475000Y-71449285D01*
X157546428Y-71306428D01*
X157617857Y-71092142D01*
X157689285Y-70735000D01*
X157689285Y-70449285D01*
X157617857Y-70092142D01*
X157546428Y-69877857D01*
X157475000Y-69735000D01*
X157332142Y-69520714D01*
X157260714Y-69449285D01*
D10*
X92075000Y-75565000D02*
X92075000Y-62230000D01*
X92075000Y-78740000D02*
X92075000Y-78105000D01*
X101600000Y-78740000D02*
X92075000Y-78740000D01*
X101600000Y-78105000D02*
X101600000Y-78740000D01*
X101600000Y-58420000D02*
X101600000Y-59690000D01*
X92075000Y-58420000D02*
X101600000Y-58420000D01*
X92075000Y-62230000D02*
X92075000Y-58420000D01*
X92075000Y-38100000D02*
X92075000Y-36830000D01*
X90805000Y-38100000D02*
X92075000Y-38100000D01*
X88265000Y-38100000D02*
X90805000Y-38100000D01*
X155575000Y-38100000D02*
X155575000Y-37465000D01*
X155575000Y-37465000D02*
X155575000Y-36195000D01*
X155575000Y-42545000D02*
X155575000Y-40640000D01*
X146050000Y-53340000D02*
X146050000Y-47625000D01*
X146050000Y-67945000D02*
X146050000Y-63500000D01*
X163195000Y-67945000D02*
X146050000Y-67945000D01*
X163195000Y-47625000D02*
X163195000Y-67945000D01*
X146050000Y-47625000D02*
X163195000Y-47625000D01*
X91440000Y-43180000D02*
X93980000Y-43180000D01*
X83820000Y-43180000D02*
X86360000Y-43180000D01*
X75565000Y-43180000D02*
X78740000Y-43180000D01*
X75565000Y-45085000D02*
X75565000Y-43180000D01*
X100965000Y-43180000D02*
X99060000Y-43180000D01*
X100965000Y-45085000D02*
X100965000Y-43180000D01*
X100965000Y-55880000D02*
X100965000Y-55245000D01*
X75565000Y-55880000D02*
X75565000Y-55245000D01*
X100965000Y-55880000D02*
X75565000Y-55880000D01*
X155575000Y-34290000D02*
X169545000Y-34290000D01*
X155575000Y-36195000D02*
X155575000Y-34290000D01*
X155575000Y-46355000D02*
X155575000Y-42545000D01*
X169545000Y-46355000D02*
X155575000Y-46355000D01*
D11*
X158631428Y-45335000D02*
X159345714Y-45335000D01*
X158488571Y-45763571D02*
X158988571Y-44263571D01*
X159488571Y-45763571D01*
X159988571Y-45763571D02*
X159988571Y-44263571D01*
X160845714Y-45763571D01*
X160845714Y-44263571D01*
X161488571Y-45335000D02*
X162202857Y-45335000D01*
X161345714Y-45763571D02*
X161845714Y-44263571D01*
X162345714Y-45763571D01*
X163560000Y-45763571D02*
X162845714Y-45763571D01*
X162845714Y-44263571D01*
X164345714Y-44263571D02*
X164631428Y-44263571D01*
X164774285Y-44335000D01*
X164917142Y-44477857D01*
X164988571Y-44763571D01*
X164988571Y-45263571D01*
X164917142Y-45549285D01*
X164774285Y-45692142D01*
X164631428Y-45763571D01*
X164345714Y-45763571D01*
X164202857Y-45692142D01*
X164060000Y-45549285D01*
X163988571Y-45263571D01*
X163988571Y-44763571D01*
X164060000Y-44477857D01*
X164202857Y-44335000D01*
X164345714Y-44263571D01*
X166417142Y-44335000D02*
X166274285Y-44263571D01*
X166060000Y-44263571D01*
X165845714Y-44335000D01*
X165702857Y-44477857D01*
X165631428Y-44620714D01*
X165560000Y-44906428D01*
X165560000Y-45120714D01*
X165631428Y-45406428D01*
X165702857Y-45549285D01*
X165845714Y-45692142D01*
X166060000Y-45763571D01*
X166202857Y-45763571D01*
X166417142Y-45692142D01*
X166488571Y-45620714D01*
X166488571Y-45120714D01*
X166202857Y-45120714D01*
D10*
X88265000Y-38100000D02*
X82550000Y-38100000D01*
X92075000Y-26035000D02*
X92075000Y-36830000D01*
X82550000Y-26035000D02*
X92075000Y-26035000D01*
D11*
X89255714Y-29822857D02*
X89941428Y-29822857D01*
X89598571Y-31022857D02*
X89598571Y-29822857D01*
X90227142Y-29822857D02*
X91027142Y-31022857D01*
X91027142Y-29822857D02*
X90227142Y-31022857D01*
X89970000Y-33562857D02*
X89570000Y-32991428D01*
X89284285Y-33562857D02*
X89284285Y-32362857D01*
X89741428Y-32362857D01*
X89855714Y-32420000D01*
X89912857Y-32477142D01*
X89970000Y-32591428D01*
X89970000Y-32762857D01*
X89912857Y-32877142D01*
X89855714Y-32934285D01*
X89741428Y-32991428D01*
X89284285Y-32991428D01*
X90370000Y-32362857D02*
X91170000Y-33562857D01*
X91170000Y-32362857D02*
X90370000Y-33562857D01*
X89255714Y-34960000D02*
X89141428Y-34902857D01*
X88970000Y-34902857D01*
X88798571Y-34960000D01*
X88684285Y-35074285D01*
X88627142Y-35188571D01*
X88570000Y-35417142D01*
X88570000Y-35588571D01*
X88627142Y-35817142D01*
X88684285Y-35931428D01*
X88798571Y-36045714D01*
X88970000Y-36102857D01*
X89084285Y-36102857D01*
X89255714Y-36045714D01*
X89312857Y-35988571D01*
X89312857Y-35588571D01*
X89084285Y-35588571D01*
X89827142Y-36102857D02*
X89827142Y-34902857D01*
X90512857Y-36102857D01*
X90512857Y-34902857D01*
X91084285Y-36102857D02*
X91084285Y-34902857D01*
X91370000Y-34902857D01*
X91541428Y-34960000D01*
X91655714Y-35074285D01*
X91712857Y-35188571D01*
X91770000Y-35417142D01*
X91770000Y-35588571D01*
X91712857Y-35817142D01*
X91655714Y-35931428D01*
X91541428Y-36045714D01*
X91370000Y-36102857D01*
X91084285Y-36102857D01*
D10*
X169545000Y-46355000D02*
X169545000Y-34290000D01*
X136525000Y-41275000D02*
X136525000Y-34290000D01*
X152400000Y-41275000D02*
X136525000Y-41275000D01*
X152400000Y-34290000D02*
X152400000Y-41275000D01*
X136525000Y-31750000D02*
X152400000Y-31750000D01*
D11*
X84232857Y-76870000D02*
X84118571Y-76812857D01*
X83947142Y-76812857D01*
X83775714Y-76870000D01*
X83661428Y-76984285D01*
X83604285Y-77098571D01*
X83547142Y-77327142D01*
X83547142Y-77498571D01*
X83604285Y-77727142D01*
X83661428Y-77841428D01*
X83775714Y-77955714D01*
X83947142Y-78012857D01*
X84061428Y-78012857D01*
X84232857Y-77955714D01*
X84290000Y-77898571D01*
X84290000Y-77498571D01*
X84061428Y-77498571D01*
X84804285Y-78012857D02*
X84804285Y-76812857D01*
X85261428Y-76812857D01*
X85375714Y-76870000D01*
X85432857Y-76927142D01*
X85490000Y-77041428D01*
X85490000Y-77212857D01*
X85432857Y-77327142D01*
X85375714Y-77384285D01*
X85261428Y-77441428D01*
X84804285Y-77441428D01*
X86518571Y-76812857D02*
X86290000Y-76812857D01*
X86175714Y-76870000D01*
X86118571Y-76927142D01*
X86004285Y-77098571D01*
X85947142Y-77327142D01*
X85947142Y-77784285D01*
X86004285Y-77898571D01*
X86061428Y-77955714D01*
X86175714Y-78012857D01*
X86404285Y-78012857D01*
X86518571Y-77955714D01*
X86575714Y-77898571D01*
X86632857Y-77784285D01*
X86632857Y-77498571D01*
X86575714Y-77384285D01*
X86518571Y-77327142D01*
X86404285Y-77270000D01*
X86175714Y-77270000D01*
X86061428Y-77327142D01*
X86004285Y-77384285D01*
X85947142Y-77498571D01*
X84232857Y-79410000D02*
X84118571Y-79352857D01*
X83947142Y-79352857D01*
X83775714Y-79410000D01*
X83661428Y-79524285D01*
X83604285Y-79638571D01*
X83547142Y-79867142D01*
X83547142Y-80038571D01*
X83604285Y-80267142D01*
X83661428Y-80381428D01*
X83775714Y-80495714D01*
X83947142Y-80552857D01*
X84061428Y-80552857D01*
X84232857Y-80495714D01*
X84290000Y-80438571D01*
X84290000Y-80038571D01*
X84061428Y-80038571D01*
X84804285Y-80552857D02*
X84804285Y-79352857D01*
X85261428Y-79352857D01*
X85375714Y-79410000D01*
X85432857Y-79467142D01*
X85490000Y-79581428D01*
X85490000Y-79752857D01*
X85432857Y-79867142D01*
X85375714Y-79924285D01*
X85261428Y-79981428D01*
X84804285Y-79981428D01*
X85890000Y-79352857D02*
X86690000Y-79352857D01*
X86175714Y-80552857D01*
X84175714Y-81950000D02*
X84061428Y-81892857D01*
X83890000Y-81892857D01*
X83718571Y-81950000D01*
X83604285Y-82064285D01*
X83547142Y-82178571D01*
X83490000Y-82407142D01*
X83490000Y-82578571D01*
X83547142Y-82807142D01*
X83604285Y-82921428D01*
X83718571Y-83035714D01*
X83890000Y-83092857D01*
X84004285Y-83092857D01*
X84175714Y-83035714D01*
X84232857Y-82978571D01*
X84232857Y-82578571D01*
X84004285Y-82578571D01*
X84747142Y-83092857D02*
X84747142Y-81892857D01*
X85432857Y-83092857D01*
X85432857Y-81892857D01*
X86004285Y-83092857D02*
X86004285Y-81892857D01*
X86290000Y-81892857D01*
X86461428Y-81950000D01*
X86575714Y-82064285D01*
X86632857Y-82178571D01*
X86690000Y-82407142D01*
X86690000Y-82578571D01*
X86632857Y-82807142D01*
X86575714Y-82921428D01*
X86461428Y-83035714D01*
X86290000Y-83092857D01*
X86004285Y-83092857D01*
D10*
X78105000Y-86995000D02*
X78740000Y-86995000D01*
X78105000Y-74930000D02*
X78105000Y-86995000D01*
X87630000Y-86995000D02*
X78740000Y-86995000D01*
X87630000Y-74930000D02*
X87630000Y-86995000D01*
X78105000Y-74930000D02*
X87630000Y-74930000D01*
D11*
X153975000Y-39570000D02*
X154546428Y-39570000D01*
X153860714Y-39912857D02*
X154260714Y-38712857D01*
X154660714Y-39912857D01*
X155689285Y-39912857D02*
X155003571Y-39912857D01*
X155346428Y-39912857D02*
X155346428Y-38712857D01*
X155232142Y-38884285D01*
X155117857Y-38998571D01*
X155003571Y-39055714D01*
X156203571Y-39112857D02*
X157117857Y-39455714D01*
X156203571Y-39798571D01*
X160960000Y-39570000D02*
X161531428Y-39570000D01*
X160845714Y-39912857D02*
X161245714Y-38712857D01*
X161645714Y-39912857D01*
X162274285Y-38712857D02*
X162388571Y-38712857D01*
X162502857Y-38770000D01*
X162560000Y-38827142D01*
X162617142Y-38941428D01*
X162674285Y-39170000D01*
X162674285Y-39455714D01*
X162617142Y-39684285D01*
X162560000Y-39798571D01*
X162502857Y-39855714D01*
X162388571Y-39912857D01*
X162274285Y-39912857D01*
X162160000Y-39855714D01*
X162102857Y-39798571D01*
X162045714Y-39684285D01*
X161988571Y-39455714D01*
X161988571Y-39170000D01*
X162045714Y-38941428D01*
X162102857Y-38827142D01*
X162160000Y-38770000D01*
X162274285Y-38712857D01*
X163188571Y-39112857D02*
X164102857Y-39455714D01*
X163188571Y-39798571D01*
X160788571Y-41252857D02*
X161531428Y-41252857D01*
X161131428Y-41710000D01*
X161302857Y-41710000D01*
X161417142Y-41767142D01*
X161474285Y-41824285D01*
X161531428Y-41938571D01*
X161531428Y-42224285D01*
X161474285Y-42338571D01*
X161417142Y-42395714D01*
X161302857Y-42452857D01*
X160960000Y-42452857D01*
X160845714Y-42395714D01*
X160788571Y-42338571D01*
X162045714Y-42338571D02*
X162102857Y-42395714D01*
X162045714Y-42452857D01*
X161988571Y-42395714D01*
X162045714Y-42338571D01*
X162045714Y-42452857D01*
X162502857Y-41252857D02*
X163245714Y-41252857D01*
X162845714Y-41710000D01*
X163017142Y-41710000D01*
X163131428Y-41767142D01*
X163188571Y-41824285D01*
X163245714Y-41938571D01*
X163245714Y-42224285D01*
X163188571Y-42338571D01*
X163131428Y-42395714D01*
X163017142Y-42452857D01*
X162674285Y-42452857D01*
X162560000Y-42395714D01*
X162502857Y-42338571D01*
X163588571Y-41252857D02*
X163988571Y-42452857D01*
X164388571Y-41252857D01*
X160445714Y-37030000D02*
X161017142Y-37030000D01*
X160331428Y-37372857D02*
X160731428Y-36172857D01*
X161131428Y-37372857D01*
X162160000Y-36230000D02*
X162045714Y-36172857D01*
X161874285Y-36172857D01*
X161702857Y-36230000D01*
X161588571Y-36344285D01*
X161531428Y-36458571D01*
X161474285Y-36687142D01*
X161474285Y-36858571D01*
X161531428Y-37087142D01*
X161588571Y-37201428D01*
X161702857Y-37315714D01*
X161874285Y-37372857D01*
X161988571Y-37372857D01*
X162160000Y-37315714D01*
X162217142Y-37258571D01*
X162217142Y-36858571D01*
X161988571Y-36858571D01*
X162731428Y-37372857D02*
X162731428Y-36172857D01*
X163417142Y-37372857D01*
X163417142Y-36172857D01*
X163988571Y-37372857D02*
X163988571Y-36172857D01*
X164274285Y-36172857D01*
X164445714Y-36230000D01*
X164560000Y-36344285D01*
X164617142Y-36458571D01*
X164674285Y-36687142D01*
X164674285Y-36858571D01*
X164617142Y-37087142D01*
X164560000Y-37201428D01*
X164445714Y-37315714D01*
X164274285Y-37372857D01*
X163988571Y-37372857D01*
X143624571Y-54010000D02*
X143510285Y-53952857D01*
X143338857Y-53952857D01*
X143167428Y-54010000D01*
X143053142Y-54124285D01*
X142996000Y-54238571D01*
X142938857Y-54467142D01*
X142938857Y-54638571D01*
X142996000Y-54867142D01*
X143053142Y-54981428D01*
X143167428Y-55095714D01*
X143338857Y-55152857D01*
X143453142Y-55152857D01*
X143624571Y-55095714D01*
X143681714Y-55038571D01*
X143681714Y-54638571D01*
X143453142Y-54638571D01*
X144196000Y-55152857D02*
X144196000Y-53952857D01*
X144653142Y-53952857D01*
X144767428Y-54010000D01*
X144824571Y-54067142D01*
X144881714Y-54181428D01*
X144881714Y-54352857D01*
X144824571Y-54467142D01*
X144767428Y-54524285D01*
X144653142Y-54581428D01*
X144196000Y-54581428D01*
X145338857Y-54067142D02*
X145396000Y-54010000D01*
X145510285Y-53952857D01*
X145796000Y-53952857D01*
X145910285Y-54010000D01*
X145967428Y-54067142D01*
X146024571Y-54181428D01*
X146024571Y-54295714D01*
X145967428Y-54467142D01*
X145281714Y-55152857D01*
X146024571Y-55152857D01*
X146767428Y-53952857D02*
X146881714Y-53952857D01*
X146996000Y-54010000D01*
X147053142Y-54067142D01*
X147110285Y-54181428D01*
X147167428Y-54410000D01*
X147167428Y-54695714D01*
X147110285Y-54924285D01*
X147053142Y-55038571D01*
X146996000Y-55095714D01*
X146881714Y-55152857D01*
X146767428Y-55152857D01*
X146653142Y-55095714D01*
X146596000Y-55038571D01*
X146538857Y-54924285D01*
X146481714Y-54695714D01*
X146481714Y-54410000D01*
X146538857Y-54181428D01*
X146596000Y-54067142D01*
X146653142Y-54010000D01*
X146767428Y-53952857D01*
X147681714Y-54352857D02*
X148596000Y-54695714D01*
X147681714Y-55038571D01*
X152768571Y-54010000D02*
X152654285Y-53952857D01*
X152482857Y-53952857D01*
X152311428Y-54010000D01*
X152197142Y-54124285D01*
X152140000Y-54238571D01*
X152082857Y-54467142D01*
X152082857Y-54638571D01*
X152140000Y-54867142D01*
X152197142Y-54981428D01*
X152311428Y-55095714D01*
X152482857Y-55152857D01*
X152597142Y-55152857D01*
X152768571Y-55095714D01*
X152825714Y-55038571D01*
X152825714Y-54638571D01*
X152597142Y-54638571D01*
X153340000Y-55152857D02*
X153340000Y-53952857D01*
X153797142Y-53952857D01*
X153911428Y-54010000D01*
X153968571Y-54067142D01*
X154025714Y-54181428D01*
X154025714Y-54352857D01*
X153968571Y-54467142D01*
X153911428Y-54524285D01*
X153797142Y-54581428D01*
X153340000Y-54581428D01*
X155168571Y-55152857D02*
X154482857Y-55152857D01*
X154825714Y-55152857D02*
X154825714Y-53952857D01*
X154711428Y-54124285D01*
X154597142Y-54238571D01*
X154482857Y-54295714D01*
X155568571Y-53952857D02*
X156368571Y-53952857D01*
X155854285Y-55152857D01*
X156825714Y-54352857D02*
X157740000Y-54695714D01*
X156825714Y-55038571D01*
X153054285Y-57692857D02*
X153054285Y-56492857D01*
X153454285Y-57350000D01*
X153854285Y-56492857D01*
X153854285Y-57692857D01*
X154425714Y-57692857D02*
X154425714Y-56492857D01*
X154940000Y-57635714D02*
X155111428Y-57692857D01*
X155397142Y-57692857D01*
X155511428Y-57635714D01*
X155568571Y-57578571D01*
X155625714Y-57464285D01*
X155625714Y-57350000D01*
X155568571Y-57235714D01*
X155511428Y-57178571D01*
X155397142Y-57121428D01*
X155168571Y-57064285D01*
X155054285Y-57007142D01*
X154997142Y-56950000D01*
X154940000Y-56835714D01*
X154940000Y-56721428D01*
X154997142Y-56607142D01*
X155054285Y-56550000D01*
X155168571Y-56492857D01*
X155454285Y-56492857D01*
X155625714Y-56550000D01*
X156368571Y-56492857D02*
X156597142Y-56492857D01*
X156711428Y-56550000D01*
X156825714Y-56664285D01*
X156882857Y-56892857D01*
X156882857Y-57292857D01*
X156825714Y-57521428D01*
X156711428Y-57635714D01*
X156597142Y-57692857D01*
X156368571Y-57692857D01*
X156254285Y-57635714D01*
X156140000Y-57521428D01*
X156082857Y-57292857D01*
X156082857Y-56892857D01*
X156140000Y-56664285D01*
X156254285Y-56550000D01*
X156368571Y-56492857D01*
X153054285Y-60232857D02*
X153054285Y-59032857D01*
X153454285Y-59890000D01*
X153854285Y-59032857D01*
X153854285Y-60232857D01*
X154654285Y-59032857D02*
X154882857Y-59032857D01*
X154997142Y-59090000D01*
X155111428Y-59204285D01*
X155168571Y-59432857D01*
X155168571Y-59832857D01*
X155111428Y-60061428D01*
X154997142Y-60175714D01*
X154882857Y-60232857D01*
X154654285Y-60232857D01*
X154540000Y-60175714D01*
X154425714Y-60061428D01*
X154368571Y-59832857D01*
X154368571Y-59432857D01*
X154425714Y-59204285D01*
X154540000Y-59090000D01*
X154654285Y-59032857D01*
X155625714Y-60175714D02*
X155797142Y-60232857D01*
X156082857Y-60232857D01*
X156197142Y-60175714D01*
X156254285Y-60118571D01*
X156311428Y-60004285D01*
X156311428Y-59890000D01*
X156254285Y-59775714D01*
X156197142Y-59718571D01*
X156082857Y-59661428D01*
X155854285Y-59604285D01*
X155740000Y-59547142D01*
X155682857Y-59490000D01*
X155625714Y-59375714D01*
X155625714Y-59261428D01*
X155682857Y-59147142D01*
X155740000Y-59090000D01*
X155854285Y-59032857D01*
X156140000Y-59032857D01*
X156311428Y-59090000D01*
X156825714Y-60232857D02*
X156825714Y-59032857D01*
X154225714Y-62658571D02*
X154168571Y-62715714D01*
X153997142Y-62772857D01*
X153882857Y-62772857D01*
X153711428Y-62715714D01*
X153597142Y-62601428D01*
X153540000Y-62487142D01*
X153482857Y-62258571D01*
X153482857Y-62087142D01*
X153540000Y-61858571D01*
X153597142Y-61744285D01*
X153711428Y-61630000D01*
X153882857Y-61572857D01*
X153997142Y-61572857D01*
X154168571Y-61630000D01*
X154225714Y-61687142D01*
X155311428Y-62772857D02*
X154740000Y-62772857D01*
X154740000Y-61572857D01*
X155711428Y-62772857D02*
X155711428Y-61572857D01*
X156397142Y-62772857D02*
X155882857Y-62087142D01*
X156397142Y-61572857D02*
X155711428Y-62258571D01*
X152540000Y-64855714D02*
X153454285Y-64855714D01*
X152997142Y-65312857D02*
X152997142Y-64398571D01*
X153911428Y-64112857D02*
X154654285Y-64112857D01*
X154254285Y-64570000D01*
X154425714Y-64570000D01*
X154540000Y-64627142D01*
X154597142Y-64684285D01*
X154654285Y-64798571D01*
X154654285Y-65084285D01*
X154597142Y-65198571D01*
X154540000Y-65255714D01*
X154425714Y-65312857D01*
X154082857Y-65312857D01*
X153968571Y-65255714D01*
X153911428Y-65198571D01*
X155168571Y-65198571D02*
X155225714Y-65255714D01*
X155168571Y-65312857D01*
X155111428Y-65255714D01*
X155168571Y-65198571D01*
X155168571Y-65312857D01*
X155625714Y-64112857D02*
X156368571Y-64112857D01*
X155968571Y-64570000D01*
X156140000Y-64570000D01*
X156254285Y-64627142D01*
X156311428Y-64684285D01*
X156368571Y-64798571D01*
X156368571Y-65084285D01*
X156311428Y-65198571D01*
X156254285Y-65255714D01*
X156140000Y-65312857D01*
X155797142Y-65312857D01*
X155682857Y-65255714D01*
X155625714Y-65198571D01*
X156711428Y-64112857D02*
X157111428Y-65312857D01*
X157511428Y-64112857D01*
X154025714Y-51470000D02*
X153911428Y-51412857D01*
X153740000Y-51412857D01*
X153568571Y-51470000D01*
X153454285Y-51584285D01*
X153397142Y-51698571D01*
X153340000Y-51927142D01*
X153340000Y-52098571D01*
X153397142Y-52327142D01*
X153454285Y-52441428D01*
X153568571Y-52555714D01*
X153740000Y-52612857D01*
X153854285Y-52612857D01*
X154025714Y-52555714D01*
X154082857Y-52498571D01*
X154082857Y-52098571D01*
X153854285Y-52098571D01*
X154597142Y-52612857D02*
X154597142Y-51412857D01*
X155282857Y-52612857D01*
X155282857Y-51412857D01*
X155854285Y-52612857D02*
X155854285Y-51412857D01*
X156140000Y-51412857D01*
X156311428Y-51470000D01*
X156425714Y-51584285D01*
X156482857Y-51698571D01*
X156540000Y-51927142D01*
X156540000Y-52098571D01*
X156482857Y-52327142D01*
X156425714Y-52441428D01*
X156311428Y-52555714D01*
X156140000Y-52612857D01*
X155854285Y-52612857D01*
X125580714Y-97792857D02*
X125637857Y-97621428D01*
X125637857Y-97335714D01*
X125580714Y-97221428D01*
X125523571Y-97164285D01*
X125409285Y-97107142D01*
X125295000Y-97107142D01*
X125180714Y-97164285D01*
X125123571Y-97221428D01*
X125066428Y-97335714D01*
X125009285Y-97564285D01*
X124952142Y-97678571D01*
X124895000Y-97735714D01*
X124780714Y-97792857D01*
X124666428Y-97792857D01*
X124552142Y-97735714D01*
X124495000Y-97678571D01*
X124437857Y-97564285D01*
X124437857Y-97278571D01*
X124495000Y-97107142D01*
X124437857Y-96707142D02*
X125637857Y-96421428D01*
X124780714Y-96192857D01*
X125637857Y-95964285D01*
X124437857Y-95678571D01*
X125637857Y-95221428D02*
X124437857Y-95221428D01*
X124437857Y-94935714D01*
X124495000Y-94764285D01*
X124609285Y-94650000D01*
X124723571Y-94592857D01*
X124952142Y-94535714D01*
X125123571Y-94535714D01*
X125352142Y-94592857D01*
X125466428Y-94650000D01*
X125580714Y-94764285D01*
X125637857Y-94935714D01*
X125637857Y-95221428D01*
X125637857Y-94021428D02*
X124437857Y-94021428D01*
X124437857Y-93221428D02*
X124437857Y-92992857D01*
X124495000Y-92878571D01*
X124609285Y-92764285D01*
X124837857Y-92707142D01*
X125237857Y-92707142D01*
X125466428Y-92764285D01*
X125580714Y-92878571D01*
X125637857Y-92992857D01*
X125637857Y-93221428D01*
X125580714Y-93335714D01*
X125466428Y-93450000D01*
X125237857Y-93507142D01*
X124837857Y-93507142D01*
X124609285Y-93450000D01*
X124495000Y-93335714D01*
X124437857Y-93221428D01*
X123040714Y-97964285D02*
X123097857Y-97792857D01*
X123097857Y-97507142D01*
X123040714Y-97392857D01*
X122983571Y-97335714D01*
X122869285Y-97278571D01*
X122755000Y-97278571D01*
X122640714Y-97335714D01*
X122583571Y-97392857D01*
X122526428Y-97507142D01*
X122469285Y-97735714D01*
X122412142Y-97850000D01*
X122355000Y-97907142D01*
X122240714Y-97964285D01*
X122126428Y-97964285D01*
X122012142Y-97907142D01*
X121955000Y-97850000D01*
X121897857Y-97735714D01*
X121897857Y-97450000D01*
X121955000Y-97278571D01*
X121897857Y-96878571D02*
X123097857Y-96592857D01*
X122240714Y-96364285D01*
X123097857Y-96135714D01*
X121897857Y-95850000D01*
X122983571Y-94707142D02*
X123040714Y-94764285D01*
X123097857Y-94935714D01*
X123097857Y-95050000D01*
X123040714Y-95221428D01*
X122926428Y-95335714D01*
X122812142Y-95392857D01*
X122583571Y-95450000D01*
X122412142Y-95450000D01*
X122183571Y-95392857D01*
X122069285Y-95335714D01*
X121955000Y-95221428D01*
X121897857Y-95050000D01*
X121897857Y-94935714D01*
X121955000Y-94764285D01*
X122012142Y-94707142D01*
X123097857Y-93621428D02*
X123097857Y-94192857D01*
X121897857Y-94192857D01*
X123097857Y-93221428D02*
X121897857Y-93221428D01*
X123097857Y-92535714D02*
X122412142Y-93050000D01*
X121897857Y-92535714D02*
X122583571Y-93221428D01*
X120100714Y-97707142D02*
X120100714Y-96792857D01*
X120557857Y-97250000D02*
X119643571Y-97250000D01*
X119357857Y-95650000D02*
X119357857Y-96221428D01*
X119929285Y-96278571D01*
X119872142Y-96221428D01*
X119815000Y-96107142D01*
X119815000Y-95821428D01*
X119872142Y-95707142D01*
X119929285Y-95650000D01*
X120043571Y-95592857D01*
X120329285Y-95592857D01*
X120443571Y-95650000D01*
X120500714Y-95707142D01*
X120557857Y-95821428D01*
X120557857Y-96107142D01*
X120500714Y-96221428D01*
X120443571Y-96278571D01*
X119357857Y-95250000D02*
X120557857Y-94850000D01*
X119357857Y-94450000D01*
X120557857Y-94050000D02*
X119357857Y-94050000D01*
X120557857Y-93478571D02*
X119357857Y-93478571D01*
X120557857Y-92792857D01*
X119357857Y-92792857D01*
X127035000Y-94894285D02*
X126977857Y-95008571D01*
X126977857Y-95180000D01*
X127035000Y-95351428D01*
X127149285Y-95465714D01*
X127263571Y-95522857D01*
X127492142Y-95580000D01*
X127663571Y-95580000D01*
X127892142Y-95522857D01*
X128006428Y-95465714D01*
X128120714Y-95351428D01*
X128177857Y-95180000D01*
X128177857Y-95065714D01*
X128120714Y-94894285D01*
X128063571Y-94837142D01*
X127663571Y-94837142D01*
X127663571Y-95065714D01*
X128177857Y-94322857D02*
X126977857Y-94322857D01*
X128177857Y-93637142D01*
X126977857Y-93637142D01*
X128177857Y-93065714D02*
X126977857Y-93065714D01*
X126977857Y-92780000D01*
X127035000Y-92608571D01*
X127149285Y-92494285D01*
X127263571Y-92437142D01*
X127492142Y-92380000D01*
X127663571Y-92380000D01*
X127892142Y-92437142D01*
X128006428Y-92494285D01*
X128120714Y-92608571D01*
X128177857Y-92780000D01*
X128177857Y-93065714D01*
D10*
X151765000Y-26035000D02*
X151765000Y-31115000D01*
X164465000Y-26035000D02*
X151765000Y-26035000D01*
X164465000Y-31115000D02*
X164465000Y-26035000D01*
X151765000Y-31115000D02*
X164465000Y-31115000D01*
X151003000Y-31115000D02*
X151003000Y-26035000D01*
X138303000Y-31115000D02*
X151003000Y-31115000D01*
X138303000Y-26035000D02*
X138303000Y-31115000D01*
X151003000Y-26035000D02*
X138303000Y-26035000D01*
X164465000Y-48895000D02*
X164465000Y-61595000D01*
X171450000Y-48895000D02*
X164465000Y-48895000D01*
X171450000Y-61595000D02*
X171450000Y-48895000D01*
X164465000Y-61595000D02*
X171450000Y-61595000D01*
X84836000Y-60960000D02*
X84836000Y-73660000D01*
X78232000Y-73660000D02*
X84836000Y-73660000D01*
X78232000Y-60960000D02*
X78232000Y-73660000D01*
X84836000Y-60960000D02*
X78105000Y-60960000D01*
X86360000Y-60960000D02*
X86360000Y-60960000D01*
X91440000Y-60960000D02*
X86360000Y-60960000D01*
X91440000Y-73660000D02*
X91440000Y-60960000D01*
X86360000Y-73660000D02*
X91440000Y-73660000D01*
X86360000Y-60960000D02*
X86360000Y-73660000D01*
D11*
X93116428Y-71662857D02*
X92430714Y-71662857D01*
X92773571Y-71662857D02*
X92773571Y-70462857D01*
X92659285Y-70634285D01*
X92545000Y-70748571D01*
X92430714Y-70805714D01*
X93516428Y-70462857D02*
X94259285Y-70462857D01*
X93859285Y-70920000D01*
X94030714Y-70920000D01*
X94145000Y-70977142D01*
X94202142Y-71034285D01*
X94259285Y-71148571D01*
X94259285Y-71434285D01*
X94202142Y-71548571D01*
X94145000Y-71605714D01*
X94030714Y-71662857D01*
X93687857Y-71662857D01*
X93573571Y-71605714D01*
X93516428Y-71548571D01*
X93116428Y-69122857D02*
X92430714Y-69122857D01*
X92773571Y-69122857D02*
X92773571Y-67922857D01*
X92659285Y-68094285D01*
X92545000Y-68208571D01*
X92430714Y-68265714D01*
X93573571Y-68037142D02*
X93630714Y-67980000D01*
X93745000Y-67922857D01*
X94030714Y-67922857D01*
X94145000Y-67980000D01*
X94202142Y-68037142D01*
X94259285Y-68151428D01*
X94259285Y-68265714D01*
X94202142Y-68437142D01*
X93516428Y-69122857D01*
X94259285Y-69122857D01*
X93116428Y-66582857D02*
X92430714Y-66582857D01*
X92773571Y-66582857D02*
X92773571Y-65382857D01*
X92659285Y-65554285D01*
X92545000Y-65668571D01*
X92430714Y-65725714D01*
X94259285Y-66582857D02*
X93573571Y-66582857D01*
X93916428Y-66582857D02*
X93916428Y-65382857D01*
X93802142Y-65554285D01*
X93687857Y-65668571D01*
X93573571Y-65725714D01*
X93116428Y-64042857D02*
X92430714Y-64042857D01*
X92773571Y-64042857D02*
X92773571Y-62842857D01*
X92659285Y-63014285D01*
X92545000Y-63128571D01*
X92430714Y-63185714D01*
X93859285Y-62842857D02*
X93973571Y-62842857D01*
X94087857Y-62900000D01*
X94145000Y-62957142D01*
X94202142Y-63071428D01*
X94259285Y-63300000D01*
X94259285Y-63585714D01*
X94202142Y-63814285D01*
X94145000Y-63928571D01*
X94087857Y-63985714D01*
X93973571Y-64042857D01*
X93859285Y-64042857D01*
X93745000Y-63985714D01*
X93687857Y-63928571D01*
X93630714Y-63814285D01*
X93573571Y-63585714D01*
X93573571Y-63300000D01*
X93630714Y-63071428D01*
X93687857Y-62957142D01*
X93745000Y-62900000D01*
X93859285Y-62842857D01*
X100765000Y-71548571D02*
X100707857Y-71605714D01*
X100536428Y-71662857D01*
X100422142Y-71662857D01*
X100250714Y-71605714D01*
X100136428Y-71491428D01*
X100079285Y-71377142D01*
X100022142Y-71148571D01*
X100022142Y-70977142D01*
X100079285Y-70748571D01*
X100136428Y-70634285D01*
X100250714Y-70520000D01*
X100422142Y-70462857D01*
X100536428Y-70462857D01*
X100707857Y-70520000D01*
X100765000Y-70577142D01*
X101222142Y-71605714D02*
X101393571Y-71662857D01*
X101679285Y-71662857D01*
X101793571Y-71605714D01*
X101850714Y-71548571D01*
X101907857Y-71434285D01*
X101907857Y-71320000D01*
X101850714Y-71205714D01*
X101793571Y-71148571D01*
X101679285Y-71091428D01*
X101450714Y-71034285D01*
X101336428Y-70977142D01*
X101279285Y-70920000D01*
X101222142Y-70805714D01*
X101222142Y-70691428D01*
X101279285Y-70577142D01*
X101336428Y-70520000D01*
X101450714Y-70462857D01*
X101736428Y-70462857D01*
X101907857Y-70520000D01*
X99079285Y-69122857D02*
X99079285Y-67922857D01*
X99479285Y-68780000D01*
X99879285Y-67922857D01*
X99879285Y-69122857D01*
X100450714Y-69122857D02*
X100450714Y-67922857D01*
X100965000Y-69065714D02*
X101136428Y-69122857D01*
X101422142Y-69122857D01*
X101536428Y-69065714D01*
X101593571Y-69008571D01*
X101650714Y-68894285D01*
X101650714Y-68780000D01*
X101593571Y-68665714D01*
X101536428Y-68608571D01*
X101422142Y-68551428D01*
X101193571Y-68494285D01*
X101079285Y-68437142D01*
X101022142Y-68380000D01*
X100965000Y-68265714D01*
X100965000Y-68151428D01*
X101022142Y-68037142D01*
X101079285Y-67980000D01*
X101193571Y-67922857D01*
X101479285Y-67922857D01*
X101650714Y-67980000D01*
X102393571Y-67922857D02*
X102622142Y-67922857D01*
X102736428Y-67980000D01*
X102850714Y-68094285D01*
X102907857Y-68322857D01*
X102907857Y-68722857D01*
X102850714Y-68951428D01*
X102736428Y-69065714D01*
X102622142Y-69122857D01*
X102393571Y-69122857D01*
X102279285Y-69065714D01*
X102165000Y-68951428D01*
X102107857Y-68722857D01*
X102107857Y-68322857D01*
X102165000Y-68094285D01*
X102279285Y-67980000D01*
X102393571Y-67922857D01*
X99079285Y-66582857D02*
X99079285Y-65382857D01*
X99479285Y-66240000D01*
X99879285Y-65382857D01*
X99879285Y-66582857D01*
X100679285Y-65382857D02*
X100907857Y-65382857D01*
X101022142Y-65440000D01*
X101136428Y-65554285D01*
X101193571Y-65782857D01*
X101193571Y-66182857D01*
X101136428Y-66411428D01*
X101022142Y-66525714D01*
X100907857Y-66582857D01*
X100679285Y-66582857D01*
X100565000Y-66525714D01*
X100450714Y-66411428D01*
X100393571Y-66182857D01*
X100393571Y-65782857D01*
X100450714Y-65554285D01*
X100565000Y-65440000D01*
X100679285Y-65382857D01*
X101650714Y-66525714D02*
X101822142Y-66582857D01*
X102107857Y-66582857D01*
X102222142Y-66525714D01*
X102279285Y-66468571D01*
X102336428Y-66354285D01*
X102336428Y-66240000D01*
X102279285Y-66125714D01*
X102222142Y-66068571D01*
X102107857Y-66011428D01*
X101879285Y-65954285D01*
X101765000Y-65897142D01*
X101707857Y-65840000D01*
X101650714Y-65725714D01*
X101650714Y-65611428D01*
X101707857Y-65497142D01*
X101765000Y-65440000D01*
X101879285Y-65382857D01*
X102165000Y-65382857D01*
X102336428Y-65440000D01*
X102850714Y-66582857D02*
X102850714Y-65382857D01*
X100250714Y-63928571D02*
X100193571Y-63985714D01*
X100022142Y-64042857D01*
X99907857Y-64042857D01*
X99736428Y-63985714D01*
X99622142Y-63871428D01*
X99565000Y-63757142D01*
X99507857Y-63528571D01*
X99507857Y-63357142D01*
X99565000Y-63128571D01*
X99622142Y-63014285D01*
X99736428Y-62900000D01*
X99907857Y-62842857D01*
X100022142Y-62842857D01*
X100193571Y-62900000D01*
X100250714Y-62957142D01*
X101336428Y-64042857D02*
X100765000Y-64042857D01*
X100765000Y-62842857D01*
X101736428Y-64042857D02*
X101736428Y-62842857D01*
X102422142Y-64042857D02*
X101907857Y-63357142D01*
X102422142Y-62842857D02*
X101736428Y-63528571D01*
X97930000Y-61045714D02*
X98844285Y-61045714D01*
X98387142Y-61502857D02*
X98387142Y-60588571D01*
X99301428Y-60302857D02*
X100044285Y-60302857D01*
X99644285Y-60760000D01*
X99815714Y-60760000D01*
X99930000Y-60817142D01*
X99987142Y-60874285D01*
X100044285Y-60988571D01*
X100044285Y-61274285D01*
X99987142Y-61388571D01*
X99930000Y-61445714D01*
X99815714Y-61502857D01*
X99472857Y-61502857D01*
X99358571Y-61445714D01*
X99301428Y-61388571D01*
X100558571Y-61388571D02*
X100615714Y-61445714D01*
X100558571Y-61502857D01*
X100501428Y-61445714D01*
X100558571Y-61388571D01*
X100558571Y-61502857D01*
X101015714Y-60302857D02*
X101758571Y-60302857D01*
X101358571Y-60760000D01*
X101530000Y-60760000D01*
X101644285Y-60817142D01*
X101701428Y-60874285D01*
X101758571Y-60988571D01*
X101758571Y-61274285D01*
X101701428Y-61388571D01*
X101644285Y-61445714D01*
X101530000Y-61502857D01*
X101187142Y-61502857D01*
X101072857Y-61445714D01*
X101015714Y-61388571D01*
X102101428Y-60302857D02*
X102501428Y-61502857D01*
X102901428Y-60302857D01*
X100050714Y-73060000D02*
X99936428Y-73002857D01*
X99765000Y-73002857D01*
X99593571Y-73060000D01*
X99479285Y-73174285D01*
X99422142Y-73288571D01*
X99365000Y-73517142D01*
X99365000Y-73688571D01*
X99422142Y-73917142D01*
X99479285Y-74031428D01*
X99593571Y-74145714D01*
X99765000Y-74202857D01*
X99879285Y-74202857D01*
X100050714Y-74145714D01*
X100107857Y-74088571D01*
X100107857Y-73688571D01*
X99879285Y-73688571D01*
X100622142Y-74202857D02*
X100622142Y-73002857D01*
X101307857Y-74202857D01*
X101307857Y-73002857D01*
X101879285Y-74202857D02*
X101879285Y-73002857D01*
X102165000Y-73002857D01*
X102336428Y-73060000D01*
X102450714Y-73174285D01*
X102507857Y-73288571D01*
X102565000Y-73517142D01*
X102565000Y-73688571D01*
X102507857Y-73917142D01*
X102450714Y-74031428D01*
X102336428Y-74145714D01*
X102165000Y-74202857D01*
X101879285Y-74202857D01*
X100050714Y-53375000D02*
X99936428Y-53317857D01*
X99765000Y-53317857D01*
X99593571Y-53375000D01*
X99479285Y-53489285D01*
X99422142Y-53603571D01*
X99365000Y-53832142D01*
X99365000Y-54003571D01*
X99422142Y-54232142D01*
X99479285Y-54346428D01*
X99593571Y-54460714D01*
X99765000Y-54517857D01*
X99879285Y-54517857D01*
X100050714Y-54460714D01*
X100107857Y-54403571D01*
X100107857Y-54003571D01*
X99879285Y-54003571D01*
X100622142Y-54517857D02*
X100622142Y-53317857D01*
X101307857Y-54517857D01*
X101307857Y-53317857D01*
X101879285Y-54517857D02*
X101879285Y-53317857D01*
X102165000Y-53317857D01*
X102336428Y-53375000D01*
X102450714Y-53489285D01*
X102507857Y-53603571D01*
X102565000Y-53832142D01*
X102565000Y-54003571D01*
X102507857Y-54232142D01*
X102450714Y-54346428D01*
X102336428Y-54460714D01*
X102165000Y-54517857D01*
X101879285Y-54517857D01*
X98565000Y-46440714D02*
X99479285Y-46440714D01*
X99022142Y-46897857D02*
X99022142Y-45983571D01*
X99936428Y-45697857D02*
X100679285Y-45697857D01*
X100279285Y-46155000D01*
X100450714Y-46155000D01*
X100565000Y-46212142D01*
X100622142Y-46269285D01*
X100679285Y-46383571D01*
X100679285Y-46669285D01*
X100622142Y-46783571D01*
X100565000Y-46840714D01*
X100450714Y-46897857D01*
X100107857Y-46897857D01*
X99993571Y-46840714D01*
X99936428Y-46783571D01*
X101193571Y-46783571D02*
X101250714Y-46840714D01*
X101193571Y-46897857D01*
X101136428Y-46840714D01*
X101193571Y-46783571D01*
X101193571Y-46897857D01*
X101650714Y-45697857D02*
X102393571Y-45697857D01*
X101993571Y-46155000D01*
X102165000Y-46155000D01*
X102279285Y-46212142D01*
X102336428Y-46269285D01*
X102393571Y-46383571D01*
X102393571Y-46669285D01*
X102336428Y-46783571D01*
X102279285Y-46840714D01*
X102165000Y-46897857D01*
X101822142Y-46897857D01*
X101707857Y-46840714D01*
X101650714Y-46783571D01*
X102736428Y-45697857D02*
X103136428Y-46897857D01*
X103536428Y-45697857D01*
X99536428Y-51920714D02*
X99707857Y-51977857D01*
X99993571Y-51977857D01*
X100107857Y-51920714D01*
X100165000Y-51863571D01*
X100222142Y-51749285D01*
X100222142Y-51635000D01*
X100165000Y-51520714D01*
X100107857Y-51463571D01*
X99993571Y-51406428D01*
X99765000Y-51349285D01*
X99650714Y-51292142D01*
X99593571Y-51235000D01*
X99536428Y-51120714D01*
X99536428Y-51006428D01*
X99593571Y-50892142D01*
X99650714Y-50835000D01*
X99765000Y-50777857D01*
X100050714Y-50777857D01*
X100222142Y-50835000D01*
X101422142Y-51863571D02*
X101365000Y-51920714D01*
X101193571Y-51977857D01*
X101079285Y-51977857D01*
X100907857Y-51920714D01*
X100793571Y-51806428D01*
X100736428Y-51692142D01*
X100679285Y-51463571D01*
X100679285Y-51292142D01*
X100736428Y-51063571D01*
X100793571Y-50949285D01*
X100907857Y-50835000D01*
X101079285Y-50777857D01*
X101193571Y-50777857D01*
X101365000Y-50835000D01*
X101422142Y-50892142D01*
X102507857Y-51977857D02*
X101936428Y-51977857D01*
X101936428Y-50777857D01*
X99507857Y-49380714D02*
X99679285Y-49437857D01*
X99965000Y-49437857D01*
X100079285Y-49380714D01*
X100136428Y-49323571D01*
X100193571Y-49209285D01*
X100193571Y-49095000D01*
X100136428Y-48980714D01*
X100079285Y-48923571D01*
X99965000Y-48866428D01*
X99736428Y-48809285D01*
X99622142Y-48752142D01*
X99565000Y-48695000D01*
X99507857Y-48580714D01*
X99507857Y-48466428D01*
X99565000Y-48352142D01*
X99622142Y-48295000D01*
X99736428Y-48237857D01*
X100022142Y-48237857D01*
X100193571Y-48295000D01*
X100707857Y-49437857D02*
X100707857Y-48237857D01*
X100993571Y-48237857D01*
X101165000Y-48295000D01*
X101279285Y-48409285D01*
X101336428Y-48523571D01*
X101393571Y-48752142D01*
X101393571Y-48923571D01*
X101336428Y-49152142D01*
X101279285Y-49266428D01*
X101165000Y-49380714D01*
X100993571Y-49437857D01*
X100707857Y-49437857D01*
X101850714Y-49095000D02*
X102422142Y-49095000D01*
X101736428Y-49437857D02*
X102136428Y-48237857D01*
X102536428Y-49437857D01*
X75285714Y-53375000D02*
X75171428Y-53317857D01*
X75000000Y-53317857D01*
X74828571Y-53375000D01*
X74714285Y-53489285D01*
X74657142Y-53603571D01*
X74600000Y-53832142D01*
X74600000Y-54003571D01*
X74657142Y-54232142D01*
X74714285Y-54346428D01*
X74828571Y-54460714D01*
X75000000Y-54517857D01*
X75114285Y-54517857D01*
X75285714Y-54460714D01*
X75342857Y-54403571D01*
X75342857Y-54003571D01*
X75114285Y-54003571D01*
X75857142Y-54517857D02*
X75857142Y-53317857D01*
X76542857Y-54517857D01*
X76542857Y-53317857D01*
X77114285Y-54517857D02*
X77114285Y-53317857D01*
X77400000Y-53317857D01*
X77571428Y-53375000D01*
X77685714Y-53489285D01*
X77742857Y-53603571D01*
X77800000Y-53832142D01*
X77800000Y-54003571D01*
X77742857Y-54232142D01*
X77685714Y-54346428D01*
X77571428Y-54460714D01*
X77400000Y-54517857D01*
X77114285Y-54517857D01*
X74771428Y-51920714D02*
X74942857Y-51977857D01*
X75228571Y-51977857D01*
X75342857Y-51920714D01*
X75400000Y-51863571D01*
X75457142Y-51749285D01*
X75457142Y-51635000D01*
X75400000Y-51520714D01*
X75342857Y-51463571D01*
X75228571Y-51406428D01*
X75000000Y-51349285D01*
X74885714Y-51292142D01*
X74828571Y-51235000D01*
X74771428Y-51120714D01*
X74771428Y-51006428D01*
X74828571Y-50892142D01*
X74885714Y-50835000D01*
X75000000Y-50777857D01*
X75285714Y-50777857D01*
X75457142Y-50835000D01*
X76657142Y-51863571D02*
X76600000Y-51920714D01*
X76428571Y-51977857D01*
X76314285Y-51977857D01*
X76142857Y-51920714D01*
X76028571Y-51806428D01*
X75971428Y-51692142D01*
X75914285Y-51463571D01*
X75914285Y-51292142D01*
X75971428Y-51063571D01*
X76028571Y-50949285D01*
X76142857Y-50835000D01*
X76314285Y-50777857D01*
X76428571Y-50777857D01*
X76600000Y-50835000D01*
X76657142Y-50892142D01*
X77742857Y-51977857D02*
X77171428Y-51977857D01*
X77171428Y-50777857D01*
X74742857Y-49380714D02*
X74914285Y-49437857D01*
X75200000Y-49437857D01*
X75314285Y-49380714D01*
X75371428Y-49323571D01*
X75428571Y-49209285D01*
X75428571Y-49095000D01*
X75371428Y-48980714D01*
X75314285Y-48923571D01*
X75200000Y-48866428D01*
X74971428Y-48809285D01*
X74857142Y-48752142D01*
X74800000Y-48695000D01*
X74742857Y-48580714D01*
X74742857Y-48466428D01*
X74800000Y-48352142D01*
X74857142Y-48295000D01*
X74971428Y-48237857D01*
X75257142Y-48237857D01*
X75428571Y-48295000D01*
X75942857Y-49437857D02*
X75942857Y-48237857D01*
X76228571Y-48237857D01*
X76400000Y-48295000D01*
X76514285Y-48409285D01*
X76571428Y-48523571D01*
X76628571Y-48752142D01*
X76628571Y-48923571D01*
X76571428Y-49152142D01*
X76514285Y-49266428D01*
X76400000Y-49380714D01*
X76228571Y-49437857D01*
X75942857Y-49437857D01*
X77085714Y-49095000D02*
X77657142Y-49095000D01*
X76971428Y-49437857D02*
X77371428Y-48237857D01*
X77771428Y-49437857D01*
X73800000Y-46440714D02*
X74714285Y-46440714D01*
X74257142Y-46897857D02*
X74257142Y-45983571D01*
X75171428Y-45697857D02*
X75914285Y-45697857D01*
X75514285Y-46155000D01*
X75685714Y-46155000D01*
X75800000Y-46212142D01*
X75857142Y-46269285D01*
X75914285Y-46383571D01*
X75914285Y-46669285D01*
X75857142Y-46783571D01*
X75800000Y-46840714D01*
X75685714Y-46897857D01*
X75342857Y-46897857D01*
X75228571Y-46840714D01*
X75171428Y-46783571D01*
X76428571Y-46783571D02*
X76485714Y-46840714D01*
X76428571Y-46897857D01*
X76371428Y-46840714D01*
X76428571Y-46783571D01*
X76428571Y-46897857D01*
X76885714Y-45697857D02*
X77628571Y-45697857D01*
X77228571Y-46155000D01*
X77400000Y-46155000D01*
X77514285Y-46212142D01*
X77571428Y-46269285D01*
X77628571Y-46383571D01*
X77628571Y-46669285D01*
X77571428Y-46783571D01*
X77514285Y-46840714D01*
X77400000Y-46897857D01*
X77057142Y-46897857D01*
X76942857Y-46840714D01*
X76885714Y-46783571D01*
X77971428Y-45697857D02*
X78371428Y-46897857D01*
X78771428Y-45697857D01*
D14*
G04 #@! TO.C,U2*
X153670000Y-77089000D02*
X153670000Y-75057000D01*
X148590000Y-77089000D02*
X148590000Y-75057000D01*
X156860000Y-100260000D02*
X156860000Y-98260000D01*
X142860000Y-100260000D02*
X142860000Y-98260000D01*
X142860000Y-98260000D02*
X156860000Y-98260000D01*
X156860000Y-100260000D02*
X163510000Y-100260000D01*
X136210000Y-72460000D02*
X136210000Y-100260000D01*
X136210000Y-100260000D02*
X142860000Y-100260000D01*
X163510000Y-72460000D02*
X163510000Y-100260000D01*
X136210000Y-72460000D02*
X163510000Y-72460000D01*
D15*
G04 #@! TO.C,C1*
X136774000Y-26512759D02*
X136144000Y-26512759D01*
X136459000Y-26197759D02*
X136459000Y-26827759D01*
X135022000Y-32939000D02*
X134218000Y-32939000D01*
X135253000Y-32899000D02*
X133987000Y-32899000D01*
X135422000Y-32859000D02*
X133818000Y-32859000D01*
X135560000Y-32819000D02*
X133680000Y-32819000D01*
X135679000Y-32779000D02*
X133561000Y-32779000D01*
X135785000Y-32739000D02*
X133455000Y-32739000D01*
X135882000Y-32699000D02*
X133358000Y-32699000D01*
X135970000Y-32659000D02*
X133270000Y-32659000D01*
X136052000Y-32619000D02*
X133188000Y-32619000D01*
X136129000Y-32579000D02*
X133111000Y-32579000D01*
X136201000Y-32539000D02*
X133039000Y-32539000D01*
X136270000Y-32499000D02*
X132970000Y-32499000D01*
X136334000Y-32459000D02*
X132906000Y-32459000D01*
X136396000Y-32419000D02*
X132844000Y-32419000D01*
X136454000Y-32379000D02*
X132786000Y-32379000D01*
X136510000Y-32339000D02*
X132730000Y-32339000D01*
X136564000Y-32299000D02*
X132676000Y-32299000D01*
X136615000Y-32259000D02*
X132625000Y-32259000D01*
X136664000Y-32219000D02*
X132576000Y-32219000D01*
X136712000Y-32179000D02*
X132528000Y-32179000D01*
X136757000Y-32139000D02*
X132483000Y-32139000D01*
X136802000Y-32099000D02*
X132438000Y-32099000D01*
X136844000Y-32059000D02*
X132396000Y-32059000D01*
X136885000Y-32019000D02*
X132355000Y-32019000D01*
X133580000Y-31979000D02*
X132315000Y-31979000D01*
X136925000Y-31979000D02*
X135660000Y-31979000D01*
X133580000Y-31939000D02*
X132277000Y-31939000D01*
X136963000Y-31939000D02*
X135660000Y-31939000D01*
X133580000Y-31899000D02*
X132240000Y-31899000D01*
X137000000Y-31899000D02*
X135660000Y-31899000D01*
X133580000Y-31859000D02*
X132204000Y-31859000D01*
X137036000Y-31859000D02*
X135660000Y-31859000D01*
X133580000Y-31819000D02*
X132170000Y-31819000D01*
X137070000Y-31819000D02*
X135660000Y-31819000D01*
X133580000Y-31779000D02*
X132136000Y-31779000D01*
X137104000Y-31779000D02*
X135660000Y-31779000D01*
X133580000Y-31739000D02*
X132104000Y-31739000D01*
X137136000Y-31739000D02*
X135660000Y-31739000D01*
X133580000Y-31699000D02*
X132072000Y-31699000D01*
X137168000Y-31699000D02*
X135660000Y-31699000D01*
X133580000Y-31659000D02*
X132042000Y-31659000D01*
X137198000Y-31659000D02*
X135660000Y-31659000D01*
X133580000Y-31619000D02*
X132013000Y-31619000D01*
X137227000Y-31619000D02*
X135660000Y-31619000D01*
X133580000Y-31579000D02*
X131984000Y-31579000D01*
X137256000Y-31579000D02*
X135660000Y-31579000D01*
X133580000Y-31539000D02*
X131956000Y-31539000D01*
X137284000Y-31539000D02*
X135660000Y-31539000D01*
X133580000Y-31499000D02*
X131930000Y-31499000D01*
X137310000Y-31499000D02*
X135660000Y-31499000D01*
X133580000Y-31459000D02*
X131904000Y-31459000D01*
X137336000Y-31459000D02*
X135660000Y-31459000D01*
X133580000Y-31419000D02*
X131878000Y-31419000D01*
X137362000Y-31419000D02*
X135660000Y-31419000D01*
X133580000Y-31379000D02*
X131854000Y-31379000D01*
X137386000Y-31379000D02*
X135660000Y-31379000D01*
X133580000Y-31339000D02*
X131830000Y-31339000D01*
X137410000Y-31339000D02*
X135660000Y-31339000D01*
X133580000Y-31299000D02*
X131808000Y-31299000D01*
X137432000Y-31299000D02*
X135660000Y-31299000D01*
X133580000Y-31259000D02*
X131786000Y-31259000D01*
X137454000Y-31259000D02*
X135660000Y-31259000D01*
X133580000Y-31219000D02*
X131764000Y-31219000D01*
X137476000Y-31219000D02*
X135660000Y-31219000D01*
X133580000Y-31179000D02*
X131744000Y-31179000D01*
X137496000Y-31179000D02*
X135660000Y-31179000D01*
X133580000Y-31139000D02*
X131724000Y-31139000D01*
X137516000Y-31139000D02*
X135660000Y-31139000D01*
X133580000Y-31099000D02*
X131704000Y-31099000D01*
X137536000Y-31099000D02*
X135660000Y-31099000D01*
X133580000Y-31059000D02*
X131686000Y-31059000D01*
X137554000Y-31059000D02*
X135660000Y-31059000D01*
X133580000Y-31019000D02*
X131668000Y-31019000D01*
X137572000Y-31019000D02*
X135660000Y-31019000D01*
X133580000Y-30979000D02*
X131650000Y-30979000D01*
X137590000Y-30979000D02*
X135660000Y-30979000D01*
X133580000Y-30939000D02*
X131634000Y-30939000D01*
X137606000Y-30939000D02*
X135660000Y-30939000D01*
X133580000Y-30899000D02*
X131618000Y-30899000D01*
X137622000Y-30899000D02*
X135660000Y-30899000D01*
X133580000Y-30859000D02*
X131602000Y-30859000D01*
X137638000Y-30859000D02*
X135660000Y-30859000D01*
X133580000Y-30819000D02*
X131587000Y-30819000D01*
X137653000Y-30819000D02*
X135660000Y-30819000D01*
X133580000Y-30779000D02*
X131573000Y-30779000D01*
X137667000Y-30779000D02*
X135660000Y-30779000D01*
X133580000Y-30739000D02*
X131559000Y-30739000D01*
X137681000Y-30739000D02*
X135660000Y-30739000D01*
X133580000Y-30699000D02*
X131546000Y-30699000D01*
X137694000Y-30699000D02*
X135660000Y-30699000D01*
X133580000Y-30659000D02*
X131534000Y-30659000D01*
X137706000Y-30659000D02*
X135660000Y-30659000D01*
X133580000Y-30619000D02*
X131522000Y-30619000D01*
X137718000Y-30619000D02*
X135660000Y-30619000D01*
X133580000Y-30579000D02*
X131510000Y-30579000D01*
X137730000Y-30579000D02*
X135660000Y-30579000D01*
X133580000Y-30539000D02*
X131499000Y-30539000D01*
X137741000Y-30539000D02*
X135660000Y-30539000D01*
X133580000Y-30499000D02*
X131489000Y-30499000D01*
X137751000Y-30499000D02*
X135660000Y-30499000D01*
X133580000Y-30459000D02*
X131479000Y-30459000D01*
X137761000Y-30459000D02*
X135660000Y-30459000D01*
X133580000Y-30419000D02*
X131470000Y-30419000D01*
X137770000Y-30419000D02*
X135660000Y-30419000D01*
X133580000Y-30378000D02*
X131461000Y-30378000D01*
X137779000Y-30378000D02*
X135660000Y-30378000D01*
X133580000Y-30338000D02*
X131453000Y-30338000D01*
X137787000Y-30338000D02*
X135660000Y-30338000D01*
X133580000Y-30298000D02*
X131445000Y-30298000D01*
X137795000Y-30298000D02*
X135660000Y-30298000D01*
X133580000Y-30258000D02*
X131438000Y-30258000D01*
X137802000Y-30258000D02*
X135660000Y-30258000D01*
X133580000Y-30218000D02*
X131431000Y-30218000D01*
X137809000Y-30218000D02*
X135660000Y-30218000D01*
X133580000Y-30178000D02*
X131425000Y-30178000D01*
X137815000Y-30178000D02*
X135660000Y-30178000D01*
X133580000Y-30138000D02*
X131419000Y-30138000D01*
X137821000Y-30138000D02*
X135660000Y-30138000D01*
X133580000Y-30098000D02*
X131414000Y-30098000D01*
X137826000Y-30098000D02*
X135660000Y-30098000D01*
X133580000Y-30058000D02*
X131409000Y-30058000D01*
X137831000Y-30058000D02*
X135660000Y-30058000D01*
X133580000Y-30018000D02*
X131405000Y-30018000D01*
X137835000Y-30018000D02*
X135660000Y-30018000D01*
X133580000Y-29978000D02*
X131402000Y-29978000D01*
X137838000Y-29978000D02*
X135660000Y-29978000D01*
X133580000Y-29938000D02*
X131398000Y-29938000D01*
X137842000Y-29938000D02*
X135660000Y-29938000D01*
X137844000Y-29898000D02*
X131396000Y-29898000D01*
X137847000Y-29858000D02*
X131393000Y-29858000D01*
X137848000Y-29818000D02*
X131392000Y-29818000D01*
X137850000Y-29778000D02*
X131390000Y-29778000D01*
X137850000Y-29738000D02*
X131390000Y-29738000D01*
X137850000Y-29698000D02*
X131390000Y-29698000D01*
X137890000Y-29698000D02*
G75*
G03X137890000Y-29698000I-3270000J0D01*
G01*
G04 #@! TO.C,J1*
X99602600Y-35950200D02*
X99602600Y-33290200D01*
X97002600Y-35950200D02*
X99602600Y-35950200D01*
X97002600Y-33290200D02*
X99602600Y-33290200D01*
X97002600Y-35950200D02*
X97002600Y-33290200D01*
X95732600Y-35950200D02*
X94402600Y-35950200D01*
X94402600Y-35950200D02*
X94402600Y-34620200D01*
G04 #@! TO.C,J2*
X128812600Y-90992000D02*
X128812600Y-88332000D01*
X121132600Y-90992000D02*
X128812600Y-90992000D01*
X121132600Y-88332000D02*
X128812600Y-88332000D01*
X121132600Y-90992000D02*
X121132600Y-88332000D01*
X119862600Y-90992000D02*
X118532600Y-90992000D01*
X118532600Y-90992000D02*
X118532600Y-89662000D01*
G04 #@! TO.C,J3*
X165040000Y-35500000D02*
X166370000Y-35500000D01*
X165040000Y-36830000D02*
X165040000Y-35500000D01*
X165040000Y-38100000D02*
X167700000Y-38100000D01*
X167700000Y-38100000D02*
X167700000Y-43240000D01*
X165040000Y-38100000D02*
X165040000Y-43240000D01*
X165040000Y-43240000D02*
X167700000Y-43240000D01*
G04 #@! TO.C,J4*
X157420000Y-43240000D02*
X160080000Y-43240000D01*
X157420000Y-38100000D02*
X157420000Y-43240000D01*
X160080000Y-38100000D02*
X160080000Y-43240000D01*
X157420000Y-38100000D02*
X160080000Y-38100000D01*
X157420000Y-36830000D02*
X157420000Y-35500000D01*
X157420000Y-35500000D02*
X158750000Y-35500000D01*
G04 #@! TO.C,R1*
X98706148Y-29160400D02*
X99228652Y-29160400D01*
X98706148Y-30580400D02*
X99228652Y-30580400D01*
G04 #@! TO.C,U1*
X118829000Y-77062000D02*
X119229000Y-77062000D01*
X116229000Y-77062000D02*
X116629000Y-77062000D01*
X128229000Y-77062000D02*
X121429000Y-77062000D01*
X128229000Y-66662000D02*
X128229000Y-67062000D01*
X128229000Y-58962000D02*
X128229000Y-59362000D01*
X128229000Y-33562000D02*
X128229000Y-33962000D01*
X128229000Y-26062000D02*
X128229000Y-26362000D01*
X128229000Y-48862000D02*
X128229000Y-49262000D01*
X128229000Y-64062000D02*
X128229000Y-64462000D01*
X128229000Y-43762000D02*
X128229000Y-44162000D01*
X128229000Y-38662000D02*
X128229000Y-39062000D01*
X128229000Y-51362000D02*
X128229000Y-51762000D01*
X128229000Y-56462000D02*
X128229000Y-56862000D01*
X128229000Y-71662000D02*
X128229000Y-72062000D01*
X128229000Y-74262000D02*
X128229000Y-74662000D01*
X128229000Y-69162000D02*
X128229000Y-69562000D01*
X128229000Y-36162000D02*
X128229000Y-36562000D01*
X128229000Y-28462000D02*
X128229000Y-28862000D01*
X128229000Y-31062000D02*
X128229000Y-31462000D01*
X128229000Y-61562000D02*
X128229000Y-61962000D01*
X128229000Y-53862000D02*
X128229000Y-54262000D01*
X128229000Y-46262000D02*
X128229000Y-46662000D01*
X128229000Y-41162000D02*
X128229000Y-41562000D01*
X107229000Y-74262000D02*
X107229000Y-74662000D01*
X107229000Y-71662000D02*
X107229000Y-72062000D01*
X107229000Y-69162000D02*
X107229000Y-69562000D01*
X107229000Y-66662000D02*
X107229000Y-67062000D01*
X107229000Y-64062000D02*
X107229000Y-64462000D01*
X107229000Y-61562000D02*
X107229000Y-61962000D01*
X107229000Y-58962000D02*
X107229000Y-59362000D01*
X107229000Y-56462000D02*
X107229000Y-56862000D01*
X107229000Y-53862000D02*
X107229000Y-54262000D01*
X107229000Y-51362000D02*
X107229000Y-51762000D01*
X107229000Y-48862000D02*
X107229000Y-49262000D01*
X107229000Y-46262000D02*
X107229000Y-46662000D01*
X107229000Y-43762000D02*
X107229000Y-44162000D01*
X107229000Y-41162000D02*
X107229000Y-41562000D01*
X107229000Y-38662000D02*
X107229000Y-39062000D01*
X107229000Y-36162000D02*
X107229000Y-36562000D01*
X107229000Y-33562000D02*
X107229000Y-33962000D01*
X107229000Y-31062000D02*
X107229000Y-31462000D01*
X107229000Y-28462000D02*
X107229000Y-28862000D01*
X107229000Y-26062000D02*
X107229000Y-26362000D01*
X110236000Y-28729000D02*
X110236000Y-26062000D01*
X107229000Y-28729000D02*
X110236000Y-28729000D01*
X114029000Y-77062000D02*
X107229000Y-77062000D01*
X107229000Y-26062000D02*
X128229000Y-26062000D01*
G04 #@! TO.C,J5*
X97850000Y-44898000D02*
X95190000Y-44898000D01*
X97850000Y-52578000D02*
X97850000Y-44898000D01*
X95190000Y-52578000D02*
X95190000Y-44898000D01*
X97850000Y-52578000D02*
X95190000Y-52578000D01*
X97850000Y-53848000D02*
X97850000Y-55178000D01*
X97850000Y-55178000D02*
X96520000Y-55178000D01*
G04 #@! TO.C,J6*
X90230000Y-55178000D02*
X88900000Y-55178000D01*
X90230000Y-53848000D02*
X90230000Y-55178000D01*
X90230000Y-52578000D02*
X87570000Y-52578000D01*
X87570000Y-52578000D02*
X87570000Y-44898000D01*
X90230000Y-52578000D02*
X90230000Y-44898000D01*
X90230000Y-44898000D02*
X87570000Y-44898000D01*
G04 #@! TO.C,J7*
X82610000Y-44898000D02*
X79950000Y-44898000D01*
X82610000Y-52578000D02*
X82610000Y-44898000D01*
X79950000Y-52578000D02*
X79950000Y-44898000D01*
X82610000Y-52578000D02*
X79950000Y-52578000D01*
X82610000Y-53848000D02*
X82610000Y-55178000D01*
X82610000Y-55178000D02*
X81280000Y-55178000D01*
G04 #@! TO.C,J8*
X87690000Y-29150000D02*
X85030000Y-29150000D01*
X87690000Y-34290000D02*
X87690000Y-29150000D01*
X85030000Y-34290000D02*
X85030000Y-29150000D01*
X87690000Y-34290000D02*
X85030000Y-34290000D01*
X87690000Y-35560000D02*
X87690000Y-36890000D01*
X87690000Y-36890000D02*
X86360000Y-36890000D01*
G04 #@! TO.C,J9*
X161350000Y-50740000D02*
X158690000Y-50740000D01*
X161350000Y-63500000D02*
X161350000Y-50740000D01*
X158690000Y-63500000D02*
X158690000Y-50740000D01*
X161350000Y-63500000D02*
X158690000Y-63500000D01*
X161350000Y-64770000D02*
X161350000Y-66100000D01*
X161350000Y-66100000D02*
X160020000Y-66100000D01*
G04 #@! TO.C,J10*
X151190000Y-50740000D02*
X148530000Y-50740000D01*
X151190000Y-63500000D02*
X151190000Y-50740000D01*
X148530000Y-63500000D02*
X148530000Y-50740000D01*
X151190000Y-63500000D02*
X148530000Y-63500000D01*
X151190000Y-64770000D02*
X151190000Y-66100000D01*
X151190000Y-66100000D02*
X149860000Y-66100000D01*
G04 #@! TO.C,J11*
X138370000Y-35500000D02*
X138370000Y-38160000D01*
X148590000Y-35500000D02*
X138370000Y-35500000D01*
X148590000Y-38160000D02*
X138370000Y-38160000D01*
X148590000Y-35500000D02*
X148590000Y-38160000D01*
X149860000Y-35500000D02*
X151190000Y-35500000D01*
X151190000Y-35500000D02*
X151190000Y-36830000D01*
G04 #@! TO.C,J12*
X95190000Y-74990000D02*
X97850000Y-74990000D01*
X95190000Y-62230000D02*
X95190000Y-74990000D01*
X97850000Y-62230000D02*
X97850000Y-74990000D01*
X95190000Y-62230000D02*
X97850000Y-62230000D01*
X95190000Y-60960000D02*
X95190000Y-59630000D01*
X95190000Y-59630000D02*
X96520000Y-59630000D01*
G04 #@! TO.C,R2*
X91712148Y-85977800D02*
X92234652Y-85977800D01*
X91712148Y-84557800D02*
X92234652Y-84557800D01*
G04 #@! TO.C,R3*
X108136948Y-84634000D02*
X108659452Y-84634000D01*
X108136948Y-86054000D02*
X108659452Y-86054000D01*
G04 #@! TO.C,R4*
X99297748Y-39422000D02*
X99820252Y-39422000D01*
X99297748Y-40842000D02*
X99820252Y-40842000D01*
G04 #@! TO.C,J13*
X79950000Y-62170000D02*
X81280000Y-62170000D01*
X79950000Y-63500000D02*
X79950000Y-62170000D01*
X79950000Y-64770000D02*
X82610000Y-64770000D01*
X82610000Y-64770000D02*
X82610000Y-69910000D01*
X79950000Y-64770000D02*
X79950000Y-69910000D01*
X79950000Y-69910000D02*
X82610000Y-69910000D01*
G04 #@! TO.C,J14*
X149158000Y-29270000D02*
X149158000Y-26610000D01*
X144018000Y-29270000D02*
X149158000Y-29270000D01*
X144018000Y-26610000D02*
X149158000Y-26610000D01*
X144018000Y-29270000D02*
X144018000Y-26610000D01*
X142748000Y-29270000D02*
X141418000Y-29270000D01*
X141418000Y-29270000D02*
X141418000Y-27940000D01*
G04 #@! TO.C,J15*
X154880000Y-26610000D02*
X154880000Y-29270000D01*
X160020000Y-26610000D02*
X154880000Y-26610000D01*
X160020000Y-29270000D02*
X154880000Y-29270000D01*
X160020000Y-26610000D02*
X160020000Y-29270000D01*
X161290000Y-26610000D02*
X162620000Y-26610000D01*
X162620000Y-26610000D02*
X162620000Y-27940000D01*
G04 #@! TO.C,J16*
X87570000Y-69910000D02*
X90230000Y-69910000D01*
X87570000Y-64770000D02*
X87570000Y-69910000D01*
X90230000Y-64770000D02*
X90230000Y-69910000D01*
X87570000Y-64770000D02*
X90230000Y-64770000D01*
X87570000Y-63500000D02*
X87570000Y-62170000D01*
X87570000Y-62170000D02*
X88900000Y-62170000D01*
G04 #@! TO.C,J17*
X166310000Y-50740000D02*
X167640000Y-50740000D01*
X166310000Y-52070000D02*
X166310000Y-50740000D01*
X166310000Y-53340000D02*
X168970000Y-53340000D01*
X168970000Y-53340000D02*
X168970000Y-58480000D01*
X166310000Y-53340000D02*
X166310000Y-58480000D01*
X166310000Y-58480000D02*
X168970000Y-58480000D01*
G04 #@! TO.C,J18*
X82610000Y-76140000D02*
X79950000Y-76140000D01*
X82610000Y-81280000D02*
X82610000Y-76140000D01*
X79950000Y-81280000D02*
X79950000Y-76140000D01*
X82610000Y-81280000D02*
X79950000Y-81280000D01*
X82610000Y-82550000D02*
X82610000Y-83880000D01*
X82610000Y-83880000D02*
X81280000Y-83880000D01*
G04 #@! TO.C,D1*
X113403800Y-82322400D02*
X113403800Y-85622400D01*
X113403800Y-85622400D02*
X118803800Y-85622400D01*
X113403800Y-82322400D02*
X118803800Y-82322400D01*
G04 #@! TO.C,SW1*
X141974200Y-50104800D02*
X141974200Y-45604800D01*
X137974200Y-51354800D02*
X139474200Y-51354800D01*
X135474200Y-45604800D02*
X135474200Y-50104800D01*
X139474200Y-44354800D02*
X137974200Y-44354800D01*
G04 #@! TO.C,SW2*
X93110000Y-93805000D02*
X93110000Y-92305000D01*
X91860000Y-89805000D02*
X87360000Y-89805000D01*
X86110000Y-92305000D02*
X86110000Y-93805000D01*
X87360000Y-96305000D02*
X91860000Y-96305000D01*
G04 #@! TO.C,SW3*
X103870000Y-96305000D02*
X108370000Y-96305000D01*
X102620000Y-92305000D02*
X102620000Y-93805000D01*
X108370000Y-89805000D02*
X103870000Y-89805000D01*
X109620000Y-93805000D02*
X109620000Y-92305000D01*
G04 #@! TO.C,C2*
X171144000Y-69596000D02*
G75*
G03X171144000Y-69596000I-3270000J0D01*
G01*
X167874000Y-66366000D02*
X167874000Y-72826000D01*
X167914000Y-66366000D02*
X167914000Y-72826000D01*
X167954000Y-66366000D02*
X167954000Y-72826000D01*
X167994000Y-66368000D02*
X167994000Y-72824000D01*
X168034000Y-66369000D02*
X168034000Y-72823000D01*
X168074000Y-66372000D02*
X168074000Y-72820000D01*
X168114000Y-66374000D02*
X168114000Y-68556000D01*
X168114000Y-70636000D02*
X168114000Y-72818000D01*
X168154000Y-66378000D02*
X168154000Y-68556000D01*
X168154000Y-70636000D02*
X168154000Y-72814000D01*
X168194000Y-66381000D02*
X168194000Y-68556000D01*
X168194000Y-70636000D02*
X168194000Y-72811000D01*
X168234000Y-66385000D02*
X168234000Y-68556000D01*
X168234000Y-70636000D02*
X168234000Y-72807000D01*
X168274000Y-66390000D02*
X168274000Y-68556000D01*
X168274000Y-70636000D02*
X168274000Y-72802000D01*
X168314000Y-66395000D02*
X168314000Y-68556000D01*
X168314000Y-70636000D02*
X168314000Y-72797000D01*
X168354000Y-66401000D02*
X168354000Y-68556000D01*
X168354000Y-70636000D02*
X168354000Y-72791000D01*
X168394000Y-66407000D02*
X168394000Y-68556000D01*
X168394000Y-70636000D02*
X168394000Y-72785000D01*
X168434000Y-66414000D02*
X168434000Y-68556000D01*
X168434000Y-70636000D02*
X168434000Y-72778000D01*
X168474000Y-66421000D02*
X168474000Y-68556000D01*
X168474000Y-70636000D02*
X168474000Y-72771000D01*
X168514000Y-66429000D02*
X168514000Y-68556000D01*
X168514000Y-70636000D02*
X168514000Y-72763000D01*
X168554000Y-66437000D02*
X168554000Y-68556000D01*
X168554000Y-70636000D02*
X168554000Y-72755000D01*
X168595000Y-66446000D02*
X168595000Y-68556000D01*
X168595000Y-70636000D02*
X168595000Y-72746000D01*
X168635000Y-66455000D02*
X168635000Y-68556000D01*
X168635000Y-70636000D02*
X168635000Y-72737000D01*
X168675000Y-66465000D02*
X168675000Y-68556000D01*
X168675000Y-70636000D02*
X168675000Y-72727000D01*
X168715000Y-66475000D02*
X168715000Y-68556000D01*
X168715000Y-70636000D02*
X168715000Y-72717000D01*
X168755000Y-66486000D02*
X168755000Y-68556000D01*
X168755000Y-70636000D02*
X168755000Y-72706000D01*
X168795000Y-66498000D02*
X168795000Y-68556000D01*
X168795000Y-70636000D02*
X168795000Y-72694000D01*
X168835000Y-66510000D02*
X168835000Y-68556000D01*
X168835000Y-70636000D02*
X168835000Y-72682000D01*
X168875000Y-66522000D02*
X168875000Y-68556000D01*
X168875000Y-70636000D02*
X168875000Y-72670000D01*
X168915000Y-66535000D02*
X168915000Y-68556000D01*
X168915000Y-70636000D02*
X168915000Y-72657000D01*
X168955000Y-66549000D02*
X168955000Y-68556000D01*
X168955000Y-70636000D02*
X168955000Y-72643000D01*
X168995000Y-66563000D02*
X168995000Y-68556000D01*
X168995000Y-70636000D02*
X168995000Y-72629000D01*
X169035000Y-66578000D02*
X169035000Y-68556000D01*
X169035000Y-70636000D02*
X169035000Y-72614000D01*
X169075000Y-66594000D02*
X169075000Y-68556000D01*
X169075000Y-70636000D02*
X169075000Y-72598000D01*
X169115000Y-66610000D02*
X169115000Y-68556000D01*
X169115000Y-70636000D02*
X169115000Y-72582000D01*
X169155000Y-66626000D02*
X169155000Y-68556000D01*
X169155000Y-70636000D02*
X169155000Y-72566000D01*
X169195000Y-66644000D02*
X169195000Y-68556000D01*
X169195000Y-70636000D02*
X169195000Y-72548000D01*
X169235000Y-66662000D02*
X169235000Y-68556000D01*
X169235000Y-70636000D02*
X169235000Y-72530000D01*
X169275000Y-66680000D02*
X169275000Y-68556000D01*
X169275000Y-70636000D02*
X169275000Y-72512000D01*
X169315000Y-66700000D02*
X169315000Y-68556000D01*
X169315000Y-70636000D02*
X169315000Y-72492000D01*
X169355000Y-66720000D02*
X169355000Y-68556000D01*
X169355000Y-70636000D02*
X169355000Y-72472000D01*
X169395000Y-66740000D02*
X169395000Y-68556000D01*
X169395000Y-70636000D02*
X169395000Y-72452000D01*
X169435000Y-66762000D02*
X169435000Y-68556000D01*
X169435000Y-70636000D02*
X169435000Y-72430000D01*
X169475000Y-66784000D02*
X169475000Y-68556000D01*
X169475000Y-70636000D02*
X169475000Y-72408000D01*
X169515000Y-66806000D02*
X169515000Y-68556000D01*
X169515000Y-70636000D02*
X169515000Y-72386000D01*
X169555000Y-66830000D02*
X169555000Y-68556000D01*
X169555000Y-70636000D02*
X169555000Y-72362000D01*
X169595000Y-66854000D02*
X169595000Y-68556000D01*
X169595000Y-70636000D02*
X169595000Y-72338000D01*
X169635000Y-66880000D02*
X169635000Y-68556000D01*
X169635000Y-70636000D02*
X169635000Y-72312000D01*
X169675000Y-66906000D02*
X169675000Y-68556000D01*
X169675000Y-70636000D02*
X169675000Y-72286000D01*
X169715000Y-66932000D02*
X169715000Y-68556000D01*
X169715000Y-70636000D02*
X169715000Y-72260000D01*
X169755000Y-66960000D02*
X169755000Y-68556000D01*
X169755000Y-70636000D02*
X169755000Y-72232000D01*
X169795000Y-66989000D02*
X169795000Y-68556000D01*
X169795000Y-70636000D02*
X169795000Y-72203000D01*
X169835000Y-67018000D02*
X169835000Y-68556000D01*
X169835000Y-70636000D02*
X169835000Y-72174000D01*
X169875000Y-67048000D02*
X169875000Y-68556000D01*
X169875000Y-70636000D02*
X169875000Y-72144000D01*
X169915000Y-67080000D02*
X169915000Y-68556000D01*
X169915000Y-70636000D02*
X169915000Y-72112000D01*
X169955000Y-67112000D02*
X169955000Y-68556000D01*
X169955000Y-70636000D02*
X169955000Y-72080000D01*
X169995000Y-67146000D02*
X169995000Y-68556000D01*
X169995000Y-70636000D02*
X169995000Y-72046000D01*
X170035000Y-67180000D02*
X170035000Y-68556000D01*
X170035000Y-70636000D02*
X170035000Y-72012000D01*
X170075000Y-67216000D02*
X170075000Y-68556000D01*
X170075000Y-70636000D02*
X170075000Y-71976000D01*
X170115000Y-67253000D02*
X170115000Y-68556000D01*
X170115000Y-70636000D02*
X170115000Y-71939000D01*
X170155000Y-67291000D02*
X170155000Y-68556000D01*
X170155000Y-70636000D02*
X170155000Y-71901000D01*
X170195000Y-67331000D02*
X170195000Y-71861000D01*
X170235000Y-67372000D02*
X170235000Y-71820000D01*
X170275000Y-67414000D02*
X170275000Y-71778000D01*
X170315000Y-67459000D02*
X170315000Y-71733000D01*
X170355000Y-67504000D02*
X170355000Y-71688000D01*
X170395000Y-67552000D02*
X170395000Y-71640000D01*
X170435000Y-67601000D02*
X170435000Y-71591000D01*
X170475000Y-67652000D02*
X170475000Y-71540000D01*
X170515000Y-67706000D02*
X170515000Y-71486000D01*
X170555000Y-67762000D02*
X170555000Y-71430000D01*
X170595000Y-67820000D02*
X170595000Y-71372000D01*
X170635000Y-67882000D02*
X170635000Y-71310000D01*
X170675000Y-67946000D02*
X170675000Y-71246000D01*
X170715000Y-68015000D02*
X170715000Y-71177000D01*
X170755000Y-68087000D02*
X170755000Y-71105000D01*
X170795000Y-68164000D02*
X170795000Y-71028000D01*
X170835000Y-68246000D02*
X170835000Y-70946000D01*
X170875000Y-68334000D02*
X170875000Y-70858000D01*
X170915000Y-68431000D02*
X170915000Y-70761000D01*
X170955000Y-68537000D02*
X170955000Y-70655000D01*
X170995000Y-68656000D02*
X170995000Y-70536000D01*
X171035000Y-68794000D02*
X171035000Y-70398000D01*
X171075000Y-68963000D02*
X171075000Y-70229000D01*
X171115000Y-69194000D02*
X171115000Y-69998000D01*
X164373759Y-67757000D02*
X165003759Y-67757000D01*
X164688759Y-67442000D02*
X164688759Y-68072000D01*
G04 #@! TO.C,C3*
X101314000Y-83546000D02*
G75*
G03X101314000Y-83546000I-3270000J0D01*
G01*
X101274000Y-83546000D02*
X94814000Y-83546000D01*
X101274000Y-83586000D02*
X94814000Y-83586000D01*
X101274000Y-83626000D02*
X94814000Y-83626000D01*
X101272000Y-83666000D02*
X94816000Y-83666000D01*
X101271000Y-83706000D02*
X94817000Y-83706000D01*
X101268000Y-83746000D02*
X94820000Y-83746000D01*
X101266000Y-83786000D02*
X99084000Y-83786000D01*
X97004000Y-83786000D02*
X94822000Y-83786000D01*
X101262000Y-83826000D02*
X99084000Y-83826000D01*
X97004000Y-83826000D02*
X94826000Y-83826000D01*
X101259000Y-83866000D02*
X99084000Y-83866000D01*
X97004000Y-83866000D02*
X94829000Y-83866000D01*
X101255000Y-83906000D02*
X99084000Y-83906000D01*
X97004000Y-83906000D02*
X94833000Y-83906000D01*
X101250000Y-83946000D02*
X99084000Y-83946000D01*
X97004000Y-83946000D02*
X94838000Y-83946000D01*
X101245000Y-83986000D02*
X99084000Y-83986000D01*
X97004000Y-83986000D02*
X94843000Y-83986000D01*
X101239000Y-84026000D02*
X99084000Y-84026000D01*
X97004000Y-84026000D02*
X94849000Y-84026000D01*
X101233000Y-84066000D02*
X99084000Y-84066000D01*
X97004000Y-84066000D02*
X94855000Y-84066000D01*
X101226000Y-84106000D02*
X99084000Y-84106000D01*
X97004000Y-84106000D02*
X94862000Y-84106000D01*
X101219000Y-84146000D02*
X99084000Y-84146000D01*
X97004000Y-84146000D02*
X94869000Y-84146000D01*
X101211000Y-84186000D02*
X99084000Y-84186000D01*
X97004000Y-84186000D02*
X94877000Y-84186000D01*
X101203000Y-84226000D02*
X99084000Y-84226000D01*
X97004000Y-84226000D02*
X94885000Y-84226000D01*
X101194000Y-84267000D02*
X99084000Y-84267000D01*
X97004000Y-84267000D02*
X94894000Y-84267000D01*
X101185000Y-84307000D02*
X99084000Y-84307000D01*
X97004000Y-84307000D02*
X94903000Y-84307000D01*
X101175000Y-84347000D02*
X99084000Y-84347000D01*
X97004000Y-84347000D02*
X94913000Y-84347000D01*
X101165000Y-84387000D02*
X99084000Y-84387000D01*
X97004000Y-84387000D02*
X94923000Y-84387000D01*
X101154000Y-84427000D02*
X99084000Y-84427000D01*
X97004000Y-84427000D02*
X94934000Y-84427000D01*
X101142000Y-84467000D02*
X99084000Y-84467000D01*
X97004000Y-84467000D02*
X94946000Y-84467000D01*
X101130000Y-84507000D02*
X99084000Y-84507000D01*
X97004000Y-84507000D02*
X94958000Y-84507000D01*
X101118000Y-84547000D02*
X99084000Y-84547000D01*
X97004000Y-84547000D02*
X94970000Y-84547000D01*
X101105000Y-84587000D02*
X99084000Y-84587000D01*
X97004000Y-84587000D02*
X94983000Y-84587000D01*
X101091000Y-84627000D02*
X99084000Y-84627000D01*
X97004000Y-84627000D02*
X94997000Y-84627000D01*
X101077000Y-84667000D02*
X99084000Y-84667000D01*
X97004000Y-84667000D02*
X95011000Y-84667000D01*
X101062000Y-84707000D02*
X99084000Y-84707000D01*
X97004000Y-84707000D02*
X95026000Y-84707000D01*
X101046000Y-84747000D02*
X99084000Y-84747000D01*
X97004000Y-84747000D02*
X95042000Y-84747000D01*
X101030000Y-84787000D02*
X99084000Y-84787000D01*
X97004000Y-84787000D02*
X95058000Y-84787000D01*
X101014000Y-84827000D02*
X99084000Y-84827000D01*
X97004000Y-84827000D02*
X95074000Y-84827000D01*
X100996000Y-84867000D02*
X99084000Y-84867000D01*
X97004000Y-84867000D02*
X95092000Y-84867000D01*
X100978000Y-84907000D02*
X99084000Y-84907000D01*
X97004000Y-84907000D02*
X95110000Y-84907000D01*
X100960000Y-84947000D02*
X99084000Y-84947000D01*
X97004000Y-84947000D02*
X95128000Y-84947000D01*
X100940000Y-84987000D02*
X99084000Y-84987000D01*
X97004000Y-84987000D02*
X95148000Y-84987000D01*
X100920000Y-85027000D02*
X99084000Y-85027000D01*
X97004000Y-85027000D02*
X95168000Y-85027000D01*
X100900000Y-85067000D02*
X99084000Y-85067000D01*
X97004000Y-85067000D02*
X95188000Y-85067000D01*
X100878000Y-85107000D02*
X99084000Y-85107000D01*
X97004000Y-85107000D02*
X95210000Y-85107000D01*
X100856000Y-85147000D02*
X99084000Y-85147000D01*
X97004000Y-85147000D02*
X95232000Y-85147000D01*
X100834000Y-85187000D02*
X99084000Y-85187000D01*
X97004000Y-85187000D02*
X95254000Y-85187000D01*
X100810000Y-85227000D02*
X99084000Y-85227000D01*
X97004000Y-85227000D02*
X95278000Y-85227000D01*
X100786000Y-85267000D02*
X99084000Y-85267000D01*
X97004000Y-85267000D02*
X95302000Y-85267000D01*
X100760000Y-85307000D02*
X99084000Y-85307000D01*
X97004000Y-85307000D02*
X95328000Y-85307000D01*
X100734000Y-85347000D02*
X99084000Y-85347000D01*
X97004000Y-85347000D02*
X95354000Y-85347000D01*
X100708000Y-85387000D02*
X99084000Y-85387000D01*
X97004000Y-85387000D02*
X95380000Y-85387000D01*
X100680000Y-85427000D02*
X99084000Y-85427000D01*
X97004000Y-85427000D02*
X95408000Y-85427000D01*
X100651000Y-85467000D02*
X99084000Y-85467000D01*
X97004000Y-85467000D02*
X95437000Y-85467000D01*
X100622000Y-85507000D02*
X99084000Y-85507000D01*
X97004000Y-85507000D02*
X95466000Y-85507000D01*
X100592000Y-85547000D02*
X99084000Y-85547000D01*
X97004000Y-85547000D02*
X95496000Y-85547000D01*
X100560000Y-85587000D02*
X99084000Y-85587000D01*
X97004000Y-85587000D02*
X95528000Y-85587000D01*
X100528000Y-85627000D02*
X99084000Y-85627000D01*
X97004000Y-85627000D02*
X95560000Y-85627000D01*
X100494000Y-85667000D02*
X99084000Y-85667000D01*
X97004000Y-85667000D02*
X95594000Y-85667000D01*
X100460000Y-85707000D02*
X99084000Y-85707000D01*
X97004000Y-85707000D02*
X95628000Y-85707000D01*
X100424000Y-85747000D02*
X99084000Y-85747000D01*
X97004000Y-85747000D02*
X95664000Y-85747000D01*
X100387000Y-85787000D02*
X99084000Y-85787000D01*
X97004000Y-85787000D02*
X95701000Y-85787000D01*
X100349000Y-85827000D02*
X99084000Y-85827000D01*
X97004000Y-85827000D02*
X95739000Y-85827000D01*
X100309000Y-85867000D02*
X95779000Y-85867000D01*
X100268000Y-85907000D02*
X95820000Y-85907000D01*
X100226000Y-85947000D02*
X95862000Y-85947000D01*
X100181000Y-85987000D02*
X95907000Y-85987000D01*
X100136000Y-86027000D02*
X95952000Y-86027000D01*
X100088000Y-86067000D02*
X96000000Y-86067000D01*
X100039000Y-86107000D02*
X96049000Y-86107000D01*
X99988000Y-86147000D02*
X96100000Y-86147000D01*
X99934000Y-86187000D02*
X96154000Y-86187000D01*
X99878000Y-86227000D02*
X96210000Y-86227000D01*
X99820000Y-86267000D02*
X96268000Y-86267000D01*
X99758000Y-86307000D02*
X96330000Y-86307000D01*
X99694000Y-86347000D02*
X96394000Y-86347000D01*
X99625000Y-86387000D02*
X96463000Y-86387000D01*
X99553000Y-86427000D02*
X96535000Y-86427000D01*
X99476000Y-86467000D02*
X96612000Y-86467000D01*
X99394000Y-86507000D02*
X96694000Y-86507000D01*
X99306000Y-86547000D02*
X96782000Y-86547000D01*
X99209000Y-86587000D02*
X96879000Y-86587000D01*
X99103000Y-86627000D02*
X96985000Y-86627000D01*
X98984000Y-86667000D02*
X97104000Y-86667000D01*
X98846000Y-86707000D02*
X97242000Y-86707000D01*
X98677000Y-86747000D02*
X97411000Y-86747000D01*
X98446000Y-86787000D02*
X97642000Y-86787000D01*
X99883000Y-80045759D02*
X99883000Y-80675759D01*
X100198000Y-80360759D02*
X99568000Y-80360759D01*
G04 #@! TO.C,D2*
X95700000Y-40132462D02*
G75*
G03X90150000Y-38587170I-2990000J462D01*
G01*
X95700000Y-40131538D02*
G75*
G02X90150000Y-41676830I-2990000J-462D01*
G01*
X95210000Y-40132000D02*
G75*
G03X95210000Y-40132000I-2500000J0D01*
G01*
X90150000Y-38587000D02*
X90150000Y-41677000D01*
G04 #@! TO.C,U2*
D14*
X149098095Y-95845380D02*
X149098095Y-96654904D01*
X149145714Y-96750142D01*
X149193333Y-96797761D01*
X149288571Y-96845380D01*
X149479047Y-96845380D01*
X149574285Y-96797761D01*
X149621904Y-96750142D01*
X149669523Y-96654904D01*
X149669523Y-95845380D01*
X150098095Y-95940619D02*
X150145714Y-95893000D01*
X150240952Y-95845380D01*
X150479047Y-95845380D01*
X150574285Y-95893000D01*
X150621904Y-95940619D01*
X150669523Y-96035857D01*
X150669523Y-96131095D01*
X150621904Y-96273952D01*
X150050476Y-96845380D01*
X150669523Y-96845380D01*
D12*
X152455714Y-78382761D02*
X152598571Y-78430380D01*
X152836666Y-78430380D01*
X152931904Y-78382761D01*
X152979523Y-78335142D01*
X153027142Y-78239904D01*
X153027142Y-78144666D01*
X152979523Y-78049428D01*
X152931904Y-78001809D01*
X152836666Y-77954190D01*
X152646190Y-77906571D01*
X152550952Y-77858952D01*
X152503333Y-77811333D01*
X152455714Y-77716095D01*
X152455714Y-77620857D01*
X152503333Y-77525619D01*
X152550952Y-77478000D01*
X152646190Y-77430380D01*
X152884285Y-77430380D01*
X153027142Y-77478000D01*
X153455714Y-78430380D02*
X153455714Y-77430380D01*
X153693809Y-77430380D01*
X153836666Y-77478000D01*
X153931904Y-77573238D01*
X153979523Y-77668476D01*
X154027142Y-77858952D01*
X154027142Y-78001809D01*
X153979523Y-78192285D01*
X153931904Y-78287523D01*
X153836666Y-78382761D01*
X153693809Y-78430380D01*
X153455714Y-78430380D01*
X154408095Y-78144666D02*
X154884285Y-78144666D01*
X154312857Y-78430380D02*
X154646190Y-77430380D01*
X154979523Y-78430380D01*
X149939523Y-76477761D02*
X150082380Y-76525380D01*
X150320476Y-76525380D01*
X150415714Y-76477761D01*
X150463333Y-76430142D01*
X150510952Y-76334904D01*
X150510952Y-76239666D01*
X150463333Y-76144428D01*
X150415714Y-76096809D01*
X150320476Y-76049190D01*
X150130000Y-76001571D01*
X150034761Y-75953952D01*
X149987142Y-75906333D01*
X149939523Y-75811095D01*
X149939523Y-75715857D01*
X149987142Y-75620619D01*
X150034761Y-75573000D01*
X150130000Y-75525380D01*
X150368095Y-75525380D01*
X150510952Y-75573000D01*
X151510952Y-76430142D02*
X151463333Y-76477761D01*
X151320476Y-76525380D01*
X151225238Y-76525380D01*
X151082380Y-76477761D01*
X150987142Y-76382523D01*
X150939523Y-76287285D01*
X150891904Y-76096809D01*
X150891904Y-75953952D01*
X150939523Y-75763476D01*
X150987142Y-75668238D01*
X151082380Y-75573000D01*
X151225238Y-75525380D01*
X151320476Y-75525380D01*
X151463333Y-75573000D01*
X151510952Y-75620619D01*
X152415714Y-76525380D02*
X151939523Y-76525380D01*
X151939523Y-75525380D01*
X147113809Y-77430380D02*
X147732857Y-77430380D01*
X147399523Y-77811333D01*
X147542380Y-77811333D01*
X147637619Y-77858952D01*
X147685238Y-77906571D01*
X147732857Y-78001809D01*
X147732857Y-78239904D01*
X147685238Y-78335142D01*
X147637619Y-78382761D01*
X147542380Y-78430380D01*
X147256666Y-78430380D01*
X147161428Y-78382761D01*
X147113809Y-78335142D01*
X148161428Y-78335142D02*
X148209047Y-78382761D01*
X148161428Y-78430380D01*
X148113809Y-78382761D01*
X148161428Y-78335142D01*
X148161428Y-78430380D01*
X148542380Y-77430380D02*
X149161428Y-77430380D01*
X148828095Y-77811333D01*
X148970952Y-77811333D01*
X149066190Y-77858952D01*
X149113809Y-77906571D01*
X149161428Y-78001809D01*
X149161428Y-78239904D01*
X149113809Y-78335142D01*
X149066190Y-78382761D01*
X148970952Y-78430380D01*
X148685238Y-78430380D01*
X148590000Y-78382761D01*
X148542380Y-78335142D01*
X149447142Y-77430380D02*
X149780476Y-78430380D01*
X150113809Y-77430380D01*
X145288095Y-75700000D02*
X145192857Y-75652380D01*
X145050000Y-75652380D01*
X144907142Y-75700000D01*
X144811904Y-75795238D01*
X144764285Y-75890476D01*
X144716666Y-76080952D01*
X144716666Y-76223809D01*
X144764285Y-76414285D01*
X144811904Y-76509523D01*
X144907142Y-76604761D01*
X145050000Y-76652380D01*
X145145238Y-76652380D01*
X145288095Y-76604761D01*
X145335714Y-76557142D01*
X145335714Y-76223809D01*
X145145238Y-76223809D01*
X145764285Y-76652380D02*
X145764285Y-75652380D01*
X146335714Y-76652380D01*
X146335714Y-75652380D01*
X146811904Y-76652380D02*
X146811904Y-75652380D01*
X147050000Y-75652380D01*
X147192857Y-75700000D01*
X147288095Y-75795238D01*
X147335714Y-75890476D01*
X147383333Y-76080952D01*
X147383333Y-76223809D01*
X147335714Y-76414285D01*
X147288095Y-76509523D01*
X147192857Y-76604761D01*
X147050000Y-76652380D01*
X146811904Y-76652380D01*
G04 #@! TO.C,J1*
D11*
X94059714Y-32682571D02*
X94059714Y-31182571D01*
X94559714Y-32254000D01*
X95059714Y-31182571D01*
X95059714Y-32682571D01*
X96059714Y-31182571D02*
X96345428Y-31182571D01*
X96488285Y-31254000D01*
X96631142Y-31396857D01*
X96702571Y-31682571D01*
X96702571Y-32182571D01*
X96631142Y-32468285D01*
X96488285Y-32611142D01*
X96345428Y-32682571D01*
X96059714Y-32682571D01*
X95916857Y-32611142D01*
X95774000Y-32468285D01*
X95702571Y-32182571D01*
X95702571Y-31682571D01*
X95774000Y-31396857D01*
X95916857Y-31254000D01*
X96059714Y-31182571D01*
X97345428Y-32682571D02*
X97345428Y-31182571D01*
X97702571Y-31182571D01*
X97916857Y-31254000D01*
X98059714Y-31396857D01*
X98131142Y-31539714D01*
X98202571Y-31825428D01*
X98202571Y-32039714D01*
X98131142Y-32325428D01*
X98059714Y-32468285D01*
X97916857Y-32611142D01*
X97702571Y-32682571D01*
X97345428Y-32682571D01*
X98845428Y-31896857D02*
X99345428Y-31896857D01*
X99559714Y-32682571D02*
X98845428Y-32682571D01*
X98845428Y-31182571D01*
X99559714Y-31182571D01*
G04 #@! TO.C,J2*
X121789285Y-86967142D02*
X122003571Y-87038571D01*
X122360714Y-87038571D01*
X122503571Y-86967142D01*
X122575000Y-86895714D01*
X122646428Y-86752857D01*
X122646428Y-86610000D01*
X122575000Y-86467142D01*
X122503571Y-86395714D01*
X122360714Y-86324285D01*
X122075000Y-86252857D01*
X121932142Y-86181428D01*
X121860714Y-86110000D01*
X121789285Y-85967142D01*
X121789285Y-85824285D01*
X121860714Y-85681428D01*
X121932142Y-85610000D01*
X122075000Y-85538571D01*
X122432142Y-85538571D01*
X122646428Y-85610000D01*
X123146428Y-85538571D02*
X123503571Y-87038571D01*
X123789285Y-85967142D01*
X124075000Y-87038571D01*
X124432142Y-85538571D01*
X125003571Y-87038571D02*
X125003571Y-85538571D01*
X125360714Y-85538571D01*
X125575000Y-85610000D01*
X125717857Y-85752857D01*
X125789285Y-85895714D01*
X125860714Y-86181428D01*
X125860714Y-86395714D01*
X125789285Y-86681428D01*
X125717857Y-86824285D01*
X125575000Y-86967142D01*
X125360714Y-87038571D01*
X125003571Y-87038571D01*
G04 #@! TO.C,R1*
D14*
X98800733Y-28672780D02*
X98467400Y-28196590D01*
X98229304Y-28672780D02*
X98229304Y-27672780D01*
X98610257Y-27672780D01*
X98705495Y-27720400D01*
X98753114Y-27768019D01*
X98800733Y-27863257D01*
X98800733Y-28006114D01*
X98753114Y-28101352D01*
X98705495Y-28148971D01*
X98610257Y-28196590D01*
X98229304Y-28196590D01*
X99753114Y-28672780D02*
X99181685Y-28672780D01*
X99467400Y-28672780D02*
X99467400Y-27672780D01*
X99372161Y-27815638D01*
X99276923Y-27910876D01*
X99181685Y-27958495D01*
G04 #@! TO.C,U1*
D16*
X114967095Y-54625761D02*
X114967095Y-52625761D01*
X115729000Y-52625761D01*
X115919476Y-52721000D01*
X116014714Y-52816238D01*
X116109952Y-53006714D01*
X116109952Y-53292428D01*
X116014714Y-53482904D01*
X115919476Y-53578142D01*
X115729000Y-53673380D01*
X114967095Y-53673380D01*
X116967095Y-54625761D02*
X116967095Y-53292428D01*
X116967095Y-52625761D02*
X116871857Y-52721000D01*
X116967095Y-52816238D01*
X117062333Y-52721000D01*
X116967095Y-52625761D01*
X116967095Y-52816238D01*
X118776619Y-54530523D02*
X118586142Y-54625761D01*
X118205190Y-54625761D01*
X118014714Y-54530523D01*
X117919476Y-54435285D01*
X117824238Y-54244809D01*
X117824238Y-53673380D01*
X117919476Y-53482904D01*
X118014714Y-53387666D01*
X118205190Y-53292428D01*
X118586142Y-53292428D01*
X118776619Y-53387666D01*
X119919476Y-54625761D02*
X119729000Y-54530523D01*
X119633761Y-54435285D01*
X119538523Y-54244809D01*
X119538523Y-53673380D01*
X119633761Y-53482904D01*
X119729000Y-53387666D01*
X119919476Y-53292428D01*
X120205190Y-53292428D01*
X120395666Y-53387666D01*
X120490904Y-53482904D01*
X120586142Y-53673380D01*
X120586142Y-54244809D01*
X120490904Y-54435285D01*
X120395666Y-54530523D01*
X120205190Y-54625761D01*
X119919476Y-54625761D01*
D14*
X104142096Y-30083218D02*
X104061284Y-30110155D01*
X103980471Y-30190967D01*
X103926597Y-30298717D01*
X103926597Y-30406467D01*
X103953534Y-30487279D01*
X104034346Y-30621966D01*
X104115158Y-30702778D01*
X104249845Y-30783590D01*
X104330658Y-30810528D01*
X104438407Y-30810528D01*
X104546157Y-30756653D01*
X104600032Y-30702778D01*
X104653906Y-30595028D01*
X104653906Y-30541154D01*
X104465345Y-30352592D01*
X104357595Y-30460341D01*
X104950218Y-30352592D02*
X104384532Y-29786906D01*
X104600032Y-29571407D01*
X104680844Y-29544470D01*
X104734719Y-29544470D01*
X104815531Y-29571407D01*
X104896343Y-29652219D01*
X104923280Y-29733032D01*
X104923280Y-29786906D01*
X104896343Y-29867719D01*
X104680844Y-30083218D01*
X105812215Y-29490595D02*
X105488966Y-29813844D01*
X105650590Y-29652219D02*
X105084905Y-29086534D01*
X105111842Y-29221221D01*
X105111842Y-29328971D01*
X105084905Y-29409783D01*
X104142096Y-35173218D02*
X104061284Y-35200155D01*
X103980471Y-35280967D01*
X103926597Y-35388717D01*
X103926597Y-35496467D01*
X103953534Y-35577279D01*
X104034346Y-35711966D01*
X104115158Y-35792778D01*
X104249845Y-35873590D01*
X104330658Y-35900528D01*
X104438407Y-35900528D01*
X104546157Y-35846653D01*
X104600032Y-35792778D01*
X104653906Y-35685028D01*
X104653906Y-35631154D01*
X104465345Y-35442592D01*
X104357595Y-35550341D01*
X104950218Y-35442592D02*
X104384532Y-34876906D01*
X104600032Y-34661407D01*
X104680844Y-34634470D01*
X104734719Y-34634470D01*
X104815531Y-34661407D01*
X104896343Y-34742219D01*
X104923280Y-34823032D01*
X104923280Y-34876906D01*
X104896343Y-34957719D01*
X104680844Y-35173218D01*
X104977155Y-34392033D02*
X104977155Y-34338158D01*
X105004093Y-34257346D01*
X105138780Y-34122659D01*
X105219592Y-34095722D01*
X105273467Y-34095722D01*
X105354279Y-34122659D01*
X105408154Y-34176534D01*
X105462028Y-34284284D01*
X105462028Y-34930781D01*
X105812215Y-34580595D01*
X104242096Y-27553218D02*
X104161284Y-27580155D01*
X104080471Y-27660967D01*
X104026597Y-27768717D01*
X104026597Y-27876467D01*
X104053534Y-27957279D01*
X104134346Y-28091966D01*
X104215158Y-28172778D01*
X104349845Y-28253590D01*
X104430658Y-28280528D01*
X104538407Y-28280528D01*
X104646157Y-28226653D01*
X104700032Y-28172778D01*
X104753906Y-28065028D01*
X104753906Y-28011154D01*
X104565345Y-27822592D01*
X104457595Y-27930341D01*
X105050218Y-27822592D02*
X104484532Y-27256906D01*
X104700032Y-27041407D01*
X104780844Y-27014470D01*
X104834719Y-27014470D01*
X104915531Y-27041407D01*
X104996343Y-27122219D01*
X105023280Y-27203032D01*
X105023280Y-27256906D01*
X104996343Y-27337719D01*
X104780844Y-27553218D01*
X105157967Y-26583471D02*
X105211842Y-26529597D01*
X105292654Y-26502659D01*
X105346529Y-26502659D01*
X105427341Y-26529597D01*
X105562028Y-26610409D01*
X105696715Y-26745096D01*
X105777528Y-26879783D01*
X105804465Y-26960595D01*
X105804465Y-27014470D01*
X105777528Y-27095282D01*
X105723653Y-27149157D01*
X105642841Y-27176094D01*
X105588966Y-27176094D01*
X105508154Y-27149157D01*
X105373467Y-27068345D01*
X105238780Y-26933658D01*
X105157967Y-26798971D01*
X105131030Y-26718158D01*
X105131030Y-26664284D01*
X105157967Y-26583471D01*
X104242096Y-37713218D02*
X104161284Y-37740155D01*
X104080471Y-37820967D01*
X104026597Y-37928717D01*
X104026597Y-38036467D01*
X104053534Y-38117279D01*
X104134346Y-38251966D01*
X104215158Y-38332778D01*
X104349845Y-38413590D01*
X104430658Y-38440528D01*
X104538407Y-38440528D01*
X104646157Y-38386653D01*
X104700032Y-38332778D01*
X104753906Y-38225028D01*
X104753906Y-38171154D01*
X104565345Y-37982592D01*
X104457595Y-38090341D01*
X105050218Y-37982592D02*
X104484532Y-37416906D01*
X104700032Y-37201407D01*
X104780844Y-37174470D01*
X104834719Y-37174470D01*
X104915531Y-37201407D01*
X104996343Y-37282219D01*
X105023280Y-37363032D01*
X105023280Y-37416906D01*
X104996343Y-37497719D01*
X104780844Y-37713218D01*
X104996343Y-36905096D02*
X105346529Y-36554910D01*
X105373467Y-36958971D01*
X105454279Y-36878158D01*
X105535091Y-36851221D01*
X105588966Y-36851221D01*
X105669778Y-36878158D01*
X105804465Y-37012845D01*
X105831402Y-37093658D01*
X105831402Y-37147532D01*
X105804465Y-37228345D01*
X105642841Y-37389969D01*
X105562028Y-37416906D01*
X105508154Y-37416906D01*
X104242096Y-40253218D02*
X104161284Y-40280155D01*
X104080471Y-40360967D01*
X104026597Y-40468717D01*
X104026597Y-40576467D01*
X104053534Y-40657279D01*
X104134346Y-40791966D01*
X104215158Y-40872778D01*
X104349845Y-40953590D01*
X104430658Y-40980528D01*
X104538407Y-40980528D01*
X104646157Y-40926653D01*
X104700032Y-40872778D01*
X104753906Y-40765028D01*
X104753906Y-40711154D01*
X104565345Y-40522592D01*
X104457595Y-40630341D01*
X105050218Y-40522592D02*
X104484532Y-39956906D01*
X104700032Y-39741407D01*
X104780844Y-39714470D01*
X104834719Y-39714470D01*
X104915531Y-39741407D01*
X104996343Y-39822219D01*
X105023280Y-39903032D01*
X105023280Y-39956906D01*
X104996343Y-40037719D01*
X104780844Y-40253218D01*
X105481216Y-39337346D02*
X105858340Y-39714470D01*
X105131030Y-39256534D02*
X105400404Y-39795282D01*
X105750590Y-39445096D01*
X104242096Y-42793218D02*
X104161284Y-42820155D01*
X104080471Y-42900967D01*
X104026597Y-43008717D01*
X104026597Y-43116467D01*
X104053534Y-43197279D01*
X104134346Y-43331966D01*
X104215158Y-43412778D01*
X104349845Y-43493590D01*
X104430658Y-43520528D01*
X104538407Y-43520528D01*
X104646157Y-43466653D01*
X104700032Y-43412778D01*
X104753906Y-43305028D01*
X104753906Y-43251154D01*
X104565345Y-43062592D01*
X104457595Y-43170341D01*
X105050218Y-43062592D02*
X104484532Y-42496906D01*
X104700032Y-42281407D01*
X104780844Y-42254470D01*
X104834719Y-42254470D01*
X104915531Y-42281407D01*
X104996343Y-42362219D01*
X105023280Y-42443032D01*
X105023280Y-42496906D01*
X104996343Y-42577719D01*
X104780844Y-42793218D01*
X105319592Y-41661847D02*
X105050218Y-41931221D01*
X105292654Y-42227532D01*
X105292654Y-42173658D01*
X105319592Y-42092845D01*
X105454279Y-41958158D01*
X105535091Y-41931221D01*
X105588966Y-41931221D01*
X105669778Y-41958158D01*
X105804465Y-42092845D01*
X105831402Y-42173658D01*
X105831402Y-42227532D01*
X105804465Y-42308345D01*
X105669778Y-42443032D01*
X105588966Y-42469969D01*
X105535091Y-42469969D01*
X104242096Y-47873218D02*
X104161284Y-47900155D01*
X104080471Y-47980967D01*
X104026597Y-48088717D01*
X104026597Y-48196467D01*
X104053534Y-48277279D01*
X104134346Y-48411966D01*
X104215158Y-48492778D01*
X104349845Y-48573590D01*
X104430658Y-48600528D01*
X104538407Y-48600528D01*
X104646157Y-48546653D01*
X104700032Y-48492778D01*
X104753906Y-48385028D01*
X104753906Y-48331154D01*
X104565345Y-48142592D01*
X104457595Y-48250341D01*
X105050218Y-48142592D02*
X104484532Y-47576906D01*
X104700032Y-47361407D01*
X104780844Y-47334470D01*
X104834719Y-47334470D01*
X104915531Y-47361407D01*
X104996343Y-47442219D01*
X105023280Y-47523032D01*
X105023280Y-47576906D01*
X104996343Y-47657719D01*
X104780844Y-47873218D01*
X105292654Y-46768784D02*
X105184905Y-46876534D01*
X105157967Y-46957346D01*
X105157967Y-47011221D01*
X105184905Y-47145908D01*
X105265717Y-47280595D01*
X105481216Y-47496094D01*
X105562028Y-47523032D01*
X105615903Y-47523032D01*
X105696715Y-47496094D01*
X105804465Y-47388345D01*
X105831402Y-47307532D01*
X105831402Y-47253658D01*
X105804465Y-47172845D01*
X105669778Y-47038158D01*
X105588966Y-47011221D01*
X105535091Y-47011221D01*
X105454279Y-47038158D01*
X105346529Y-47145908D01*
X105319592Y-47226720D01*
X105319592Y-47280595D01*
X105346529Y-47361407D01*
X104342096Y-50383218D02*
X104261284Y-50410155D01*
X104180471Y-50490967D01*
X104126597Y-50598717D01*
X104126597Y-50706467D01*
X104153534Y-50787279D01*
X104234346Y-50921966D01*
X104315158Y-51002778D01*
X104449845Y-51083590D01*
X104530658Y-51110528D01*
X104638407Y-51110528D01*
X104746157Y-51056653D01*
X104800032Y-51002778D01*
X104853906Y-50895028D01*
X104853906Y-50841154D01*
X104665345Y-50652592D01*
X104557595Y-50760341D01*
X105150218Y-50652592D02*
X104584532Y-50086906D01*
X104800032Y-49871407D01*
X104880844Y-49844470D01*
X104934719Y-49844470D01*
X105015531Y-49871407D01*
X105096343Y-49952219D01*
X105123280Y-50033032D01*
X105123280Y-50086906D01*
X105096343Y-50167719D01*
X104880844Y-50383218D01*
X105096343Y-49575096D02*
X105473467Y-49197972D01*
X105796715Y-50006094D01*
X104242096Y-52953218D02*
X104161284Y-52980155D01*
X104080471Y-53060967D01*
X104026597Y-53168717D01*
X104026597Y-53276467D01*
X104053534Y-53357279D01*
X104134346Y-53491966D01*
X104215158Y-53572778D01*
X104349845Y-53653590D01*
X104430658Y-53680528D01*
X104538407Y-53680528D01*
X104646157Y-53626653D01*
X104700032Y-53572778D01*
X104753906Y-53465028D01*
X104753906Y-53411154D01*
X104565345Y-53222592D01*
X104457595Y-53330341D01*
X105050218Y-53222592D02*
X104484532Y-52656906D01*
X104700032Y-52441407D01*
X104780844Y-52414470D01*
X104834719Y-52414470D01*
X104915531Y-52441407D01*
X104996343Y-52522219D01*
X105023280Y-52603032D01*
X105023280Y-52656906D01*
X104996343Y-52737719D01*
X104780844Y-52953218D01*
X105373467Y-52252845D02*
X105292654Y-52279783D01*
X105238780Y-52279783D01*
X105157967Y-52252845D01*
X105131030Y-52225908D01*
X105104093Y-52145096D01*
X105104093Y-52091221D01*
X105131030Y-52010409D01*
X105238780Y-51902659D01*
X105319592Y-51875722D01*
X105373467Y-51875722D01*
X105454279Y-51902659D01*
X105481216Y-51929597D01*
X105508154Y-52010409D01*
X105508154Y-52064284D01*
X105481216Y-52145096D01*
X105373467Y-52252845D01*
X105346529Y-52333658D01*
X105346529Y-52387532D01*
X105373467Y-52468345D01*
X105481216Y-52576094D01*
X105562028Y-52603032D01*
X105615903Y-52603032D01*
X105696715Y-52576094D01*
X105804465Y-52468345D01*
X105831402Y-52387532D01*
X105831402Y-52333658D01*
X105804465Y-52252845D01*
X105696715Y-52145096D01*
X105615903Y-52118158D01*
X105562028Y-52118158D01*
X105481216Y-52145096D01*
X104242096Y-55493218D02*
X104161284Y-55520155D01*
X104080471Y-55600967D01*
X104026597Y-55708717D01*
X104026597Y-55816467D01*
X104053534Y-55897279D01*
X104134346Y-56031966D01*
X104215158Y-56112778D01*
X104349845Y-56193590D01*
X104430658Y-56220528D01*
X104538407Y-56220528D01*
X104646157Y-56166653D01*
X104700032Y-56112778D01*
X104753906Y-56005028D01*
X104753906Y-55951154D01*
X104565345Y-55762592D01*
X104457595Y-55870341D01*
X105050218Y-55762592D02*
X104484532Y-55196906D01*
X104700032Y-54981407D01*
X104780844Y-54954470D01*
X104834719Y-54954470D01*
X104915531Y-54981407D01*
X104996343Y-55062219D01*
X105023280Y-55143032D01*
X105023280Y-55196906D01*
X104996343Y-55277719D01*
X104780844Y-55493218D01*
X105642841Y-55169969D02*
X105750590Y-55062219D01*
X105777528Y-54981407D01*
X105777528Y-54927532D01*
X105750590Y-54792845D01*
X105669778Y-54658158D01*
X105454279Y-54442659D01*
X105373467Y-54415722D01*
X105319592Y-54415722D01*
X105238780Y-54442659D01*
X105131030Y-54550409D01*
X105104093Y-54631221D01*
X105104093Y-54685096D01*
X105131030Y-54765908D01*
X105265717Y-54900595D01*
X105346529Y-54927532D01*
X105400404Y-54927532D01*
X105481216Y-54900595D01*
X105588966Y-54792845D01*
X105615903Y-54712033D01*
X105615903Y-54658158D01*
X105588966Y-54577346D01*
X103718722Y-60842592D02*
X103637910Y-60869529D01*
X103557097Y-60950341D01*
X103503223Y-61058091D01*
X103503223Y-61165841D01*
X103530160Y-61246653D01*
X103610972Y-61381340D01*
X103691784Y-61462152D01*
X103826471Y-61542964D01*
X103907284Y-61569902D01*
X104015033Y-61569902D01*
X104122783Y-61516027D01*
X104176658Y-61462152D01*
X104230532Y-61354402D01*
X104230532Y-61300528D01*
X104041971Y-61111966D01*
X103934221Y-61219715D01*
X104526844Y-61111966D02*
X103961158Y-60546280D01*
X104176658Y-60330781D01*
X104257470Y-60303844D01*
X104311345Y-60303844D01*
X104392157Y-60330781D01*
X104472969Y-60411593D01*
X104499906Y-60492406D01*
X104499906Y-60546280D01*
X104472969Y-60627093D01*
X104257470Y-60842592D01*
X105388841Y-60249969D02*
X105065592Y-60573218D01*
X105227216Y-60411593D02*
X104661531Y-59845908D01*
X104688468Y-59980595D01*
X104688468Y-60088345D01*
X104661531Y-60169157D01*
X105173341Y-59334097D02*
X105227216Y-59280223D01*
X105308028Y-59253285D01*
X105361903Y-59253285D01*
X105442715Y-59280223D01*
X105577402Y-59361035D01*
X105712089Y-59495722D01*
X105792902Y-59630409D01*
X105819839Y-59711221D01*
X105819839Y-59765096D01*
X105792902Y-59845908D01*
X105739027Y-59899783D01*
X105658215Y-59926720D01*
X105604340Y-59926720D01*
X105523528Y-59899783D01*
X105388841Y-59818971D01*
X105254154Y-59684284D01*
X105173341Y-59549597D01*
X105146404Y-59468784D01*
X105146404Y-59414910D01*
X105173341Y-59334097D01*
X103572722Y-63382592D02*
X103491910Y-63409529D01*
X103411097Y-63490341D01*
X103357223Y-63598091D01*
X103357223Y-63705841D01*
X103384160Y-63786653D01*
X103464972Y-63921340D01*
X103545784Y-64002152D01*
X103680471Y-64082964D01*
X103761284Y-64109902D01*
X103869033Y-64109902D01*
X103976783Y-64056027D01*
X104030658Y-64002152D01*
X104084532Y-63894402D01*
X104084532Y-63840528D01*
X103895971Y-63651966D01*
X103788221Y-63759715D01*
X104380844Y-63651966D02*
X103815158Y-63086280D01*
X104030658Y-62870781D01*
X104111470Y-62843844D01*
X104165345Y-62843844D01*
X104246157Y-62870781D01*
X104326969Y-62951593D01*
X104353906Y-63032406D01*
X104353906Y-63086280D01*
X104326969Y-63167093D01*
X104111470Y-63382592D01*
X105242841Y-62789969D02*
X104919592Y-63113218D01*
X105081216Y-62951593D02*
X104515531Y-62385908D01*
X104542468Y-62520595D01*
X104542468Y-62628345D01*
X104515531Y-62709157D01*
X105781589Y-62251221D02*
X105458340Y-62574470D01*
X105619964Y-62412845D02*
X105054279Y-61847160D01*
X105081216Y-61981847D01*
X105081216Y-62089597D01*
X105054279Y-62170409D01*
X103572722Y-65922592D02*
X103491910Y-65949529D01*
X103411097Y-66030341D01*
X103357223Y-66138091D01*
X103357223Y-66245841D01*
X103384160Y-66326653D01*
X103464972Y-66461340D01*
X103545784Y-66542152D01*
X103680471Y-66622964D01*
X103761284Y-66649902D01*
X103869033Y-66649902D01*
X103976783Y-66596027D01*
X104030658Y-66542152D01*
X104084532Y-66434402D01*
X104084532Y-66380528D01*
X103895971Y-66191966D01*
X103788221Y-66299715D01*
X104380844Y-66191966D02*
X103815158Y-65626280D01*
X104030658Y-65410781D01*
X104111470Y-65383844D01*
X104165345Y-65383844D01*
X104246157Y-65410781D01*
X104326969Y-65491593D01*
X104353906Y-65572406D01*
X104353906Y-65626280D01*
X104326969Y-65707093D01*
X104111470Y-65922592D01*
X105242841Y-65329969D02*
X104919592Y-65653218D01*
X105081216Y-65491593D02*
X104515531Y-64925908D01*
X104542468Y-65060595D01*
X104542468Y-65168345D01*
X104515531Y-65249157D01*
X104946529Y-64602659D02*
X104946529Y-64548784D01*
X104973467Y-64467972D01*
X105108154Y-64333285D01*
X105188966Y-64306348D01*
X105242841Y-64306348D01*
X105323653Y-64333285D01*
X105377528Y-64387160D01*
X105431402Y-64494910D01*
X105431402Y-65141407D01*
X105781589Y-64791221D01*
X103718722Y-68462592D02*
X103637910Y-68489529D01*
X103557097Y-68570341D01*
X103503223Y-68678091D01*
X103503223Y-68785841D01*
X103530160Y-68866653D01*
X103610972Y-69001340D01*
X103691784Y-69082152D01*
X103826471Y-69162964D01*
X103907284Y-69189902D01*
X104015033Y-69189902D01*
X104122783Y-69136027D01*
X104176658Y-69082152D01*
X104230532Y-68974402D01*
X104230532Y-68920528D01*
X104041971Y-68731966D01*
X103934221Y-68839715D01*
X104526844Y-68731966D02*
X103961158Y-68166280D01*
X104176658Y-67950781D01*
X104257470Y-67923844D01*
X104311345Y-67923844D01*
X104392157Y-67950781D01*
X104472969Y-68031593D01*
X104499906Y-68112406D01*
X104499906Y-68166280D01*
X104472969Y-68247093D01*
X104257470Y-68462592D01*
X105388841Y-67869969D02*
X105065592Y-68193218D01*
X105227216Y-68031593D02*
X104661531Y-67465908D01*
X104688468Y-67600595D01*
X104688468Y-67708345D01*
X104661531Y-67789157D01*
X105011717Y-67115722D02*
X105361903Y-66765536D01*
X105388841Y-67169597D01*
X105469653Y-67088784D01*
X105550465Y-67061847D01*
X105604340Y-67061847D01*
X105685152Y-67088784D01*
X105819839Y-67223471D01*
X105846776Y-67304284D01*
X105846776Y-67358158D01*
X105819839Y-67438971D01*
X105658215Y-67600595D01*
X105577402Y-67627532D01*
X105523528Y-67627532D01*
X103672722Y-73542592D02*
X103591910Y-73569529D01*
X103511097Y-73650341D01*
X103457223Y-73758091D01*
X103457223Y-73865841D01*
X103484160Y-73946653D01*
X103564972Y-74081340D01*
X103645784Y-74162152D01*
X103780471Y-74242964D01*
X103861284Y-74269902D01*
X103969033Y-74269902D01*
X104076783Y-74216027D01*
X104130658Y-74162152D01*
X104184532Y-74054402D01*
X104184532Y-74000528D01*
X103995971Y-73811966D01*
X103888221Y-73919715D01*
X104480844Y-73811966D02*
X103915158Y-73246280D01*
X104130658Y-73030781D01*
X104211470Y-73003844D01*
X104265345Y-73003844D01*
X104346157Y-73030781D01*
X104426969Y-73111593D01*
X104453906Y-73192406D01*
X104453906Y-73246280D01*
X104426969Y-73327093D01*
X104211470Y-73542592D01*
X105342841Y-72949969D02*
X105019592Y-73273218D01*
X105181216Y-73111593D02*
X104615531Y-72545908D01*
X104642468Y-72680595D01*
X104642468Y-72788345D01*
X104615531Y-72869157D01*
X105450590Y-72087972D02*
X105827714Y-72465096D01*
X105100404Y-72007160D02*
X105369778Y-72545908D01*
X105719964Y-72195722D01*
X103718722Y-76082592D02*
X103637910Y-76109529D01*
X103557097Y-76190341D01*
X103503223Y-76298091D01*
X103503223Y-76405841D01*
X103530160Y-76486653D01*
X103610972Y-76621340D01*
X103691784Y-76702152D01*
X103826471Y-76782964D01*
X103907284Y-76809902D01*
X104015033Y-76809902D01*
X104122783Y-76756027D01*
X104176658Y-76702152D01*
X104230532Y-76594402D01*
X104230532Y-76540528D01*
X104041971Y-76351966D01*
X103934221Y-76459715D01*
X104526844Y-76351966D02*
X103961158Y-75786280D01*
X104176658Y-75570781D01*
X104257470Y-75543844D01*
X104311345Y-75543844D01*
X104392157Y-75570781D01*
X104472969Y-75651593D01*
X104499906Y-75732406D01*
X104499906Y-75786280D01*
X104472969Y-75867093D01*
X104257470Y-76082592D01*
X105388841Y-75489969D02*
X105065592Y-75813218D01*
X105227216Y-75651593D02*
X104661531Y-75085908D01*
X104688468Y-75220595D01*
X104688468Y-75328345D01*
X104661531Y-75409157D01*
X105334966Y-74412473D02*
X105065592Y-74681847D01*
X105308028Y-74978158D01*
X105308028Y-74924284D01*
X105334966Y-74843471D01*
X105469653Y-74708784D01*
X105550465Y-74681847D01*
X105604340Y-74681847D01*
X105685152Y-74708784D01*
X105819839Y-74843471D01*
X105846776Y-74924284D01*
X105846776Y-74978158D01*
X105819839Y-75058971D01*
X105685152Y-75193658D01*
X105604340Y-75220595D01*
X105550465Y-75220595D01*
X129826722Y-76082592D02*
X129745910Y-76109529D01*
X129665097Y-76190341D01*
X129611223Y-76298091D01*
X129611223Y-76405841D01*
X129638160Y-76486653D01*
X129718972Y-76621340D01*
X129799784Y-76702152D01*
X129934471Y-76782964D01*
X130015284Y-76809902D01*
X130123033Y-76809902D01*
X130230783Y-76756027D01*
X130284658Y-76702152D01*
X130338532Y-76594402D01*
X130338532Y-76540528D01*
X130149971Y-76351966D01*
X130042221Y-76459715D01*
X130634844Y-76351966D02*
X130069158Y-75786280D01*
X130284658Y-75570781D01*
X130365470Y-75543844D01*
X130419345Y-75543844D01*
X130500157Y-75570781D01*
X130580969Y-75651593D01*
X130607906Y-75732406D01*
X130607906Y-75786280D01*
X130580969Y-75867093D01*
X130365470Y-76082592D01*
X131496841Y-75489969D02*
X131173592Y-75813218D01*
X131335216Y-75651593D02*
X130769531Y-75085908D01*
X130796468Y-75220595D01*
X130796468Y-75328345D01*
X130769531Y-75409157D01*
X131416028Y-74439410D02*
X131308279Y-74547160D01*
X131281341Y-74627972D01*
X131281341Y-74681847D01*
X131308279Y-74816534D01*
X131389091Y-74951221D01*
X131604590Y-75166720D01*
X131685402Y-75193658D01*
X131739277Y-75193658D01*
X131820089Y-75166720D01*
X131927839Y-75058971D01*
X131954776Y-74978158D01*
X131954776Y-74924284D01*
X131927839Y-74843471D01*
X131793152Y-74708784D01*
X131712340Y-74681847D01*
X131658465Y-74681847D01*
X131577653Y-74708784D01*
X131469903Y-74816534D01*
X131442966Y-74897346D01*
X131442966Y-74951221D01*
X131469903Y-75032033D01*
X129826722Y-73542592D02*
X129745910Y-73569529D01*
X129665097Y-73650341D01*
X129611223Y-73758091D01*
X129611223Y-73865841D01*
X129638160Y-73946653D01*
X129718972Y-74081340D01*
X129799784Y-74162152D01*
X129934471Y-74242964D01*
X130015284Y-74269902D01*
X130123033Y-74269902D01*
X130230783Y-74216027D01*
X130284658Y-74162152D01*
X130338532Y-74054402D01*
X130338532Y-74000528D01*
X130149971Y-73811966D01*
X130042221Y-73919715D01*
X130634844Y-73811966D02*
X130069158Y-73246280D01*
X130284658Y-73030781D01*
X130365470Y-73003844D01*
X130419345Y-73003844D01*
X130500157Y-73030781D01*
X130580969Y-73111593D01*
X130607906Y-73192406D01*
X130607906Y-73246280D01*
X130580969Y-73327093D01*
X130365470Y-73542592D01*
X131496841Y-72949969D02*
X131173592Y-73273218D01*
X131335216Y-73111593D02*
X130769531Y-72545908D01*
X130796468Y-72680595D01*
X130796468Y-72788345D01*
X130769531Y-72869157D01*
X131119717Y-72195722D02*
X131496841Y-71818598D01*
X131820089Y-72626720D01*
X129826722Y-68462592D02*
X129745910Y-68489529D01*
X129665097Y-68570341D01*
X129611223Y-68678091D01*
X129611223Y-68785841D01*
X129638160Y-68866653D01*
X129718972Y-69001340D01*
X129799784Y-69082152D01*
X129934471Y-69162964D01*
X130015284Y-69189902D01*
X130123033Y-69189902D01*
X130230783Y-69136027D01*
X130284658Y-69082152D01*
X130338532Y-68974402D01*
X130338532Y-68920528D01*
X130149971Y-68731966D01*
X130042221Y-68839715D01*
X130634844Y-68731966D02*
X130069158Y-68166280D01*
X130284658Y-67950781D01*
X130365470Y-67923844D01*
X130419345Y-67923844D01*
X130500157Y-67950781D01*
X130580969Y-68031593D01*
X130607906Y-68112406D01*
X130607906Y-68166280D01*
X130580969Y-68247093D01*
X130365470Y-68462592D01*
X131496841Y-67869969D02*
X131173592Y-68193218D01*
X131335216Y-68031593D02*
X130769531Y-67465908D01*
X130796468Y-67600595D01*
X130796468Y-67708345D01*
X130769531Y-67789157D01*
X131496841Y-67223471D02*
X131416028Y-67250409D01*
X131362154Y-67250409D01*
X131281341Y-67223471D01*
X131254404Y-67196534D01*
X131227467Y-67115722D01*
X131227467Y-67061847D01*
X131254404Y-66981035D01*
X131362154Y-66873285D01*
X131442966Y-66846348D01*
X131496841Y-66846348D01*
X131577653Y-66873285D01*
X131604590Y-66900223D01*
X131631528Y-66981035D01*
X131631528Y-67034910D01*
X131604590Y-67115722D01*
X131496841Y-67223471D01*
X131469903Y-67304284D01*
X131469903Y-67358158D01*
X131496841Y-67438971D01*
X131604590Y-67546720D01*
X131685402Y-67573658D01*
X131739277Y-67573658D01*
X131820089Y-67546720D01*
X131927839Y-67438971D01*
X131954776Y-67358158D01*
X131954776Y-67304284D01*
X131927839Y-67223471D01*
X131820089Y-67115722D01*
X131739277Y-67088784D01*
X131685402Y-67088784D01*
X131604590Y-67115722D01*
X129826722Y-65922592D02*
X129745910Y-65949529D01*
X129665097Y-66030341D01*
X129611223Y-66138091D01*
X129611223Y-66245841D01*
X129638160Y-66326653D01*
X129718972Y-66461340D01*
X129799784Y-66542152D01*
X129934471Y-66622964D01*
X130015284Y-66649902D01*
X130123033Y-66649902D01*
X130230783Y-66596027D01*
X130284658Y-66542152D01*
X130338532Y-66434402D01*
X130338532Y-66380528D01*
X130149971Y-66191966D01*
X130042221Y-66299715D01*
X130634844Y-66191966D02*
X130069158Y-65626280D01*
X130284658Y-65410781D01*
X130365470Y-65383844D01*
X130419345Y-65383844D01*
X130500157Y-65410781D01*
X130580969Y-65491593D01*
X130607906Y-65572406D01*
X130607906Y-65626280D01*
X130580969Y-65707093D01*
X130365470Y-65922592D01*
X131496841Y-65329969D02*
X131173592Y-65653218D01*
X131335216Y-65491593D02*
X130769531Y-64925908D01*
X130796468Y-65060595D01*
X130796468Y-65168345D01*
X130769531Y-65249157D01*
X131766215Y-65060595D02*
X131873964Y-64952845D01*
X131900902Y-64872033D01*
X131900902Y-64818158D01*
X131873964Y-64683471D01*
X131793152Y-64548784D01*
X131577653Y-64333285D01*
X131496841Y-64306348D01*
X131442966Y-64306348D01*
X131362154Y-64333285D01*
X131254404Y-64441035D01*
X131227467Y-64521847D01*
X131227467Y-64575722D01*
X131254404Y-64656534D01*
X131389091Y-64791221D01*
X131469903Y-64818158D01*
X131523778Y-64818158D01*
X131604590Y-64791221D01*
X131712340Y-64683471D01*
X131739277Y-64602659D01*
X131739277Y-64548784D01*
X131712340Y-64467972D01*
X129826722Y-63382592D02*
X129745910Y-63409529D01*
X129665097Y-63490341D01*
X129611223Y-63598091D01*
X129611223Y-63705841D01*
X129638160Y-63786653D01*
X129718972Y-63921340D01*
X129799784Y-64002152D01*
X129934471Y-64082964D01*
X130015284Y-64109902D01*
X130123033Y-64109902D01*
X130230783Y-64056027D01*
X130284658Y-64002152D01*
X130338532Y-63894402D01*
X130338532Y-63840528D01*
X130149971Y-63651966D01*
X130042221Y-63759715D01*
X130634844Y-63651966D02*
X130069158Y-63086280D01*
X130284658Y-62870781D01*
X130365470Y-62843844D01*
X130419345Y-62843844D01*
X130500157Y-62870781D01*
X130580969Y-62951593D01*
X130607906Y-63032406D01*
X130607906Y-63086280D01*
X130580969Y-63167093D01*
X130365470Y-63382592D01*
X130661781Y-62601407D02*
X130661781Y-62547532D01*
X130688719Y-62466720D01*
X130823406Y-62332033D01*
X130904218Y-62305096D01*
X130958093Y-62305096D01*
X131038905Y-62332033D01*
X131092780Y-62385908D01*
X131146654Y-62493658D01*
X131146654Y-63140155D01*
X131496841Y-62789969D01*
X131281341Y-61874097D02*
X131335216Y-61820223D01*
X131416028Y-61793285D01*
X131469903Y-61793285D01*
X131550715Y-61820223D01*
X131685402Y-61901035D01*
X131820089Y-62035722D01*
X131900902Y-62170409D01*
X131927839Y-62251221D01*
X131927839Y-62305096D01*
X131900902Y-62385908D01*
X131847027Y-62439783D01*
X131766215Y-62466720D01*
X131712340Y-62466720D01*
X131631528Y-62439783D01*
X131496841Y-62358971D01*
X131362154Y-62224284D01*
X131281341Y-62089597D01*
X131254404Y-62008784D01*
X131254404Y-61954910D01*
X131281341Y-61874097D01*
X129826722Y-60852592D02*
X129745910Y-60879529D01*
X129665097Y-60960341D01*
X129611223Y-61068091D01*
X129611223Y-61175841D01*
X129638160Y-61256653D01*
X129718972Y-61391340D01*
X129799784Y-61472152D01*
X129934471Y-61552964D01*
X130015284Y-61579902D01*
X130123033Y-61579902D01*
X130230783Y-61526027D01*
X130284658Y-61472152D01*
X130338532Y-61364402D01*
X130338532Y-61310528D01*
X130149971Y-61121966D01*
X130042221Y-61229715D01*
X130634844Y-61121966D02*
X130069158Y-60556280D01*
X130284658Y-60340781D01*
X130365470Y-60313844D01*
X130419345Y-60313844D01*
X130500157Y-60340781D01*
X130580969Y-60421593D01*
X130607906Y-60502406D01*
X130607906Y-60556280D01*
X130580969Y-60637093D01*
X130365470Y-60852592D01*
X130661781Y-60071407D02*
X130661781Y-60017532D01*
X130688719Y-59936720D01*
X130823406Y-59802033D01*
X130904218Y-59775096D01*
X130958093Y-59775096D01*
X131038905Y-59802033D01*
X131092780Y-59855908D01*
X131146654Y-59963658D01*
X131146654Y-60610155D01*
X131496841Y-60259969D01*
X132035589Y-59721221D02*
X131712340Y-60044470D01*
X131873964Y-59882845D02*
X131308279Y-59317160D01*
X131335216Y-59451847D01*
X131335216Y-59559597D01*
X131308279Y-59640409D01*
X129826722Y-55762592D02*
X129745910Y-55789529D01*
X129665097Y-55870341D01*
X129611223Y-55978091D01*
X129611223Y-56085841D01*
X129638160Y-56166653D01*
X129718972Y-56301340D01*
X129799784Y-56382152D01*
X129934471Y-56462964D01*
X130015284Y-56489902D01*
X130123033Y-56489902D01*
X130230783Y-56436027D01*
X130284658Y-56382152D01*
X130338532Y-56274402D01*
X130338532Y-56220528D01*
X130149971Y-56031966D01*
X130042221Y-56139715D01*
X130634844Y-56031966D02*
X130069158Y-55466280D01*
X130284658Y-55250781D01*
X130365470Y-55223844D01*
X130419345Y-55223844D01*
X130500157Y-55250781D01*
X130580969Y-55331593D01*
X130607906Y-55412406D01*
X130607906Y-55466280D01*
X130580969Y-55547093D01*
X130365470Y-55762592D01*
X130661781Y-54981407D02*
X130661781Y-54927532D01*
X130688719Y-54846720D01*
X130823406Y-54712033D01*
X130904218Y-54685096D01*
X130958093Y-54685096D01*
X131038905Y-54712033D01*
X131092780Y-54765908D01*
X131146654Y-54873658D01*
X131146654Y-55520155D01*
X131496841Y-55169969D01*
X131200529Y-54442659D02*
X131200529Y-54388784D01*
X131227467Y-54307972D01*
X131362154Y-54173285D01*
X131442966Y-54146348D01*
X131496841Y-54146348D01*
X131577653Y-54173285D01*
X131631528Y-54227160D01*
X131685402Y-54334910D01*
X131685402Y-54981407D01*
X132035589Y-54631221D01*
X130567375Y-53505435D02*
X130109439Y-53424622D01*
X130244126Y-53828683D02*
X129678441Y-53262998D01*
X129893940Y-53047499D01*
X129974752Y-53020561D01*
X130028627Y-53020561D01*
X130109439Y-53047499D01*
X130190251Y-53128311D01*
X130217189Y-53209123D01*
X130217189Y-53262998D01*
X130190251Y-53343810D01*
X129974752Y-53559309D01*
X130244126Y-52697312D02*
X130702062Y-53155248D01*
X130782874Y-53182186D01*
X130836749Y-53182186D01*
X130917561Y-53155248D01*
X131025311Y-53047499D01*
X131052248Y-52966687D01*
X131052248Y-52912812D01*
X131025311Y-52832000D01*
X130567375Y-52374064D01*
X131402435Y-52670375D02*
X130836749Y-52104690D01*
X131725683Y-52347126D01*
X131159998Y-51781441D01*
X129826722Y-50682592D02*
X129745910Y-50709529D01*
X129665097Y-50790341D01*
X129611223Y-50898091D01*
X129611223Y-51005841D01*
X129638160Y-51086653D01*
X129718972Y-51221340D01*
X129799784Y-51302152D01*
X129934471Y-51382964D01*
X130015284Y-51409902D01*
X130123033Y-51409902D01*
X130230783Y-51356027D01*
X130284658Y-51302152D01*
X130338532Y-51194402D01*
X130338532Y-51140528D01*
X130149971Y-50951966D01*
X130042221Y-51059715D01*
X130634844Y-50951966D02*
X130069158Y-50386280D01*
X130284658Y-50170781D01*
X130365470Y-50143844D01*
X130419345Y-50143844D01*
X130500157Y-50170781D01*
X130580969Y-50251593D01*
X130607906Y-50332406D01*
X130607906Y-50386280D01*
X130580969Y-50467093D01*
X130365470Y-50682592D01*
X130661781Y-49901407D02*
X130661781Y-49847532D01*
X130688719Y-49766720D01*
X130823406Y-49632033D01*
X130904218Y-49605096D01*
X130958093Y-49605096D01*
X131038905Y-49632033D01*
X131092780Y-49685908D01*
X131146654Y-49793658D01*
X131146654Y-50440155D01*
X131496841Y-50089969D01*
X131416028Y-49039410D02*
X131308279Y-49147160D01*
X131281341Y-49227972D01*
X131281341Y-49281847D01*
X131308279Y-49416534D01*
X131389091Y-49551221D01*
X131604590Y-49766720D01*
X131685402Y-49793658D01*
X131739277Y-49793658D01*
X131820089Y-49766720D01*
X131927839Y-49658971D01*
X131954776Y-49578158D01*
X131954776Y-49524284D01*
X131927839Y-49443471D01*
X131793152Y-49308784D01*
X131712340Y-49281847D01*
X131658465Y-49281847D01*
X131577653Y-49308784D01*
X131469903Y-49416534D01*
X131442966Y-49497346D01*
X131442966Y-49551221D01*
X131469903Y-49632033D01*
X129826722Y-48152592D02*
X129745910Y-48179529D01*
X129665097Y-48260341D01*
X129611223Y-48368091D01*
X129611223Y-48475841D01*
X129638160Y-48556653D01*
X129718972Y-48691340D01*
X129799784Y-48772152D01*
X129934471Y-48852964D01*
X130015284Y-48879902D01*
X130123033Y-48879902D01*
X130230783Y-48826027D01*
X130284658Y-48772152D01*
X130338532Y-48664402D01*
X130338532Y-48610528D01*
X130149971Y-48421966D01*
X130042221Y-48529715D01*
X130634844Y-48421966D02*
X130069158Y-47856280D01*
X130284658Y-47640781D01*
X130365470Y-47613844D01*
X130419345Y-47613844D01*
X130500157Y-47640781D01*
X130580969Y-47721593D01*
X130607906Y-47802406D01*
X130607906Y-47856280D01*
X130580969Y-47937093D01*
X130365470Y-48152592D01*
X130661781Y-47371407D02*
X130661781Y-47317532D01*
X130688719Y-47236720D01*
X130823406Y-47102033D01*
X130904218Y-47075096D01*
X130958093Y-47075096D01*
X131038905Y-47102033D01*
X131092780Y-47155908D01*
X131146654Y-47263658D01*
X131146654Y-47910155D01*
X131496841Y-47559969D01*
X131119717Y-46805722D02*
X131496841Y-46428598D01*
X131820089Y-47236720D01*
X129826722Y-42808592D02*
X129745910Y-42835529D01*
X129665097Y-42916341D01*
X129611223Y-43024091D01*
X129611223Y-43131841D01*
X129638160Y-43212653D01*
X129718972Y-43347340D01*
X129799784Y-43428152D01*
X129934471Y-43508964D01*
X130015284Y-43535902D01*
X130123033Y-43535902D01*
X130230783Y-43482027D01*
X130284658Y-43428152D01*
X130338532Y-43320402D01*
X130338532Y-43266528D01*
X130149971Y-43077966D01*
X130042221Y-43185715D01*
X130634844Y-43077966D02*
X130069158Y-42512280D01*
X130284658Y-42296781D01*
X130365470Y-42269844D01*
X130419345Y-42269844D01*
X130500157Y-42296781D01*
X130580969Y-42377593D01*
X130607906Y-42458406D01*
X130607906Y-42512280D01*
X130580969Y-42593093D01*
X130365470Y-42808592D01*
X130661781Y-42027407D02*
X130661781Y-41973532D01*
X130688719Y-41892720D01*
X130823406Y-41758033D01*
X130904218Y-41731096D01*
X130958093Y-41731096D01*
X131038905Y-41758033D01*
X131092780Y-41811908D01*
X131146654Y-41919658D01*
X131146654Y-42566155D01*
X131496841Y-42215969D01*
X131496841Y-41569471D02*
X131416028Y-41596409D01*
X131362154Y-41596409D01*
X131281341Y-41569471D01*
X131254404Y-41542534D01*
X131227467Y-41461722D01*
X131227467Y-41407847D01*
X131254404Y-41327035D01*
X131362154Y-41219285D01*
X131442966Y-41192348D01*
X131496841Y-41192348D01*
X131577653Y-41219285D01*
X131604590Y-41246223D01*
X131631528Y-41327035D01*
X131631528Y-41380910D01*
X131604590Y-41461722D01*
X131496841Y-41569471D01*
X131469903Y-41650284D01*
X131469903Y-41704158D01*
X131496841Y-41784971D01*
X131604590Y-41892720D01*
X131685402Y-41919658D01*
X131739277Y-41919658D01*
X131820089Y-41892720D01*
X131927839Y-41784971D01*
X131954776Y-41704158D01*
X131954776Y-41650284D01*
X131927839Y-41569471D01*
X131820089Y-41461722D01*
X131739277Y-41434784D01*
X131685402Y-41434784D01*
X131604590Y-41461722D01*
X129883788Y-41095773D02*
X130153162Y-40826399D01*
X129991537Y-41311272D02*
X129614414Y-40557025D01*
X130368661Y-40934149D01*
X130557223Y-40745587D02*
X129991537Y-40179902D01*
X130126224Y-40045215D01*
X130233974Y-39991340D01*
X130341723Y-39991340D01*
X130422536Y-40018277D01*
X130557223Y-40099089D01*
X130638035Y-40179902D01*
X130718847Y-40314589D01*
X130745784Y-40395401D01*
X130745784Y-40503150D01*
X130691910Y-40610900D01*
X130557223Y-40745587D01*
X131392282Y-39802778D02*
X131392282Y-39856653D01*
X131338407Y-39964402D01*
X131284532Y-40018277D01*
X131176783Y-40072152D01*
X131069033Y-40072152D01*
X130988221Y-40045215D01*
X130853534Y-39964402D01*
X130772722Y-39883590D01*
X130691910Y-39748903D01*
X130664972Y-39668091D01*
X130664972Y-39560341D01*
X130718847Y-39452592D01*
X130772722Y-39398717D01*
X130880471Y-39344842D01*
X130934346Y-39344842D01*
X131607781Y-39802778D02*
X132038780Y-39371780D01*
X131473094Y-38698345D02*
X132227341Y-39075468D01*
X131850218Y-38321221D01*
X132927714Y-38375096D02*
X132469778Y-38294284D01*
X132604465Y-38698345D02*
X132038780Y-38132659D01*
X132254279Y-37917160D01*
X132335091Y-37890223D01*
X132388966Y-37890223D01*
X132469778Y-37917160D01*
X132550590Y-37997972D01*
X132577528Y-38078784D01*
X132577528Y-38132659D01*
X132550590Y-38213471D01*
X132335091Y-38428971D01*
X132873839Y-37836348D02*
X133062401Y-37647786D01*
X133439524Y-37863285D02*
X133170150Y-38132659D01*
X132604465Y-37566974D01*
X132873839Y-37297600D01*
X133574211Y-37135975D02*
X133385650Y-37324537D01*
X133681961Y-37620849D02*
X133116276Y-37055163D01*
X133385650Y-36785789D01*
X129618847Y-38052592D02*
X129969033Y-37702406D01*
X129995971Y-38106467D01*
X130076783Y-38025654D01*
X130157595Y-37998717D01*
X130211470Y-37998717D01*
X130292282Y-38025654D01*
X130426969Y-38160341D01*
X130453906Y-38241154D01*
X130453906Y-38295028D01*
X130426969Y-38375841D01*
X130265345Y-38537465D01*
X130184532Y-38564402D01*
X130130658Y-38564402D01*
X130130658Y-37540781D02*
X130884905Y-37917905D01*
X130507781Y-37163658D01*
X130642468Y-37028971D02*
X130992654Y-36678784D01*
X131019592Y-37082845D01*
X131100404Y-37002033D01*
X131181216Y-36975096D01*
X131235091Y-36975096D01*
X131315903Y-37002033D01*
X131450590Y-37136720D01*
X131477528Y-37217532D01*
X131477528Y-37271407D01*
X131450590Y-37352219D01*
X131288966Y-37513844D01*
X131208154Y-37540781D01*
X131154279Y-37540781D01*
X129651131Y-35520308D02*
X130001317Y-35170122D01*
X130028255Y-35574183D01*
X130109067Y-35493370D01*
X130189879Y-35466433D01*
X130243754Y-35466433D01*
X130324566Y-35493370D01*
X130459253Y-35628057D01*
X130486190Y-35708870D01*
X130486190Y-35762744D01*
X130459253Y-35843557D01*
X130297629Y-36005181D01*
X130216816Y-36032118D01*
X130162942Y-36032118D01*
X130162942Y-35008497D02*
X130917189Y-35385621D01*
X130540065Y-34631374D01*
X130674752Y-34496687D02*
X131024938Y-34146500D01*
X131051876Y-34550561D01*
X131132688Y-34469749D01*
X131213500Y-34442812D01*
X131267375Y-34442812D01*
X131348187Y-34469749D01*
X131482874Y-34604436D01*
X131509812Y-34685248D01*
X131509812Y-34739123D01*
X131482874Y-34819935D01*
X131321250Y-34981560D01*
X131240438Y-35008497D01*
X131186563Y-35008497D01*
X131752248Y-34658311D02*
X132183247Y-34227312D01*
X131967748Y-33742439D02*
X132156309Y-33553877D01*
X132533433Y-33769377D02*
X132264059Y-34038751D01*
X131698374Y-33473065D01*
X131967748Y-33203691D01*
X132775870Y-33526940D02*
X132210184Y-32961255D01*
X133099118Y-33203691D01*
X132533433Y-32638006D01*
X129649473Y-30631966D02*
X130403720Y-31009089D01*
X130026597Y-30254842D01*
X130726969Y-30631966D02*
X130834719Y-30578091D01*
X130969406Y-30443404D01*
X130996343Y-30362592D01*
X130996343Y-30308717D01*
X130969406Y-30227905D01*
X130915531Y-30174030D01*
X130834719Y-30147093D01*
X130780844Y-30147093D01*
X130700032Y-30174030D01*
X130565345Y-30254842D01*
X130484532Y-30281780D01*
X130430658Y-30281780D01*
X130349845Y-30254842D01*
X130295971Y-30200967D01*
X130269033Y-30120155D01*
X130269033Y-30066280D01*
X130295971Y-29985468D01*
X130430658Y-29850781D01*
X130538407Y-29796906D01*
X131157967Y-29716094D02*
X131427341Y-29985468D01*
X130673094Y-29608345D02*
X131157967Y-29716094D01*
X131050218Y-29231221D01*
X131750590Y-29608345D02*
X131858340Y-29554470D01*
X131993027Y-29419783D01*
X132019964Y-29338971D01*
X132019964Y-29285096D01*
X131993027Y-29204284D01*
X131939152Y-29150409D01*
X131858340Y-29123471D01*
X131804465Y-29123471D01*
X131723653Y-29150409D01*
X131588966Y-29231221D01*
X131508154Y-29258158D01*
X131454279Y-29258158D01*
X131373467Y-29231221D01*
X131319592Y-29177346D01*
X131292654Y-29096534D01*
X131292654Y-29042659D01*
X131319592Y-28961847D01*
X131454279Y-28827160D01*
X131562028Y-28773285D01*
X129682129Y-28089309D02*
X130436377Y-28466433D01*
X130059253Y-27712186D01*
X130705751Y-27604436D02*
X130813500Y-27550561D01*
X130867375Y-27550561D01*
X130948187Y-27577499D01*
X131028999Y-27658311D01*
X131055937Y-27739123D01*
X131055937Y-27792998D01*
X131029000Y-27873810D01*
X130813500Y-28089309D01*
X130247815Y-27523624D01*
X130436377Y-27335062D01*
X130517189Y-27308125D01*
X130571064Y-27308125D01*
X130651876Y-27335062D01*
X130705751Y-27388937D01*
X130732688Y-27469749D01*
X130732688Y-27523624D01*
X130705751Y-27604436D01*
X130517189Y-27792998D01*
X130813500Y-26957938D02*
X131271436Y-27415874D01*
X131352248Y-27442812D01*
X131406123Y-27442812D01*
X131486935Y-27415874D01*
X131594685Y-27308125D01*
X131621622Y-27227312D01*
X131621622Y-27173438D01*
X131594685Y-27092625D01*
X131136749Y-26634690D01*
X131917934Y-26931001D02*
X132025683Y-26877126D01*
X132160370Y-26742439D01*
X132187308Y-26661627D01*
X132187308Y-26607752D01*
X132160370Y-26526940D01*
X132106496Y-26473065D01*
X132025683Y-26446128D01*
X131971809Y-26446128D01*
X131890996Y-26473065D01*
X131756309Y-26553877D01*
X131675497Y-26580815D01*
X131621622Y-26580815D01*
X131540810Y-26553877D01*
X131486935Y-26500003D01*
X131459998Y-26419190D01*
X131459998Y-26365316D01*
X131486935Y-26284503D01*
X131621622Y-26149816D01*
X131729372Y-26095942D01*
X104215158Y-32660155D02*
X104134346Y-32687093D01*
X104053534Y-32767905D01*
X103999659Y-32875654D01*
X103999659Y-32983404D01*
X104026597Y-33064216D01*
X104107409Y-33198903D01*
X104188221Y-33279715D01*
X104322908Y-33360528D01*
X104403720Y-33387465D01*
X104511470Y-33387465D01*
X104619219Y-33333590D01*
X104673094Y-33279715D01*
X104726969Y-33171966D01*
X104726969Y-33118091D01*
X104538407Y-32929529D01*
X104430658Y-33037279D01*
X105023280Y-32929529D02*
X104457595Y-32363844D01*
X105346529Y-32606280D01*
X104780844Y-32040595D01*
X105615903Y-32336906D02*
X105050218Y-31771221D01*
X105184905Y-31636534D01*
X105292654Y-31582659D01*
X105400404Y-31582659D01*
X105481216Y-31609597D01*
X105615903Y-31690409D01*
X105696715Y-31771221D01*
X105777528Y-31905908D01*
X105804465Y-31986720D01*
X105804465Y-32094470D01*
X105750590Y-32202219D01*
X105615903Y-32336906D01*
X104215158Y-45360155D02*
X104134346Y-45387093D01*
X104053534Y-45467905D01*
X103999659Y-45575654D01*
X103999659Y-45683404D01*
X104026597Y-45764216D01*
X104107409Y-45898903D01*
X104188221Y-45979715D01*
X104322908Y-46060528D01*
X104403720Y-46087465D01*
X104511470Y-46087465D01*
X104619219Y-46033590D01*
X104673094Y-45979715D01*
X104726969Y-45871966D01*
X104726969Y-45818091D01*
X104538407Y-45629529D01*
X104430658Y-45737279D01*
X105023280Y-45629529D02*
X104457595Y-45063844D01*
X105346529Y-45306280D01*
X104780844Y-44740595D01*
X105615903Y-45036906D02*
X105050218Y-44471221D01*
X105184905Y-44336534D01*
X105292654Y-44282659D01*
X105400404Y-44282659D01*
X105481216Y-44309597D01*
X105615903Y-44390409D01*
X105696715Y-44471221D01*
X105777528Y-44605908D01*
X105804465Y-44686720D01*
X105804465Y-44794470D01*
X105750590Y-44902219D01*
X105615903Y-45036906D01*
X104215158Y-58060155D02*
X104134346Y-58087093D01*
X104053534Y-58167905D01*
X103999659Y-58275654D01*
X103999659Y-58383404D01*
X104026597Y-58464216D01*
X104107409Y-58598903D01*
X104188221Y-58679715D01*
X104322908Y-58760528D01*
X104403720Y-58787465D01*
X104511470Y-58787465D01*
X104619219Y-58733590D01*
X104673094Y-58679715D01*
X104726969Y-58571966D01*
X104726969Y-58518091D01*
X104538407Y-58329529D01*
X104430658Y-58437279D01*
X105023280Y-58329529D02*
X104457595Y-57763844D01*
X105346529Y-58006280D01*
X104780844Y-57440595D01*
X105615903Y-57736906D02*
X105050218Y-57171221D01*
X105184905Y-57036534D01*
X105292654Y-56982659D01*
X105400404Y-56982659D01*
X105481216Y-57009597D01*
X105615903Y-57090409D01*
X105696715Y-57171221D01*
X105777528Y-57305908D01*
X105804465Y-57386720D01*
X105804465Y-57494470D01*
X105750590Y-57602219D01*
X105615903Y-57736906D01*
X104215158Y-70760155D02*
X104134346Y-70787093D01*
X104053534Y-70867905D01*
X103999659Y-70975654D01*
X103999659Y-71083404D01*
X104026597Y-71164216D01*
X104107409Y-71298903D01*
X104188221Y-71379715D01*
X104322908Y-71460528D01*
X104403720Y-71487465D01*
X104511470Y-71487465D01*
X104619219Y-71433590D01*
X104673094Y-71379715D01*
X104726969Y-71271966D01*
X104726969Y-71218091D01*
X104538407Y-71029529D01*
X104430658Y-71137279D01*
X105023280Y-71029529D02*
X104457595Y-70463844D01*
X105346529Y-70706280D01*
X104780844Y-70140595D01*
X105615903Y-70436906D02*
X105050218Y-69871221D01*
X105184905Y-69736534D01*
X105292654Y-69682659D01*
X105400404Y-69682659D01*
X105481216Y-69709597D01*
X105615903Y-69790409D01*
X105696715Y-69871221D01*
X105777528Y-70005908D01*
X105804465Y-70086720D01*
X105804465Y-70194470D01*
X105750590Y-70302219D01*
X105615903Y-70436906D01*
X129815158Y-70760155D02*
X129734346Y-70787093D01*
X129653534Y-70867905D01*
X129599659Y-70975654D01*
X129599659Y-71083404D01*
X129626597Y-71164216D01*
X129707409Y-71298903D01*
X129788221Y-71379715D01*
X129922908Y-71460528D01*
X130003720Y-71487465D01*
X130111470Y-71487465D01*
X130219219Y-71433590D01*
X130273094Y-71379715D01*
X130326969Y-71271966D01*
X130326969Y-71218091D01*
X130138407Y-71029529D01*
X130030658Y-71137279D01*
X130623280Y-71029529D02*
X130057595Y-70463844D01*
X130946529Y-70706280D01*
X130380844Y-70140595D01*
X131215903Y-70436906D02*
X130650218Y-69871221D01*
X130784905Y-69736534D01*
X130892654Y-69682659D01*
X131000404Y-69682659D01*
X131081216Y-69709597D01*
X131215903Y-69790409D01*
X131296715Y-69871221D01*
X131377528Y-70005908D01*
X131404465Y-70086720D01*
X131404465Y-70194470D01*
X131350590Y-70302219D01*
X131215903Y-70436906D01*
X129815158Y-58060155D02*
X129734346Y-58087093D01*
X129653534Y-58167905D01*
X129599659Y-58275654D01*
X129599659Y-58383404D01*
X129626597Y-58464216D01*
X129707409Y-58598903D01*
X129788221Y-58679715D01*
X129922908Y-58760528D01*
X130003720Y-58787465D01*
X130111470Y-58787465D01*
X130219219Y-58733590D01*
X130273094Y-58679715D01*
X130326969Y-58571966D01*
X130326969Y-58518091D01*
X130138407Y-58329529D01*
X130030658Y-58437279D01*
X130623280Y-58329529D02*
X130057595Y-57763844D01*
X130946529Y-58006280D01*
X130380844Y-57440595D01*
X131215903Y-57736906D02*
X130650218Y-57171221D01*
X130784905Y-57036534D01*
X130892654Y-56982659D01*
X131000404Y-56982659D01*
X131081216Y-57009597D01*
X131215903Y-57090409D01*
X131296715Y-57171221D01*
X131377528Y-57305908D01*
X131404465Y-57386720D01*
X131404465Y-57494470D01*
X131350590Y-57602219D01*
X131215903Y-57736906D01*
X129815158Y-32660155D02*
X129734346Y-32687093D01*
X129653534Y-32767905D01*
X129599659Y-32875654D01*
X129599659Y-32983404D01*
X129626597Y-33064216D01*
X129707409Y-33198903D01*
X129788221Y-33279715D01*
X129922908Y-33360528D01*
X130003720Y-33387465D01*
X130111470Y-33387465D01*
X130219219Y-33333590D01*
X130273094Y-33279715D01*
X130326969Y-33171966D01*
X130326969Y-33118091D01*
X130138407Y-32929529D01*
X130030658Y-33037279D01*
X130623280Y-32929529D02*
X130057595Y-32363844D01*
X130946529Y-32606280D01*
X130380844Y-32040595D01*
X131215903Y-32336906D02*
X130650218Y-31771221D01*
X130784905Y-31636534D01*
X130892654Y-31582659D01*
X131000404Y-31582659D01*
X131081216Y-31609597D01*
X131215903Y-31690409D01*
X131296715Y-31771221D01*
X131377528Y-31905908D01*
X131404465Y-31986720D01*
X131404465Y-32094470D01*
X131350590Y-32202219D01*
X131215903Y-32336906D01*
X129880597Y-46302964D02*
X130149971Y-46033590D01*
X129988346Y-46518463D02*
X129611223Y-45764216D01*
X130365470Y-46141340D01*
X130311595Y-45117719D02*
X130230783Y-45144656D01*
X130149971Y-45225468D01*
X130096096Y-45333218D01*
X130096096Y-45440967D01*
X130123033Y-45521780D01*
X130203845Y-45656467D01*
X130284658Y-45737279D01*
X130419345Y-45818091D01*
X130500157Y-45845028D01*
X130607906Y-45845028D01*
X130715656Y-45791154D01*
X130769531Y-45737279D01*
X130823406Y-45629529D01*
X130823406Y-45575654D01*
X130634844Y-45387093D01*
X130527094Y-45494842D01*
X131119717Y-45387093D02*
X130554032Y-44821407D01*
X131442966Y-45063844D01*
X130877280Y-44498158D01*
X131712340Y-44794470D02*
X131146654Y-44228784D01*
X131281341Y-44094097D01*
X131389091Y-44040223D01*
X131496841Y-44040223D01*
X131577653Y-44067160D01*
X131712340Y-44147972D01*
X131793152Y-44228784D01*
X131873964Y-44363471D01*
X131900902Y-44444284D01*
X131900902Y-44552033D01*
X131847027Y-44659783D01*
X131712340Y-44794470D01*
X110219476Y-78085809D02*
X110333761Y-78123904D01*
X110524238Y-78123904D01*
X110600428Y-78085809D01*
X110638523Y-78047714D01*
X110676619Y-77971523D01*
X110676619Y-77895333D01*
X110638523Y-77819142D01*
X110600428Y-77781047D01*
X110524238Y-77742952D01*
X110371857Y-77704857D01*
X110295666Y-77666761D01*
X110257571Y-77628666D01*
X110219476Y-77552476D01*
X110219476Y-77476285D01*
X110257571Y-77400095D01*
X110295666Y-77362000D01*
X110371857Y-77323904D01*
X110562333Y-77323904D01*
X110676619Y-77362000D01*
X110943285Y-77323904D02*
X111133761Y-78123904D01*
X111286142Y-77552476D01*
X111438523Y-78123904D01*
X111629000Y-77323904D01*
X112390904Y-78047714D02*
X112352809Y-78085809D01*
X112238523Y-78123904D01*
X112162333Y-78123904D01*
X112048047Y-78085809D01*
X111971857Y-78009619D01*
X111933761Y-77933428D01*
X111895666Y-77781047D01*
X111895666Y-77666761D01*
X111933761Y-77514380D01*
X111971857Y-77438190D01*
X112048047Y-77362000D01*
X112162333Y-77323904D01*
X112238523Y-77323904D01*
X112352809Y-77362000D01*
X112390904Y-77400095D01*
X113114714Y-78123904D02*
X112733761Y-78123904D01*
X112733761Y-77323904D01*
X113381380Y-78123904D02*
X113381380Y-77323904D01*
X113838523Y-78123904D02*
X113495666Y-77666761D01*
X113838523Y-77323904D02*
X113381380Y-77781047D01*
X121633761Y-78085809D02*
X121748047Y-78123904D01*
X121938523Y-78123904D01*
X122014714Y-78085809D01*
X122052809Y-78047714D01*
X122090904Y-77971523D01*
X122090904Y-77895333D01*
X122052809Y-77819142D01*
X122014714Y-77781047D01*
X121938523Y-77742952D01*
X121786142Y-77704857D01*
X121709952Y-77666761D01*
X121671857Y-77628666D01*
X121633761Y-77552476D01*
X121633761Y-77476285D01*
X121671857Y-77400095D01*
X121709952Y-77362000D01*
X121786142Y-77323904D01*
X121976619Y-77323904D01*
X122090904Y-77362000D01*
X122357571Y-77323904D02*
X122548047Y-78123904D01*
X122700428Y-77552476D01*
X122852809Y-78123904D01*
X123043285Y-77323904D01*
X123348047Y-78123904D02*
X123348047Y-77323904D01*
X123538523Y-77323904D01*
X123652809Y-77362000D01*
X123729000Y-77438190D01*
X123767095Y-77514380D01*
X123805190Y-77666761D01*
X123805190Y-77781047D01*
X123767095Y-77933428D01*
X123729000Y-78009619D01*
X123652809Y-78085809D01*
X123538523Y-78123904D01*
X123348047Y-78123904D01*
X124148047Y-78123904D02*
X124148047Y-77323904D01*
X124681380Y-77323904D02*
X124833761Y-77323904D01*
X124909952Y-77362000D01*
X124986142Y-77438190D01*
X125024238Y-77590571D01*
X125024238Y-77857238D01*
X124986142Y-78009619D01*
X124909952Y-78085809D01*
X124833761Y-78123904D01*
X124681380Y-78123904D01*
X124605190Y-78085809D01*
X124529000Y-78009619D01*
X124490904Y-77857238D01*
X124490904Y-77590571D01*
X124529000Y-77438190D01*
X124605190Y-77362000D01*
X124681380Y-77323904D01*
G04 #@! TO.C,J5*
D11*
X94341428Y-43858571D02*
X94341428Y-42358571D01*
X94984285Y-42501428D02*
X95055714Y-42430000D01*
X95198571Y-42358571D01*
X95555714Y-42358571D01*
X95698571Y-42430000D01*
X95770000Y-42501428D01*
X95841428Y-42644285D01*
X95841428Y-42787142D01*
X95770000Y-43001428D01*
X94912857Y-43858571D01*
X95841428Y-43858571D01*
X97341428Y-43715714D02*
X97270000Y-43787142D01*
X97055714Y-43858571D01*
X96912857Y-43858571D01*
X96698571Y-43787142D01*
X96555714Y-43644285D01*
X96484285Y-43501428D01*
X96412857Y-43215714D01*
X96412857Y-43001428D01*
X96484285Y-42715714D01*
X96555714Y-42572857D01*
X96698571Y-42430000D01*
X96912857Y-42358571D01*
X97055714Y-42358571D01*
X97270000Y-42430000D01*
X97341428Y-42501428D01*
X98270000Y-42358571D02*
X98412857Y-42358571D01*
X98555714Y-42430000D01*
X98627142Y-42501428D01*
X98698571Y-42644285D01*
X98770000Y-42930000D01*
X98770000Y-43287142D01*
X98698571Y-43572857D01*
X98627142Y-43715714D01*
X98555714Y-43787142D01*
X98412857Y-43858571D01*
X98270000Y-43858571D01*
X98127142Y-43787142D01*
X98055714Y-43715714D01*
X97984285Y-43572857D01*
X97912857Y-43287142D01*
X97912857Y-42930000D01*
X97984285Y-42644285D01*
X98055714Y-42501428D01*
X98127142Y-42430000D01*
X98270000Y-42358571D01*
G04 #@! TO.C,J6*
X86721428Y-43858571D02*
X86721428Y-42358571D01*
X87364285Y-42501428D02*
X87435714Y-42430000D01*
X87578571Y-42358571D01*
X87935714Y-42358571D01*
X88078571Y-42430000D01*
X88150000Y-42501428D01*
X88221428Y-42644285D01*
X88221428Y-42787142D01*
X88150000Y-43001428D01*
X87292857Y-43858571D01*
X88221428Y-43858571D01*
X89721428Y-43715714D02*
X89650000Y-43787142D01*
X89435714Y-43858571D01*
X89292857Y-43858571D01*
X89078571Y-43787142D01*
X88935714Y-43644285D01*
X88864285Y-43501428D01*
X88792857Y-43215714D01*
X88792857Y-43001428D01*
X88864285Y-42715714D01*
X88935714Y-42572857D01*
X89078571Y-42430000D01*
X89292857Y-42358571D01*
X89435714Y-42358571D01*
X89650000Y-42430000D01*
X89721428Y-42501428D01*
X90650000Y-42358571D02*
X90792857Y-42358571D01*
X90935714Y-42430000D01*
X91007142Y-42501428D01*
X91078571Y-42644285D01*
X91150000Y-42930000D01*
X91150000Y-43287142D01*
X91078571Y-43572857D01*
X91007142Y-43715714D01*
X90935714Y-43787142D01*
X90792857Y-43858571D01*
X90650000Y-43858571D01*
X90507142Y-43787142D01*
X90435714Y-43715714D01*
X90364285Y-43572857D01*
X90292857Y-43287142D01*
X90292857Y-42930000D01*
X90364285Y-42644285D01*
X90435714Y-42501428D01*
X90507142Y-42430000D01*
X90650000Y-42358571D01*
G04 #@! TO.C,J7*
X79101428Y-43858571D02*
X79101428Y-42358571D01*
X79744285Y-42501428D02*
X79815714Y-42430000D01*
X79958571Y-42358571D01*
X80315714Y-42358571D01*
X80458571Y-42430000D01*
X80530000Y-42501428D01*
X80601428Y-42644285D01*
X80601428Y-42787142D01*
X80530000Y-43001428D01*
X79672857Y-43858571D01*
X80601428Y-43858571D01*
X82101428Y-43715714D02*
X82030000Y-43787142D01*
X81815714Y-43858571D01*
X81672857Y-43858571D01*
X81458571Y-43787142D01*
X81315714Y-43644285D01*
X81244285Y-43501428D01*
X81172857Y-43215714D01*
X81172857Y-43001428D01*
X81244285Y-42715714D01*
X81315714Y-42572857D01*
X81458571Y-42430000D01*
X81672857Y-42358571D01*
X81815714Y-42358571D01*
X82030000Y-42430000D01*
X82101428Y-42501428D01*
X83030000Y-42358571D02*
X83172857Y-42358571D01*
X83315714Y-42430000D01*
X83387142Y-42501428D01*
X83458571Y-42644285D01*
X83530000Y-42930000D01*
X83530000Y-43287142D01*
X83458571Y-43572857D01*
X83387142Y-43715714D01*
X83315714Y-43787142D01*
X83172857Y-43858571D01*
X83030000Y-43858571D01*
X82887142Y-43787142D01*
X82815714Y-43715714D01*
X82744285Y-43572857D01*
X82672857Y-43287142D01*
X82672857Y-42930000D01*
X82744285Y-42644285D01*
X82815714Y-42501428D01*
X82887142Y-42430000D01*
X83030000Y-42358571D01*
G04 #@! TO.C,J8*
X83252857Y-26483571D02*
X83252857Y-27697857D01*
X83324285Y-27840714D01*
X83395714Y-27912142D01*
X83538571Y-27983571D01*
X83824285Y-27983571D01*
X83967142Y-27912142D01*
X84038571Y-27840714D01*
X84110000Y-27697857D01*
X84110000Y-26483571D01*
X84752857Y-27555000D02*
X85467142Y-27555000D01*
X84610000Y-27983571D02*
X85110000Y-26483571D01*
X85610000Y-27983571D01*
X86967142Y-27983571D02*
X86467142Y-27269285D01*
X86110000Y-27983571D02*
X86110000Y-26483571D01*
X86681428Y-26483571D01*
X86824285Y-26555000D01*
X86895714Y-26626428D01*
X86967142Y-26769285D01*
X86967142Y-26983571D01*
X86895714Y-27126428D01*
X86824285Y-27197857D01*
X86681428Y-27269285D01*
X86110000Y-27269285D01*
X87395714Y-26483571D02*
X88252857Y-26483571D01*
X87824285Y-27983571D02*
X87824285Y-26483571D01*
X89038571Y-26483571D02*
X89181428Y-26483571D01*
X89324285Y-26555000D01*
X89395714Y-26626428D01*
X89467142Y-26769285D01*
X89538571Y-27055000D01*
X89538571Y-27412142D01*
X89467142Y-27697857D01*
X89395714Y-27840714D01*
X89324285Y-27912142D01*
X89181428Y-27983571D01*
X89038571Y-27983571D01*
X88895714Y-27912142D01*
X88824285Y-27840714D01*
X88752857Y-27697857D01*
X88681428Y-27412142D01*
X88681428Y-27055000D01*
X88752857Y-26769285D01*
X88824285Y-26626428D01*
X88895714Y-26555000D01*
X89038571Y-26483571D01*
G04 #@! TO.C,J9*
X157770000Y-49502142D02*
X157984285Y-49573571D01*
X158341428Y-49573571D01*
X158484285Y-49502142D01*
X158555714Y-49430714D01*
X158627142Y-49287857D01*
X158627142Y-49145000D01*
X158555714Y-49002142D01*
X158484285Y-48930714D01*
X158341428Y-48859285D01*
X158055714Y-48787857D01*
X157912857Y-48716428D01*
X157841428Y-48645000D01*
X157770000Y-48502142D01*
X157770000Y-48359285D01*
X157841428Y-48216428D01*
X157912857Y-48145000D01*
X158055714Y-48073571D01*
X158412857Y-48073571D01*
X158627142Y-48145000D01*
X159270000Y-49573571D02*
X159270000Y-48073571D01*
X159841428Y-48073571D01*
X159984285Y-48145000D01*
X160055714Y-48216428D01*
X160127142Y-48359285D01*
X160127142Y-48573571D01*
X160055714Y-48716428D01*
X159984285Y-48787857D01*
X159841428Y-48859285D01*
X159270000Y-48859285D01*
X160770000Y-49573571D02*
X160770000Y-48073571D01*
X161770000Y-48073571D02*
X161912857Y-48073571D01*
X162055714Y-48145000D01*
X162127142Y-48216428D01*
X162198571Y-48359285D01*
X162270000Y-48645000D01*
X162270000Y-49002142D01*
X162198571Y-49287857D01*
X162127142Y-49430714D01*
X162055714Y-49502142D01*
X161912857Y-49573571D01*
X161770000Y-49573571D01*
X161627142Y-49502142D01*
X161555714Y-49430714D01*
X161484285Y-49287857D01*
X161412857Y-49002142D01*
X161412857Y-48645000D01*
X161484285Y-48359285D01*
X161555714Y-48216428D01*
X161627142Y-48145000D01*
X161770000Y-48073571D01*
G04 #@! TO.C,J10*
X147610000Y-49502142D02*
X147824285Y-49573571D01*
X148181428Y-49573571D01*
X148324285Y-49502142D01*
X148395714Y-49430714D01*
X148467142Y-49287857D01*
X148467142Y-49145000D01*
X148395714Y-49002142D01*
X148324285Y-48930714D01*
X148181428Y-48859285D01*
X147895714Y-48787857D01*
X147752857Y-48716428D01*
X147681428Y-48645000D01*
X147610000Y-48502142D01*
X147610000Y-48359285D01*
X147681428Y-48216428D01*
X147752857Y-48145000D01*
X147895714Y-48073571D01*
X148252857Y-48073571D01*
X148467142Y-48145000D01*
X149110000Y-49573571D02*
X149110000Y-48073571D01*
X149681428Y-48073571D01*
X149824285Y-48145000D01*
X149895714Y-48216428D01*
X149967142Y-48359285D01*
X149967142Y-48573571D01*
X149895714Y-48716428D01*
X149824285Y-48787857D01*
X149681428Y-48859285D01*
X149110000Y-48859285D01*
X150610000Y-49573571D02*
X150610000Y-48073571D01*
X151610000Y-48073571D02*
X151752857Y-48073571D01*
X151895714Y-48145000D01*
X151967142Y-48216428D01*
X152038571Y-48359285D01*
X152110000Y-48645000D01*
X152110000Y-49002142D01*
X152038571Y-49287857D01*
X151967142Y-49430714D01*
X151895714Y-49502142D01*
X151752857Y-49573571D01*
X151610000Y-49573571D01*
X151467142Y-49502142D01*
X151395714Y-49430714D01*
X151324285Y-49287857D01*
X151252857Y-49002142D01*
X151252857Y-48645000D01*
X151324285Y-48359285D01*
X151395714Y-48216428D01*
X151467142Y-48145000D01*
X151610000Y-48073571D01*
G04 #@! TO.C,J11*
X142645000Y-39255000D02*
X142502142Y-39183571D01*
X142287857Y-39183571D01*
X142073571Y-39255000D01*
X141930714Y-39397857D01*
X141859285Y-39540714D01*
X141787857Y-39826428D01*
X141787857Y-40040714D01*
X141859285Y-40326428D01*
X141930714Y-40469285D01*
X142073571Y-40612142D01*
X142287857Y-40683571D01*
X142430714Y-40683571D01*
X142645000Y-40612142D01*
X142716428Y-40540714D01*
X142716428Y-40040714D01*
X142430714Y-40040714D01*
X143359285Y-40683571D02*
X143359285Y-39183571D01*
X143930714Y-39183571D01*
X144073571Y-39255000D01*
X144145000Y-39326428D01*
X144216428Y-39469285D01*
X144216428Y-39683571D01*
X144145000Y-39826428D01*
X144073571Y-39897857D01*
X143930714Y-39969285D01*
X143359285Y-39969285D01*
X144859285Y-40683571D02*
X144859285Y-39183571D01*
X145859285Y-39183571D02*
X146145000Y-39183571D01*
X146287857Y-39255000D01*
X146430714Y-39397857D01*
X146502142Y-39683571D01*
X146502142Y-40183571D01*
X146430714Y-40469285D01*
X146287857Y-40612142D01*
X146145000Y-40683571D01*
X145859285Y-40683571D01*
X145716428Y-40612142D01*
X145573571Y-40469285D01*
X145502142Y-40183571D01*
X145502142Y-39683571D01*
X145573571Y-39397857D01*
X145716428Y-39255000D01*
X145859285Y-39183571D01*
G04 #@! TO.C,J12*
X91476428Y-77442142D02*
X91690714Y-77513571D01*
X92047857Y-77513571D01*
X92190714Y-77442142D01*
X92262142Y-77370714D01*
X92333571Y-77227857D01*
X92333571Y-77085000D01*
X92262142Y-76942142D01*
X92190714Y-76870714D01*
X92047857Y-76799285D01*
X91762142Y-76727857D01*
X91619285Y-76656428D01*
X91547857Y-76585000D01*
X91476428Y-76442142D01*
X91476428Y-76299285D01*
X91547857Y-76156428D01*
X91619285Y-76085000D01*
X91762142Y-76013571D01*
X92119285Y-76013571D01*
X92333571Y-76085000D01*
X92976428Y-77513571D02*
X92976428Y-76013571D01*
X93547857Y-76013571D01*
X93690714Y-76085000D01*
X93762142Y-76156428D01*
X93833571Y-76299285D01*
X93833571Y-76513571D01*
X93762142Y-76656428D01*
X93690714Y-76727857D01*
X93547857Y-76799285D01*
X92976428Y-76799285D01*
X94476428Y-77513571D02*
X94476428Y-76013571D01*
X95976428Y-77513571D02*
X95119285Y-77513571D01*
X95547857Y-77513571D02*
X95547857Y-76013571D01*
X95405000Y-76227857D01*
X95262142Y-76370714D01*
X95119285Y-76442142D01*
X97690714Y-75942142D02*
X96405000Y-77870714D01*
X98976428Y-76085000D02*
X98833571Y-76013571D01*
X98619285Y-76013571D01*
X98405000Y-76085000D01*
X98262142Y-76227857D01*
X98190714Y-76370714D01*
X98119285Y-76656428D01*
X98119285Y-76870714D01*
X98190714Y-77156428D01*
X98262142Y-77299285D01*
X98405000Y-77442142D01*
X98619285Y-77513571D01*
X98762142Y-77513571D01*
X98976428Y-77442142D01*
X99047857Y-77370714D01*
X99047857Y-76870714D01*
X98762142Y-76870714D01*
X99690714Y-77513571D02*
X99690714Y-76013571D01*
X100262142Y-76013571D01*
X100405000Y-76085000D01*
X100476428Y-76156428D01*
X100547857Y-76299285D01*
X100547857Y-76513571D01*
X100476428Y-76656428D01*
X100405000Y-76727857D01*
X100262142Y-76799285D01*
X99690714Y-76799285D01*
X101190714Y-77513571D02*
X101190714Y-76013571D01*
X102190714Y-76013571D02*
X102476428Y-76013571D01*
X102619285Y-76085000D01*
X102762142Y-76227857D01*
X102833571Y-76513571D01*
X102833571Y-77013571D01*
X102762142Y-77299285D01*
X102619285Y-77442142D01*
X102476428Y-77513571D01*
X102190714Y-77513571D01*
X102047857Y-77442142D01*
X101905000Y-77299285D01*
X101833571Y-77013571D01*
X101833571Y-76513571D01*
X101905000Y-76227857D01*
X102047857Y-76085000D01*
X102190714Y-76013571D01*
G04 #@! TO.C,R2*
D14*
X91806733Y-84070180D02*
X91473400Y-83593990D01*
X91235304Y-84070180D02*
X91235304Y-83070180D01*
X91616257Y-83070180D01*
X91711495Y-83117800D01*
X91759114Y-83165419D01*
X91806733Y-83260657D01*
X91806733Y-83403514D01*
X91759114Y-83498752D01*
X91711495Y-83546371D01*
X91616257Y-83593990D01*
X91235304Y-83593990D01*
X92187685Y-83165419D02*
X92235304Y-83117800D01*
X92330542Y-83070180D01*
X92568638Y-83070180D01*
X92663876Y-83117800D01*
X92711495Y-83165419D01*
X92759114Y-83260657D01*
X92759114Y-83355895D01*
X92711495Y-83498752D01*
X92140066Y-84070180D01*
X92759114Y-84070180D01*
G04 #@! TO.C,R3*
X108231533Y-84146380D02*
X107898200Y-83670190D01*
X107660104Y-84146380D02*
X107660104Y-83146380D01*
X108041057Y-83146380D01*
X108136295Y-83194000D01*
X108183914Y-83241619D01*
X108231533Y-83336857D01*
X108231533Y-83479714D01*
X108183914Y-83574952D01*
X108136295Y-83622571D01*
X108041057Y-83670190D01*
X107660104Y-83670190D01*
X108564866Y-83146380D02*
X109183914Y-83146380D01*
X108850580Y-83527333D01*
X108993438Y-83527333D01*
X109088676Y-83574952D01*
X109136295Y-83622571D01*
X109183914Y-83717809D01*
X109183914Y-83955904D01*
X109136295Y-84051142D01*
X109088676Y-84098761D01*
X108993438Y-84146380D01*
X108707723Y-84146380D01*
X108612485Y-84098761D01*
X108564866Y-84051142D01*
G04 #@! TO.C,R4*
X99392333Y-38934380D02*
X99059000Y-38458190D01*
X98820904Y-38934380D02*
X98820904Y-37934380D01*
X99201857Y-37934380D01*
X99297095Y-37982000D01*
X99344714Y-38029619D01*
X99392333Y-38124857D01*
X99392333Y-38267714D01*
X99344714Y-38362952D01*
X99297095Y-38410571D01*
X99201857Y-38458190D01*
X98820904Y-38458190D01*
X100249476Y-38267714D02*
X100249476Y-38934380D01*
X100011380Y-37886761D02*
X99773285Y-38601047D01*
X100392333Y-38601047D01*
X98797095Y-41567714D02*
X98797095Y-42234380D01*
X98559000Y-41186761D02*
X98320904Y-41901047D01*
X98939952Y-41901047D01*
X99225666Y-41234380D02*
X99892333Y-41234380D01*
X99463761Y-42234380D01*
X100463761Y-41234380D02*
X100559000Y-41234380D01*
X100654238Y-41282000D01*
X100701857Y-41329619D01*
X100749476Y-41424857D01*
X100797095Y-41615333D01*
X100797095Y-41853428D01*
X100749476Y-42043904D01*
X100701857Y-42139142D01*
X100654238Y-42186761D01*
X100559000Y-42234380D01*
X100463761Y-42234380D01*
X100368523Y-42186761D01*
X100320904Y-42139142D01*
X100273285Y-42043904D01*
X100225666Y-41853428D01*
X100225666Y-41615333D01*
X100273285Y-41424857D01*
X100320904Y-41329619D01*
X100368523Y-41282000D01*
X100463761Y-41234380D01*
G04 #@! TO.C,J13*
D11*
X78280000Y-71862142D02*
X79422857Y-71862142D01*
X78851428Y-72433571D02*
X78851428Y-71290714D01*
X79994285Y-70933571D02*
X80922857Y-70933571D01*
X80422857Y-71505000D01*
X80637142Y-71505000D01*
X80780000Y-71576428D01*
X80851428Y-71647857D01*
X80922857Y-71790714D01*
X80922857Y-72147857D01*
X80851428Y-72290714D01*
X80780000Y-72362142D01*
X80637142Y-72433571D01*
X80208571Y-72433571D01*
X80065714Y-72362142D01*
X79994285Y-72290714D01*
X81565714Y-72290714D02*
X81637142Y-72362142D01*
X81565714Y-72433571D01*
X81494285Y-72362142D01*
X81565714Y-72290714D01*
X81565714Y-72433571D01*
X82137142Y-70933571D02*
X83065714Y-70933571D01*
X82565714Y-71505000D01*
X82780000Y-71505000D01*
X82922857Y-71576428D01*
X82994285Y-71647857D01*
X83065714Y-71790714D01*
X83065714Y-72147857D01*
X82994285Y-72290714D01*
X82922857Y-72362142D01*
X82780000Y-72433571D01*
X82351428Y-72433571D01*
X82208571Y-72362142D01*
X82137142Y-72290714D01*
X83494285Y-70933571D02*
X83994285Y-72433571D01*
X84494285Y-70933571D01*
G04 #@! TO.C,J14*
X139680142Y-30503571D02*
X139680142Y-29360714D01*
X140251571Y-29932142D02*
X139108714Y-29932142D01*
X138751571Y-27932142D02*
X138751571Y-28646428D01*
X139465857Y-28717857D01*
X139394428Y-28646428D01*
X139323000Y-28503571D01*
X139323000Y-28146428D01*
X139394428Y-28003571D01*
X139465857Y-27932142D01*
X139608714Y-27860714D01*
X139965857Y-27860714D01*
X140108714Y-27932142D01*
X140180142Y-28003571D01*
X140251571Y-28146428D01*
X140251571Y-28503571D01*
X140180142Y-28646428D01*
X140108714Y-28717857D01*
X138751571Y-27432142D02*
X140251571Y-26932142D01*
X138751571Y-26432142D01*
G04 #@! TO.C,J15*
X152285000Y-29717857D02*
X152213571Y-29860714D01*
X152213571Y-30075000D01*
X152285000Y-30289285D01*
X152427857Y-30432142D01*
X152570714Y-30503571D01*
X152856428Y-30575000D01*
X153070714Y-30575000D01*
X153356428Y-30503571D01*
X153499285Y-30432142D01*
X153642142Y-30289285D01*
X153713571Y-30075000D01*
X153713571Y-29932142D01*
X153642142Y-29717857D01*
X153570714Y-29646428D01*
X153070714Y-29646428D01*
X153070714Y-29932142D01*
X153713571Y-29003571D02*
X152213571Y-29003571D01*
X153713571Y-28146428D01*
X152213571Y-28146428D01*
X153713571Y-27432142D02*
X152213571Y-27432142D01*
X152213571Y-27075000D01*
X152285000Y-26860714D01*
X152427857Y-26717857D01*
X152570714Y-26646428D01*
X152856428Y-26575000D01*
X153070714Y-26575000D01*
X153356428Y-26646428D01*
X153499285Y-26717857D01*
X153642142Y-26860714D01*
X153713571Y-27075000D01*
X153713571Y-27432142D01*
G04 #@! TO.C,J16*
X87757142Y-71005000D02*
X87614285Y-70933571D01*
X87400000Y-70933571D01*
X87185714Y-71005000D01*
X87042857Y-71147857D01*
X86971428Y-71290714D01*
X86900000Y-71576428D01*
X86900000Y-71790714D01*
X86971428Y-72076428D01*
X87042857Y-72219285D01*
X87185714Y-72362142D01*
X87400000Y-72433571D01*
X87542857Y-72433571D01*
X87757142Y-72362142D01*
X87828571Y-72290714D01*
X87828571Y-71790714D01*
X87542857Y-71790714D01*
X88471428Y-72433571D02*
X88471428Y-70933571D01*
X89328571Y-72433571D01*
X89328571Y-70933571D01*
X90042857Y-72433571D02*
X90042857Y-70933571D01*
X90400000Y-70933571D01*
X90614285Y-71005000D01*
X90757142Y-71147857D01*
X90828571Y-71290714D01*
X90900000Y-71576428D01*
X90900000Y-71790714D01*
X90828571Y-72076428D01*
X90757142Y-72219285D01*
X90614285Y-72362142D01*
X90400000Y-72433571D01*
X90042857Y-72433571D01*
G04 #@! TO.C,J17*
X164640000Y-60432142D02*
X165782857Y-60432142D01*
X165211428Y-61003571D02*
X165211428Y-59860714D01*
X166354285Y-59503571D02*
X167282857Y-59503571D01*
X166782857Y-60075000D01*
X166997142Y-60075000D01*
X167140000Y-60146428D01*
X167211428Y-60217857D01*
X167282857Y-60360714D01*
X167282857Y-60717857D01*
X167211428Y-60860714D01*
X167140000Y-60932142D01*
X166997142Y-61003571D01*
X166568571Y-61003571D01*
X166425714Y-60932142D01*
X166354285Y-60860714D01*
X167925714Y-60860714D02*
X167997142Y-60932142D01*
X167925714Y-61003571D01*
X167854285Y-60932142D01*
X167925714Y-60860714D01*
X167925714Y-61003571D01*
X168497142Y-59503571D02*
X169425714Y-59503571D01*
X168925714Y-60075000D01*
X169140000Y-60075000D01*
X169282857Y-60146428D01*
X169354285Y-60217857D01*
X169425714Y-60360714D01*
X169425714Y-60717857D01*
X169354285Y-60860714D01*
X169282857Y-60932142D01*
X169140000Y-61003571D01*
X168711428Y-61003571D01*
X168568571Y-60932142D01*
X168497142Y-60860714D01*
X169854285Y-59503571D02*
X170354285Y-61003571D01*
X170854285Y-59503571D01*
G04 #@! TO.C,J18*
X79780000Y-84975000D02*
X79637142Y-84903571D01*
X79422857Y-84903571D01*
X79208571Y-84975000D01*
X79065714Y-85117857D01*
X78994285Y-85260714D01*
X78922857Y-85546428D01*
X78922857Y-85760714D01*
X78994285Y-86046428D01*
X79065714Y-86189285D01*
X79208571Y-86332142D01*
X79422857Y-86403571D01*
X79565714Y-86403571D01*
X79780000Y-86332142D01*
X79851428Y-86260714D01*
X79851428Y-85760714D01*
X79565714Y-85760714D01*
X80494285Y-86403571D02*
X80494285Y-84903571D01*
X81065714Y-84903571D01*
X81208571Y-84975000D01*
X81280000Y-85046428D01*
X81351428Y-85189285D01*
X81351428Y-85403571D01*
X81280000Y-85546428D01*
X81208571Y-85617857D01*
X81065714Y-85689285D01*
X80494285Y-85689285D01*
X81994285Y-86403571D02*
X81994285Y-84903571D01*
X82994285Y-84903571D02*
X83280000Y-84903571D01*
X83422857Y-84975000D01*
X83565714Y-85117857D01*
X83637142Y-85403571D01*
X83637142Y-85903571D01*
X83565714Y-86189285D01*
X83422857Y-86332142D01*
X83280000Y-86403571D01*
X82994285Y-86403571D01*
X82851428Y-86332142D01*
X82708571Y-86189285D01*
X82637142Y-85903571D01*
X82637142Y-85403571D01*
X82708571Y-85117857D01*
X82851428Y-84975000D01*
X82994285Y-84903571D01*
G04 #@! TO.C,D1*
D14*
X116065704Y-81924780D02*
X116065704Y-80924780D01*
X116303800Y-80924780D01*
X116446657Y-80972400D01*
X116541895Y-81067638D01*
X116589514Y-81162876D01*
X116637133Y-81353352D01*
X116637133Y-81496209D01*
X116589514Y-81686685D01*
X116541895Y-81781923D01*
X116446657Y-81877161D01*
X116303800Y-81924780D01*
X116065704Y-81924780D01*
X117589514Y-81924780D02*
X117018085Y-81924780D01*
X117303800Y-81924780D02*
X117303800Y-80924780D01*
X117208561Y-81067638D01*
X117113323Y-81162876D01*
X117018085Y-81210495D01*
G04 #@! TO.C,SW2*
D11*
X85463571Y-99032142D02*
X85677857Y-99103571D01*
X86035000Y-99103571D01*
X86177857Y-99032142D01*
X86249285Y-98960714D01*
X86320714Y-98817857D01*
X86320714Y-98675000D01*
X86249285Y-98532142D01*
X86177857Y-98460714D01*
X86035000Y-98389285D01*
X85749285Y-98317857D01*
X85606428Y-98246428D01*
X85535000Y-98175000D01*
X85463571Y-98032142D01*
X85463571Y-97889285D01*
X85535000Y-97746428D01*
X85606428Y-97675000D01*
X85749285Y-97603571D01*
X86106428Y-97603571D01*
X86320714Y-97675000D01*
X86820714Y-97603571D02*
X87177857Y-99103571D01*
X87463571Y-98032142D01*
X87749285Y-99103571D01*
X88106428Y-97603571D01*
X88320714Y-99246428D02*
X89463571Y-99246428D01*
X90606428Y-97675000D02*
X90463571Y-97603571D01*
X90249285Y-97603571D01*
X90035000Y-97675000D01*
X89892142Y-97817857D01*
X89820714Y-97960714D01*
X89749285Y-98246428D01*
X89749285Y-98460714D01*
X89820714Y-98746428D01*
X89892142Y-98889285D01*
X90035000Y-99032142D01*
X90249285Y-99103571D01*
X90392142Y-99103571D01*
X90606428Y-99032142D01*
X90677857Y-98960714D01*
X90677857Y-98460714D01*
X90392142Y-98460714D01*
X91320714Y-99103571D02*
X91320714Y-97603571D01*
X91892142Y-97603571D01*
X92035000Y-97675000D01*
X92106428Y-97746428D01*
X92177857Y-97889285D01*
X92177857Y-98103571D01*
X92106428Y-98246428D01*
X92035000Y-98317857D01*
X91892142Y-98389285D01*
X91320714Y-98389285D01*
X92892142Y-99103571D02*
X93177857Y-99103571D01*
X93320714Y-99032142D01*
X93392142Y-98960714D01*
X93535000Y-98746428D01*
X93606428Y-98460714D01*
X93606428Y-97889285D01*
X93535000Y-97746428D01*
X93463571Y-97675000D01*
X93320714Y-97603571D01*
X93035000Y-97603571D01*
X92892142Y-97675000D01*
X92820714Y-97746428D01*
X92749285Y-97889285D01*
X92749285Y-98246428D01*
X92820714Y-98389285D01*
X92892142Y-98460714D01*
X93035000Y-98532142D01*
X93320714Y-98532142D01*
X93463571Y-98460714D01*
X93535000Y-98389285D01*
X93606428Y-98246428D01*
G04 #@! TO.C,SW3*
X101973571Y-99032142D02*
X102187857Y-99103571D01*
X102545000Y-99103571D01*
X102687857Y-99032142D01*
X102759285Y-98960714D01*
X102830714Y-98817857D01*
X102830714Y-98675000D01*
X102759285Y-98532142D01*
X102687857Y-98460714D01*
X102545000Y-98389285D01*
X102259285Y-98317857D01*
X102116428Y-98246428D01*
X102045000Y-98175000D01*
X101973571Y-98032142D01*
X101973571Y-97889285D01*
X102045000Y-97746428D01*
X102116428Y-97675000D01*
X102259285Y-97603571D01*
X102616428Y-97603571D01*
X102830714Y-97675000D01*
X103330714Y-97603571D02*
X103687857Y-99103571D01*
X103973571Y-98032142D01*
X104259285Y-99103571D01*
X104616428Y-97603571D01*
X104830714Y-99246428D02*
X105973571Y-99246428D01*
X107116428Y-97675000D02*
X106973571Y-97603571D01*
X106759285Y-97603571D01*
X106545000Y-97675000D01*
X106402142Y-97817857D01*
X106330714Y-97960714D01*
X106259285Y-98246428D01*
X106259285Y-98460714D01*
X106330714Y-98746428D01*
X106402142Y-98889285D01*
X106545000Y-99032142D01*
X106759285Y-99103571D01*
X106902142Y-99103571D01*
X107116428Y-99032142D01*
X107187857Y-98960714D01*
X107187857Y-98460714D01*
X106902142Y-98460714D01*
X107830714Y-99103571D02*
X107830714Y-97603571D01*
X108402142Y-97603571D01*
X108545000Y-97675000D01*
X108616428Y-97746428D01*
X108687857Y-97889285D01*
X108687857Y-98103571D01*
X108616428Y-98246428D01*
X108545000Y-98317857D01*
X108402142Y-98389285D01*
X107830714Y-98389285D01*
X109545000Y-98246428D02*
X109402142Y-98175000D01*
X109330714Y-98103571D01*
X109259285Y-97960714D01*
X109259285Y-97889285D01*
X109330714Y-97746428D01*
X109402142Y-97675000D01*
X109545000Y-97603571D01*
X109830714Y-97603571D01*
X109973571Y-97675000D01*
X110045000Y-97746428D01*
X110116428Y-97889285D01*
X110116428Y-97960714D01*
X110045000Y-98103571D01*
X109973571Y-98175000D01*
X109830714Y-98246428D01*
X109545000Y-98246428D01*
X109402142Y-98317857D01*
X109330714Y-98389285D01*
X109259285Y-98532142D01*
X109259285Y-98817857D01*
X109330714Y-98960714D01*
X109402142Y-99032142D01*
X109545000Y-99103571D01*
X109830714Y-99103571D01*
X109973571Y-99032142D01*
X110045000Y-98960714D01*
X110116428Y-98817857D01*
X110116428Y-98532142D01*
X110045000Y-98389285D01*
X109973571Y-98317857D01*
X109830714Y-98246428D01*
G04 #@! TD*
M02*
