G04 #@! TF.GenerationSoftware,KiCad,Pcbnew,5.0.2+dfsg1-1*
G04 #@! TF.CreationDate,2021-03-18T17:53:01+01:00*
G04 #@! TF.ProjectId,pico-dev,7069636f-2d64-4657-962e-6b696361645f,rev?*
G04 #@! TF.SameCoordinates,Original*
G04 #@! TF.FileFunction,Copper,L2,Bot*
G04 #@! TF.FilePolarity,Positive*
%FSLAX46Y46*%
G04 Gerber Fmt 4.6, Leading zero omitted, Abs format (unit mm)*
G04 Created by KiCad (PCBNEW 5.0.2+dfsg1-1) date jeu. 18 mars 2021 17:53:01 CET*
%MOMM*%
%LPD*%
G01*
G04 APERTURE LIST*
G04 #@! TA.AperFunction,ComponentPad*
%ADD10C,1.700000*%
G04 #@! TD*
G04 #@! TA.AperFunction,ComponentPad*
%ADD11R,1.700000X1.700000*%
G04 #@! TD*
G04 #@! TA.AperFunction,ComponentPad*
%ADD12C,1.600000*%
G04 #@! TD*
G04 #@! TA.AperFunction,ComponentPad*
%ADD13R,1.600000X1.600000*%
G04 #@! TD*
G04 #@! TA.AperFunction,ComponentPad*
%ADD14O,1.700000X1.700000*%
G04 #@! TD*
G04 #@! TA.AperFunction,ComponentPad*
%ADD15C,2.000000*%
G04 #@! TD*
G04 #@! TA.AperFunction,ComponentPad*
%ADD16R,1.800000X1.800000*%
G04 #@! TD*
G04 #@! TA.AperFunction,ComponentPad*
%ADD17C,1.800000*%
G04 #@! TD*
G04 #@! TA.AperFunction,Conductor*
%ADD18C,0.900000*%
G04 #@! TD*
G04 #@! TA.AperFunction,Conductor*
%ADD19C,0.500000*%
G04 #@! TD*
G04 #@! TA.AperFunction,Conductor*
%ADD20C,0.254000*%
G04 #@! TD*
G04 APERTURE END LIST*
D10*
G04 #@! TO.P,U2,4*
G04 #@! TO.N,SDA_1*
X153670000Y-73960000D03*
G04 #@! TO.P,U2,3*
G04 #@! TO.N,SCL_1*
X151130000Y-73960000D03*
G04 #@! TO.P,U2,2*
G04 #@! TO.N,+3V3*
X148590000Y-73960000D03*
D11*
G04 #@! TO.P,U2,1*
G04 #@! TO.N,GND*
X146050000Y-73960000D03*
G04 #@! TD*
D12*
G04 #@! TO.P,C1,2*
G04 #@! TO.N,GND*
X134620000Y-30948000D03*
D13*
G04 #@! TO.P,C1,1*
G04 #@! TO.N,+5V*
X134620000Y-28448000D03*
G04 #@! TD*
D11*
G04 #@! TO.P,J1,1*
G04 #@! TO.N,GND*
X95732600Y-34620200D03*
D14*
G04 #@! TO.P,J1,2*
G04 #@! TO.N,MODE*
X98272600Y-34620200D03*
G04 #@! TD*
D11*
G04 #@! TO.P,J2,1*
G04 #@! TO.N,+5VD*
X119862600Y-89662000D03*
D14*
G04 #@! TO.P,J2,2*
G04 #@! TO.N,SWCLK*
X122402600Y-89662000D03*
G04 #@! TO.P,J2,3*
G04 #@! TO.N,SWDIO*
X124942600Y-89662000D03*
G04 #@! TO.P,J2,4*
G04 #@! TO.N,GND*
X127482600Y-89662000D03*
G04 #@! TD*
G04 #@! TO.P,J3,3*
G04 #@! TO.N,+3V3*
X166370000Y-41910000D03*
G04 #@! TO.P,J3,2*
G04 #@! TO.N,ADC0*
X166370000Y-39370000D03*
D11*
G04 #@! TO.P,J3,1*
G04 #@! TO.N,AGND*
X166370000Y-36830000D03*
G04 #@! TD*
G04 #@! TO.P,J4,1*
G04 #@! TO.N,AGND*
X158750000Y-36830000D03*
D14*
G04 #@! TO.P,J4,2*
G04 #@! TO.N,ADC1*
X158750000Y-39370000D03*
G04 #@! TO.P,J4,3*
G04 #@! TO.N,+3V3*
X158750000Y-41910000D03*
G04 #@! TD*
G04 #@! TO.P,U1,1*
G04 #@! TO.N,U_TX*
X108839000Y-27432000D03*
G04 #@! TO.P,U1,2*
G04 #@! TO.N,U_RX*
X108839000Y-29972000D03*
D11*
G04 #@! TO.P,U1,3*
G04 #@! TO.N,GND*
X108839000Y-32512000D03*
D14*
G04 #@! TO.P,U1,4*
G04 #@! TO.N,MODE*
X108839000Y-35052000D03*
G04 #@! TO.P,U1,5*
G04 #@! TO.N,LED0*
X108839000Y-37592000D03*
G04 #@! TO.P,U1,6*
G04 #@! TO.N,SDA_0*
X108839000Y-40132000D03*
G04 #@! TO.P,U1,7*
G04 #@! TO.N,SCL_0*
X108839000Y-42672000D03*
D11*
G04 #@! TO.P,U1,8*
G04 #@! TO.N,GND*
X108839000Y-45212000D03*
D14*
G04 #@! TO.P,U1,9*
G04 #@! TO.N,GP6*
X108839000Y-47752000D03*
G04 #@! TO.P,U1,10*
G04 #@! TO.N,GP7*
X108839000Y-50292000D03*
G04 #@! TO.P,U1,11*
G04 #@! TO.N,GP8*
X108839000Y-52832000D03*
G04 #@! TO.P,U1,12*
G04 #@! TO.N,GP9*
X108839000Y-55372000D03*
D11*
G04 #@! TO.P,U1,13*
G04 #@! TO.N,GND*
X108839000Y-57912000D03*
D14*
G04 #@! TO.P,U1,14*
G04 #@! TO.N,SPI1_CK_GP10*
X108839000Y-60452000D03*
G04 #@! TO.P,U1,15*
G04 #@! TO.N,SPI1_MOSI_GP11*
X108839000Y-62992000D03*
G04 #@! TO.P,U1,16*
G04 #@! TO.N,SPI1_MISO_GP12*
X108839000Y-65532000D03*
G04 #@! TO.P,U1,17*
G04 #@! TO.N,SPI1_CS1_GP13*
X108839000Y-68072000D03*
D11*
G04 #@! TO.P,U1,18*
G04 #@! TO.N,GND*
X108839000Y-70612000D03*
D14*
G04 #@! TO.P,U1,19*
G04 #@! TO.N,SDA_1*
X108839000Y-73152000D03*
G04 #@! TO.P,U1,20*
G04 #@! TO.N,SCL_1*
X108839000Y-75692000D03*
G04 #@! TO.P,U1,21*
G04 #@! TO.N,SPI0_MISO*
X126619000Y-75692000D03*
G04 #@! TO.P,U1,22*
G04 #@! TO.N,SPI0_CS1*
X126619000Y-73152000D03*
D11*
G04 #@! TO.P,U1,23*
G04 #@! TO.N,GND*
X126619000Y-70612000D03*
D14*
G04 #@! TO.P,U1,24*
G04 #@! TO.N,SPI0_CK*
X126619000Y-68072000D03*
G04 #@! TO.P,U1,25*
G04 #@! TO.N,SPI0_MOSI*
X126619000Y-65532000D03*
G04 #@! TO.P,U1,26*
G04 #@! TO.N,SPI0_CS2*
X126619000Y-62992000D03*
G04 #@! TO.P,U1,27*
G04 #@! TO.N,GP21*
X126619000Y-60452000D03*
D11*
G04 #@! TO.P,U1,28*
G04 #@! TO.N,GND*
X126619000Y-57912000D03*
D14*
G04 #@! TO.P,U1,29*
G04 #@! TO.N,GP22*
X126619000Y-55372000D03*
G04 #@! TO.P,U1,30*
G04 #@! TO.N,RUN*
X126619000Y-52832000D03*
G04 #@! TO.P,U1,31*
G04 #@! TO.N,ADC0*
X126619000Y-50292000D03*
G04 #@! TO.P,U1,32*
G04 #@! TO.N,ADC1*
X126619000Y-47752000D03*
D11*
G04 #@! TO.P,U1,33*
G04 #@! TO.N,AGND*
X126619000Y-45212000D03*
D14*
G04 #@! TO.P,U1,34*
G04 #@! TO.N,GP28*
X126619000Y-42672000D03*
G04 #@! TO.P,U1,35*
G04 #@! TO.N,Net-(U1-Pad35)*
X126619000Y-40132000D03*
G04 #@! TO.P,U1,36*
G04 #@! TO.N,+3V3*
X126619000Y-37592000D03*
G04 #@! TO.P,U1,37*
G04 #@! TO.N,Net-(U1-Pad37)*
X126619000Y-35052000D03*
D11*
G04 #@! TO.P,U1,38*
G04 #@! TO.N,GND*
X126619000Y-32512000D03*
D14*
G04 #@! TO.P,U1,39*
G04 #@! TO.N,+5V*
X126619000Y-29972000D03*
G04 #@! TO.P,U1,40*
G04 #@! TO.N,Net-(U1-Pad40)*
X126619000Y-27432000D03*
G04 #@! TO.P,U1,41*
G04 #@! TO.N,SWCLK*
X115189000Y-75462000D03*
D11*
G04 #@! TO.P,U1,42*
G04 #@! TO.N,GND*
X117729000Y-75462000D03*
D14*
G04 #@! TO.P,U1,43*
G04 #@! TO.N,SWDIO*
X120269000Y-75462000D03*
G04 #@! TD*
D11*
G04 #@! TO.P,J5,1*
G04 #@! TO.N,GND*
X96520000Y-53848000D03*
D14*
G04 #@! TO.P,J5,2*
G04 #@! TO.N,SCL_0*
X96520000Y-51308000D03*
G04 #@! TO.P,J5,3*
G04 #@! TO.N,SDA_0*
X96520000Y-48768000D03*
G04 #@! TO.P,J5,4*
G04 #@! TO.N,+3V3*
X96520000Y-46228000D03*
G04 #@! TD*
G04 #@! TO.P,J6,4*
G04 #@! TO.N,+3V3*
X88900000Y-46228000D03*
G04 #@! TO.P,J6,3*
G04 #@! TO.N,SDA_0*
X88900000Y-48768000D03*
G04 #@! TO.P,J6,2*
G04 #@! TO.N,SCL_0*
X88900000Y-51308000D03*
D11*
G04 #@! TO.P,J6,1*
G04 #@! TO.N,GND*
X88900000Y-53848000D03*
G04 #@! TD*
G04 #@! TO.P,J7,1*
G04 #@! TO.N,GND*
X81280000Y-53848000D03*
D14*
G04 #@! TO.P,J7,2*
G04 #@! TO.N,SCL_0*
X81280000Y-51308000D03*
G04 #@! TO.P,J7,3*
G04 #@! TO.N,SDA_0*
X81280000Y-48768000D03*
G04 #@! TO.P,J7,4*
G04 #@! TO.N,+3V3*
X81280000Y-46228000D03*
G04 #@! TD*
D11*
G04 #@! TO.P,J8,1*
G04 #@! TO.N,GND*
X86360000Y-35560000D03*
D14*
G04 #@! TO.P,J8,2*
G04 #@! TO.N,U_RX*
X86360000Y-33020000D03*
G04 #@! TO.P,J8,3*
G04 #@! TO.N,U_TX*
X86360000Y-30480000D03*
G04 #@! TD*
D11*
G04 #@! TO.P,J9,1*
G04 #@! TO.N,+3V3*
X160020000Y-64770000D03*
D14*
G04 #@! TO.P,J9,2*
G04 #@! TO.N,SPI0_CK*
X160020000Y-62230000D03*
G04 #@! TO.P,J9,3*
G04 #@! TO.N,SPI0_MOSI*
X160020000Y-59690000D03*
G04 #@! TO.P,J9,4*
G04 #@! TO.N,SPI0_MISO*
X160020000Y-57150000D03*
G04 #@! TO.P,J9,5*
G04 #@! TO.N,SPI0_CS1*
X160020000Y-54610000D03*
G04 #@! TO.P,J9,6*
G04 #@! TO.N,GND*
X160020000Y-52070000D03*
G04 #@! TD*
D11*
G04 #@! TO.P,J10,1*
G04 #@! TO.N,+3V3*
X149860000Y-64770000D03*
D14*
G04 #@! TO.P,J10,2*
G04 #@! TO.N,SPI0_CK*
X149860000Y-62230000D03*
G04 #@! TO.P,J10,3*
G04 #@! TO.N,SPI0_MOSI*
X149860000Y-59690000D03*
G04 #@! TO.P,J10,4*
G04 #@! TO.N,SPI0_MISO*
X149860000Y-57150000D03*
G04 #@! TO.P,J10,5*
G04 #@! TO.N,SPI0_CS2*
X149860000Y-54610000D03*
G04 #@! TO.P,J10,6*
G04 #@! TO.N,GND*
X149860000Y-52070000D03*
G04 #@! TD*
D11*
G04 #@! TO.P,J11,1*
G04 #@! TO.N,GND*
X149860000Y-36830000D03*
D14*
G04 #@! TO.P,J11,2*
G04 #@! TO.N,GP21*
X147320000Y-36830000D03*
G04 #@! TO.P,J11,3*
G04 #@! TO.N,GP22*
X144780000Y-36830000D03*
G04 #@! TO.P,J11,4*
G04 #@! TO.N,GP28*
X142240000Y-36830000D03*
G04 #@! TO.P,J11,5*
G04 #@! TO.N,+3V3*
X139700000Y-36830000D03*
G04 #@! TD*
D11*
G04 #@! TO.P,J12,1*
G04 #@! TO.N,+3V3*
X96520000Y-60960000D03*
D14*
G04 #@! TO.P,J12,2*
G04 #@! TO.N,SPI1_CK_GP10*
X96520000Y-63500000D03*
G04 #@! TO.P,J12,3*
G04 #@! TO.N,SPI1_MOSI_GP11*
X96520000Y-66040000D03*
G04 #@! TO.P,J12,4*
G04 #@! TO.N,SPI1_MISO_GP12*
X96520000Y-68580000D03*
G04 #@! TO.P,J12,5*
G04 #@! TO.N,SPI1_CS1_GP13*
X96520000Y-71120000D03*
G04 #@! TO.P,J12,6*
G04 #@! TO.N,GND*
X96520000Y-73660000D03*
G04 #@! TD*
G04 #@! TO.P,J13,3*
G04 #@! TO.N,+3V3*
X81280000Y-68580000D03*
G04 #@! TO.P,J13,2*
X81280000Y-66040000D03*
D11*
G04 #@! TO.P,J13,1*
X81280000Y-63500000D03*
G04 #@! TD*
G04 #@! TO.P,J14,1*
G04 #@! TO.N,+5V*
X142748000Y-27940000D03*
D14*
G04 #@! TO.P,J14,2*
X145288000Y-27940000D03*
G04 #@! TO.P,J14,3*
X147828000Y-27940000D03*
G04 #@! TD*
D11*
G04 #@! TO.P,J15,1*
G04 #@! TO.N,GND*
X161290000Y-27940000D03*
D14*
G04 #@! TO.P,J15,2*
X158750000Y-27940000D03*
G04 #@! TO.P,J15,3*
X156210000Y-27940000D03*
G04 #@! TD*
D11*
G04 #@! TO.P,J16,1*
G04 #@! TO.N,GND*
X88900000Y-63500000D03*
D14*
G04 #@! TO.P,J16,2*
X88900000Y-66040000D03*
G04 #@! TO.P,J16,3*
X88900000Y-68580000D03*
G04 #@! TD*
G04 #@! TO.P,J17,3*
G04 #@! TO.N,+3V3*
X167640000Y-57150000D03*
G04 #@! TO.P,J17,2*
X167640000Y-54610000D03*
D11*
G04 #@! TO.P,J17,1*
X167640000Y-52070000D03*
G04 #@! TD*
G04 #@! TO.P,J18,1*
G04 #@! TO.N,GND*
X81280000Y-82550000D03*
D14*
G04 #@! TO.P,J18,2*
G04 #@! TO.N,GP7*
X81280000Y-80010000D03*
G04 #@! TO.P,J18,3*
G04 #@! TO.N,GP6*
X81280000Y-77470000D03*
G04 #@! TD*
D15*
G04 #@! TO.P,SW1,2*
G04 #@! TO.N,GND*
X140974200Y-51104800D03*
G04 #@! TO.P,SW1,1*
G04 #@! TO.N,RUN*
X136474200Y-51104800D03*
G04 #@! TO.P,SW1,2*
G04 #@! TO.N,GND*
X140974200Y-44604800D03*
G04 #@! TO.P,SW1,1*
G04 #@! TO.N,RUN*
X136474200Y-44604800D03*
G04 #@! TD*
G04 #@! TO.P,SW2,1*
G04 #@! TO.N,GP9*
X92860000Y-90805000D03*
G04 #@! TO.P,SW2,2*
G04 #@! TO.N,GND*
X92860000Y-95305000D03*
G04 #@! TO.P,SW2,1*
G04 #@! TO.N,GP9*
X86360000Y-90805000D03*
G04 #@! TO.P,SW2,2*
G04 #@! TO.N,GND*
X86360000Y-95305000D03*
G04 #@! TD*
G04 #@! TO.P,SW3,2*
G04 #@! TO.N,GND*
X102870000Y-95305000D03*
G04 #@! TO.P,SW3,1*
G04 #@! TO.N,GP8*
X102870000Y-90805000D03*
G04 #@! TO.P,SW3,2*
G04 #@! TO.N,GND*
X109370000Y-95305000D03*
G04 #@! TO.P,SW3,1*
G04 #@! TO.N,GP8*
X109370000Y-90805000D03*
G04 #@! TD*
D13*
G04 #@! TO.P,C2,1*
G04 #@! TO.N,+3V3*
X166624000Y-69596000D03*
D12*
G04 #@! TO.P,C2,2*
G04 #@! TO.N,GND*
X169124000Y-69596000D03*
G04 #@! TD*
D13*
G04 #@! TO.P,C3,1*
G04 #@! TO.N,+3V3*
X98044000Y-82296000D03*
D12*
G04 #@! TO.P,C3,2*
G04 #@! TO.N,GND*
X98044000Y-84796000D03*
G04 #@! TD*
D16*
G04 #@! TO.P,D2,1*
G04 #@! TO.N,GND*
X91440000Y-40132000D03*
D17*
G04 #@! TO.P,D2,2*
G04 #@! TO.N,Net-(D2-Pad2)*
X93980000Y-40132000D03*
G04 #@! TD*
D18*
G04 #@! TO.N,GND*
X134167000Y-57912000D02*
X126619000Y-57912000D01*
X140974200Y-51104800D02*
X134167000Y-57912000D01*
X140974200Y-51104800D02*
X140974200Y-44604800D01*
X149860000Y-35080000D02*
X149860000Y-36830000D01*
X149860000Y-34290000D02*
X156210000Y-27940000D01*
X149860000Y-36830000D02*
X149860000Y-34290000D01*
X156210000Y-27940000D02*
X158750000Y-27940000D01*
X158750000Y-27940000D02*
X161290000Y-27940000D01*
X149860000Y-36830000D02*
X149860000Y-52070000D01*
X149860000Y-52070000D02*
X160020000Y-52070000D01*
X128369000Y-70612000D02*
X126619000Y-70612000D01*
X146050000Y-72210000D02*
X144452000Y-70612000D01*
X146050000Y-73960000D02*
X146050000Y-72210000D01*
X94792800Y-35560000D02*
X95732600Y-34620200D01*
X86360000Y-35560000D02*
X94792800Y-35560000D01*
X81280000Y-53848000D02*
X88900000Y-53848000D01*
X96520000Y-53848000D02*
X88900000Y-53848000D01*
X98270000Y-53848000D02*
X96520000Y-53848000D01*
X98453000Y-53848000D02*
X98270000Y-53848000D01*
X107089000Y-45212000D02*
X98453000Y-53848000D01*
X108839000Y-45212000D02*
X107089000Y-45212000D01*
X95732600Y-32870200D02*
X95732600Y-34620200D01*
X96090800Y-32512000D02*
X95732600Y-32870200D01*
X108839000Y-32512000D02*
X96090800Y-32512000D01*
X93980000Y-73660000D02*
X88900000Y-68580000D01*
X96520000Y-73660000D02*
X93980000Y-73660000D01*
X88900000Y-68580000D02*
X88900000Y-66040000D01*
X88900000Y-66040000D02*
X88900000Y-63500000D01*
X88900000Y-55598000D02*
X88900000Y-63500000D01*
X88900000Y-53848000D02*
X88900000Y-55598000D01*
X126619000Y-70612000D02*
X108839000Y-70612000D01*
X110589000Y-70612000D02*
X108839000Y-70612000D01*
X113151002Y-70612000D02*
X110589000Y-70612000D01*
X117729000Y-75189998D02*
X113151002Y-70612000D01*
X117729000Y-75462000D02*
X117729000Y-75189998D01*
X127482600Y-89662000D02*
X143484600Y-89662000D01*
X143484600Y-89662000D02*
X157200600Y-75946000D01*
X153134002Y-70612000D02*
X143687800Y-70612000D01*
X144452000Y-70612000D02*
X143687800Y-70612000D01*
X157200600Y-74678598D02*
X153134002Y-70612000D01*
X157200600Y-75946000D02*
X157200600Y-74678598D01*
X143687800Y-70612000D02*
X128369000Y-70612000D01*
X127482600Y-90864081D02*
X127482600Y-89662000D01*
X123041681Y-95305000D02*
X127482600Y-90864081D01*
X109370000Y-95305000D02*
X123041681Y-95305000D01*
X109370000Y-95305000D02*
X102870000Y-95305000D01*
X102870000Y-95305000D02*
X92860000Y-95305000D01*
X92860000Y-95305000D02*
X86360000Y-95305000D01*
X124718999Y-70461999D02*
X124869000Y-70612000D01*
X124869000Y-57912000D02*
X124718999Y-58062001D01*
X124869000Y-70612000D02*
X126619000Y-70612000D01*
X124718999Y-58062001D02*
X124718999Y-70461999D01*
X126619000Y-57912000D02*
X124869000Y-57912000D01*
X110739001Y-45061999D02*
X110589000Y-45212000D01*
X110739001Y-32662001D02*
X110739001Y-45061999D01*
X110589000Y-32512000D02*
X110739001Y-32662001D01*
X108839000Y-32512000D02*
X110589000Y-32512000D01*
X110589000Y-57912000D02*
X113030000Y-55471000D01*
X108839000Y-57912000D02*
X110589000Y-57912000D01*
X110589000Y-45212000D02*
X108839000Y-45212000D01*
X113030000Y-47653000D02*
X110589000Y-45212000D01*
X113030000Y-55471000D02*
X113030000Y-47653000D01*
X81280000Y-90225000D02*
X86360000Y-95305000D01*
X81280000Y-82550000D02*
X81280000Y-90225000D01*
X161920001Y-52767920D02*
X161222081Y-52070000D01*
X161222081Y-52070000D02*
X160020000Y-52070000D01*
X161920001Y-58777999D02*
X161920001Y-52767920D01*
X169124000Y-65981998D02*
X161920001Y-58777999D01*
X169124000Y-69596000D02*
X169124000Y-65981998D01*
X133056000Y-32512000D02*
X134620000Y-30948000D01*
X126619000Y-32512000D02*
X133056000Y-32512000D01*
X145728000Y-30948000D02*
X147800000Y-33020000D01*
X134620000Y-30948000D02*
X145728000Y-30948000D01*
X147292000Y-32512000D02*
X147800000Y-33020000D01*
X147800000Y-33020000D02*
X149860000Y-35080000D01*
X98044000Y-90121000D02*
X92860000Y-95305000D01*
X98044000Y-84796000D02*
X98044000Y-90121000D01*
X90932000Y-40132000D02*
X86360000Y-35560000D01*
X91440000Y-40132000D02*
X90932000Y-40132000D01*
D19*
G04 #@! TO.N,RUN*
X134747000Y-52832000D02*
X136474200Y-51104800D01*
X126619000Y-52832000D02*
X134747000Y-52832000D01*
D18*
G04 #@! TO.N,+3V3*
X149860000Y-64770000D02*
X160020000Y-64770000D01*
X158750000Y-41910000D02*
X166370000Y-41910000D01*
D19*
G04 #@! TO.N,U_RX*
X91047990Y-28332010D02*
X87209999Y-32170001D01*
X107199010Y-28332010D02*
X91047990Y-28332010D01*
X87209999Y-32170001D02*
X86360000Y-33020000D01*
X108839000Y-29972000D02*
X107199010Y-28332010D01*
G04 #@! TO.N,U_TX*
X89408000Y-27432000D02*
X86360000Y-30480000D01*
X108839000Y-27432000D02*
X89408000Y-27432000D01*
G04 #@! TO.N,SPI0_MISO*
X160020000Y-57150000D02*
X149860000Y-57150000D01*
G04 #@! TO.N,SPI0_MOSI*
X149860000Y-59690000D02*
X160020000Y-59690000D01*
G04 #@! TO.N,SPI0_CK*
X149860000Y-62230000D02*
X160020000Y-62230000D01*
G04 #@! TO.N,SPI0_CS2*
X149860000Y-54610000D02*
X143357600Y-54610000D01*
X134975600Y-62992000D02*
X126619000Y-62992000D01*
X143357600Y-54610000D02*
X134975600Y-62992000D01*
G04 #@! TO.N,GP21*
X126619000Y-60452000D02*
X135331200Y-60452000D01*
X147320000Y-48463200D02*
X147320000Y-36830000D01*
X135331200Y-60452000D02*
X147320000Y-48463200D01*
G04 #@! TO.N,GP22*
X143930001Y-37679999D02*
X144780000Y-36830000D01*
X139124199Y-42485801D02*
X143930001Y-37679999D01*
X139124199Y-50896803D02*
X139124199Y-42485801D01*
X134649002Y-55372000D02*
X139124199Y-50896803D01*
X126619000Y-55372000D02*
X134649002Y-55372000D01*
G04 #@! TO.N,SDA_1*
X146770790Y-80859210D02*
X153670000Y-73960000D01*
X106894209Y-80859209D02*
X146770790Y-80859210D01*
X104775000Y-78740000D02*
X106894209Y-80859209D01*
X108839000Y-73152000D02*
X105918000Y-73152000D01*
X104775000Y-74295000D02*
X104775000Y-78740000D01*
X105918000Y-73152000D02*
X104775000Y-74295000D01*
G04 #@! TO.N,SCL_1*
X145130800Y-79959200D02*
X110312200Y-79959200D01*
X151130000Y-73960000D02*
X145130800Y-79959200D01*
X108839000Y-78486000D02*
X108839000Y-75692000D01*
X110312200Y-79959200D02*
X108839000Y-78486000D01*
G04 #@! TO.N,GP7*
X98797797Y-78370009D02*
X103505000Y-73662806D01*
X81280000Y-80010000D02*
X82919990Y-78370010D01*
X82919990Y-78370010D02*
X98797797Y-78370009D01*
X103505000Y-55626000D02*
X108839000Y-50292000D01*
X103505000Y-73662806D02*
X103505000Y-55626000D01*
G04 #@! TO.N,GP6*
X108839000Y-47752000D02*
X101600000Y-54991000D01*
X101600000Y-54991000D02*
X101600000Y-74295000D01*
X98425000Y-77470000D02*
X81280000Y-77470000D01*
X101600000Y-74295000D02*
X98425000Y-77470000D01*
G04 #@! TD*
D20*
G04 #@! TO.N,GND*
G36*
X107702047Y-26295047D02*
X107595170Y-26455000D01*
X89504218Y-26455000D01*
X89408000Y-26435861D01*
X89311782Y-26455000D01*
X89311777Y-26455000D01*
X89026794Y-26511687D01*
X88966951Y-26551673D01*
X88785196Y-26673117D01*
X88785194Y-26673119D01*
X88703623Y-26727623D01*
X88649119Y-26809194D01*
X86548678Y-28909636D01*
X86515319Y-28903000D01*
X86204681Y-28903000D01*
X85744685Y-28994499D01*
X85223047Y-29343047D01*
X84874499Y-29864685D01*
X84752105Y-30480000D01*
X84874499Y-31095315D01*
X85223047Y-31616953D01*
X85422166Y-31750000D01*
X85223047Y-31883047D01*
X84874499Y-32404685D01*
X84752105Y-33020000D01*
X84874499Y-33635315D01*
X85214981Y-34144882D01*
X85150302Y-34171673D01*
X84971673Y-34350301D01*
X84875000Y-34583690D01*
X84875000Y-35274250D01*
X85033750Y-35433000D01*
X86233000Y-35433000D01*
X86233000Y-35413000D01*
X86487000Y-35413000D01*
X86487000Y-35433000D01*
X87686250Y-35433000D01*
X87845000Y-35274250D01*
X87845000Y-34905950D01*
X94247600Y-34905950D01*
X94247600Y-35596509D01*
X94344273Y-35829898D01*
X94522901Y-36008527D01*
X94756290Y-36105200D01*
X95446850Y-36105200D01*
X95605600Y-35946450D01*
X95605600Y-34747200D01*
X94406350Y-34747200D01*
X94247600Y-34905950D01*
X87845000Y-34905950D01*
X87845000Y-34583690D01*
X87748327Y-34350301D01*
X87569698Y-34171673D01*
X87505019Y-34144882D01*
X87839770Y-33643891D01*
X94247600Y-33643891D01*
X94247600Y-34334450D01*
X94406350Y-34493200D01*
X95605600Y-34493200D01*
X95605600Y-33293950D01*
X95859600Y-33293950D01*
X95859600Y-34493200D01*
X95879600Y-34493200D01*
X95879600Y-34747200D01*
X95859600Y-34747200D01*
X95859600Y-35946450D01*
X96018350Y-36105200D01*
X96708910Y-36105200D01*
X96942299Y-36008527D01*
X97120927Y-35829898D01*
X97147718Y-35765219D01*
X97657285Y-36105701D01*
X98117281Y-36197200D01*
X98427919Y-36197200D01*
X98887915Y-36105701D01*
X99409553Y-35757153D01*
X99758101Y-35235515D01*
X99794604Y-35052000D01*
X107231105Y-35052000D01*
X107353499Y-35667315D01*
X107702047Y-36188953D01*
X107901166Y-36322000D01*
X107702047Y-36455047D01*
X107353499Y-36976685D01*
X107231105Y-37592000D01*
X107353499Y-38207315D01*
X107702047Y-38728953D01*
X107901166Y-38862000D01*
X107702047Y-38995047D01*
X107353499Y-39516685D01*
X107231105Y-40132000D01*
X107353499Y-40747315D01*
X107702047Y-41268953D01*
X107901166Y-41402000D01*
X107702047Y-41535047D01*
X107353499Y-42056685D01*
X107231105Y-42672000D01*
X107353499Y-43287315D01*
X107693981Y-43796882D01*
X107629302Y-43823673D01*
X107450673Y-44002301D01*
X107354000Y-44235690D01*
X107354000Y-44926250D01*
X107512750Y-45085000D01*
X108712000Y-45085000D01*
X108712000Y-45065000D01*
X108966000Y-45065000D01*
X108966000Y-45085000D01*
X110165250Y-45085000D01*
X110324000Y-44926250D01*
X110324000Y-44235690D01*
X110227327Y-44002301D01*
X110048698Y-43823673D01*
X109984019Y-43796882D01*
X110324501Y-43287315D01*
X110446895Y-42672000D01*
X110324501Y-42056685D01*
X109975953Y-41535047D01*
X109776834Y-41402000D01*
X109975953Y-41268953D01*
X110324501Y-40747315D01*
X110446895Y-40132000D01*
X110324501Y-39516685D01*
X109975953Y-38995047D01*
X109776834Y-38862000D01*
X109975953Y-38728953D01*
X110324501Y-38207315D01*
X110446895Y-37592000D01*
X110324501Y-36976685D01*
X109975953Y-36455047D01*
X109776834Y-36322000D01*
X109975953Y-36188953D01*
X110324501Y-35667315D01*
X110446895Y-35052000D01*
X125011105Y-35052000D01*
X125133499Y-35667315D01*
X125482047Y-36188953D01*
X125681166Y-36322000D01*
X125482047Y-36455047D01*
X125133499Y-36976685D01*
X125011105Y-37592000D01*
X125133499Y-38207315D01*
X125482047Y-38728953D01*
X125681166Y-38862000D01*
X125482047Y-38995047D01*
X125133499Y-39516685D01*
X125011105Y-40132000D01*
X125133499Y-40747315D01*
X125482047Y-41268953D01*
X125681166Y-41402000D01*
X125482047Y-41535047D01*
X125133499Y-42056685D01*
X125011105Y-42672000D01*
X125133499Y-43287315D01*
X125422193Y-43719375D01*
X125244863Y-43837863D01*
X125084182Y-44078339D01*
X125027758Y-44362000D01*
X125027758Y-46062000D01*
X125084182Y-46345661D01*
X125244863Y-46586137D01*
X125422193Y-46704625D01*
X125133499Y-47136685D01*
X125011105Y-47752000D01*
X125133499Y-48367315D01*
X125482047Y-48888953D01*
X125681166Y-49022000D01*
X125482047Y-49155047D01*
X125133499Y-49676685D01*
X125011105Y-50292000D01*
X125133499Y-50907315D01*
X125482047Y-51428953D01*
X125681166Y-51562000D01*
X125482047Y-51695047D01*
X125133499Y-52216685D01*
X125011105Y-52832000D01*
X125133499Y-53447315D01*
X125482047Y-53968953D01*
X125681166Y-54102000D01*
X125482047Y-54235047D01*
X125133499Y-54756685D01*
X125011105Y-55372000D01*
X125133499Y-55987315D01*
X125473981Y-56496882D01*
X125409302Y-56523673D01*
X125230673Y-56702301D01*
X125134000Y-56935690D01*
X125134000Y-57626250D01*
X125292750Y-57785000D01*
X126492000Y-57785000D01*
X126492000Y-57765000D01*
X126746000Y-57765000D01*
X126746000Y-57785000D01*
X127945250Y-57785000D01*
X128104000Y-57626250D01*
X128104000Y-56935690D01*
X128007327Y-56702301D01*
X127828698Y-56523673D01*
X127764019Y-56496882D01*
X127862830Y-56349000D01*
X134552784Y-56349000D01*
X134649002Y-56368139D01*
X134745220Y-56349000D01*
X134745225Y-56349000D01*
X135030208Y-56292313D01*
X135353379Y-56076377D01*
X135407885Y-55994803D01*
X139516389Y-51886300D01*
X139554813Y-51979064D01*
X139821668Y-52077727D01*
X140794595Y-51104800D01*
X140780453Y-51090658D01*
X140960058Y-50911053D01*
X140974200Y-50925195D01*
X141947127Y-49952268D01*
X141848464Y-49685413D01*
X141238739Y-49458892D01*
X140588740Y-49482944D01*
X140101199Y-49684890D01*
X140101199Y-46024656D01*
X140709661Y-46250708D01*
X141359660Y-46226656D01*
X141848464Y-46024187D01*
X141947127Y-45757332D01*
X140974200Y-44784405D01*
X140960058Y-44798548D01*
X140780453Y-44618943D01*
X140794595Y-44604800D01*
X141153805Y-44604800D01*
X142126732Y-45577727D01*
X142393587Y-45479064D01*
X142620108Y-44869339D01*
X142596056Y-44219340D01*
X142393587Y-43730536D01*
X142126732Y-43631873D01*
X141153805Y-44604800D01*
X140794595Y-44604800D01*
X140780453Y-44590658D01*
X140960058Y-44411053D01*
X140974200Y-44425195D01*
X141947127Y-43452268D01*
X141848464Y-43185413D01*
X141238739Y-42958892D01*
X140588740Y-42982944D01*
X140101199Y-43184890D01*
X140101199Y-42890487D01*
X144591322Y-38400365D01*
X144624681Y-38407000D01*
X144935319Y-38407000D01*
X145395315Y-38315501D01*
X145916953Y-37966953D01*
X146050000Y-37767834D01*
X146183047Y-37966953D01*
X146343001Y-38073831D01*
X146343000Y-48058513D01*
X142225261Y-52176253D01*
X142126734Y-52077726D01*
X142393587Y-51979064D01*
X142620108Y-51369339D01*
X142596056Y-50719340D01*
X142393587Y-50230536D01*
X142126732Y-50131873D01*
X141153805Y-51104800D01*
X141167948Y-51118943D01*
X140988343Y-51298548D01*
X140974200Y-51284405D01*
X140001273Y-52257332D01*
X140099936Y-52524187D01*
X140709661Y-52750708D01*
X141359660Y-52726656D01*
X141848464Y-52524187D01*
X141947126Y-52257334D01*
X142045653Y-52355861D01*
X134926514Y-59475000D01*
X127862830Y-59475000D01*
X127764019Y-59327118D01*
X127828698Y-59300327D01*
X128007327Y-59121699D01*
X128104000Y-58888310D01*
X128104000Y-58197750D01*
X127945250Y-58039000D01*
X126746000Y-58039000D01*
X126746000Y-58059000D01*
X126492000Y-58059000D01*
X126492000Y-58039000D01*
X125292750Y-58039000D01*
X125134000Y-58197750D01*
X125134000Y-58888310D01*
X125230673Y-59121699D01*
X125409302Y-59300327D01*
X125473981Y-59327118D01*
X125133499Y-59836685D01*
X125011105Y-60452000D01*
X125133499Y-61067315D01*
X125482047Y-61588953D01*
X125681166Y-61722000D01*
X125482047Y-61855047D01*
X125133499Y-62376685D01*
X125011105Y-62992000D01*
X125133499Y-63607315D01*
X125482047Y-64128953D01*
X125681166Y-64262000D01*
X125482047Y-64395047D01*
X125133499Y-64916685D01*
X125011105Y-65532000D01*
X125133499Y-66147315D01*
X125482047Y-66668953D01*
X125681166Y-66802000D01*
X125482047Y-66935047D01*
X125133499Y-67456685D01*
X125011105Y-68072000D01*
X125133499Y-68687315D01*
X125473981Y-69196882D01*
X125409302Y-69223673D01*
X125230673Y-69402301D01*
X125134000Y-69635690D01*
X125134000Y-70326250D01*
X125292750Y-70485000D01*
X126492000Y-70485000D01*
X126492000Y-70465000D01*
X126746000Y-70465000D01*
X126746000Y-70485000D01*
X127945250Y-70485000D01*
X128104000Y-70326250D01*
X128104000Y-69635690D01*
X128007327Y-69402301D01*
X127828698Y-69223673D01*
X127764019Y-69196882D01*
X128031879Y-68796000D01*
X165082758Y-68796000D01*
X165082758Y-70396000D01*
X165139182Y-70679661D01*
X165299863Y-70920137D01*
X165540339Y-71080818D01*
X165824000Y-71137242D01*
X167424000Y-71137242D01*
X167707661Y-71080818D01*
X167948137Y-70920137D01*
X168108818Y-70679661D01*
X168114327Y-70651963D01*
X168180986Y-70718622D01*
X168295861Y-70603747D01*
X168369995Y-70849864D01*
X168907223Y-71042965D01*
X169477454Y-71015778D01*
X169878005Y-70849864D01*
X169952139Y-70603745D01*
X169124000Y-69775605D01*
X169109858Y-69789748D01*
X168930252Y-69610142D01*
X168944395Y-69596000D01*
X169303605Y-69596000D01*
X170131745Y-70424139D01*
X170377864Y-70350005D01*
X170570965Y-69812777D01*
X170543778Y-69242546D01*
X170377864Y-68841995D01*
X170131745Y-68767861D01*
X169303605Y-69596000D01*
X168944395Y-69596000D01*
X168930252Y-69581858D01*
X169109858Y-69402252D01*
X169124000Y-69416395D01*
X169952139Y-68588255D01*
X169878005Y-68342136D01*
X169340777Y-68149035D01*
X168770546Y-68176222D01*
X168369995Y-68342136D01*
X168295861Y-68588253D01*
X168180986Y-68473378D01*
X168114327Y-68540037D01*
X168108818Y-68512339D01*
X167948137Y-68271863D01*
X167707661Y-68111182D01*
X167424000Y-68054758D01*
X165824000Y-68054758D01*
X165540339Y-68111182D01*
X165299863Y-68271863D01*
X165139182Y-68512339D01*
X165082758Y-68796000D01*
X128031879Y-68796000D01*
X128104501Y-68687315D01*
X128226895Y-68072000D01*
X128104501Y-67456685D01*
X127755953Y-66935047D01*
X127556834Y-66802000D01*
X127755953Y-66668953D01*
X128104501Y-66147315D01*
X128226895Y-65532000D01*
X128104501Y-64916685D01*
X127755953Y-64395047D01*
X127556834Y-64262000D01*
X127755953Y-64128953D01*
X127862830Y-63969000D01*
X134879382Y-63969000D01*
X134975600Y-63988139D01*
X135071818Y-63969000D01*
X135071823Y-63969000D01*
X135356806Y-63912313D01*
X135679977Y-63696377D01*
X135734483Y-63614803D01*
X143762287Y-55587000D01*
X148616170Y-55587000D01*
X148723047Y-55746953D01*
X148922166Y-55880000D01*
X148723047Y-56013047D01*
X148374499Y-56534685D01*
X148252105Y-57150000D01*
X148374499Y-57765315D01*
X148723047Y-58286953D01*
X148922166Y-58420000D01*
X148723047Y-58553047D01*
X148374499Y-59074685D01*
X148252105Y-59690000D01*
X148374499Y-60305315D01*
X148723047Y-60826953D01*
X148922166Y-60960000D01*
X148723047Y-61093047D01*
X148374499Y-61614685D01*
X148252105Y-62230000D01*
X148374499Y-62845315D01*
X148663193Y-63277375D01*
X148485863Y-63395863D01*
X148325182Y-63636339D01*
X148268758Y-63920000D01*
X148268758Y-65620000D01*
X148325182Y-65903661D01*
X148485863Y-66144137D01*
X148726339Y-66304818D01*
X149010000Y-66361242D01*
X150710000Y-66361242D01*
X150993661Y-66304818D01*
X151234137Y-66144137D01*
X151365860Y-65947000D01*
X158514140Y-65947000D01*
X158645863Y-66144137D01*
X158886339Y-66304818D01*
X159170000Y-66361242D01*
X160870000Y-66361242D01*
X161153661Y-66304818D01*
X161394137Y-66144137D01*
X161554818Y-65903661D01*
X161611242Y-65620000D01*
X161611242Y-63920000D01*
X161554818Y-63636339D01*
X161394137Y-63395863D01*
X161216807Y-63277375D01*
X161505501Y-62845315D01*
X161627895Y-62230000D01*
X161505501Y-61614685D01*
X161156953Y-61093047D01*
X160957834Y-60960000D01*
X161156953Y-60826953D01*
X161505501Y-60305315D01*
X161627895Y-59690000D01*
X161505501Y-59074685D01*
X161156953Y-58553047D01*
X160957834Y-58420000D01*
X161156953Y-58286953D01*
X161505501Y-57765315D01*
X161627895Y-57150000D01*
X161505501Y-56534685D01*
X161156953Y-56013047D01*
X160957834Y-55880000D01*
X161156953Y-55746953D01*
X161505501Y-55225315D01*
X161627895Y-54610000D01*
X166032105Y-54610000D01*
X166154499Y-55225315D01*
X166503047Y-55746953D01*
X166702166Y-55880000D01*
X166503047Y-56013047D01*
X166154499Y-56534685D01*
X166032105Y-57150000D01*
X166154499Y-57765315D01*
X166503047Y-58286953D01*
X167024685Y-58635501D01*
X167484681Y-58727000D01*
X167795319Y-58727000D01*
X168255315Y-58635501D01*
X168776953Y-58286953D01*
X169125501Y-57765315D01*
X169247895Y-57150000D01*
X169125501Y-56534685D01*
X168776953Y-56013047D01*
X168577834Y-55880000D01*
X168776953Y-55746953D01*
X169125501Y-55225315D01*
X169247895Y-54610000D01*
X169125501Y-53994685D01*
X168836807Y-53562625D01*
X169014137Y-53444137D01*
X169174818Y-53203661D01*
X169231242Y-52920000D01*
X169231242Y-51220000D01*
X169174818Y-50936339D01*
X169014137Y-50695863D01*
X168773661Y-50535182D01*
X168490000Y-50478758D01*
X166790000Y-50478758D01*
X166506339Y-50535182D01*
X166265863Y-50695863D01*
X166105182Y-50936339D01*
X166048758Y-51220000D01*
X166048758Y-52920000D01*
X166105182Y-53203661D01*
X166265863Y-53444137D01*
X166443193Y-53562625D01*
X166154499Y-53994685D01*
X166032105Y-54610000D01*
X161627895Y-54610000D01*
X161505501Y-53994685D01*
X161156953Y-53473047D01*
X160868768Y-53280488D01*
X160901358Y-53265183D01*
X161291645Y-52836924D01*
X161461476Y-52426890D01*
X161340155Y-52197000D01*
X160147000Y-52197000D01*
X160147000Y-52217000D01*
X159893000Y-52217000D01*
X159893000Y-52197000D01*
X158699845Y-52197000D01*
X158578524Y-52426890D01*
X158748355Y-52836924D01*
X159138642Y-53265183D01*
X159171232Y-53280488D01*
X158883047Y-53473047D01*
X158534499Y-53994685D01*
X158412105Y-54610000D01*
X158534499Y-55225315D01*
X158883047Y-55746953D01*
X159082166Y-55880000D01*
X158883047Y-56013047D01*
X158776170Y-56173000D01*
X151103830Y-56173000D01*
X150996953Y-56013047D01*
X150797834Y-55880000D01*
X150996953Y-55746953D01*
X151345501Y-55225315D01*
X151467895Y-54610000D01*
X151345501Y-53994685D01*
X150996953Y-53473047D01*
X150708768Y-53280488D01*
X150741358Y-53265183D01*
X151131645Y-52836924D01*
X151301476Y-52426890D01*
X151180155Y-52197000D01*
X149987000Y-52197000D01*
X149987000Y-52217000D01*
X149733000Y-52217000D01*
X149733000Y-52197000D01*
X148539845Y-52197000D01*
X148418524Y-52426890D01*
X148588355Y-52836924D01*
X148978642Y-53265183D01*
X149011232Y-53280488D01*
X148723047Y-53473047D01*
X148616170Y-53633000D01*
X143531887Y-53633000D01*
X145451777Y-51713110D01*
X148418524Y-51713110D01*
X148539845Y-51943000D01*
X149733000Y-51943000D01*
X149733000Y-50749181D01*
X149987000Y-50749181D01*
X149987000Y-51943000D01*
X151180155Y-51943000D01*
X151301476Y-51713110D01*
X158578524Y-51713110D01*
X158699845Y-51943000D01*
X159893000Y-51943000D01*
X159893000Y-50749181D01*
X160147000Y-50749181D01*
X160147000Y-51943000D01*
X161340155Y-51943000D01*
X161461476Y-51713110D01*
X161291645Y-51303076D01*
X160901358Y-50874817D01*
X160376892Y-50628514D01*
X160147000Y-50749181D01*
X159893000Y-50749181D01*
X159663108Y-50628514D01*
X159138642Y-50874817D01*
X158748355Y-51303076D01*
X158578524Y-51713110D01*
X151301476Y-51713110D01*
X151131645Y-51303076D01*
X150741358Y-50874817D01*
X150216892Y-50628514D01*
X149987000Y-50749181D01*
X149733000Y-50749181D01*
X149503108Y-50628514D01*
X148978642Y-50874817D01*
X148588355Y-51303076D01*
X148418524Y-51713110D01*
X145451777Y-51713110D01*
X147942806Y-49222081D01*
X148024377Y-49167577D01*
X148078881Y-49086006D01*
X148078883Y-49086004D01*
X148240313Y-48844406D01*
X148255511Y-48768000D01*
X148297000Y-48559423D01*
X148297000Y-48559419D01*
X148316139Y-48463200D01*
X148297000Y-48366981D01*
X148297000Y-39370000D01*
X157142105Y-39370000D01*
X157264499Y-39985315D01*
X157613047Y-40506953D01*
X157812166Y-40640000D01*
X157613047Y-40773047D01*
X157264499Y-41294685D01*
X157142105Y-41910000D01*
X157264499Y-42525315D01*
X157613047Y-43046953D01*
X158134685Y-43395501D01*
X158594681Y-43487000D01*
X158905319Y-43487000D01*
X159365315Y-43395501D01*
X159827019Y-43087000D01*
X165292981Y-43087000D01*
X165754685Y-43395501D01*
X166214681Y-43487000D01*
X166525319Y-43487000D01*
X166985315Y-43395501D01*
X167506953Y-43046953D01*
X167855501Y-42525315D01*
X167977895Y-41910000D01*
X167855501Y-41294685D01*
X167506953Y-40773047D01*
X167307834Y-40640000D01*
X167506953Y-40506953D01*
X167855501Y-39985315D01*
X167977895Y-39370000D01*
X167855501Y-38754685D01*
X167566807Y-38322625D01*
X167744137Y-38204137D01*
X167904818Y-37963661D01*
X167961242Y-37680000D01*
X167961242Y-35980000D01*
X167904818Y-35696339D01*
X167744137Y-35455863D01*
X167503661Y-35295182D01*
X167220000Y-35238758D01*
X165520000Y-35238758D01*
X165236339Y-35295182D01*
X164995863Y-35455863D01*
X164835182Y-35696339D01*
X164778758Y-35980000D01*
X164778758Y-37680000D01*
X164835182Y-37963661D01*
X164995863Y-38204137D01*
X165173193Y-38322625D01*
X164884499Y-38754685D01*
X164762105Y-39370000D01*
X164884499Y-39985315D01*
X165233047Y-40506953D01*
X165432166Y-40640000D01*
X165292981Y-40733000D01*
X159827019Y-40733000D01*
X159687834Y-40640000D01*
X159886953Y-40506953D01*
X160235501Y-39985315D01*
X160357895Y-39370000D01*
X160235501Y-38754685D01*
X159946807Y-38322625D01*
X160124137Y-38204137D01*
X160284818Y-37963661D01*
X160341242Y-37680000D01*
X160341242Y-35980000D01*
X160284818Y-35696339D01*
X160124137Y-35455863D01*
X159883661Y-35295182D01*
X159600000Y-35238758D01*
X157900000Y-35238758D01*
X157616339Y-35295182D01*
X157375863Y-35455863D01*
X157215182Y-35696339D01*
X157158758Y-35980000D01*
X157158758Y-37680000D01*
X157215182Y-37963661D01*
X157375863Y-38204137D01*
X157553193Y-38322625D01*
X157264499Y-38754685D01*
X157142105Y-39370000D01*
X148297000Y-39370000D01*
X148297000Y-38073830D01*
X148444882Y-37975019D01*
X148471673Y-38039698D01*
X148650301Y-38218327D01*
X148883690Y-38315000D01*
X149574250Y-38315000D01*
X149733000Y-38156250D01*
X149733000Y-36957000D01*
X149987000Y-36957000D01*
X149987000Y-38156250D01*
X150145750Y-38315000D01*
X150836310Y-38315000D01*
X151069699Y-38218327D01*
X151248327Y-38039698D01*
X151345000Y-37806309D01*
X151345000Y-37115750D01*
X151186250Y-36957000D01*
X149987000Y-36957000D01*
X149733000Y-36957000D01*
X149713000Y-36957000D01*
X149713000Y-36703000D01*
X149733000Y-36703000D01*
X149733000Y-35503750D01*
X149987000Y-35503750D01*
X149987000Y-36703000D01*
X151186250Y-36703000D01*
X151345000Y-36544250D01*
X151345000Y-35853691D01*
X151248327Y-35620302D01*
X151069699Y-35441673D01*
X150836310Y-35345000D01*
X150145750Y-35345000D01*
X149987000Y-35503750D01*
X149733000Y-35503750D01*
X149574250Y-35345000D01*
X148883690Y-35345000D01*
X148650301Y-35441673D01*
X148471673Y-35620302D01*
X148444882Y-35684981D01*
X147935315Y-35344499D01*
X147475319Y-35253000D01*
X147164681Y-35253000D01*
X146704685Y-35344499D01*
X146183047Y-35693047D01*
X146050000Y-35892166D01*
X145916953Y-35693047D01*
X145395315Y-35344499D01*
X144935319Y-35253000D01*
X144624681Y-35253000D01*
X144164685Y-35344499D01*
X143643047Y-35693047D01*
X143510000Y-35892166D01*
X143376953Y-35693047D01*
X142855315Y-35344499D01*
X142395319Y-35253000D01*
X142084681Y-35253000D01*
X141624685Y-35344499D01*
X141103047Y-35693047D01*
X140970000Y-35892166D01*
X140836953Y-35693047D01*
X140315315Y-35344499D01*
X139855319Y-35253000D01*
X139544681Y-35253000D01*
X139084685Y-35344499D01*
X138563047Y-35693047D01*
X138214499Y-36214685D01*
X138092105Y-36830000D01*
X138214499Y-37445315D01*
X138563047Y-37966953D01*
X139084685Y-38315501D01*
X139544681Y-38407000D01*
X139855319Y-38407000D01*
X140315315Y-38315501D01*
X140836953Y-37966953D01*
X140970000Y-37767834D01*
X141103047Y-37966953D01*
X141624685Y-38315501D01*
X141865009Y-38363304D01*
X138501394Y-41726920D01*
X138419823Y-41781424D01*
X138365319Y-41862995D01*
X138365316Y-41862998D01*
X138203887Y-42104595D01*
X138128060Y-42485801D01*
X138147200Y-42582024D01*
X138147200Y-44130910D01*
X137938280Y-43626533D01*
X137452467Y-43140720D01*
X136817722Y-42877800D01*
X136130678Y-42877800D01*
X135495933Y-43140720D01*
X135010120Y-43626533D01*
X134747200Y-44261278D01*
X134747200Y-44948322D01*
X135010120Y-45583067D01*
X135495933Y-46068880D01*
X136130678Y-46331800D01*
X136817722Y-46331800D01*
X137452467Y-46068880D01*
X137938280Y-45583067D01*
X138147200Y-45078690D01*
X138147199Y-50492116D01*
X138106548Y-50532767D01*
X137938280Y-50126533D01*
X137452467Y-49640720D01*
X136817722Y-49377800D01*
X136130678Y-49377800D01*
X135495933Y-49640720D01*
X135010120Y-50126533D01*
X134747200Y-50761278D01*
X134747200Y-51448322D01*
X134747725Y-51449589D01*
X134342314Y-51855000D01*
X127862830Y-51855000D01*
X127755953Y-51695047D01*
X127556834Y-51562000D01*
X127755953Y-51428953D01*
X128104501Y-50907315D01*
X128226895Y-50292000D01*
X128104501Y-49676685D01*
X127755953Y-49155047D01*
X127556834Y-49022000D01*
X127755953Y-48888953D01*
X128104501Y-48367315D01*
X128226895Y-47752000D01*
X128104501Y-47136685D01*
X127815807Y-46704625D01*
X127993137Y-46586137D01*
X128153818Y-46345661D01*
X128210242Y-46062000D01*
X128210242Y-44362000D01*
X128153818Y-44078339D01*
X127993137Y-43837863D01*
X127815807Y-43719375D01*
X128104501Y-43287315D01*
X128226895Y-42672000D01*
X128104501Y-42056685D01*
X127755953Y-41535047D01*
X127556834Y-41402000D01*
X127755953Y-41268953D01*
X128104501Y-40747315D01*
X128226895Y-40132000D01*
X128104501Y-39516685D01*
X127755953Y-38995047D01*
X127556834Y-38862000D01*
X127755953Y-38728953D01*
X128104501Y-38207315D01*
X128226895Y-37592000D01*
X128104501Y-36976685D01*
X127755953Y-36455047D01*
X127556834Y-36322000D01*
X127755953Y-36188953D01*
X128104501Y-35667315D01*
X128226895Y-35052000D01*
X128104501Y-34436685D01*
X127764019Y-33927118D01*
X127828698Y-33900327D01*
X128007327Y-33721699D01*
X128104000Y-33488310D01*
X128104000Y-32797750D01*
X127945250Y-32639000D01*
X126746000Y-32639000D01*
X126746000Y-32659000D01*
X126492000Y-32659000D01*
X126492000Y-32639000D01*
X125292750Y-32639000D01*
X125134000Y-32797750D01*
X125134000Y-33488310D01*
X125230673Y-33721699D01*
X125409302Y-33900327D01*
X125473981Y-33927118D01*
X125133499Y-34436685D01*
X125011105Y-35052000D01*
X110446895Y-35052000D01*
X110324501Y-34436685D01*
X109984019Y-33927118D01*
X110048698Y-33900327D01*
X110227327Y-33721699D01*
X110324000Y-33488310D01*
X110324000Y-32797750D01*
X110165250Y-32639000D01*
X108966000Y-32639000D01*
X108966000Y-32659000D01*
X108712000Y-32659000D01*
X108712000Y-32639000D01*
X107512750Y-32639000D01*
X107354000Y-32797750D01*
X107354000Y-33488310D01*
X107450673Y-33721699D01*
X107629302Y-33900327D01*
X107693981Y-33927118D01*
X107353499Y-34436685D01*
X107231105Y-35052000D01*
X99794604Y-35052000D01*
X99880495Y-34620200D01*
X99758101Y-34004885D01*
X99409553Y-33483247D01*
X98887915Y-33134699D01*
X98427919Y-33043200D01*
X98117281Y-33043200D01*
X97657285Y-33134699D01*
X97147718Y-33475181D01*
X97120927Y-33410502D01*
X96942299Y-33231873D01*
X96708910Y-33135200D01*
X96018350Y-33135200D01*
X95859600Y-33293950D01*
X95605600Y-33293950D01*
X95446850Y-33135200D01*
X94756290Y-33135200D01*
X94522901Y-33231873D01*
X94344273Y-33410502D01*
X94247600Y-33643891D01*
X87839770Y-33643891D01*
X87845501Y-33635315D01*
X87967895Y-33020000D01*
X87930365Y-32831322D01*
X87968882Y-32792805D01*
X87968884Y-32792802D01*
X91452677Y-29309010D01*
X106794324Y-29309010D01*
X107268635Y-29783322D01*
X107231105Y-29972000D01*
X107353499Y-30587315D01*
X107693981Y-31096882D01*
X107629302Y-31123673D01*
X107450673Y-31302301D01*
X107354000Y-31535690D01*
X107354000Y-32226250D01*
X107512750Y-32385000D01*
X108712000Y-32385000D01*
X108712000Y-32365000D01*
X108966000Y-32365000D01*
X108966000Y-32385000D01*
X110165250Y-32385000D01*
X110324000Y-32226250D01*
X110324000Y-31535690D01*
X110227327Y-31302301D01*
X110048698Y-31123673D01*
X109984019Y-31096882D01*
X110324501Y-30587315D01*
X110446895Y-29972000D01*
X110324501Y-29356685D01*
X109975953Y-28835047D01*
X109776834Y-28702000D01*
X109975953Y-28568953D01*
X110324501Y-28047315D01*
X110446895Y-27432000D01*
X110324501Y-26816685D01*
X109975953Y-26295047D01*
X109699011Y-26110000D01*
X111592393Y-26110000D01*
X112418611Y-26523110D01*
X112498972Y-26576805D01*
X112612775Y-26599442D01*
X112724683Y-26630088D01*
X112820570Y-26618000D01*
X113677985Y-26618000D01*
X113471400Y-26927176D01*
X113345126Y-27562000D01*
X113471400Y-28196824D01*
X113830999Y-28735001D01*
X114369176Y-29094600D01*
X114815133Y-29183306D01*
X114727703Y-29200697D01*
X114239142Y-29527142D01*
X113912697Y-30015703D01*
X113798064Y-30592000D01*
X113912697Y-31168297D01*
X114239142Y-31656858D01*
X114727703Y-31983303D01*
X115158529Y-32069000D01*
X115449471Y-32069000D01*
X115880297Y-31983303D01*
X116368858Y-31656858D01*
X116695303Y-31168297D01*
X116809936Y-30592000D01*
X116695303Y-30015703D01*
X116368858Y-29527142D01*
X115880297Y-29200697D01*
X115492868Y-29123632D01*
X115638824Y-29094600D01*
X116177001Y-28735001D01*
X116536600Y-28196824D01*
X116662874Y-27562000D01*
X116536600Y-26927176D01*
X116330015Y-26618000D01*
X119127985Y-26618000D01*
X118921400Y-26927176D01*
X118795126Y-27562000D01*
X118921400Y-28196824D01*
X119280999Y-28735001D01*
X119819176Y-29094600D01*
X119965132Y-29123632D01*
X119577703Y-29200697D01*
X119089142Y-29527142D01*
X118762697Y-30015703D01*
X118648064Y-30592000D01*
X118762697Y-31168297D01*
X119089142Y-31656858D01*
X119577703Y-31983303D01*
X120008529Y-32069000D01*
X120299471Y-32069000D01*
X120730297Y-31983303D01*
X121218858Y-31656858D01*
X121545303Y-31168297D01*
X121659936Y-30592000D01*
X121545303Y-30015703D01*
X121218858Y-29527142D01*
X120730297Y-29200697D01*
X120642867Y-29183306D01*
X121088824Y-29094600D01*
X121627001Y-28735001D01*
X121986600Y-28196824D01*
X122112874Y-27562000D01*
X121986600Y-26927176D01*
X121780015Y-26618000D01*
X122383430Y-26618000D01*
X122479317Y-26630088D01*
X122591223Y-26599442D01*
X122705028Y-26576805D01*
X122785391Y-26523108D01*
X123611607Y-26110000D01*
X125758989Y-26110000D01*
X125482047Y-26295047D01*
X125133499Y-26816685D01*
X125011105Y-27432000D01*
X125133499Y-28047315D01*
X125482047Y-28568953D01*
X125591168Y-28641865D01*
X125409951Y-28762951D01*
X125039301Y-29317667D01*
X124909146Y-29972000D01*
X125039301Y-30626333D01*
X125386709Y-31146266D01*
X125230673Y-31302301D01*
X125134000Y-31535690D01*
X125134000Y-32226250D01*
X125292750Y-32385000D01*
X126492000Y-32385000D01*
X126492000Y-32365000D01*
X126746000Y-32365000D01*
X126746000Y-32385000D01*
X127945250Y-32385000D01*
X128104000Y-32226250D01*
X128104000Y-31955745D01*
X133791861Y-31955745D01*
X133865995Y-32201864D01*
X134403223Y-32394965D01*
X134973454Y-32367778D01*
X135374005Y-32201864D01*
X135448139Y-31955745D01*
X134620000Y-31127605D01*
X133791861Y-31955745D01*
X128104000Y-31955745D01*
X128104000Y-31535690D01*
X128007327Y-31302301D01*
X127851291Y-31146266D01*
X128198699Y-30626333D01*
X128328854Y-29972000D01*
X128198699Y-29317667D01*
X127828049Y-28762951D01*
X127646832Y-28641865D01*
X127755953Y-28568953D01*
X128104501Y-28047315D01*
X128183929Y-27648000D01*
X132976799Y-27648000D01*
X132976799Y-29248000D01*
X133040984Y-29570679D01*
X133223767Y-29844233D01*
X133497321Y-30027016D01*
X133524892Y-30032500D01*
X133612253Y-30119861D01*
X133366136Y-30193995D01*
X133173035Y-30731223D01*
X133200222Y-31301454D01*
X133366136Y-31702005D01*
X133612255Y-31776139D01*
X134440395Y-30948000D01*
X134426252Y-30933858D01*
X134605858Y-30754252D01*
X134620000Y-30768395D01*
X134634142Y-30754252D01*
X134813748Y-30933858D01*
X134799605Y-30948000D01*
X135627745Y-31776139D01*
X135873864Y-31702005D01*
X136066965Y-31164777D01*
X136039778Y-30594546D01*
X135873864Y-30193995D01*
X135627747Y-30119861D01*
X135715108Y-30032500D01*
X135742679Y-30027016D01*
X136016233Y-29844233D01*
X136199016Y-29570679D01*
X136263201Y-29248000D01*
X136263201Y-27648000D01*
X136199016Y-27325321D01*
X136041780Y-27090000D01*
X141054799Y-27090000D01*
X141054799Y-28790000D01*
X141118984Y-29112679D01*
X141301767Y-29386233D01*
X141575321Y-29569016D01*
X141898000Y-29633201D01*
X143598000Y-29633201D01*
X143920679Y-29569016D01*
X144194233Y-29386233D01*
X144268215Y-29275511D01*
X144633667Y-29519699D01*
X145122832Y-29617000D01*
X145453168Y-29617000D01*
X145942333Y-29519699D01*
X146497049Y-29149049D01*
X146558000Y-29057830D01*
X146618951Y-29149049D01*
X147173667Y-29519699D01*
X147662832Y-29617000D01*
X147993168Y-29617000D01*
X148482333Y-29519699D01*
X149037049Y-29149049D01*
X149407699Y-28594333D01*
X149466863Y-28296892D01*
X154768514Y-28296892D01*
X155014817Y-28821358D01*
X155443076Y-29211645D01*
X155853110Y-29381476D01*
X156083000Y-29260155D01*
X156083000Y-28067000D01*
X156337000Y-28067000D01*
X156337000Y-29260155D01*
X156566890Y-29381476D01*
X156976924Y-29211645D01*
X157405183Y-28821358D01*
X157480000Y-28662046D01*
X157554817Y-28821358D01*
X157983076Y-29211645D01*
X158393110Y-29381476D01*
X158623000Y-29260155D01*
X158623000Y-28067000D01*
X158877000Y-28067000D01*
X158877000Y-29260155D01*
X159106890Y-29381476D01*
X159516924Y-29211645D01*
X159814864Y-28940122D01*
X159901673Y-29149698D01*
X160080301Y-29328327D01*
X160313690Y-29425000D01*
X161004250Y-29425000D01*
X161163000Y-29266250D01*
X161163000Y-28067000D01*
X161417000Y-28067000D01*
X161417000Y-29266250D01*
X161575750Y-29425000D01*
X162266310Y-29425000D01*
X162499699Y-29328327D01*
X162678327Y-29149698D01*
X162775000Y-28916309D01*
X162775000Y-28747131D01*
X166583000Y-28747131D01*
X166583000Y-29672869D01*
X166937264Y-30528140D01*
X167591860Y-31182736D01*
X168447131Y-31537000D01*
X169372869Y-31537000D01*
X170228140Y-31182736D01*
X170882736Y-30528140D01*
X171237000Y-29672869D01*
X171237000Y-28747131D01*
X170882736Y-27891860D01*
X170228140Y-27237264D01*
X169372869Y-26883000D01*
X168447131Y-26883000D01*
X167591860Y-27237264D01*
X166937264Y-27891860D01*
X166583000Y-28747131D01*
X162775000Y-28747131D01*
X162775000Y-28225750D01*
X162616250Y-28067000D01*
X161417000Y-28067000D01*
X161163000Y-28067000D01*
X158877000Y-28067000D01*
X158623000Y-28067000D01*
X156337000Y-28067000D01*
X156083000Y-28067000D01*
X154889181Y-28067000D01*
X154768514Y-28296892D01*
X149466863Y-28296892D01*
X149537854Y-27940000D01*
X149466864Y-27583108D01*
X154768514Y-27583108D01*
X154889181Y-27813000D01*
X156083000Y-27813000D01*
X156083000Y-26619845D01*
X156337000Y-26619845D01*
X156337000Y-27813000D01*
X158623000Y-27813000D01*
X158623000Y-26619845D01*
X158877000Y-26619845D01*
X158877000Y-27813000D01*
X161163000Y-27813000D01*
X161163000Y-26613750D01*
X161417000Y-26613750D01*
X161417000Y-27813000D01*
X162616250Y-27813000D01*
X162775000Y-27654250D01*
X162775000Y-26963691D01*
X162678327Y-26730302D01*
X162499699Y-26551673D01*
X162266310Y-26455000D01*
X161575750Y-26455000D01*
X161417000Y-26613750D01*
X161163000Y-26613750D01*
X161004250Y-26455000D01*
X160313690Y-26455000D01*
X160080301Y-26551673D01*
X159901673Y-26730302D01*
X159814864Y-26939878D01*
X159516924Y-26668355D01*
X159106890Y-26498524D01*
X158877000Y-26619845D01*
X158623000Y-26619845D01*
X158393110Y-26498524D01*
X157983076Y-26668355D01*
X157554817Y-27058642D01*
X157480000Y-27217954D01*
X157405183Y-27058642D01*
X156976924Y-26668355D01*
X156566890Y-26498524D01*
X156337000Y-26619845D01*
X156083000Y-26619845D01*
X155853110Y-26498524D01*
X155443076Y-26668355D01*
X155014817Y-27058642D01*
X154768514Y-27583108D01*
X149466864Y-27583108D01*
X149407699Y-27285667D01*
X149037049Y-26730951D01*
X148482333Y-26360301D01*
X147993168Y-26263000D01*
X147662832Y-26263000D01*
X147173667Y-26360301D01*
X146618951Y-26730951D01*
X146558000Y-26822170D01*
X146497049Y-26730951D01*
X145942333Y-26360301D01*
X145453168Y-26263000D01*
X145122832Y-26263000D01*
X144633667Y-26360301D01*
X144268215Y-26604489D01*
X144194233Y-26493767D01*
X143920679Y-26310984D01*
X143598000Y-26246799D01*
X141898000Y-26246799D01*
X141575321Y-26310984D01*
X141301767Y-26493767D01*
X141118984Y-26767321D01*
X141054799Y-27090000D01*
X136041780Y-27090000D01*
X136016233Y-27051767D01*
X135742679Y-26868984D01*
X135420000Y-26804799D01*
X133820000Y-26804799D01*
X133497321Y-26868984D01*
X133223767Y-27051767D01*
X133040984Y-27325321D01*
X132976799Y-27648000D01*
X128183929Y-27648000D01*
X128226895Y-27432000D01*
X128104501Y-26816685D01*
X127755953Y-26295047D01*
X127479011Y-26110000D01*
X170135334Y-26110000D01*
X170633698Y-26172958D01*
X171058893Y-26341305D01*
X171428858Y-26610101D01*
X171720356Y-26962462D01*
X171915067Y-27376244D01*
X172007093Y-27858662D01*
X172010000Y-27951164D01*
X172010001Y-99015326D01*
X171947042Y-99513699D01*
X171778697Y-99938889D01*
X171509899Y-100308859D01*
X171157541Y-100600355D01*
X170743756Y-100795067D01*
X170261339Y-100887093D01*
X170168836Y-100890000D01*
X76244667Y-100890000D01*
X75746301Y-100827042D01*
X75321111Y-100658697D01*
X74951141Y-100389899D01*
X74659645Y-100037541D01*
X74464933Y-99623756D01*
X74372907Y-99141339D01*
X74370000Y-99048836D01*
X74370000Y-97327131D01*
X75143000Y-97327131D01*
X75143000Y-98252869D01*
X75497264Y-99108140D01*
X76151860Y-99762736D01*
X77007131Y-100117000D01*
X77932869Y-100117000D01*
X78788140Y-99762736D01*
X79442736Y-99108140D01*
X79797000Y-98252869D01*
X79797000Y-97817022D01*
X135983000Y-97817022D01*
X135983000Y-98702978D01*
X136322040Y-99521494D01*
X136948506Y-100147960D01*
X137767022Y-100487000D01*
X138652978Y-100487000D01*
X139471494Y-100147960D01*
X140097960Y-99521494D01*
X140437000Y-98702978D01*
X140437000Y-97817022D01*
X159283000Y-97817022D01*
X159283000Y-98702978D01*
X159622040Y-99521494D01*
X160248506Y-100147960D01*
X161067022Y-100487000D01*
X161952978Y-100487000D01*
X162771494Y-100147960D01*
X163397960Y-99521494D01*
X163737000Y-98702978D01*
X163737000Y-97817022D01*
X163534081Y-97327131D01*
X166583000Y-97327131D01*
X166583000Y-98252869D01*
X166937264Y-99108140D01*
X167591860Y-99762736D01*
X168447131Y-100117000D01*
X169372869Y-100117000D01*
X170228140Y-99762736D01*
X170882736Y-99108140D01*
X171237000Y-98252869D01*
X171237000Y-97327131D01*
X170882736Y-96471860D01*
X170228140Y-95817264D01*
X169372869Y-95463000D01*
X168447131Y-95463000D01*
X167591860Y-95817264D01*
X166937264Y-96471860D01*
X166583000Y-97327131D01*
X163534081Y-97327131D01*
X163397960Y-96998506D01*
X162771494Y-96372040D01*
X161952978Y-96033000D01*
X161067022Y-96033000D01*
X160248506Y-96372040D01*
X159622040Y-96998506D01*
X159283000Y-97817022D01*
X140437000Y-97817022D01*
X140097960Y-96998506D01*
X139471494Y-96372040D01*
X138652978Y-96033000D01*
X137767022Y-96033000D01*
X136948506Y-96372040D01*
X136322040Y-96998506D01*
X135983000Y-97817022D01*
X79797000Y-97817022D01*
X79797000Y-97327131D01*
X79442736Y-96471860D01*
X79428408Y-96457532D01*
X85387073Y-96457532D01*
X85485736Y-96724387D01*
X86095461Y-96950908D01*
X86745460Y-96926856D01*
X87234264Y-96724387D01*
X87332927Y-96457532D01*
X91887073Y-96457532D01*
X91985736Y-96724387D01*
X92595461Y-96950908D01*
X93245460Y-96926856D01*
X93734264Y-96724387D01*
X93832927Y-96457532D01*
X101897073Y-96457532D01*
X101995736Y-96724387D01*
X102605461Y-96950908D01*
X103255460Y-96926856D01*
X103744264Y-96724387D01*
X103842927Y-96457532D01*
X108397073Y-96457532D01*
X108495736Y-96724387D01*
X109105461Y-96950908D01*
X109755460Y-96926856D01*
X110244264Y-96724387D01*
X110342927Y-96457532D01*
X109370000Y-95484605D01*
X108397073Y-96457532D01*
X103842927Y-96457532D01*
X102870000Y-95484605D01*
X101897073Y-96457532D01*
X93832927Y-96457532D01*
X92860000Y-95484605D01*
X91887073Y-96457532D01*
X87332927Y-96457532D01*
X86360000Y-95484605D01*
X85387073Y-96457532D01*
X79428408Y-96457532D01*
X78788140Y-95817264D01*
X77932869Y-95463000D01*
X77007131Y-95463000D01*
X76151860Y-95817264D01*
X75497264Y-96471860D01*
X75143000Y-97327131D01*
X74370000Y-97327131D01*
X74370000Y-95040461D01*
X84714092Y-95040461D01*
X84738144Y-95690460D01*
X84940613Y-96179264D01*
X85207468Y-96277927D01*
X86180395Y-95305000D01*
X86539605Y-95305000D01*
X87512532Y-96277927D01*
X87779387Y-96179264D01*
X88005908Y-95569539D01*
X87986331Y-95040461D01*
X91214092Y-95040461D01*
X91238144Y-95690460D01*
X91440613Y-96179264D01*
X91707468Y-96277927D01*
X92680395Y-95305000D01*
X93039605Y-95305000D01*
X94012532Y-96277927D01*
X94279387Y-96179264D01*
X94505908Y-95569539D01*
X94486331Y-95040461D01*
X101224092Y-95040461D01*
X101248144Y-95690460D01*
X101450613Y-96179264D01*
X101717468Y-96277927D01*
X102690395Y-95305000D01*
X103049605Y-95305000D01*
X104022532Y-96277927D01*
X104289387Y-96179264D01*
X104515908Y-95569539D01*
X104496331Y-95040461D01*
X107724092Y-95040461D01*
X107748144Y-95690460D01*
X107950613Y-96179264D01*
X108217468Y-96277927D01*
X109190395Y-95305000D01*
X109549605Y-95305000D01*
X110522532Y-96277927D01*
X110789387Y-96179264D01*
X111015908Y-95569539D01*
X110991856Y-94919540D01*
X110789387Y-94430736D01*
X110522532Y-94332073D01*
X109549605Y-95305000D01*
X109190395Y-95305000D01*
X108217468Y-94332073D01*
X107950613Y-94430736D01*
X107724092Y-95040461D01*
X104496331Y-95040461D01*
X104491856Y-94919540D01*
X104289387Y-94430736D01*
X104022532Y-94332073D01*
X103049605Y-95305000D01*
X102690395Y-95305000D01*
X101717468Y-94332073D01*
X101450613Y-94430736D01*
X101224092Y-95040461D01*
X94486331Y-95040461D01*
X94481856Y-94919540D01*
X94279387Y-94430736D01*
X94012532Y-94332073D01*
X93039605Y-95305000D01*
X92680395Y-95305000D01*
X91707468Y-94332073D01*
X91440613Y-94430736D01*
X91214092Y-95040461D01*
X87986331Y-95040461D01*
X87981856Y-94919540D01*
X87779387Y-94430736D01*
X87512532Y-94332073D01*
X86539605Y-95305000D01*
X86180395Y-95305000D01*
X85207468Y-94332073D01*
X84940613Y-94430736D01*
X84714092Y-95040461D01*
X74370000Y-95040461D01*
X74370000Y-94152468D01*
X85387073Y-94152468D01*
X86360000Y-95125395D01*
X87332927Y-94152468D01*
X91887073Y-94152468D01*
X92860000Y-95125395D01*
X93832927Y-94152468D01*
X101897073Y-94152468D01*
X102870000Y-95125395D01*
X103842927Y-94152468D01*
X108397073Y-94152468D01*
X109370000Y-95125395D01*
X110342927Y-94152468D01*
X110244264Y-93885613D01*
X109634539Y-93659092D01*
X108984540Y-93683144D01*
X108495736Y-93885613D01*
X108397073Y-94152468D01*
X103842927Y-94152468D01*
X103744264Y-93885613D01*
X103134539Y-93659092D01*
X102484540Y-93683144D01*
X101995736Y-93885613D01*
X101897073Y-94152468D01*
X93832927Y-94152468D01*
X93734264Y-93885613D01*
X93124539Y-93659092D01*
X92474540Y-93683144D01*
X91985736Y-93885613D01*
X91887073Y-94152468D01*
X87332927Y-94152468D01*
X87234264Y-93885613D01*
X86624539Y-93659092D01*
X85974540Y-93683144D01*
X85485736Y-93885613D01*
X85387073Y-94152468D01*
X74370000Y-94152468D01*
X74370000Y-90461478D01*
X84633000Y-90461478D01*
X84633000Y-91148522D01*
X84895920Y-91783267D01*
X85381733Y-92269080D01*
X86016478Y-92532000D01*
X86703522Y-92532000D01*
X87338267Y-92269080D01*
X87824080Y-91783267D01*
X88087000Y-91148522D01*
X88087000Y-90461478D01*
X91133000Y-90461478D01*
X91133000Y-91148522D01*
X91395920Y-91783267D01*
X91881733Y-92269080D01*
X92516478Y-92532000D01*
X93203522Y-92532000D01*
X93838267Y-92269080D01*
X94324080Y-91783267D01*
X94587000Y-91148522D01*
X94587000Y-90461478D01*
X101143000Y-90461478D01*
X101143000Y-91148522D01*
X101405920Y-91783267D01*
X101891733Y-92269080D01*
X102526478Y-92532000D01*
X103213522Y-92532000D01*
X103848267Y-92269080D01*
X104334080Y-91783267D01*
X104597000Y-91148522D01*
X104597000Y-90461478D01*
X107643000Y-90461478D01*
X107643000Y-91148522D01*
X107905920Y-91783267D01*
X108391733Y-92269080D01*
X109026478Y-92532000D01*
X109713522Y-92532000D01*
X110348267Y-92269080D01*
X110834080Y-91783267D01*
X111097000Y-91148522D01*
X111097000Y-90461478D01*
X110834080Y-89826733D01*
X110348267Y-89340920D01*
X109713522Y-89078000D01*
X109026478Y-89078000D01*
X108391733Y-89340920D01*
X107905920Y-89826733D01*
X107643000Y-90461478D01*
X104597000Y-90461478D01*
X104334080Y-89826733D01*
X103848267Y-89340920D01*
X103213522Y-89078000D01*
X102526478Y-89078000D01*
X101891733Y-89340920D01*
X101405920Y-89826733D01*
X101143000Y-90461478D01*
X94587000Y-90461478D01*
X94324080Y-89826733D01*
X93838267Y-89340920D01*
X93203522Y-89078000D01*
X92516478Y-89078000D01*
X91881733Y-89340920D01*
X91395920Y-89826733D01*
X91133000Y-90461478D01*
X88087000Y-90461478D01*
X87824080Y-89826733D01*
X87338267Y-89340920D01*
X86703522Y-89078000D01*
X86016478Y-89078000D01*
X85381733Y-89340920D01*
X84895920Y-89826733D01*
X84633000Y-90461478D01*
X74370000Y-90461478D01*
X74370000Y-88812000D01*
X118169399Y-88812000D01*
X118169399Y-90512000D01*
X118233584Y-90834679D01*
X118416367Y-91108233D01*
X118689921Y-91291016D01*
X119012600Y-91355201D01*
X120712600Y-91355201D01*
X121035279Y-91291016D01*
X121308833Y-91108233D01*
X121438372Y-90914364D01*
X121787285Y-91147501D01*
X122247281Y-91239000D01*
X122557919Y-91239000D01*
X123017915Y-91147501D01*
X123539553Y-90798953D01*
X123672600Y-90599834D01*
X123805647Y-90798953D01*
X124327285Y-91147501D01*
X124787281Y-91239000D01*
X125097919Y-91239000D01*
X125557915Y-91147501D01*
X126079553Y-90798953D01*
X126272112Y-90510768D01*
X126287417Y-90543358D01*
X126715676Y-90933645D01*
X127125710Y-91103476D01*
X127355600Y-90982155D01*
X127355600Y-89789000D01*
X127609600Y-89789000D01*
X127609600Y-90982155D01*
X127839490Y-91103476D01*
X128249524Y-90933645D01*
X128677783Y-90543358D01*
X128924086Y-90018892D01*
X128803419Y-89789000D01*
X127609600Y-89789000D01*
X127355600Y-89789000D01*
X127335600Y-89789000D01*
X127335600Y-89535000D01*
X127355600Y-89535000D01*
X127355600Y-88341845D01*
X127609600Y-88341845D01*
X127609600Y-89535000D01*
X128803419Y-89535000D01*
X128924086Y-89305108D01*
X128677783Y-88780642D01*
X128249524Y-88390355D01*
X127839490Y-88220524D01*
X127609600Y-88341845D01*
X127355600Y-88341845D01*
X127125710Y-88220524D01*
X126715676Y-88390355D01*
X126287417Y-88780642D01*
X126272112Y-88813232D01*
X126079553Y-88525047D01*
X125557915Y-88176499D01*
X125097919Y-88085000D01*
X124787281Y-88085000D01*
X124327285Y-88176499D01*
X123805647Y-88525047D01*
X123672600Y-88724166D01*
X123539553Y-88525047D01*
X123017915Y-88176499D01*
X122557919Y-88085000D01*
X122247281Y-88085000D01*
X121787285Y-88176499D01*
X121438372Y-88409636D01*
X121308833Y-88215767D01*
X121035279Y-88032984D01*
X120712600Y-87968799D01*
X119012600Y-87968799D01*
X118689921Y-88032984D01*
X118416367Y-88215767D01*
X118233584Y-88489321D01*
X118169399Y-88812000D01*
X74370000Y-88812000D01*
X74370000Y-85803745D01*
X97215861Y-85803745D01*
X97289995Y-86049864D01*
X97827223Y-86242965D01*
X98397454Y-86215778D01*
X98798005Y-86049864D01*
X98872139Y-85803745D01*
X98044000Y-84975605D01*
X97215861Y-85803745D01*
X74370000Y-85803745D01*
X74370000Y-82835750D01*
X79795000Y-82835750D01*
X79795000Y-83526310D01*
X79891673Y-83759699D01*
X80070302Y-83938327D01*
X80303691Y-84035000D01*
X80994250Y-84035000D01*
X81153000Y-83876250D01*
X81153000Y-82677000D01*
X81407000Y-82677000D01*
X81407000Y-83876250D01*
X81565750Y-84035000D01*
X82256309Y-84035000D01*
X82489698Y-83938327D01*
X82668327Y-83759699D01*
X82765000Y-83526310D01*
X82765000Y-82835750D01*
X82606250Y-82677000D01*
X81407000Y-82677000D01*
X81153000Y-82677000D01*
X79953750Y-82677000D01*
X79795000Y-82835750D01*
X74370000Y-82835750D01*
X74370000Y-77470000D01*
X79672105Y-77470000D01*
X79794499Y-78085315D01*
X80143047Y-78606953D01*
X80342166Y-78740000D01*
X80143047Y-78873047D01*
X79794499Y-79394685D01*
X79672105Y-80010000D01*
X79794499Y-80625315D01*
X80134981Y-81134882D01*
X80070302Y-81161673D01*
X79891673Y-81340301D01*
X79795000Y-81573690D01*
X79795000Y-82264250D01*
X79953750Y-82423000D01*
X81153000Y-82423000D01*
X81153000Y-82403000D01*
X81407000Y-82403000D01*
X81407000Y-82423000D01*
X82606250Y-82423000D01*
X82765000Y-82264250D01*
X82765000Y-81573690D01*
X82732820Y-81496000D01*
X96502758Y-81496000D01*
X96502758Y-83096000D01*
X96559182Y-83379661D01*
X96719863Y-83620137D01*
X96960339Y-83780818D01*
X96988037Y-83786327D01*
X96921378Y-83852986D01*
X97036253Y-83967861D01*
X96790136Y-84041995D01*
X96597035Y-84579223D01*
X96624222Y-85149454D01*
X96790136Y-85550005D01*
X97036255Y-85624139D01*
X97864395Y-84796000D01*
X97850252Y-84781858D01*
X98029858Y-84602252D01*
X98044000Y-84616395D01*
X98058142Y-84602252D01*
X98237748Y-84781858D01*
X98223605Y-84796000D01*
X99051745Y-85624139D01*
X99297864Y-85550005D01*
X99490965Y-85012777D01*
X99463778Y-84442546D01*
X99297864Y-84041995D01*
X99051747Y-83967861D01*
X99166622Y-83852986D01*
X99099963Y-83786327D01*
X99127661Y-83780818D01*
X99368137Y-83620137D01*
X99528818Y-83379661D01*
X99585242Y-83096000D01*
X99585242Y-81496000D01*
X99528818Y-81212339D01*
X99368137Y-80971863D01*
X99127661Y-80811182D01*
X98844000Y-80754758D01*
X97244000Y-80754758D01*
X96960339Y-80811182D01*
X96719863Y-80971863D01*
X96559182Y-81212339D01*
X96502758Y-81496000D01*
X82732820Y-81496000D01*
X82668327Y-81340301D01*
X82489698Y-81161673D01*
X82425019Y-81134882D01*
X82765501Y-80625315D01*
X82887895Y-80010000D01*
X82850365Y-79821322D01*
X83324677Y-79347010D01*
X98701574Y-79347008D01*
X98797797Y-79366148D01*
X99179003Y-79290321D01*
X99420600Y-79128892D01*
X99420603Y-79128889D01*
X99502174Y-79074385D01*
X99556678Y-78992814D01*
X103798000Y-74751493D01*
X103798001Y-78643777D01*
X103778861Y-78740000D01*
X103854688Y-79121206D01*
X104016117Y-79362803D01*
X104016120Y-79362806D01*
X104070624Y-79444377D01*
X104152195Y-79498881D01*
X106135330Y-81482017D01*
X106189832Y-81563585D01*
X106271400Y-81618087D01*
X106271405Y-81618092D01*
X106513002Y-81779521D01*
X106894208Y-81855348D01*
X106990431Y-81836208D01*
X146674572Y-81836210D01*
X146770790Y-81855349D01*
X146867008Y-81836210D01*
X146867012Y-81836210D01*
X147151995Y-81779523D01*
X147233356Y-81725159D01*
X147393593Y-81618093D01*
X147393595Y-81618091D01*
X147475166Y-81563587D01*
X147529670Y-81482016D01*
X153474687Y-75537000D01*
X153983685Y-75537000D01*
X154563299Y-75296916D01*
X155006916Y-74853299D01*
X155247000Y-74273685D01*
X155247000Y-74017022D01*
X159283000Y-74017022D01*
X159283000Y-74902978D01*
X159622040Y-75721494D01*
X160248506Y-76347960D01*
X161067022Y-76687000D01*
X161952978Y-76687000D01*
X162771494Y-76347960D01*
X163397960Y-75721494D01*
X163737000Y-74902978D01*
X163737000Y-74017022D01*
X163397960Y-73198506D01*
X162771494Y-72572040D01*
X161952978Y-72233000D01*
X161067022Y-72233000D01*
X160248506Y-72572040D01*
X159622040Y-73198506D01*
X159283000Y-74017022D01*
X155247000Y-74017022D01*
X155247000Y-73646315D01*
X155006916Y-73066701D01*
X154563299Y-72623084D01*
X153983685Y-72383000D01*
X153356315Y-72383000D01*
X152776701Y-72623084D01*
X152400000Y-72999785D01*
X152023299Y-72623084D01*
X151443685Y-72383000D01*
X150816315Y-72383000D01*
X150236701Y-72623084D01*
X149860000Y-72999785D01*
X149483299Y-72623084D01*
X148903685Y-72383000D01*
X148276315Y-72383000D01*
X147696701Y-72623084D01*
X147476742Y-72843043D01*
X147438327Y-72750301D01*
X147259698Y-72571673D01*
X147026309Y-72475000D01*
X146335750Y-72475000D01*
X146177000Y-72633750D01*
X146177000Y-73833000D01*
X146197000Y-73833000D01*
X146197000Y-74087000D01*
X146177000Y-74087000D01*
X146177000Y-75286250D01*
X146335750Y-75445000D01*
X147026309Y-75445000D01*
X147259698Y-75348327D01*
X147438327Y-75169699D01*
X147476742Y-75076957D01*
X147696701Y-75296916D01*
X148202068Y-75506246D01*
X144726114Y-78982200D01*
X110716886Y-78982200D01*
X109816000Y-78081314D01*
X109816000Y-76935830D01*
X109975953Y-76828953D01*
X110324501Y-76307315D01*
X110446895Y-75692000D01*
X110401146Y-75462000D01*
X113581105Y-75462000D01*
X113703499Y-76077315D01*
X114052047Y-76598953D01*
X114573685Y-76947501D01*
X115033681Y-77039000D01*
X115344319Y-77039000D01*
X115804315Y-76947501D01*
X116313882Y-76607019D01*
X116340673Y-76671699D01*
X116519302Y-76850327D01*
X116752691Y-76947000D01*
X117443250Y-76947000D01*
X117602000Y-76788250D01*
X117602000Y-75589000D01*
X117582000Y-75589000D01*
X117582000Y-75335000D01*
X117602000Y-75335000D01*
X117602000Y-74135750D01*
X117856000Y-74135750D01*
X117856000Y-75335000D01*
X117876000Y-75335000D01*
X117876000Y-75589000D01*
X117856000Y-75589000D01*
X117856000Y-76788250D01*
X118014750Y-76947000D01*
X118705309Y-76947000D01*
X118938698Y-76850327D01*
X119117327Y-76671699D01*
X119144118Y-76607019D01*
X119653685Y-76947501D01*
X120113681Y-77039000D01*
X120424319Y-77039000D01*
X120884315Y-76947501D01*
X121405953Y-76598953D01*
X121754501Y-76077315D01*
X121876895Y-75462000D01*
X121754501Y-74846685D01*
X121405953Y-74325047D01*
X120884315Y-73976499D01*
X120424319Y-73885000D01*
X120113681Y-73885000D01*
X119653685Y-73976499D01*
X119144118Y-74316981D01*
X119117327Y-74252301D01*
X118938698Y-74073673D01*
X118705309Y-73977000D01*
X118014750Y-73977000D01*
X117856000Y-74135750D01*
X117602000Y-74135750D01*
X117443250Y-73977000D01*
X116752691Y-73977000D01*
X116519302Y-74073673D01*
X116340673Y-74252301D01*
X116313882Y-74316981D01*
X115804315Y-73976499D01*
X115344319Y-73885000D01*
X115033681Y-73885000D01*
X114573685Y-73976499D01*
X114052047Y-74325047D01*
X113703499Y-74846685D01*
X113581105Y-75462000D01*
X110401146Y-75462000D01*
X110324501Y-75076685D01*
X109975953Y-74555047D01*
X109776834Y-74422000D01*
X109975953Y-74288953D01*
X110324501Y-73767315D01*
X110446895Y-73152000D01*
X125011105Y-73152000D01*
X125133499Y-73767315D01*
X125482047Y-74288953D01*
X125681166Y-74422000D01*
X125482047Y-74555047D01*
X125133499Y-75076685D01*
X125011105Y-75692000D01*
X125133499Y-76307315D01*
X125482047Y-76828953D01*
X126003685Y-77177501D01*
X126463681Y-77269000D01*
X126774319Y-77269000D01*
X127234315Y-77177501D01*
X127755953Y-76828953D01*
X128104501Y-76307315D01*
X128226895Y-75692000D01*
X128104501Y-75076685D01*
X127755953Y-74555047D01*
X127556834Y-74422000D01*
X127755953Y-74288953D01*
X127937651Y-74017022D01*
X135983000Y-74017022D01*
X135983000Y-74902978D01*
X136322040Y-75721494D01*
X136948506Y-76347960D01*
X137767022Y-76687000D01*
X138652978Y-76687000D01*
X139471494Y-76347960D01*
X140097960Y-75721494D01*
X140437000Y-74902978D01*
X140437000Y-74245750D01*
X144565000Y-74245750D01*
X144565000Y-74936310D01*
X144661673Y-75169699D01*
X144840302Y-75348327D01*
X145073691Y-75445000D01*
X145764250Y-75445000D01*
X145923000Y-75286250D01*
X145923000Y-74087000D01*
X144723750Y-74087000D01*
X144565000Y-74245750D01*
X140437000Y-74245750D01*
X140437000Y-74017022D01*
X140097960Y-73198506D01*
X139883144Y-72983690D01*
X144565000Y-72983690D01*
X144565000Y-73674250D01*
X144723750Y-73833000D01*
X145923000Y-73833000D01*
X145923000Y-72633750D01*
X145764250Y-72475000D01*
X145073691Y-72475000D01*
X144840302Y-72571673D01*
X144661673Y-72750301D01*
X144565000Y-72983690D01*
X139883144Y-72983690D01*
X139471494Y-72572040D01*
X138652978Y-72233000D01*
X137767022Y-72233000D01*
X136948506Y-72572040D01*
X136322040Y-73198506D01*
X135983000Y-74017022D01*
X127937651Y-74017022D01*
X128104501Y-73767315D01*
X128226895Y-73152000D01*
X128104501Y-72536685D01*
X127764019Y-72027118D01*
X127828698Y-72000327D01*
X128007327Y-71821699D01*
X128104000Y-71588310D01*
X128104000Y-70897750D01*
X127945250Y-70739000D01*
X126746000Y-70739000D01*
X126746000Y-70759000D01*
X126492000Y-70759000D01*
X126492000Y-70739000D01*
X125292750Y-70739000D01*
X125134000Y-70897750D01*
X125134000Y-71588310D01*
X125230673Y-71821699D01*
X125409302Y-72000327D01*
X125473981Y-72027118D01*
X125133499Y-72536685D01*
X125011105Y-73152000D01*
X110446895Y-73152000D01*
X110324501Y-72536685D01*
X109984019Y-72027118D01*
X110048698Y-72000327D01*
X110227327Y-71821699D01*
X110324000Y-71588310D01*
X110324000Y-70897750D01*
X110165250Y-70739000D01*
X108966000Y-70739000D01*
X108966000Y-70759000D01*
X108712000Y-70759000D01*
X108712000Y-70739000D01*
X107512750Y-70739000D01*
X107354000Y-70897750D01*
X107354000Y-71588310D01*
X107450673Y-71821699D01*
X107629302Y-72000327D01*
X107693981Y-72027118D01*
X107595170Y-72175000D01*
X106014217Y-72175000D01*
X105917999Y-72155861D01*
X105821781Y-72175000D01*
X105821777Y-72175000D01*
X105536794Y-72231687D01*
X105536792Y-72231688D01*
X105536793Y-72231688D01*
X105295196Y-72393117D01*
X105295194Y-72393119D01*
X105213623Y-72447623D01*
X105159119Y-72529194D01*
X104482000Y-73206314D01*
X104482000Y-60452000D01*
X107231105Y-60452000D01*
X107353499Y-61067315D01*
X107702047Y-61588953D01*
X107901166Y-61722000D01*
X107702047Y-61855047D01*
X107353499Y-62376685D01*
X107231105Y-62992000D01*
X107353499Y-63607315D01*
X107702047Y-64128953D01*
X107901166Y-64262000D01*
X107702047Y-64395047D01*
X107353499Y-64916685D01*
X107231105Y-65532000D01*
X107353499Y-66147315D01*
X107702047Y-66668953D01*
X107901166Y-66802000D01*
X107702047Y-66935047D01*
X107353499Y-67456685D01*
X107231105Y-68072000D01*
X107353499Y-68687315D01*
X107693981Y-69196882D01*
X107629302Y-69223673D01*
X107450673Y-69402301D01*
X107354000Y-69635690D01*
X107354000Y-70326250D01*
X107512750Y-70485000D01*
X108712000Y-70485000D01*
X108712000Y-70465000D01*
X108966000Y-70465000D01*
X108966000Y-70485000D01*
X110165250Y-70485000D01*
X110324000Y-70326250D01*
X110324000Y-69635690D01*
X110227327Y-69402301D01*
X110048698Y-69223673D01*
X109984019Y-69196882D01*
X110324501Y-68687315D01*
X110446895Y-68072000D01*
X110324501Y-67456685D01*
X109975953Y-66935047D01*
X109776834Y-66802000D01*
X109975953Y-66668953D01*
X110324501Y-66147315D01*
X110446895Y-65532000D01*
X110324501Y-64916685D01*
X109975953Y-64395047D01*
X109776834Y-64262000D01*
X109975953Y-64128953D01*
X110324501Y-63607315D01*
X110446895Y-62992000D01*
X110324501Y-62376685D01*
X109975953Y-61855047D01*
X109776834Y-61722000D01*
X109975953Y-61588953D01*
X110324501Y-61067315D01*
X110446895Y-60452000D01*
X110324501Y-59836685D01*
X109984019Y-59327118D01*
X110048698Y-59300327D01*
X110227327Y-59121699D01*
X110324000Y-58888310D01*
X110324000Y-58197750D01*
X110165250Y-58039000D01*
X108966000Y-58039000D01*
X108966000Y-58059000D01*
X108712000Y-58059000D01*
X108712000Y-58039000D01*
X107512750Y-58039000D01*
X107354000Y-58197750D01*
X107354000Y-58888310D01*
X107450673Y-59121699D01*
X107629302Y-59300327D01*
X107693981Y-59327118D01*
X107353499Y-59836685D01*
X107231105Y-60452000D01*
X104482000Y-60452000D01*
X104482000Y-56030686D01*
X107305696Y-53206991D01*
X107353499Y-53447315D01*
X107702047Y-53968953D01*
X107901166Y-54102000D01*
X107702047Y-54235047D01*
X107353499Y-54756685D01*
X107231105Y-55372000D01*
X107353499Y-55987315D01*
X107693981Y-56496882D01*
X107629302Y-56523673D01*
X107450673Y-56702301D01*
X107354000Y-56935690D01*
X107354000Y-57626250D01*
X107512750Y-57785000D01*
X108712000Y-57785000D01*
X108712000Y-57765000D01*
X108966000Y-57765000D01*
X108966000Y-57785000D01*
X110165250Y-57785000D01*
X110324000Y-57626250D01*
X110324000Y-56935690D01*
X110227327Y-56702301D01*
X110048698Y-56523673D01*
X109984019Y-56496882D01*
X110324501Y-55987315D01*
X110446895Y-55372000D01*
X110324501Y-54756685D01*
X109975953Y-54235047D01*
X109776834Y-54102000D01*
X109975953Y-53968953D01*
X110324501Y-53447315D01*
X110446895Y-52832000D01*
X110324501Y-52216685D01*
X109975953Y-51695047D01*
X109776834Y-51562000D01*
X109975953Y-51428953D01*
X110324501Y-50907315D01*
X110446895Y-50292000D01*
X110324501Y-49676685D01*
X109975953Y-49155047D01*
X109776834Y-49022000D01*
X109975953Y-48888953D01*
X110324501Y-48367315D01*
X110446895Y-47752000D01*
X110324501Y-47136685D01*
X109984019Y-46627118D01*
X110048698Y-46600327D01*
X110227327Y-46421699D01*
X110324000Y-46188310D01*
X110324000Y-45497750D01*
X110165250Y-45339000D01*
X108966000Y-45339000D01*
X108966000Y-45359000D01*
X108712000Y-45359000D01*
X108712000Y-45339000D01*
X107512750Y-45339000D01*
X107354000Y-45497750D01*
X107354000Y-46188310D01*
X107450673Y-46421699D01*
X107629302Y-46600327D01*
X107693981Y-46627118D01*
X107353499Y-47136685D01*
X107231105Y-47752000D01*
X107268635Y-47940678D01*
X100977197Y-54232117D01*
X100895623Y-54286623D01*
X100841117Y-54368197D01*
X100789946Y-54444780D01*
X100679687Y-54609795D01*
X100623000Y-54894778D01*
X100623000Y-54894782D01*
X100603861Y-54991000D01*
X100623000Y-55087218D01*
X100623001Y-73890312D01*
X98020314Y-76493000D01*
X82523830Y-76493000D01*
X82416953Y-76333047D01*
X81895315Y-75984499D01*
X81435319Y-75893000D01*
X81124681Y-75893000D01*
X80664685Y-75984499D01*
X80143047Y-76333047D01*
X79794499Y-76854685D01*
X79672105Y-77470000D01*
X74370000Y-77470000D01*
X74370000Y-74016890D01*
X95078524Y-74016890D01*
X95248355Y-74426924D01*
X95638642Y-74855183D01*
X96163108Y-75101486D01*
X96393000Y-74980819D01*
X96393000Y-73787000D01*
X96647000Y-73787000D01*
X96647000Y-74980819D01*
X96876892Y-75101486D01*
X97401358Y-74855183D01*
X97791645Y-74426924D01*
X97961476Y-74016890D01*
X97840155Y-73787000D01*
X96647000Y-73787000D01*
X96393000Y-73787000D01*
X95199845Y-73787000D01*
X95078524Y-74016890D01*
X74370000Y-74016890D01*
X74370000Y-66040000D01*
X79672105Y-66040000D01*
X79794499Y-66655315D01*
X80143047Y-67176953D01*
X80342166Y-67310000D01*
X80143047Y-67443047D01*
X79794499Y-67964685D01*
X79672105Y-68580000D01*
X79794499Y-69195315D01*
X80143047Y-69716953D01*
X80664685Y-70065501D01*
X81124681Y-70157000D01*
X81435319Y-70157000D01*
X81895315Y-70065501D01*
X82416953Y-69716953D01*
X82765501Y-69195315D01*
X82816905Y-68936890D01*
X87458524Y-68936890D01*
X87628355Y-69346924D01*
X88018642Y-69775183D01*
X88543108Y-70021486D01*
X88773000Y-69900819D01*
X88773000Y-68707000D01*
X89027000Y-68707000D01*
X89027000Y-69900819D01*
X89256892Y-70021486D01*
X89781358Y-69775183D01*
X90171645Y-69346924D01*
X90341476Y-68936890D01*
X90220155Y-68707000D01*
X89027000Y-68707000D01*
X88773000Y-68707000D01*
X87579845Y-68707000D01*
X87458524Y-68936890D01*
X82816905Y-68936890D01*
X82887895Y-68580000D01*
X82765501Y-67964685D01*
X82416953Y-67443047D01*
X82217834Y-67310000D01*
X82416953Y-67176953D01*
X82765501Y-66655315D01*
X82816905Y-66396890D01*
X87458524Y-66396890D01*
X87628355Y-66806924D01*
X88018642Y-67235183D01*
X88177954Y-67310000D01*
X88018642Y-67384817D01*
X87628355Y-67813076D01*
X87458524Y-68223110D01*
X87579845Y-68453000D01*
X88773000Y-68453000D01*
X88773000Y-66167000D01*
X89027000Y-66167000D01*
X89027000Y-68453000D01*
X90220155Y-68453000D01*
X90341476Y-68223110D01*
X90171645Y-67813076D01*
X89781358Y-67384817D01*
X89622046Y-67310000D01*
X89781358Y-67235183D01*
X90171645Y-66806924D01*
X90341476Y-66396890D01*
X90220155Y-66167000D01*
X89027000Y-66167000D01*
X88773000Y-66167000D01*
X87579845Y-66167000D01*
X87458524Y-66396890D01*
X82816905Y-66396890D01*
X82887895Y-66040000D01*
X82765501Y-65424685D01*
X82476807Y-64992625D01*
X82654137Y-64874137D01*
X82814818Y-64633661D01*
X82871242Y-64350000D01*
X82871242Y-63785750D01*
X87415000Y-63785750D01*
X87415000Y-64476310D01*
X87511673Y-64709699D01*
X87690302Y-64888327D01*
X87899878Y-64975136D01*
X87628355Y-65273076D01*
X87458524Y-65683110D01*
X87579845Y-65913000D01*
X88773000Y-65913000D01*
X88773000Y-63627000D01*
X89027000Y-63627000D01*
X89027000Y-65913000D01*
X90220155Y-65913000D01*
X90341476Y-65683110D01*
X90171645Y-65273076D01*
X89900122Y-64975136D01*
X90109698Y-64888327D01*
X90288327Y-64709699D01*
X90385000Y-64476310D01*
X90385000Y-63785750D01*
X90226250Y-63627000D01*
X89027000Y-63627000D01*
X88773000Y-63627000D01*
X87573750Y-63627000D01*
X87415000Y-63785750D01*
X82871242Y-63785750D01*
X82871242Y-63500000D01*
X94912105Y-63500000D01*
X95034499Y-64115315D01*
X95383047Y-64636953D01*
X95582166Y-64770000D01*
X95383047Y-64903047D01*
X95034499Y-65424685D01*
X94912105Y-66040000D01*
X95034499Y-66655315D01*
X95383047Y-67176953D01*
X95582166Y-67310000D01*
X95383047Y-67443047D01*
X95034499Y-67964685D01*
X94912105Y-68580000D01*
X95034499Y-69195315D01*
X95383047Y-69716953D01*
X95582166Y-69850000D01*
X95383047Y-69983047D01*
X95034499Y-70504685D01*
X94912105Y-71120000D01*
X95034499Y-71735315D01*
X95383047Y-72256953D01*
X95671232Y-72449512D01*
X95638642Y-72464817D01*
X95248355Y-72893076D01*
X95078524Y-73303110D01*
X95199845Y-73533000D01*
X96393000Y-73533000D01*
X96393000Y-73513000D01*
X96647000Y-73513000D01*
X96647000Y-73533000D01*
X97840155Y-73533000D01*
X97961476Y-73303110D01*
X97791645Y-72893076D01*
X97401358Y-72464817D01*
X97368768Y-72449512D01*
X97656953Y-72256953D01*
X98005501Y-71735315D01*
X98127895Y-71120000D01*
X98005501Y-70504685D01*
X97656953Y-69983047D01*
X97457834Y-69850000D01*
X97656953Y-69716953D01*
X98005501Y-69195315D01*
X98127895Y-68580000D01*
X98005501Y-67964685D01*
X97656953Y-67443047D01*
X97457834Y-67310000D01*
X97656953Y-67176953D01*
X98005501Y-66655315D01*
X98127895Y-66040000D01*
X98005501Y-65424685D01*
X97656953Y-64903047D01*
X97457834Y-64770000D01*
X97656953Y-64636953D01*
X98005501Y-64115315D01*
X98127895Y-63500000D01*
X98005501Y-62884685D01*
X97716807Y-62452625D01*
X97894137Y-62334137D01*
X98054818Y-62093661D01*
X98111242Y-61810000D01*
X98111242Y-60110000D01*
X98054818Y-59826339D01*
X97894137Y-59585863D01*
X97653661Y-59425182D01*
X97370000Y-59368758D01*
X95670000Y-59368758D01*
X95386339Y-59425182D01*
X95145863Y-59585863D01*
X94985182Y-59826339D01*
X94928758Y-60110000D01*
X94928758Y-61810000D01*
X94985182Y-62093661D01*
X95145863Y-62334137D01*
X95323193Y-62452625D01*
X95034499Y-62884685D01*
X94912105Y-63500000D01*
X82871242Y-63500000D01*
X82871242Y-62650000D01*
X82846118Y-62523690D01*
X87415000Y-62523690D01*
X87415000Y-63214250D01*
X87573750Y-63373000D01*
X88773000Y-63373000D01*
X88773000Y-62173750D01*
X89027000Y-62173750D01*
X89027000Y-63373000D01*
X90226250Y-63373000D01*
X90385000Y-63214250D01*
X90385000Y-62523690D01*
X90288327Y-62290301D01*
X90109698Y-62111673D01*
X89876309Y-62015000D01*
X89185750Y-62015000D01*
X89027000Y-62173750D01*
X88773000Y-62173750D01*
X88614250Y-62015000D01*
X87923691Y-62015000D01*
X87690302Y-62111673D01*
X87511673Y-62290301D01*
X87415000Y-62523690D01*
X82846118Y-62523690D01*
X82814818Y-62366339D01*
X82654137Y-62125863D01*
X82413661Y-61965182D01*
X82130000Y-61908758D01*
X80430000Y-61908758D01*
X80146339Y-61965182D01*
X79905863Y-62125863D01*
X79745182Y-62366339D01*
X79688758Y-62650000D01*
X79688758Y-64350000D01*
X79745182Y-64633661D01*
X79905863Y-64874137D01*
X80083193Y-64992625D01*
X79794499Y-65424685D01*
X79672105Y-66040000D01*
X74370000Y-66040000D01*
X74370000Y-54133750D01*
X79795000Y-54133750D01*
X79795000Y-54824310D01*
X79891673Y-55057699D01*
X80070302Y-55236327D01*
X80303691Y-55333000D01*
X80994250Y-55333000D01*
X81153000Y-55174250D01*
X81153000Y-53975000D01*
X81407000Y-53975000D01*
X81407000Y-55174250D01*
X81565750Y-55333000D01*
X82256309Y-55333000D01*
X82489698Y-55236327D01*
X82668327Y-55057699D01*
X82765000Y-54824310D01*
X82765000Y-54133750D01*
X87415000Y-54133750D01*
X87415000Y-54824310D01*
X87511673Y-55057699D01*
X87690302Y-55236327D01*
X87923691Y-55333000D01*
X88614250Y-55333000D01*
X88773000Y-55174250D01*
X88773000Y-53975000D01*
X89027000Y-53975000D01*
X89027000Y-55174250D01*
X89185750Y-55333000D01*
X89876309Y-55333000D01*
X90109698Y-55236327D01*
X90288327Y-55057699D01*
X90385000Y-54824310D01*
X90385000Y-54133750D01*
X95035000Y-54133750D01*
X95035000Y-54824310D01*
X95131673Y-55057699D01*
X95310302Y-55236327D01*
X95543691Y-55333000D01*
X96234250Y-55333000D01*
X96393000Y-55174250D01*
X96393000Y-53975000D01*
X96647000Y-53975000D01*
X96647000Y-55174250D01*
X96805750Y-55333000D01*
X97496309Y-55333000D01*
X97729698Y-55236327D01*
X97908327Y-55057699D01*
X98005000Y-54824310D01*
X98005000Y-54133750D01*
X97846250Y-53975000D01*
X96647000Y-53975000D01*
X96393000Y-53975000D01*
X95193750Y-53975000D01*
X95035000Y-54133750D01*
X90385000Y-54133750D01*
X90226250Y-53975000D01*
X89027000Y-53975000D01*
X88773000Y-53975000D01*
X87573750Y-53975000D01*
X87415000Y-54133750D01*
X82765000Y-54133750D01*
X82606250Y-53975000D01*
X81407000Y-53975000D01*
X81153000Y-53975000D01*
X79953750Y-53975000D01*
X79795000Y-54133750D01*
X74370000Y-54133750D01*
X74370000Y-46228000D01*
X79672105Y-46228000D01*
X79794499Y-46843315D01*
X80143047Y-47364953D01*
X80342166Y-47498000D01*
X80143047Y-47631047D01*
X79794499Y-48152685D01*
X79672105Y-48768000D01*
X79794499Y-49383315D01*
X80143047Y-49904953D01*
X80342166Y-50038000D01*
X80143047Y-50171047D01*
X79794499Y-50692685D01*
X79672105Y-51308000D01*
X79794499Y-51923315D01*
X80134981Y-52432882D01*
X80070302Y-52459673D01*
X79891673Y-52638301D01*
X79795000Y-52871690D01*
X79795000Y-53562250D01*
X79953750Y-53721000D01*
X81153000Y-53721000D01*
X81153000Y-53701000D01*
X81407000Y-53701000D01*
X81407000Y-53721000D01*
X82606250Y-53721000D01*
X82765000Y-53562250D01*
X82765000Y-52871690D01*
X82668327Y-52638301D01*
X82489698Y-52459673D01*
X82425019Y-52432882D01*
X82765501Y-51923315D01*
X82887895Y-51308000D01*
X82765501Y-50692685D01*
X82416953Y-50171047D01*
X82217834Y-50038000D01*
X82416953Y-49904953D01*
X82765501Y-49383315D01*
X82887895Y-48768000D01*
X82765501Y-48152685D01*
X82416953Y-47631047D01*
X82217834Y-47498000D01*
X82416953Y-47364953D01*
X82765501Y-46843315D01*
X82887895Y-46228000D01*
X87292105Y-46228000D01*
X87414499Y-46843315D01*
X87763047Y-47364953D01*
X87962166Y-47498000D01*
X87763047Y-47631047D01*
X87414499Y-48152685D01*
X87292105Y-48768000D01*
X87414499Y-49383315D01*
X87763047Y-49904953D01*
X87962166Y-50038000D01*
X87763047Y-50171047D01*
X87414499Y-50692685D01*
X87292105Y-51308000D01*
X87414499Y-51923315D01*
X87754981Y-52432882D01*
X87690302Y-52459673D01*
X87511673Y-52638301D01*
X87415000Y-52871690D01*
X87415000Y-53562250D01*
X87573750Y-53721000D01*
X88773000Y-53721000D01*
X88773000Y-53701000D01*
X89027000Y-53701000D01*
X89027000Y-53721000D01*
X90226250Y-53721000D01*
X90385000Y-53562250D01*
X90385000Y-52871690D01*
X90288327Y-52638301D01*
X90109698Y-52459673D01*
X90045019Y-52432882D01*
X90385501Y-51923315D01*
X90507895Y-51308000D01*
X90385501Y-50692685D01*
X90036953Y-50171047D01*
X89837834Y-50038000D01*
X90036953Y-49904953D01*
X90385501Y-49383315D01*
X90507895Y-48768000D01*
X90385501Y-48152685D01*
X90036953Y-47631047D01*
X89837834Y-47498000D01*
X90036953Y-47364953D01*
X90385501Y-46843315D01*
X90507895Y-46228000D01*
X94912105Y-46228000D01*
X95034499Y-46843315D01*
X95383047Y-47364953D01*
X95582166Y-47498000D01*
X95383047Y-47631047D01*
X95034499Y-48152685D01*
X94912105Y-48768000D01*
X95034499Y-49383315D01*
X95383047Y-49904953D01*
X95582166Y-50038000D01*
X95383047Y-50171047D01*
X95034499Y-50692685D01*
X94912105Y-51308000D01*
X95034499Y-51923315D01*
X95374981Y-52432882D01*
X95310302Y-52459673D01*
X95131673Y-52638301D01*
X95035000Y-52871690D01*
X95035000Y-53562250D01*
X95193750Y-53721000D01*
X96393000Y-53721000D01*
X96393000Y-53701000D01*
X96647000Y-53701000D01*
X96647000Y-53721000D01*
X97846250Y-53721000D01*
X98005000Y-53562250D01*
X98005000Y-52871690D01*
X97908327Y-52638301D01*
X97729698Y-52459673D01*
X97665019Y-52432882D01*
X98005501Y-51923315D01*
X98127895Y-51308000D01*
X98005501Y-50692685D01*
X97656953Y-50171047D01*
X97457834Y-50038000D01*
X97656953Y-49904953D01*
X98005501Y-49383315D01*
X98127895Y-48768000D01*
X98005501Y-48152685D01*
X97656953Y-47631047D01*
X97457834Y-47498000D01*
X97656953Y-47364953D01*
X98005501Y-46843315D01*
X98127895Y-46228000D01*
X98005501Y-45612685D01*
X97656953Y-45091047D01*
X97135315Y-44742499D01*
X96675319Y-44651000D01*
X96364681Y-44651000D01*
X95904685Y-44742499D01*
X95383047Y-45091047D01*
X95034499Y-45612685D01*
X94912105Y-46228000D01*
X90507895Y-46228000D01*
X90385501Y-45612685D01*
X90036953Y-45091047D01*
X89515315Y-44742499D01*
X89055319Y-44651000D01*
X88744681Y-44651000D01*
X88284685Y-44742499D01*
X87763047Y-45091047D01*
X87414499Y-45612685D01*
X87292105Y-46228000D01*
X82887895Y-46228000D01*
X82765501Y-45612685D01*
X82416953Y-45091047D01*
X81895315Y-44742499D01*
X81435319Y-44651000D01*
X81124681Y-44651000D01*
X80664685Y-44742499D01*
X80143047Y-45091047D01*
X79794499Y-45612685D01*
X79672105Y-46228000D01*
X74370000Y-46228000D01*
X74370000Y-40417750D01*
X89905000Y-40417750D01*
X89905000Y-41158310D01*
X90001673Y-41391699D01*
X90180302Y-41570327D01*
X90413691Y-41667000D01*
X91154250Y-41667000D01*
X91313000Y-41508250D01*
X91313000Y-40259000D01*
X90063750Y-40259000D01*
X89905000Y-40417750D01*
X74370000Y-40417750D01*
X74370000Y-39105690D01*
X89905000Y-39105690D01*
X89905000Y-39846250D01*
X90063750Y-40005000D01*
X91313000Y-40005000D01*
X91313000Y-38755750D01*
X91567000Y-38755750D01*
X91567000Y-40005000D01*
X91587000Y-40005000D01*
X91587000Y-40259000D01*
X91567000Y-40259000D01*
X91567000Y-41508250D01*
X91725750Y-41667000D01*
X92466309Y-41667000D01*
X92699698Y-41570327D01*
X92878327Y-41391699D01*
X92896031Y-41348957D01*
X93058378Y-41511304D01*
X93656370Y-41759000D01*
X94303630Y-41759000D01*
X94901622Y-41511304D01*
X95359304Y-41053622D01*
X95607000Y-40455630D01*
X95607000Y-39808370D01*
X95359304Y-39210378D01*
X94901622Y-38752696D01*
X94303630Y-38505000D01*
X93656370Y-38505000D01*
X93058378Y-38752696D01*
X92896031Y-38915043D01*
X92878327Y-38872301D01*
X92699698Y-38693673D01*
X92466309Y-38597000D01*
X91725750Y-38597000D01*
X91567000Y-38755750D01*
X91313000Y-38755750D01*
X91154250Y-38597000D01*
X90413691Y-38597000D01*
X90180302Y-38693673D01*
X90001673Y-38872301D01*
X89905000Y-39105690D01*
X74370000Y-39105690D01*
X74370000Y-35845750D01*
X84875000Y-35845750D01*
X84875000Y-36536310D01*
X84971673Y-36769699D01*
X85150302Y-36948327D01*
X85383691Y-37045000D01*
X86074250Y-37045000D01*
X86233000Y-36886250D01*
X86233000Y-35687000D01*
X86487000Y-35687000D01*
X86487000Y-36886250D01*
X86645750Y-37045000D01*
X87336309Y-37045000D01*
X87569698Y-36948327D01*
X87748327Y-36769699D01*
X87845000Y-36536310D01*
X87845000Y-35845750D01*
X87686250Y-35687000D01*
X86487000Y-35687000D01*
X86233000Y-35687000D01*
X85033750Y-35687000D01*
X84875000Y-35845750D01*
X74370000Y-35845750D01*
X74370000Y-28747131D01*
X75143000Y-28747131D01*
X75143000Y-29672869D01*
X75497264Y-30528140D01*
X76151860Y-31182736D01*
X77007131Y-31537000D01*
X77932869Y-31537000D01*
X78788140Y-31182736D01*
X79442736Y-30528140D01*
X79797000Y-29672869D01*
X79797000Y-28747131D01*
X79442736Y-27891860D01*
X78788140Y-27237264D01*
X77932869Y-26883000D01*
X77007131Y-26883000D01*
X76151860Y-27237264D01*
X75497264Y-27891860D01*
X75143000Y-28747131D01*
X74370000Y-28747131D01*
X74370000Y-27984666D01*
X74432958Y-27486302D01*
X74601305Y-27061107D01*
X74870101Y-26691142D01*
X75222462Y-26399644D01*
X75636244Y-26204933D01*
X76118662Y-26112907D01*
X76211164Y-26110000D01*
X107978989Y-26110000D01*
X107702047Y-26295047D01*
X107702047Y-26295047D01*
G37*
X107702047Y-26295047D02*
X107595170Y-26455000D01*
X89504218Y-26455000D01*
X89408000Y-26435861D01*
X89311782Y-26455000D01*
X89311777Y-26455000D01*
X89026794Y-26511687D01*
X88966951Y-26551673D01*
X88785196Y-26673117D01*
X88785194Y-26673119D01*
X88703623Y-26727623D01*
X88649119Y-26809194D01*
X86548678Y-28909636D01*
X86515319Y-28903000D01*
X86204681Y-28903000D01*
X85744685Y-28994499D01*
X85223047Y-29343047D01*
X84874499Y-29864685D01*
X84752105Y-30480000D01*
X84874499Y-31095315D01*
X85223047Y-31616953D01*
X85422166Y-31750000D01*
X85223047Y-31883047D01*
X84874499Y-32404685D01*
X84752105Y-33020000D01*
X84874499Y-33635315D01*
X85214981Y-34144882D01*
X85150302Y-34171673D01*
X84971673Y-34350301D01*
X84875000Y-34583690D01*
X84875000Y-35274250D01*
X85033750Y-35433000D01*
X86233000Y-35433000D01*
X86233000Y-35413000D01*
X86487000Y-35413000D01*
X86487000Y-35433000D01*
X87686250Y-35433000D01*
X87845000Y-35274250D01*
X87845000Y-34905950D01*
X94247600Y-34905950D01*
X94247600Y-35596509D01*
X94344273Y-35829898D01*
X94522901Y-36008527D01*
X94756290Y-36105200D01*
X95446850Y-36105200D01*
X95605600Y-35946450D01*
X95605600Y-34747200D01*
X94406350Y-34747200D01*
X94247600Y-34905950D01*
X87845000Y-34905950D01*
X87845000Y-34583690D01*
X87748327Y-34350301D01*
X87569698Y-34171673D01*
X87505019Y-34144882D01*
X87839770Y-33643891D01*
X94247600Y-33643891D01*
X94247600Y-34334450D01*
X94406350Y-34493200D01*
X95605600Y-34493200D01*
X95605600Y-33293950D01*
X95859600Y-33293950D01*
X95859600Y-34493200D01*
X95879600Y-34493200D01*
X95879600Y-34747200D01*
X95859600Y-34747200D01*
X95859600Y-35946450D01*
X96018350Y-36105200D01*
X96708910Y-36105200D01*
X96942299Y-36008527D01*
X97120927Y-35829898D01*
X97147718Y-35765219D01*
X97657285Y-36105701D01*
X98117281Y-36197200D01*
X98427919Y-36197200D01*
X98887915Y-36105701D01*
X99409553Y-35757153D01*
X99758101Y-35235515D01*
X99794604Y-35052000D01*
X107231105Y-35052000D01*
X107353499Y-35667315D01*
X107702047Y-36188953D01*
X107901166Y-36322000D01*
X107702047Y-36455047D01*
X107353499Y-36976685D01*
X107231105Y-37592000D01*
X107353499Y-38207315D01*
X107702047Y-38728953D01*
X107901166Y-38862000D01*
X107702047Y-38995047D01*
X107353499Y-39516685D01*
X107231105Y-40132000D01*
X107353499Y-40747315D01*
X107702047Y-41268953D01*
X107901166Y-41402000D01*
X107702047Y-41535047D01*
X107353499Y-42056685D01*
X107231105Y-42672000D01*
X107353499Y-43287315D01*
X107693981Y-43796882D01*
X107629302Y-43823673D01*
X107450673Y-44002301D01*
X107354000Y-44235690D01*
X107354000Y-44926250D01*
X107512750Y-45085000D01*
X108712000Y-45085000D01*
X108712000Y-45065000D01*
X108966000Y-45065000D01*
X108966000Y-45085000D01*
X110165250Y-45085000D01*
X110324000Y-44926250D01*
X110324000Y-44235690D01*
X110227327Y-44002301D01*
X110048698Y-43823673D01*
X109984019Y-43796882D01*
X110324501Y-43287315D01*
X110446895Y-42672000D01*
X110324501Y-42056685D01*
X109975953Y-41535047D01*
X109776834Y-41402000D01*
X109975953Y-41268953D01*
X110324501Y-40747315D01*
X110446895Y-40132000D01*
X110324501Y-39516685D01*
X109975953Y-38995047D01*
X109776834Y-38862000D01*
X109975953Y-38728953D01*
X110324501Y-38207315D01*
X110446895Y-37592000D01*
X110324501Y-36976685D01*
X109975953Y-36455047D01*
X109776834Y-36322000D01*
X109975953Y-36188953D01*
X110324501Y-35667315D01*
X110446895Y-35052000D01*
X125011105Y-35052000D01*
X125133499Y-35667315D01*
X125482047Y-36188953D01*
X125681166Y-36322000D01*
X125482047Y-36455047D01*
X125133499Y-36976685D01*
X125011105Y-37592000D01*
X125133499Y-38207315D01*
X125482047Y-38728953D01*
X125681166Y-38862000D01*
X125482047Y-38995047D01*
X125133499Y-39516685D01*
X125011105Y-40132000D01*
X125133499Y-40747315D01*
X125482047Y-41268953D01*
X125681166Y-41402000D01*
X125482047Y-41535047D01*
X125133499Y-42056685D01*
X125011105Y-42672000D01*
X125133499Y-43287315D01*
X125422193Y-43719375D01*
X125244863Y-43837863D01*
X125084182Y-44078339D01*
X125027758Y-44362000D01*
X125027758Y-46062000D01*
X125084182Y-46345661D01*
X125244863Y-46586137D01*
X125422193Y-46704625D01*
X125133499Y-47136685D01*
X125011105Y-47752000D01*
X125133499Y-48367315D01*
X125482047Y-48888953D01*
X125681166Y-49022000D01*
X125482047Y-49155047D01*
X125133499Y-49676685D01*
X125011105Y-50292000D01*
X125133499Y-50907315D01*
X125482047Y-51428953D01*
X125681166Y-51562000D01*
X125482047Y-51695047D01*
X125133499Y-52216685D01*
X125011105Y-52832000D01*
X125133499Y-53447315D01*
X125482047Y-53968953D01*
X125681166Y-54102000D01*
X125482047Y-54235047D01*
X125133499Y-54756685D01*
X125011105Y-55372000D01*
X125133499Y-55987315D01*
X125473981Y-56496882D01*
X125409302Y-56523673D01*
X125230673Y-56702301D01*
X125134000Y-56935690D01*
X125134000Y-57626250D01*
X125292750Y-57785000D01*
X126492000Y-57785000D01*
X126492000Y-57765000D01*
X126746000Y-57765000D01*
X126746000Y-57785000D01*
X127945250Y-57785000D01*
X128104000Y-57626250D01*
X128104000Y-56935690D01*
X128007327Y-56702301D01*
X127828698Y-56523673D01*
X127764019Y-56496882D01*
X127862830Y-56349000D01*
X134552784Y-56349000D01*
X134649002Y-56368139D01*
X134745220Y-56349000D01*
X134745225Y-56349000D01*
X135030208Y-56292313D01*
X135353379Y-56076377D01*
X135407885Y-55994803D01*
X139516389Y-51886300D01*
X139554813Y-51979064D01*
X139821668Y-52077727D01*
X140794595Y-51104800D01*
X140780453Y-51090658D01*
X140960058Y-50911053D01*
X140974200Y-50925195D01*
X141947127Y-49952268D01*
X141848464Y-49685413D01*
X141238739Y-49458892D01*
X140588740Y-49482944D01*
X140101199Y-49684890D01*
X140101199Y-46024656D01*
X140709661Y-46250708D01*
X141359660Y-46226656D01*
X141848464Y-46024187D01*
X141947127Y-45757332D01*
X140974200Y-44784405D01*
X140960058Y-44798548D01*
X140780453Y-44618943D01*
X140794595Y-44604800D01*
X141153805Y-44604800D01*
X142126732Y-45577727D01*
X142393587Y-45479064D01*
X142620108Y-44869339D01*
X142596056Y-44219340D01*
X142393587Y-43730536D01*
X142126732Y-43631873D01*
X141153805Y-44604800D01*
X140794595Y-44604800D01*
X140780453Y-44590658D01*
X140960058Y-44411053D01*
X140974200Y-44425195D01*
X141947127Y-43452268D01*
X141848464Y-43185413D01*
X141238739Y-42958892D01*
X140588740Y-42982944D01*
X140101199Y-43184890D01*
X140101199Y-42890487D01*
X144591322Y-38400365D01*
X144624681Y-38407000D01*
X144935319Y-38407000D01*
X145395315Y-38315501D01*
X145916953Y-37966953D01*
X146050000Y-37767834D01*
X146183047Y-37966953D01*
X146343001Y-38073831D01*
X146343000Y-48058513D01*
X142225261Y-52176253D01*
X142126734Y-52077726D01*
X142393587Y-51979064D01*
X142620108Y-51369339D01*
X142596056Y-50719340D01*
X142393587Y-50230536D01*
X142126732Y-50131873D01*
X141153805Y-51104800D01*
X141167948Y-51118943D01*
X140988343Y-51298548D01*
X140974200Y-51284405D01*
X140001273Y-52257332D01*
X140099936Y-52524187D01*
X140709661Y-52750708D01*
X141359660Y-52726656D01*
X141848464Y-52524187D01*
X141947126Y-52257334D01*
X142045653Y-52355861D01*
X134926514Y-59475000D01*
X127862830Y-59475000D01*
X127764019Y-59327118D01*
X127828698Y-59300327D01*
X128007327Y-59121699D01*
X128104000Y-58888310D01*
X128104000Y-58197750D01*
X127945250Y-58039000D01*
X126746000Y-58039000D01*
X126746000Y-58059000D01*
X126492000Y-58059000D01*
X126492000Y-58039000D01*
X125292750Y-58039000D01*
X125134000Y-58197750D01*
X125134000Y-58888310D01*
X125230673Y-59121699D01*
X125409302Y-59300327D01*
X125473981Y-59327118D01*
X125133499Y-59836685D01*
X125011105Y-60452000D01*
X125133499Y-61067315D01*
X125482047Y-61588953D01*
X125681166Y-61722000D01*
X125482047Y-61855047D01*
X125133499Y-62376685D01*
X125011105Y-62992000D01*
X125133499Y-63607315D01*
X125482047Y-64128953D01*
X125681166Y-64262000D01*
X125482047Y-64395047D01*
X125133499Y-64916685D01*
X125011105Y-65532000D01*
X125133499Y-66147315D01*
X125482047Y-66668953D01*
X125681166Y-66802000D01*
X125482047Y-66935047D01*
X125133499Y-67456685D01*
X125011105Y-68072000D01*
X125133499Y-68687315D01*
X125473981Y-69196882D01*
X125409302Y-69223673D01*
X125230673Y-69402301D01*
X125134000Y-69635690D01*
X125134000Y-70326250D01*
X125292750Y-70485000D01*
X126492000Y-70485000D01*
X126492000Y-70465000D01*
X126746000Y-70465000D01*
X126746000Y-70485000D01*
X127945250Y-70485000D01*
X128104000Y-70326250D01*
X128104000Y-69635690D01*
X128007327Y-69402301D01*
X127828698Y-69223673D01*
X127764019Y-69196882D01*
X128031879Y-68796000D01*
X165082758Y-68796000D01*
X165082758Y-70396000D01*
X165139182Y-70679661D01*
X165299863Y-70920137D01*
X165540339Y-71080818D01*
X165824000Y-71137242D01*
X167424000Y-71137242D01*
X167707661Y-71080818D01*
X167948137Y-70920137D01*
X168108818Y-70679661D01*
X168114327Y-70651963D01*
X168180986Y-70718622D01*
X168295861Y-70603747D01*
X168369995Y-70849864D01*
X168907223Y-71042965D01*
X169477454Y-71015778D01*
X169878005Y-70849864D01*
X169952139Y-70603745D01*
X169124000Y-69775605D01*
X169109858Y-69789748D01*
X168930252Y-69610142D01*
X168944395Y-69596000D01*
X169303605Y-69596000D01*
X170131745Y-70424139D01*
X170377864Y-70350005D01*
X170570965Y-69812777D01*
X170543778Y-69242546D01*
X170377864Y-68841995D01*
X170131745Y-68767861D01*
X169303605Y-69596000D01*
X168944395Y-69596000D01*
X168930252Y-69581858D01*
X169109858Y-69402252D01*
X169124000Y-69416395D01*
X169952139Y-68588255D01*
X169878005Y-68342136D01*
X169340777Y-68149035D01*
X168770546Y-68176222D01*
X168369995Y-68342136D01*
X168295861Y-68588253D01*
X168180986Y-68473378D01*
X168114327Y-68540037D01*
X168108818Y-68512339D01*
X167948137Y-68271863D01*
X167707661Y-68111182D01*
X167424000Y-68054758D01*
X165824000Y-68054758D01*
X165540339Y-68111182D01*
X165299863Y-68271863D01*
X165139182Y-68512339D01*
X165082758Y-68796000D01*
X128031879Y-68796000D01*
X128104501Y-68687315D01*
X128226895Y-68072000D01*
X128104501Y-67456685D01*
X127755953Y-66935047D01*
X127556834Y-66802000D01*
X127755953Y-66668953D01*
X128104501Y-66147315D01*
X128226895Y-65532000D01*
X128104501Y-64916685D01*
X127755953Y-64395047D01*
X127556834Y-64262000D01*
X127755953Y-64128953D01*
X127862830Y-63969000D01*
X134879382Y-63969000D01*
X134975600Y-63988139D01*
X135071818Y-63969000D01*
X135071823Y-63969000D01*
X135356806Y-63912313D01*
X135679977Y-63696377D01*
X135734483Y-63614803D01*
X143762287Y-55587000D01*
X148616170Y-55587000D01*
X148723047Y-55746953D01*
X148922166Y-55880000D01*
X148723047Y-56013047D01*
X148374499Y-56534685D01*
X148252105Y-57150000D01*
X148374499Y-57765315D01*
X148723047Y-58286953D01*
X148922166Y-58420000D01*
X148723047Y-58553047D01*
X148374499Y-59074685D01*
X148252105Y-59690000D01*
X148374499Y-60305315D01*
X148723047Y-60826953D01*
X148922166Y-60960000D01*
X148723047Y-61093047D01*
X148374499Y-61614685D01*
X148252105Y-62230000D01*
X148374499Y-62845315D01*
X148663193Y-63277375D01*
X148485863Y-63395863D01*
X148325182Y-63636339D01*
X148268758Y-63920000D01*
X148268758Y-65620000D01*
X148325182Y-65903661D01*
X148485863Y-66144137D01*
X148726339Y-66304818D01*
X149010000Y-66361242D01*
X150710000Y-66361242D01*
X150993661Y-66304818D01*
X151234137Y-66144137D01*
X151365860Y-65947000D01*
X158514140Y-65947000D01*
X158645863Y-66144137D01*
X158886339Y-66304818D01*
X159170000Y-66361242D01*
X160870000Y-66361242D01*
X161153661Y-66304818D01*
X161394137Y-66144137D01*
X161554818Y-65903661D01*
X161611242Y-65620000D01*
X161611242Y-63920000D01*
X161554818Y-63636339D01*
X161394137Y-63395863D01*
X161216807Y-63277375D01*
X161505501Y-62845315D01*
X161627895Y-62230000D01*
X161505501Y-61614685D01*
X161156953Y-61093047D01*
X160957834Y-60960000D01*
X161156953Y-60826953D01*
X161505501Y-60305315D01*
X161627895Y-59690000D01*
X161505501Y-59074685D01*
X161156953Y-58553047D01*
X160957834Y-58420000D01*
X161156953Y-58286953D01*
X161505501Y-57765315D01*
X161627895Y-57150000D01*
X161505501Y-56534685D01*
X161156953Y-56013047D01*
X160957834Y-55880000D01*
X161156953Y-55746953D01*
X161505501Y-55225315D01*
X161627895Y-54610000D01*
X166032105Y-54610000D01*
X166154499Y-55225315D01*
X166503047Y-55746953D01*
X166702166Y-55880000D01*
X166503047Y-56013047D01*
X166154499Y-56534685D01*
X166032105Y-57150000D01*
X166154499Y-57765315D01*
X166503047Y-58286953D01*
X167024685Y-58635501D01*
X167484681Y-58727000D01*
X167795319Y-58727000D01*
X168255315Y-58635501D01*
X168776953Y-58286953D01*
X169125501Y-57765315D01*
X169247895Y-57150000D01*
X169125501Y-56534685D01*
X168776953Y-56013047D01*
X168577834Y-55880000D01*
X168776953Y-55746953D01*
X169125501Y-55225315D01*
X169247895Y-54610000D01*
X169125501Y-53994685D01*
X168836807Y-53562625D01*
X169014137Y-53444137D01*
X169174818Y-53203661D01*
X169231242Y-52920000D01*
X169231242Y-51220000D01*
X169174818Y-50936339D01*
X169014137Y-50695863D01*
X168773661Y-50535182D01*
X168490000Y-50478758D01*
X166790000Y-50478758D01*
X166506339Y-50535182D01*
X166265863Y-50695863D01*
X166105182Y-50936339D01*
X166048758Y-51220000D01*
X166048758Y-52920000D01*
X166105182Y-53203661D01*
X166265863Y-53444137D01*
X166443193Y-53562625D01*
X166154499Y-53994685D01*
X166032105Y-54610000D01*
X161627895Y-54610000D01*
X161505501Y-53994685D01*
X161156953Y-53473047D01*
X160868768Y-53280488D01*
X160901358Y-53265183D01*
X161291645Y-52836924D01*
X161461476Y-52426890D01*
X161340155Y-52197000D01*
X160147000Y-52197000D01*
X160147000Y-52217000D01*
X159893000Y-52217000D01*
X159893000Y-52197000D01*
X158699845Y-52197000D01*
X158578524Y-52426890D01*
X158748355Y-52836924D01*
X159138642Y-53265183D01*
X159171232Y-53280488D01*
X158883047Y-53473047D01*
X158534499Y-53994685D01*
X158412105Y-54610000D01*
X158534499Y-55225315D01*
X158883047Y-55746953D01*
X159082166Y-55880000D01*
X158883047Y-56013047D01*
X158776170Y-56173000D01*
X151103830Y-56173000D01*
X150996953Y-56013047D01*
X150797834Y-55880000D01*
X150996953Y-55746953D01*
X151345501Y-55225315D01*
X151467895Y-54610000D01*
X151345501Y-53994685D01*
X150996953Y-53473047D01*
X150708768Y-53280488D01*
X150741358Y-53265183D01*
X151131645Y-52836924D01*
X151301476Y-52426890D01*
X151180155Y-52197000D01*
X149987000Y-52197000D01*
X149987000Y-52217000D01*
X149733000Y-52217000D01*
X149733000Y-52197000D01*
X148539845Y-52197000D01*
X148418524Y-52426890D01*
X148588355Y-52836924D01*
X148978642Y-53265183D01*
X149011232Y-53280488D01*
X148723047Y-53473047D01*
X148616170Y-53633000D01*
X143531887Y-53633000D01*
X145451777Y-51713110D01*
X148418524Y-51713110D01*
X148539845Y-51943000D01*
X149733000Y-51943000D01*
X149733000Y-50749181D01*
X149987000Y-50749181D01*
X149987000Y-51943000D01*
X151180155Y-51943000D01*
X151301476Y-51713110D01*
X158578524Y-51713110D01*
X158699845Y-51943000D01*
X159893000Y-51943000D01*
X159893000Y-50749181D01*
X160147000Y-50749181D01*
X160147000Y-51943000D01*
X161340155Y-51943000D01*
X161461476Y-51713110D01*
X161291645Y-51303076D01*
X160901358Y-50874817D01*
X160376892Y-50628514D01*
X160147000Y-50749181D01*
X159893000Y-50749181D01*
X159663108Y-50628514D01*
X159138642Y-50874817D01*
X158748355Y-51303076D01*
X158578524Y-51713110D01*
X151301476Y-51713110D01*
X151131645Y-51303076D01*
X150741358Y-50874817D01*
X150216892Y-50628514D01*
X149987000Y-50749181D01*
X149733000Y-50749181D01*
X149503108Y-50628514D01*
X148978642Y-50874817D01*
X148588355Y-51303076D01*
X148418524Y-51713110D01*
X145451777Y-51713110D01*
X147942806Y-49222081D01*
X148024377Y-49167577D01*
X148078881Y-49086006D01*
X148078883Y-49086004D01*
X148240313Y-48844406D01*
X148255511Y-48768000D01*
X148297000Y-48559423D01*
X148297000Y-48559419D01*
X148316139Y-48463200D01*
X148297000Y-48366981D01*
X148297000Y-39370000D01*
X157142105Y-39370000D01*
X157264499Y-39985315D01*
X157613047Y-40506953D01*
X157812166Y-40640000D01*
X157613047Y-40773047D01*
X157264499Y-41294685D01*
X157142105Y-41910000D01*
X157264499Y-42525315D01*
X157613047Y-43046953D01*
X158134685Y-43395501D01*
X158594681Y-43487000D01*
X158905319Y-43487000D01*
X159365315Y-43395501D01*
X159827019Y-43087000D01*
X165292981Y-43087000D01*
X165754685Y-43395501D01*
X166214681Y-43487000D01*
X166525319Y-43487000D01*
X166985315Y-43395501D01*
X167506953Y-43046953D01*
X167855501Y-42525315D01*
X167977895Y-41910000D01*
X167855501Y-41294685D01*
X167506953Y-40773047D01*
X167307834Y-40640000D01*
X167506953Y-40506953D01*
X167855501Y-39985315D01*
X167977895Y-39370000D01*
X167855501Y-38754685D01*
X167566807Y-38322625D01*
X167744137Y-38204137D01*
X167904818Y-37963661D01*
X167961242Y-37680000D01*
X167961242Y-35980000D01*
X167904818Y-35696339D01*
X167744137Y-35455863D01*
X167503661Y-35295182D01*
X167220000Y-35238758D01*
X165520000Y-35238758D01*
X165236339Y-35295182D01*
X164995863Y-35455863D01*
X164835182Y-35696339D01*
X164778758Y-35980000D01*
X164778758Y-37680000D01*
X164835182Y-37963661D01*
X164995863Y-38204137D01*
X165173193Y-38322625D01*
X164884499Y-38754685D01*
X164762105Y-39370000D01*
X164884499Y-39985315D01*
X165233047Y-40506953D01*
X165432166Y-40640000D01*
X165292981Y-40733000D01*
X159827019Y-40733000D01*
X159687834Y-40640000D01*
X159886953Y-40506953D01*
X160235501Y-39985315D01*
X160357895Y-39370000D01*
X160235501Y-38754685D01*
X159946807Y-38322625D01*
X160124137Y-38204137D01*
X160284818Y-37963661D01*
X160341242Y-37680000D01*
X160341242Y-35980000D01*
X160284818Y-35696339D01*
X160124137Y-35455863D01*
X159883661Y-35295182D01*
X159600000Y-35238758D01*
X157900000Y-35238758D01*
X157616339Y-35295182D01*
X157375863Y-35455863D01*
X157215182Y-35696339D01*
X157158758Y-35980000D01*
X157158758Y-37680000D01*
X157215182Y-37963661D01*
X157375863Y-38204137D01*
X157553193Y-38322625D01*
X157264499Y-38754685D01*
X157142105Y-39370000D01*
X148297000Y-39370000D01*
X148297000Y-38073830D01*
X148444882Y-37975019D01*
X148471673Y-38039698D01*
X148650301Y-38218327D01*
X148883690Y-38315000D01*
X149574250Y-38315000D01*
X149733000Y-38156250D01*
X149733000Y-36957000D01*
X149987000Y-36957000D01*
X149987000Y-38156250D01*
X150145750Y-38315000D01*
X150836310Y-38315000D01*
X151069699Y-38218327D01*
X151248327Y-38039698D01*
X151345000Y-37806309D01*
X151345000Y-37115750D01*
X151186250Y-36957000D01*
X149987000Y-36957000D01*
X149733000Y-36957000D01*
X149713000Y-36957000D01*
X149713000Y-36703000D01*
X149733000Y-36703000D01*
X149733000Y-35503750D01*
X149987000Y-35503750D01*
X149987000Y-36703000D01*
X151186250Y-36703000D01*
X151345000Y-36544250D01*
X151345000Y-35853691D01*
X151248327Y-35620302D01*
X151069699Y-35441673D01*
X150836310Y-35345000D01*
X150145750Y-35345000D01*
X149987000Y-35503750D01*
X149733000Y-35503750D01*
X149574250Y-35345000D01*
X148883690Y-35345000D01*
X148650301Y-35441673D01*
X148471673Y-35620302D01*
X148444882Y-35684981D01*
X147935315Y-35344499D01*
X147475319Y-35253000D01*
X147164681Y-35253000D01*
X146704685Y-35344499D01*
X146183047Y-35693047D01*
X146050000Y-35892166D01*
X145916953Y-35693047D01*
X145395315Y-35344499D01*
X144935319Y-35253000D01*
X144624681Y-35253000D01*
X144164685Y-35344499D01*
X143643047Y-35693047D01*
X143510000Y-35892166D01*
X143376953Y-35693047D01*
X142855315Y-35344499D01*
X142395319Y-35253000D01*
X142084681Y-35253000D01*
X141624685Y-35344499D01*
X141103047Y-35693047D01*
X140970000Y-35892166D01*
X140836953Y-35693047D01*
X140315315Y-35344499D01*
X139855319Y-35253000D01*
X139544681Y-35253000D01*
X139084685Y-35344499D01*
X138563047Y-35693047D01*
X138214499Y-36214685D01*
X138092105Y-36830000D01*
X138214499Y-37445315D01*
X138563047Y-37966953D01*
X139084685Y-38315501D01*
X139544681Y-38407000D01*
X139855319Y-38407000D01*
X140315315Y-38315501D01*
X140836953Y-37966953D01*
X140970000Y-37767834D01*
X141103047Y-37966953D01*
X141624685Y-38315501D01*
X141865009Y-38363304D01*
X138501394Y-41726920D01*
X138419823Y-41781424D01*
X138365319Y-41862995D01*
X138365316Y-41862998D01*
X138203887Y-42104595D01*
X138128060Y-42485801D01*
X138147200Y-42582024D01*
X138147200Y-44130910D01*
X137938280Y-43626533D01*
X137452467Y-43140720D01*
X136817722Y-42877800D01*
X136130678Y-42877800D01*
X135495933Y-43140720D01*
X135010120Y-43626533D01*
X134747200Y-44261278D01*
X134747200Y-44948322D01*
X135010120Y-45583067D01*
X135495933Y-46068880D01*
X136130678Y-46331800D01*
X136817722Y-46331800D01*
X137452467Y-46068880D01*
X137938280Y-45583067D01*
X138147200Y-45078690D01*
X138147199Y-50492116D01*
X138106548Y-50532767D01*
X137938280Y-50126533D01*
X137452467Y-49640720D01*
X136817722Y-49377800D01*
X136130678Y-49377800D01*
X135495933Y-49640720D01*
X135010120Y-50126533D01*
X134747200Y-50761278D01*
X134747200Y-51448322D01*
X134747725Y-51449589D01*
X134342314Y-51855000D01*
X127862830Y-51855000D01*
X127755953Y-51695047D01*
X127556834Y-51562000D01*
X127755953Y-51428953D01*
X128104501Y-50907315D01*
X128226895Y-50292000D01*
X128104501Y-49676685D01*
X127755953Y-49155047D01*
X127556834Y-49022000D01*
X127755953Y-48888953D01*
X128104501Y-48367315D01*
X128226895Y-47752000D01*
X128104501Y-47136685D01*
X127815807Y-46704625D01*
X127993137Y-46586137D01*
X128153818Y-46345661D01*
X128210242Y-46062000D01*
X128210242Y-44362000D01*
X128153818Y-44078339D01*
X127993137Y-43837863D01*
X127815807Y-43719375D01*
X128104501Y-43287315D01*
X128226895Y-42672000D01*
X128104501Y-42056685D01*
X127755953Y-41535047D01*
X127556834Y-41402000D01*
X127755953Y-41268953D01*
X128104501Y-40747315D01*
X128226895Y-40132000D01*
X128104501Y-39516685D01*
X127755953Y-38995047D01*
X127556834Y-38862000D01*
X127755953Y-38728953D01*
X128104501Y-38207315D01*
X128226895Y-37592000D01*
X128104501Y-36976685D01*
X127755953Y-36455047D01*
X127556834Y-36322000D01*
X127755953Y-36188953D01*
X128104501Y-35667315D01*
X128226895Y-35052000D01*
X128104501Y-34436685D01*
X127764019Y-33927118D01*
X127828698Y-33900327D01*
X128007327Y-33721699D01*
X128104000Y-33488310D01*
X128104000Y-32797750D01*
X127945250Y-32639000D01*
X126746000Y-32639000D01*
X126746000Y-32659000D01*
X126492000Y-32659000D01*
X126492000Y-32639000D01*
X125292750Y-32639000D01*
X125134000Y-32797750D01*
X125134000Y-33488310D01*
X125230673Y-33721699D01*
X125409302Y-33900327D01*
X125473981Y-33927118D01*
X125133499Y-34436685D01*
X125011105Y-35052000D01*
X110446895Y-35052000D01*
X110324501Y-34436685D01*
X109984019Y-33927118D01*
X110048698Y-33900327D01*
X110227327Y-33721699D01*
X110324000Y-33488310D01*
X110324000Y-32797750D01*
X110165250Y-32639000D01*
X108966000Y-32639000D01*
X108966000Y-32659000D01*
X108712000Y-32659000D01*
X108712000Y-32639000D01*
X107512750Y-32639000D01*
X107354000Y-32797750D01*
X107354000Y-33488310D01*
X107450673Y-33721699D01*
X107629302Y-33900327D01*
X107693981Y-33927118D01*
X107353499Y-34436685D01*
X107231105Y-35052000D01*
X99794604Y-35052000D01*
X99880495Y-34620200D01*
X99758101Y-34004885D01*
X99409553Y-33483247D01*
X98887915Y-33134699D01*
X98427919Y-33043200D01*
X98117281Y-33043200D01*
X97657285Y-33134699D01*
X97147718Y-33475181D01*
X97120927Y-33410502D01*
X96942299Y-33231873D01*
X96708910Y-33135200D01*
X96018350Y-33135200D01*
X95859600Y-33293950D01*
X95605600Y-33293950D01*
X95446850Y-33135200D01*
X94756290Y-33135200D01*
X94522901Y-33231873D01*
X94344273Y-33410502D01*
X94247600Y-33643891D01*
X87839770Y-33643891D01*
X87845501Y-33635315D01*
X87967895Y-33020000D01*
X87930365Y-32831322D01*
X87968882Y-32792805D01*
X87968884Y-32792802D01*
X91452677Y-29309010D01*
X106794324Y-29309010D01*
X107268635Y-29783322D01*
X107231105Y-29972000D01*
X107353499Y-30587315D01*
X107693981Y-31096882D01*
X107629302Y-31123673D01*
X107450673Y-31302301D01*
X107354000Y-31535690D01*
X107354000Y-32226250D01*
X107512750Y-32385000D01*
X108712000Y-32385000D01*
X108712000Y-32365000D01*
X108966000Y-32365000D01*
X108966000Y-32385000D01*
X110165250Y-32385000D01*
X110324000Y-32226250D01*
X110324000Y-31535690D01*
X110227327Y-31302301D01*
X110048698Y-31123673D01*
X109984019Y-31096882D01*
X110324501Y-30587315D01*
X110446895Y-29972000D01*
X110324501Y-29356685D01*
X109975953Y-28835047D01*
X109776834Y-28702000D01*
X109975953Y-28568953D01*
X110324501Y-28047315D01*
X110446895Y-27432000D01*
X110324501Y-26816685D01*
X109975953Y-26295047D01*
X109699011Y-26110000D01*
X111592393Y-26110000D01*
X112418611Y-26523110D01*
X112498972Y-26576805D01*
X112612775Y-26599442D01*
X112724683Y-26630088D01*
X112820570Y-26618000D01*
X113677985Y-26618000D01*
X113471400Y-26927176D01*
X113345126Y-27562000D01*
X113471400Y-28196824D01*
X113830999Y-28735001D01*
X114369176Y-29094600D01*
X114815133Y-29183306D01*
X114727703Y-29200697D01*
X114239142Y-29527142D01*
X113912697Y-30015703D01*
X113798064Y-30592000D01*
X113912697Y-31168297D01*
X114239142Y-31656858D01*
X114727703Y-31983303D01*
X115158529Y-32069000D01*
X115449471Y-32069000D01*
X115880297Y-31983303D01*
X116368858Y-31656858D01*
X116695303Y-31168297D01*
X116809936Y-30592000D01*
X116695303Y-30015703D01*
X116368858Y-29527142D01*
X115880297Y-29200697D01*
X115492868Y-29123632D01*
X115638824Y-29094600D01*
X116177001Y-28735001D01*
X116536600Y-28196824D01*
X116662874Y-27562000D01*
X116536600Y-26927176D01*
X116330015Y-26618000D01*
X119127985Y-26618000D01*
X118921400Y-26927176D01*
X118795126Y-27562000D01*
X118921400Y-28196824D01*
X119280999Y-28735001D01*
X119819176Y-29094600D01*
X119965132Y-29123632D01*
X119577703Y-29200697D01*
X119089142Y-29527142D01*
X118762697Y-30015703D01*
X118648064Y-30592000D01*
X118762697Y-31168297D01*
X119089142Y-31656858D01*
X119577703Y-31983303D01*
X120008529Y-32069000D01*
X120299471Y-32069000D01*
X120730297Y-31983303D01*
X121218858Y-31656858D01*
X121545303Y-31168297D01*
X121659936Y-30592000D01*
X121545303Y-30015703D01*
X121218858Y-29527142D01*
X120730297Y-29200697D01*
X120642867Y-29183306D01*
X121088824Y-29094600D01*
X121627001Y-28735001D01*
X121986600Y-28196824D01*
X122112874Y-27562000D01*
X121986600Y-26927176D01*
X121780015Y-26618000D01*
X122383430Y-26618000D01*
X122479317Y-26630088D01*
X122591223Y-26599442D01*
X122705028Y-26576805D01*
X122785391Y-26523108D01*
X123611607Y-26110000D01*
X125758989Y-26110000D01*
X125482047Y-26295047D01*
X125133499Y-26816685D01*
X125011105Y-27432000D01*
X125133499Y-28047315D01*
X125482047Y-28568953D01*
X125591168Y-28641865D01*
X125409951Y-28762951D01*
X125039301Y-29317667D01*
X124909146Y-29972000D01*
X125039301Y-30626333D01*
X125386709Y-31146266D01*
X125230673Y-31302301D01*
X125134000Y-31535690D01*
X125134000Y-32226250D01*
X125292750Y-32385000D01*
X126492000Y-32385000D01*
X126492000Y-32365000D01*
X126746000Y-32365000D01*
X126746000Y-32385000D01*
X127945250Y-32385000D01*
X128104000Y-32226250D01*
X128104000Y-31955745D01*
X133791861Y-31955745D01*
X133865995Y-32201864D01*
X134403223Y-32394965D01*
X134973454Y-32367778D01*
X135374005Y-32201864D01*
X135448139Y-31955745D01*
X134620000Y-31127605D01*
X133791861Y-31955745D01*
X128104000Y-31955745D01*
X128104000Y-31535690D01*
X128007327Y-31302301D01*
X127851291Y-31146266D01*
X128198699Y-30626333D01*
X128328854Y-29972000D01*
X128198699Y-29317667D01*
X127828049Y-28762951D01*
X127646832Y-28641865D01*
X127755953Y-28568953D01*
X128104501Y-28047315D01*
X128183929Y-27648000D01*
X132976799Y-27648000D01*
X132976799Y-29248000D01*
X133040984Y-29570679D01*
X133223767Y-29844233D01*
X133497321Y-30027016D01*
X133524892Y-30032500D01*
X133612253Y-30119861D01*
X133366136Y-30193995D01*
X133173035Y-30731223D01*
X133200222Y-31301454D01*
X133366136Y-31702005D01*
X133612255Y-31776139D01*
X134440395Y-30948000D01*
X134426252Y-30933858D01*
X134605858Y-30754252D01*
X134620000Y-30768395D01*
X134634142Y-30754252D01*
X134813748Y-30933858D01*
X134799605Y-30948000D01*
X135627745Y-31776139D01*
X135873864Y-31702005D01*
X136066965Y-31164777D01*
X136039778Y-30594546D01*
X135873864Y-30193995D01*
X135627747Y-30119861D01*
X135715108Y-30032500D01*
X135742679Y-30027016D01*
X136016233Y-29844233D01*
X136199016Y-29570679D01*
X136263201Y-29248000D01*
X136263201Y-27648000D01*
X136199016Y-27325321D01*
X136041780Y-27090000D01*
X141054799Y-27090000D01*
X141054799Y-28790000D01*
X141118984Y-29112679D01*
X141301767Y-29386233D01*
X141575321Y-29569016D01*
X141898000Y-29633201D01*
X143598000Y-29633201D01*
X143920679Y-29569016D01*
X144194233Y-29386233D01*
X144268215Y-29275511D01*
X144633667Y-29519699D01*
X145122832Y-29617000D01*
X145453168Y-29617000D01*
X145942333Y-29519699D01*
X146497049Y-29149049D01*
X146558000Y-29057830D01*
X146618951Y-29149049D01*
X147173667Y-29519699D01*
X147662832Y-29617000D01*
X147993168Y-29617000D01*
X148482333Y-29519699D01*
X149037049Y-29149049D01*
X149407699Y-28594333D01*
X149466863Y-28296892D01*
X154768514Y-28296892D01*
X155014817Y-28821358D01*
X155443076Y-29211645D01*
X155853110Y-29381476D01*
X156083000Y-29260155D01*
X156083000Y-28067000D01*
X156337000Y-28067000D01*
X156337000Y-29260155D01*
X156566890Y-29381476D01*
X156976924Y-29211645D01*
X157405183Y-28821358D01*
X157480000Y-28662046D01*
X157554817Y-28821358D01*
X157983076Y-29211645D01*
X158393110Y-29381476D01*
X158623000Y-29260155D01*
X158623000Y-28067000D01*
X158877000Y-28067000D01*
X158877000Y-29260155D01*
X159106890Y-29381476D01*
X159516924Y-29211645D01*
X159814864Y-28940122D01*
X159901673Y-29149698D01*
X160080301Y-29328327D01*
X160313690Y-29425000D01*
X161004250Y-29425000D01*
X161163000Y-29266250D01*
X161163000Y-28067000D01*
X161417000Y-28067000D01*
X161417000Y-29266250D01*
X161575750Y-29425000D01*
X162266310Y-29425000D01*
X162499699Y-29328327D01*
X162678327Y-29149698D01*
X162775000Y-28916309D01*
X162775000Y-28747131D01*
X166583000Y-28747131D01*
X166583000Y-29672869D01*
X166937264Y-30528140D01*
X167591860Y-31182736D01*
X168447131Y-31537000D01*
X169372869Y-31537000D01*
X170228140Y-31182736D01*
X170882736Y-30528140D01*
X171237000Y-29672869D01*
X171237000Y-28747131D01*
X170882736Y-27891860D01*
X170228140Y-27237264D01*
X169372869Y-26883000D01*
X168447131Y-26883000D01*
X167591860Y-27237264D01*
X166937264Y-27891860D01*
X166583000Y-28747131D01*
X162775000Y-28747131D01*
X162775000Y-28225750D01*
X162616250Y-28067000D01*
X161417000Y-28067000D01*
X161163000Y-28067000D01*
X158877000Y-28067000D01*
X158623000Y-28067000D01*
X156337000Y-28067000D01*
X156083000Y-28067000D01*
X154889181Y-28067000D01*
X154768514Y-28296892D01*
X149466863Y-28296892D01*
X149537854Y-27940000D01*
X149466864Y-27583108D01*
X154768514Y-27583108D01*
X154889181Y-27813000D01*
X156083000Y-27813000D01*
X156083000Y-26619845D01*
X156337000Y-26619845D01*
X156337000Y-27813000D01*
X158623000Y-27813000D01*
X158623000Y-26619845D01*
X158877000Y-26619845D01*
X158877000Y-27813000D01*
X161163000Y-27813000D01*
X161163000Y-26613750D01*
X161417000Y-26613750D01*
X161417000Y-27813000D01*
X162616250Y-27813000D01*
X162775000Y-27654250D01*
X162775000Y-26963691D01*
X162678327Y-26730302D01*
X162499699Y-26551673D01*
X162266310Y-26455000D01*
X161575750Y-26455000D01*
X161417000Y-26613750D01*
X161163000Y-26613750D01*
X161004250Y-26455000D01*
X160313690Y-26455000D01*
X160080301Y-26551673D01*
X159901673Y-26730302D01*
X159814864Y-26939878D01*
X159516924Y-26668355D01*
X159106890Y-26498524D01*
X158877000Y-26619845D01*
X158623000Y-26619845D01*
X158393110Y-26498524D01*
X157983076Y-26668355D01*
X157554817Y-27058642D01*
X157480000Y-27217954D01*
X157405183Y-27058642D01*
X156976924Y-26668355D01*
X156566890Y-26498524D01*
X156337000Y-26619845D01*
X156083000Y-26619845D01*
X155853110Y-26498524D01*
X155443076Y-26668355D01*
X155014817Y-27058642D01*
X154768514Y-27583108D01*
X149466864Y-27583108D01*
X149407699Y-27285667D01*
X149037049Y-26730951D01*
X148482333Y-26360301D01*
X147993168Y-26263000D01*
X147662832Y-26263000D01*
X147173667Y-26360301D01*
X146618951Y-26730951D01*
X146558000Y-26822170D01*
X146497049Y-26730951D01*
X145942333Y-26360301D01*
X145453168Y-26263000D01*
X145122832Y-26263000D01*
X144633667Y-26360301D01*
X144268215Y-26604489D01*
X144194233Y-26493767D01*
X143920679Y-26310984D01*
X143598000Y-26246799D01*
X141898000Y-26246799D01*
X141575321Y-26310984D01*
X141301767Y-26493767D01*
X141118984Y-26767321D01*
X141054799Y-27090000D01*
X136041780Y-27090000D01*
X136016233Y-27051767D01*
X135742679Y-26868984D01*
X135420000Y-26804799D01*
X133820000Y-26804799D01*
X133497321Y-26868984D01*
X133223767Y-27051767D01*
X133040984Y-27325321D01*
X132976799Y-27648000D01*
X128183929Y-27648000D01*
X128226895Y-27432000D01*
X128104501Y-26816685D01*
X127755953Y-26295047D01*
X127479011Y-26110000D01*
X170135334Y-26110000D01*
X170633698Y-26172958D01*
X171058893Y-26341305D01*
X171428858Y-26610101D01*
X171720356Y-26962462D01*
X171915067Y-27376244D01*
X172007093Y-27858662D01*
X172010000Y-27951164D01*
X172010001Y-99015326D01*
X171947042Y-99513699D01*
X171778697Y-99938889D01*
X171509899Y-100308859D01*
X171157541Y-100600355D01*
X170743756Y-100795067D01*
X170261339Y-100887093D01*
X170168836Y-100890000D01*
X76244667Y-100890000D01*
X75746301Y-100827042D01*
X75321111Y-100658697D01*
X74951141Y-100389899D01*
X74659645Y-100037541D01*
X74464933Y-99623756D01*
X74372907Y-99141339D01*
X74370000Y-99048836D01*
X74370000Y-97327131D01*
X75143000Y-97327131D01*
X75143000Y-98252869D01*
X75497264Y-99108140D01*
X76151860Y-99762736D01*
X77007131Y-100117000D01*
X77932869Y-100117000D01*
X78788140Y-99762736D01*
X79442736Y-99108140D01*
X79797000Y-98252869D01*
X79797000Y-97817022D01*
X135983000Y-97817022D01*
X135983000Y-98702978D01*
X136322040Y-99521494D01*
X136948506Y-100147960D01*
X137767022Y-100487000D01*
X138652978Y-100487000D01*
X139471494Y-100147960D01*
X140097960Y-99521494D01*
X140437000Y-98702978D01*
X140437000Y-97817022D01*
X159283000Y-97817022D01*
X159283000Y-98702978D01*
X159622040Y-99521494D01*
X160248506Y-100147960D01*
X161067022Y-100487000D01*
X161952978Y-100487000D01*
X162771494Y-100147960D01*
X163397960Y-99521494D01*
X163737000Y-98702978D01*
X163737000Y-97817022D01*
X163534081Y-97327131D01*
X166583000Y-97327131D01*
X166583000Y-98252869D01*
X166937264Y-99108140D01*
X167591860Y-99762736D01*
X168447131Y-100117000D01*
X169372869Y-100117000D01*
X170228140Y-99762736D01*
X170882736Y-99108140D01*
X171237000Y-98252869D01*
X171237000Y-97327131D01*
X170882736Y-96471860D01*
X170228140Y-95817264D01*
X169372869Y-95463000D01*
X168447131Y-95463000D01*
X167591860Y-95817264D01*
X166937264Y-96471860D01*
X166583000Y-97327131D01*
X163534081Y-97327131D01*
X163397960Y-96998506D01*
X162771494Y-96372040D01*
X161952978Y-96033000D01*
X161067022Y-96033000D01*
X160248506Y-96372040D01*
X159622040Y-96998506D01*
X159283000Y-97817022D01*
X140437000Y-97817022D01*
X140097960Y-96998506D01*
X139471494Y-96372040D01*
X138652978Y-96033000D01*
X137767022Y-96033000D01*
X136948506Y-96372040D01*
X136322040Y-96998506D01*
X135983000Y-97817022D01*
X79797000Y-97817022D01*
X79797000Y-97327131D01*
X79442736Y-96471860D01*
X79428408Y-96457532D01*
X85387073Y-96457532D01*
X85485736Y-96724387D01*
X86095461Y-96950908D01*
X86745460Y-96926856D01*
X87234264Y-96724387D01*
X87332927Y-96457532D01*
X91887073Y-96457532D01*
X91985736Y-96724387D01*
X92595461Y-96950908D01*
X93245460Y-96926856D01*
X93734264Y-96724387D01*
X93832927Y-96457532D01*
X101897073Y-96457532D01*
X101995736Y-96724387D01*
X102605461Y-96950908D01*
X103255460Y-96926856D01*
X103744264Y-96724387D01*
X103842927Y-96457532D01*
X108397073Y-96457532D01*
X108495736Y-96724387D01*
X109105461Y-96950908D01*
X109755460Y-96926856D01*
X110244264Y-96724387D01*
X110342927Y-96457532D01*
X109370000Y-95484605D01*
X108397073Y-96457532D01*
X103842927Y-96457532D01*
X102870000Y-95484605D01*
X101897073Y-96457532D01*
X93832927Y-96457532D01*
X92860000Y-95484605D01*
X91887073Y-96457532D01*
X87332927Y-96457532D01*
X86360000Y-95484605D01*
X85387073Y-96457532D01*
X79428408Y-96457532D01*
X78788140Y-95817264D01*
X77932869Y-95463000D01*
X77007131Y-95463000D01*
X76151860Y-95817264D01*
X75497264Y-96471860D01*
X75143000Y-97327131D01*
X74370000Y-97327131D01*
X74370000Y-95040461D01*
X84714092Y-95040461D01*
X84738144Y-95690460D01*
X84940613Y-96179264D01*
X85207468Y-96277927D01*
X86180395Y-95305000D01*
X86539605Y-95305000D01*
X87512532Y-96277927D01*
X87779387Y-96179264D01*
X88005908Y-95569539D01*
X87986331Y-95040461D01*
X91214092Y-95040461D01*
X91238144Y-95690460D01*
X91440613Y-96179264D01*
X91707468Y-96277927D01*
X92680395Y-95305000D01*
X93039605Y-95305000D01*
X94012532Y-96277927D01*
X94279387Y-96179264D01*
X94505908Y-95569539D01*
X94486331Y-95040461D01*
X101224092Y-95040461D01*
X101248144Y-95690460D01*
X101450613Y-96179264D01*
X101717468Y-96277927D01*
X102690395Y-95305000D01*
X103049605Y-95305000D01*
X104022532Y-96277927D01*
X104289387Y-96179264D01*
X104515908Y-95569539D01*
X104496331Y-95040461D01*
X107724092Y-95040461D01*
X107748144Y-95690460D01*
X107950613Y-96179264D01*
X108217468Y-96277927D01*
X109190395Y-95305000D01*
X109549605Y-95305000D01*
X110522532Y-96277927D01*
X110789387Y-96179264D01*
X111015908Y-95569539D01*
X110991856Y-94919540D01*
X110789387Y-94430736D01*
X110522532Y-94332073D01*
X109549605Y-95305000D01*
X109190395Y-95305000D01*
X108217468Y-94332073D01*
X107950613Y-94430736D01*
X107724092Y-95040461D01*
X104496331Y-95040461D01*
X104491856Y-94919540D01*
X104289387Y-94430736D01*
X104022532Y-94332073D01*
X103049605Y-95305000D01*
X102690395Y-95305000D01*
X101717468Y-94332073D01*
X101450613Y-94430736D01*
X101224092Y-95040461D01*
X94486331Y-95040461D01*
X94481856Y-94919540D01*
X94279387Y-94430736D01*
X94012532Y-94332073D01*
X93039605Y-95305000D01*
X92680395Y-95305000D01*
X91707468Y-94332073D01*
X91440613Y-94430736D01*
X91214092Y-95040461D01*
X87986331Y-95040461D01*
X87981856Y-94919540D01*
X87779387Y-94430736D01*
X87512532Y-94332073D01*
X86539605Y-95305000D01*
X86180395Y-95305000D01*
X85207468Y-94332073D01*
X84940613Y-94430736D01*
X84714092Y-95040461D01*
X74370000Y-95040461D01*
X74370000Y-94152468D01*
X85387073Y-94152468D01*
X86360000Y-95125395D01*
X87332927Y-94152468D01*
X91887073Y-94152468D01*
X92860000Y-95125395D01*
X93832927Y-94152468D01*
X101897073Y-94152468D01*
X102870000Y-95125395D01*
X103842927Y-94152468D01*
X108397073Y-94152468D01*
X109370000Y-95125395D01*
X110342927Y-94152468D01*
X110244264Y-93885613D01*
X109634539Y-93659092D01*
X108984540Y-93683144D01*
X108495736Y-93885613D01*
X108397073Y-94152468D01*
X103842927Y-94152468D01*
X103744264Y-93885613D01*
X103134539Y-93659092D01*
X102484540Y-93683144D01*
X101995736Y-93885613D01*
X101897073Y-94152468D01*
X93832927Y-94152468D01*
X93734264Y-93885613D01*
X93124539Y-93659092D01*
X92474540Y-93683144D01*
X91985736Y-93885613D01*
X91887073Y-94152468D01*
X87332927Y-94152468D01*
X87234264Y-93885613D01*
X86624539Y-93659092D01*
X85974540Y-93683144D01*
X85485736Y-93885613D01*
X85387073Y-94152468D01*
X74370000Y-94152468D01*
X74370000Y-90461478D01*
X84633000Y-90461478D01*
X84633000Y-91148522D01*
X84895920Y-91783267D01*
X85381733Y-92269080D01*
X86016478Y-92532000D01*
X86703522Y-92532000D01*
X87338267Y-92269080D01*
X87824080Y-91783267D01*
X88087000Y-91148522D01*
X88087000Y-90461478D01*
X91133000Y-90461478D01*
X91133000Y-91148522D01*
X91395920Y-91783267D01*
X91881733Y-92269080D01*
X92516478Y-92532000D01*
X93203522Y-92532000D01*
X93838267Y-92269080D01*
X94324080Y-91783267D01*
X94587000Y-91148522D01*
X94587000Y-90461478D01*
X101143000Y-90461478D01*
X101143000Y-91148522D01*
X101405920Y-91783267D01*
X101891733Y-92269080D01*
X102526478Y-92532000D01*
X103213522Y-92532000D01*
X103848267Y-92269080D01*
X104334080Y-91783267D01*
X104597000Y-91148522D01*
X104597000Y-90461478D01*
X107643000Y-90461478D01*
X107643000Y-91148522D01*
X107905920Y-91783267D01*
X108391733Y-92269080D01*
X109026478Y-92532000D01*
X109713522Y-92532000D01*
X110348267Y-92269080D01*
X110834080Y-91783267D01*
X111097000Y-91148522D01*
X111097000Y-90461478D01*
X110834080Y-89826733D01*
X110348267Y-89340920D01*
X109713522Y-89078000D01*
X109026478Y-89078000D01*
X108391733Y-89340920D01*
X107905920Y-89826733D01*
X107643000Y-90461478D01*
X104597000Y-90461478D01*
X104334080Y-89826733D01*
X103848267Y-89340920D01*
X103213522Y-89078000D01*
X102526478Y-89078000D01*
X101891733Y-89340920D01*
X101405920Y-89826733D01*
X101143000Y-90461478D01*
X94587000Y-90461478D01*
X94324080Y-89826733D01*
X93838267Y-89340920D01*
X93203522Y-89078000D01*
X92516478Y-89078000D01*
X91881733Y-89340920D01*
X91395920Y-89826733D01*
X91133000Y-90461478D01*
X88087000Y-90461478D01*
X87824080Y-89826733D01*
X87338267Y-89340920D01*
X86703522Y-89078000D01*
X86016478Y-89078000D01*
X85381733Y-89340920D01*
X84895920Y-89826733D01*
X84633000Y-90461478D01*
X74370000Y-90461478D01*
X74370000Y-88812000D01*
X118169399Y-88812000D01*
X118169399Y-90512000D01*
X118233584Y-90834679D01*
X118416367Y-91108233D01*
X118689921Y-91291016D01*
X119012600Y-91355201D01*
X120712600Y-91355201D01*
X121035279Y-91291016D01*
X121308833Y-91108233D01*
X121438372Y-90914364D01*
X121787285Y-91147501D01*
X122247281Y-91239000D01*
X122557919Y-91239000D01*
X123017915Y-91147501D01*
X123539553Y-90798953D01*
X123672600Y-90599834D01*
X123805647Y-90798953D01*
X124327285Y-91147501D01*
X124787281Y-91239000D01*
X125097919Y-91239000D01*
X125557915Y-91147501D01*
X126079553Y-90798953D01*
X126272112Y-90510768D01*
X126287417Y-90543358D01*
X126715676Y-90933645D01*
X127125710Y-91103476D01*
X127355600Y-90982155D01*
X127355600Y-89789000D01*
X127609600Y-89789000D01*
X127609600Y-90982155D01*
X127839490Y-91103476D01*
X128249524Y-90933645D01*
X128677783Y-90543358D01*
X128924086Y-90018892D01*
X128803419Y-89789000D01*
X127609600Y-89789000D01*
X127355600Y-89789000D01*
X127335600Y-89789000D01*
X127335600Y-89535000D01*
X127355600Y-89535000D01*
X127355600Y-88341845D01*
X127609600Y-88341845D01*
X127609600Y-89535000D01*
X128803419Y-89535000D01*
X128924086Y-89305108D01*
X128677783Y-88780642D01*
X128249524Y-88390355D01*
X127839490Y-88220524D01*
X127609600Y-88341845D01*
X127355600Y-88341845D01*
X127125710Y-88220524D01*
X126715676Y-88390355D01*
X126287417Y-88780642D01*
X126272112Y-88813232D01*
X126079553Y-88525047D01*
X125557915Y-88176499D01*
X125097919Y-88085000D01*
X124787281Y-88085000D01*
X124327285Y-88176499D01*
X123805647Y-88525047D01*
X123672600Y-88724166D01*
X123539553Y-88525047D01*
X123017915Y-88176499D01*
X122557919Y-88085000D01*
X122247281Y-88085000D01*
X121787285Y-88176499D01*
X121438372Y-88409636D01*
X121308833Y-88215767D01*
X121035279Y-88032984D01*
X120712600Y-87968799D01*
X119012600Y-87968799D01*
X118689921Y-88032984D01*
X118416367Y-88215767D01*
X118233584Y-88489321D01*
X118169399Y-88812000D01*
X74370000Y-88812000D01*
X74370000Y-85803745D01*
X97215861Y-85803745D01*
X97289995Y-86049864D01*
X97827223Y-86242965D01*
X98397454Y-86215778D01*
X98798005Y-86049864D01*
X98872139Y-85803745D01*
X98044000Y-84975605D01*
X97215861Y-85803745D01*
X74370000Y-85803745D01*
X74370000Y-82835750D01*
X79795000Y-82835750D01*
X79795000Y-83526310D01*
X79891673Y-83759699D01*
X80070302Y-83938327D01*
X80303691Y-84035000D01*
X80994250Y-84035000D01*
X81153000Y-83876250D01*
X81153000Y-82677000D01*
X81407000Y-82677000D01*
X81407000Y-83876250D01*
X81565750Y-84035000D01*
X82256309Y-84035000D01*
X82489698Y-83938327D01*
X82668327Y-83759699D01*
X82765000Y-83526310D01*
X82765000Y-82835750D01*
X82606250Y-82677000D01*
X81407000Y-82677000D01*
X81153000Y-82677000D01*
X79953750Y-82677000D01*
X79795000Y-82835750D01*
X74370000Y-82835750D01*
X74370000Y-77470000D01*
X79672105Y-77470000D01*
X79794499Y-78085315D01*
X80143047Y-78606953D01*
X80342166Y-78740000D01*
X80143047Y-78873047D01*
X79794499Y-79394685D01*
X79672105Y-80010000D01*
X79794499Y-80625315D01*
X80134981Y-81134882D01*
X80070302Y-81161673D01*
X79891673Y-81340301D01*
X79795000Y-81573690D01*
X79795000Y-82264250D01*
X79953750Y-82423000D01*
X81153000Y-82423000D01*
X81153000Y-82403000D01*
X81407000Y-82403000D01*
X81407000Y-82423000D01*
X82606250Y-82423000D01*
X82765000Y-82264250D01*
X82765000Y-81573690D01*
X82732820Y-81496000D01*
X96502758Y-81496000D01*
X96502758Y-83096000D01*
X96559182Y-83379661D01*
X96719863Y-83620137D01*
X96960339Y-83780818D01*
X96988037Y-83786327D01*
X96921378Y-83852986D01*
X97036253Y-83967861D01*
X96790136Y-84041995D01*
X96597035Y-84579223D01*
X96624222Y-85149454D01*
X96790136Y-85550005D01*
X97036255Y-85624139D01*
X97864395Y-84796000D01*
X97850252Y-84781858D01*
X98029858Y-84602252D01*
X98044000Y-84616395D01*
X98058142Y-84602252D01*
X98237748Y-84781858D01*
X98223605Y-84796000D01*
X99051745Y-85624139D01*
X99297864Y-85550005D01*
X99490965Y-85012777D01*
X99463778Y-84442546D01*
X99297864Y-84041995D01*
X99051747Y-83967861D01*
X99166622Y-83852986D01*
X99099963Y-83786327D01*
X99127661Y-83780818D01*
X99368137Y-83620137D01*
X99528818Y-83379661D01*
X99585242Y-83096000D01*
X99585242Y-81496000D01*
X99528818Y-81212339D01*
X99368137Y-80971863D01*
X99127661Y-80811182D01*
X98844000Y-80754758D01*
X97244000Y-80754758D01*
X96960339Y-80811182D01*
X96719863Y-80971863D01*
X96559182Y-81212339D01*
X96502758Y-81496000D01*
X82732820Y-81496000D01*
X82668327Y-81340301D01*
X82489698Y-81161673D01*
X82425019Y-81134882D01*
X82765501Y-80625315D01*
X82887895Y-80010000D01*
X82850365Y-79821322D01*
X83324677Y-79347010D01*
X98701574Y-79347008D01*
X98797797Y-79366148D01*
X99179003Y-79290321D01*
X99420600Y-79128892D01*
X99420603Y-79128889D01*
X99502174Y-79074385D01*
X99556678Y-78992814D01*
X103798000Y-74751493D01*
X103798001Y-78643777D01*
X103778861Y-78740000D01*
X103854688Y-79121206D01*
X104016117Y-79362803D01*
X104016120Y-79362806D01*
X104070624Y-79444377D01*
X104152195Y-79498881D01*
X106135330Y-81482017D01*
X106189832Y-81563585D01*
X106271400Y-81618087D01*
X106271405Y-81618092D01*
X106513002Y-81779521D01*
X106894208Y-81855348D01*
X106990431Y-81836208D01*
X146674572Y-81836210D01*
X146770790Y-81855349D01*
X146867008Y-81836210D01*
X146867012Y-81836210D01*
X147151995Y-81779523D01*
X147233356Y-81725159D01*
X147393593Y-81618093D01*
X147393595Y-81618091D01*
X147475166Y-81563587D01*
X147529670Y-81482016D01*
X153474687Y-75537000D01*
X153983685Y-75537000D01*
X154563299Y-75296916D01*
X155006916Y-74853299D01*
X155247000Y-74273685D01*
X155247000Y-74017022D01*
X159283000Y-74017022D01*
X159283000Y-74902978D01*
X159622040Y-75721494D01*
X160248506Y-76347960D01*
X161067022Y-76687000D01*
X161952978Y-76687000D01*
X162771494Y-76347960D01*
X163397960Y-75721494D01*
X163737000Y-74902978D01*
X163737000Y-74017022D01*
X163397960Y-73198506D01*
X162771494Y-72572040D01*
X161952978Y-72233000D01*
X161067022Y-72233000D01*
X160248506Y-72572040D01*
X159622040Y-73198506D01*
X159283000Y-74017022D01*
X155247000Y-74017022D01*
X155247000Y-73646315D01*
X155006916Y-73066701D01*
X154563299Y-72623084D01*
X153983685Y-72383000D01*
X153356315Y-72383000D01*
X152776701Y-72623084D01*
X152400000Y-72999785D01*
X152023299Y-72623084D01*
X151443685Y-72383000D01*
X150816315Y-72383000D01*
X150236701Y-72623084D01*
X149860000Y-72999785D01*
X149483299Y-72623084D01*
X148903685Y-72383000D01*
X148276315Y-72383000D01*
X147696701Y-72623084D01*
X147476742Y-72843043D01*
X147438327Y-72750301D01*
X147259698Y-72571673D01*
X147026309Y-72475000D01*
X146335750Y-72475000D01*
X146177000Y-72633750D01*
X146177000Y-73833000D01*
X146197000Y-73833000D01*
X146197000Y-74087000D01*
X146177000Y-74087000D01*
X146177000Y-75286250D01*
X146335750Y-75445000D01*
X147026309Y-75445000D01*
X147259698Y-75348327D01*
X147438327Y-75169699D01*
X147476742Y-75076957D01*
X147696701Y-75296916D01*
X148202068Y-75506246D01*
X144726114Y-78982200D01*
X110716886Y-78982200D01*
X109816000Y-78081314D01*
X109816000Y-76935830D01*
X109975953Y-76828953D01*
X110324501Y-76307315D01*
X110446895Y-75692000D01*
X110401146Y-75462000D01*
X113581105Y-75462000D01*
X113703499Y-76077315D01*
X114052047Y-76598953D01*
X114573685Y-76947501D01*
X115033681Y-77039000D01*
X115344319Y-77039000D01*
X115804315Y-76947501D01*
X116313882Y-76607019D01*
X116340673Y-76671699D01*
X116519302Y-76850327D01*
X116752691Y-76947000D01*
X117443250Y-76947000D01*
X117602000Y-76788250D01*
X117602000Y-75589000D01*
X117582000Y-75589000D01*
X117582000Y-75335000D01*
X117602000Y-75335000D01*
X117602000Y-74135750D01*
X117856000Y-74135750D01*
X117856000Y-75335000D01*
X117876000Y-75335000D01*
X117876000Y-75589000D01*
X117856000Y-75589000D01*
X117856000Y-76788250D01*
X118014750Y-76947000D01*
X118705309Y-76947000D01*
X118938698Y-76850327D01*
X119117327Y-76671699D01*
X119144118Y-76607019D01*
X119653685Y-76947501D01*
X120113681Y-77039000D01*
X120424319Y-77039000D01*
X120884315Y-76947501D01*
X121405953Y-76598953D01*
X121754501Y-76077315D01*
X121876895Y-75462000D01*
X121754501Y-74846685D01*
X121405953Y-74325047D01*
X120884315Y-73976499D01*
X120424319Y-73885000D01*
X120113681Y-73885000D01*
X119653685Y-73976499D01*
X119144118Y-74316981D01*
X119117327Y-74252301D01*
X118938698Y-74073673D01*
X118705309Y-73977000D01*
X118014750Y-73977000D01*
X117856000Y-74135750D01*
X117602000Y-74135750D01*
X117443250Y-73977000D01*
X116752691Y-73977000D01*
X116519302Y-74073673D01*
X116340673Y-74252301D01*
X116313882Y-74316981D01*
X115804315Y-73976499D01*
X115344319Y-73885000D01*
X115033681Y-73885000D01*
X114573685Y-73976499D01*
X114052047Y-74325047D01*
X113703499Y-74846685D01*
X113581105Y-75462000D01*
X110401146Y-75462000D01*
X110324501Y-75076685D01*
X109975953Y-74555047D01*
X109776834Y-74422000D01*
X109975953Y-74288953D01*
X110324501Y-73767315D01*
X110446895Y-73152000D01*
X125011105Y-73152000D01*
X125133499Y-73767315D01*
X125482047Y-74288953D01*
X125681166Y-74422000D01*
X125482047Y-74555047D01*
X125133499Y-75076685D01*
X125011105Y-75692000D01*
X125133499Y-76307315D01*
X125482047Y-76828953D01*
X126003685Y-77177501D01*
X126463681Y-77269000D01*
X126774319Y-77269000D01*
X127234315Y-77177501D01*
X127755953Y-76828953D01*
X128104501Y-76307315D01*
X128226895Y-75692000D01*
X128104501Y-75076685D01*
X127755953Y-74555047D01*
X127556834Y-74422000D01*
X127755953Y-74288953D01*
X127937651Y-74017022D01*
X135983000Y-74017022D01*
X135983000Y-74902978D01*
X136322040Y-75721494D01*
X136948506Y-76347960D01*
X137767022Y-76687000D01*
X138652978Y-76687000D01*
X139471494Y-76347960D01*
X140097960Y-75721494D01*
X140437000Y-74902978D01*
X140437000Y-74245750D01*
X144565000Y-74245750D01*
X144565000Y-74936310D01*
X144661673Y-75169699D01*
X144840302Y-75348327D01*
X145073691Y-75445000D01*
X145764250Y-75445000D01*
X145923000Y-75286250D01*
X145923000Y-74087000D01*
X144723750Y-74087000D01*
X144565000Y-74245750D01*
X140437000Y-74245750D01*
X140437000Y-74017022D01*
X140097960Y-73198506D01*
X139883144Y-72983690D01*
X144565000Y-72983690D01*
X144565000Y-73674250D01*
X144723750Y-73833000D01*
X145923000Y-73833000D01*
X145923000Y-72633750D01*
X145764250Y-72475000D01*
X145073691Y-72475000D01*
X144840302Y-72571673D01*
X144661673Y-72750301D01*
X144565000Y-72983690D01*
X139883144Y-72983690D01*
X139471494Y-72572040D01*
X138652978Y-72233000D01*
X137767022Y-72233000D01*
X136948506Y-72572040D01*
X136322040Y-73198506D01*
X135983000Y-74017022D01*
X127937651Y-74017022D01*
X128104501Y-73767315D01*
X128226895Y-73152000D01*
X128104501Y-72536685D01*
X127764019Y-72027118D01*
X127828698Y-72000327D01*
X128007327Y-71821699D01*
X128104000Y-71588310D01*
X128104000Y-70897750D01*
X127945250Y-70739000D01*
X126746000Y-70739000D01*
X126746000Y-70759000D01*
X126492000Y-70759000D01*
X126492000Y-70739000D01*
X125292750Y-70739000D01*
X125134000Y-70897750D01*
X125134000Y-71588310D01*
X125230673Y-71821699D01*
X125409302Y-72000327D01*
X125473981Y-72027118D01*
X125133499Y-72536685D01*
X125011105Y-73152000D01*
X110446895Y-73152000D01*
X110324501Y-72536685D01*
X109984019Y-72027118D01*
X110048698Y-72000327D01*
X110227327Y-71821699D01*
X110324000Y-71588310D01*
X110324000Y-70897750D01*
X110165250Y-70739000D01*
X108966000Y-70739000D01*
X108966000Y-70759000D01*
X108712000Y-70759000D01*
X108712000Y-70739000D01*
X107512750Y-70739000D01*
X107354000Y-70897750D01*
X107354000Y-71588310D01*
X107450673Y-71821699D01*
X107629302Y-72000327D01*
X107693981Y-72027118D01*
X107595170Y-72175000D01*
X106014217Y-72175000D01*
X105917999Y-72155861D01*
X105821781Y-72175000D01*
X105821777Y-72175000D01*
X105536794Y-72231687D01*
X105536792Y-72231688D01*
X105536793Y-72231688D01*
X105295196Y-72393117D01*
X105295194Y-72393119D01*
X105213623Y-72447623D01*
X105159119Y-72529194D01*
X104482000Y-73206314D01*
X104482000Y-60452000D01*
X107231105Y-60452000D01*
X107353499Y-61067315D01*
X107702047Y-61588953D01*
X107901166Y-61722000D01*
X107702047Y-61855047D01*
X107353499Y-62376685D01*
X107231105Y-62992000D01*
X107353499Y-63607315D01*
X107702047Y-64128953D01*
X107901166Y-64262000D01*
X107702047Y-64395047D01*
X107353499Y-64916685D01*
X107231105Y-65532000D01*
X107353499Y-66147315D01*
X107702047Y-66668953D01*
X107901166Y-66802000D01*
X107702047Y-66935047D01*
X107353499Y-67456685D01*
X107231105Y-68072000D01*
X107353499Y-68687315D01*
X107693981Y-69196882D01*
X107629302Y-69223673D01*
X107450673Y-69402301D01*
X107354000Y-69635690D01*
X107354000Y-70326250D01*
X107512750Y-70485000D01*
X108712000Y-70485000D01*
X108712000Y-70465000D01*
X108966000Y-70465000D01*
X108966000Y-70485000D01*
X110165250Y-70485000D01*
X110324000Y-70326250D01*
X110324000Y-69635690D01*
X110227327Y-69402301D01*
X110048698Y-69223673D01*
X109984019Y-69196882D01*
X110324501Y-68687315D01*
X110446895Y-68072000D01*
X110324501Y-67456685D01*
X109975953Y-66935047D01*
X109776834Y-66802000D01*
X109975953Y-66668953D01*
X110324501Y-66147315D01*
X110446895Y-65532000D01*
X110324501Y-64916685D01*
X109975953Y-64395047D01*
X109776834Y-64262000D01*
X109975953Y-64128953D01*
X110324501Y-63607315D01*
X110446895Y-62992000D01*
X110324501Y-62376685D01*
X109975953Y-61855047D01*
X109776834Y-61722000D01*
X109975953Y-61588953D01*
X110324501Y-61067315D01*
X110446895Y-60452000D01*
X110324501Y-59836685D01*
X109984019Y-59327118D01*
X110048698Y-59300327D01*
X110227327Y-59121699D01*
X110324000Y-58888310D01*
X110324000Y-58197750D01*
X110165250Y-58039000D01*
X108966000Y-58039000D01*
X108966000Y-58059000D01*
X108712000Y-58059000D01*
X108712000Y-58039000D01*
X107512750Y-58039000D01*
X107354000Y-58197750D01*
X107354000Y-58888310D01*
X107450673Y-59121699D01*
X107629302Y-59300327D01*
X107693981Y-59327118D01*
X107353499Y-59836685D01*
X107231105Y-60452000D01*
X104482000Y-60452000D01*
X104482000Y-56030686D01*
X107305696Y-53206991D01*
X107353499Y-53447315D01*
X107702047Y-53968953D01*
X107901166Y-54102000D01*
X107702047Y-54235047D01*
X107353499Y-54756685D01*
X107231105Y-55372000D01*
X107353499Y-55987315D01*
X107693981Y-56496882D01*
X107629302Y-56523673D01*
X107450673Y-56702301D01*
X107354000Y-56935690D01*
X107354000Y-57626250D01*
X107512750Y-57785000D01*
X108712000Y-57785000D01*
X108712000Y-57765000D01*
X108966000Y-57765000D01*
X108966000Y-57785000D01*
X110165250Y-57785000D01*
X110324000Y-57626250D01*
X110324000Y-56935690D01*
X110227327Y-56702301D01*
X110048698Y-56523673D01*
X109984019Y-56496882D01*
X110324501Y-55987315D01*
X110446895Y-55372000D01*
X110324501Y-54756685D01*
X109975953Y-54235047D01*
X109776834Y-54102000D01*
X109975953Y-53968953D01*
X110324501Y-53447315D01*
X110446895Y-52832000D01*
X110324501Y-52216685D01*
X109975953Y-51695047D01*
X109776834Y-51562000D01*
X109975953Y-51428953D01*
X110324501Y-50907315D01*
X110446895Y-50292000D01*
X110324501Y-49676685D01*
X109975953Y-49155047D01*
X109776834Y-49022000D01*
X109975953Y-48888953D01*
X110324501Y-48367315D01*
X110446895Y-47752000D01*
X110324501Y-47136685D01*
X109984019Y-46627118D01*
X110048698Y-46600327D01*
X110227327Y-46421699D01*
X110324000Y-46188310D01*
X110324000Y-45497750D01*
X110165250Y-45339000D01*
X108966000Y-45339000D01*
X108966000Y-45359000D01*
X108712000Y-45359000D01*
X108712000Y-45339000D01*
X107512750Y-45339000D01*
X107354000Y-45497750D01*
X107354000Y-46188310D01*
X107450673Y-46421699D01*
X107629302Y-46600327D01*
X107693981Y-46627118D01*
X107353499Y-47136685D01*
X107231105Y-47752000D01*
X107268635Y-47940678D01*
X100977197Y-54232117D01*
X100895623Y-54286623D01*
X100841117Y-54368197D01*
X100789946Y-54444780D01*
X100679687Y-54609795D01*
X100623000Y-54894778D01*
X100623000Y-54894782D01*
X100603861Y-54991000D01*
X100623000Y-55087218D01*
X100623001Y-73890312D01*
X98020314Y-76493000D01*
X82523830Y-76493000D01*
X82416953Y-76333047D01*
X81895315Y-75984499D01*
X81435319Y-75893000D01*
X81124681Y-75893000D01*
X80664685Y-75984499D01*
X80143047Y-76333047D01*
X79794499Y-76854685D01*
X79672105Y-77470000D01*
X74370000Y-77470000D01*
X74370000Y-74016890D01*
X95078524Y-74016890D01*
X95248355Y-74426924D01*
X95638642Y-74855183D01*
X96163108Y-75101486D01*
X96393000Y-74980819D01*
X96393000Y-73787000D01*
X96647000Y-73787000D01*
X96647000Y-74980819D01*
X96876892Y-75101486D01*
X97401358Y-74855183D01*
X97791645Y-74426924D01*
X97961476Y-74016890D01*
X97840155Y-73787000D01*
X96647000Y-73787000D01*
X96393000Y-73787000D01*
X95199845Y-73787000D01*
X95078524Y-74016890D01*
X74370000Y-74016890D01*
X74370000Y-66040000D01*
X79672105Y-66040000D01*
X79794499Y-66655315D01*
X80143047Y-67176953D01*
X80342166Y-67310000D01*
X80143047Y-67443047D01*
X79794499Y-67964685D01*
X79672105Y-68580000D01*
X79794499Y-69195315D01*
X80143047Y-69716953D01*
X80664685Y-70065501D01*
X81124681Y-70157000D01*
X81435319Y-70157000D01*
X81895315Y-70065501D01*
X82416953Y-69716953D01*
X82765501Y-69195315D01*
X82816905Y-68936890D01*
X87458524Y-68936890D01*
X87628355Y-69346924D01*
X88018642Y-69775183D01*
X88543108Y-70021486D01*
X88773000Y-69900819D01*
X88773000Y-68707000D01*
X89027000Y-68707000D01*
X89027000Y-69900819D01*
X89256892Y-70021486D01*
X89781358Y-69775183D01*
X90171645Y-69346924D01*
X90341476Y-68936890D01*
X90220155Y-68707000D01*
X89027000Y-68707000D01*
X88773000Y-68707000D01*
X87579845Y-68707000D01*
X87458524Y-68936890D01*
X82816905Y-68936890D01*
X82887895Y-68580000D01*
X82765501Y-67964685D01*
X82416953Y-67443047D01*
X82217834Y-67310000D01*
X82416953Y-67176953D01*
X82765501Y-66655315D01*
X82816905Y-66396890D01*
X87458524Y-66396890D01*
X87628355Y-66806924D01*
X88018642Y-67235183D01*
X88177954Y-67310000D01*
X88018642Y-67384817D01*
X87628355Y-67813076D01*
X87458524Y-68223110D01*
X87579845Y-68453000D01*
X88773000Y-68453000D01*
X88773000Y-66167000D01*
X89027000Y-66167000D01*
X89027000Y-68453000D01*
X90220155Y-68453000D01*
X90341476Y-68223110D01*
X90171645Y-67813076D01*
X89781358Y-67384817D01*
X89622046Y-67310000D01*
X89781358Y-67235183D01*
X90171645Y-66806924D01*
X90341476Y-66396890D01*
X90220155Y-66167000D01*
X89027000Y-66167000D01*
X88773000Y-66167000D01*
X87579845Y-66167000D01*
X87458524Y-66396890D01*
X82816905Y-66396890D01*
X82887895Y-66040000D01*
X82765501Y-65424685D01*
X82476807Y-64992625D01*
X82654137Y-64874137D01*
X82814818Y-64633661D01*
X82871242Y-64350000D01*
X82871242Y-63785750D01*
X87415000Y-63785750D01*
X87415000Y-64476310D01*
X87511673Y-64709699D01*
X87690302Y-64888327D01*
X87899878Y-64975136D01*
X87628355Y-65273076D01*
X87458524Y-65683110D01*
X87579845Y-65913000D01*
X88773000Y-65913000D01*
X88773000Y-63627000D01*
X89027000Y-63627000D01*
X89027000Y-65913000D01*
X90220155Y-65913000D01*
X90341476Y-65683110D01*
X90171645Y-65273076D01*
X89900122Y-64975136D01*
X90109698Y-64888327D01*
X90288327Y-64709699D01*
X90385000Y-64476310D01*
X90385000Y-63785750D01*
X90226250Y-63627000D01*
X89027000Y-63627000D01*
X88773000Y-63627000D01*
X87573750Y-63627000D01*
X87415000Y-63785750D01*
X82871242Y-63785750D01*
X82871242Y-63500000D01*
X94912105Y-63500000D01*
X95034499Y-64115315D01*
X95383047Y-64636953D01*
X95582166Y-64770000D01*
X95383047Y-64903047D01*
X95034499Y-65424685D01*
X94912105Y-66040000D01*
X95034499Y-66655315D01*
X95383047Y-67176953D01*
X95582166Y-67310000D01*
X95383047Y-67443047D01*
X95034499Y-67964685D01*
X94912105Y-68580000D01*
X95034499Y-69195315D01*
X95383047Y-69716953D01*
X95582166Y-69850000D01*
X95383047Y-69983047D01*
X95034499Y-70504685D01*
X94912105Y-71120000D01*
X95034499Y-71735315D01*
X95383047Y-72256953D01*
X95671232Y-72449512D01*
X95638642Y-72464817D01*
X95248355Y-72893076D01*
X95078524Y-73303110D01*
X95199845Y-73533000D01*
X96393000Y-73533000D01*
X96393000Y-73513000D01*
X96647000Y-73513000D01*
X96647000Y-73533000D01*
X97840155Y-73533000D01*
X97961476Y-73303110D01*
X97791645Y-72893076D01*
X97401358Y-72464817D01*
X97368768Y-72449512D01*
X97656953Y-72256953D01*
X98005501Y-71735315D01*
X98127895Y-71120000D01*
X98005501Y-70504685D01*
X97656953Y-69983047D01*
X97457834Y-69850000D01*
X97656953Y-69716953D01*
X98005501Y-69195315D01*
X98127895Y-68580000D01*
X98005501Y-67964685D01*
X97656953Y-67443047D01*
X97457834Y-67310000D01*
X97656953Y-67176953D01*
X98005501Y-66655315D01*
X98127895Y-66040000D01*
X98005501Y-65424685D01*
X97656953Y-64903047D01*
X97457834Y-64770000D01*
X97656953Y-64636953D01*
X98005501Y-64115315D01*
X98127895Y-63500000D01*
X98005501Y-62884685D01*
X97716807Y-62452625D01*
X97894137Y-62334137D01*
X98054818Y-62093661D01*
X98111242Y-61810000D01*
X98111242Y-60110000D01*
X98054818Y-59826339D01*
X97894137Y-59585863D01*
X97653661Y-59425182D01*
X97370000Y-59368758D01*
X95670000Y-59368758D01*
X95386339Y-59425182D01*
X95145863Y-59585863D01*
X94985182Y-59826339D01*
X94928758Y-60110000D01*
X94928758Y-61810000D01*
X94985182Y-62093661D01*
X95145863Y-62334137D01*
X95323193Y-62452625D01*
X95034499Y-62884685D01*
X94912105Y-63500000D01*
X82871242Y-63500000D01*
X82871242Y-62650000D01*
X82846118Y-62523690D01*
X87415000Y-62523690D01*
X87415000Y-63214250D01*
X87573750Y-63373000D01*
X88773000Y-63373000D01*
X88773000Y-62173750D01*
X89027000Y-62173750D01*
X89027000Y-63373000D01*
X90226250Y-63373000D01*
X90385000Y-63214250D01*
X90385000Y-62523690D01*
X90288327Y-62290301D01*
X90109698Y-62111673D01*
X89876309Y-62015000D01*
X89185750Y-62015000D01*
X89027000Y-62173750D01*
X88773000Y-62173750D01*
X88614250Y-62015000D01*
X87923691Y-62015000D01*
X87690302Y-62111673D01*
X87511673Y-62290301D01*
X87415000Y-62523690D01*
X82846118Y-62523690D01*
X82814818Y-62366339D01*
X82654137Y-62125863D01*
X82413661Y-61965182D01*
X82130000Y-61908758D01*
X80430000Y-61908758D01*
X80146339Y-61965182D01*
X79905863Y-62125863D01*
X79745182Y-62366339D01*
X79688758Y-62650000D01*
X79688758Y-64350000D01*
X79745182Y-64633661D01*
X79905863Y-64874137D01*
X80083193Y-64992625D01*
X79794499Y-65424685D01*
X79672105Y-66040000D01*
X74370000Y-66040000D01*
X74370000Y-54133750D01*
X79795000Y-54133750D01*
X79795000Y-54824310D01*
X79891673Y-55057699D01*
X80070302Y-55236327D01*
X80303691Y-55333000D01*
X80994250Y-55333000D01*
X81153000Y-55174250D01*
X81153000Y-53975000D01*
X81407000Y-53975000D01*
X81407000Y-55174250D01*
X81565750Y-55333000D01*
X82256309Y-55333000D01*
X82489698Y-55236327D01*
X82668327Y-55057699D01*
X82765000Y-54824310D01*
X82765000Y-54133750D01*
X87415000Y-54133750D01*
X87415000Y-54824310D01*
X87511673Y-55057699D01*
X87690302Y-55236327D01*
X87923691Y-55333000D01*
X88614250Y-55333000D01*
X88773000Y-55174250D01*
X88773000Y-53975000D01*
X89027000Y-53975000D01*
X89027000Y-55174250D01*
X89185750Y-55333000D01*
X89876309Y-55333000D01*
X90109698Y-55236327D01*
X90288327Y-55057699D01*
X90385000Y-54824310D01*
X90385000Y-54133750D01*
X95035000Y-54133750D01*
X95035000Y-54824310D01*
X95131673Y-55057699D01*
X95310302Y-55236327D01*
X95543691Y-55333000D01*
X96234250Y-55333000D01*
X96393000Y-55174250D01*
X96393000Y-53975000D01*
X96647000Y-53975000D01*
X96647000Y-55174250D01*
X96805750Y-55333000D01*
X97496309Y-55333000D01*
X97729698Y-55236327D01*
X97908327Y-55057699D01*
X98005000Y-54824310D01*
X98005000Y-54133750D01*
X97846250Y-53975000D01*
X96647000Y-53975000D01*
X96393000Y-53975000D01*
X95193750Y-53975000D01*
X95035000Y-54133750D01*
X90385000Y-54133750D01*
X90226250Y-53975000D01*
X89027000Y-53975000D01*
X88773000Y-53975000D01*
X87573750Y-53975000D01*
X87415000Y-54133750D01*
X82765000Y-54133750D01*
X82606250Y-53975000D01*
X81407000Y-53975000D01*
X81153000Y-53975000D01*
X79953750Y-53975000D01*
X79795000Y-54133750D01*
X74370000Y-54133750D01*
X74370000Y-46228000D01*
X79672105Y-46228000D01*
X79794499Y-46843315D01*
X80143047Y-47364953D01*
X80342166Y-47498000D01*
X80143047Y-47631047D01*
X79794499Y-48152685D01*
X79672105Y-48768000D01*
X79794499Y-49383315D01*
X80143047Y-49904953D01*
X80342166Y-50038000D01*
X80143047Y-50171047D01*
X79794499Y-50692685D01*
X79672105Y-51308000D01*
X79794499Y-51923315D01*
X80134981Y-52432882D01*
X80070302Y-52459673D01*
X79891673Y-52638301D01*
X79795000Y-52871690D01*
X79795000Y-53562250D01*
X79953750Y-53721000D01*
X81153000Y-53721000D01*
X81153000Y-53701000D01*
X81407000Y-53701000D01*
X81407000Y-53721000D01*
X82606250Y-53721000D01*
X82765000Y-53562250D01*
X82765000Y-52871690D01*
X82668327Y-52638301D01*
X82489698Y-52459673D01*
X82425019Y-52432882D01*
X82765501Y-51923315D01*
X82887895Y-51308000D01*
X82765501Y-50692685D01*
X82416953Y-50171047D01*
X82217834Y-50038000D01*
X82416953Y-49904953D01*
X82765501Y-49383315D01*
X82887895Y-48768000D01*
X82765501Y-48152685D01*
X82416953Y-47631047D01*
X82217834Y-47498000D01*
X82416953Y-47364953D01*
X82765501Y-46843315D01*
X82887895Y-46228000D01*
X87292105Y-46228000D01*
X87414499Y-46843315D01*
X87763047Y-47364953D01*
X87962166Y-47498000D01*
X87763047Y-47631047D01*
X87414499Y-48152685D01*
X87292105Y-48768000D01*
X87414499Y-49383315D01*
X87763047Y-49904953D01*
X87962166Y-50038000D01*
X87763047Y-50171047D01*
X87414499Y-50692685D01*
X87292105Y-51308000D01*
X87414499Y-51923315D01*
X87754981Y-52432882D01*
X87690302Y-52459673D01*
X87511673Y-52638301D01*
X87415000Y-52871690D01*
X87415000Y-53562250D01*
X87573750Y-53721000D01*
X88773000Y-53721000D01*
X88773000Y-53701000D01*
X89027000Y-53701000D01*
X89027000Y-53721000D01*
X90226250Y-53721000D01*
X90385000Y-53562250D01*
X90385000Y-52871690D01*
X90288327Y-52638301D01*
X90109698Y-52459673D01*
X90045019Y-52432882D01*
X90385501Y-51923315D01*
X90507895Y-51308000D01*
X90385501Y-50692685D01*
X90036953Y-50171047D01*
X89837834Y-50038000D01*
X90036953Y-49904953D01*
X90385501Y-49383315D01*
X90507895Y-48768000D01*
X90385501Y-48152685D01*
X90036953Y-47631047D01*
X89837834Y-47498000D01*
X90036953Y-47364953D01*
X90385501Y-46843315D01*
X90507895Y-46228000D01*
X94912105Y-46228000D01*
X95034499Y-46843315D01*
X95383047Y-47364953D01*
X95582166Y-47498000D01*
X95383047Y-47631047D01*
X95034499Y-48152685D01*
X94912105Y-48768000D01*
X95034499Y-49383315D01*
X95383047Y-49904953D01*
X95582166Y-50038000D01*
X95383047Y-50171047D01*
X95034499Y-50692685D01*
X94912105Y-51308000D01*
X95034499Y-51923315D01*
X95374981Y-52432882D01*
X95310302Y-52459673D01*
X95131673Y-52638301D01*
X95035000Y-52871690D01*
X95035000Y-53562250D01*
X95193750Y-53721000D01*
X96393000Y-53721000D01*
X96393000Y-53701000D01*
X96647000Y-53701000D01*
X96647000Y-53721000D01*
X97846250Y-53721000D01*
X98005000Y-53562250D01*
X98005000Y-52871690D01*
X97908327Y-52638301D01*
X97729698Y-52459673D01*
X97665019Y-52432882D01*
X98005501Y-51923315D01*
X98127895Y-51308000D01*
X98005501Y-50692685D01*
X97656953Y-50171047D01*
X97457834Y-50038000D01*
X97656953Y-49904953D01*
X98005501Y-49383315D01*
X98127895Y-48768000D01*
X98005501Y-48152685D01*
X97656953Y-47631047D01*
X97457834Y-47498000D01*
X97656953Y-47364953D01*
X98005501Y-46843315D01*
X98127895Y-46228000D01*
X98005501Y-45612685D01*
X97656953Y-45091047D01*
X97135315Y-44742499D01*
X96675319Y-44651000D01*
X96364681Y-44651000D01*
X95904685Y-44742499D01*
X95383047Y-45091047D01*
X95034499Y-45612685D01*
X94912105Y-46228000D01*
X90507895Y-46228000D01*
X90385501Y-45612685D01*
X90036953Y-45091047D01*
X89515315Y-44742499D01*
X89055319Y-44651000D01*
X88744681Y-44651000D01*
X88284685Y-44742499D01*
X87763047Y-45091047D01*
X87414499Y-45612685D01*
X87292105Y-46228000D01*
X82887895Y-46228000D01*
X82765501Y-45612685D01*
X82416953Y-45091047D01*
X81895315Y-44742499D01*
X81435319Y-44651000D01*
X81124681Y-44651000D01*
X80664685Y-44742499D01*
X80143047Y-45091047D01*
X79794499Y-45612685D01*
X79672105Y-46228000D01*
X74370000Y-46228000D01*
X74370000Y-40417750D01*
X89905000Y-40417750D01*
X89905000Y-41158310D01*
X90001673Y-41391699D01*
X90180302Y-41570327D01*
X90413691Y-41667000D01*
X91154250Y-41667000D01*
X91313000Y-41508250D01*
X91313000Y-40259000D01*
X90063750Y-40259000D01*
X89905000Y-40417750D01*
X74370000Y-40417750D01*
X74370000Y-39105690D01*
X89905000Y-39105690D01*
X89905000Y-39846250D01*
X90063750Y-40005000D01*
X91313000Y-40005000D01*
X91313000Y-38755750D01*
X91567000Y-38755750D01*
X91567000Y-40005000D01*
X91587000Y-40005000D01*
X91587000Y-40259000D01*
X91567000Y-40259000D01*
X91567000Y-41508250D01*
X91725750Y-41667000D01*
X92466309Y-41667000D01*
X92699698Y-41570327D01*
X92878327Y-41391699D01*
X92896031Y-41348957D01*
X93058378Y-41511304D01*
X93656370Y-41759000D01*
X94303630Y-41759000D01*
X94901622Y-41511304D01*
X95359304Y-41053622D01*
X95607000Y-40455630D01*
X95607000Y-39808370D01*
X95359304Y-39210378D01*
X94901622Y-38752696D01*
X94303630Y-38505000D01*
X93656370Y-38505000D01*
X93058378Y-38752696D01*
X92896031Y-38915043D01*
X92878327Y-38872301D01*
X92699698Y-38693673D01*
X92466309Y-38597000D01*
X91725750Y-38597000D01*
X91567000Y-38755750D01*
X91313000Y-38755750D01*
X91154250Y-38597000D01*
X90413691Y-38597000D01*
X90180302Y-38693673D01*
X90001673Y-38872301D01*
X89905000Y-39105690D01*
X74370000Y-39105690D01*
X74370000Y-35845750D01*
X84875000Y-35845750D01*
X84875000Y-36536310D01*
X84971673Y-36769699D01*
X85150302Y-36948327D01*
X85383691Y-37045000D01*
X86074250Y-37045000D01*
X86233000Y-36886250D01*
X86233000Y-35687000D01*
X86487000Y-35687000D01*
X86487000Y-36886250D01*
X86645750Y-37045000D01*
X87336309Y-37045000D01*
X87569698Y-36948327D01*
X87748327Y-36769699D01*
X87845000Y-36536310D01*
X87845000Y-35845750D01*
X87686250Y-35687000D01*
X86487000Y-35687000D01*
X86233000Y-35687000D01*
X85033750Y-35687000D01*
X84875000Y-35845750D01*
X74370000Y-35845750D01*
X74370000Y-28747131D01*
X75143000Y-28747131D01*
X75143000Y-29672869D01*
X75497264Y-30528140D01*
X76151860Y-31182736D01*
X77007131Y-31537000D01*
X77932869Y-31537000D01*
X78788140Y-31182736D01*
X79442736Y-30528140D01*
X79797000Y-29672869D01*
X79797000Y-28747131D01*
X79442736Y-27891860D01*
X78788140Y-27237264D01*
X77932869Y-26883000D01*
X77007131Y-26883000D01*
X76151860Y-27237264D01*
X75497264Y-27891860D01*
X75143000Y-28747131D01*
X74370000Y-28747131D01*
X74370000Y-27984666D01*
X74432958Y-27486302D01*
X74601305Y-27061107D01*
X74870101Y-26691142D01*
X75222462Y-26399644D01*
X75636244Y-26204933D01*
X76118662Y-26112907D01*
X76211164Y-26110000D01*
X107978989Y-26110000D01*
X107702047Y-26295047D01*
G04 #@! TD*
M02*
