G04 #@! TF.GenerationSoftware,KiCad,Pcbnew,5.0.2+dfsg1-1*
G04 #@! TF.CreationDate,2021-03-18T17:53:01+01:00*
G04 #@! TF.ProjectId,pico-dev,7069636f-2d64-4657-962e-6b696361645f,rev?*
G04 #@! TF.SameCoordinates,Original*
G04 #@! TF.FileFunction,Soldermask,Bot*
G04 #@! TF.FilePolarity,Negative*
%FSLAX46Y46*%
G04 Gerber Fmt 4.6, Leading zero omitted, Abs format (unit mm)*
G04 Created by KiCad (PCBNEW 5.0.2+dfsg1-1) date jeu. 18 mars 2021 17:53:01 CET*
%MOMM*%
%LPD*%
G01*
G04 APERTURE LIST*
%ADD10C,0.100000*%
G04 APERTURE END LIST*
D10*
G36*
X161806271Y-96737546D02*
X161962410Y-96768604D01*
X162244674Y-96885521D01*
X162498705Y-97055259D01*
X162714741Y-97271295D01*
X162884479Y-97525326D01*
X162926755Y-97627391D01*
X163001396Y-97807591D01*
X163030243Y-97952611D01*
X163061000Y-98107240D01*
X163061000Y-98412760D01*
X163001396Y-98712410D01*
X162884479Y-98994674D01*
X162714741Y-99248705D01*
X162498705Y-99464741D01*
X162244674Y-99634479D01*
X161962410Y-99751396D01*
X161862527Y-99771264D01*
X161662762Y-99811000D01*
X161357238Y-99811000D01*
X161157473Y-99771264D01*
X161057590Y-99751396D01*
X160775326Y-99634479D01*
X160521295Y-99464741D01*
X160305259Y-99248705D01*
X160135521Y-98994674D01*
X160018604Y-98712410D01*
X159959000Y-98412760D01*
X159959000Y-98107240D01*
X159989758Y-97952611D01*
X160018604Y-97807591D01*
X160093245Y-97627391D01*
X160135521Y-97525326D01*
X160305259Y-97271295D01*
X160521295Y-97055259D01*
X160775326Y-96885521D01*
X161057590Y-96768604D01*
X161213729Y-96737546D01*
X161357238Y-96709000D01*
X161662762Y-96709000D01*
X161806271Y-96737546D01*
X161806271Y-96737546D01*
G37*
G36*
X138506271Y-96737546D02*
X138662410Y-96768604D01*
X138944674Y-96885521D01*
X139198705Y-97055259D01*
X139414741Y-97271295D01*
X139584479Y-97525326D01*
X139626755Y-97627391D01*
X139701396Y-97807591D01*
X139730243Y-97952611D01*
X139761000Y-98107240D01*
X139761000Y-98412760D01*
X139701396Y-98712410D01*
X139584479Y-98994674D01*
X139414741Y-99248705D01*
X139198705Y-99464741D01*
X138944674Y-99634479D01*
X138662410Y-99751396D01*
X138562527Y-99771264D01*
X138362762Y-99811000D01*
X138057238Y-99811000D01*
X137857473Y-99771264D01*
X137757590Y-99751396D01*
X137475326Y-99634479D01*
X137221295Y-99464741D01*
X137005259Y-99248705D01*
X136835521Y-98994674D01*
X136718604Y-98712410D01*
X136659000Y-98412760D01*
X136659000Y-98107240D01*
X136689758Y-97952611D01*
X136718604Y-97807591D01*
X136793245Y-97627391D01*
X136835521Y-97525326D01*
X137005259Y-97271295D01*
X137221295Y-97055259D01*
X137475326Y-96885521D01*
X137757590Y-96768604D01*
X137913729Y-96737546D01*
X138057238Y-96709000D01*
X138362762Y-96709000D01*
X138506271Y-96737546D01*
X138506271Y-96737546D01*
G37*
G36*
X169285256Y-96181298D02*
X169391579Y-96202447D01*
X169473512Y-96236385D01*
X169664779Y-96315610D01*
X169692042Y-96326903D01*
X169958852Y-96505180D01*
X169962454Y-96507587D01*
X170192413Y-96737546D01*
X170373098Y-97007960D01*
X170497553Y-97308422D01*
X170561000Y-97627389D01*
X170561000Y-97952611D01*
X170530242Y-98107240D01*
X170497553Y-98271579D01*
X170373097Y-98572042D01*
X170279306Y-98712410D01*
X170192413Y-98842454D01*
X169962454Y-99072413D01*
X169962451Y-99072415D01*
X169692042Y-99253097D01*
X169391579Y-99377553D01*
X169285256Y-99398702D01*
X169072611Y-99441000D01*
X168747389Y-99441000D01*
X168534744Y-99398702D01*
X168428421Y-99377553D01*
X168127958Y-99253097D01*
X167857549Y-99072415D01*
X167857546Y-99072413D01*
X167627587Y-98842454D01*
X167540694Y-98712410D01*
X167446903Y-98572042D01*
X167322447Y-98271579D01*
X167289758Y-98107240D01*
X167259000Y-97952611D01*
X167259000Y-97627389D01*
X167322447Y-97308422D01*
X167446902Y-97007960D01*
X167627587Y-96737546D01*
X167857546Y-96507587D01*
X167861148Y-96505180D01*
X168127958Y-96326903D01*
X168155222Y-96315610D01*
X168346488Y-96236385D01*
X168428421Y-96202447D01*
X168534744Y-96181298D01*
X168747389Y-96139000D01*
X169072611Y-96139000D01*
X169285256Y-96181298D01*
X169285256Y-96181298D01*
G37*
G36*
X77845256Y-96181298D02*
X77951579Y-96202447D01*
X78033512Y-96236385D01*
X78224779Y-96315610D01*
X78252042Y-96326903D01*
X78518852Y-96505180D01*
X78522454Y-96507587D01*
X78752413Y-96737546D01*
X78933098Y-97007960D01*
X79057553Y-97308422D01*
X79121000Y-97627389D01*
X79121000Y-97952611D01*
X79090242Y-98107240D01*
X79057553Y-98271579D01*
X78933097Y-98572042D01*
X78839306Y-98712410D01*
X78752413Y-98842454D01*
X78522454Y-99072413D01*
X78522451Y-99072415D01*
X78252042Y-99253097D01*
X77951579Y-99377553D01*
X77845256Y-99398702D01*
X77632611Y-99441000D01*
X77307389Y-99441000D01*
X77094744Y-99398702D01*
X76988421Y-99377553D01*
X76687958Y-99253097D01*
X76417549Y-99072415D01*
X76417546Y-99072413D01*
X76187587Y-98842454D01*
X76100694Y-98712410D01*
X76006903Y-98572042D01*
X75882447Y-98271579D01*
X75849758Y-98107240D01*
X75819000Y-97952611D01*
X75819000Y-97627389D01*
X75882447Y-97308422D01*
X76006902Y-97007960D01*
X76187587Y-96737546D01*
X76417546Y-96507587D01*
X76421148Y-96505180D01*
X76687958Y-96326903D01*
X76715222Y-96315610D01*
X76906488Y-96236385D01*
X76988421Y-96202447D01*
X77094744Y-96181298D01*
X77307389Y-96139000D01*
X77632611Y-96139000D01*
X77845256Y-96181298D01*
X77845256Y-96181298D01*
G37*
G36*
X103176565Y-94294389D02*
X103367834Y-94373615D01*
X103539976Y-94488637D01*
X103686363Y-94635024D01*
X103801385Y-94807166D01*
X103880611Y-94998435D01*
X103921000Y-95201484D01*
X103921000Y-95408516D01*
X103880611Y-95611565D01*
X103801385Y-95802834D01*
X103686363Y-95974976D01*
X103539976Y-96121363D01*
X103367834Y-96236385D01*
X103176565Y-96315611D01*
X102973516Y-96356000D01*
X102766484Y-96356000D01*
X102563435Y-96315611D01*
X102372166Y-96236385D01*
X102200024Y-96121363D01*
X102053637Y-95974976D01*
X101938615Y-95802834D01*
X101859389Y-95611565D01*
X101819000Y-95408516D01*
X101819000Y-95201484D01*
X101859389Y-94998435D01*
X101938615Y-94807166D01*
X102053637Y-94635024D01*
X102200024Y-94488637D01*
X102372166Y-94373615D01*
X102563435Y-94294389D01*
X102766484Y-94254000D01*
X102973516Y-94254000D01*
X103176565Y-94294389D01*
X103176565Y-94294389D01*
G37*
G36*
X109676565Y-94294389D02*
X109867834Y-94373615D01*
X110039976Y-94488637D01*
X110186363Y-94635024D01*
X110301385Y-94807166D01*
X110380611Y-94998435D01*
X110421000Y-95201484D01*
X110421000Y-95408516D01*
X110380611Y-95611565D01*
X110301385Y-95802834D01*
X110186363Y-95974976D01*
X110039976Y-96121363D01*
X109867834Y-96236385D01*
X109676565Y-96315611D01*
X109473516Y-96356000D01*
X109266484Y-96356000D01*
X109063435Y-96315611D01*
X108872166Y-96236385D01*
X108700024Y-96121363D01*
X108553637Y-95974976D01*
X108438615Y-95802834D01*
X108359389Y-95611565D01*
X108319000Y-95408516D01*
X108319000Y-95201484D01*
X108359389Y-94998435D01*
X108438615Y-94807166D01*
X108553637Y-94635024D01*
X108700024Y-94488637D01*
X108872166Y-94373615D01*
X109063435Y-94294389D01*
X109266484Y-94254000D01*
X109473516Y-94254000D01*
X109676565Y-94294389D01*
X109676565Y-94294389D01*
G37*
G36*
X93166565Y-94294389D02*
X93357834Y-94373615D01*
X93529976Y-94488637D01*
X93676363Y-94635024D01*
X93791385Y-94807166D01*
X93870611Y-94998435D01*
X93911000Y-95201484D01*
X93911000Y-95408516D01*
X93870611Y-95611565D01*
X93791385Y-95802834D01*
X93676363Y-95974976D01*
X93529976Y-96121363D01*
X93357834Y-96236385D01*
X93166565Y-96315611D01*
X92963516Y-96356000D01*
X92756484Y-96356000D01*
X92553435Y-96315611D01*
X92362166Y-96236385D01*
X92190024Y-96121363D01*
X92043637Y-95974976D01*
X91928615Y-95802834D01*
X91849389Y-95611565D01*
X91809000Y-95408516D01*
X91809000Y-95201484D01*
X91849389Y-94998435D01*
X91928615Y-94807166D01*
X92043637Y-94635024D01*
X92190024Y-94488637D01*
X92362166Y-94373615D01*
X92553435Y-94294389D01*
X92756484Y-94254000D01*
X92963516Y-94254000D01*
X93166565Y-94294389D01*
X93166565Y-94294389D01*
G37*
G36*
X86666565Y-94294389D02*
X86857834Y-94373615D01*
X87029976Y-94488637D01*
X87176363Y-94635024D01*
X87291385Y-94807166D01*
X87370611Y-94998435D01*
X87411000Y-95201484D01*
X87411000Y-95408516D01*
X87370611Y-95611565D01*
X87291385Y-95802834D01*
X87176363Y-95974976D01*
X87029976Y-96121363D01*
X86857834Y-96236385D01*
X86666565Y-96315611D01*
X86463516Y-96356000D01*
X86256484Y-96356000D01*
X86053435Y-96315611D01*
X85862166Y-96236385D01*
X85690024Y-96121363D01*
X85543637Y-95974976D01*
X85428615Y-95802834D01*
X85349389Y-95611565D01*
X85309000Y-95408516D01*
X85309000Y-95201484D01*
X85349389Y-94998435D01*
X85428615Y-94807166D01*
X85543637Y-94635024D01*
X85690024Y-94488637D01*
X85862166Y-94373615D01*
X86053435Y-94294389D01*
X86256484Y-94254000D01*
X86463516Y-94254000D01*
X86666565Y-94294389D01*
X86666565Y-94294389D01*
G37*
G36*
X103176565Y-89794389D02*
X103367834Y-89873615D01*
X103539976Y-89988637D01*
X103686363Y-90135024D01*
X103801385Y-90307166D01*
X103880611Y-90498435D01*
X103921000Y-90701484D01*
X103921000Y-90908516D01*
X103880611Y-91111565D01*
X103801385Y-91302834D01*
X103686363Y-91474976D01*
X103539976Y-91621363D01*
X103367834Y-91736385D01*
X103176565Y-91815611D01*
X102973516Y-91856000D01*
X102766484Y-91856000D01*
X102563435Y-91815611D01*
X102372166Y-91736385D01*
X102200024Y-91621363D01*
X102053637Y-91474976D01*
X101938615Y-91302834D01*
X101859389Y-91111565D01*
X101819000Y-90908516D01*
X101819000Y-90701484D01*
X101859389Y-90498435D01*
X101938615Y-90307166D01*
X102053637Y-90135024D01*
X102200024Y-89988637D01*
X102372166Y-89873615D01*
X102563435Y-89794389D01*
X102766484Y-89754000D01*
X102973516Y-89754000D01*
X103176565Y-89794389D01*
X103176565Y-89794389D01*
G37*
G36*
X109676565Y-89794389D02*
X109867834Y-89873615D01*
X110039976Y-89988637D01*
X110186363Y-90135024D01*
X110301385Y-90307166D01*
X110380611Y-90498435D01*
X110421000Y-90701484D01*
X110421000Y-90908516D01*
X110380611Y-91111565D01*
X110301385Y-91302834D01*
X110186363Y-91474976D01*
X110039976Y-91621363D01*
X109867834Y-91736385D01*
X109676565Y-91815611D01*
X109473516Y-91856000D01*
X109266484Y-91856000D01*
X109063435Y-91815611D01*
X108872166Y-91736385D01*
X108700024Y-91621363D01*
X108553637Y-91474976D01*
X108438615Y-91302834D01*
X108359389Y-91111565D01*
X108319000Y-90908516D01*
X108319000Y-90701484D01*
X108359389Y-90498435D01*
X108438615Y-90307166D01*
X108553637Y-90135024D01*
X108700024Y-89988637D01*
X108872166Y-89873615D01*
X109063435Y-89794389D01*
X109266484Y-89754000D01*
X109473516Y-89754000D01*
X109676565Y-89794389D01*
X109676565Y-89794389D01*
G37*
G36*
X86666565Y-89794389D02*
X86857834Y-89873615D01*
X87029976Y-89988637D01*
X87176363Y-90135024D01*
X87291385Y-90307166D01*
X87370611Y-90498435D01*
X87411000Y-90701484D01*
X87411000Y-90908516D01*
X87370611Y-91111565D01*
X87291385Y-91302834D01*
X87176363Y-91474976D01*
X87029976Y-91621363D01*
X86857834Y-91736385D01*
X86666565Y-91815611D01*
X86463516Y-91856000D01*
X86256484Y-91856000D01*
X86053435Y-91815611D01*
X85862166Y-91736385D01*
X85690024Y-91621363D01*
X85543637Y-91474976D01*
X85428615Y-91302834D01*
X85349389Y-91111565D01*
X85309000Y-90908516D01*
X85309000Y-90701484D01*
X85349389Y-90498435D01*
X85428615Y-90307166D01*
X85543637Y-90135024D01*
X85690024Y-89988637D01*
X85862166Y-89873615D01*
X86053435Y-89794389D01*
X86256484Y-89754000D01*
X86463516Y-89754000D01*
X86666565Y-89794389D01*
X86666565Y-89794389D01*
G37*
G36*
X93166565Y-89794389D02*
X93357834Y-89873615D01*
X93529976Y-89988637D01*
X93676363Y-90135024D01*
X93791385Y-90307166D01*
X93870611Y-90498435D01*
X93911000Y-90701484D01*
X93911000Y-90908516D01*
X93870611Y-91111565D01*
X93791385Y-91302834D01*
X93676363Y-91474976D01*
X93529976Y-91621363D01*
X93357834Y-91736385D01*
X93166565Y-91815611D01*
X92963516Y-91856000D01*
X92756484Y-91856000D01*
X92553435Y-91815611D01*
X92362166Y-91736385D01*
X92190024Y-91621363D01*
X92043637Y-91474976D01*
X91928615Y-91302834D01*
X91849389Y-91111565D01*
X91809000Y-90908516D01*
X91809000Y-90701484D01*
X91849389Y-90498435D01*
X91928615Y-90307166D01*
X92043637Y-90135024D01*
X92190024Y-89988637D01*
X92362166Y-89873615D01*
X92553435Y-89794389D01*
X92756484Y-89754000D01*
X92963516Y-89754000D01*
X93166565Y-89794389D01*
X93166565Y-89794389D01*
G37*
G36*
X127593042Y-88767518D02*
X127659227Y-88774037D01*
X127772453Y-88808384D01*
X127829067Y-88825557D01*
X127967687Y-88899652D01*
X127985591Y-88909222D01*
X128021329Y-88938552D01*
X128122786Y-89021814D01*
X128206048Y-89123271D01*
X128235378Y-89159009D01*
X128235379Y-89159011D01*
X128319043Y-89315533D01*
X128319043Y-89315534D01*
X128370563Y-89485373D01*
X128387959Y-89662000D01*
X128370563Y-89838627D01*
X128359949Y-89873616D01*
X128319043Y-90008467D01*
X128251396Y-90135024D01*
X128235378Y-90164991D01*
X128206048Y-90200729D01*
X128122786Y-90302186D01*
X128021329Y-90385448D01*
X127985591Y-90414778D01*
X127985589Y-90414779D01*
X127829067Y-90498443D01*
X127772453Y-90515616D01*
X127659227Y-90549963D01*
X127593042Y-90556482D01*
X127526860Y-90563000D01*
X127438340Y-90563000D01*
X127372158Y-90556482D01*
X127305973Y-90549963D01*
X127192747Y-90515616D01*
X127136133Y-90498443D01*
X126979611Y-90414779D01*
X126979609Y-90414778D01*
X126943871Y-90385448D01*
X126842414Y-90302186D01*
X126759152Y-90200729D01*
X126729822Y-90164991D01*
X126713804Y-90135024D01*
X126646157Y-90008467D01*
X126605251Y-89873616D01*
X126594637Y-89838627D01*
X126577241Y-89662000D01*
X126594637Y-89485373D01*
X126646157Y-89315534D01*
X126646157Y-89315533D01*
X126729821Y-89159011D01*
X126729822Y-89159009D01*
X126759152Y-89123271D01*
X126842414Y-89021814D01*
X126943871Y-88938552D01*
X126979609Y-88909222D01*
X126997513Y-88899652D01*
X127136133Y-88825557D01*
X127192747Y-88808384D01*
X127305973Y-88774037D01*
X127372158Y-88767518D01*
X127438340Y-88761000D01*
X127526860Y-88761000D01*
X127593042Y-88767518D01*
X127593042Y-88767518D01*
G37*
G36*
X125053042Y-88767518D02*
X125119227Y-88774037D01*
X125232453Y-88808384D01*
X125289067Y-88825557D01*
X125427687Y-88899652D01*
X125445591Y-88909222D01*
X125481329Y-88938552D01*
X125582786Y-89021814D01*
X125666048Y-89123271D01*
X125695378Y-89159009D01*
X125695379Y-89159011D01*
X125779043Y-89315533D01*
X125779043Y-89315534D01*
X125830563Y-89485373D01*
X125847959Y-89662000D01*
X125830563Y-89838627D01*
X125819949Y-89873616D01*
X125779043Y-90008467D01*
X125711396Y-90135024D01*
X125695378Y-90164991D01*
X125666048Y-90200729D01*
X125582786Y-90302186D01*
X125481329Y-90385448D01*
X125445591Y-90414778D01*
X125445589Y-90414779D01*
X125289067Y-90498443D01*
X125232453Y-90515616D01*
X125119227Y-90549963D01*
X125053042Y-90556482D01*
X124986860Y-90563000D01*
X124898340Y-90563000D01*
X124832158Y-90556482D01*
X124765973Y-90549963D01*
X124652747Y-90515616D01*
X124596133Y-90498443D01*
X124439611Y-90414779D01*
X124439609Y-90414778D01*
X124403871Y-90385448D01*
X124302414Y-90302186D01*
X124219152Y-90200729D01*
X124189822Y-90164991D01*
X124173804Y-90135024D01*
X124106157Y-90008467D01*
X124065251Y-89873616D01*
X124054637Y-89838627D01*
X124037241Y-89662000D01*
X124054637Y-89485373D01*
X124106157Y-89315534D01*
X124106157Y-89315533D01*
X124189821Y-89159011D01*
X124189822Y-89159009D01*
X124219152Y-89123271D01*
X124302414Y-89021814D01*
X124403871Y-88938552D01*
X124439609Y-88909222D01*
X124457513Y-88899652D01*
X124596133Y-88825557D01*
X124652747Y-88808384D01*
X124765973Y-88774037D01*
X124832158Y-88767518D01*
X124898340Y-88761000D01*
X124986860Y-88761000D01*
X125053042Y-88767518D01*
X125053042Y-88767518D01*
G37*
G36*
X122513042Y-88767518D02*
X122579227Y-88774037D01*
X122692453Y-88808384D01*
X122749067Y-88825557D01*
X122887687Y-88899652D01*
X122905591Y-88909222D01*
X122941329Y-88938552D01*
X123042786Y-89021814D01*
X123126048Y-89123271D01*
X123155378Y-89159009D01*
X123155379Y-89159011D01*
X123239043Y-89315533D01*
X123239043Y-89315534D01*
X123290563Y-89485373D01*
X123307959Y-89662000D01*
X123290563Y-89838627D01*
X123279949Y-89873616D01*
X123239043Y-90008467D01*
X123171396Y-90135024D01*
X123155378Y-90164991D01*
X123126048Y-90200729D01*
X123042786Y-90302186D01*
X122941329Y-90385448D01*
X122905591Y-90414778D01*
X122905589Y-90414779D01*
X122749067Y-90498443D01*
X122692453Y-90515616D01*
X122579227Y-90549963D01*
X122513042Y-90556482D01*
X122446860Y-90563000D01*
X122358340Y-90563000D01*
X122292158Y-90556482D01*
X122225973Y-90549963D01*
X122112747Y-90515616D01*
X122056133Y-90498443D01*
X121899611Y-90414779D01*
X121899609Y-90414778D01*
X121863871Y-90385448D01*
X121762414Y-90302186D01*
X121679152Y-90200729D01*
X121649822Y-90164991D01*
X121633804Y-90135024D01*
X121566157Y-90008467D01*
X121525251Y-89873616D01*
X121514637Y-89838627D01*
X121497241Y-89662000D01*
X121514637Y-89485373D01*
X121566157Y-89315534D01*
X121566157Y-89315533D01*
X121649821Y-89159011D01*
X121649822Y-89159009D01*
X121679152Y-89123271D01*
X121762414Y-89021814D01*
X121863871Y-88938552D01*
X121899609Y-88909222D01*
X121917513Y-88899652D01*
X122056133Y-88825557D01*
X122112747Y-88808384D01*
X122225973Y-88774037D01*
X122292158Y-88767518D01*
X122358340Y-88761000D01*
X122446860Y-88761000D01*
X122513042Y-88767518D01*
X122513042Y-88767518D01*
G37*
G36*
X120763600Y-90563000D02*
X118961600Y-90563000D01*
X118961600Y-88761000D01*
X120763600Y-88761000D01*
X120763600Y-90563000D01*
X120763600Y-90563000D01*
G37*
G36*
X98292228Y-83977703D02*
X98447100Y-84041853D01*
X98586481Y-84134985D01*
X98705015Y-84253519D01*
X98798147Y-84392900D01*
X98862297Y-84547772D01*
X98895000Y-84712184D01*
X98895000Y-84879816D01*
X98862297Y-85044228D01*
X98798147Y-85199100D01*
X98705015Y-85338481D01*
X98586481Y-85457015D01*
X98447100Y-85550147D01*
X98292228Y-85614297D01*
X98127816Y-85647000D01*
X97960184Y-85647000D01*
X97795772Y-85614297D01*
X97640900Y-85550147D01*
X97501519Y-85457015D01*
X97382985Y-85338481D01*
X97289853Y-85199100D01*
X97225703Y-85044228D01*
X97193000Y-84879816D01*
X97193000Y-84712184D01*
X97225703Y-84547772D01*
X97289853Y-84392900D01*
X97382985Y-84253519D01*
X97501519Y-84134985D01*
X97640900Y-84041853D01*
X97795772Y-83977703D01*
X97960184Y-83945000D01*
X98127816Y-83945000D01*
X98292228Y-83977703D01*
X98292228Y-83977703D01*
G37*
G36*
X82181000Y-83451000D02*
X80379000Y-83451000D01*
X80379000Y-81649000D01*
X82181000Y-81649000D01*
X82181000Y-83451000D01*
X82181000Y-83451000D01*
G37*
G36*
X98895000Y-83147000D02*
X97193000Y-83147000D01*
X97193000Y-81445000D01*
X98895000Y-81445000D01*
X98895000Y-83147000D01*
X98895000Y-83147000D01*
G37*
G36*
X81390443Y-79115519D02*
X81456627Y-79122037D01*
X81569853Y-79156384D01*
X81626467Y-79173557D01*
X81765087Y-79247652D01*
X81782991Y-79257222D01*
X81818729Y-79286552D01*
X81920186Y-79369814D01*
X82003448Y-79471271D01*
X82032778Y-79507009D01*
X82032779Y-79507011D01*
X82116443Y-79663533D01*
X82116443Y-79663534D01*
X82167963Y-79833373D01*
X82185359Y-80010000D01*
X82167963Y-80186627D01*
X82133616Y-80299853D01*
X82116443Y-80356467D01*
X82042348Y-80495087D01*
X82032778Y-80512991D01*
X82003448Y-80548729D01*
X81920186Y-80650186D01*
X81818729Y-80733448D01*
X81782991Y-80762778D01*
X81782989Y-80762779D01*
X81626467Y-80846443D01*
X81569853Y-80863616D01*
X81456627Y-80897963D01*
X81390442Y-80904482D01*
X81324260Y-80911000D01*
X81235740Y-80911000D01*
X81169558Y-80904482D01*
X81103373Y-80897963D01*
X80990147Y-80863616D01*
X80933533Y-80846443D01*
X80777011Y-80762779D01*
X80777009Y-80762778D01*
X80741271Y-80733448D01*
X80639814Y-80650186D01*
X80556552Y-80548729D01*
X80527222Y-80512991D01*
X80517652Y-80495087D01*
X80443557Y-80356467D01*
X80426384Y-80299853D01*
X80392037Y-80186627D01*
X80374641Y-80010000D01*
X80392037Y-79833373D01*
X80443557Y-79663534D01*
X80443557Y-79663533D01*
X80527221Y-79507011D01*
X80527222Y-79507009D01*
X80556552Y-79471271D01*
X80639814Y-79369814D01*
X80741271Y-79286552D01*
X80777009Y-79257222D01*
X80794913Y-79247652D01*
X80933533Y-79173557D01*
X80990147Y-79156384D01*
X81103373Y-79122037D01*
X81169557Y-79115519D01*
X81235740Y-79109000D01*
X81324260Y-79109000D01*
X81390443Y-79115519D01*
X81390443Y-79115519D01*
G37*
G36*
X81390443Y-76575519D02*
X81456627Y-76582037D01*
X81569853Y-76616384D01*
X81626467Y-76633557D01*
X81765087Y-76707652D01*
X81782991Y-76717222D01*
X81818729Y-76746552D01*
X81920186Y-76829814D01*
X82003448Y-76931271D01*
X82032778Y-76967009D01*
X82032779Y-76967011D01*
X82116443Y-77123533D01*
X82116443Y-77123534D01*
X82167963Y-77293373D01*
X82185359Y-77470000D01*
X82167963Y-77646627D01*
X82133616Y-77759853D01*
X82116443Y-77816467D01*
X82042348Y-77955087D01*
X82032778Y-77972991D01*
X82003448Y-78008729D01*
X81920186Y-78110186D01*
X81818729Y-78193448D01*
X81782991Y-78222778D01*
X81782989Y-78222779D01*
X81626467Y-78306443D01*
X81569853Y-78323616D01*
X81456627Y-78357963D01*
X81390443Y-78364481D01*
X81324260Y-78371000D01*
X81235740Y-78371000D01*
X81169557Y-78364481D01*
X81103373Y-78357963D01*
X80990147Y-78323616D01*
X80933533Y-78306443D01*
X80777011Y-78222779D01*
X80777009Y-78222778D01*
X80741271Y-78193448D01*
X80639814Y-78110186D01*
X80556552Y-78008729D01*
X80527222Y-77972991D01*
X80517652Y-77955087D01*
X80443557Y-77816467D01*
X80426384Y-77759853D01*
X80392037Y-77646627D01*
X80374641Y-77470000D01*
X80392037Y-77293373D01*
X80443557Y-77123534D01*
X80443557Y-77123533D01*
X80527221Y-76967011D01*
X80527222Y-76967009D01*
X80556552Y-76931271D01*
X80639814Y-76829814D01*
X80741271Y-76746552D01*
X80777009Y-76717222D01*
X80794913Y-76707652D01*
X80933533Y-76633557D01*
X80990147Y-76616384D01*
X81103373Y-76582037D01*
X81169557Y-76575519D01*
X81235740Y-76569000D01*
X81324260Y-76569000D01*
X81390443Y-76575519D01*
X81390443Y-76575519D01*
G37*
G36*
X126729442Y-74797518D02*
X126795627Y-74804037D01*
X126908853Y-74838384D01*
X126965467Y-74855557D01*
X127071828Y-74912409D01*
X127121991Y-74939222D01*
X127146101Y-74959009D01*
X127259186Y-75051814D01*
X127342448Y-75153271D01*
X127371778Y-75189009D01*
X127371779Y-75189011D01*
X127455443Y-75345533D01*
X127455443Y-75345534D01*
X127506963Y-75515373D01*
X127524359Y-75692000D01*
X127506963Y-75868627D01*
X127481855Y-75951396D01*
X127455443Y-76038467D01*
X127421384Y-76102186D01*
X127371778Y-76194991D01*
X127355539Y-76214778D01*
X127259186Y-76332186D01*
X127157729Y-76415448D01*
X127121991Y-76444778D01*
X127121989Y-76444779D01*
X126965467Y-76528443D01*
X126908853Y-76545616D01*
X126795627Y-76579963D01*
X126729443Y-76586481D01*
X126663260Y-76593000D01*
X126574740Y-76593000D01*
X126508557Y-76586481D01*
X126442373Y-76579963D01*
X126329147Y-76545616D01*
X126272533Y-76528443D01*
X126116011Y-76444779D01*
X126116009Y-76444778D01*
X126080271Y-76415448D01*
X125978814Y-76332186D01*
X125882461Y-76214778D01*
X125866222Y-76194991D01*
X125816616Y-76102186D01*
X125782557Y-76038467D01*
X125756145Y-75951396D01*
X125731037Y-75868627D01*
X125713641Y-75692000D01*
X125731037Y-75515373D01*
X125782557Y-75345534D01*
X125782557Y-75345533D01*
X125866221Y-75189011D01*
X125866222Y-75189009D01*
X125895552Y-75153271D01*
X125978814Y-75051814D01*
X126091899Y-74959009D01*
X126116009Y-74939222D01*
X126166172Y-74912409D01*
X126272533Y-74855557D01*
X126329147Y-74838384D01*
X126442373Y-74804037D01*
X126508558Y-74797518D01*
X126574740Y-74791000D01*
X126663260Y-74791000D01*
X126729442Y-74797518D01*
X126729442Y-74797518D01*
G37*
G36*
X108949442Y-74797518D02*
X109015627Y-74804037D01*
X109128853Y-74838384D01*
X109185467Y-74855557D01*
X109291828Y-74912409D01*
X109341991Y-74939222D01*
X109366101Y-74959009D01*
X109479186Y-75051814D01*
X109562448Y-75153271D01*
X109591778Y-75189009D01*
X109591779Y-75189011D01*
X109675443Y-75345533D01*
X109675443Y-75345534D01*
X109726963Y-75515373D01*
X109744359Y-75692000D01*
X109726963Y-75868627D01*
X109701855Y-75951396D01*
X109675443Y-76038467D01*
X109641384Y-76102186D01*
X109591778Y-76194991D01*
X109575539Y-76214778D01*
X109479186Y-76332186D01*
X109377729Y-76415448D01*
X109341991Y-76444778D01*
X109341989Y-76444779D01*
X109185467Y-76528443D01*
X109128853Y-76545616D01*
X109015627Y-76579963D01*
X108949443Y-76586481D01*
X108883260Y-76593000D01*
X108794740Y-76593000D01*
X108728557Y-76586481D01*
X108662373Y-76579963D01*
X108549147Y-76545616D01*
X108492533Y-76528443D01*
X108336011Y-76444779D01*
X108336009Y-76444778D01*
X108300271Y-76415448D01*
X108198814Y-76332186D01*
X108102461Y-76214778D01*
X108086222Y-76194991D01*
X108036616Y-76102186D01*
X108002557Y-76038467D01*
X107976145Y-75951396D01*
X107951037Y-75868627D01*
X107933641Y-75692000D01*
X107951037Y-75515373D01*
X108002557Y-75345534D01*
X108002557Y-75345533D01*
X108086221Y-75189011D01*
X108086222Y-75189009D01*
X108115552Y-75153271D01*
X108198814Y-75051814D01*
X108311899Y-74959009D01*
X108336009Y-74939222D01*
X108386172Y-74912409D01*
X108492533Y-74855557D01*
X108549147Y-74838384D01*
X108662373Y-74804037D01*
X108728558Y-74797518D01*
X108794740Y-74791000D01*
X108883260Y-74791000D01*
X108949442Y-74797518D01*
X108949442Y-74797518D01*
G37*
G36*
X115299443Y-74567519D02*
X115365627Y-74574037D01*
X115478853Y-74608384D01*
X115535467Y-74625557D01*
X115599629Y-74659853D01*
X115691991Y-74709222D01*
X115727729Y-74738552D01*
X115829186Y-74821814D01*
X115903534Y-74912409D01*
X115941778Y-74959009D01*
X115941779Y-74959011D01*
X116025443Y-75115533D01*
X116025443Y-75115534D01*
X116076963Y-75285373D01*
X116094359Y-75462000D01*
X116076963Y-75638627D01*
X116042616Y-75751853D01*
X116025443Y-75808467D01*
X116011539Y-75834479D01*
X115941778Y-75964991D01*
X115912448Y-76000729D01*
X115829186Y-76102186D01*
X115727729Y-76185448D01*
X115691991Y-76214778D01*
X115691989Y-76214779D01*
X115535467Y-76298443D01*
X115478853Y-76315616D01*
X115365627Y-76349963D01*
X115299443Y-76356481D01*
X115233260Y-76363000D01*
X115144740Y-76363000D01*
X115078557Y-76356481D01*
X115012373Y-76349963D01*
X114899147Y-76315616D01*
X114842533Y-76298443D01*
X114686011Y-76214779D01*
X114686009Y-76214778D01*
X114650271Y-76185448D01*
X114548814Y-76102186D01*
X114465552Y-76000729D01*
X114436222Y-75964991D01*
X114366461Y-75834479D01*
X114352557Y-75808467D01*
X114335384Y-75751853D01*
X114301037Y-75638627D01*
X114283641Y-75462000D01*
X114301037Y-75285373D01*
X114352557Y-75115534D01*
X114352557Y-75115533D01*
X114436221Y-74959011D01*
X114436222Y-74959009D01*
X114474466Y-74912409D01*
X114548814Y-74821814D01*
X114650271Y-74738552D01*
X114686009Y-74709222D01*
X114778371Y-74659853D01*
X114842533Y-74625557D01*
X114899147Y-74608384D01*
X115012373Y-74574037D01*
X115078557Y-74567519D01*
X115144740Y-74561000D01*
X115233260Y-74561000D01*
X115299443Y-74567519D01*
X115299443Y-74567519D01*
G37*
G36*
X118630000Y-76363000D02*
X116828000Y-76363000D01*
X116828000Y-74561000D01*
X118630000Y-74561000D01*
X118630000Y-76363000D01*
X118630000Y-76363000D01*
G37*
G36*
X120379443Y-74567519D02*
X120445627Y-74574037D01*
X120558853Y-74608384D01*
X120615467Y-74625557D01*
X120679629Y-74659853D01*
X120771991Y-74709222D01*
X120807729Y-74738552D01*
X120909186Y-74821814D01*
X120983534Y-74912409D01*
X121021778Y-74959009D01*
X121021779Y-74959011D01*
X121105443Y-75115533D01*
X121105443Y-75115534D01*
X121156963Y-75285373D01*
X121174359Y-75462000D01*
X121156963Y-75638627D01*
X121122616Y-75751853D01*
X121105443Y-75808467D01*
X121091539Y-75834479D01*
X121021778Y-75964991D01*
X120992448Y-76000729D01*
X120909186Y-76102186D01*
X120807729Y-76185448D01*
X120771991Y-76214778D01*
X120771989Y-76214779D01*
X120615467Y-76298443D01*
X120558853Y-76315616D01*
X120445627Y-76349963D01*
X120379443Y-76356481D01*
X120313260Y-76363000D01*
X120224740Y-76363000D01*
X120158557Y-76356481D01*
X120092373Y-76349963D01*
X119979147Y-76315616D01*
X119922533Y-76298443D01*
X119766011Y-76214779D01*
X119766009Y-76214778D01*
X119730271Y-76185448D01*
X119628814Y-76102186D01*
X119545552Y-76000729D01*
X119516222Y-75964991D01*
X119446461Y-75834479D01*
X119432557Y-75808467D01*
X119415384Y-75751853D01*
X119381037Y-75638627D01*
X119363641Y-75462000D01*
X119381037Y-75285373D01*
X119432557Y-75115534D01*
X119432557Y-75115533D01*
X119516221Y-74959011D01*
X119516222Y-74959009D01*
X119554466Y-74912409D01*
X119628814Y-74821814D01*
X119730271Y-74738552D01*
X119766009Y-74709222D01*
X119858371Y-74659853D01*
X119922533Y-74625557D01*
X119979147Y-74608384D01*
X120092373Y-74574037D01*
X120158557Y-74567519D01*
X120224740Y-74561000D01*
X120313260Y-74561000D01*
X120379443Y-74567519D01*
X120379443Y-74567519D01*
G37*
G36*
X161862527Y-72948736D02*
X161962410Y-72968604D01*
X162244674Y-73085521D01*
X162498705Y-73255259D01*
X162714741Y-73471295D01*
X162884479Y-73725326D01*
X163001396Y-74007590D01*
X163021264Y-74107473D01*
X163061000Y-74307238D01*
X163061000Y-74612762D01*
X163051633Y-74659853D01*
X163001396Y-74912410D01*
X162884479Y-75194674D01*
X162714741Y-75448705D01*
X162498705Y-75664741D01*
X162244674Y-75834479D01*
X161962410Y-75951396D01*
X161894073Y-75964989D01*
X161662762Y-76011000D01*
X161357238Y-76011000D01*
X161125927Y-75964989D01*
X161057590Y-75951396D01*
X160775326Y-75834479D01*
X160521295Y-75664741D01*
X160305259Y-75448705D01*
X160135521Y-75194674D01*
X160018604Y-74912410D01*
X159968367Y-74659853D01*
X159959000Y-74612762D01*
X159959000Y-74307238D01*
X159998736Y-74107473D01*
X160018604Y-74007590D01*
X160135521Y-73725326D01*
X160305259Y-73471295D01*
X160521295Y-73255259D01*
X160775326Y-73085521D01*
X161057590Y-72968604D01*
X161157473Y-72948736D01*
X161357238Y-72909000D01*
X161662762Y-72909000D01*
X161862527Y-72948736D01*
X161862527Y-72948736D01*
G37*
G36*
X138562527Y-72948736D02*
X138662410Y-72968604D01*
X138944674Y-73085521D01*
X139198705Y-73255259D01*
X139414741Y-73471295D01*
X139584479Y-73725326D01*
X139701396Y-74007590D01*
X139721264Y-74107473D01*
X139761000Y-74307238D01*
X139761000Y-74612762D01*
X139751633Y-74659853D01*
X139701396Y-74912410D01*
X139584479Y-75194674D01*
X139414741Y-75448705D01*
X139198705Y-75664741D01*
X138944674Y-75834479D01*
X138662410Y-75951396D01*
X138594073Y-75964989D01*
X138362762Y-76011000D01*
X138057238Y-76011000D01*
X137825927Y-75964989D01*
X137757590Y-75951396D01*
X137475326Y-75834479D01*
X137221295Y-75664741D01*
X137005259Y-75448705D01*
X136835521Y-75194674D01*
X136718604Y-74912410D01*
X136668367Y-74659853D01*
X136659000Y-74612762D01*
X136659000Y-74307238D01*
X136698736Y-74107473D01*
X136718604Y-74007590D01*
X136835521Y-73725326D01*
X137005259Y-73471295D01*
X137221295Y-73255259D01*
X137475326Y-73085521D01*
X137757590Y-72968604D01*
X137857473Y-72948736D01*
X138057238Y-72909000D01*
X138362762Y-72909000D01*
X138562527Y-72948736D01*
X138562527Y-72948736D01*
G37*
G36*
X146951000Y-74861000D02*
X145149000Y-74861000D01*
X145149000Y-73059000D01*
X146951000Y-73059000D01*
X146951000Y-74861000D01*
X146951000Y-74861000D01*
G37*
G36*
X151392812Y-73093624D02*
X151556784Y-73161544D01*
X151704354Y-73260147D01*
X151829853Y-73385646D01*
X151928456Y-73533216D01*
X151996376Y-73697188D01*
X152031000Y-73871259D01*
X152031000Y-74048741D01*
X151996376Y-74222812D01*
X151928456Y-74386784D01*
X151829853Y-74534354D01*
X151704354Y-74659853D01*
X151556784Y-74758456D01*
X151392812Y-74826376D01*
X151218741Y-74861000D01*
X151041259Y-74861000D01*
X150867188Y-74826376D01*
X150703216Y-74758456D01*
X150555646Y-74659853D01*
X150430147Y-74534354D01*
X150331544Y-74386784D01*
X150263624Y-74222812D01*
X150229000Y-74048741D01*
X150229000Y-73871259D01*
X150263624Y-73697188D01*
X150331544Y-73533216D01*
X150430147Y-73385646D01*
X150555646Y-73260147D01*
X150703216Y-73161544D01*
X150867188Y-73093624D01*
X151041259Y-73059000D01*
X151218741Y-73059000D01*
X151392812Y-73093624D01*
X151392812Y-73093624D01*
G37*
G36*
X153932812Y-73093624D02*
X154096784Y-73161544D01*
X154244354Y-73260147D01*
X154369853Y-73385646D01*
X154468456Y-73533216D01*
X154536376Y-73697188D01*
X154571000Y-73871259D01*
X154571000Y-74048741D01*
X154536376Y-74222812D01*
X154468456Y-74386784D01*
X154369853Y-74534354D01*
X154244354Y-74659853D01*
X154096784Y-74758456D01*
X153932812Y-74826376D01*
X153758741Y-74861000D01*
X153581259Y-74861000D01*
X153407188Y-74826376D01*
X153243216Y-74758456D01*
X153095646Y-74659853D01*
X152970147Y-74534354D01*
X152871544Y-74386784D01*
X152803624Y-74222812D01*
X152769000Y-74048741D01*
X152769000Y-73871259D01*
X152803624Y-73697188D01*
X152871544Y-73533216D01*
X152970147Y-73385646D01*
X153095646Y-73260147D01*
X153243216Y-73161544D01*
X153407188Y-73093624D01*
X153581259Y-73059000D01*
X153758741Y-73059000D01*
X153932812Y-73093624D01*
X153932812Y-73093624D01*
G37*
G36*
X148852812Y-73093624D02*
X149016784Y-73161544D01*
X149164354Y-73260147D01*
X149289853Y-73385646D01*
X149388456Y-73533216D01*
X149456376Y-73697188D01*
X149491000Y-73871259D01*
X149491000Y-74048741D01*
X149456376Y-74222812D01*
X149388456Y-74386784D01*
X149289853Y-74534354D01*
X149164354Y-74659853D01*
X149016784Y-74758456D01*
X148852812Y-74826376D01*
X148678741Y-74861000D01*
X148501259Y-74861000D01*
X148327188Y-74826376D01*
X148163216Y-74758456D01*
X148015646Y-74659853D01*
X147890147Y-74534354D01*
X147791544Y-74386784D01*
X147723624Y-74222812D01*
X147689000Y-74048741D01*
X147689000Y-73871259D01*
X147723624Y-73697188D01*
X147791544Y-73533216D01*
X147890147Y-73385646D01*
X148015646Y-73260147D01*
X148163216Y-73161544D01*
X148327188Y-73093624D01*
X148501259Y-73059000D01*
X148678741Y-73059000D01*
X148852812Y-73093624D01*
X148852812Y-73093624D01*
G37*
G36*
X96630442Y-72765518D02*
X96696627Y-72772037D01*
X96807049Y-72805533D01*
X96866467Y-72823557D01*
X97005087Y-72897652D01*
X97022991Y-72907222D01*
X97025157Y-72909000D01*
X97160186Y-73019814D01*
X97220759Y-73093624D01*
X97272778Y-73157009D01*
X97272779Y-73157011D01*
X97356443Y-73313533D01*
X97373616Y-73370147D01*
X97407963Y-73483373D01*
X97425359Y-73660000D01*
X97407963Y-73836627D01*
X97387289Y-73904779D01*
X97356443Y-74006467D01*
X97331570Y-74053000D01*
X97272778Y-74162991D01*
X97243448Y-74198729D01*
X97160186Y-74300186D01*
X97058729Y-74383448D01*
X97022991Y-74412778D01*
X97022989Y-74412779D01*
X96866467Y-74496443D01*
X96809853Y-74513616D01*
X96696627Y-74547963D01*
X96630442Y-74554482D01*
X96564260Y-74561000D01*
X96475740Y-74561000D01*
X96409558Y-74554482D01*
X96343373Y-74547963D01*
X96230147Y-74513616D01*
X96173533Y-74496443D01*
X96017011Y-74412779D01*
X96017009Y-74412778D01*
X95981271Y-74383448D01*
X95879814Y-74300186D01*
X95796552Y-74198729D01*
X95767222Y-74162991D01*
X95708430Y-74053000D01*
X95683557Y-74006467D01*
X95652711Y-73904779D01*
X95632037Y-73836627D01*
X95614641Y-73660000D01*
X95632037Y-73483373D01*
X95666384Y-73370147D01*
X95683557Y-73313533D01*
X95767221Y-73157011D01*
X95767222Y-73157009D01*
X95819241Y-73093624D01*
X95879814Y-73019814D01*
X96014843Y-72909000D01*
X96017009Y-72907222D01*
X96034913Y-72897652D01*
X96173533Y-72823557D01*
X96232951Y-72805533D01*
X96343373Y-72772037D01*
X96409558Y-72765518D01*
X96475740Y-72759000D01*
X96564260Y-72759000D01*
X96630442Y-72765518D01*
X96630442Y-72765518D01*
G37*
G36*
X108949443Y-72257519D02*
X109015627Y-72264037D01*
X109128853Y-72298384D01*
X109185467Y-72315557D01*
X109324087Y-72389652D01*
X109341991Y-72399222D01*
X109377729Y-72428552D01*
X109479186Y-72511814D01*
X109562448Y-72613271D01*
X109591778Y-72649009D01*
X109591779Y-72649011D01*
X109675443Y-72805533D01*
X109675443Y-72805534D01*
X109726963Y-72975373D01*
X109744359Y-73152000D01*
X109726963Y-73328627D01*
X109692616Y-73441853D01*
X109675443Y-73498467D01*
X109656869Y-73533216D01*
X109591778Y-73654991D01*
X109587667Y-73660000D01*
X109479186Y-73792186D01*
X109382834Y-73871259D01*
X109341991Y-73904778D01*
X109341989Y-73904779D01*
X109185467Y-73988443D01*
X109128853Y-74005616D01*
X109015627Y-74039963D01*
X108949442Y-74046482D01*
X108883260Y-74053000D01*
X108794740Y-74053000D01*
X108728558Y-74046482D01*
X108662373Y-74039963D01*
X108549147Y-74005616D01*
X108492533Y-73988443D01*
X108336011Y-73904779D01*
X108336009Y-73904778D01*
X108295166Y-73871259D01*
X108198814Y-73792186D01*
X108090333Y-73660000D01*
X108086222Y-73654991D01*
X108021131Y-73533216D01*
X108002557Y-73498467D01*
X107985384Y-73441853D01*
X107951037Y-73328627D01*
X107933641Y-73152000D01*
X107951037Y-72975373D01*
X108002557Y-72805534D01*
X108002557Y-72805533D01*
X108086221Y-72649011D01*
X108086222Y-72649009D01*
X108115552Y-72613271D01*
X108198814Y-72511814D01*
X108300271Y-72428552D01*
X108336009Y-72399222D01*
X108353913Y-72389652D01*
X108492533Y-72315557D01*
X108549147Y-72298384D01*
X108662373Y-72264037D01*
X108728557Y-72257519D01*
X108794740Y-72251000D01*
X108883260Y-72251000D01*
X108949443Y-72257519D01*
X108949443Y-72257519D01*
G37*
G36*
X126729443Y-72257519D02*
X126795627Y-72264037D01*
X126908853Y-72298384D01*
X126965467Y-72315557D01*
X127104087Y-72389652D01*
X127121991Y-72399222D01*
X127157729Y-72428552D01*
X127259186Y-72511814D01*
X127342448Y-72613271D01*
X127371778Y-72649009D01*
X127371779Y-72649011D01*
X127455443Y-72805533D01*
X127455443Y-72805534D01*
X127506963Y-72975373D01*
X127524359Y-73152000D01*
X127506963Y-73328627D01*
X127472616Y-73441853D01*
X127455443Y-73498467D01*
X127436869Y-73533216D01*
X127371778Y-73654991D01*
X127367667Y-73660000D01*
X127259186Y-73792186D01*
X127162834Y-73871259D01*
X127121991Y-73904778D01*
X127121989Y-73904779D01*
X126965467Y-73988443D01*
X126908853Y-74005616D01*
X126795627Y-74039963D01*
X126729442Y-74046482D01*
X126663260Y-74053000D01*
X126574740Y-74053000D01*
X126508558Y-74046482D01*
X126442373Y-74039963D01*
X126329147Y-74005616D01*
X126272533Y-73988443D01*
X126116011Y-73904779D01*
X126116009Y-73904778D01*
X126075166Y-73871259D01*
X125978814Y-73792186D01*
X125870333Y-73660000D01*
X125866222Y-73654991D01*
X125801131Y-73533216D01*
X125782557Y-73498467D01*
X125765384Y-73441853D01*
X125731037Y-73328627D01*
X125713641Y-73152000D01*
X125731037Y-72975373D01*
X125782557Y-72805534D01*
X125782557Y-72805533D01*
X125866221Y-72649011D01*
X125866222Y-72649009D01*
X125895552Y-72613271D01*
X125978814Y-72511814D01*
X126080271Y-72428552D01*
X126116009Y-72399222D01*
X126133913Y-72389652D01*
X126272533Y-72315557D01*
X126329147Y-72298384D01*
X126442373Y-72264037D01*
X126508557Y-72257519D01*
X126574740Y-72251000D01*
X126663260Y-72251000D01*
X126729443Y-72257519D01*
X126729443Y-72257519D01*
G37*
G36*
X96630442Y-70225518D02*
X96696627Y-70232037D01*
X96809853Y-70266384D01*
X96866467Y-70283557D01*
X96991044Y-70350146D01*
X97022991Y-70367222D01*
X97058729Y-70396552D01*
X97160186Y-70479814D01*
X97243448Y-70581271D01*
X97272778Y-70617009D01*
X97272779Y-70617011D01*
X97356443Y-70773533D01*
X97356443Y-70773534D01*
X97407963Y-70943373D01*
X97425359Y-71120000D01*
X97407963Y-71296627D01*
X97373616Y-71409853D01*
X97356443Y-71466467D01*
X97331570Y-71513000D01*
X97272778Y-71622991D01*
X97243448Y-71658729D01*
X97160186Y-71760186D01*
X97058729Y-71843448D01*
X97022991Y-71872778D01*
X97022989Y-71872779D01*
X96866467Y-71956443D01*
X96809853Y-71973616D01*
X96696627Y-72007963D01*
X96630443Y-72014481D01*
X96564260Y-72021000D01*
X96475740Y-72021000D01*
X96409557Y-72014481D01*
X96343373Y-72007963D01*
X96230147Y-71973616D01*
X96173533Y-71956443D01*
X96017011Y-71872779D01*
X96017009Y-71872778D01*
X95981271Y-71843448D01*
X95879814Y-71760186D01*
X95796552Y-71658729D01*
X95767222Y-71622991D01*
X95708430Y-71513000D01*
X95683557Y-71466467D01*
X95666384Y-71409853D01*
X95632037Y-71296627D01*
X95614641Y-71120000D01*
X95632037Y-70943373D01*
X95683557Y-70773534D01*
X95683557Y-70773533D01*
X95767221Y-70617011D01*
X95767222Y-70617009D01*
X95796552Y-70581271D01*
X95879814Y-70479814D01*
X95981271Y-70396552D01*
X96017009Y-70367222D01*
X96048956Y-70350146D01*
X96173533Y-70283557D01*
X96230147Y-70266384D01*
X96343373Y-70232037D01*
X96409558Y-70225518D01*
X96475740Y-70219000D01*
X96564260Y-70219000D01*
X96630442Y-70225518D01*
X96630442Y-70225518D01*
G37*
G36*
X109740000Y-71513000D02*
X107938000Y-71513000D01*
X107938000Y-69711000D01*
X109740000Y-69711000D01*
X109740000Y-71513000D01*
X109740000Y-71513000D01*
G37*
G36*
X127520000Y-71513000D02*
X125718000Y-71513000D01*
X125718000Y-69711000D01*
X127520000Y-69711000D01*
X127520000Y-71513000D01*
X127520000Y-71513000D01*
G37*
G36*
X169372228Y-68777703D02*
X169527100Y-68841853D01*
X169666481Y-68934985D01*
X169785015Y-69053519D01*
X169878147Y-69192900D01*
X169942297Y-69347772D01*
X169975000Y-69512184D01*
X169975000Y-69679816D01*
X169942297Y-69844228D01*
X169878147Y-69999100D01*
X169785015Y-70138481D01*
X169666481Y-70257015D01*
X169527100Y-70350147D01*
X169372228Y-70414297D01*
X169207816Y-70447000D01*
X169040184Y-70447000D01*
X168875772Y-70414297D01*
X168720900Y-70350147D01*
X168581519Y-70257015D01*
X168462985Y-70138481D01*
X168369853Y-69999100D01*
X168305703Y-69844228D01*
X168273000Y-69679816D01*
X168273000Y-69512184D01*
X168305703Y-69347772D01*
X168369853Y-69192900D01*
X168462985Y-69053519D01*
X168581519Y-68934985D01*
X168720900Y-68841853D01*
X168875772Y-68777703D01*
X169040184Y-68745000D01*
X169207816Y-68745000D01*
X169372228Y-68777703D01*
X169372228Y-68777703D01*
G37*
G36*
X167475000Y-70447000D02*
X165773000Y-70447000D01*
X165773000Y-68745000D01*
X167475000Y-68745000D01*
X167475000Y-70447000D01*
X167475000Y-70447000D01*
G37*
G36*
X89010443Y-67685519D02*
X89076627Y-67692037D01*
X89187049Y-67725533D01*
X89246467Y-67743557D01*
X89385087Y-67817652D01*
X89402991Y-67827222D01*
X89438729Y-67856552D01*
X89540186Y-67939814D01*
X89623448Y-68041271D01*
X89652778Y-68077009D01*
X89652779Y-68077011D01*
X89736443Y-68233533D01*
X89753616Y-68290147D01*
X89787963Y-68403373D01*
X89805359Y-68580000D01*
X89787963Y-68756627D01*
X89767289Y-68824779D01*
X89736443Y-68926467D01*
X89711570Y-68973000D01*
X89652778Y-69082991D01*
X89623448Y-69118729D01*
X89540186Y-69220186D01*
X89438729Y-69303448D01*
X89402991Y-69332778D01*
X89402989Y-69332779D01*
X89246467Y-69416443D01*
X89189853Y-69433616D01*
X89076627Y-69467963D01*
X89010442Y-69474482D01*
X88944260Y-69481000D01*
X88855740Y-69481000D01*
X88789558Y-69474482D01*
X88723373Y-69467963D01*
X88610147Y-69433616D01*
X88553533Y-69416443D01*
X88397011Y-69332779D01*
X88397009Y-69332778D01*
X88361271Y-69303448D01*
X88259814Y-69220186D01*
X88176552Y-69118729D01*
X88147222Y-69082991D01*
X88088430Y-68973000D01*
X88063557Y-68926467D01*
X88032711Y-68824779D01*
X88012037Y-68756627D01*
X87994641Y-68580000D01*
X88012037Y-68403373D01*
X88046384Y-68290147D01*
X88063557Y-68233533D01*
X88147221Y-68077011D01*
X88147222Y-68077009D01*
X88176552Y-68041271D01*
X88259814Y-67939814D01*
X88361271Y-67856552D01*
X88397009Y-67827222D01*
X88414913Y-67817652D01*
X88553533Y-67743557D01*
X88612951Y-67725533D01*
X88723373Y-67692037D01*
X88789557Y-67685519D01*
X88855740Y-67679000D01*
X88944260Y-67679000D01*
X89010443Y-67685519D01*
X89010443Y-67685519D01*
G37*
G36*
X96630443Y-67685519D02*
X96696627Y-67692037D01*
X96807049Y-67725533D01*
X96866467Y-67743557D01*
X97005087Y-67817652D01*
X97022991Y-67827222D01*
X97058729Y-67856552D01*
X97160186Y-67939814D01*
X97243448Y-68041271D01*
X97272778Y-68077009D01*
X97272779Y-68077011D01*
X97356443Y-68233533D01*
X97373616Y-68290147D01*
X97407963Y-68403373D01*
X97425359Y-68580000D01*
X97407963Y-68756627D01*
X97387289Y-68824779D01*
X97356443Y-68926467D01*
X97331570Y-68973000D01*
X97272778Y-69082991D01*
X97243448Y-69118729D01*
X97160186Y-69220186D01*
X97058729Y-69303448D01*
X97022991Y-69332778D01*
X97022989Y-69332779D01*
X96866467Y-69416443D01*
X96809853Y-69433616D01*
X96696627Y-69467963D01*
X96630442Y-69474482D01*
X96564260Y-69481000D01*
X96475740Y-69481000D01*
X96409558Y-69474482D01*
X96343373Y-69467963D01*
X96230147Y-69433616D01*
X96173533Y-69416443D01*
X96017011Y-69332779D01*
X96017009Y-69332778D01*
X95981271Y-69303448D01*
X95879814Y-69220186D01*
X95796552Y-69118729D01*
X95767222Y-69082991D01*
X95708430Y-68973000D01*
X95683557Y-68926467D01*
X95652711Y-68824779D01*
X95632037Y-68756627D01*
X95614641Y-68580000D01*
X95632037Y-68403373D01*
X95666384Y-68290147D01*
X95683557Y-68233533D01*
X95767221Y-68077011D01*
X95767222Y-68077009D01*
X95796552Y-68041271D01*
X95879814Y-67939814D01*
X95981271Y-67856552D01*
X96017009Y-67827222D01*
X96034913Y-67817652D01*
X96173533Y-67743557D01*
X96232951Y-67725533D01*
X96343373Y-67692037D01*
X96409557Y-67685519D01*
X96475740Y-67679000D01*
X96564260Y-67679000D01*
X96630443Y-67685519D01*
X96630443Y-67685519D01*
G37*
G36*
X81390443Y-67685519D02*
X81456627Y-67692037D01*
X81567049Y-67725533D01*
X81626467Y-67743557D01*
X81765087Y-67817652D01*
X81782991Y-67827222D01*
X81818729Y-67856552D01*
X81920186Y-67939814D01*
X82003448Y-68041271D01*
X82032778Y-68077009D01*
X82032779Y-68077011D01*
X82116443Y-68233533D01*
X82133616Y-68290147D01*
X82167963Y-68403373D01*
X82185359Y-68580000D01*
X82167963Y-68756627D01*
X82147289Y-68824779D01*
X82116443Y-68926467D01*
X82091570Y-68973000D01*
X82032778Y-69082991D01*
X82003448Y-69118729D01*
X81920186Y-69220186D01*
X81818729Y-69303448D01*
X81782991Y-69332778D01*
X81782989Y-69332779D01*
X81626467Y-69416443D01*
X81569853Y-69433616D01*
X81456627Y-69467963D01*
X81390442Y-69474482D01*
X81324260Y-69481000D01*
X81235740Y-69481000D01*
X81169558Y-69474482D01*
X81103373Y-69467963D01*
X80990147Y-69433616D01*
X80933533Y-69416443D01*
X80777011Y-69332779D01*
X80777009Y-69332778D01*
X80741271Y-69303448D01*
X80639814Y-69220186D01*
X80556552Y-69118729D01*
X80527222Y-69082991D01*
X80468430Y-68973000D01*
X80443557Y-68926467D01*
X80412711Y-68824779D01*
X80392037Y-68756627D01*
X80374641Y-68580000D01*
X80392037Y-68403373D01*
X80426384Y-68290147D01*
X80443557Y-68233533D01*
X80527221Y-68077011D01*
X80527222Y-68077009D01*
X80556552Y-68041271D01*
X80639814Y-67939814D01*
X80741271Y-67856552D01*
X80777009Y-67827222D01*
X80794913Y-67817652D01*
X80933533Y-67743557D01*
X80992951Y-67725533D01*
X81103373Y-67692037D01*
X81169557Y-67685519D01*
X81235740Y-67679000D01*
X81324260Y-67679000D01*
X81390443Y-67685519D01*
X81390443Y-67685519D01*
G37*
G36*
X126729442Y-67177518D02*
X126795627Y-67184037D01*
X126908853Y-67218384D01*
X126965467Y-67235557D01*
X127104087Y-67309652D01*
X127121991Y-67319222D01*
X127157729Y-67348552D01*
X127259186Y-67431814D01*
X127342448Y-67533271D01*
X127371778Y-67569009D01*
X127371779Y-67569011D01*
X127455443Y-67725533D01*
X127455443Y-67725534D01*
X127506963Y-67895373D01*
X127524359Y-68072000D01*
X127506963Y-68248627D01*
X127472616Y-68361853D01*
X127455443Y-68418467D01*
X127381348Y-68557087D01*
X127371778Y-68574991D01*
X127367667Y-68580000D01*
X127259186Y-68712186D01*
X127157729Y-68795448D01*
X127121991Y-68824778D01*
X127121989Y-68824779D01*
X126965467Y-68908443D01*
X126908853Y-68925616D01*
X126795627Y-68959963D01*
X126729442Y-68966482D01*
X126663260Y-68973000D01*
X126574740Y-68973000D01*
X126508558Y-68966482D01*
X126442373Y-68959963D01*
X126329147Y-68925616D01*
X126272533Y-68908443D01*
X126116011Y-68824779D01*
X126116009Y-68824778D01*
X126080271Y-68795448D01*
X125978814Y-68712186D01*
X125870333Y-68580000D01*
X125866222Y-68574991D01*
X125856652Y-68557087D01*
X125782557Y-68418467D01*
X125765384Y-68361853D01*
X125731037Y-68248627D01*
X125713641Y-68072000D01*
X125731037Y-67895373D01*
X125782557Y-67725534D01*
X125782557Y-67725533D01*
X125866221Y-67569011D01*
X125866222Y-67569009D01*
X125895552Y-67533271D01*
X125978814Y-67431814D01*
X126080271Y-67348552D01*
X126116009Y-67319222D01*
X126133913Y-67309652D01*
X126272533Y-67235557D01*
X126329147Y-67218384D01*
X126442373Y-67184037D01*
X126508558Y-67177518D01*
X126574740Y-67171000D01*
X126663260Y-67171000D01*
X126729442Y-67177518D01*
X126729442Y-67177518D01*
G37*
G36*
X108949442Y-67177518D02*
X109015627Y-67184037D01*
X109128853Y-67218384D01*
X109185467Y-67235557D01*
X109324087Y-67309652D01*
X109341991Y-67319222D01*
X109377729Y-67348552D01*
X109479186Y-67431814D01*
X109562448Y-67533271D01*
X109591778Y-67569009D01*
X109591779Y-67569011D01*
X109675443Y-67725533D01*
X109675443Y-67725534D01*
X109726963Y-67895373D01*
X109744359Y-68072000D01*
X109726963Y-68248627D01*
X109692616Y-68361853D01*
X109675443Y-68418467D01*
X109601348Y-68557087D01*
X109591778Y-68574991D01*
X109587667Y-68580000D01*
X109479186Y-68712186D01*
X109377729Y-68795448D01*
X109341991Y-68824778D01*
X109341989Y-68824779D01*
X109185467Y-68908443D01*
X109128853Y-68925616D01*
X109015627Y-68959963D01*
X108949442Y-68966482D01*
X108883260Y-68973000D01*
X108794740Y-68973000D01*
X108728558Y-68966482D01*
X108662373Y-68959963D01*
X108549147Y-68925616D01*
X108492533Y-68908443D01*
X108336011Y-68824779D01*
X108336009Y-68824778D01*
X108300271Y-68795448D01*
X108198814Y-68712186D01*
X108090333Y-68580000D01*
X108086222Y-68574991D01*
X108076652Y-68557087D01*
X108002557Y-68418467D01*
X107985384Y-68361853D01*
X107951037Y-68248627D01*
X107933641Y-68072000D01*
X107951037Y-67895373D01*
X108002557Y-67725534D01*
X108002557Y-67725533D01*
X108086221Y-67569011D01*
X108086222Y-67569009D01*
X108115552Y-67533271D01*
X108198814Y-67431814D01*
X108300271Y-67348552D01*
X108336009Y-67319222D01*
X108353913Y-67309652D01*
X108492533Y-67235557D01*
X108549147Y-67218384D01*
X108662373Y-67184037D01*
X108728558Y-67177518D01*
X108794740Y-67171000D01*
X108883260Y-67171000D01*
X108949442Y-67177518D01*
X108949442Y-67177518D01*
G37*
G36*
X89010442Y-65145518D02*
X89076627Y-65152037D01*
X89187049Y-65185533D01*
X89246467Y-65203557D01*
X89385087Y-65277652D01*
X89402991Y-65287222D01*
X89438729Y-65316552D01*
X89540186Y-65399814D01*
X89623448Y-65501271D01*
X89652778Y-65537009D01*
X89652779Y-65537011D01*
X89736443Y-65693533D01*
X89753616Y-65750147D01*
X89787963Y-65863373D01*
X89805359Y-66040000D01*
X89787963Y-66216627D01*
X89767289Y-66284779D01*
X89736443Y-66386467D01*
X89711570Y-66433000D01*
X89652778Y-66542991D01*
X89623448Y-66578729D01*
X89540186Y-66680186D01*
X89438729Y-66763448D01*
X89402991Y-66792778D01*
X89402989Y-66792779D01*
X89246467Y-66876443D01*
X89189853Y-66893616D01*
X89076627Y-66927963D01*
X89010442Y-66934482D01*
X88944260Y-66941000D01*
X88855740Y-66941000D01*
X88789558Y-66934482D01*
X88723373Y-66927963D01*
X88610147Y-66893616D01*
X88553533Y-66876443D01*
X88397011Y-66792779D01*
X88397009Y-66792778D01*
X88361271Y-66763448D01*
X88259814Y-66680186D01*
X88176552Y-66578729D01*
X88147222Y-66542991D01*
X88088430Y-66433000D01*
X88063557Y-66386467D01*
X88032711Y-66284779D01*
X88012037Y-66216627D01*
X87994641Y-66040000D01*
X88012037Y-65863373D01*
X88046384Y-65750147D01*
X88063557Y-65693533D01*
X88147221Y-65537011D01*
X88147222Y-65537009D01*
X88176552Y-65501271D01*
X88259814Y-65399814D01*
X88361271Y-65316552D01*
X88397009Y-65287222D01*
X88414913Y-65277652D01*
X88553533Y-65203557D01*
X88612951Y-65185533D01*
X88723373Y-65152037D01*
X88789558Y-65145518D01*
X88855740Y-65139000D01*
X88944260Y-65139000D01*
X89010442Y-65145518D01*
X89010442Y-65145518D01*
G37*
G36*
X96630442Y-65145518D02*
X96696627Y-65152037D01*
X96807049Y-65185533D01*
X96866467Y-65203557D01*
X97005087Y-65277652D01*
X97022991Y-65287222D01*
X97058729Y-65316552D01*
X97160186Y-65399814D01*
X97243448Y-65501271D01*
X97272778Y-65537009D01*
X97272779Y-65537011D01*
X97356443Y-65693533D01*
X97373616Y-65750147D01*
X97407963Y-65863373D01*
X97425359Y-66040000D01*
X97407963Y-66216627D01*
X97387289Y-66284779D01*
X97356443Y-66386467D01*
X97331570Y-66433000D01*
X97272778Y-66542991D01*
X97243448Y-66578729D01*
X97160186Y-66680186D01*
X97058729Y-66763448D01*
X97022991Y-66792778D01*
X97022989Y-66792779D01*
X96866467Y-66876443D01*
X96809853Y-66893616D01*
X96696627Y-66927963D01*
X96630442Y-66934482D01*
X96564260Y-66941000D01*
X96475740Y-66941000D01*
X96409558Y-66934482D01*
X96343373Y-66927963D01*
X96230147Y-66893616D01*
X96173533Y-66876443D01*
X96017011Y-66792779D01*
X96017009Y-66792778D01*
X95981271Y-66763448D01*
X95879814Y-66680186D01*
X95796552Y-66578729D01*
X95767222Y-66542991D01*
X95708430Y-66433000D01*
X95683557Y-66386467D01*
X95652711Y-66284779D01*
X95632037Y-66216627D01*
X95614641Y-66040000D01*
X95632037Y-65863373D01*
X95666384Y-65750147D01*
X95683557Y-65693533D01*
X95767221Y-65537011D01*
X95767222Y-65537009D01*
X95796552Y-65501271D01*
X95879814Y-65399814D01*
X95981271Y-65316552D01*
X96017009Y-65287222D01*
X96034913Y-65277652D01*
X96173533Y-65203557D01*
X96232951Y-65185533D01*
X96343373Y-65152037D01*
X96409558Y-65145518D01*
X96475740Y-65139000D01*
X96564260Y-65139000D01*
X96630442Y-65145518D01*
X96630442Y-65145518D01*
G37*
G36*
X81390442Y-65145518D02*
X81456627Y-65152037D01*
X81567049Y-65185533D01*
X81626467Y-65203557D01*
X81765087Y-65277652D01*
X81782991Y-65287222D01*
X81818729Y-65316552D01*
X81920186Y-65399814D01*
X82003448Y-65501271D01*
X82032778Y-65537009D01*
X82032779Y-65537011D01*
X82116443Y-65693533D01*
X82133616Y-65750147D01*
X82167963Y-65863373D01*
X82185359Y-66040000D01*
X82167963Y-66216627D01*
X82147289Y-66284779D01*
X82116443Y-66386467D01*
X82091570Y-66433000D01*
X82032778Y-66542991D01*
X82003448Y-66578729D01*
X81920186Y-66680186D01*
X81818729Y-66763448D01*
X81782991Y-66792778D01*
X81782989Y-66792779D01*
X81626467Y-66876443D01*
X81569853Y-66893616D01*
X81456627Y-66927963D01*
X81390442Y-66934482D01*
X81324260Y-66941000D01*
X81235740Y-66941000D01*
X81169558Y-66934482D01*
X81103373Y-66927963D01*
X80990147Y-66893616D01*
X80933533Y-66876443D01*
X80777011Y-66792779D01*
X80777009Y-66792778D01*
X80741271Y-66763448D01*
X80639814Y-66680186D01*
X80556552Y-66578729D01*
X80527222Y-66542991D01*
X80468430Y-66433000D01*
X80443557Y-66386467D01*
X80412711Y-66284779D01*
X80392037Y-66216627D01*
X80374641Y-66040000D01*
X80392037Y-65863373D01*
X80426384Y-65750147D01*
X80443557Y-65693533D01*
X80527221Y-65537011D01*
X80527222Y-65537009D01*
X80556552Y-65501271D01*
X80639814Y-65399814D01*
X80741271Y-65316552D01*
X80777009Y-65287222D01*
X80794913Y-65277652D01*
X80933533Y-65203557D01*
X80992951Y-65185533D01*
X81103373Y-65152037D01*
X81169558Y-65145518D01*
X81235740Y-65139000D01*
X81324260Y-65139000D01*
X81390442Y-65145518D01*
X81390442Y-65145518D01*
G37*
G36*
X126729443Y-64637519D02*
X126795627Y-64644037D01*
X126908853Y-64678384D01*
X126965467Y-64695557D01*
X127104087Y-64769652D01*
X127121991Y-64779222D01*
X127157729Y-64808552D01*
X127259186Y-64891814D01*
X127342448Y-64993271D01*
X127371778Y-65029009D01*
X127371779Y-65029011D01*
X127455443Y-65185533D01*
X127455443Y-65185534D01*
X127506963Y-65355373D01*
X127524359Y-65532000D01*
X127506963Y-65708627D01*
X127472616Y-65821853D01*
X127455443Y-65878467D01*
X127381348Y-66017087D01*
X127371778Y-66034991D01*
X127367667Y-66040000D01*
X127259186Y-66172186D01*
X127157729Y-66255448D01*
X127121991Y-66284778D01*
X127121989Y-66284779D01*
X126965467Y-66368443D01*
X126908853Y-66385616D01*
X126795627Y-66419963D01*
X126729443Y-66426481D01*
X126663260Y-66433000D01*
X126574740Y-66433000D01*
X126508557Y-66426481D01*
X126442373Y-66419963D01*
X126329147Y-66385616D01*
X126272533Y-66368443D01*
X126116011Y-66284779D01*
X126116009Y-66284778D01*
X126080271Y-66255448D01*
X125978814Y-66172186D01*
X125870333Y-66040000D01*
X125866222Y-66034991D01*
X125856652Y-66017087D01*
X125782557Y-65878467D01*
X125765384Y-65821853D01*
X125731037Y-65708627D01*
X125713641Y-65532000D01*
X125731037Y-65355373D01*
X125782557Y-65185534D01*
X125782557Y-65185533D01*
X125866221Y-65029011D01*
X125866222Y-65029009D01*
X125895552Y-64993271D01*
X125978814Y-64891814D01*
X126080271Y-64808552D01*
X126116009Y-64779222D01*
X126133913Y-64769652D01*
X126272533Y-64695557D01*
X126329147Y-64678384D01*
X126442373Y-64644037D01*
X126508557Y-64637519D01*
X126574740Y-64631000D01*
X126663260Y-64631000D01*
X126729443Y-64637519D01*
X126729443Y-64637519D01*
G37*
G36*
X108949443Y-64637519D02*
X109015627Y-64644037D01*
X109128853Y-64678384D01*
X109185467Y-64695557D01*
X109324087Y-64769652D01*
X109341991Y-64779222D01*
X109377729Y-64808552D01*
X109479186Y-64891814D01*
X109562448Y-64993271D01*
X109591778Y-65029009D01*
X109591779Y-65029011D01*
X109675443Y-65185533D01*
X109675443Y-65185534D01*
X109726963Y-65355373D01*
X109744359Y-65532000D01*
X109726963Y-65708627D01*
X109692616Y-65821853D01*
X109675443Y-65878467D01*
X109601348Y-66017087D01*
X109591778Y-66034991D01*
X109587667Y-66040000D01*
X109479186Y-66172186D01*
X109377729Y-66255448D01*
X109341991Y-66284778D01*
X109341989Y-66284779D01*
X109185467Y-66368443D01*
X109128853Y-66385616D01*
X109015627Y-66419963D01*
X108949443Y-66426481D01*
X108883260Y-66433000D01*
X108794740Y-66433000D01*
X108728557Y-66426481D01*
X108662373Y-66419963D01*
X108549147Y-66385616D01*
X108492533Y-66368443D01*
X108336011Y-66284779D01*
X108336009Y-66284778D01*
X108300271Y-66255448D01*
X108198814Y-66172186D01*
X108090333Y-66040000D01*
X108086222Y-66034991D01*
X108076652Y-66017087D01*
X108002557Y-65878467D01*
X107985384Y-65821853D01*
X107951037Y-65708627D01*
X107933641Y-65532000D01*
X107951037Y-65355373D01*
X108002557Y-65185534D01*
X108002557Y-65185533D01*
X108086221Y-65029011D01*
X108086222Y-65029009D01*
X108115552Y-64993271D01*
X108198814Y-64891814D01*
X108300271Y-64808552D01*
X108336009Y-64779222D01*
X108353913Y-64769652D01*
X108492533Y-64695557D01*
X108549147Y-64678384D01*
X108662373Y-64644037D01*
X108728557Y-64637519D01*
X108794740Y-64631000D01*
X108883260Y-64631000D01*
X108949443Y-64637519D01*
X108949443Y-64637519D01*
G37*
G36*
X160921000Y-65671000D02*
X159119000Y-65671000D01*
X159119000Y-63869000D01*
X160921000Y-63869000D01*
X160921000Y-65671000D01*
X160921000Y-65671000D01*
G37*
G36*
X150761000Y-65671000D02*
X148959000Y-65671000D01*
X148959000Y-63869000D01*
X150761000Y-63869000D01*
X150761000Y-65671000D01*
X150761000Y-65671000D01*
G37*
G36*
X96630442Y-62605518D02*
X96696627Y-62612037D01*
X96807049Y-62645533D01*
X96866467Y-62663557D01*
X96996363Y-62732989D01*
X97022991Y-62747222D01*
X97058729Y-62776552D01*
X97160186Y-62859814D01*
X97243448Y-62961271D01*
X97272778Y-62997009D01*
X97272779Y-62997011D01*
X97356443Y-63153533D01*
X97373616Y-63210147D01*
X97407963Y-63323373D01*
X97425359Y-63500000D01*
X97407963Y-63676627D01*
X97387289Y-63744779D01*
X97356443Y-63846467D01*
X97331570Y-63893000D01*
X97272778Y-64002991D01*
X97243448Y-64038729D01*
X97160186Y-64140186D01*
X97058729Y-64223448D01*
X97022991Y-64252778D01*
X97022989Y-64252779D01*
X96866467Y-64336443D01*
X96809853Y-64353616D01*
X96696627Y-64387963D01*
X96630442Y-64394482D01*
X96564260Y-64401000D01*
X96475740Y-64401000D01*
X96409558Y-64394482D01*
X96343373Y-64387963D01*
X96230147Y-64353616D01*
X96173533Y-64336443D01*
X96017011Y-64252779D01*
X96017009Y-64252778D01*
X95981271Y-64223448D01*
X95879814Y-64140186D01*
X95796552Y-64038729D01*
X95767222Y-64002991D01*
X95708430Y-63893000D01*
X95683557Y-63846467D01*
X95652711Y-63744779D01*
X95632037Y-63676627D01*
X95614641Y-63500000D01*
X95632037Y-63323373D01*
X95666384Y-63210147D01*
X95683557Y-63153533D01*
X95767221Y-62997011D01*
X95767222Y-62997009D01*
X95796552Y-62961271D01*
X95879814Y-62859814D01*
X95981271Y-62776552D01*
X96017009Y-62747222D01*
X96043637Y-62732989D01*
X96173533Y-62663557D01*
X96232951Y-62645533D01*
X96343373Y-62612037D01*
X96409558Y-62605518D01*
X96475740Y-62599000D01*
X96564260Y-62599000D01*
X96630442Y-62605518D01*
X96630442Y-62605518D01*
G37*
G36*
X89801000Y-64401000D02*
X87999000Y-64401000D01*
X87999000Y-62599000D01*
X89801000Y-62599000D01*
X89801000Y-64401000D01*
X89801000Y-64401000D01*
G37*
G36*
X82181000Y-64401000D02*
X80379000Y-64401000D01*
X80379000Y-62599000D01*
X82181000Y-62599000D01*
X82181000Y-64401000D01*
X82181000Y-64401000D01*
G37*
G36*
X126729443Y-62097519D02*
X126795627Y-62104037D01*
X126908853Y-62138384D01*
X126965467Y-62155557D01*
X127104087Y-62229652D01*
X127121991Y-62239222D01*
X127157729Y-62268552D01*
X127259186Y-62351814D01*
X127342448Y-62453271D01*
X127371778Y-62489009D01*
X127371779Y-62489011D01*
X127455443Y-62645533D01*
X127455443Y-62645534D01*
X127506963Y-62815373D01*
X127524359Y-62992000D01*
X127506963Y-63168627D01*
X127472616Y-63281853D01*
X127455443Y-63338467D01*
X127381348Y-63477087D01*
X127371778Y-63494991D01*
X127367667Y-63500000D01*
X127259186Y-63632186D01*
X127157729Y-63715448D01*
X127121991Y-63744778D01*
X127121989Y-63744779D01*
X126965467Y-63828443D01*
X126908853Y-63845616D01*
X126795627Y-63879963D01*
X126729442Y-63886482D01*
X126663260Y-63893000D01*
X126574740Y-63893000D01*
X126508558Y-63886482D01*
X126442373Y-63879963D01*
X126329147Y-63845616D01*
X126272533Y-63828443D01*
X126116011Y-63744779D01*
X126116009Y-63744778D01*
X126080271Y-63715448D01*
X125978814Y-63632186D01*
X125870333Y-63500000D01*
X125866222Y-63494991D01*
X125856652Y-63477087D01*
X125782557Y-63338467D01*
X125765384Y-63281853D01*
X125731037Y-63168627D01*
X125713641Y-62992000D01*
X125731037Y-62815373D01*
X125782557Y-62645534D01*
X125782557Y-62645533D01*
X125866221Y-62489011D01*
X125866222Y-62489009D01*
X125895552Y-62453271D01*
X125978814Y-62351814D01*
X126080271Y-62268552D01*
X126116009Y-62239222D01*
X126133913Y-62229652D01*
X126272533Y-62155557D01*
X126329147Y-62138384D01*
X126442373Y-62104037D01*
X126508557Y-62097519D01*
X126574740Y-62091000D01*
X126663260Y-62091000D01*
X126729443Y-62097519D01*
X126729443Y-62097519D01*
G37*
G36*
X108949443Y-62097519D02*
X109015627Y-62104037D01*
X109128853Y-62138384D01*
X109185467Y-62155557D01*
X109324087Y-62229652D01*
X109341991Y-62239222D01*
X109377729Y-62268552D01*
X109479186Y-62351814D01*
X109562448Y-62453271D01*
X109591778Y-62489009D01*
X109591779Y-62489011D01*
X109675443Y-62645533D01*
X109675443Y-62645534D01*
X109726963Y-62815373D01*
X109744359Y-62992000D01*
X109726963Y-63168627D01*
X109692616Y-63281853D01*
X109675443Y-63338467D01*
X109601348Y-63477087D01*
X109591778Y-63494991D01*
X109587667Y-63500000D01*
X109479186Y-63632186D01*
X109377729Y-63715448D01*
X109341991Y-63744778D01*
X109341989Y-63744779D01*
X109185467Y-63828443D01*
X109128853Y-63845616D01*
X109015627Y-63879963D01*
X108949442Y-63886482D01*
X108883260Y-63893000D01*
X108794740Y-63893000D01*
X108728558Y-63886482D01*
X108662373Y-63879963D01*
X108549147Y-63845616D01*
X108492533Y-63828443D01*
X108336011Y-63744779D01*
X108336009Y-63744778D01*
X108300271Y-63715448D01*
X108198814Y-63632186D01*
X108090333Y-63500000D01*
X108086222Y-63494991D01*
X108076652Y-63477087D01*
X108002557Y-63338467D01*
X107985384Y-63281853D01*
X107951037Y-63168627D01*
X107933641Y-62992000D01*
X107951037Y-62815373D01*
X108002557Y-62645534D01*
X108002557Y-62645533D01*
X108086221Y-62489011D01*
X108086222Y-62489009D01*
X108115552Y-62453271D01*
X108198814Y-62351814D01*
X108300271Y-62268552D01*
X108336009Y-62239222D01*
X108353913Y-62229652D01*
X108492533Y-62155557D01*
X108549147Y-62138384D01*
X108662373Y-62104037D01*
X108728557Y-62097519D01*
X108794740Y-62091000D01*
X108883260Y-62091000D01*
X108949443Y-62097519D01*
X108949443Y-62097519D01*
G37*
G36*
X160130443Y-61335519D02*
X160196627Y-61342037D01*
X160309853Y-61376384D01*
X160366467Y-61393557D01*
X160505087Y-61467652D01*
X160522991Y-61477222D01*
X160558729Y-61506552D01*
X160660186Y-61589814D01*
X160743448Y-61691271D01*
X160772778Y-61727009D01*
X160772779Y-61727011D01*
X160856443Y-61883533D01*
X160856443Y-61883534D01*
X160907963Y-62053373D01*
X160925359Y-62230000D01*
X160907963Y-62406627D01*
X160882973Y-62489009D01*
X160856443Y-62576467D01*
X160837430Y-62612037D01*
X160772778Y-62732991D01*
X160743448Y-62768729D01*
X160660186Y-62870186D01*
X160558729Y-62953448D01*
X160522991Y-62982778D01*
X160522989Y-62982779D01*
X160366467Y-63066443D01*
X160309853Y-63083616D01*
X160196627Y-63117963D01*
X160130443Y-63124481D01*
X160064260Y-63131000D01*
X159975740Y-63131000D01*
X159909557Y-63124481D01*
X159843373Y-63117963D01*
X159730147Y-63083616D01*
X159673533Y-63066443D01*
X159517011Y-62982779D01*
X159517009Y-62982778D01*
X159481271Y-62953448D01*
X159379814Y-62870186D01*
X159296552Y-62768729D01*
X159267222Y-62732991D01*
X159202570Y-62612037D01*
X159183557Y-62576467D01*
X159157027Y-62489009D01*
X159132037Y-62406627D01*
X159114641Y-62230000D01*
X159132037Y-62053373D01*
X159183557Y-61883534D01*
X159183557Y-61883533D01*
X159267221Y-61727011D01*
X159267222Y-61727009D01*
X159296552Y-61691271D01*
X159379814Y-61589814D01*
X159481271Y-61506552D01*
X159517009Y-61477222D01*
X159534913Y-61467652D01*
X159673533Y-61393557D01*
X159730147Y-61376384D01*
X159843373Y-61342037D01*
X159909557Y-61335519D01*
X159975740Y-61329000D01*
X160064260Y-61329000D01*
X160130443Y-61335519D01*
X160130443Y-61335519D01*
G37*
G36*
X149970443Y-61335519D02*
X150036627Y-61342037D01*
X150149853Y-61376384D01*
X150206467Y-61393557D01*
X150345087Y-61467652D01*
X150362991Y-61477222D01*
X150398729Y-61506552D01*
X150500186Y-61589814D01*
X150583448Y-61691271D01*
X150612778Y-61727009D01*
X150612779Y-61727011D01*
X150696443Y-61883533D01*
X150696443Y-61883534D01*
X150747963Y-62053373D01*
X150765359Y-62230000D01*
X150747963Y-62406627D01*
X150722973Y-62489009D01*
X150696443Y-62576467D01*
X150677430Y-62612037D01*
X150612778Y-62732991D01*
X150583448Y-62768729D01*
X150500186Y-62870186D01*
X150398729Y-62953448D01*
X150362991Y-62982778D01*
X150362989Y-62982779D01*
X150206467Y-63066443D01*
X150149853Y-63083616D01*
X150036627Y-63117963D01*
X149970443Y-63124481D01*
X149904260Y-63131000D01*
X149815740Y-63131000D01*
X149749557Y-63124481D01*
X149683373Y-63117963D01*
X149570147Y-63083616D01*
X149513533Y-63066443D01*
X149357011Y-62982779D01*
X149357009Y-62982778D01*
X149321271Y-62953448D01*
X149219814Y-62870186D01*
X149136552Y-62768729D01*
X149107222Y-62732991D01*
X149042570Y-62612037D01*
X149023557Y-62576467D01*
X148997027Y-62489009D01*
X148972037Y-62406627D01*
X148954641Y-62230000D01*
X148972037Y-62053373D01*
X149023557Y-61883534D01*
X149023557Y-61883533D01*
X149107221Y-61727011D01*
X149107222Y-61727009D01*
X149136552Y-61691271D01*
X149219814Y-61589814D01*
X149321271Y-61506552D01*
X149357009Y-61477222D01*
X149374913Y-61467652D01*
X149513533Y-61393557D01*
X149570147Y-61376384D01*
X149683373Y-61342037D01*
X149749557Y-61335519D01*
X149815740Y-61329000D01*
X149904260Y-61329000D01*
X149970443Y-61335519D01*
X149970443Y-61335519D01*
G37*
G36*
X97421000Y-61861000D02*
X95619000Y-61861000D01*
X95619000Y-60059000D01*
X97421000Y-60059000D01*
X97421000Y-61861000D01*
X97421000Y-61861000D01*
G37*
G36*
X108949443Y-59557519D02*
X109015627Y-59564037D01*
X109128853Y-59598384D01*
X109185467Y-59615557D01*
X109324087Y-59689652D01*
X109341991Y-59699222D01*
X109377729Y-59728552D01*
X109479186Y-59811814D01*
X109562448Y-59913271D01*
X109591778Y-59949009D01*
X109591779Y-59949011D01*
X109675443Y-60105533D01*
X109675443Y-60105534D01*
X109726963Y-60275373D01*
X109744359Y-60452000D01*
X109726963Y-60628627D01*
X109692616Y-60741853D01*
X109675443Y-60798467D01*
X109601348Y-60937087D01*
X109591778Y-60954991D01*
X109562448Y-60990729D01*
X109479186Y-61092186D01*
X109377729Y-61175448D01*
X109341991Y-61204778D01*
X109341989Y-61204779D01*
X109185467Y-61288443D01*
X109128853Y-61305616D01*
X109015627Y-61339963D01*
X108949443Y-61346481D01*
X108883260Y-61353000D01*
X108794740Y-61353000D01*
X108728557Y-61346481D01*
X108662373Y-61339963D01*
X108549147Y-61305616D01*
X108492533Y-61288443D01*
X108336011Y-61204779D01*
X108336009Y-61204778D01*
X108300271Y-61175448D01*
X108198814Y-61092186D01*
X108115552Y-60990729D01*
X108086222Y-60954991D01*
X108076652Y-60937087D01*
X108002557Y-60798467D01*
X107985384Y-60741853D01*
X107951037Y-60628627D01*
X107933641Y-60452000D01*
X107951037Y-60275373D01*
X108002557Y-60105534D01*
X108002557Y-60105533D01*
X108086221Y-59949011D01*
X108086222Y-59949009D01*
X108115552Y-59913271D01*
X108198814Y-59811814D01*
X108300271Y-59728552D01*
X108336009Y-59699222D01*
X108353913Y-59689652D01*
X108492533Y-59615557D01*
X108549147Y-59598384D01*
X108662373Y-59564037D01*
X108728557Y-59557519D01*
X108794740Y-59551000D01*
X108883260Y-59551000D01*
X108949443Y-59557519D01*
X108949443Y-59557519D01*
G37*
G36*
X126729443Y-59557519D02*
X126795627Y-59564037D01*
X126908853Y-59598384D01*
X126965467Y-59615557D01*
X127104087Y-59689652D01*
X127121991Y-59699222D01*
X127157729Y-59728552D01*
X127259186Y-59811814D01*
X127342448Y-59913271D01*
X127371778Y-59949009D01*
X127371779Y-59949011D01*
X127455443Y-60105533D01*
X127455443Y-60105534D01*
X127506963Y-60275373D01*
X127524359Y-60452000D01*
X127506963Y-60628627D01*
X127472616Y-60741853D01*
X127455443Y-60798467D01*
X127381348Y-60937087D01*
X127371778Y-60954991D01*
X127342448Y-60990729D01*
X127259186Y-61092186D01*
X127157729Y-61175448D01*
X127121991Y-61204778D01*
X127121989Y-61204779D01*
X126965467Y-61288443D01*
X126908853Y-61305616D01*
X126795627Y-61339963D01*
X126729443Y-61346481D01*
X126663260Y-61353000D01*
X126574740Y-61353000D01*
X126508557Y-61346481D01*
X126442373Y-61339963D01*
X126329147Y-61305616D01*
X126272533Y-61288443D01*
X126116011Y-61204779D01*
X126116009Y-61204778D01*
X126080271Y-61175448D01*
X125978814Y-61092186D01*
X125895552Y-60990729D01*
X125866222Y-60954991D01*
X125856652Y-60937087D01*
X125782557Y-60798467D01*
X125765384Y-60741853D01*
X125731037Y-60628627D01*
X125713641Y-60452000D01*
X125731037Y-60275373D01*
X125782557Y-60105534D01*
X125782557Y-60105533D01*
X125866221Y-59949011D01*
X125866222Y-59949009D01*
X125895552Y-59913271D01*
X125978814Y-59811814D01*
X126080271Y-59728552D01*
X126116009Y-59699222D01*
X126133913Y-59689652D01*
X126272533Y-59615557D01*
X126329147Y-59598384D01*
X126442373Y-59564037D01*
X126508557Y-59557519D01*
X126574740Y-59551000D01*
X126663260Y-59551000D01*
X126729443Y-59557519D01*
X126729443Y-59557519D01*
G37*
G36*
X149970442Y-58795518D02*
X150036627Y-58802037D01*
X150149853Y-58836384D01*
X150206467Y-58853557D01*
X150345087Y-58927652D01*
X150362991Y-58937222D01*
X150398729Y-58966552D01*
X150500186Y-59049814D01*
X150583448Y-59151271D01*
X150612778Y-59187009D01*
X150612779Y-59187011D01*
X150696443Y-59343533D01*
X150696443Y-59343534D01*
X150747963Y-59513373D01*
X150765359Y-59690000D01*
X150747963Y-59866627D01*
X150722973Y-59949009D01*
X150696443Y-60036467D01*
X150659526Y-60105533D01*
X150612778Y-60192991D01*
X150583448Y-60228729D01*
X150500186Y-60330186D01*
X150398729Y-60413448D01*
X150362991Y-60442778D01*
X150362989Y-60442779D01*
X150206467Y-60526443D01*
X150149853Y-60543616D01*
X150036627Y-60577963D01*
X149970443Y-60584481D01*
X149904260Y-60591000D01*
X149815740Y-60591000D01*
X149749557Y-60584481D01*
X149683373Y-60577963D01*
X149570147Y-60543616D01*
X149513533Y-60526443D01*
X149357011Y-60442779D01*
X149357009Y-60442778D01*
X149321271Y-60413448D01*
X149219814Y-60330186D01*
X149136552Y-60228729D01*
X149107222Y-60192991D01*
X149060474Y-60105533D01*
X149023557Y-60036467D01*
X148997027Y-59949009D01*
X148972037Y-59866627D01*
X148954641Y-59690000D01*
X148972037Y-59513373D01*
X149023557Y-59343534D01*
X149023557Y-59343533D01*
X149107221Y-59187011D01*
X149107222Y-59187009D01*
X149136552Y-59151271D01*
X149219814Y-59049814D01*
X149321271Y-58966552D01*
X149357009Y-58937222D01*
X149374913Y-58927652D01*
X149513533Y-58853557D01*
X149570147Y-58836384D01*
X149683373Y-58802037D01*
X149749558Y-58795518D01*
X149815740Y-58789000D01*
X149904260Y-58789000D01*
X149970442Y-58795518D01*
X149970442Y-58795518D01*
G37*
G36*
X160130442Y-58795518D02*
X160196627Y-58802037D01*
X160309853Y-58836384D01*
X160366467Y-58853557D01*
X160505087Y-58927652D01*
X160522991Y-58937222D01*
X160558729Y-58966552D01*
X160660186Y-59049814D01*
X160743448Y-59151271D01*
X160772778Y-59187009D01*
X160772779Y-59187011D01*
X160856443Y-59343533D01*
X160856443Y-59343534D01*
X160907963Y-59513373D01*
X160925359Y-59690000D01*
X160907963Y-59866627D01*
X160882973Y-59949009D01*
X160856443Y-60036467D01*
X160819526Y-60105533D01*
X160772778Y-60192991D01*
X160743448Y-60228729D01*
X160660186Y-60330186D01*
X160558729Y-60413448D01*
X160522991Y-60442778D01*
X160522989Y-60442779D01*
X160366467Y-60526443D01*
X160309853Y-60543616D01*
X160196627Y-60577963D01*
X160130443Y-60584481D01*
X160064260Y-60591000D01*
X159975740Y-60591000D01*
X159909557Y-60584481D01*
X159843373Y-60577963D01*
X159730147Y-60543616D01*
X159673533Y-60526443D01*
X159517011Y-60442779D01*
X159517009Y-60442778D01*
X159481271Y-60413448D01*
X159379814Y-60330186D01*
X159296552Y-60228729D01*
X159267222Y-60192991D01*
X159220474Y-60105533D01*
X159183557Y-60036467D01*
X159157027Y-59949009D01*
X159132037Y-59866627D01*
X159114641Y-59690000D01*
X159132037Y-59513373D01*
X159183557Y-59343534D01*
X159183557Y-59343533D01*
X159267221Y-59187011D01*
X159267222Y-59187009D01*
X159296552Y-59151271D01*
X159379814Y-59049814D01*
X159481271Y-58966552D01*
X159517009Y-58937222D01*
X159534913Y-58927652D01*
X159673533Y-58853557D01*
X159730147Y-58836384D01*
X159843373Y-58802037D01*
X159909558Y-58795518D01*
X159975740Y-58789000D01*
X160064260Y-58789000D01*
X160130442Y-58795518D01*
X160130442Y-58795518D01*
G37*
G36*
X109740000Y-58813000D02*
X107938000Y-58813000D01*
X107938000Y-57011000D01*
X109740000Y-57011000D01*
X109740000Y-58813000D01*
X109740000Y-58813000D01*
G37*
G36*
X127520000Y-58813000D02*
X125718000Y-58813000D01*
X125718000Y-57011000D01*
X127520000Y-57011000D01*
X127520000Y-58813000D01*
X127520000Y-58813000D01*
G37*
G36*
X149970443Y-56255519D02*
X150036627Y-56262037D01*
X150149853Y-56296384D01*
X150206467Y-56313557D01*
X150345087Y-56387652D01*
X150362991Y-56397222D01*
X150398729Y-56426552D01*
X150500186Y-56509814D01*
X150583448Y-56611271D01*
X150612778Y-56647009D01*
X150612779Y-56647011D01*
X150696443Y-56803533D01*
X150696443Y-56803534D01*
X150747963Y-56973373D01*
X150765359Y-57150000D01*
X150747963Y-57326627D01*
X150713616Y-57439853D01*
X150696443Y-57496467D01*
X150622348Y-57635087D01*
X150612778Y-57652991D01*
X150583448Y-57688729D01*
X150500186Y-57790186D01*
X150398729Y-57873448D01*
X150362991Y-57902778D01*
X150362989Y-57902779D01*
X150206467Y-57986443D01*
X150149853Y-58003616D01*
X150036627Y-58037963D01*
X149970442Y-58044482D01*
X149904260Y-58051000D01*
X149815740Y-58051000D01*
X149749558Y-58044482D01*
X149683373Y-58037963D01*
X149570147Y-58003616D01*
X149513533Y-57986443D01*
X149357011Y-57902779D01*
X149357009Y-57902778D01*
X149321271Y-57873448D01*
X149219814Y-57790186D01*
X149136552Y-57688729D01*
X149107222Y-57652991D01*
X149097652Y-57635087D01*
X149023557Y-57496467D01*
X149006384Y-57439853D01*
X148972037Y-57326627D01*
X148954641Y-57150000D01*
X148972037Y-56973373D01*
X149023557Y-56803534D01*
X149023557Y-56803533D01*
X149107221Y-56647011D01*
X149107222Y-56647009D01*
X149136552Y-56611271D01*
X149219814Y-56509814D01*
X149321271Y-56426552D01*
X149357009Y-56397222D01*
X149374913Y-56387652D01*
X149513533Y-56313557D01*
X149570147Y-56296384D01*
X149683373Y-56262037D01*
X149749557Y-56255519D01*
X149815740Y-56249000D01*
X149904260Y-56249000D01*
X149970443Y-56255519D01*
X149970443Y-56255519D01*
G37*
G36*
X167750443Y-56255519D02*
X167816627Y-56262037D01*
X167929853Y-56296384D01*
X167986467Y-56313557D01*
X168125087Y-56387652D01*
X168142991Y-56397222D01*
X168178729Y-56426552D01*
X168280186Y-56509814D01*
X168363448Y-56611271D01*
X168392778Y-56647009D01*
X168392779Y-56647011D01*
X168476443Y-56803533D01*
X168476443Y-56803534D01*
X168527963Y-56973373D01*
X168545359Y-57150000D01*
X168527963Y-57326627D01*
X168493616Y-57439853D01*
X168476443Y-57496467D01*
X168402348Y-57635087D01*
X168392778Y-57652991D01*
X168363448Y-57688729D01*
X168280186Y-57790186D01*
X168178729Y-57873448D01*
X168142991Y-57902778D01*
X168142989Y-57902779D01*
X167986467Y-57986443D01*
X167929853Y-58003616D01*
X167816627Y-58037963D01*
X167750442Y-58044482D01*
X167684260Y-58051000D01*
X167595740Y-58051000D01*
X167529558Y-58044482D01*
X167463373Y-58037963D01*
X167350147Y-58003616D01*
X167293533Y-57986443D01*
X167137011Y-57902779D01*
X167137009Y-57902778D01*
X167101271Y-57873448D01*
X166999814Y-57790186D01*
X166916552Y-57688729D01*
X166887222Y-57652991D01*
X166877652Y-57635087D01*
X166803557Y-57496467D01*
X166786384Y-57439853D01*
X166752037Y-57326627D01*
X166734641Y-57150000D01*
X166752037Y-56973373D01*
X166803557Y-56803534D01*
X166803557Y-56803533D01*
X166887221Y-56647011D01*
X166887222Y-56647009D01*
X166916552Y-56611271D01*
X166999814Y-56509814D01*
X167101271Y-56426552D01*
X167137009Y-56397222D01*
X167154913Y-56387652D01*
X167293533Y-56313557D01*
X167350147Y-56296384D01*
X167463373Y-56262037D01*
X167529557Y-56255519D01*
X167595740Y-56249000D01*
X167684260Y-56249000D01*
X167750443Y-56255519D01*
X167750443Y-56255519D01*
G37*
G36*
X160130443Y-56255519D02*
X160196627Y-56262037D01*
X160309853Y-56296384D01*
X160366467Y-56313557D01*
X160505087Y-56387652D01*
X160522991Y-56397222D01*
X160558729Y-56426552D01*
X160660186Y-56509814D01*
X160743448Y-56611271D01*
X160772778Y-56647009D01*
X160772779Y-56647011D01*
X160856443Y-56803533D01*
X160856443Y-56803534D01*
X160907963Y-56973373D01*
X160925359Y-57150000D01*
X160907963Y-57326627D01*
X160873616Y-57439853D01*
X160856443Y-57496467D01*
X160782348Y-57635087D01*
X160772778Y-57652991D01*
X160743448Y-57688729D01*
X160660186Y-57790186D01*
X160558729Y-57873448D01*
X160522991Y-57902778D01*
X160522989Y-57902779D01*
X160366467Y-57986443D01*
X160309853Y-58003616D01*
X160196627Y-58037963D01*
X160130442Y-58044482D01*
X160064260Y-58051000D01*
X159975740Y-58051000D01*
X159909558Y-58044482D01*
X159843373Y-58037963D01*
X159730147Y-58003616D01*
X159673533Y-57986443D01*
X159517011Y-57902779D01*
X159517009Y-57902778D01*
X159481271Y-57873448D01*
X159379814Y-57790186D01*
X159296552Y-57688729D01*
X159267222Y-57652991D01*
X159257652Y-57635087D01*
X159183557Y-57496467D01*
X159166384Y-57439853D01*
X159132037Y-57326627D01*
X159114641Y-57150000D01*
X159132037Y-56973373D01*
X159183557Y-56803534D01*
X159183557Y-56803533D01*
X159267221Y-56647011D01*
X159267222Y-56647009D01*
X159296552Y-56611271D01*
X159379814Y-56509814D01*
X159481271Y-56426552D01*
X159517009Y-56397222D01*
X159534913Y-56387652D01*
X159673533Y-56313557D01*
X159730147Y-56296384D01*
X159843373Y-56262037D01*
X159909557Y-56255519D01*
X159975740Y-56249000D01*
X160064260Y-56249000D01*
X160130443Y-56255519D01*
X160130443Y-56255519D01*
G37*
G36*
X108949443Y-54477519D02*
X109015627Y-54484037D01*
X109128853Y-54518384D01*
X109185467Y-54535557D01*
X109324087Y-54609652D01*
X109341991Y-54619222D01*
X109377729Y-54648552D01*
X109479186Y-54731814D01*
X109562448Y-54833271D01*
X109591778Y-54869009D01*
X109591779Y-54869011D01*
X109675443Y-55025533D01*
X109675443Y-55025534D01*
X109726963Y-55195373D01*
X109744359Y-55372000D01*
X109726963Y-55548627D01*
X109692616Y-55661853D01*
X109675443Y-55718467D01*
X109601348Y-55857087D01*
X109591778Y-55874991D01*
X109562448Y-55910729D01*
X109479186Y-56012186D01*
X109377729Y-56095448D01*
X109341991Y-56124778D01*
X109341989Y-56124779D01*
X109185467Y-56208443D01*
X109128853Y-56225616D01*
X109015627Y-56259963D01*
X108949443Y-56266481D01*
X108883260Y-56273000D01*
X108794740Y-56273000D01*
X108728557Y-56266481D01*
X108662373Y-56259963D01*
X108549147Y-56225616D01*
X108492533Y-56208443D01*
X108336011Y-56124779D01*
X108336009Y-56124778D01*
X108300271Y-56095448D01*
X108198814Y-56012186D01*
X108115552Y-55910729D01*
X108086222Y-55874991D01*
X108076652Y-55857087D01*
X108002557Y-55718467D01*
X107985384Y-55661853D01*
X107951037Y-55548627D01*
X107933641Y-55372000D01*
X107951037Y-55195373D01*
X108002557Y-55025534D01*
X108002557Y-55025533D01*
X108086221Y-54869011D01*
X108086222Y-54869009D01*
X108115552Y-54833271D01*
X108198814Y-54731814D01*
X108300271Y-54648552D01*
X108336009Y-54619222D01*
X108353913Y-54609652D01*
X108492533Y-54535557D01*
X108549147Y-54518384D01*
X108662373Y-54484037D01*
X108728557Y-54477519D01*
X108794740Y-54471000D01*
X108883260Y-54471000D01*
X108949443Y-54477519D01*
X108949443Y-54477519D01*
G37*
G36*
X126729443Y-54477519D02*
X126795627Y-54484037D01*
X126908853Y-54518384D01*
X126965467Y-54535557D01*
X127104087Y-54609652D01*
X127121991Y-54619222D01*
X127157729Y-54648552D01*
X127259186Y-54731814D01*
X127342448Y-54833271D01*
X127371778Y-54869009D01*
X127371779Y-54869011D01*
X127455443Y-55025533D01*
X127455443Y-55025534D01*
X127506963Y-55195373D01*
X127524359Y-55372000D01*
X127506963Y-55548627D01*
X127472616Y-55661853D01*
X127455443Y-55718467D01*
X127381348Y-55857087D01*
X127371778Y-55874991D01*
X127342448Y-55910729D01*
X127259186Y-56012186D01*
X127157729Y-56095448D01*
X127121991Y-56124778D01*
X127121989Y-56124779D01*
X126965467Y-56208443D01*
X126908853Y-56225616D01*
X126795627Y-56259963D01*
X126729443Y-56266481D01*
X126663260Y-56273000D01*
X126574740Y-56273000D01*
X126508557Y-56266481D01*
X126442373Y-56259963D01*
X126329147Y-56225616D01*
X126272533Y-56208443D01*
X126116011Y-56124779D01*
X126116009Y-56124778D01*
X126080271Y-56095448D01*
X125978814Y-56012186D01*
X125895552Y-55910729D01*
X125866222Y-55874991D01*
X125856652Y-55857087D01*
X125782557Y-55718467D01*
X125765384Y-55661853D01*
X125731037Y-55548627D01*
X125713641Y-55372000D01*
X125731037Y-55195373D01*
X125782557Y-55025534D01*
X125782557Y-55025533D01*
X125866221Y-54869011D01*
X125866222Y-54869009D01*
X125895552Y-54833271D01*
X125978814Y-54731814D01*
X126080271Y-54648552D01*
X126116009Y-54619222D01*
X126133913Y-54609652D01*
X126272533Y-54535557D01*
X126329147Y-54518384D01*
X126442373Y-54484037D01*
X126508557Y-54477519D01*
X126574740Y-54471000D01*
X126663260Y-54471000D01*
X126729443Y-54477519D01*
X126729443Y-54477519D01*
G37*
G36*
X149970442Y-53715518D02*
X150036627Y-53722037D01*
X150149853Y-53756384D01*
X150206467Y-53773557D01*
X150345087Y-53847652D01*
X150362991Y-53857222D01*
X150398729Y-53886552D01*
X150500186Y-53969814D01*
X150583448Y-54071271D01*
X150612778Y-54107009D01*
X150612779Y-54107011D01*
X150696443Y-54263533D01*
X150696443Y-54263534D01*
X150747963Y-54433373D01*
X150765359Y-54610000D01*
X150747963Y-54786627D01*
X150722973Y-54869009D01*
X150696443Y-54956467D01*
X150659526Y-55025533D01*
X150612778Y-55112991D01*
X150583448Y-55148729D01*
X150500186Y-55250186D01*
X150398729Y-55333448D01*
X150362991Y-55362778D01*
X150362989Y-55362779D01*
X150206467Y-55446443D01*
X150149853Y-55463616D01*
X150036627Y-55497963D01*
X149970442Y-55504482D01*
X149904260Y-55511000D01*
X149815740Y-55511000D01*
X149749558Y-55504482D01*
X149683373Y-55497963D01*
X149570147Y-55463616D01*
X149513533Y-55446443D01*
X149357011Y-55362779D01*
X149357009Y-55362778D01*
X149321271Y-55333448D01*
X149219814Y-55250186D01*
X149136552Y-55148729D01*
X149107222Y-55112991D01*
X149060474Y-55025533D01*
X149023557Y-54956467D01*
X148997027Y-54869009D01*
X148972037Y-54786627D01*
X148954641Y-54610000D01*
X148972037Y-54433373D01*
X149023557Y-54263534D01*
X149023557Y-54263533D01*
X149107221Y-54107011D01*
X149107222Y-54107009D01*
X149136552Y-54071271D01*
X149219814Y-53969814D01*
X149321271Y-53886552D01*
X149357009Y-53857222D01*
X149374913Y-53847652D01*
X149513533Y-53773557D01*
X149570147Y-53756384D01*
X149683373Y-53722037D01*
X149749558Y-53715518D01*
X149815740Y-53709000D01*
X149904260Y-53709000D01*
X149970442Y-53715518D01*
X149970442Y-53715518D01*
G37*
G36*
X160130442Y-53715518D02*
X160196627Y-53722037D01*
X160309853Y-53756384D01*
X160366467Y-53773557D01*
X160505087Y-53847652D01*
X160522991Y-53857222D01*
X160558729Y-53886552D01*
X160660186Y-53969814D01*
X160743448Y-54071271D01*
X160772778Y-54107009D01*
X160772779Y-54107011D01*
X160856443Y-54263533D01*
X160856443Y-54263534D01*
X160907963Y-54433373D01*
X160925359Y-54610000D01*
X160907963Y-54786627D01*
X160882973Y-54869009D01*
X160856443Y-54956467D01*
X160819526Y-55025533D01*
X160772778Y-55112991D01*
X160743448Y-55148729D01*
X160660186Y-55250186D01*
X160558729Y-55333448D01*
X160522991Y-55362778D01*
X160522989Y-55362779D01*
X160366467Y-55446443D01*
X160309853Y-55463616D01*
X160196627Y-55497963D01*
X160130442Y-55504482D01*
X160064260Y-55511000D01*
X159975740Y-55511000D01*
X159909558Y-55504482D01*
X159843373Y-55497963D01*
X159730147Y-55463616D01*
X159673533Y-55446443D01*
X159517011Y-55362779D01*
X159517009Y-55362778D01*
X159481271Y-55333448D01*
X159379814Y-55250186D01*
X159296552Y-55148729D01*
X159267222Y-55112991D01*
X159220474Y-55025533D01*
X159183557Y-54956467D01*
X159157027Y-54869009D01*
X159132037Y-54786627D01*
X159114641Y-54610000D01*
X159132037Y-54433373D01*
X159183557Y-54263534D01*
X159183557Y-54263533D01*
X159267221Y-54107011D01*
X159267222Y-54107009D01*
X159296552Y-54071271D01*
X159379814Y-53969814D01*
X159481271Y-53886552D01*
X159517009Y-53857222D01*
X159534913Y-53847652D01*
X159673533Y-53773557D01*
X159730147Y-53756384D01*
X159843373Y-53722037D01*
X159909558Y-53715518D01*
X159975740Y-53709000D01*
X160064260Y-53709000D01*
X160130442Y-53715518D01*
X160130442Y-53715518D01*
G37*
G36*
X167750442Y-53715518D02*
X167816627Y-53722037D01*
X167929853Y-53756384D01*
X167986467Y-53773557D01*
X168125087Y-53847652D01*
X168142991Y-53857222D01*
X168178729Y-53886552D01*
X168280186Y-53969814D01*
X168363448Y-54071271D01*
X168392778Y-54107009D01*
X168392779Y-54107011D01*
X168476443Y-54263533D01*
X168476443Y-54263534D01*
X168527963Y-54433373D01*
X168545359Y-54610000D01*
X168527963Y-54786627D01*
X168502973Y-54869009D01*
X168476443Y-54956467D01*
X168439526Y-55025533D01*
X168392778Y-55112991D01*
X168363448Y-55148729D01*
X168280186Y-55250186D01*
X168178729Y-55333448D01*
X168142991Y-55362778D01*
X168142989Y-55362779D01*
X167986467Y-55446443D01*
X167929853Y-55463616D01*
X167816627Y-55497963D01*
X167750442Y-55504482D01*
X167684260Y-55511000D01*
X167595740Y-55511000D01*
X167529558Y-55504482D01*
X167463373Y-55497963D01*
X167350147Y-55463616D01*
X167293533Y-55446443D01*
X167137011Y-55362779D01*
X167137009Y-55362778D01*
X167101271Y-55333448D01*
X166999814Y-55250186D01*
X166916552Y-55148729D01*
X166887222Y-55112991D01*
X166840474Y-55025533D01*
X166803557Y-54956467D01*
X166777027Y-54869009D01*
X166752037Y-54786627D01*
X166734641Y-54610000D01*
X166752037Y-54433373D01*
X166803557Y-54263534D01*
X166803557Y-54263533D01*
X166887221Y-54107011D01*
X166887222Y-54107009D01*
X166916552Y-54071271D01*
X166999814Y-53969814D01*
X167101271Y-53886552D01*
X167137009Y-53857222D01*
X167154913Y-53847652D01*
X167293533Y-53773557D01*
X167350147Y-53756384D01*
X167463373Y-53722037D01*
X167529558Y-53715518D01*
X167595740Y-53709000D01*
X167684260Y-53709000D01*
X167750442Y-53715518D01*
X167750442Y-53715518D01*
G37*
G36*
X97421000Y-54749000D02*
X95619000Y-54749000D01*
X95619000Y-52947000D01*
X97421000Y-52947000D01*
X97421000Y-54749000D01*
X97421000Y-54749000D01*
G37*
G36*
X89801000Y-54749000D02*
X87999000Y-54749000D01*
X87999000Y-52947000D01*
X89801000Y-52947000D01*
X89801000Y-54749000D01*
X89801000Y-54749000D01*
G37*
G36*
X82181000Y-54749000D02*
X80379000Y-54749000D01*
X80379000Y-52947000D01*
X82181000Y-52947000D01*
X82181000Y-54749000D01*
X82181000Y-54749000D01*
G37*
G36*
X126729443Y-51937519D02*
X126795627Y-51944037D01*
X126908853Y-51978384D01*
X126965467Y-51995557D01*
X127087485Y-52060778D01*
X127121991Y-52079222D01*
X127157729Y-52108552D01*
X127259186Y-52191814D01*
X127342448Y-52293271D01*
X127371778Y-52329009D01*
X127371779Y-52329011D01*
X127455443Y-52485533D01*
X127455443Y-52485534D01*
X127506963Y-52655373D01*
X127524359Y-52832000D01*
X127506963Y-53008627D01*
X127472616Y-53121853D01*
X127455443Y-53178467D01*
X127381348Y-53317087D01*
X127371778Y-53334991D01*
X127342448Y-53370729D01*
X127259186Y-53472186D01*
X127157729Y-53555448D01*
X127121991Y-53584778D01*
X127121989Y-53584779D01*
X126965467Y-53668443D01*
X126908853Y-53685616D01*
X126795627Y-53719963D01*
X126729443Y-53726481D01*
X126663260Y-53733000D01*
X126574740Y-53733000D01*
X126508557Y-53726481D01*
X126442373Y-53719963D01*
X126329147Y-53685616D01*
X126272533Y-53668443D01*
X126116011Y-53584779D01*
X126116009Y-53584778D01*
X126080271Y-53555448D01*
X125978814Y-53472186D01*
X125895552Y-53370729D01*
X125866222Y-53334991D01*
X125856652Y-53317087D01*
X125782557Y-53178467D01*
X125765384Y-53121853D01*
X125731037Y-53008627D01*
X125713641Y-52832000D01*
X125731037Y-52655373D01*
X125782557Y-52485534D01*
X125782557Y-52485533D01*
X125866221Y-52329011D01*
X125866222Y-52329009D01*
X125895552Y-52293271D01*
X125978814Y-52191814D01*
X126080271Y-52108552D01*
X126116009Y-52079222D01*
X126150515Y-52060778D01*
X126272533Y-51995557D01*
X126329147Y-51978384D01*
X126442373Y-51944037D01*
X126508557Y-51937519D01*
X126574740Y-51931000D01*
X126663260Y-51931000D01*
X126729443Y-51937519D01*
X126729443Y-51937519D01*
G37*
G36*
X108949443Y-51937519D02*
X109015627Y-51944037D01*
X109128853Y-51978384D01*
X109185467Y-51995557D01*
X109307485Y-52060778D01*
X109341991Y-52079222D01*
X109377729Y-52108552D01*
X109479186Y-52191814D01*
X109562448Y-52293271D01*
X109591778Y-52329009D01*
X109591779Y-52329011D01*
X109675443Y-52485533D01*
X109675443Y-52485534D01*
X109726963Y-52655373D01*
X109744359Y-52832000D01*
X109726963Y-53008627D01*
X109692616Y-53121853D01*
X109675443Y-53178467D01*
X109601348Y-53317087D01*
X109591778Y-53334991D01*
X109562448Y-53370729D01*
X109479186Y-53472186D01*
X109377729Y-53555448D01*
X109341991Y-53584778D01*
X109341989Y-53584779D01*
X109185467Y-53668443D01*
X109128853Y-53685616D01*
X109015627Y-53719963D01*
X108949443Y-53726481D01*
X108883260Y-53733000D01*
X108794740Y-53733000D01*
X108728557Y-53726481D01*
X108662373Y-53719963D01*
X108549147Y-53685616D01*
X108492533Y-53668443D01*
X108336011Y-53584779D01*
X108336009Y-53584778D01*
X108300271Y-53555448D01*
X108198814Y-53472186D01*
X108115552Y-53370729D01*
X108086222Y-53334991D01*
X108076652Y-53317087D01*
X108002557Y-53178467D01*
X107985384Y-53121853D01*
X107951037Y-53008627D01*
X107933641Y-52832000D01*
X107951037Y-52655373D01*
X108002557Y-52485534D01*
X108002557Y-52485533D01*
X108086221Y-52329011D01*
X108086222Y-52329009D01*
X108115552Y-52293271D01*
X108198814Y-52191814D01*
X108300271Y-52108552D01*
X108336009Y-52079222D01*
X108370515Y-52060778D01*
X108492533Y-51995557D01*
X108549147Y-51978384D01*
X108662373Y-51944037D01*
X108728557Y-51937519D01*
X108794740Y-51931000D01*
X108883260Y-51931000D01*
X108949443Y-51937519D01*
X108949443Y-51937519D01*
G37*
G36*
X168541000Y-52971000D02*
X166739000Y-52971000D01*
X166739000Y-51169000D01*
X168541000Y-51169000D01*
X168541000Y-52971000D01*
X168541000Y-52971000D01*
G37*
G36*
X160130443Y-51175519D02*
X160196627Y-51182037D01*
X160283257Y-51208316D01*
X160366467Y-51233557D01*
X160505087Y-51307652D01*
X160522991Y-51317222D01*
X160558729Y-51346552D01*
X160660186Y-51429814D01*
X160743448Y-51531271D01*
X160772778Y-51567009D01*
X160772779Y-51567011D01*
X160856443Y-51723533D01*
X160856443Y-51723534D01*
X160907963Y-51893373D01*
X160925359Y-52070000D01*
X160907963Y-52246627D01*
X160882973Y-52329009D01*
X160856443Y-52416467D01*
X160819526Y-52485533D01*
X160772778Y-52572991D01*
X160743448Y-52608729D01*
X160660186Y-52710186D01*
X160558729Y-52793448D01*
X160522991Y-52822778D01*
X160522989Y-52822779D01*
X160366467Y-52906443D01*
X160309853Y-52923616D01*
X160196627Y-52957963D01*
X160130442Y-52964482D01*
X160064260Y-52971000D01*
X159975740Y-52971000D01*
X159909558Y-52964482D01*
X159843373Y-52957963D01*
X159730147Y-52923616D01*
X159673533Y-52906443D01*
X159517011Y-52822779D01*
X159517009Y-52822778D01*
X159481271Y-52793448D01*
X159379814Y-52710186D01*
X159296552Y-52608729D01*
X159267222Y-52572991D01*
X159220474Y-52485533D01*
X159183557Y-52416467D01*
X159157027Y-52329009D01*
X159132037Y-52246627D01*
X159114641Y-52070000D01*
X159132037Y-51893373D01*
X159183557Y-51723534D01*
X159183557Y-51723533D01*
X159267221Y-51567011D01*
X159267222Y-51567009D01*
X159296552Y-51531271D01*
X159379814Y-51429814D01*
X159481271Y-51346552D01*
X159517009Y-51317222D01*
X159534913Y-51307652D01*
X159673533Y-51233557D01*
X159756743Y-51208316D01*
X159843373Y-51182037D01*
X159909557Y-51175519D01*
X159975740Y-51169000D01*
X160064260Y-51169000D01*
X160130443Y-51175519D01*
X160130443Y-51175519D01*
G37*
G36*
X149970443Y-51175519D02*
X150036627Y-51182037D01*
X150123257Y-51208316D01*
X150206467Y-51233557D01*
X150345087Y-51307652D01*
X150362991Y-51317222D01*
X150398729Y-51346552D01*
X150500186Y-51429814D01*
X150583448Y-51531271D01*
X150612778Y-51567009D01*
X150612779Y-51567011D01*
X150696443Y-51723533D01*
X150696443Y-51723534D01*
X150747963Y-51893373D01*
X150765359Y-52070000D01*
X150747963Y-52246627D01*
X150722973Y-52329009D01*
X150696443Y-52416467D01*
X150659526Y-52485533D01*
X150612778Y-52572991D01*
X150583448Y-52608729D01*
X150500186Y-52710186D01*
X150398729Y-52793448D01*
X150362991Y-52822778D01*
X150362989Y-52822779D01*
X150206467Y-52906443D01*
X150149853Y-52923616D01*
X150036627Y-52957963D01*
X149970442Y-52964482D01*
X149904260Y-52971000D01*
X149815740Y-52971000D01*
X149749558Y-52964482D01*
X149683373Y-52957963D01*
X149570147Y-52923616D01*
X149513533Y-52906443D01*
X149357011Y-52822779D01*
X149357009Y-52822778D01*
X149321271Y-52793448D01*
X149219814Y-52710186D01*
X149136552Y-52608729D01*
X149107222Y-52572991D01*
X149060474Y-52485533D01*
X149023557Y-52416467D01*
X148997027Y-52329009D01*
X148972037Y-52246627D01*
X148954641Y-52070000D01*
X148972037Y-51893373D01*
X149023557Y-51723534D01*
X149023557Y-51723533D01*
X149107221Y-51567011D01*
X149107222Y-51567009D01*
X149136552Y-51531271D01*
X149219814Y-51429814D01*
X149321271Y-51346552D01*
X149357009Y-51317222D01*
X149374913Y-51307652D01*
X149513533Y-51233557D01*
X149596743Y-51208316D01*
X149683373Y-51182037D01*
X149749557Y-51175519D01*
X149815740Y-51169000D01*
X149904260Y-51169000D01*
X149970443Y-51175519D01*
X149970443Y-51175519D01*
G37*
G36*
X81390443Y-50413519D02*
X81456627Y-50420037D01*
X81569853Y-50454384D01*
X81626467Y-50471557D01*
X81765087Y-50545652D01*
X81782991Y-50555222D01*
X81818729Y-50584552D01*
X81920186Y-50667814D01*
X82003448Y-50769271D01*
X82032778Y-50805009D01*
X82032779Y-50805011D01*
X82116443Y-50961533D01*
X82116443Y-50961534D01*
X82167963Y-51131373D01*
X82185359Y-51308000D01*
X82167963Y-51484627D01*
X82142973Y-51567009D01*
X82116443Y-51654467D01*
X82042348Y-51793087D01*
X82032778Y-51810991D01*
X82003448Y-51846729D01*
X81920186Y-51948186D01*
X81818729Y-52031448D01*
X81782991Y-52060778D01*
X81782989Y-52060779D01*
X81626467Y-52144443D01*
X81589027Y-52155800D01*
X81456627Y-52195963D01*
X81390443Y-52202481D01*
X81324260Y-52209000D01*
X81235740Y-52209000D01*
X81169557Y-52202481D01*
X81103373Y-52195963D01*
X80970973Y-52155800D01*
X80933533Y-52144443D01*
X80777011Y-52060779D01*
X80777009Y-52060778D01*
X80741271Y-52031448D01*
X80639814Y-51948186D01*
X80556552Y-51846729D01*
X80527222Y-51810991D01*
X80517652Y-51793087D01*
X80443557Y-51654467D01*
X80417027Y-51567009D01*
X80392037Y-51484627D01*
X80374641Y-51308000D01*
X80392037Y-51131373D01*
X80443557Y-50961534D01*
X80443557Y-50961533D01*
X80527221Y-50805011D01*
X80527222Y-50805009D01*
X80556552Y-50769271D01*
X80639814Y-50667814D01*
X80741271Y-50584552D01*
X80777009Y-50555222D01*
X80794913Y-50545652D01*
X80933533Y-50471557D01*
X80990147Y-50454384D01*
X81103373Y-50420037D01*
X81169558Y-50413518D01*
X81235740Y-50407000D01*
X81324260Y-50407000D01*
X81390443Y-50413519D01*
X81390443Y-50413519D01*
G37*
G36*
X89010443Y-50413519D02*
X89076627Y-50420037D01*
X89189853Y-50454384D01*
X89246467Y-50471557D01*
X89385087Y-50545652D01*
X89402991Y-50555222D01*
X89438729Y-50584552D01*
X89540186Y-50667814D01*
X89623448Y-50769271D01*
X89652778Y-50805009D01*
X89652779Y-50805011D01*
X89736443Y-50961533D01*
X89736443Y-50961534D01*
X89787963Y-51131373D01*
X89805359Y-51308000D01*
X89787963Y-51484627D01*
X89762973Y-51567009D01*
X89736443Y-51654467D01*
X89662348Y-51793087D01*
X89652778Y-51810991D01*
X89623448Y-51846729D01*
X89540186Y-51948186D01*
X89438729Y-52031448D01*
X89402991Y-52060778D01*
X89402989Y-52060779D01*
X89246467Y-52144443D01*
X89209027Y-52155800D01*
X89076627Y-52195963D01*
X89010443Y-52202481D01*
X88944260Y-52209000D01*
X88855740Y-52209000D01*
X88789557Y-52202481D01*
X88723373Y-52195963D01*
X88590973Y-52155800D01*
X88553533Y-52144443D01*
X88397011Y-52060779D01*
X88397009Y-52060778D01*
X88361271Y-52031448D01*
X88259814Y-51948186D01*
X88176552Y-51846729D01*
X88147222Y-51810991D01*
X88137652Y-51793087D01*
X88063557Y-51654467D01*
X88037027Y-51567009D01*
X88012037Y-51484627D01*
X87994641Y-51308000D01*
X88012037Y-51131373D01*
X88063557Y-50961534D01*
X88063557Y-50961533D01*
X88147221Y-50805011D01*
X88147222Y-50805009D01*
X88176552Y-50769271D01*
X88259814Y-50667814D01*
X88361271Y-50584552D01*
X88397009Y-50555222D01*
X88414913Y-50545652D01*
X88553533Y-50471557D01*
X88610147Y-50454384D01*
X88723373Y-50420037D01*
X88789558Y-50413518D01*
X88855740Y-50407000D01*
X88944260Y-50407000D01*
X89010443Y-50413519D01*
X89010443Y-50413519D01*
G37*
G36*
X96630443Y-50413519D02*
X96696627Y-50420037D01*
X96809853Y-50454384D01*
X96866467Y-50471557D01*
X97005087Y-50545652D01*
X97022991Y-50555222D01*
X97058729Y-50584552D01*
X97160186Y-50667814D01*
X97243448Y-50769271D01*
X97272778Y-50805009D01*
X97272779Y-50805011D01*
X97356443Y-50961533D01*
X97356443Y-50961534D01*
X97407963Y-51131373D01*
X97425359Y-51308000D01*
X97407963Y-51484627D01*
X97382973Y-51567009D01*
X97356443Y-51654467D01*
X97282348Y-51793087D01*
X97272778Y-51810991D01*
X97243448Y-51846729D01*
X97160186Y-51948186D01*
X97058729Y-52031448D01*
X97022991Y-52060778D01*
X97022989Y-52060779D01*
X96866467Y-52144443D01*
X96829027Y-52155800D01*
X96696627Y-52195963D01*
X96630443Y-52202481D01*
X96564260Y-52209000D01*
X96475740Y-52209000D01*
X96409557Y-52202481D01*
X96343373Y-52195963D01*
X96210973Y-52155800D01*
X96173533Y-52144443D01*
X96017011Y-52060779D01*
X96017009Y-52060778D01*
X95981271Y-52031448D01*
X95879814Y-51948186D01*
X95796552Y-51846729D01*
X95767222Y-51810991D01*
X95757652Y-51793087D01*
X95683557Y-51654467D01*
X95657027Y-51567009D01*
X95632037Y-51484627D01*
X95614641Y-51308000D01*
X95632037Y-51131373D01*
X95683557Y-50961534D01*
X95683557Y-50961533D01*
X95767221Y-50805011D01*
X95767222Y-50805009D01*
X95796552Y-50769271D01*
X95879814Y-50667814D01*
X95981271Y-50584552D01*
X96017009Y-50555222D01*
X96034913Y-50545652D01*
X96173533Y-50471557D01*
X96230147Y-50454384D01*
X96343373Y-50420037D01*
X96409558Y-50413518D01*
X96475740Y-50407000D01*
X96564260Y-50407000D01*
X96630443Y-50413519D01*
X96630443Y-50413519D01*
G37*
G36*
X141280765Y-50094189D02*
X141472034Y-50173415D01*
X141644176Y-50288437D01*
X141790563Y-50434824D01*
X141905585Y-50606966D01*
X141984811Y-50798235D01*
X142025200Y-51001284D01*
X142025200Y-51208316D01*
X141984811Y-51411365D01*
X141905585Y-51602634D01*
X141790563Y-51774776D01*
X141644176Y-51921163D01*
X141472034Y-52036185D01*
X141280765Y-52115411D01*
X141077716Y-52155800D01*
X140870684Y-52155800D01*
X140667635Y-52115411D01*
X140476366Y-52036185D01*
X140304224Y-51921163D01*
X140157837Y-51774776D01*
X140042815Y-51602634D01*
X139963589Y-51411365D01*
X139923200Y-51208316D01*
X139923200Y-51001284D01*
X139963589Y-50798235D01*
X140042815Y-50606966D01*
X140157837Y-50434824D01*
X140304224Y-50288437D01*
X140476366Y-50173415D01*
X140667635Y-50094189D01*
X140870684Y-50053800D01*
X141077716Y-50053800D01*
X141280765Y-50094189D01*
X141280765Y-50094189D01*
G37*
G36*
X136780765Y-50094189D02*
X136972034Y-50173415D01*
X137144176Y-50288437D01*
X137290563Y-50434824D01*
X137405585Y-50606966D01*
X137484811Y-50798235D01*
X137525200Y-51001284D01*
X137525200Y-51208316D01*
X137484811Y-51411365D01*
X137405585Y-51602634D01*
X137290563Y-51774776D01*
X137144176Y-51921163D01*
X136972034Y-52036185D01*
X136780765Y-52115411D01*
X136577716Y-52155800D01*
X136370684Y-52155800D01*
X136167635Y-52115411D01*
X135976366Y-52036185D01*
X135804224Y-51921163D01*
X135657837Y-51774776D01*
X135542815Y-51602634D01*
X135463589Y-51411365D01*
X135423200Y-51208316D01*
X135423200Y-51001284D01*
X135463589Y-50798235D01*
X135542815Y-50606966D01*
X135657837Y-50434824D01*
X135804224Y-50288437D01*
X135976366Y-50173415D01*
X136167635Y-50094189D01*
X136370684Y-50053800D01*
X136577716Y-50053800D01*
X136780765Y-50094189D01*
X136780765Y-50094189D01*
G37*
G36*
X108949442Y-49397518D02*
X109015627Y-49404037D01*
X109128853Y-49438384D01*
X109185467Y-49455557D01*
X109307485Y-49520778D01*
X109341991Y-49539222D01*
X109377729Y-49568552D01*
X109479186Y-49651814D01*
X109562448Y-49753271D01*
X109591778Y-49789009D01*
X109591779Y-49789011D01*
X109675443Y-49945533D01*
X109675443Y-49945534D01*
X109726963Y-50115373D01*
X109744359Y-50292000D01*
X109726963Y-50468627D01*
X109726074Y-50471557D01*
X109675443Y-50638467D01*
X109659756Y-50667814D01*
X109591778Y-50794991D01*
X109562448Y-50830729D01*
X109479186Y-50932186D01*
X109394986Y-51001286D01*
X109341991Y-51044778D01*
X109341989Y-51044779D01*
X109185467Y-51128443D01*
X109128853Y-51145616D01*
X109015627Y-51179963D01*
X108949443Y-51186481D01*
X108883260Y-51193000D01*
X108794740Y-51193000D01*
X108728558Y-51186482D01*
X108662373Y-51179963D01*
X108549147Y-51145616D01*
X108492533Y-51128443D01*
X108336011Y-51044779D01*
X108336009Y-51044778D01*
X108283014Y-51001286D01*
X108198814Y-50932186D01*
X108115552Y-50830729D01*
X108086222Y-50794991D01*
X108018244Y-50667814D01*
X108002557Y-50638467D01*
X107951926Y-50471557D01*
X107951037Y-50468627D01*
X107933641Y-50292000D01*
X107951037Y-50115373D01*
X108002557Y-49945534D01*
X108002557Y-49945533D01*
X108086221Y-49789011D01*
X108086222Y-49789009D01*
X108115552Y-49753271D01*
X108198814Y-49651814D01*
X108300271Y-49568552D01*
X108336009Y-49539222D01*
X108370515Y-49520778D01*
X108492533Y-49455557D01*
X108549147Y-49438384D01*
X108662373Y-49404037D01*
X108728558Y-49397518D01*
X108794740Y-49391000D01*
X108883260Y-49391000D01*
X108949442Y-49397518D01*
X108949442Y-49397518D01*
G37*
G36*
X126729442Y-49397518D02*
X126795627Y-49404037D01*
X126908853Y-49438384D01*
X126965467Y-49455557D01*
X127087485Y-49520778D01*
X127121991Y-49539222D01*
X127157729Y-49568552D01*
X127259186Y-49651814D01*
X127342448Y-49753271D01*
X127371778Y-49789009D01*
X127371779Y-49789011D01*
X127455443Y-49945533D01*
X127455443Y-49945534D01*
X127506963Y-50115373D01*
X127524359Y-50292000D01*
X127506963Y-50468627D01*
X127506074Y-50471557D01*
X127455443Y-50638467D01*
X127439756Y-50667814D01*
X127371778Y-50794991D01*
X127342448Y-50830729D01*
X127259186Y-50932186D01*
X127174986Y-51001286D01*
X127121991Y-51044778D01*
X127121989Y-51044779D01*
X126965467Y-51128443D01*
X126908853Y-51145616D01*
X126795627Y-51179963D01*
X126729443Y-51186481D01*
X126663260Y-51193000D01*
X126574740Y-51193000D01*
X126508558Y-51186482D01*
X126442373Y-51179963D01*
X126329147Y-51145616D01*
X126272533Y-51128443D01*
X126116011Y-51044779D01*
X126116009Y-51044778D01*
X126063014Y-51001286D01*
X125978814Y-50932186D01*
X125895552Y-50830729D01*
X125866222Y-50794991D01*
X125798244Y-50667814D01*
X125782557Y-50638467D01*
X125731926Y-50471557D01*
X125731037Y-50468627D01*
X125713641Y-50292000D01*
X125731037Y-50115373D01*
X125782557Y-49945534D01*
X125782557Y-49945533D01*
X125866221Y-49789011D01*
X125866222Y-49789009D01*
X125895552Y-49753271D01*
X125978814Y-49651814D01*
X126080271Y-49568552D01*
X126116009Y-49539222D01*
X126150515Y-49520778D01*
X126272533Y-49455557D01*
X126329147Y-49438384D01*
X126442373Y-49404037D01*
X126508558Y-49397518D01*
X126574740Y-49391000D01*
X126663260Y-49391000D01*
X126729442Y-49397518D01*
X126729442Y-49397518D01*
G37*
G36*
X89010442Y-47873518D02*
X89076627Y-47880037D01*
X89189853Y-47914384D01*
X89246467Y-47931557D01*
X89385087Y-48005652D01*
X89402991Y-48015222D01*
X89438729Y-48044552D01*
X89540186Y-48127814D01*
X89623448Y-48229271D01*
X89652778Y-48265009D01*
X89652779Y-48265011D01*
X89736443Y-48421533D01*
X89736443Y-48421534D01*
X89787963Y-48591373D01*
X89805359Y-48768000D01*
X89787963Y-48944627D01*
X89753616Y-49057853D01*
X89736443Y-49114467D01*
X89662348Y-49253087D01*
X89652778Y-49270991D01*
X89623448Y-49306729D01*
X89540186Y-49408186D01*
X89438729Y-49491448D01*
X89402991Y-49520778D01*
X89402989Y-49520779D01*
X89246467Y-49604443D01*
X89189853Y-49621616D01*
X89076627Y-49655963D01*
X89010442Y-49662482D01*
X88944260Y-49669000D01*
X88855740Y-49669000D01*
X88789558Y-49662482D01*
X88723373Y-49655963D01*
X88610147Y-49621616D01*
X88553533Y-49604443D01*
X88397011Y-49520779D01*
X88397009Y-49520778D01*
X88361271Y-49491448D01*
X88259814Y-49408186D01*
X88176552Y-49306729D01*
X88147222Y-49270991D01*
X88137652Y-49253087D01*
X88063557Y-49114467D01*
X88046384Y-49057853D01*
X88012037Y-48944627D01*
X87994641Y-48768000D01*
X88012037Y-48591373D01*
X88063557Y-48421534D01*
X88063557Y-48421533D01*
X88147221Y-48265011D01*
X88147222Y-48265009D01*
X88176552Y-48229271D01*
X88259814Y-48127814D01*
X88361271Y-48044552D01*
X88397009Y-48015222D01*
X88414913Y-48005652D01*
X88553533Y-47931557D01*
X88610147Y-47914384D01*
X88723373Y-47880037D01*
X88789558Y-47873518D01*
X88855740Y-47867000D01*
X88944260Y-47867000D01*
X89010442Y-47873518D01*
X89010442Y-47873518D01*
G37*
G36*
X96630442Y-47873518D02*
X96696627Y-47880037D01*
X96809853Y-47914384D01*
X96866467Y-47931557D01*
X97005087Y-48005652D01*
X97022991Y-48015222D01*
X97058729Y-48044552D01*
X97160186Y-48127814D01*
X97243448Y-48229271D01*
X97272778Y-48265009D01*
X97272779Y-48265011D01*
X97356443Y-48421533D01*
X97356443Y-48421534D01*
X97407963Y-48591373D01*
X97425359Y-48768000D01*
X97407963Y-48944627D01*
X97373616Y-49057853D01*
X97356443Y-49114467D01*
X97282348Y-49253087D01*
X97272778Y-49270991D01*
X97243448Y-49306729D01*
X97160186Y-49408186D01*
X97058729Y-49491448D01*
X97022991Y-49520778D01*
X97022989Y-49520779D01*
X96866467Y-49604443D01*
X96809853Y-49621616D01*
X96696627Y-49655963D01*
X96630442Y-49662482D01*
X96564260Y-49669000D01*
X96475740Y-49669000D01*
X96409558Y-49662482D01*
X96343373Y-49655963D01*
X96230147Y-49621616D01*
X96173533Y-49604443D01*
X96017011Y-49520779D01*
X96017009Y-49520778D01*
X95981271Y-49491448D01*
X95879814Y-49408186D01*
X95796552Y-49306729D01*
X95767222Y-49270991D01*
X95757652Y-49253087D01*
X95683557Y-49114467D01*
X95666384Y-49057853D01*
X95632037Y-48944627D01*
X95614641Y-48768000D01*
X95632037Y-48591373D01*
X95683557Y-48421534D01*
X95683557Y-48421533D01*
X95767221Y-48265011D01*
X95767222Y-48265009D01*
X95796552Y-48229271D01*
X95879814Y-48127814D01*
X95981271Y-48044552D01*
X96017009Y-48015222D01*
X96034913Y-48005652D01*
X96173533Y-47931557D01*
X96230147Y-47914384D01*
X96343373Y-47880037D01*
X96409558Y-47873518D01*
X96475740Y-47867000D01*
X96564260Y-47867000D01*
X96630442Y-47873518D01*
X96630442Y-47873518D01*
G37*
G36*
X81390442Y-47873518D02*
X81456627Y-47880037D01*
X81569853Y-47914384D01*
X81626467Y-47931557D01*
X81765087Y-48005652D01*
X81782991Y-48015222D01*
X81818729Y-48044552D01*
X81920186Y-48127814D01*
X82003448Y-48229271D01*
X82032778Y-48265009D01*
X82032779Y-48265011D01*
X82116443Y-48421533D01*
X82116443Y-48421534D01*
X82167963Y-48591373D01*
X82185359Y-48768000D01*
X82167963Y-48944627D01*
X82133616Y-49057853D01*
X82116443Y-49114467D01*
X82042348Y-49253087D01*
X82032778Y-49270991D01*
X82003448Y-49306729D01*
X81920186Y-49408186D01*
X81818729Y-49491448D01*
X81782991Y-49520778D01*
X81782989Y-49520779D01*
X81626467Y-49604443D01*
X81569853Y-49621616D01*
X81456627Y-49655963D01*
X81390442Y-49662482D01*
X81324260Y-49669000D01*
X81235740Y-49669000D01*
X81169558Y-49662482D01*
X81103373Y-49655963D01*
X80990147Y-49621616D01*
X80933533Y-49604443D01*
X80777011Y-49520779D01*
X80777009Y-49520778D01*
X80741271Y-49491448D01*
X80639814Y-49408186D01*
X80556552Y-49306729D01*
X80527222Y-49270991D01*
X80517652Y-49253087D01*
X80443557Y-49114467D01*
X80426384Y-49057853D01*
X80392037Y-48944627D01*
X80374641Y-48768000D01*
X80392037Y-48591373D01*
X80443557Y-48421534D01*
X80443557Y-48421533D01*
X80527221Y-48265011D01*
X80527222Y-48265009D01*
X80556552Y-48229271D01*
X80639814Y-48127814D01*
X80741271Y-48044552D01*
X80777009Y-48015222D01*
X80794913Y-48005652D01*
X80933533Y-47931557D01*
X80990147Y-47914384D01*
X81103373Y-47880037D01*
X81169558Y-47873518D01*
X81235740Y-47867000D01*
X81324260Y-47867000D01*
X81390442Y-47873518D01*
X81390442Y-47873518D01*
G37*
G36*
X126729442Y-46857518D02*
X126795627Y-46864037D01*
X126908853Y-46898384D01*
X126965467Y-46915557D01*
X127087485Y-46980778D01*
X127121991Y-46999222D01*
X127157729Y-47028552D01*
X127259186Y-47111814D01*
X127342448Y-47213271D01*
X127371778Y-47249009D01*
X127371779Y-47249011D01*
X127455443Y-47405533D01*
X127455443Y-47405534D01*
X127506963Y-47575373D01*
X127524359Y-47752000D01*
X127506963Y-47928627D01*
X127506074Y-47931557D01*
X127455443Y-48098467D01*
X127439756Y-48127814D01*
X127371778Y-48254991D01*
X127342448Y-48290729D01*
X127259186Y-48392186D01*
X127157729Y-48475448D01*
X127121991Y-48504778D01*
X127121989Y-48504779D01*
X126965467Y-48588443D01*
X126908853Y-48605616D01*
X126795627Y-48639963D01*
X126729443Y-48646481D01*
X126663260Y-48653000D01*
X126574740Y-48653000D01*
X126508557Y-48646481D01*
X126442373Y-48639963D01*
X126329147Y-48605616D01*
X126272533Y-48588443D01*
X126116011Y-48504779D01*
X126116009Y-48504778D01*
X126080271Y-48475448D01*
X125978814Y-48392186D01*
X125895552Y-48290729D01*
X125866222Y-48254991D01*
X125798244Y-48127814D01*
X125782557Y-48098467D01*
X125731926Y-47931557D01*
X125731037Y-47928627D01*
X125713641Y-47752000D01*
X125731037Y-47575373D01*
X125782557Y-47405534D01*
X125782557Y-47405533D01*
X125866221Y-47249011D01*
X125866222Y-47249009D01*
X125895552Y-47213271D01*
X125978814Y-47111814D01*
X126080271Y-47028552D01*
X126116009Y-46999222D01*
X126150515Y-46980778D01*
X126272533Y-46915557D01*
X126329147Y-46898384D01*
X126442373Y-46864037D01*
X126508557Y-46857519D01*
X126574740Y-46851000D01*
X126663260Y-46851000D01*
X126729442Y-46857518D01*
X126729442Y-46857518D01*
G37*
G36*
X108949442Y-46857518D02*
X109015627Y-46864037D01*
X109128853Y-46898384D01*
X109185467Y-46915557D01*
X109307485Y-46980778D01*
X109341991Y-46999222D01*
X109377729Y-47028552D01*
X109479186Y-47111814D01*
X109562448Y-47213271D01*
X109591778Y-47249009D01*
X109591779Y-47249011D01*
X109675443Y-47405533D01*
X109675443Y-47405534D01*
X109726963Y-47575373D01*
X109744359Y-47752000D01*
X109726963Y-47928627D01*
X109726074Y-47931557D01*
X109675443Y-48098467D01*
X109659756Y-48127814D01*
X109591778Y-48254991D01*
X109562448Y-48290729D01*
X109479186Y-48392186D01*
X109377729Y-48475448D01*
X109341991Y-48504778D01*
X109341989Y-48504779D01*
X109185467Y-48588443D01*
X109128853Y-48605616D01*
X109015627Y-48639963D01*
X108949443Y-48646481D01*
X108883260Y-48653000D01*
X108794740Y-48653000D01*
X108728557Y-48646481D01*
X108662373Y-48639963D01*
X108549147Y-48605616D01*
X108492533Y-48588443D01*
X108336011Y-48504779D01*
X108336009Y-48504778D01*
X108300271Y-48475448D01*
X108198814Y-48392186D01*
X108115552Y-48290729D01*
X108086222Y-48254991D01*
X108018244Y-48127814D01*
X108002557Y-48098467D01*
X107951926Y-47931557D01*
X107951037Y-47928627D01*
X107933641Y-47752000D01*
X107951037Y-47575373D01*
X108002557Y-47405534D01*
X108002557Y-47405533D01*
X108086221Y-47249011D01*
X108086222Y-47249009D01*
X108115552Y-47213271D01*
X108198814Y-47111814D01*
X108300271Y-47028552D01*
X108336009Y-46999222D01*
X108370515Y-46980778D01*
X108492533Y-46915557D01*
X108549147Y-46898384D01*
X108662373Y-46864037D01*
X108728557Y-46857519D01*
X108794740Y-46851000D01*
X108883260Y-46851000D01*
X108949442Y-46857518D01*
X108949442Y-46857518D01*
G37*
G36*
X96630442Y-45333518D02*
X96696627Y-45340037D01*
X96809853Y-45374384D01*
X96866467Y-45391557D01*
X97005087Y-45465652D01*
X97022991Y-45475222D01*
X97058729Y-45504552D01*
X97160186Y-45587814D01*
X97243448Y-45689271D01*
X97272778Y-45725009D01*
X97272779Y-45725011D01*
X97356443Y-45881533D01*
X97356443Y-45881534D01*
X97407963Y-46051373D01*
X97425359Y-46228000D01*
X97407963Y-46404627D01*
X97373616Y-46517853D01*
X97356443Y-46574467D01*
X97282348Y-46713087D01*
X97272778Y-46730991D01*
X97243448Y-46766729D01*
X97160186Y-46868186D01*
X97058729Y-46951448D01*
X97022991Y-46980778D01*
X97022989Y-46980779D01*
X96866467Y-47064443D01*
X96809853Y-47081616D01*
X96696627Y-47115963D01*
X96630442Y-47122482D01*
X96564260Y-47129000D01*
X96475740Y-47129000D01*
X96409558Y-47122482D01*
X96343373Y-47115963D01*
X96230147Y-47081616D01*
X96173533Y-47064443D01*
X96017011Y-46980779D01*
X96017009Y-46980778D01*
X95981271Y-46951448D01*
X95879814Y-46868186D01*
X95796552Y-46766729D01*
X95767222Y-46730991D01*
X95757652Y-46713087D01*
X95683557Y-46574467D01*
X95666384Y-46517853D01*
X95632037Y-46404627D01*
X95614641Y-46228000D01*
X95632037Y-46051373D01*
X95683557Y-45881534D01*
X95683557Y-45881533D01*
X95767221Y-45725011D01*
X95767222Y-45725009D01*
X95796552Y-45689271D01*
X95879814Y-45587814D01*
X95981271Y-45504552D01*
X96017009Y-45475222D01*
X96034913Y-45465652D01*
X96173533Y-45391557D01*
X96230147Y-45374384D01*
X96343373Y-45340037D01*
X96409557Y-45333519D01*
X96475740Y-45327000D01*
X96564260Y-45327000D01*
X96630442Y-45333518D01*
X96630442Y-45333518D01*
G37*
G36*
X89010442Y-45333518D02*
X89076627Y-45340037D01*
X89189853Y-45374384D01*
X89246467Y-45391557D01*
X89385087Y-45465652D01*
X89402991Y-45475222D01*
X89438729Y-45504552D01*
X89540186Y-45587814D01*
X89623448Y-45689271D01*
X89652778Y-45725009D01*
X89652779Y-45725011D01*
X89736443Y-45881533D01*
X89736443Y-45881534D01*
X89787963Y-46051373D01*
X89805359Y-46228000D01*
X89787963Y-46404627D01*
X89753616Y-46517853D01*
X89736443Y-46574467D01*
X89662348Y-46713087D01*
X89652778Y-46730991D01*
X89623448Y-46766729D01*
X89540186Y-46868186D01*
X89438729Y-46951448D01*
X89402991Y-46980778D01*
X89402989Y-46980779D01*
X89246467Y-47064443D01*
X89189853Y-47081616D01*
X89076627Y-47115963D01*
X89010442Y-47122482D01*
X88944260Y-47129000D01*
X88855740Y-47129000D01*
X88789558Y-47122482D01*
X88723373Y-47115963D01*
X88610147Y-47081616D01*
X88553533Y-47064443D01*
X88397011Y-46980779D01*
X88397009Y-46980778D01*
X88361271Y-46951448D01*
X88259814Y-46868186D01*
X88176552Y-46766729D01*
X88147222Y-46730991D01*
X88137652Y-46713087D01*
X88063557Y-46574467D01*
X88046384Y-46517853D01*
X88012037Y-46404627D01*
X87994641Y-46228000D01*
X88012037Y-46051373D01*
X88063557Y-45881534D01*
X88063557Y-45881533D01*
X88147221Y-45725011D01*
X88147222Y-45725009D01*
X88176552Y-45689271D01*
X88259814Y-45587814D01*
X88361271Y-45504552D01*
X88397009Y-45475222D01*
X88414913Y-45465652D01*
X88553533Y-45391557D01*
X88610147Y-45374384D01*
X88723373Y-45340037D01*
X88789557Y-45333519D01*
X88855740Y-45327000D01*
X88944260Y-45327000D01*
X89010442Y-45333518D01*
X89010442Y-45333518D01*
G37*
G36*
X81390442Y-45333518D02*
X81456627Y-45340037D01*
X81569853Y-45374384D01*
X81626467Y-45391557D01*
X81765087Y-45465652D01*
X81782991Y-45475222D01*
X81818729Y-45504552D01*
X81920186Y-45587814D01*
X82003448Y-45689271D01*
X82032778Y-45725009D01*
X82032779Y-45725011D01*
X82116443Y-45881533D01*
X82116443Y-45881534D01*
X82167963Y-46051373D01*
X82185359Y-46228000D01*
X82167963Y-46404627D01*
X82133616Y-46517853D01*
X82116443Y-46574467D01*
X82042348Y-46713087D01*
X82032778Y-46730991D01*
X82003448Y-46766729D01*
X81920186Y-46868186D01*
X81818729Y-46951448D01*
X81782991Y-46980778D01*
X81782989Y-46980779D01*
X81626467Y-47064443D01*
X81569853Y-47081616D01*
X81456627Y-47115963D01*
X81390442Y-47122482D01*
X81324260Y-47129000D01*
X81235740Y-47129000D01*
X81169558Y-47122482D01*
X81103373Y-47115963D01*
X80990147Y-47081616D01*
X80933533Y-47064443D01*
X80777011Y-46980779D01*
X80777009Y-46980778D01*
X80741271Y-46951448D01*
X80639814Y-46868186D01*
X80556552Y-46766729D01*
X80527222Y-46730991D01*
X80517652Y-46713087D01*
X80443557Y-46574467D01*
X80426384Y-46517853D01*
X80392037Y-46404627D01*
X80374641Y-46228000D01*
X80392037Y-46051373D01*
X80443557Y-45881534D01*
X80443557Y-45881533D01*
X80527221Y-45725011D01*
X80527222Y-45725009D01*
X80556552Y-45689271D01*
X80639814Y-45587814D01*
X80741271Y-45504552D01*
X80777009Y-45475222D01*
X80794913Y-45465652D01*
X80933533Y-45391557D01*
X80990147Y-45374384D01*
X81103373Y-45340037D01*
X81169557Y-45333519D01*
X81235740Y-45327000D01*
X81324260Y-45327000D01*
X81390442Y-45333518D01*
X81390442Y-45333518D01*
G37*
G36*
X109740000Y-46113000D02*
X107938000Y-46113000D01*
X107938000Y-44311000D01*
X109740000Y-44311000D01*
X109740000Y-46113000D01*
X109740000Y-46113000D01*
G37*
G36*
X127520000Y-46113000D02*
X125718000Y-46113000D01*
X125718000Y-44311000D01*
X127520000Y-44311000D01*
X127520000Y-46113000D01*
X127520000Y-46113000D01*
G37*
G36*
X136780765Y-43594189D02*
X136972034Y-43673415D01*
X137144176Y-43788437D01*
X137290563Y-43934824D01*
X137405585Y-44106966D01*
X137484811Y-44298235D01*
X137525200Y-44501284D01*
X137525200Y-44708316D01*
X137484811Y-44911365D01*
X137405585Y-45102634D01*
X137290563Y-45274776D01*
X137144176Y-45421163D01*
X136972034Y-45536185D01*
X136780765Y-45615411D01*
X136577716Y-45655800D01*
X136370684Y-45655800D01*
X136167635Y-45615411D01*
X135976366Y-45536185D01*
X135804224Y-45421163D01*
X135657837Y-45274776D01*
X135542815Y-45102634D01*
X135463589Y-44911365D01*
X135423200Y-44708316D01*
X135423200Y-44501284D01*
X135463589Y-44298235D01*
X135542815Y-44106966D01*
X135657837Y-43934824D01*
X135804224Y-43788437D01*
X135976366Y-43673415D01*
X136167635Y-43594189D01*
X136370684Y-43553800D01*
X136577716Y-43553800D01*
X136780765Y-43594189D01*
X136780765Y-43594189D01*
G37*
G36*
X141280765Y-43594189D02*
X141472034Y-43673415D01*
X141644176Y-43788437D01*
X141790563Y-43934824D01*
X141905585Y-44106966D01*
X141984811Y-44298235D01*
X142025200Y-44501284D01*
X142025200Y-44708316D01*
X141984811Y-44911365D01*
X141905585Y-45102634D01*
X141790563Y-45274776D01*
X141644176Y-45421163D01*
X141472034Y-45536185D01*
X141280765Y-45615411D01*
X141077716Y-45655800D01*
X140870684Y-45655800D01*
X140667635Y-45615411D01*
X140476366Y-45536185D01*
X140304224Y-45421163D01*
X140157837Y-45274776D01*
X140042815Y-45102634D01*
X139963589Y-44911365D01*
X139923200Y-44708316D01*
X139923200Y-44501284D01*
X139963589Y-44298235D01*
X140042815Y-44106966D01*
X140157837Y-43934824D01*
X140304224Y-43788437D01*
X140476366Y-43673415D01*
X140667635Y-43594189D01*
X140870684Y-43553800D01*
X141077716Y-43553800D01*
X141280765Y-43594189D01*
X141280765Y-43594189D01*
G37*
G36*
X126729443Y-41777519D02*
X126795627Y-41784037D01*
X126908853Y-41818384D01*
X126965467Y-41835557D01*
X127104087Y-41909652D01*
X127121991Y-41919222D01*
X127157729Y-41948552D01*
X127259186Y-42031814D01*
X127342448Y-42133271D01*
X127371778Y-42169009D01*
X127371779Y-42169011D01*
X127455443Y-42325533D01*
X127455443Y-42325534D01*
X127506963Y-42495373D01*
X127524359Y-42672000D01*
X127506963Y-42848627D01*
X127472616Y-42961853D01*
X127455443Y-43018467D01*
X127381348Y-43157087D01*
X127371778Y-43174991D01*
X127342448Y-43210729D01*
X127259186Y-43312186D01*
X127157729Y-43395448D01*
X127121991Y-43424778D01*
X127121989Y-43424779D01*
X126965467Y-43508443D01*
X126908853Y-43525616D01*
X126795627Y-43559963D01*
X126729443Y-43566481D01*
X126663260Y-43573000D01*
X126574740Y-43573000D01*
X126508557Y-43566481D01*
X126442373Y-43559963D01*
X126329147Y-43525616D01*
X126272533Y-43508443D01*
X126116011Y-43424779D01*
X126116009Y-43424778D01*
X126080271Y-43395448D01*
X125978814Y-43312186D01*
X125895552Y-43210729D01*
X125866222Y-43174991D01*
X125856652Y-43157087D01*
X125782557Y-43018467D01*
X125765384Y-42961853D01*
X125731037Y-42848627D01*
X125713641Y-42672000D01*
X125731037Y-42495373D01*
X125782557Y-42325534D01*
X125782557Y-42325533D01*
X125866221Y-42169011D01*
X125866222Y-42169009D01*
X125895552Y-42133271D01*
X125978814Y-42031814D01*
X126080271Y-41948552D01*
X126116009Y-41919222D01*
X126133913Y-41909652D01*
X126272533Y-41835557D01*
X126329147Y-41818384D01*
X126442373Y-41784037D01*
X126508557Y-41777519D01*
X126574740Y-41771000D01*
X126663260Y-41771000D01*
X126729443Y-41777519D01*
X126729443Y-41777519D01*
G37*
G36*
X108949443Y-41777519D02*
X109015627Y-41784037D01*
X109128853Y-41818384D01*
X109185467Y-41835557D01*
X109324087Y-41909652D01*
X109341991Y-41919222D01*
X109377729Y-41948552D01*
X109479186Y-42031814D01*
X109562448Y-42133271D01*
X109591778Y-42169009D01*
X109591779Y-42169011D01*
X109675443Y-42325533D01*
X109675443Y-42325534D01*
X109726963Y-42495373D01*
X109744359Y-42672000D01*
X109726963Y-42848627D01*
X109692616Y-42961853D01*
X109675443Y-43018467D01*
X109601348Y-43157087D01*
X109591778Y-43174991D01*
X109562448Y-43210729D01*
X109479186Y-43312186D01*
X109377729Y-43395448D01*
X109341991Y-43424778D01*
X109341989Y-43424779D01*
X109185467Y-43508443D01*
X109128853Y-43525616D01*
X109015627Y-43559963D01*
X108949443Y-43566481D01*
X108883260Y-43573000D01*
X108794740Y-43573000D01*
X108728557Y-43566481D01*
X108662373Y-43559963D01*
X108549147Y-43525616D01*
X108492533Y-43508443D01*
X108336011Y-43424779D01*
X108336009Y-43424778D01*
X108300271Y-43395448D01*
X108198814Y-43312186D01*
X108115552Y-43210729D01*
X108086222Y-43174991D01*
X108076652Y-43157087D01*
X108002557Y-43018467D01*
X107985384Y-42961853D01*
X107951037Y-42848627D01*
X107933641Y-42672000D01*
X107951037Y-42495373D01*
X108002557Y-42325534D01*
X108002557Y-42325533D01*
X108086221Y-42169011D01*
X108086222Y-42169009D01*
X108115552Y-42133271D01*
X108198814Y-42031814D01*
X108300271Y-41948552D01*
X108336009Y-41919222D01*
X108353913Y-41909652D01*
X108492533Y-41835557D01*
X108549147Y-41818384D01*
X108662373Y-41784037D01*
X108728557Y-41777519D01*
X108794740Y-41771000D01*
X108883260Y-41771000D01*
X108949443Y-41777519D01*
X108949443Y-41777519D01*
G37*
G36*
X166480442Y-41015518D02*
X166546627Y-41022037D01*
X166627119Y-41046454D01*
X166716467Y-41073557D01*
X166855087Y-41147652D01*
X166872991Y-41157222D01*
X166908729Y-41186552D01*
X167010186Y-41269814D01*
X167093448Y-41371271D01*
X167122778Y-41407009D01*
X167122779Y-41407011D01*
X167206443Y-41563533D01*
X167206443Y-41563534D01*
X167257963Y-41733373D01*
X167275359Y-41910000D01*
X167257963Y-42086627D01*
X167232973Y-42169009D01*
X167206443Y-42256467D01*
X167169526Y-42325533D01*
X167122778Y-42412991D01*
X167093448Y-42448729D01*
X167010186Y-42550186D01*
X166908729Y-42633448D01*
X166872991Y-42662778D01*
X166872989Y-42662779D01*
X166716467Y-42746443D01*
X166659853Y-42763616D01*
X166546627Y-42797963D01*
X166480442Y-42804482D01*
X166414260Y-42811000D01*
X166325740Y-42811000D01*
X166259557Y-42804481D01*
X166193373Y-42797963D01*
X166080147Y-42763616D01*
X166023533Y-42746443D01*
X165867011Y-42662779D01*
X165867009Y-42662778D01*
X165831271Y-42633448D01*
X165729814Y-42550186D01*
X165646552Y-42448729D01*
X165617222Y-42412991D01*
X165570474Y-42325533D01*
X165533557Y-42256467D01*
X165507027Y-42169009D01*
X165482037Y-42086627D01*
X165464641Y-41910000D01*
X165482037Y-41733373D01*
X165533557Y-41563534D01*
X165533557Y-41563533D01*
X165617221Y-41407011D01*
X165617222Y-41407009D01*
X165646552Y-41371271D01*
X165729814Y-41269814D01*
X165831271Y-41186552D01*
X165867009Y-41157222D01*
X165884913Y-41147652D01*
X166023533Y-41073557D01*
X166112881Y-41046454D01*
X166193373Y-41022037D01*
X166259558Y-41015518D01*
X166325740Y-41009000D01*
X166414260Y-41009000D01*
X166480442Y-41015518D01*
X166480442Y-41015518D01*
G37*
G36*
X158860442Y-41015518D02*
X158926627Y-41022037D01*
X159007119Y-41046454D01*
X159096467Y-41073557D01*
X159235087Y-41147652D01*
X159252991Y-41157222D01*
X159288729Y-41186552D01*
X159390186Y-41269814D01*
X159473448Y-41371271D01*
X159502778Y-41407009D01*
X159502779Y-41407011D01*
X159586443Y-41563533D01*
X159586443Y-41563534D01*
X159637963Y-41733373D01*
X159655359Y-41910000D01*
X159637963Y-42086627D01*
X159612973Y-42169009D01*
X159586443Y-42256467D01*
X159549526Y-42325533D01*
X159502778Y-42412991D01*
X159473448Y-42448729D01*
X159390186Y-42550186D01*
X159288729Y-42633448D01*
X159252991Y-42662778D01*
X159252989Y-42662779D01*
X159096467Y-42746443D01*
X159039853Y-42763616D01*
X158926627Y-42797963D01*
X158860442Y-42804482D01*
X158794260Y-42811000D01*
X158705740Y-42811000D01*
X158639557Y-42804481D01*
X158573373Y-42797963D01*
X158460147Y-42763616D01*
X158403533Y-42746443D01*
X158247011Y-42662779D01*
X158247009Y-42662778D01*
X158211271Y-42633448D01*
X158109814Y-42550186D01*
X158026552Y-42448729D01*
X157997222Y-42412991D01*
X157950474Y-42325533D01*
X157913557Y-42256467D01*
X157887027Y-42169009D01*
X157862037Y-42086627D01*
X157844641Y-41910000D01*
X157862037Y-41733373D01*
X157913557Y-41563534D01*
X157913557Y-41563533D01*
X157997221Y-41407011D01*
X157997222Y-41407009D01*
X158026552Y-41371271D01*
X158109814Y-41269814D01*
X158211271Y-41186552D01*
X158247009Y-41157222D01*
X158264913Y-41147652D01*
X158403533Y-41073557D01*
X158492881Y-41046454D01*
X158573373Y-41022037D01*
X158639558Y-41015518D01*
X158705740Y-41009000D01*
X158794260Y-41009000D01*
X158860442Y-41015518D01*
X158860442Y-41015518D01*
G37*
G36*
X94257396Y-39217546D02*
X94430466Y-39289234D01*
X94586230Y-39393312D01*
X94718688Y-39525770D01*
X94822766Y-39681534D01*
X94894454Y-39854604D01*
X94931000Y-40038333D01*
X94931000Y-40225667D01*
X94894454Y-40409396D01*
X94822766Y-40582466D01*
X94718688Y-40738230D01*
X94586230Y-40870688D01*
X94430466Y-40974766D01*
X94257396Y-41046454D01*
X94073667Y-41083000D01*
X93886333Y-41083000D01*
X93702604Y-41046454D01*
X93529534Y-40974766D01*
X93373770Y-40870688D01*
X93241312Y-40738230D01*
X93137234Y-40582466D01*
X93065546Y-40409396D01*
X93029000Y-40225667D01*
X93029000Y-40038333D01*
X93065546Y-39854604D01*
X93137234Y-39681534D01*
X93241312Y-39525770D01*
X93373770Y-39393312D01*
X93529534Y-39289234D01*
X93702604Y-39217546D01*
X93886333Y-39181000D01*
X94073667Y-39181000D01*
X94257396Y-39217546D01*
X94257396Y-39217546D01*
G37*
G36*
X92391000Y-41083000D02*
X90489000Y-41083000D01*
X90489000Y-39181000D01*
X92391000Y-39181000D01*
X92391000Y-41083000D01*
X92391000Y-41083000D01*
G37*
G36*
X108949443Y-39237519D02*
X109015627Y-39244037D01*
X109128853Y-39278384D01*
X109185467Y-39295557D01*
X109324087Y-39369652D01*
X109341991Y-39379222D01*
X109377729Y-39408552D01*
X109479186Y-39491814D01*
X109562448Y-39593271D01*
X109591778Y-39629009D01*
X109591779Y-39629011D01*
X109675443Y-39785533D01*
X109675443Y-39785534D01*
X109726963Y-39955373D01*
X109744359Y-40132000D01*
X109726963Y-40308627D01*
X109696395Y-40409396D01*
X109675443Y-40478467D01*
X109619853Y-40582467D01*
X109591778Y-40634991D01*
X109562448Y-40670729D01*
X109479186Y-40772186D01*
X109377729Y-40855448D01*
X109341991Y-40884778D01*
X109341989Y-40884779D01*
X109185467Y-40968443D01*
X109164622Y-40974766D01*
X109015627Y-41019963D01*
X108949443Y-41026481D01*
X108883260Y-41033000D01*
X108794740Y-41033000D01*
X108728557Y-41026481D01*
X108662373Y-41019963D01*
X108513378Y-40974766D01*
X108492533Y-40968443D01*
X108336011Y-40884779D01*
X108336009Y-40884778D01*
X108300271Y-40855448D01*
X108198814Y-40772186D01*
X108115552Y-40670729D01*
X108086222Y-40634991D01*
X108058147Y-40582467D01*
X108002557Y-40478467D01*
X107981605Y-40409396D01*
X107951037Y-40308627D01*
X107933641Y-40132000D01*
X107951037Y-39955373D01*
X108002557Y-39785534D01*
X108002557Y-39785533D01*
X108086221Y-39629011D01*
X108086222Y-39629009D01*
X108115552Y-39593271D01*
X108198814Y-39491814D01*
X108300271Y-39408552D01*
X108336009Y-39379222D01*
X108353913Y-39369652D01*
X108492533Y-39295557D01*
X108549147Y-39278384D01*
X108662373Y-39244037D01*
X108728557Y-39237519D01*
X108794740Y-39231000D01*
X108883260Y-39231000D01*
X108949443Y-39237519D01*
X108949443Y-39237519D01*
G37*
G36*
X126729443Y-39237519D02*
X126795627Y-39244037D01*
X126908853Y-39278384D01*
X126965467Y-39295557D01*
X127104087Y-39369652D01*
X127121991Y-39379222D01*
X127157729Y-39408552D01*
X127259186Y-39491814D01*
X127342448Y-39593271D01*
X127371778Y-39629009D01*
X127371779Y-39629011D01*
X127455443Y-39785533D01*
X127455443Y-39785534D01*
X127506963Y-39955373D01*
X127524359Y-40132000D01*
X127506963Y-40308627D01*
X127476395Y-40409396D01*
X127455443Y-40478467D01*
X127399853Y-40582467D01*
X127371778Y-40634991D01*
X127342448Y-40670729D01*
X127259186Y-40772186D01*
X127157729Y-40855448D01*
X127121991Y-40884778D01*
X127121989Y-40884779D01*
X126965467Y-40968443D01*
X126944622Y-40974766D01*
X126795627Y-41019963D01*
X126729443Y-41026481D01*
X126663260Y-41033000D01*
X126574740Y-41033000D01*
X126508557Y-41026481D01*
X126442373Y-41019963D01*
X126293378Y-40974766D01*
X126272533Y-40968443D01*
X126116011Y-40884779D01*
X126116009Y-40884778D01*
X126080271Y-40855448D01*
X125978814Y-40772186D01*
X125895552Y-40670729D01*
X125866222Y-40634991D01*
X125838147Y-40582467D01*
X125782557Y-40478467D01*
X125761605Y-40409396D01*
X125731037Y-40308627D01*
X125713641Y-40132000D01*
X125731037Y-39955373D01*
X125782557Y-39785534D01*
X125782557Y-39785533D01*
X125866221Y-39629011D01*
X125866222Y-39629009D01*
X125895552Y-39593271D01*
X125978814Y-39491814D01*
X126080271Y-39408552D01*
X126116009Y-39379222D01*
X126133913Y-39369652D01*
X126272533Y-39295557D01*
X126329147Y-39278384D01*
X126442373Y-39244037D01*
X126508557Y-39237519D01*
X126574740Y-39231000D01*
X126663260Y-39231000D01*
X126729443Y-39237519D01*
X126729443Y-39237519D01*
G37*
G36*
X158860443Y-38475519D02*
X158926627Y-38482037D01*
X159039853Y-38516384D01*
X159096467Y-38533557D01*
X159235087Y-38607652D01*
X159252991Y-38617222D01*
X159288729Y-38646552D01*
X159390186Y-38729814D01*
X159473448Y-38831271D01*
X159502778Y-38867009D01*
X159502779Y-38867011D01*
X159586443Y-39023533D01*
X159586443Y-39023534D01*
X159637963Y-39193373D01*
X159655359Y-39370000D01*
X159637963Y-39546627D01*
X159612973Y-39629009D01*
X159586443Y-39716467D01*
X159549526Y-39785533D01*
X159502778Y-39872991D01*
X159473448Y-39908729D01*
X159390186Y-40010186D01*
X159288729Y-40093448D01*
X159252991Y-40122778D01*
X159252989Y-40122779D01*
X159096467Y-40206443D01*
X159039853Y-40223616D01*
X158926627Y-40257963D01*
X158860442Y-40264482D01*
X158794260Y-40271000D01*
X158705740Y-40271000D01*
X158639557Y-40264481D01*
X158573373Y-40257963D01*
X158460147Y-40223616D01*
X158403533Y-40206443D01*
X158247011Y-40122779D01*
X158247009Y-40122778D01*
X158211271Y-40093448D01*
X158109814Y-40010186D01*
X158026552Y-39908729D01*
X157997222Y-39872991D01*
X157950474Y-39785533D01*
X157913557Y-39716467D01*
X157887027Y-39629009D01*
X157862037Y-39546627D01*
X157844641Y-39370000D01*
X157862037Y-39193373D01*
X157913557Y-39023534D01*
X157913557Y-39023533D01*
X157997221Y-38867011D01*
X157997222Y-38867009D01*
X158026552Y-38831271D01*
X158109814Y-38729814D01*
X158211271Y-38646552D01*
X158247009Y-38617222D01*
X158264913Y-38607652D01*
X158403533Y-38533557D01*
X158460147Y-38516384D01*
X158573373Y-38482037D01*
X158639557Y-38475519D01*
X158705740Y-38469000D01*
X158794260Y-38469000D01*
X158860443Y-38475519D01*
X158860443Y-38475519D01*
G37*
G36*
X166480443Y-38475519D02*
X166546627Y-38482037D01*
X166659853Y-38516384D01*
X166716467Y-38533557D01*
X166855087Y-38607652D01*
X166872991Y-38617222D01*
X166908729Y-38646552D01*
X167010186Y-38729814D01*
X167093448Y-38831271D01*
X167122778Y-38867009D01*
X167122779Y-38867011D01*
X167206443Y-39023533D01*
X167206443Y-39023534D01*
X167257963Y-39193373D01*
X167275359Y-39370000D01*
X167257963Y-39546627D01*
X167232973Y-39629009D01*
X167206443Y-39716467D01*
X167169526Y-39785533D01*
X167122778Y-39872991D01*
X167093448Y-39908729D01*
X167010186Y-40010186D01*
X166908729Y-40093448D01*
X166872991Y-40122778D01*
X166872989Y-40122779D01*
X166716467Y-40206443D01*
X166659853Y-40223616D01*
X166546627Y-40257963D01*
X166480442Y-40264482D01*
X166414260Y-40271000D01*
X166325740Y-40271000D01*
X166259557Y-40264481D01*
X166193373Y-40257963D01*
X166080147Y-40223616D01*
X166023533Y-40206443D01*
X165867011Y-40122779D01*
X165867009Y-40122778D01*
X165831271Y-40093448D01*
X165729814Y-40010186D01*
X165646552Y-39908729D01*
X165617222Y-39872991D01*
X165570474Y-39785533D01*
X165533557Y-39716467D01*
X165507027Y-39629009D01*
X165482037Y-39546627D01*
X165464641Y-39370000D01*
X165482037Y-39193373D01*
X165533557Y-39023534D01*
X165533557Y-39023533D01*
X165617221Y-38867011D01*
X165617222Y-38867009D01*
X165646552Y-38831271D01*
X165729814Y-38729814D01*
X165831271Y-38646552D01*
X165867009Y-38617222D01*
X165884913Y-38607652D01*
X166023533Y-38533557D01*
X166080147Y-38516384D01*
X166193373Y-38482037D01*
X166259557Y-38475519D01*
X166325740Y-38469000D01*
X166414260Y-38469000D01*
X166480443Y-38475519D01*
X166480443Y-38475519D01*
G37*
G36*
X126729443Y-36697519D02*
X126795627Y-36704037D01*
X126908853Y-36738384D01*
X126965467Y-36755557D01*
X127104087Y-36829652D01*
X127121991Y-36839222D01*
X127157729Y-36868552D01*
X127259186Y-36951814D01*
X127342448Y-37053271D01*
X127371778Y-37089009D01*
X127371779Y-37089011D01*
X127455443Y-37245533D01*
X127455443Y-37245534D01*
X127506963Y-37415373D01*
X127524359Y-37592000D01*
X127506963Y-37768627D01*
X127472616Y-37881853D01*
X127455443Y-37938467D01*
X127381348Y-38077087D01*
X127371778Y-38094991D01*
X127342448Y-38130729D01*
X127259186Y-38232186D01*
X127157729Y-38315448D01*
X127121991Y-38344778D01*
X127121989Y-38344779D01*
X126965467Y-38428443D01*
X126908853Y-38445616D01*
X126795627Y-38479963D01*
X126729442Y-38486482D01*
X126663260Y-38493000D01*
X126574740Y-38493000D01*
X126508558Y-38486482D01*
X126442373Y-38479963D01*
X126329147Y-38445616D01*
X126272533Y-38428443D01*
X126116011Y-38344779D01*
X126116009Y-38344778D01*
X126080271Y-38315448D01*
X125978814Y-38232186D01*
X125895552Y-38130729D01*
X125866222Y-38094991D01*
X125856652Y-38077087D01*
X125782557Y-37938467D01*
X125765384Y-37881853D01*
X125731037Y-37768627D01*
X125713641Y-37592000D01*
X125731037Y-37415373D01*
X125782557Y-37245534D01*
X125782557Y-37245533D01*
X125866221Y-37089011D01*
X125866222Y-37089009D01*
X125895552Y-37053271D01*
X125978814Y-36951814D01*
X126080271Y-36868552D01*
X126116009Y-36839222D01*
X126133913Y-36829652D01*
X126272533Y-36755557D01*
X126329147Y-36738384D01*
X126442373Y-36704037D01*
X126508557Y-36697519D01*
X126574740Y-36691000D01*
X126663260Y-36691000D01*
X126729443Y-36697519D01*
X126729443Y-36697519D01*
G37*
G36*
X108949443Y-36697519D02*
X109015627Y-36704037D01*
X109128853Y-36738384D01*
X109185467Y-36755557D01*
X109324087Y-36829652D01*
X109341991Y-36839222D01*
X109377729Y-36868552D01*
X109479186Y-36951814D01*
X109562448Y-37053271D01*
X109591778Y-37089009D01*
X109591779Y-37089011D01*
X109675443Y-37245533D01*
X109675443Y-37245534D01*
X109726963Y-37415373D01*
X109744359Y-37592000D01*
X109726963Y-37768627D01*
X109692616Y-37881853D01*
X109675443Y-37938467D01*
X109601348Y-38077087D01*
X109591778Y-38094991D01*
X109562448Y-38130729D01*
X109479186Y-38232186D01*
X109377729Y-38315448D01*
X109341991Y-38344778D01*
X109341989Y-38344779D01*
X109185467Y-38428443D01*
X109128853Y-38445616D01*
X109015627Y-38479963D01*
X108949442Y-38486482D01*
X108883260Y-38493000D01*
X108794740Y-38493000D01*
X108728558Y-38486482D01*
X108662373Y-38479963D01*
X108549147Y-38445616D01*
X108492533Y-38428443D01*
X108336011Y-38344779D01*
X108336009Y-38344778D01*
X108300271Y-38315448D01*
X108198814Y-38232186D01*
X108115552Y-38130729D01*
X108086222Y-38094991D01*
X108076652Y-38077087D01*
X108002557Y-37938467D01*
X107985384Y-37881853D01*
X107951037Y-37768627D01*
X107933641Y-37592000D01*
X107951037Y-37415373D01*
X108002557Y-37245534D01*
X108002557Y-37245533D01*
X108086221Y-37089011D01*
X108086222Y-37089009D01*
X108115552Y-37053271D01*
X108198814Y-36951814D01*
X108300271Y-36868552D01*
X108336009Y-36839222D01*
X108353913Y-36829652D01*
X108492533Y-36755557D01*
X108549147Y-36738384D01*
X108662373Y-36704037D01*
X108728557Y-36697519D01*
X108794740Y-36691000D01*
X108883260Y-36691000D01*
X108949443Y-36697519D01*
X108949443Y-36697519D01*
G37*
G36*
X167271000Y-37731000D02*
X165469000Y-37731000D01*
X165469000Y-35929000D01*
X167271000Y-35929000D01*
X167271000Y-37731000D01*
X167271000Y-37731000D01*
G37*
G36*
X159651000Y-37731000D02*
X157849000Y-37731000D01*
X157849000Y-35929000D01*
X159651000Y-35929000D01*
X159651000Y-37731000D01*
X159651000Y-37731000D01*
G37*
G36*
X139810442Y-35935518D02*
X139876627Y-35942037D01*
X139989853Y-35976384D01*
X140046467Y-35993557D01*
X140185087Y-36067652D01*
X140202991Y-36077222D01*
X140238729Y-36106552D01*
X140340186Y-36189814D01*
X140423448Y-36291271D01*
X140452778Y-36327009D01*
X140452779Y-36327011D01*
X140536443Y-36483533D01*
X140536443Y-36483534D01*
X140587963Y-36653373D01*
X140605359Y-36830000D01*
X140587963Y-37006627D01*
X140562973Y-37089009D01*
X140536443Y-37176467D01*
X140499526Y-37245533D01*
X140452778Y-37332991D01*
X140423448Y-37368729D01*
X140340186Y-37470186D01*
X140238729Y-37553448D01*
X140202991Y-37582778D01*
X140202989Y-37582779D01*
X140046467Y-37666443D01*
X139989853Y-37683616D01*
X139876627Y-37717963D01*
X139810443Y-37724481D01*
X139744260Y-37731000D01*
X139655740Y-37731000D01*
X139589557Y-37724481D01*
X139523373Y-37717963D01*
X139410147Y-37683616D01*
X139353533Y-37666443D01*
X139197011Y-37582779D01*
X139197009Y-37582778D01*
X139161271Y-37553448D01*
X139059814Y-37470186D01*
X138976552Y-37368729D01*
X138947222Y-37332991D01*
X138900474Y-37245533D01*
X138863557Y-37176467D01*
X138837027Y-37089009D01*
X138812037Y-37006627D01*
X138794641Y-36830000D01*
X138812037Y-36653373D01*
X138863557Y-36483534D01*
X138863557Y-36483533D01*
X138947221Y-36327011D01*
X138947222Y-36327009D01*
X138976552Y-36291271D01*
X139059814Y-36189814D01*
X139161271Y-36106552D01*
X139197009Y-36077222D01*
X139214913Y-36067652D01*
X139353533Y-35993557D01*
X139410147Y-35976384D01*
X139523373Y-35942037D01*
X139589558Y-35935518D01*
X139655740Y-35929000D01*
X139744260Y-35929000D01*
X139810442Y-35935518D01*
X139810442Y-35935518D01*
G37*
G36*
X150761000Y-37731000D02*
X148959000Y-37731000D01*
X148959000Y-35929000D01*
X150761000Y-35929000D01*
X150761000Y-37731000D01*
X150761000Y-37731000D01*
G37*
G36*
X147430442Y-35935518D02*
X147496627Y-35942037D01*
X147609853Y-35976384D01*
X147666467Y-35993557D01*
X147805087Y-36067652D01*
X147822991Y-36077222D01*
X147858729Y-36106552D01*
X147960186Y-36189814D01*
X148043448Y-36291271D01*
X148072778Y-36327009D01*
X148072779Y-36327011D01*
X148156443Y-36483533D01*
X148156443Y-36483534D01*
X148207963Y-36653373D01*
X148225359Y-36830000D01*
X148207963Y-37006627D01*
X148182973Y-37089009D01*
X148156443Y-37176467D01*
X148119526Y-37245533D01*
X148072778Y-37332991D01*
X148043448Y-37368729D01*
X147960186Y-37470186D01*
X147858729Y-37553448D01*
X147822991Y-37582778D01*
X147822989Y-37582779D01*
X147666467Y-37666443D01*
X147609853Y-37683616D01*
X147496627Y-37717963D01*
X147430443Y-37724481D01*
X147364260Y-37731000D01*
X147275740Y-37731000D01*
X147209557Y-37724481D01*
X147143373Y-37717963D01*
X147030147Y-37683616D01*
X146973533Y-37666443D01*
X146817011Y-37582779D01*
X146817009Y-37582778D01*
X146781271Y-37553448D01*
X146679814Y-37470186D01*
X146596552Y-37368729D01*
X146567222Y-37332991D01*
X146520474Y-37245533D01*
X146483557Y-37176467D01*
X146457027Y-37089009D01*
X146432037Y-37006627D01*
X146414641Y-36830000D01*
X146432037Y-36653373D01*
X146483557Y-36483534D01*
X146483557Y-36483533D01*
X146567221Y-36327011D01*
X146567222Y-36327009D01*
X146596552Y-36291271D01*
X146679814Y-36189814D01*
X146781271Y-36106552D01*
X146817009Y-36077222D01*
X146834913Y-36067652D01*
X146973533Y-35993557D01*
X147030147Y-35976384D01*
X147143373Y-35942037D01*
X147209558Y-35935518D01*
X147275740Y-35929000D01*
X147364260Y-35929000D01*
X147430442Y-35935518D01*
X147430442Y-35935518D01*
G37*
G36*
X144890442Y-35935518D02*
X144956627Y-35942037D01*
X145069853Y-35976384D01*
X145126467Y-35993557D01*
X145265087Y-36067652D01*
X145282991Y-36077222D01*
X145318729Y-36106552D01*
X145420186Y-36189814D01*
X145503448Y-36291271D01*
X145532778Y-36327009D01*
X145532779Y-36327011D01*
X145616443Y-36483533D01*
X145616443Y-36483534D01*
X145667963Y-36653373D01*
X145685359Y-36830000D01*
X145667963Y-37006627D01*
X145642973Y-37089009D01*
X145616443Y-37176467D01*
X145579526Y-37245533D01*
X145532778Y-37332991D01*
X145503448Y-37368729D01*
X145420186Y-37470186D01*
X145318729Y-37553448D01*
X145282991Y-37582778D01*
X145282989Y-37582779D01*
X145126467Y-37666443D01*
X145069853Y-37683616D01*
X144956627Y-37717963D01*
X144890443Y-37724481D01*
X144824260Y-37731000D01*
X144735740Y-37731000D01*
X144669557Y-37724481D01*
X144603373Y-37717963D01*
X144490147Y-37683616D01*
X144433533Y-37666443D01*
X144277011Y-37582779D01*
X144277009Y-37582778D01*
X144241271Y-37553448D01*
X144139814Y-37470186D01*
X144056552Y-37368729D01*
X144027222Y-37332991D01*
X143980474Y-37245533D01*
X143943557Y-37176467D01*
X143917027Y-37089009D01*
X143892037Y-37006627D01*
X143874641Y-36830000D01*
X143892037Y-36653373D01*
X143943557Y-36483534D01*
X143943557Y-36483533D01*
X144027221Y-36327011D01*
X144027222Y-36327009D01*
X144056552Y-36291271D01*
X144139814Y-36189814D01*
X144241271Y-36106552D01*
X144277009Y-36077222D01*
X144294913Y-36067652D01*
X144433533Y-35993557D01*
X144490147Y-35976384D01*
X144603373Y-35942037D01*
X144669558Y-35935518D01*
X144735740Y-35929000D01*
X144824260Y-35929000D01*
X144890442Y-35935518D01*
X144890442Y-35935518D01*
G37*
G36*
X142350442Y-35935518D02*
X142416627Y-35942037D01*
X142529853Y-35976384D01*
X142586467Y-35993557D01*
X142725087Y-36067652D01*
X142742991Y-36077222D01*
X142778729Y-36106552D01*
X142880186Y-36189814D01*
X142963448Y-36291271D01*
X142992778Y-36327009D01*
X142992779Y-36327011D01*
X143076443Y-36483533D01*
X143076443Y-36483534D01*
X143127963Y-36653373D01*
X143145359Y-36830000D01*
X143127963Y-37006627D01*
X143102973Y-37089009D01*
X143076443Y-37176467D01*
X143039526Y-37245533D01*
X142992778Y-37332991D01*
X142963448Y-37368729D01*
X142880186Y-37470186D01*
X142778729Y-37553448D01*
X142742991Y-37582778D01*
X142742989Y-37582779D01*
X142586467Y-37666443D01*
X142529853Y-37683616D01*
X142416627Y-37717963D01*
X142350443Y-37724481D01*
X142284260Y-37731000D01*
X142195740Y-37731000D01*
X142129557Y-37724481D01*
X142063373Y-37717963D01*
X141950147Y-37683616D01*
X141893533Y-37666443D01*
X141737011Y-37582779D01*
X141737009Y-37582778D01*
X141701271Y-37553448D01*
X141599814Y-37470186D01*
X141516552Y-37368729D01*
X141487222Y-37332991D01*
X141440474Y-37245533D01*
X141403557Y-37176467D01*
X141377027Y-37089009D01*
X141352037Y-37006627D01*
X141334641Y-36830000D01*
X141352037Y-36653373D01*
X141403557Y-36483534D01*
X141403557Y-36483533D01*
X141487221Y-36327011D01*
X141487222Y-36327009D01*
X141516552Y-36291271D01*
X141599814Y-36189814D01*
X141701271Y-36106552D01*
X141737009Y-36077222D01*
X141754913Y-36067652D01*
X141893533Y-35993557D01*
X141950147Y-35976384D01*
X142063373Y-35942037D01*
X142129558Y-35935518D01*
X142195740Y-35929000D01*
X142284260Y-35929000D01*
X142350442Y-35935518D01*
X142350442Y-35935518D01*
G37*
G36*
X87261000Y-36461000D02*
X85459000Y-36461000D01*
X85459000Y-34659000D01*
X87261000Y-34659000D01*
X87261000Y-36461000D01*
X87261000Y-36461000D01*
G37*
G36*
X126729442Y-34157518D02*
X126795627Y-34164037D01*
X126908853Y-34198384D01*
X126965467Y-34215557D01*
X127074305Y-34273733D01*
X127121991Y-34299222D01*
X127157729Y-34328552D01*
X127259186Y-34411814D01*
X127342448Y-34513271D01*
X127371778Y-34549009D01*
X127371779Y-34549011D01*
X127455443Y-34705533D01*
X127455443Y-34705534D01*
X127506963Y-34875373D01*
X127524359Y-35052000D01*
X127506963Y-35228627D01*
X127497329Y-35260385D01*
X127455443Y-35398467D01*
X127424347Y-35456643D01*
X127371778Y-35554991D01*
X127342448Y-35590729D01*
X127259186Y-35692186D01*
X127157729Y-35775448D01*
X127121991Y-35804778D01*
X127121989Y-35804779D01*
X126965467Y-35888443D01*
X126908853Y-35905616D01*
X126795627Y-35939963D01*
X126729443Y-35946481D01*
X126663260Y-35953000D01*
X126574740Y-35953000D01*
X126508557Y-35946481D01*
X126442373Y-35939963D01*
X126329147Y-35905616D01*
X126272533Y-35888443D01*
X126116011Y-35804779D01*
X126116009Y-35804778D01*
X126080271Y-35775448D01*
X125978814Y-35692186D01*
X125895552Y-35590729D01*
X125866222Y-35554991D01*
X125813653Y-35456643D01*
X125782557Y-35398467D01*
X125740671Y-35260385D01*
X125731037Y-35228627D01*
X125713641Y-35052000D01*
X125731037Y-34875373D01*
X125782557Y-34705534D01*
X125782557Y-34705533D01*
X125866221Y-34549011D01*
X125866222Y-34549009D01*
X125895552Y-34513271D01*
X125978814Y-34411814D01*
X126080271Y-34328552D01*
X126116009Y-34299222D01*
X126163695Y-34273733D01*
X126272533Y-34215557D01*
X126329147Y-34198384D01*
X126442373Y-34164037D01*
X126508558Y-34157518D01*
X126574740Y-34151000D01*
X126663260Y-34151000D01*
X126729442Y-34157518D01*
X126729442Y-34157518D01*
G37*
G36*
X108949442Y-34157518D02*
X109015627Y-34164037D01*
X109128853Y-34198384D01*
X109185467Y-34215557D01*
X109294305Y-34273733D01*
X109341991Y-34299222D01*
X109377729Y-34328552D01*
X109479186Y-34411814D01*
X109562448Y-34513271D01*
X109591778Y-34549009D01*
X109591779Y-34549011D01*
X109675443Y-34705533D01*
X109675443Y-34705534D01*
X109726963Y-34875373D01*
X109744359Y-35052000D01*
X109726963Y-35228627D01*
X109717329Y-35260385D01*
X109675443Y-35398467D01*
X109644347Y-35456643D01*
X109591778Y-35554991D01*
X109562448Y-35590729D01*
X109479186Y-35692186D01*
X109377729Y-35775448D01*
X109341991Y-35804778D01*
X109341989Y-35804779D01*
X109185467Y-35888443D01*
X109128853Y-35905616D01*
X109015627Y-35939963D01*
X108949443Y-35946481D01*
X108883260Y-35953000D01*
X108794740Y-35953000D01*
X108728557Y-35946481D01*
X108662373Y-35939963D01*
X108549147Y-35905616D01*
X108492533Y-35888443D01*
X108336011Y-35804779D01*
X108336009Y-35804778D01*
X108300271Y-35775448D01*
X108198814Y-35692186D01*
X108115552Y-35590729D01*
X108086222Y-35554991D01*
X108033653Y-35456643D01*
X108002557Y-35398467D01*
X107960671Y-35260385D01*
X107951037Y-35228627D01*
X107933641Y-35052000D01*
X107951037Y-34875373D01*
X108002557Y-34705534D01*
X108002557Y-34705533D01*
X108086221Y-34549011D01*
X108086222Y-34549009D01*
X108115552Y-34513271D01*
X108198814Y-34411814D01*
X108300271Y-34328552D01*
X108336009Y-34299222D01*
X108383695Y-34273733D01*
X108492533Y-34215557D01*
X108549147Y-34198384D01*
X108662373Y-34164037D01*
X108728558Y-34157518D01*
X108794740Y-34151000D01*
X108883260Y-34151000D01*
X108949442Y-34157518D01*
X108949442Y-34157518D01*
G37*
G36*
X96633600Y-35521200D02*
X94831600Y-35521200D01*
X94831600Y-33719200D01*
X96633600Y-33719200D01*
X96633600Y-35521200D01*
X96633600Y-35521200D01*
G37*
G36*
X98383043Y-33725719D02*
X98449227Y-33732237D01*
X98562453Y-33766584D01*
X98619067Y-33783757D01*
X98755051Y-33856443D01*
X98775591Y-33867422D01*
X98811329Y-33896752D01*
X98912786Y-33980014D01*
X98996048Y-34081471D01*
X99025378Y-34117209D01*
X99025379Y-34117211D01*
X99109043Y-34273733D01*
X99116775Y-34299222D01*
X99160563Y-34443573D01*
X99177959Y-34620200D01*
X99160563Y-34796827D01*
X99136736Y-34875373D01*
X99109043Y-34966667D01*
X99063431Y-35052000D01*
X99025378Y-35123191D01*
X98996048Y-35158929D01*
X98912786Y-35260386D01*
X98811329Y-35343648D01*
X98775591Y-35372978D01*
X98775589Y-35372979D01*
X98619067Y-35456643D01*
X98562453Y-35473816D01*
X98449227Y-35508163D01*
X98383042Y-35514682D01*
X98316860Y-35521200D01*
X98228340Y-35521200D01*
X98162158Y-35514682D01*
X98095973Y-35508163D01*
X97982747Y-35473816D01*
X97926133Y-35456643D01*
X97769611Y-35372979D01*
X97769609Y-35372978D01*
X97733871Y-35343648D01*
X97632414Y-35260386D01*
X97549152Y-35158929D01*
X97519822Y-35123191D01*
X97481769Y-35052000D01*
X97436157Y-34966667D01*
X97408464Y-34875373D01*
X97384637Y-34796827D01*
X97367241Y-34620200D01*
X97384637Y-34443573D01*
X97428425Y-34299222D01*
X97436157Y-34273733D01*
X97519821Y-34117211D01*
X97519822Y-34117209D01*
X97549152Y-34081471D01*
X97632414Y-33980014D01*
X97733871Y-33896752D01*
X97769609Y-33867422D01*
X97790149Y-33856443D01*
X97926133Y-33783757D01*
X97982747Y-33766584D01*
X98095973Y-33732237D01*
X98162157Y-33725719D01*
X98228340Y-33719200D01*
X98316860Y-33719200D01*
X98383043Y-33725719D01*
X98383043Y-33725719D01*
G37*
G36*
X86470443Y-32125519D02*
X86536627Y-32132037D01*
X86649853Y-32166384D01*
X86706467Y-32183557D01*
X86845087Y-32257652D01*
X86862991Y-32267222D01*
X86898729Y-32296552D01*
X87000186Y-32379814D01*
X87083448Y-32481271D01*
X87112778Y-32517009D01*
X87112779Y-32517011D01*
X87196443Y-32673533D01*
X87196443Y-32673534D01*
X87247963Y-32843373D01*
X87265359Y-33020000D01*
X87247963Y-33196627D01*
X87213616Y-33309853D01*
X87196443Y-33366467D01*
X87171570Y-33413000D01*
X87112778Y-33522991D01*
X87083448Y-33558729D01*
X87000186Y-33660186D01*
X86928276Y-33719200D01*
X86862991Y-33772778D01*
X86862989Y-33772779D01*
X86706467Y-33856443D01*
X86670273Y-33867422D01*
X86536627Y-33907963D01*
X86470443Y-33914481D01*
X86404260Y-33921000D01*
X86315740Y-33921000D01*
X86249557Y-33914481D01*
X86183373Y-33907963D01*
X86049727Y-33867422D01*
X86013533Y-33856443D01*
X85857011Y-33772779D01*
X85857009Y-33772778D01*
X85791724Y-33719200D01*
X85719814Y-33660186D01*
X85636552Y-33558729D01*
X85607222Y-33522991D01*
X85548430Y-33413000D01*
X85523557Y-33366467D01*
X85506384Y-33309853D01*
X85472037Y-33196627D01*
X85454641Y-33020000D01*
X85472037Y-32843373D01*
X85523557Y-32673534D01*
X85523557Y-32673533D01*
X85607221Y-32517011D01*
X85607222Y-32517009D01*
X85636552Y-32481271D01*
X85719814Y-32379814D01*
X85821271Y-32296552D01*
X85857009Y-32267222D01*
X85874913Y-32257652D01*
X86013533Y-32183557D01*
X86070147Y-32166384D01*
X86183373Y-32132037D01*
X86249557Y-32125519D01*
X86315740Y-32119000D01*
X86404260Y-32119000D01*
X86470443Y-32125519D01*
X86470443Y-32125519D01*
G37*
G36*
X109740000Y-33413000D02*
X107938000Y-33413000D01*
X107938000Y-31611000D01*
X109740000Y-31611000D01*
X109740000Y-33413000D01*
X109740000Y-33413000D01*
G37*
G36*
X127520000Y-33413000D02*
X125718000Y-33413000D01*
X125718000Y-31611000D01*
X127520000Y-31611000D01*
X127520000Y-33413000D01*
X127520000Y-33413000D01*
G37*
G36*
X134868228Y-30129703D02*
X135023100Y-30193853D01*
X135162481Y-30286985D01*
X135281015Y-30405519D01*
X135374147Y-30544900D01*
X135438297Y-30699772D01*
X135471000Y-30864184D01*
X135471000Y-31031816D01*
X135438297Y-31196228D01*
X135374147Y-31351100D01*
X135281015Y-31490481D01*
X135162481Y-31609015D01*
X135023100Y-31702147D01*
X134868228Y-31766297D01*
X134703816Y-31799000D01*
X134536184Y-31799000D01*
X134371772Y-31766297D01*
X134216900Y-31702147D01*
X134077519Y-31609015D01*
X133958985Y-31490481D01*
X133865853Y-31351100D01*
X133801703Y-31196228D01*
X133769000Y-31031816D01*
X133769000Y-30864184D01*
X133801703Y-30699772D01*
X133865853Y-30544900D01*
X133958985Y-30405519D01*
X134077519Y-30286985D01*
X134216900Y-30193853D01*
X134371772Y-30129703D01*
X134536184Y-30097000D01*
X134703816Y-30097000D01*
X134868228Y-30129703D01*
X134868228Y-30129703D01*
G37*
G36*
X115461025Y-29802590D02*
X115612012Y-29848392D01*
X115751165Y-29922770D01*
X115873133Y-30022867D01*
X115973230Y-30144835D01*
X116047608Y-30283988D01*
X116093410Y-30434975D01*
X116108875Y-30592000D01*
X116093410Y-30749025D01*
X116047608Y-30900012D01*
X115973230Y-31039165D01*
X115873133Y-31161133D01*
X115751165Y-31261230D01*
X115612012Y-31335608D01*
X115461025Y-31381410D01*
X115343346Y-31393000D01*
X115264654Y-31393000D01*
X115146975Y-31381410D01*
X114995988Y-31335608D01*
X114856835Y-31261230D01*
X114734867Y-31161133D01*
X114634770Y-31039165D01*
X114560392Y-30900012D01*
X114514590Y-30749025D01*
X114499125Y-30592000D01*
X114514590Y-30434975D01*
X114560392Y-30283988D01*
X114634770Y-30144835D01*
X114734867Y-30022867D01*
X114856835Y-29922770D01*
X114995988Y-29848392D01*
X115146975Y-29802590D01*
X115264654Y-29791000D01*
X115343346Y-29791000D01*
X115461025Y-29802590D01*
X115461025Y-29802590D01*
G37*
G36*
X120311025Y-29802590D02*
X120462012Y-29848392D01*
X120601165Y-29922770D01*
X120723133Y-30022867D01*
X120823230Y-30144835D01*
X120897608Y-30283988D01*
X120943410Y-30434975D01*
X120958875Y-30592000D01*
X120943410Y-30749025D01*
X120897608Y-30900012D01*
X120823230Y-31039165D01*
X120723133Y-31161133D01*
X120601165Y-31261230D01*
X120462012Y-31335608D01*
X120311025Y-31381410D01*
X120193346Y-31393000D01*
X120114654Y-31393000D01*
X119996975Y-31381410D01*
X119845988Y-31335608D01*
X119706835Y-31261230D01*
X119584867Y-31161133D01*
X119484770Y-31039165D01*
X119410392Y-30900012D01*
X119364590Y-30749025D01*
X119349125Y-30592000D01*
X119364590Y-30434975D01*
X119410392Y-30283988D01*
X119484770Y-30144835D01*
X119584867Y-30022867D01*
X119706835Y-29922770D01*
X119845988Y-29848392D01*
X119996975Y-29802590D01*
X120114654Y-29791000D01*
X120193346Y-29791000D01*
X120311025Y-29802590D01*
X120311025Y-29802590D01*
G37*
G36*
X86470443Y-29585519D02*
X86536627Y-29592037D01*
X86647049Y-29625533D01*
X86706467Y-29643557D01*
X86845087Y-29717652D01*
X86862991Y-29727222D01*
X86898729Y-29756552D01*
X87000186Y-29839814D01*
X87068265Y-29922770D01*
X87112778Y-29977009D01*
X87112779Y-29977011D01*
X87196443Y-30133533D01*
X87213616Y-30190147D01*
X87247963Y-30303373D01*
X87265359Y-30480000D01*
X87247963Y-30656627D01*
X87227289Y-30724779D01*
X87196443Y-30826467D01*
X87171570Y-30873000D01*
X87112778Y-30982991D01*
X87083448Y-31018729D01*
X87000186Y-31120186D01*
X86907527Y-31196228D01*
X86862991Y-31232778D01*
X86862989Y-31232779D01*
X86706467Y-31316443D01*
X86649853Y-31333616D01*
X86536627Y-31367963D01*
X86470443Y-31374481D01*
X86404260Y-31381000D01*
X86315740Y-31381000D01*
X86249557Y-31374481D01*
X86183373Y-31367963D01*
X86070147Y-31333616D01*
X86013533Y-31316443D01*
X85857011Y-31232779D01*
X85857009Y-31232778D01*
X85812473Y-31196228D01*
X85719814Y-31120186D01*
X85636552Y-31018729D01*
X85607222Y-30982991D01*
X85548430Y-30873000D01*
X85523557Y-30826467D01*
X85492711Y-30724779D01*
X85472037Y-30656627D01*
X85454641Y-30480000D01*
X85472037Y-30303373D01*
X85506384Y-30190147D01*
X85523557Y-30133533D01*
X85607221Y-29977011D01*
X85607222Y-29977009D01*
X85651735Y-29922770D01*
X85719814Y-29839814D01*
X85821271Y-29756552D01*
X85857009Y-29727222D01*
X85874913Y-29717652D01*
X86013533Y-29643557D01*
X86072951Y-29625533D01*
X86183373Y-29592037D01*
X86249557Y-29585519D01*
X86315740Y-29579000D01*
X86404260Y-29579000D01*
X86470443Y-29585519D01*
X86470443Y-29585519D01*
G37*
G36*
X126729442Y-29077518D02*
X126795627Y-29084037D01*
X126908853Y-29118384D01*
X126965467Y-29135557D01*
X127104087Y-29209652D01*
X127121991Y-29219222D01*
X127157729Y-29248552D01*
X127259186Y-29331814D01*
X127342448Y-29433271D01*
X127371778Y-29469009D01*
X127371779Y-29469011D01*
X127455443Y-29625533D01*
X127455443Y-29625534D01*
X127506963Y-29795373D01*
X127524359Y-29972000D01*
X127506963Y-30148627D01*
X127472616Y-30261853D01*
X127455443Y-30318467D01*
X127408912Y-30405519D01*
X127371778Y-30474991D01*
X127367667Y-30480000D01*
X127259186Y-30612186D01*
X127184963Y-30673098D01*
X127121991Y-30724778D01*
X127121989Y-30724779D01*
X126965467Y-30808443D01*
X126908853Y-30825616D01*
X126795627Y-30859963D01*
X126729443Y-30866481D01*
X126663260Y-30873000D01*
X126574740Y-30873000D01*
X126508557Y-30866481D01*
X126442373Y-30859963D01*
X126329147Y-30825616D01*
X126272533Y-30808443D01*
X126116011Y-30724779D01*
X126116009Y-30724778D01*
X126053037Y-30673098D01*
X125978814Y-30612186D01*
X125870333Y-30480000D01*
X125866222Y-30474991D01*
X125829088Y-30405519D01*
X125782557Y-30318467D01*
X125765384Y-30261853D01*
X125731037Y-30148627D01*
X125713641Y-29972000D01*
X125731037Y-29795373D01*
X125782557Y-29625534D01*
X125782557Y-29625533D01*
X125866221Y-29469011D01*
X125866222Y-29469009D01*
X125895552Y-29433271D01*
X125978814Y-29331814D01*
X126080271Y-29248552D01*
X126116009Y-29219222D01*
X126133913Y-29209652D01*
X126272533Y-29135557D01*
X126329147Y-29118384D01*
X126442373Y-29084037D01*
X126508558Y-29077518D01*
X126574740Y-29071000D01*
X126663260Y-29071000D01*
X126729442Y-29077518D01*
X126729442Y-29077518D01*
G37*
G36*
X108949442Y-29077518D02*
X109015627Y-29084037D01*
X109128853Y-29118384D01*
X109185467Y-29135557D01*
X109324087Y-29209652D01*
X109341991Y-29219222D01*
X109377729Y-29248552D01*
X109479186Y-29331814D01*
X109562448Y-29433271D01*
X109591778Y-29469009D01*
X109591779Y-29469011D01*
X109675443Y-29625533D01*
X109675443Y-29625534D01*
X109726963Y-29795373D01*
X109744359Y-29972000D01*
X109726963Y-30148627D01*
X109692616Y-30261853D01*
X109675443Y-30318467D01*
X109628912Y-30405519D01*
X109591778Y-30474991D01*
X109587667Y-30480000D01*
X109479186Y-30612186D01*
X109404963Y-30673098D01*
X109341991Y-30724778D01*
X109341989Y-30724779D01*
X109185467Y-30808443D01*
X109128853Y-30825616D01*
X109015627Y-30859963D01*
X108949443Y-30866481D01*
X108883260Y-30873000D01*
X108794740Y-30873000D01*
X108728557Y-30866481D01*
X108662373Y-30859963D01*
X108549147Y-30825616D01*
X108492533Y-30808443D01*
X108336011Y-30724779D01*
X108336009Y-30724778D01*
X108273037Y-30673098D01*
X108198814Y-30612186D01*
X108090333Y-30480000D01*
X108086222Y-30474991D01*
X108049088Y-30405519D01*
X108002557Y-30318467D01*
X107985384Y-30261853D01*
X107951037Y-30148627D01*
X107933641Y-29972000D01*
X107951037Y-29795373D01*
X108002557Y-29625534D01*
X108002557Y-29625533D01*
X108086221Y-29469011D01*
X108086222Y-29469009D01*
X108115552Y-29433271D01*
X108198814Y-29331814D01*
X108300271Y-29248552D01*
X108336009Y-29219222D01*
X108353913Y-29209652D01*
X108492533Y-29135557D01*
X108549147Y-29118384D01*
X108662373Y-29084037D01*
X108728558Y-29077518D01*
X108794740Y-29071000D01*
X108883260Y-29071000D01*
X108949442Y-29077518D01*
X108949442Y-29077518D01*
G37*
G36*
X77823648Y-27597000D02*
X77951579Y-27622447D01*
X78252042Y-27746903D01*
X78518852Y-27925180D01*
X78522454Y-27927587D01*
X78752413Y-28157546D01*
X78752415Y-28157549D01*
X78933097Y-28427958D01*
X79042790Y-28692779D01*
X79057553Y-28728422D01*
X79121000Y-29047389D01*
X79121000Y-29372611D01*
X79079946Y-29579000D01*
X79057553Y-29691579D01*
X78933097Y-29992042D01*
X78841114Y-30129704D01*
X78752413Y-30262454D01*
X78522454Y-30492413D01*
X78522451Y-30492415D01*
X78252042Y-30673097D01*
X77951579Y-30797553D01*
X77896831Y-30808443D01*
X77632611Y-30861000D01*
X77307389Y-30861000D01*
X77043169Y-30808443D01*
X76988421Y-30797553D01*
X76687958Y-30673097D01*
X76417549Y-30492415D01*
X76417546Y-30492413D01*
X76187587Y-30262454D01*
X76098886Y-30129704D01*
X76006903Y-29992042D01*
X75882447Y-29691579D01*
X75860054Y-29579000D01*
X75819000Y-29372611D01*
X75819000Y-29047389D01*
X75882447Y-28728422D01*
X75897211Y-28692779D01*
X76006903Y-28427958D01*
X76187585Y-28157549D01*
X76187587Y-28157546D01*
X76417546Y-27927587D01*
X76421148Y-27925180D01*
X76687958Y-27746903D01*
X76988421Y-27622447D01*
X77116352Y-27597000D01*
X77307389Y-27559000D01*
X77632611Y-27559000D01*
X77823648Y-27597000D01*
X77823648Y-27597000D01*
G37*
G36*
X169263648Y-27597000D02*
X169391579Y-27622447D01*
X169692042Y-27746903D01*
X169958852Y-27925180D01*
X169962454Y-27927587D01*
X170192413Y-28157546D01*
X170192415Y-28157549D01*
X170373097Y-28427958D01*
X170482790Y-28692779D01*
X170497553Y-28728422D01*
X170561000Y-29047389D01*
X170561000Y-29372611D01*
X170519946Y-29579000D01*
X170497553Y-29691579D01*
X170373097Y-29992042D01*
X170281114Y-30129704D01*
X170192413Y-30262454D01*
X169962454Y-30492413D01*
X169962451Y-30492415D01*
X169692042Y-30673097D01*
X169391579Y-30797553D01*
X169336831Y-30808443D01*
X169072611Y-30861000D01*
X168747389Y-30861000D01*
X168483169Y-30808443D01*
X168428421Y-30797553D01*
X168127958Y-30673097D01*
X167857549Y-30492415D01*
X167857546Y-30492413D01*
X167627587Y-30262454D01*
X167538886Y-30129704D01*
X167446903Y-29992042D01*
X167322447Y-29691579D01*
X167300054Y-29579000D01*
X167259000Y-29372611D01*
X167259000Y-29047389D01*
X167322447Y-28728422D01*
X167337211Y-28692779D01*
X167446903Y-28427958D01*
X167627585Y-28157549D01*
X167627587Y-28157546D01*
X167857546Y-27927587D01*
X167861148Y-27925180D01*
X168127958Y-27746903D01*
X168428421Y-27622447D01*
X168556352Y-27597000D01*
X168747389Y-27559000D01*
X169072611Y-27559000D01*
X169263648Y-27597000D01*
X169263648Y-27597000D01*
G37*
G36*
X135471000Y-29299000D02*
X133769000Y-29299000D01*
X133769000Y-27597000D01*
X135471000Y-27597000D01*
X135471000Y-29299000D01*
X135471000Y-29299000D01*
G37*
G36*
X143649000Y-28841000D02*
X141847000Y-28841000D01*
X141847000Y-27039000D01*
X143649000Y-27039000D01*
X143649000Y-28841000D01*
X143649000Y-28841000D01*
G37*
G36*
X156320443Y-27045519D02*
X156386627Y-27052037D01*
X156497049Y-27085533D01*
X156556467Y-27103557D01*
X156695087Y-27177652D01*
X156712991Y-27187222D01*
X156748729Y-27216552D01*
X156850186Y-27299814D01*
X156933448Y-27401271D01*
X156962778Y-27437009D01*
X156962779Y-27437011D01*
X157046443Y-27593533D01*
X157055214Y-27622447D01*
X157097963Y-27763373D01*
X157115359Y-27940000D01*
X157097963Y-28116627D01*
X157077289Y-28184779D01*
X157046443Y-28286467D01*
X156972348Y-28425087D01*
X156962778Y-28442991D01*
X156961244Y-28444860D01*
X156850186Y-28580186D01*
X156748729Y-28663448D01*
X156712991Y-28692778D01*
X156712989Y-28692779D01*
X156556467Y-28776443D01*
X156499853Y-28793616D01*
X156386627Y-28827963D01*
X156320442Y-28834482D01*
X156254260Y-28841000D01*
X156165740Y-28841000D01*
X156099558Y-28834482D01*
X156033373Y-28827963D01*
X155920147Y-28793616D01*
X155863533Y-28776443D01*
X155707011Y-28692779D01*
X155707009Y-28692778D01*
X155671271Y-28663448D01*
X155569814Y-28580186D01*
X155458756Y-28444860D01*
X155457222Y-28442991D01*
X155447652Y-28425087D01*
X155373557Y-28286467D01*
X155342711Y-28184779D01*
X155322037Y-28116627D01*
X155304641Y-27940000D01*
X155322037Y-27763373D01*
X155364786Y-27622447D01*
X155373557Y-27593533D01*
X155457221Y-27437011D01*
X155457222Y-27437009D01*
X155486552Y-27401271D01*
X155569814Y-27299814D01*
X155671271Y-27216552D01*
X155707009Y-27187222D01*
X155724913Y-27177652D01*
X155863533Y-27103557D01*
X155922951Y-27085533D01*
X156033373Y-27052037D01*
X156099557Y-27045519D01*
X156165740Y-27039000D01*
X156254260Y-27039000D01*
X156320443Y-27045519D01*
X156320443Y-27045519D01*
G37*
G36*
X158860443Y-27045519D02*
X158926627Y-27052037D01*
X159037049Y-27085533D01*
X159096467Y-27103557D01*
X159235087Y-27177652D01*
X159252991Y-27187222D01*
X159288729Y-27216552D01*
X159390186Y-27299814D01*
X159473448Y-27401271D01*
X159502778Y-27437009D01*
X159502779Y-27437011D01*
X159586443Y-27593533D01*
X159595214Y-27622447D01*
X159637963Y-27763373D01*
X159655359Y-27940000D01*
X159637963Y-28116627D01*
X159617289Y-28184779D01*
X159586443Y-28286467D01*
X159512348Y-28425087D01*
X159502778Y-28442991D01*
X159501244Y-28444860D01*
X159390186Y-28580186D01*
X159288729Y-28663448D01*
X159252991Y-28692778D01*
X159252989Y-28692779D01*
X159096467Y-28776443D01*
X159039853Y-28793616D01*
X158926627Y-28827963D01*
X158860442Y-28834482D01*
X158794260Y-28841000D01*
X158705740Y-28841000D01*
X158639558Y-28834482D01*
X158573373Y-28827963D01*
X158460147Y-28793616D01*
X158403533Y-28776443D01*
X158247011Y-28692779D01*
X158247009Y-28692778D01*
X158211271Y-28663448D01*
X158109814Y-28580186D01*
X157998756Y-28444860D01*
X157997222Y-28442991D01*
X157987652Y-28425087D01*
X157913557Y-28286467D01*
X157882711Y-28184779D01*
X157862037Y-28116627D01*
X157844641Y-27940000D01*
X157862037Y-27763373D01*
X157904786Y-27622447D01*
X157913557Y-27593533D01*
X157997221Y-27437011D01*
X157997222Y-27437009D01*
X158026552Y-27401271D01*
X158109814Y-27299814D01*
X158211271Y-27216552D01*
X158247009Y-27187222D01*
X158264913Y-27177652D01*
X158403533Y-27103557D01*
X158462951Y-27085533D01*
X158573373Y-27052037D01*
X158639557Y-27045519D01*
X158705740Y-27039000D01*
X158794260Y-27039000D01*
X158860443Y-27045519D01*
X158860443Y-27045519D01*
G37*
G36*
X145398443Y-27045519D02*
X145464627Y-27052037D01*
X145575049Y-27085533D01*
X145634467Y-27103557D01*
X145773087Y-27177652D01*
X145790991Y-27187222D01*
X145826729Y-27216552D01*
X145928186Y-27299814D01*
X146011448Y-27401271D01*
X146040778Y-27437009D01*
X146040779Y-27437011D01*
X146124443Y-27593533D01*
X146133214Y-27622447D01*
X146175963Y-27763373D01*
X146193359Y-27940000D01*
X146175963Y-28116627D01*
X146155289Y-28184779D01*
X146124443Y-28286467D01*
X146050348Y-28425087D01*
X146040778Y-28442991D01*
X146039244Y-28444860D01*
X145928186Y-28580186D01*
X145826729Y-28663448D01*
X145790991Y-28692778D01*
X145790989Y-28692779D01*
X145634467Y-28776443D01*
X145577853Y-28793616D01*
X145464627Y-28827963D01*
X145398442Y-28834482D01*
X145332260Y-28841000D01*
X145243740Y-28841000D01*
X145177558Y-28834482D01*
X145111373Y-28827963D01*
X144998147Y-28793616D01*
X144941533Y-28776443D01*
X144785011Y-28692779D01*
X144785009Y-28692778D01*
X144749271Y-28663448D01*
X144647814Y-28580186D01*
X144536756Y-28444860D01*
X144535222Y-28442991D01*
X144525652Y-28425087D01*
X144451557Y-28286467D01*
X144420711Y-28184779D01*
X144400037Y-28116627D01*
X144382641Y-27940000D01*
X144400037Y-27763373D01*
X144442786Y-27622447D01*
X144451557Y-27593533D01*
X144535221Y-27437011D01*
X144535222Y-27437009D01*
X144564552Y-27401271D01*
X144647814Y-27299814D01*
X144749271Y-27216552D01*
X144785009Y-27187222D01*
X144802913Y-27177652D01*
X144941533Y-27103557D01*
X145000951Y-27085533D01*
X145111373Y-27052037D01*
X145177557Y-27045519D01*
X145243740Y-27039000D01*
X145332260Y-27039000D01*
X145398443Y-27045519D01*
X145398443Y-27045519D01*
G37*
G36*
X162191000Y-28841000D02*
X160389000Y-28841000D01*
X160389000Y-27039000D01*
X162191000Y-27039000D01*
X162191000Y-28841000D01*
X162191000Y-28841000D01*
G37*
G36*
X147938443Y-27045519D02*
X148004627Y-27052037D01*
X148115049Y-27085533D01*
X148174467Y-27103557D01*
X148313087Y-27177652D01*
X148330991Y-27187222D01*
X148366729Y-27216552D01*
X148468186Y-27299814D01*
X148551448Y-27401271D01*
X148580778Y-27437009D01*
X148580779Y-27437011D01*
X148664443Y-27593533D01*
X148673214Y-27622447D01*
X148715963Y-27763373D01*
X148733359Y-27940000D01*
X148715963Y-28116627D01*
X148695289Y-28184779D01*
X148664443Y-28286467D01*
X148590348Y-28425087D01*
X148580778Y-28442991D01*
X148579244Y-28444860D01*
X148468186Y-28580186D01*
X148366729Y-28663448D01*
X148330991Y-28692778D01*
X148330989Y-28692779D01*
X148174467Y-28776443D01*
X148117853Y-28793616D01*
X148004627Y-28827963D01*
X147938442Y-28834482D01*
X147872260Y-28841000D01*
X147783740Y-28841000D01*
X147717558Y-28834482D01*
X147651373Y-28827963D01*
X147538147Y-28793616D01*
X147481533Y-28776443D01*
X147325011Y-28692779D01*
X147325009Y-28692778D01*
X147289271Y-28663448D01*
X147187814Y-28580186D01*
X147076756Y-28444860D01*
X147075222Y-28442991D01*
X147065652Y-28425087D01*
X146991557Y-28286467D01*
X146960711Y-28184779D01*
X146940037Y-28116627D01*
X146922641Y-27940000D01*
X146940037Y-27763373D01*
X146982786Y-27622447D01*
X146991557Y-27593533D01*
X147075221Y-27437011D01*
X147075222Y-27437009D01*
X147104552Y-27401271D01*
X147187814Y-27299814D01*
X147289271Y-27216552D01*
X147325009Y-27187222D01*
X147342913Y-27177652D01*
X147481533Y-27103557D01*
X147540951Y-27085533D01*
X147651373Y-27052037D01*
X147717557Y-27045519D01*
X147783740Y-27039000D01*
X147872260Y-27039000D01*
X147938443Y-27045519D01*
X147938443Y-27045519D01*
G37*
G36*
X120640425Y-26624760D02*
X120640428Y-26624761D01*
X120640429Y-26624761D01*
X120819693Y-26679140D01*
X120819695Y-26679141D01*
X120984905Y-26767448D01*
X121129712Y-26886288D01*
X121248552Y-27031095D01*
X121248553Y-27031097D01*
X121336860Y-27196307D01*
X121391239Y-27375571D01*
X121391240Y-27375575D01*
X121409601Y-27562000D01*
X121391240Y-27748425D01*
X121391239Y-27748428D01*
X121391239Y-27748429D01*
X121336893Y-27927585D01*
X121336859Y-27927695D01*
X121248552Y-28092905D01*
X121129712Y-28237712D01*
X120984905Y-28356552D01*
X120823190Y-28442991D01*
X120819693Y-28444860D01*
X120640429Y-28499239D01*
X120640428Y-28499239D01*
X120640425Y-28499240D01*
X120500718Y-28513000D01*
X120407282Y-28513000D01*
X120267575Y-28499240D01*
X120267572Y-28499239D01*
X120267571Y-28499239D01*
X120088307Y-28444860D01*
X120084810Y-28442991D01*
X119923095Y-28356552D01*
X119778288Y-28237712D01*
X119659448Y-28092905D01*
X119571141Y-27927695D01*
X119571108Y-27927585D01*
X119516761Y-27748429D01*
X119516761Y-27748428D01*
X119516760Y-27748425D01*
X119498399Y-27562000D01*
X119516760Y-27375575D01*
X119516761Y-27375571D01*
X119571140Y-27196307D01*
X119659447Y-27031097D01*
X119659448Y-27031095D01*
X119778288Y-26886288D01*
X119923095Y-26767448D01*
X120088305Y-26679141D01*
X120088307Y-26679140D01*
X120267571Y-26624761D01*
X120267572Y-26624761D01*
X120267575Y-26624760D01*
X120407282Y-26611000D01*
X120500718Y-26611000D01*
X120640425Y-26624760D01*
X120640425Y-26624760D01*
G37*
G36*
X115190425Y-26624760D02*
X115190428Y-26624761D01*
X115190429Y-26624761D01*
X115369693Y-26679140D01*
X115369695Y-26679141D01*
X115534905Y-26767448D01*
X115679712Y-26886288D01*
X115798552Y-27031095D01*
X115798553Y-27031097D01*
X115886860Y-27196307D01*
X115941239Y-27375571D01*
X115941240Y-27375575D01*
X115959601Y-27562000D01*
X115941240Y-27748425D01*
X115941239Y-27748428D01*
X115941239Y-27748429D01*
X115886893Y-27927585D01*
X115886859Y-27927695D01*
X115798552Y-28092905D01*
X115679712Y-28237712D01*
X115534905Y-28356552D01*
X115373190Y-28442991D01*
X115369693Y-28444860D01*
X115190429Y-28499239D01*
X115190428Y-28499239D01*
X115190425Y-28499240D01*
X115050718Y-28513000D01*
X114957282Y-28513000D01*
X114817575Y-28499240D01*
X114817572Y-28499239D01*
X114817571Y-28499239D01*
X114638307Y-28444860D01*
X114634810Y-28442991D01*
X114473095Y-28356552D01*
X114328288Y-28237712D01*
X114209448Y-28092905D01*
X114121141Y-27927695D01*
X114121108Y-27927585D01*
X114066761Y-27748429D01*
X114066761Y-27748428D01*
X114066760Y-27748425D01*
X114048399Y-27562000D01*
X114066760Y-27375575D01*
X114066761Y-27375571D01*
X114121140Y-27196307D01*
X114209447Y-27031097D01*
X114209448Y-27031095D01*
X114328288Y-26886288D01*
X114473095Y-26767448D01*
X114638305Y-26679141D01*
X114638307Y-26679140D01*
X114817571Y-26624761D01*
X114817572Y-26624761D01*
X114817575Y-26624760D01*
X114957282Y-26611000D01*
X115050718Y-26611000D01*
X115190425Y-26624760D01*
X115190425Y-26624760D01*
G37*
G36*
X126729443Y-26537519D02*
X126795627Y-26544037D01*
X126908853Y-26578384D01*
X126965467Y-26595557D01*
X127104087Y-26669652D01*
X127121991Y-26679222D01*
X127157729Y-26708552D01*
X127259186Y-26791814D01*
X127336718Y-26886288D01*
X127371778Y-26929009D01*
X127371779Y-26929011D01*
X127455443Y-27085533D01*
X127455443Y-27085534D01*
X127506963Y-27255373D01*
X127524359Y-27432000D01*
X127506963Y-27608627D01*
X127472616Y-27721853D01*
X127455443Y-27778467D01*
X127381348Y-27917087D01*
X127371778Y-27934991D01*
X127367667Y-27940000D01*
X127259186Y-28072186D01*
X127157729Y-28155448D01*
X127121991Y-28184778D01*
X127121989Y-28184779D01*
X126965467Y-28268443D01*
X126908853Y-28285616D01*
X126795627Y-28319963D01*
X126729442Y-28326482D01*
X126663260Y-28333000D01*
X126574740Y-28333000D01*
X126508558Y-28326482D01*
X126442373Y-28319963D01*
X126329147Y-28285616D01*
X126272533Y-28268443D01*
X126116011Y-28184779D01*
X126116009Y-28184778D01*
X126080271Y-28155448D01*
X125978814Y-28072186D01*
X125870333Y-27940000D01*
X125866222Y-27934991D01*
X125856652Y-27917087D01*
X125782557Y-27778467D01*
X125765384Y-27721853D01*
X125731037Y-27608627D01*
X125713641Y-27432000D01*
X125731037Y-27255373D01*
X125782557Y-27085534D01*
X125782557Y-27085533D01*
X125866221Y-26929011D01*
X125866222Y-26929009D01*
X125901282Y-26886288D01*
X125978814Y-26791814D01*
X126080271Y-26708552D01*
X126116009Y-26679222D01*
X126133913Y-26669652D01*
X126272533Y-26595557D01*
X126329147Y-26578384D01*
X126442373Y-26544037D01*
X126508557Y-26537519D01*
X126574740Y-26531000D01*
X126663260Y-26531000D01*
X126729443Y-26537519D01*
X126729443Y-26537519D01*
G37*
G36*
X108949443Y-26537519D02*
X109015627Y-26544037D01*
X109128853Y-26578384D01*
X109185467Y-26595557D01*
X109324087Y-26669652D01*
X109341991Y-26679222D01*
X109377729Y-26708552D01*
X109479186Y-26791814D01*
X109556718Y-26886288D01*
X109591778Y-26929009D01*
X109591779Y-26929011D01*
X109675443Y-27085533D01*
X109675443Y-27085534D01*
X109726963Y-27255373D01*
X109744359Y-27432000D01*
X109726963Y-27608627D01*
X109692616Y-27721853D01*
X109675443Y-27778467D01*
X109601348Y-27917087D01*
X109591778Y-27934991D01*
X109587667Y-27940000D01*
X109479186Y-28072186D01*
X109377729Y-28155448D01*
X109341991Y-28184778D01*
X109341989Y-28184779D01*
X109185467Y-28268443D01*
X109128853Y-28285616D01*
X109015627Y-28319963D01*
X108949442Y-28326482D01*
X108883260Y-28333000D01*
X108794740Y-28333000D01*
X108728558Y-28326482D01*
X108662373Y-28319963D01*
X108549147Y-28285616D01*
X108492533Y-28268443D01*
X108336011Y-28184779D01*
X108336009Y-28184778D01*
X108300271Y-28155448D01*
X108198814Y-28072186D01*
X108090333Y-27940000D01*
X108086222Y-27934991D01*
X108076652Y-27917087D01*
X108002557Y-27778467D01*
X107985384Y-27721853D01*
X107951037Y-27608627D01*
X107933641Y-27432000D01*
X107951037Y-27255373D01*
X108002557Y-27085534D01*
X108002557Y-27085533D01*
X108086221Y-26929011D01*
X108086222Y-26929009D01*
X108121282Y-26886288D01*
X108198814Y-26791814D01*
X108300271Y-26708552D01*
X108336009Y-26679222D01*
X108353913Y-26669652D01*
X108492533Y-26595557D01*
X108549147Y-26578384D01*
X108662373Y-26544037D01*
X108728557Y-26537519D01*
X108794740Y-26531000D01*
X108883260Y-26531000D01*
X108949443Y-26537519D01*
X108949443Y-26537519D01*
G37*
M02*
