M48
;DRILL file {KiCad 5.0.2+dfsg1-1} date sam. 26 juin 2021 13:14:33 CEST
;FORMAT={-:-/ absolute / inch / decimal}
FMAT,2
INCH,TZ
T1C0.0236
T2C0.0315
T3C0.0394
T4C0.0400
T5C0.0402
T6C0.0433
T7C0.0591
T8C0.0709
T9C0.1260
%
G90
G05
T1
X8.47Y-4.3
T2
X6.525Y-2.3
X6.6234Y-2.3
X6.613Y-3.7816
X6.613Y-3.88
X8.65Y-2.5826
X8.7484Y-2.5826
X8.65Y-2.275
X8.7484Y-2.275
T3
X7.225Y-2.95
X7.225Y-3.05
X7.225Y-3.15
X7.225Y-3.25
X7.225Y-3.35
X9.05Y-2.6
X9.05Y-2.7
X9.05Y-2.8
X6.775Y-3.45
X6.875Y-3.45
X8.6Y-3.55
X8.6Y-3.65
X8.6Y-3.75
X8.6Y-3.85
X8.6Y-3.95
X8.6Y-4.05
X9.05Y-3.05
X9.05Y-3.15
X9.05Y-3.25
X7.225Y-3.625
X7.225Y-3.725
X7.225Y-3.825
X7.225Y-3.925
X7.225Y-2.2
X7.225Y-2.3
X7.225Y-2.4
X7.225Y-2.5
X7.225Y-2.6
X7.225Y-2.7
X7.7Y-4.3
X7.8Y-4.3
X7.9Y-4.3
X8.Y-4.3
X6.75Y-4.325
X6.85Y-4.325
X6.95Y-4.325
X7.05Y-4.325
X6.2Y-3.85
X6.3Y-3.85
X6.525Y-4.05
X6.625Y-4.05
X6.775Y-3.25
X6.875Y-3.25
X9.05Y-2.2
X9.05Y-2.3
X9.05Y-2.4
X6.2Y-4.05
X6.3Y-4.05
T4
X6.275Y-2.75
X6.275Y-2.85
X6.275Y-2.95
X6.275Y-3.05
X6.275Y-3.15
X6.275Y-3.25
X6.275Y-3.35
X6.275Y-3.45
X6.375Y-2.75
X6.375Y-2.85
X6.375Y-2.95
X6.375Y-3.05
X6.375Y-3.15
X6.375Y-3.25
X6.375Y-3.35
X6.375Y-3.45
T5
X7.575Y-2.1563
X7.575Y-2.2563
X7.575Y-2.3563
X7.575Y-2.4563
X7.575Y-2.5563
X7.575Y-2.6563
X7.575Y-2.7563
X7.575Y-2.8563
X7.575Y-2.9563
X7.575Y-3.0563
X7.575Y-3.1563
X7.575Y-3.2563
X7.575Y-3.3563
X7.575Y-3.4563
X7.575Y-3.5563
X7.575Y-3.6563
X7.575Y-3.7563
X7.575Y-3.8563
X7.575Y-3.9563
X7.575Y-4.0563
X7.825Y-4.0472
X7.925Y-4.0472
X8.025Y-4.0472
X8.275Y-2.1563
X8.275Y-2.2563
X8.275Y-2.3563
X8.275Y-2.4563
X8.275Y-2.5563
X8.275Y-2.6563
X8.275Y-2.7563
X8.275Y-2.8563
X8.275Y-2.9563
X8.275Y-3.0563
X8.275Y-3.1563
X8.275Y-3.2563
X8.275Y-3.3563
X8.275Y-3.4563
X8.275Y-3.5563
X8.275Y-3.6563
X8.275Y-3.7563
X8.275Y-3.8563
X8.275Y-3.9563
X8.275Y-4.0563
T6
X8.5941Y-2.95
X8.5941Y-3.1272
X8.85Y-2.95
X8.85Y-3.1272
X8.9Y-3.85
X8.9Y-4.0272
X9.1559Y-3.85
X9.1559Y-4.0272
X8.9Y-3.5
X8.9Y-3.6772
X9.1559Y-3.5
X9.1559Y-3.6772
T7
X7.8295Y-2.2807
X8.0205Y-2.2807
T8
X7.8177Y-2.1614
X8.0323Y-2.1614
T9
X6.15Y-2.25
X9.3Y-2.25
X6.15Y-4.3
X9.3Y-4.3
T0
M30
