G04 #@! TF.GenerationSoftware,KiCad,Pcbnew,5.0.2+dfsg1-1*
G04 #@! TF.CreationDate,2021-06-26T13:14:36+02:00*
G04 #@! TF.ProjectId,pico-hub75,7069636f-2d68-4756-9237-352e6b696361,rev?*
G04 #@! TF.SameCoordinates,Original*
G04 #@! TF.FileFunction,Copper,L2,Bot*
G04 #@! TF.FilePolarity,Positive*
%FSLAX46Y46*%
G04 Gerber Fmt 4.6, Leading zero omitted, Abs format (unit mm)*
G04 Created by KiCad (PCBNEW 5.0.2+dfsg1-1) date sam. 26 juin 2021 13:14:36 CEST*
%MOMM*%
%LPD*%
G01*
G04 APERTURE LIST*
G04 #@! TA.AperFunction,ComponentPad*
%ADD10R,1.727200X1.727200*%
G04 #@! TD*
G04 #@! TA.AperFunction,ComponentPad*
%ADD11O,1.727200X1.727200*%
G04 #@! TD*
G04 #@! TA.AperFunction,ComponentPad*
%ADD12O,1.700000X1.700000*%
G04 #@! TD*
G04 #@! TA.AperFunction,ComponentPad*
%ADD13R,1.700000X1.700000*%
G04 #@! TD*
G04 #@! TA.AperFunction,ComponentPad*
%ADD14C,2.000000*%
G04 #@! TD*
G04 #@! TA.AperFunction,ComponentPad*
%ADD15R,1.600000X1.600000*%
G04 #@! TD*
G04 #@! TA.AperFunction,ComponentPad*
%ADD16C,1.600000*%
G04 #@! TD*
G04 #@! TA.AperFunction,ViaPad*
%ADD17C,1.200000*%
G04 #@! TD*
G04 #@! TA.AperFunction,Conductor*
%ADD18C,0.900000*%
G04 #@! TD*
G04 #@! TA.AperFunction,Conductor*
%ADD19C,0.250000*%
G04 #@! TD*
G04 #@! TA.AperFunction,Conductor*
%ADD20C,0.350000*%
G04 #@! TD*
G04 #@! TA.AperFunction,Conductor*
%ADD21C,0.254000*%
G04 #@! TD*
G04 APERTURE END LIST*
D10*
G04 #@! TO.P,J1,1*
G04 #@! TO.N,/R0_LV*
X159385000Y-69850000D03*
D11*
G04 #@! TO.P,J1,2*
G04 #@! TO.N,/G0_LV*
X161925000Y-69850000D03*
G04 #@! TO.P,J1,3*
G04 #@! TO.N,/B0_LV*
X159385000Y-72390000D03*
G04 #@! TO.P,J1,4*
G04 #@! TO.N,GND*
X161925000Y-72390000D03*
G04 #@! TO.P,J1,5*
G04 #@! TO.N,/R1_LV*
X159385000Y-74930000D03*
G04 #@! TO.P,J1,6*
G04 #@! TO.N,/G1_LV*
X161925000Y-74930000D03*
G04 #@! TO.P,J1,7*
G04 #@! TO.N,/B1_LV*
X159385000Y-77470000D03*
G04 #@! TO.P,J1,8*
G04 #@! TO.N,Net-(J1-Pad8)*
X161925000Y-77470000D03*
G04 #@! TO.P,J1,9*
G04 #@! TO.N,/A_LV*
X159385000Y-80010000D03*
G04 #@! TO.P,J1,10*
G04 #@! TO.N,/B_LV*
X161925000Y-80010000D03*
G04 #@! TO.P,J1,11*
G04 #@! TO.N,/C_LV*
X159385000Y-82550000D03*
G04 #@! TO.P,J1,12*
G04 #@! TO.N,Net-(J1-Pad12)*
X161925000Y-82550000D03*
G04 #@! TO.P,J1,13*
G04 #@! TO.N,/CLK_LV*
X159385000Y-85090000D03*
G04 #@! TO.P,J1,14*
G04 #@! TO.N,/STB_LV*
X161925000Y-85090000D03*
G04 #@! TO.P,J1,15*
G04 #@! TO.N,/OE_LV*
X159385000Y-87630000D03*
G04 #@! TO.P,J1,16*
G04 #@! TO.N,GND*
X161925000Y-87630000D03*
G04 #@! TD*
D12*
G04 #@! TO.P,U1,1*
G04 #@! TO.N,/R0_LV*
X192405000Y-54770000D03*
G04 #@! TO.P,U1,2*
G04 #@! TO.N,/G0_LV*
X192405000Y-57310000D03*
D13*
G04 #@! TO.P,U1,3*
G04 #@! TO.N,GND*
X192405000Y-59850000D03*
D12*
G04 #@! TO.P,U1,4*
G04 #@! TO.N,/B0_LV*
X192405000Y-62390000D03*
G04 #@! TO.P,U1,5*
G04 #@! TO.N,/R1_LV*
X192405000Y-64930000D03*
G04 #@! TO.P,U1,6*
G04 #@! TO.N,/G1_LV*
X192405000Y-67470000D03*
G04 #@! TO.P,U1,7*
G04 #@! TO.N,/B1_LV*
X192405000Y-70010000D03*
D13*
G04 #@! TO.P,U1,8*
G04 #@! TO.N,GND*
X192405000Y-72550000D03*
D12*
G04 #@! TO.P,U1,9*
G04 #@! TO.N,/A_LV*
X192405000Y-75090000D03*
G04 #@! TO.P,U1,10*
G04 #@! TO.N,/B_LV*
X192405000Y-77630000D03*
G04 #@! TO.P,U1,11*
G04 #@! TO.N,/C_LV*
X192405000Y-80170000D03*
G04 #@! TO.P,U1,12*
G04 #@! TO.N,/D_LV*
X192405000Y-82710000D03*
D13*
G04 #@! TO.P,U1,13*
G04 #@! TO.N,GND*
X192405000Y-85250000D03*
D12*
G04 #@! TO.P,U1,14*
G04 #@! TO.N,/E_LV*
X192405000Y-87790000D03*
G04 #@! TO.P,U1,15*
G04 #@! TO.N,/CLK_LV*
X192405000Y-90330000D03*
G04 #@! TO.P,U1,16*
G04 #@! TO.N,/STB_LV*
X192405000Y-92870000D03*
G04 #@! TO.P,U1,17*
G04 #@! TO.N,/OE_LV*
X192405000Y-95410000D03*
D13*
G04 #@! TO.P,U1,18*
G04 #@! TO.N,GND*
X192405000Y-97950000D03*
D12*
G04 #@! TO.P,U1,19*
G04 #@! TO.N,/SDA*
X192405000Y-100490000D03*
G04 #@! TO.P,U1,20*
G04 #@! TO.N,/SCL*
X192405000Y-103030000D03*
G04 #@! TO.P,U1,21*
G04 #@! TO.N,Net-(J5-Pad1)*
X210185000Y-103030000D03*
G04 #@! TO.P,U1,22*
G04 #@! TO.N,Net-(J5-Pad2)*
X210185000Y-100490000D03*
D13*
G04 #@! TO.P,U1,23*
G04 #@! TO.N,GND*
X210185000Y-97950000D03*
D12*
G04 #@! TO.P,U1,24*
G04 #@! TO.N,Net-(J5-Pad4)*
X210185000Y-95410000D03*
G04 #@! TO.P,U1,25*
G04 #@! TO.N,Net-(J5-Pad5)*
X210185000Y-92870000D03*
G04 #@! TO.P,U1,26*
G04 #@! TO.N,/LED*
X210185000Y-90330000D03*
G04 #@! TO.P,U1,27*
G04 #@! TO.N,/SW2*
X210185000Y-87790000D03*
D13*
G04 #@! TO.P,U1,28*
G04 #@! TO.N,GND*
X210185000Y-85250000D03*
D12*
G04 #@! TO.P,U1,29*
G04 #@! TO.N,/SW1*
X210185000Y-82710000D03*
G04 #@! TO.P,U1,30*
G04 #@! TO.N,/RUN*
X210185000Y-80170000D03*
G04 #@! TO.P,U1,31*
G04 #@! TO.N,Net-(U1-Pad31)*
X210185000Y-77630000D03*
G04 #@! TO.P,U1,32*
G04 #@! TO.N,Net-(U1-Pad32)*
X210185000Y-75090000D03*
D13*
G04 #@! TO.P,U1,33*
G04 #@! TO.N,Net-(U1-Pad33)*
X210185000Y-72550000D03*
D12*
G04 #@! TO.P,U1,34*
G04 #@! TO.N,Net-(U1-Pad34)*
X210185000Y-70010000D03*
G04 #@! TO.P,U1,35*
G04 #@! TO.N,Net-(U1-Pad35)*
X210185000Y-67470000D03*
G04 #@! TO.P,U1,36*
G04 #@! TO.N,+3V3*
X210185000Y-64930000D03*
G04 #@! TO.P,U1,37*
G04 #@! TO.N,Net-(U1-Pad37)*
X210185000Y-62390000D03*
D13*
G04 #@! TO.P,U1,38*
G04 #@! TO.N,GND*
X210185000Y-59850000D03*
D12*
G04 #@! TO.P,U1,39*
G04 #@! TO.N,+5V*
X210185000Y-57310000D03*
G04 #@! TO.P,U1,40*
G04 #@! TO.N,Net-(U1-Pad40)*
X210185000Y-54770000D03*
G04 #@! TO.P,U1,41*
G04 #@! TO.N,Net-(J10-Pad2)*
X198755000Y-102800000D03*
D13*
G04 #@! TO.P,U1,42*
G04 #@! TO.N,GND*
X201295000Y-102800000D03*
D12*
G04 #@! TO.P,U1,43*
G04 #@! TO.N,Net-(J10-Pad3)*
X203835000Y-102800000D03*
G04 #@! TD*
D13*
G04 #@! TO.P,JP1,1*
G04 #@! TO.N,Net-(J1-Pad8)*
X172085000Y-82550000D03*
D12*
G04 #@! TO.P,JP1,2*
G04 #@! TO.N,/E_LV*
X174625000Y-82550000D03*
G04 #@! TD*
G04 #@! TO.P,J2,6*
G04 #@! TO.N,/B1_LV*
X183515000Y-68580000D03*
G04 #@! TO.P,J2,5*
G04 #@! TO.N,/G1_LV*
X183515000Y-66040000D03*
G04 #@! TO.P,J2,4*
G04 #@! TO.N,/R1_LV*
X183515000Y-63500000D03*
G04 #@! TO.P,J2,3*
G04 #@! TO.N,/B0_LV*
X183515000Y-60960000D03*
G04 #@! TO.P,J2,2*
G04 #@! TO.N,/G0_LV*
X183515000Y-58420000D03*
D13*
G04 #@! TO.P,J2,1*
G04 #@! TO.N,/R0_LV*
X183515000Y-55880000D03*
G04 #@! TD*
G04 #@! TO.P,J3,1*
G04 #@! TO.N,/A_LV*
X183515000Y-74930000D03*
D12*
G04 #@! TO.P,J3,2*
G04 #@! TO.N,/B_LV*
X183515000Y-77470000D03*
G04 #@! TO.P,J3,3*
G04 #@! TO.N,/C_LV*
X183515000Y-80010000D03*
G04 #@! TO.P,J3,4*
G04 #@! TO.N,/D_LV*
X183515000Y-82550000D03*
G04 #@! TO.P,J3,5*
G04 #@! TO.N,/E_LV*
X183515000Y-85090000D03*
G04 #@! TD*
D13*
G04 #@! TO.P,J5,1*
G04 #@! TO.N,Net-(J5-Pad1)*
X218440000Y-102870000D03*
D12*
G04 #@! TO.P,J5,2*
G04 #@! TO.N,Net-(J5-Pad2)*
X218440000Y-100330000D03*
G04 #@! TO.P,J5,3*
G04 #@! TO.N,GND*
X218440000Y-97790000D03*
G04 #@! TO.P,J5,4*
G04 #@! TO.N,Net-(J5-Pad4)*
X218440000Y-95250000D03*
G04 #@! TO.P,J5,5*
G04 #@! TO.N,Net-(J5-Pad5)*
X218440000Y-92710000D03*
G04 #@! TO.P,J5,6*
G04 #@! TO.N,+3V3*
X218440000Y-90170000D03*
G04 #@! TD*
D13*
G04 #@! TO.P,J6,1*
G04 #@! TO.N,GND*
X229870000Y-77470000D03*
D12*
G04 #@! TO.P,J6,2*
X229870000Y-80010000D03*
G04 #@! TO.P,J6,3*
X229870000Y-82550000D03*
G04 #@! TD*
G04 #@! TO.P,J7,3*
G04 #@! TO.N,+5V*
X229870000Y-60960000D03*
G04 #@! TO.P,J7,2*
X229870000Y-58420000D03*
D13*
G04 #@! TO.P,J7,1*
X229870000Y-55880000D03*
G04 #@! TD*
G04 #@! TO.P,J8,1*
G04 #@! TO.N,+3V3*
X229870000Y-66040000D03*
D12*
G04 #@! TO.P,J8,2*
X229870000Y-68580000D03*
G04 #@! TO.P,J8,3*
X229870000Y-71120000D03*
G04 #@! TD*
D13*
G04 #@! TO.P,J9,1*
G04 #@! TO.N,+3V3*
X171450000Y-109855000D03*
D12*
G04 #@! TO.P,J9,2*
G04 #@! TO.N,/SDA*
X173990000Y-109855000D03*
G04 #@! TO.P,J9,3*
G04 #@! TO.N,/SCL*
X176530000Y-109855000D03*
G04 #@! TO.P,J9,4*
G04 #@! TO.N,GND*
X179070000Y-109855000D03*
G04 #@! TD*
G04 #@! TO.P,J10,4*
G04 #@! TO.N,Net-(D1-Pad2)*
X203200000Y-109220000D03*
G04 #@! TO.P,J10,3*
G04 #@! TO.N,Net-(J10-Pad3)*
X200660000Y-109220000D03*
G04 #@! TO.P,J10,2*
G04 #@! TO.N,Net-(J10-Pad2)*
X198120000Y-109220000D03*
D13*
G04 #@! TO.P,J10,1*
G04 #@! TO.N,GND*
X195580000Y-109220000D03*
G04 #@! TD*
D14*
G04 #@! TO.P,SW1,2*
G04 #@! TO.N,GND*
X224790000Y-74930000D03*
G04 #@! TO.P,SW1,1*
G04 #@! TO.N,/RUN*
X224790000Y-79430000D03*
G04 #@! TO.P,SW1,2*
G04 #@! TO.N,GND*
X218290000Y-74930000D03*
G04 #@! TO.P,SW1,1*
G04 #@! TO.N,/RUN*
X218290000Y-79430000D03*
G04 #@! TD*
G04 #@! TO.P,SW2,1*
G04 #@! TO.N,/SW1*
X232560000Y-88900000D03*
G04 #@! TO.P,SW2,2*
G04 #@! TO.N,GND*
X232560000Y-93400000D03*
G04 #@! TO.P,SW2,1*
G04 #@! TO.N,/SW1*
X226060000Y-88900000D03*
G04 #@! TO.P,SW2,2*
G04 #@! TO.N,GND*
X226060000Y-93400000D03*
G04 #@! TD*
G04 #@! TO.P,SW3,2*
G04 #@! TO.N,GND*
X226060000Y-102290000D03*
G04 #@! TO.P,SW3,1*
G04 #@! TO.N,/SW2*
X226060000Y-97790000D03*
G04 #@! TO.P,SW3,2*
G04 #@! TO.N,GND*
X232560000Y-102290000D03*
G04 #@! TO.P,SW3,1*
G04 #@! TO.N,/SW2*
X232560000Y-97790000D03*
G04 #@! TD*
D15*
G04 #@! TO.P,C5,1*
G04 #@! TO.N,+3V3*
X219710000Y-65598040D03*
D16*
G04 #@! TO.P,C5,2*
G04 #@! TO.N,GND*
X222210000Y-65598040D03*
G04 #@! TD*
G04 #@! TO.P,C6,2*
G04 #@! TO.N,GND*
X222210000Y-57785000D03*
D15*
G04 #@! TO.P,C6,1*
G04 #@! TO.N,+5V*
X219710000Y-57785000D03*
G04 #@! TD*
G04 #@! TO.P,C7,1*
G04 #@! TO.N,+3V3*
X165735000Y-58420000D03*
D16*
G04 #@! TO.P,C7,2*
G04 #@! TO.N,GND*
X168235000Y-58420000D03*
G04 #@! TD*
G04 #@! TO.P,C8,2*
G04 #@! TO.N,GND*
X167970200Y-96052000D03*
D15*
G04 #@! TO.P,C8,1*
G04 #@! TO.N,+5V*
X167970200Y-98552000D03*
G04 #@! TD*
D13*
G04 #@! TO.P,JP2,1*
G04 #@! TO.N,Net-(J1-Pad12)*
X172085000Y-87630000D03*
D12*
G04 #@! TO.P,JP2,2*
G04 #@! TO.N,/D_LV*
X174625000Y-87630000D03*
G04 #@! TD*
D13*
G04 #@! TO.P,J4,1*
G04 #@! TO.N,/CLK_LV*
X183515000Y-92075000D03*
D12*
G04 #@! TO.P,J4,2*
G04 #@! TO.N,/STB_LV*
X183515000Y-94615000D03*
G04 #@! TO.P,J4,3*
G04 #@! TO.N,/OE_LV*
X183515000Y-97155000D03*
G04 #@! TO.P,J4,4*
G04 #@! TO.N,GND*
X183515000Y-99695000D03*
G04 #@! TD*
G04 #@! TO.P,+5V,2*
G04 #@! TO.N,+5V*
X160020000Y-97790000D03*
D13*
G04 #@! TO.P,+5V,1*
X157480000Y-97790000D03*
G04 #@! TD*
G04 #@! TO.P,+3V3,1*
G04 #@! TO.N,+3V3*
X165735000Y-102870000D03*
D12*
G04 #@! TO.P,+3V3,2*
X168275000Y-102870000D03*
G04 #@! TD*
D13*
G04 #@! TO.P,GND,1*
G04 #@! TO.N,GND*
X157480000Y-102870000D03*
D12*
G04 #@! TO.P,GND,2*
X160020000Y-102870000D03*
G04 #@! TD*
D17*
G04 #@! TO.N,+5V*
X215138000Y-109220000D03*
G04 #@! TD*
D18*
G04 #@! TO.N,GND*
X224790000Y-74930000D02*
X224790000Y-68178040D01*
X224790000Y-68178040D02*
X222210000Y-65598040D01*
X222210000Y-59756040D02*
X222210000Y-57785000D01*
X222210000Y-60315480D02*
X222210000Y-59756040D01*
X210185000Y-59850000D02*
X222116040Y-59850000D01*
X222116040Y-59850000D02*
X222210000Y-59756040D01*
X225470720Y-63576200D02*
X222210000Y-60315480D01*
X232994200Y-63576200D02*
X225470720Y-63576200D01*
X222210000Y-65598040D02*
X222210000Y-57785000D01*
X227533200Y-111912400D02*
X167259000Y-111912400D01*
X239014000Y-100431600D02*
X227533200Y-111912400D01*
X232560000Y-102290000D02*
X237155600Y-102290000D01*
X237155600Y-102290000D02*
X239014000Y-100431600D01*
X201295000Y-100634800D02*
X198610200Y-97950000D01*
X198610200Y-97950000D02*
X192405000Y-97950000D01*
X201295000Y-102800000D02*
X201295000Y-100634800D01*
X195580000Y-109220000D02*
X181610000Y-109220000D01*
D19*
X201295000Y-102800000D02*
X201295000Y-102057200D01*
D18*
X218440000Y-97790000D02*
X221670000Y-97790000D01*
X226060000Y-102290000D02*
X232560000Y-102290000D01*
X218440000Y-97790000D02*
X221560000Y-97790000D01*
X221560000Y-97790000D02*
X226060000Y-102290000D01*
X210185000Y-97950000D02*
X218280000Y-97950000D01*
X218280000Y-97950000D02*
X218440000Y-97790000D01*
X218290000Y-74930000D02*
X218389200Y-74930000D01*
X218389200Y-74930000D02*
X221589600Y-78130400D01*
X221589600Y-81330800D02*
X221589600Y-78130400D01*
X221589600Y-78130400D02*
X224790000Y-74930000D01*
X217670400Y-85250000D02*
X221589600Y-81330800D01*
X210185000Y-85250000D02*
X217670400Y-85250000D01*
X195529200Y-102895400D02*
X189204600Y-109220000D01*
X195529200Y-97967800D02*
X195529200Y-102895400D01*
X189204600Y-109220000D02*
X181610000Y-109220000D01*
X195529200Y-72161400D02*
X195529200Y-97967800D01*
X195529200Y-62974200D02*
X195529200Y-72161400D01*
X192405000Y-72550000D02*
X195140600Y-72550000D01*
X195140600Y-72550000D02*
X195529200Y-72161400D01*
X195511400Y-97950000D02*
X195529200Y-97967800D01*
X192405000Y-97950000D02*
X195511400Y-97950000D01*
X192405000Y-59850000D02*
X195529200Y-62974200D01*
X239014000Y-69596000D02*
X232994200Y-63576200D01*
X239014000Y-100431600D02*
X239014000Y-69596000D01*
X201295000Y-102800000D02*
X201295000Y-101320600D01*
X179705000Y-109220000D02*
X179070000Y-109855000D01*
X181610000Y-109220000D02*
X179705000Y-109220000D01*
X154178000Y-99568000D02*
X157480000Y-102870000D01*
X154178000Y-66878200D02*
X154178000Y-99568000D01*
X157480000Y-102870000D02*
X160020000Y-102870000D01*
X167259000Y-110109000D02*
X160020000Y-102870000D01*
X167259000Y-111912400D02*
X167259000Y-110109000D01*
X160020000Y-102870000D02*
X160020000Y-102819200D01*
X166787200Y-96052000D02*
X167970200Y-96052000D01*
X160020000Y-102819200D02*
X166787200Y-96052000D01*
X161925000Y-87630000D02*
X161925000Y-87833200D01*
X167970200Y-93878400D02*
X167970200Y-96052000D01*
X161925000Y-87833200D02*
X167970200Y-93878400D01*
X161925000Y-72390000D02*
X163576000Y-72390000D01*
X163576000Y-72390000D02*
X168235000Y-67731000D01*
X154178000Y-66878200D02*
X160197800Y-60858400D01*
X167041200Y-60858400D02*
X168235000Y-59664600D01*
X160197800Y-60858400D02*
X167041200Y-60858400D01*
X168235000Y-67731000D02*
X168235000Y-59664600D01*
X168235000Y-59664600D02*
X168235000Y-58420000D01*
X192405000Y-85250000D02*
X189476400Y-85250000D01*
X189476400Y-85250000D02*
X185420000Y-89306400D01*
X185420000Y-89306400D02*
X178231800Y-89306400D01*
X171486200Y-96052000D02*
X167970200Y-96052000D01*
X178231800Y-89306400D02*
X171486200Y-96052000D01*
X175129200Y-99695000D02*
X171486200Y-96052000D01*
X183515000Y-99695000D02*
X175129200Y-99695000D01*
G04 #@! TO.N,+5V*
X215138000Y-109220000D02*
X215138000Y-108458000D01*
X215138000Y-108458000D02*
X212852000Y-106172000D01*
X212852000Y-106172000D02*
X208534000Y-106172000D01*
X208534000Y-106172000D02*
X207137000Y-104775000D01*
X207137000Y-104775000D02*
X207137000Y-59055000D01*
X208882000Y-57310000D02*
X210185000Y-57310000D01*
X207137000Y-59055000D02*
X208882000Y-57310000D01*
D20*
G04 #@! TO.N,/E_LV*
X180975000Y-82550000D02*
X183515000Y-85090000D01*
X174625000Y-82550000D02*
X180975000Y-82550000D01*
G04 #@! TO.N,/CLK_LV*
X183515000Y-92075000D02*
X188137800Y-92075000D01*
X189882800Y-90330000D02*
X192405000Y-90330000D01*
X188137800Y-92075000D02*
X189882800Y-90330000D01*
G04 #@! TO.N,/SDA*
X192405000Y-100490000D02*
X187292000Y-100490000D01*
X187292000Y-100490000D02*
X185521600Y-102260400D01*
X181584600Y-102260400D02*
X173990000Y-109855000D01*
X185521600Y-102260400D02*
X181584600Y-102260400D01*
G04 #@! TO.N,/SCL*
X183355000Y-103030000D02*
X176530000Y-109855000D01*
X192405000Y-103030000D02*
X183355000Y-103030000D01*
G04 #@! TO.N,Net-(J10-Pad3)*
X200660000Y-109220000D02*
X200660000Y-108051600D01*
X203835000Y-104876600D02*
X203835000Y-102800000D01*
X200660000Y-108051600D02*
X203835000Y-104876600D01*
G04 #@! TO.N,Net-(J10-Pad2)*
X198120000Y-103435000D02*
X198755000Y-102800000D01*
X198120000Y-109220000D02*
X198120000Y-103435000D01*
G04 #@! TO.N,/SW2*
X210185000Y-87790000D02*
X219158800Y-87790000D01*
X219158800Y-87790000D02*
X221310200Y-89941400D01*
X221310200Y-89941400D02*
X221310200Y-94589600D01*
X224510600Y-97790000D02*
X226060000Y-97790000D01*
X221310200Y-94589600D02*
X224510600Y-97790000D01*
G04 #@! TO.N,Net-(J1-Pad8)*
X172085000Y-82550000D02*
X172085000Y-80010000D01*
X169545000Y-77470000D02*
X161925000Y-77470000D01*
X172085000Y-80010000D02*
X169545000Y-77470000D01*
G04 #@! TD*
D21*
G04 #@! TO.N,GND*
G36*
X191006161Y-54190582D02*
X190890908Y-54770000D01*
X191006161Y-55349418D01*
X191334375Y-55840625D01*
X191632761Y-56040000D01*
X191334375Y-56239375D01*
X191006161Y-56730582D01*
X190890908Y-57310000D01*
X191006161Y-57889418D01*
X191334375Y-58380625D01*
X191825582Y-58708839D01*
X192258744Y-58795000D01*
X192551256Y-58795000D01*
X192984418Y-58708839D01*
X193475625Y-58380625D01*
X193776722Y-57930000D01*
X197457867Y-57930000D01*
X197565359Y-58470400D01*
X197871471Y-58928529D01*
X198329600Y-59234641D01*
X198733593Y-59315000D01*
X199006407Y-59315000D01*
X199410400Y-59234641D01*
X199868529Y-58928529D01*
X200174641Y-58470400D01*
X200282133Y-57930000D01*
X202307867Y-57930000D01*
X202415359Y-58470400D01*
X202721471Y-58928529D01*
X203179600Y-59234641D01*
X203583593Y-59315000D01*
X203856407Y-59315000D01*
X204260400Y-59234641D01*
X204718529Y-58928529D01*
X205024641Y-58470400D01*
X205132133Y-57930000D01*
X205024641Y-57389600D01*
X204718529Y-56931471D01*
X204260400Y-56625359D01*
X203856407Y-56545000D01*
X203583593Y-56545000D01*
X203179600Y-56625359D01*
X202721471Y-56931471D01*
X202415359Y-57389600D01*
X202307867Y-57930000D01*
X200282133Y-57930000D01*
X200174641Y-57389600D01*
X199868529Y-56931471D01*
X199410400Y-56625359D01*
X199006407Y-56545000D01*
X198733593Y-56545000D01*
X198329600Y-56625359D01*
X197871471Y-56931471D01*
X197565359Y-57389600D01*
X197457867Y-57930000D01*
X193776722Y-57930000D01*
X193803839Y-57889418D01*
X193919092Y-57310000D01*
X193803839Y-56730582D01*
X193475625Y-56239375D01*
X193177239Y-56040000D01*
X193475625Y-55840625D01*
X193803839Y-55349418D01*
X193919092Y-54770000D01*
X193803839Y-54190582D01*
X193726610Y-54075000D01*
X197275119Y-54075000D01*
X197124062Y-54301073D01*
X197004928Y-54900000D01*
X197124062Y-55498927D01*
X197463327Y-56006673D01*
X197971073Y-56345938D01*
X198418818Y-56435000D01*
X198721182Y-56435000D01*
X199168927Y-56345938D01*
X199676673Y-56006673D01*
X200015938Y-55498927D01*
X200135072Y-54900000D01*
X200015938Y-54301073D01*
X199864881Y-54075000D01*
X202725119Y-54075000D01*
X202574062Y-54301073D01*
X202454928Y-54900000D01*
X202574062Y-55498927D01*
X202913327Y-56006673D01*
X203421073Y-56345938D01*
X203868818Y-56435000D01*
X204171182Y-56435000D01*
X204618927Y-56345938D01*
X205126673Y-56006673D01*
X205465938Y-55498927D01*
X205585072Y-54900000D01*
X205465938Y-54301073D01*
X205314881Y-54075000D01*
X208863390Y-54075000D01*
X208786161Y-54190582D01*
X208670908Y-54770000D01*
X208786161Y-55349418D01*
X209114375Y-55840625D01*
X209412761Y-56040000D01*
X209135889Y-56225000D01*
X208988861Y-56225000D01*
X208882000Y-56203744D01*
X208458654Y-56287953D01*
X208190351Y-56467227D01*
X208190350Y-56467228D01*
X208099759Y-56527759D01*
X208039228Y-56618350D01*
X206445353Y-58212226D01*
X206354760Y-58272759D01*
X206207014Y-58493876D01*
X206114953Y-58631655D01*
X206030745Y-59055000D01*
X206052001Y-59161862D01*
X206052000Y-104668143D01*
X206030745Y-104775000D01*
X206052000Y-104881857D01*
X206052000Y-104881860D01*
X206114953Y-105198345D01*
X206354759Y-105557241D01*
X206445356Y-105617776D01*
X207691226Y-106863647D01*
X207751759Y-106954241D01*
X208110654Y-107194047D01*
X208427139Y-107257000D01*
X208427143Y-107257000D01*
X208533999Y-107278255D01*
X208640855Y-107257000D01*
X212402580Y-107257000D01*
X213966535Y-108820956D01*
X213903000Y-108974343D01*
X213903000Y-109465657D01*
X214091018Y-109919571D01*
X214438429Y-110266982D01*
X214892343Y-110455000D01*
X215383657Y-110455000D01*
X215837571Y-110266982D01*
X216184982Y-109919571D01*
X216373000Y-109465657D01*
X216373000Y-108974343D01*
X216290608Y-108775431D01*
X233985000Y-108775431D01*
X233985000Y-109664569D01*
X234325259Y-110486026D01*
X234953974Y-111114741D01*
X235775431Y-111455000D01*
X236664569Y-111455000D01*
X237486026Y-111114741D01*
X238114741Y-110486026D01*
X238455000Y-109664569D01*
X238455000Y-108775431D01*
X238114741Y-107953974D01*
X237486026Y-107325259D01*
X236664569Y-106985000D01*
X235775431Y-106985000D01*
X234953974Y-107325259D01*
X234325259Y-107953974D01*
X233985000Y-108775431D01*
X216290608Y-108775431D01*
X216223000Y-108612212D01*
X216223000Y-108564856D01*
X216244255Y-108457999D01*
X216223000Y-108351139D01*
X216160047Y-108034654D01*
X215920241Y-107675759D01*
X215829647Y-107615226D01*
X213694776Y-105480356D01*
X213634241Y-105389759D01*
X213275346Y-105149953D01*
X212958861Y-105087000D01*
X212958857Y-105087000D01*
X212852000Y-105065745D01*
X212745143Y-105087000D01*
X208983421Y-105087000D01*
X208222000Y-104325580D01*
X208222000Y-100490000D01*
X208670908Y-100490000D01*
X208786161Y-101069418D01*
X209114375Y-101560625D01*
X209412761Y-101760000D01*
X209114375Y-101959375D01*
X208786161Y-102450582D01*
X208670908Y-103030000D01*
X208786161Y-103609418D01*
X209114375Y-104100625D01*
X209605582Y-104428839D01*
X210038744Y-104515000D01*
X210331256Y-104515000D01*
X210764418Y-104428839D01*
X211255625Y-104100625D01*
X211583839Y-103609418D01*
X211699092Y-103030000D01*
X211583839Y-102450582D01*
X211255625Y-101959375D01*
X210957239Y-101760000D01*
X211255625Y-101560625D01*
X211583839Y-101069418D01*
X211699092Y-100490000D01*
X211667267Y-100330000D01*
X216925908Y-100330000D01*
X217041161Y-100909418D01*
X217369375Y-101400625D01*
X217387619Y-101412816D01*
X217342235Y-101421843D01*
X217132191Y-101562191D01*
X216991843Y-101772235D01*
X216942560Y-102020000D01*
X216942560Y-103720000D01*
X216991843Y-103967765D01*
X217132191Y-104177809D01*
X217342235Y-104318157D01*
X217590000Y-104367440D01*
X219290000Y-104367440D01*
X219537765Y-104318157D01*
X219747809Y-104177809D01*
X219888157Y-103967765D01*
X219937440Y-103720000D01*
X219937440Y-102020000D01*
X219888157Y-101772235D01*
X219747809Y-101562191D01*
X219537765Y-101421843D01*
X219492381Y-101412816D01*
X219510625Y-101400625D01*
X219838839Y-100909418D01*
X219954092Y-100330000D01*
X219838839Y-99750582D01*
X219510625Y-99259375D01*
X219019418Y-98931161D01*
X218586256Y-98845000D01*
X218293744Y-98845000D01*
X217860582Y-98931161D01*
X217369375Y-99259375D01*
X217041161Y-99750582D01*
X216925908Y-100330000D01*
X211667267Y-100330000D01*
X211583839Y-99910582D01*
X211255625Y-99419375D01*
X210764418Y-99091161D01*
X210331256Y-99005000D01*
X210038744Y-99005000D01*
X209605582Y-99091161D01*
X209114375Y-99419375D01*
X208786161Y-99910582D01*
X208670908Y-100490000D01*
X208222000Y-100490000D01*
X208222000Y-87790000D01*
X208670908Y-87790000D01*
X208786161Y-88369418D01*
X209114375Y-88860625D01*
X209412761Y-89060000D01*
X209114375Y-89259375D01*
X208786161Y-89750582D01*
X208670908Y-90330000D01*
X208786161Y-90909418D01*
X209114375Y-91400625D01*
X209412761Y-91600000D01*
X209114375Y-91799375D01*
X208786161Y-92290582D01*
X208670908Y-92870000D01*
X208786161Y-93449418D01*
X209114375Y-93940625D01*
X209412761Y-94140000D01*
X209114375Y-94339375D01*
X208786161Y-94830582D01*
X208670908Y-95410000D01*
X208786161Y-95989418D01*
X209114375Y-96480625D01*
X209605582Y-96808839D01*
X210038744Y-96895000D01*
X210331256Y-96895000D01*
X210764418Y-96808839D01*
X211255625Y-96480625D01*
X211583839Y-95989418D01*
X211699092Y-95410000D01*
X211583839Y-94830582D01*
X211255625Y-94339375D01*
X210957239Y-94140000D01*
X211255625Y-93940625D01*
X211583839Y-93449418D01*
X211699092Y-92870000D01*
X211583839Y-92290582D01*
X211255625Y-91799375D01*
X210957239Y-91600000D01*
X211255625Y-91400625D01*
X211583839Y-90909418D01*
X211699092Y-90330000D01*
X211583839Y-89750582D01*
X211255625Y-89259375D01*
X210957239Y-89060000D01*
X211255625Y-88860625D01*
X211429769Y-88600000D01*
X218823288Y-88600000D01*
X218988249Y-88764961D01*
X218586256Y-88685000D01*
X218293744Y-88685000D01*
X217860582Y-88771161D01*
X217369375Y-89099375D01*
X217041161Y-89590582D01*
X216925908Y-90170000D01*
X217041161Y-90749418D01*
X217369375Y-91240625D01*
X217667761Y-91440000D01*
X217369375Y-91639375D01*
X217041161Y-92130582D01*
X216925908Y-92710000D01*
X217041161Y-93289418D01*
X217369375Y-93780625D01*
X217667761Y-93980000D01*
X217369375Y-94179375D01*
X217041161Y-94670582D01*
X216925908Y-95250000D01*
X217041161Y-95829418D01*
X217369375Y-96320625D01*
X217860582Y-96648839D01*
X218293744Y-96735000D01*
X218586256Y-96735000D01*
X219019418Y-96648839D01*
X219510625Y-96320625D01*
X219838839Y-95829418D01*
X219954092Y-95250000D01*
X219838839Y-94670582D01*
X219510625Y-94179375D01*
X219212239Y-93980000D01*
X219510625Y-93780625D01*
X219838839Y-93289418D01*
X219954092Y-92710000D01*
X219838839Y-92130582D01*
X219510625Y-91639375D01*
X219212239Y-91440000D01*
X219510625Y-91240625D01*
X219838839Y-90749418D01*
X219954092Y-90170000D01*
X219845039Y-89621752D01*
X220500200Y-90276913D01*
X220500201Y-94509822D01*
X220484332Y-94589600D01*
X220532267Y-94830582D01*
X220547198Y-94905646D01*
X220726224Y-95173577D01*
X220793854Y-95218766D01*
X223881434Y-98306347D01*
X223926623Y-98373977D01*
X224194554Y-98553003D01*
X224430826Y-98600000D01*
X224510599Y-98615868D01*
X224590372Y-98600000D01*
X224625802Y-98600000D01*
X224673914Y-98716153D01*
X225133847Y-99176086D01*
X225734778Y-99425000D01*
X226385222Y-99425000D01*
X226986153Y-99176086D01*
X227446086Y-98716153D01*
X227695000Y-98115222D01*
X227695000Y-97464778D01*
X230925000Y-97464778D01*
X230925000Y-98115222D01*
X231173914Y-98716153D01*
X231633847Y-99176086D01*
X232234778Y-99425000D01*
X232885222Y-99425000D01*
X233486153Y-99176086D01*
X233946086Y-98716153D01*
X234195000Y-98115222D01*
X234195000Y-97464778D01*
X233946086Y-96863847D01*
X233486153Y-96403914D01*
X232885222Y-96155000D01*
X232234778Y-96155000D01*
X231633847Y-96403914D01*
X231173914Y-96863847D01*
X230925000Y-97464778D01*
X227695000Y-97464778D01*
X227446086Y-96863847D01*
X226986153Y-96403914D01*
X226385222Y-96155000D01*
X225734778Y-96155000D01*
X225133847Y-96403914D01*
X224701937Y-96835824D01*
X222120200Y-94254088D01*
X222120200Y-90021172D01*
X222136068Y-89941399D01*
X222097205Y-89746023D01*
X222073203Y-89625354D01*
X221894177Y-89357423D01*
X221826547Y-89312234D01*
X221089091Y-88574778D01*
X224425000Y-88574778D01*
X224425000Y-89225222D01*
X224673914Y-89826153D01*
X225133847Y-90286086D01*
X225734778Y-90535000D01*
X226385222Y-90535000D01*
X226986153Y-90286086D01*
X227446086Y-89826153D01*
X227695000Y-89225222D01*
X227695000Y-88574778D01*
X230925000Y-88574778D01*
X230925000Y-89225222D01*
X231173914Y-89826153D01*
X231633847Y-90286086D01*
X232234778Y-90535000D01*
X232885222Y-90535000D01*
X233486153Y-90286086D01*
X233946086Y-89826153D01*
X234195000Y-89225222D01*
X234195000Y-88574778D01*
X233946086Y-87973847D01*
X233486153Y-87513914D01*
X232885222Y-87265000D01*
X232234778Y-87265000D01*
X231633847Y-87513914D01*
X231173914Y-87973847D01*
X230925000Y-88574778D01*
X227695000Y-88574778D01*
X227446086Y-87973847D01*
X226986153Y-87513914D01*
X226385222Y-87265000D01*
X225734778Y-87265000D01*
X225133847Y-87513914D01*
X224673914Y-87973847D01*
X224425000Y-88574778D01*
X221089091Y-88574778D01*
X219787968Y-87273656D01*
X219742777Y-87206023D01*
X219474846Y-87026997D01*
X219238574Y-86980000D01*
X219238573Y-86980000D01*
X219158800Y-86964132D01*
X219079027Y-86980000D01*
X211429769Y-86980000D01*
X211255625Y-86719375D01*
X210764418Y-86391161D01*
X210331256Y-86305000D01*
X210038744Y-86305000D01*
X209605582Y-86391161D01*
X209114375Y-86719375D01*
X208786161Y-87210582D01*
X208670908Y-87790000D01*
X208222000Y-87790000D01*
X208222000Y-62390000D01*
X208670908Y-62390000D01*
X208786161Y-62969418D01*
X209114375Y-63460625D01*
X209412761Y-63660000D01*
X209114375Y-63859375D01*
X208786161Y-64350582D01*
X208670908Y-64930000D01*
X208786161Y-65509418D01*
X209114375Y-66000625D01*
X209412761Y-66200000D01*
X209114375Y-66399375D01*
X208786161Y-66890582D01*
X208670908Y-67470000D01*
X208786161Y-68049418D01*
X209114375Y-68540625D01*
X209412761Y-68740000D01*
X209114375Y-68939375D01*
X208786161Y-69430582D01*
X208670908Y-70010000D01*
X208786161Y-70589418D01*
X209114375Y-71080625D01*
X209132619Y-71092816D01*
X209087235Y-71101843D01*
X208877191Y-71242191D01*
X208736843Y-71452235D01*
X208687560Y-71700000D01*
X208687560Y-73400000D01*
X208736843Y-73647765D01*
X208877191Y-73857809D01*
X209087235Y-73998157D01*
X209132619Y-74007184D01*
X209114375Y-74019375D01*
X208786161Y-74510582D01*
X208670908Y-75090000D01*
X208786161Y-75669418D01*
X209114375Y-76160625D01*
X209412761Y-76360000D01*
X209114375Y-76559375D01*
X208786161Y-77050582D01*
X208670908Y-77630000D01*
X208786161Y-78209418D01*
X209114375Y-78700625D01*
X209412761Y-78900000D01*
X209114375Y-79099375D01*
X208786161Y-79590582D01*
X208670908Y-80170000D01*
X208786161Y-80749418D01*
X209114375Y-81240625D01*
X209412761Y-81440000D01*
X209114375Y-81639375D01*
X208786161Y-82130582D01*
X208670908Y-82710000D01*
X208786161Y-83289418D01*
X209114375Y-83780625D01*
X209605582Y-84108839D01*
X210038744Y-84195000D01*
X210331256Y-84195000D01*
X210764418Y-84108839D01*
X211255625Y-83780625D01*
X211583839Y-83289418D01*
X211699092Y-82710000D01*
X211583839Y-82130582D01*
X211255625Y-81639375D01*
X210957239Y-81440000D01*
X211255625Y-81240625D01*
X211583839Y-80749418D01*
X211699092Y-80170000D01*
X211583839Y-79590582D01*
X211259236Y-79104778D01*
X216655000Y-79104778D01*
X216655000Y-79755222D01*
X216903914Y-80356153D01*
X217363847Y-80816086D01*
X217964778Y-81065000D01*
X218615222Y-81065000D01*
X219216153Y-80816086D01*
X219676086Y-80356153D01*
X219925000Y-79755222D01*
X219925000Y-79104778D01*
X223155000Y-79104778D01*
X223155000Y-79755222D01*
X223403914Y-80356153D01*
X223863847Y-80816086D01*
X224464778Y-81065000D01*
X225115222Y-81065000D01*
X225716153Y-80816086D01*
X226176086Y-80356153D01*
X226425000Y-79755222D01*
X226425000Y-79104778D01*
X226176086Y-78503847D01*
X225716153Y-78043914D01*
X225115222Y-77795000D01*
X224464778Y-77795000D01*
X223863847Y-78043914D01*
X223403914Y-78503847D01*
X223155000Y-79104778D01*
X219925000Y-79104778D01*
X219676086Y-78503847D01*
X219216153Y-78043914D01*
X218615222Y-77795000D01*
X217964778Y-77795000D01*
X217363847Y-78043914D01*
X216903914Y-78503847D01*
X216655000Y-79104778D01*
X211259236Y-79104778D01*
X211255625Y-79099375D01*
X210957239Y-78900000D01*
X211255625Y-78700625D01*
X211583839Y-78209418D01*
X211699092Y-77630000D01*
X211583839Y-77050582D01*
X211255625Y-76559375D01*
X210957239Y-76360000D01*
X211255625Y-76160625D01*
X211583839Y-75669418D01*
X211699092Y-75090000D01*
X211583839Y-74510582D01*
X211255625Y-74019375D01*
X211237381Y-74007184D01*
X211282765Y-73998157D01*
X211492809Y-73857809D01*
X211633157Y-73647765D01*
X211682440Y-73400000D01*
X211682440Y-71700000D01*
X211633157Y-71452235D01*
X211492809Y-71242191D01*
X211282765Y-71101843D01*
X211237381Y-71092816D01*
X211255625Y-71080625D01*
X211583839Y-70589418D01*
X211699092Y-70010000D01*
X211583839Y-69430582D01*
X211255625Y-68939375D01*
X210957239Y-68740000D01*
X211196696Y-68580000D01*
X228355908Y-68580000D01*
X228471161Y-69159418D01*
X228799375Y-69650625D01*
X229097761Y-69850000D01*
X228799375Y-70049375D01*
X228471161Y-70540582D01*
X228355908Y-71120000D01*
X228471161Y-71699418D01*
X228799375Y-72190625D01*
X229290582Y-72518839D01*
X229723744Y-72605000D01*
X230016256Y-72605000D01*
X230449418Y-72518839D01*
X230940625Y-72190625D01*
X231268839Y-71699418D01*
X231384092Y-71120000D01*
X231268839Y-70540582D01*
X230940625Y-70049375D01*
X230642239Y-69850000D01*
X230940625Y-69650625D01*
X231268839Y-69159418D01*
X231384092Y-68580000D01*
X231268839Y-68000582D01*
X230940625Y-67509375D01*
X230922381Y-67497184D01*
X230967765Y-67488157D01*
X231177809Y-67347809D01*
X231318157Y-67137765D01*
X231367440Y-66890000D01*
X231367440Y-65190000D01*
X231318157Y-64942235D01*
X231177809Y-64732191D01*
X230967765Y-64591843D01*
X230720000Y-64542560D01*
X229020000Y-64542560D01*
X228772235Y-64591843D01*
X228562191Y-64732191D01*
X228421843Y-64942235D01*
X228372560Y-65190000D01*
X228372560Y-66890000D01*
X228421843Y-67137765D01*
X228562191Y-67347809D01*
X228772235Y-67488157D01*
X228817619Y-67497184D01*
X228799375Y-67509375D01*
X228471161Y-68000582D01*
X228355908Y-68580000D01*
X211196696Y-68580000D01*
X211255625Y-68540625D01*
X211583839Y-68049418D01*
X211699092Y-67470000D01*
X211583839Y-66890582D01*
X211255625Y-66399375D01*
X210957239Y-66200000D01*
X211255625Y-66000625D01*
X211583839Y-65509418D01*
X211699092Y-64930000D01*
X211672844Y-64798040D01*
X218262560Y-64798040D01*
X218262560Y-66398040D01*
X218311843Y-66645805D01*
X218452191Y-66855849D01*
X218662235Y-66996197D01*
X218910000Y-67045480D01*
X220510000Y-67045480D01*
X220757765Y-66996197D01*
X220967809Y-66855849D01*
X221108157Y-66645805D01*
X221157440Y-66398040D01*
X221157440Y-64798040D01*
X221108157Y-64550275D01*
X220967809Y-64340231D01*
X220757765Y-64199883D01*
X220510000Y-64150600D01*
X218910000Y-64150600D01*
X218662235Y-64199883D01*
X218452191Y-64340231D01*
X218311843Y-64550275D01*
X218262560Y-64798040D01*
X211672844Y-64798040D01*
X211583839Y-64350582D01*
X211255625Y-63859375D01*
X210957239Y-63660000D01*
X211255625Y-63460625D01*
X211583839Y-62969418D01*
X211699092Y-62390000D01*
X211583839Y-61810582D01*
X211255625Y-61319375D01*
X210764418Y-60991161D01*
X210331256Y-60905000D01*
X210038744Y-60905000D01*
X209605582Y-60991161D01*
X209114375Y-61319375D01*
X208786161Y-61810582D01*
X208670908Y-62390000D01*
X208222000Y-62390000D01*
X208222000Y-59504420D01*
X209253102Y-58473319D01*
X209605582Y-58708839D01*
X210038744Y-58795000D01*
X210331256Y-58795000D01*
X210764418Y-58708839D01*
X211255625Y-58380625D01*
X211583839Y-57889418D01*
X211699092Y-57310000D01*
X211634446Y-56985000D01*
X218262560Y-56985000D01*
X218262560Y-58585000D01*
X218311843Y-58832765D01*
X218452191Y-59042809D01*
X218662235Y-59183157D01*
X218910000Y-59232440D01*
X220510000Y-59232440D01*
X220757765Y-59183157D01*
X220967809Y-59042809D01*
X221108157Y-58832765D01*
X221157440Y-58585000D01*
X221157440Y-58420000D01*
X228355908Y-58420000D01*
X228471161Y-58999418D01*
X228799375Y-59490625D01*
X229097761Y-59690000D01*
X228799375Y-59889375D01*
X228471161Y-60380582D01*
X228355908Y-60960000D01*
X228471161Y-61539418D01*
X228799375Y-62030625D01*
X229290582Y-62358839D01*
X229723744Y-62445000D01*
X230016256Y-62445000D01*
X230449418Y-62358839D01*
X230940625Y-62030625D01*
X231268839Y-61539418D01*
X231384092Y-60960000D01*
X231268839Y-60380582D01*
X230940625Y-59889375D01*
X230642239Y-59690000D01*
X230940625Y-59490625D01*
X231268839Y-58999418D01*
X231384092Y-58420000D01*
X231268839Y-57840582D01*
X230940625Y-57349375D01*
X230922381Y-57337184D01*
X230967765Y-57328157D01*
X231177809Y-57187809D01*
X231318157Y-56977765D01*
X231367440Y-56730000D01*
X231367440Y-56705431D01*
X233985000Y-56705431D01*
X233985000Y-57594569D01*
X234325259Y-58416026D01*
X234953974Y-59044741D01*
X235775431Y-59385000D01*
X236664569Y-59385000D01*
X237486026Y-59044741D01*
X238114741Y-58416026D01*
X238455000Y-57594569D01*
X238455000Y-56705431D01*
X238114741Y-55883974D01*
X237486026Y-55255259D01*
X236664569Y-54915000D01*
X235775431Y-54915000D01*
X234953974Y-55255259D01*
X234325259Y-55883974D01*
X233985000Y-56705431D01*
X231367440Y-56705431D01*
X231367440Y-55030000D01*
X231318157Y-54782235D01*
X231177809Y-54572191D01*
X230967765Y-54431843D01*
X230720000Y-54382560D01*
X229020000Y-54382560D01*
X228772235Y-54431843D01*
X228562191Y-54572191D01*
X228421843Y-54782235D01*
X228372560Y-55030000D01*
X228372560Y-56730000D01*
X228421843Y-56977765D01*
X228562191Y-57187809D01*
X228772235Y-57328157D01*
X228817619Y-57337184D01*
X228799375Y-57349375D01*
X228471161Y-57840582D01*
X228355908Y-58420000D01*
X221157440Y-58420000D01*
X221157440Y-56985000D01*
X221108157Y-56737235D01*
X220967809Y-56527191D01*
X220757765Y-56386843D01*
X220510000Y-56337560D01*
X218910000Y-56337560D01*
X218662235Y-56386843D01*
X218452191Y-56527191D01*
X218311843Y-56737235D01*
X218262560Y-56985000D01*
X211634446Y-56985000D01*
X211583839Y-56730582D01*
X211255625Y-56239375D01*
X210957239Y-56040000D01*
X211255625Y-55840625D01*
X211583839Y-55349418D01*
X211699092Y-54770000D01*
X211583839Y-54190582D01*
X211506610Y-54075000D01*
X236182770Y-54075000D01*
X236837551Y-54141510D01*
X237429883Y-54327135D01*
X237972787Y-54628073D01*
X238444090Y-55032028D01*
X238824540Y-55522503D01*
X239098598Y-56079461D01*
X239257348Y-56688914D01*
X239295000Y-57178239D01*
X239295001Y-109182760D01*
X239228490Y-109837551D01*
X239042864Y-110429885D01*
X238741927Y-110972787D01*
X238337972Y-111444090D01*
X237847500Y-111824539D01*
X237290539Y-112098598D01*
X236681086Y-112257348D01*
X236191761Y-112295000D01*
X156247230Y-112295000D01*
X155592449Y-112228490D01*
X155000115Y-112042864D01*
X154457213Y-111741927D01*
X153985910Y-111337972D01*
X153605461Y-110847500D01*
X153331402Y-110290539D01*
X153172652Y-109681086D01*
X153135000Y-109191761D01*
X153135000Y-108775431D01*
X153975000Y-108775431D01*
X153975000Y-109664569D01*
X154315259Y-110486026D01*
X154943974Y-111114741D01*
X155765431Y-111455000D01*
X156654569Y-111455000D01*
X157476026Y-111114741D01*
X158104741Y-110486026D01*
X158445000Y-109664569D01*
X158445000Y-109005000D01*
X169952560Y-109005000D01*
X169952560Y-110705000D01*
X170001843Y-110952765D01*
X170142191Y-111162809D01*
X170352235Y-111303157D01*
X170600000Y-111352440D01*
X172300000Y-111352440D01*
X172547765Y-111303157D01*
X172757809Y-111162809D01*
X172898157Y-110952765D01*
X172907184Y-110907381D01*
X172919375Y-110925625D01*
X173410582Y-111253839D01*
X173843744Y-111340000D01*
X174136256Y-111340000D01*
X174569418Y-111253839D01*
X175060625Y-110925625D01*
X175260000Y-110627239D01*
X175459375Y-110925625D01*
X175950582Y-111253839D01*
X176383744Y-111340000D01*
X176676256Y-111340000D01*
X177109418Y-111253839D01*
X177600625Y-110925625D01*
X177928839Y-110434418D01*
X178044092Y-109855000D01*
X177982941Y-109547571D01*
X178310512Y-109220000D01*
X196605908Y-109220000D01*
X196721161Y-109799418D01*
X197049375Y-110290625D01*
X197540582Y-110618839D01*
X197973744Y-110705000D01*
X198266256Y-110705000D01*
X198699418Y-110618839D01*
X199190625Y-110290625D01*
X199390000Y-109992239D01*
X199589375Y-110290625D01*
X200080582Y-110618839D01*
X200513744Y-110705000D01*
X200806256Y-110705000D01*
X201239418Y-110618839D01*
X201730625Y-110290625D01*
X201930000Y-109992239D01*
X202129375Y-110290625D01*
X202620582Y-110618839D01*
X203053744Y-110705000D01*
X203346256Y-110705000D01*
X203779418Y-110618839D01*
X204270625Y-110290625D01*
X204598839Y-109799418D01*
X204714092Y-109220000D01*
X204598839Y-108640582D01*
X204270625Y-108149375D01*
X203779418Y-107821161D01*
X203346256Y-107735000D01*
X203053744Y-107735000D01*
X202620582Y-107821161D01*
X202129375Y-108149375D01*
X201930000Y-108447761D01*
X201730625Y-108149375D01*
X201716905Y-108140207D01*
X204351347Y-105505765D01*
X204418977Y-105460577D01*
X204598003Y-105192646D01*
X204645000Y-104956374D01*
X204645000Y-104956373D01*
X204660868Y-104876601D01*
X204645000Y-104796828D01*
X204645000Y-104044769D01*
X204905625Y-103870625D01*
X205233839Y-103379418D01*
X205349092Y-102800000D01*
X205233839Y-102220582D01*
X204905625Y-101729375D01*
X204414418Y-101401161D01*
X203981256Y-101315000D01*
X203688744Y-101315000D01*
X203255582Y-101401161D01*
X202764375Y-101729375D01*
X202436161Y-102220582D01*
X202320908Y-102800000D01*
X202436161Y-103379418D01*
X202764375Y-103870625D01*
X203025000Y-104044769D01*
X203025000Y-104541087D01*
X200143654Y-107422434D01*
X200076024Y-107467623D01*
X200030835Y-107535253D01*
X199896998Y-107735554D01*
X199849219Y-107975753D01*
X199589375Y-108149375D01*
X199390000Y-108447761D01*
X199190625Y-108149375D01*
X198930000Y-107975231D01*
X198930000Y-104279282D01*
X199334418Y-104198839D01*
X199825625Y-103870625D01*
X200153839Y-103379418D01*
X200269092Y-102800000D01*
X200153839Y-102220582D01*
X199825625Y-101729375D01*
X199334418Y-101401161D01*
X198901256Y-101315000D01*
X198608744Y-101315000D01*
X198175582Y-101401161D01*
X197684375Y-101729375D01*
X197356161Y-102220582D01*
X197240908Y-102800000D01*
X197330675Y-103251289D01*
X197294132Y-103435000D01*
X197310001Y-103514778D01*
X197310000Y-107975231D01*
X197049375Y-108149375D01*
X196721161Y-108640582D01*
X196605908Y-109220000D01*
X178310512Y-109220000D01*
X183690513Y-103840000D01*
X191160231Y-103840000D01*
X191334375Y-104100625D01*
X191825582Y-104428839D01*
X192258744Y-104515000D01*
X192551256Y-104515000D01*
X192984418Y-104428839D01*
X193475625Y-104100625D01*
X193803839Y-103609418D01*
X193919092Y-103030000D01*
X193803839Y-102450582D01*
X193475625Y-101959375D01*
X193177239Y-101760000D01*
X193475625Y-101560625D01*
X193803839Y-101069418D01*
X193919092Y-100490000D01*
X193803839Y-99910582D01*
X193475625Y-99419375D01*
X192984418Y-99091161D01*
X192551256Y-99005000D01*
X192258744Y-99005000D01*
X191825582Y-99091161D01*
X191334375Y-99419375D01*
X191160231Y-99680000D01*
X187371774Y-99680000D01*
X187292000Y-99664132D01*
X186975953Y-99726997D01*
X186852017Y-99809809D01*
X186708023Y-99906023D01*
X186662834Y-99973653D01*
X185186088Y-101450400D01*
X181664369Y-101450400D01*
X181584599Y-101434533D01*
X181504830Y-101450400D01*
X181504826Y-101450400D01*
X181268554Y-101497397D01*
X181000623Y-101676423D01*
X180955434Y-101744053D01*
X174297429Y-108402059D01*
X174136256Y-108370000D01*
X173843744Y-108370000D01*
X173410582Y-108456161D01*
X172919375Y-108784375D01*
X172907184Y-108802619D01*
X172898157Y-108757235D01*
X172757809Y-108547191D01*
X172547765Y-108406843D01*
X172300000Y-108357560D01*
X170600000Y-108357560D01*
X170352235Y-108406843D01*
X170142191Y-108547191D01*
X170001843Y-108757235D01*
X169952560Y-109005000D01*
X158445000Y-109005000D01*
X158445000Y-108775431D01*
X158104741Y-107953974D01*
X157476026Y-107325259D01*
X156654569Y-106985000D01*
X155765431Y-106985000D01*
X154943974Y-107325259D01*
X154315259Y-107953974D01*
X153975000Y-108775431D01*
X153135000Y-108775431D01*
X153135000Y-102020000D01*
X164237560Y-102020000D01*
X164237560Y-103720000D01*
X164286843Y-103967765D01*
X164427191Y-104177809D01*
X164637235Y-104318157D01*
X164885000Y-104367440D01*
X166585000Y-104367440D01*
X166832765Y-104318157D01*
X167042809Y-104177809D01*
X167183157Y-103967765D01*
X167192184Y-103922381D01*
X167204375Y-103940625D01*
X167695582Y-104268839D01*
X168128744Y-104355000D01*
X168421256Y-104355000D01*
X168854418Y-104268839D01*
X169345625Y-103940625D01*
X169673839Y-103449418D01*
X169789092Y-102870000D01*
X169673839Y-102290582D01*
X169345625Y-101799375D01*
X168854418Y-101471161D01*
X168421256Y-101385000D01*
X168128744Y-101385000D01*
X167695582Y-101471161D01*
X167204375Y-101799375D01*
X167192184Y-101817619D01*
X167183157Y-101772235D01*
X167042809Y-101562191D01*
X166832765Y-101421843D01*
X166585000Y-101372560D01*
X164885000Y-101372560D01*
X164637235Y-101421843D01*
X164427191Y-101562191D01*
X164286843Y-101772235D01*
X164237560Y-102020000D01*
X153135000Y-102020000D01*
X153135000Y-96940000D01*
X155982560Y-96940000D01*
X155982560Y-98640000D01*
X156031843Y-98887765D01*
X156172191Y-99097809D01*
X156382235Y-99238157D01*
X156630000Y-99287440D01*
X158330000Y-99287440D01*
X158577765Y-99238157D01*
X158787809Y-99097809D01*
X158928157Y-98887765D01*
X158937184Y-98842381D01*
X158949375Y-98860625D01*
X159440582Y-99188839D01*
X159873744Y-99275000D01*
X160166256Y-99275000D01*
X160599418Y-99188839D01*
X161090625Y-98860625D01*
X161418839Y-98369418D01*
X161534092Y-97790000D01*
X161526534Y-97752000D01*
X166522760Y-97752000D01*
X166522760Y-99352000D01*
X166572043Y-99599765D01*
X166712391Y-99809809D01*
X166922435Y-99950157D01*
X167170200Y-99999440D01*
X168770200Y-99999440D01*
X169017965Y-99950157D01*
X169228009Y-99809809D01*
X169368357Y-99599765D01*
X169417640Y-99352000D01*
X169417640Y-97752000D01*
X169368357Y-97504235D01*
X169228009Y-97294191D01*
X169017965Y-97153843D01*
X168770200Y-97104560D01*
X167170200Y-97104560D01*
X166922435Y-97153843D01*
X166712391Y-97294191D01*
X166572043Y-97504235D01*
X166522760Y-97752000D01*
X161526534Y-97752000D01*
X161418839Y-97210582D01*
X161090625Y-96719375D01*
X160599418Y-96391161D01*
X160166256Y-96305000D01*
X159873744Y-96305000D01*
X159440582Y-96391161D01*
X158949375Y-96719375D01*
X158937184Y-96737619D01*
X158928157Y-96692235D01*
X158787809Y-96482191D01*
X158577765Y-96341843D01*
X158330000Y-96292560D01*
X156630000Y-96292560D01*
X156382235Y-96341843D01*
X156172191Y-96482191D01*
X156031843Y-96692235D01*
X155982560Y-96940000D01*
X153135000Y-96940000D01*
X153135000Y-94615000D01*
X182000908Y-94615000D01*
X182116161Y-95194418D01*
X182444375Y-95685625D01*
X182742761Y-95885000D01*
X182444375Y-96084375D01*
X182116161Y-96575582D01*
X182000908Y-97155000D01*
X182116161Y-97734418D01*
X182444375Y-98225625D01*
X182935582Y-98553839D01*
X183368744Y-98640000D01*
X183661256Y-98640000D01*
X184094418Y-98553839D01*
X184585625Y-98225625D01*
X184913839Y-97734418D01*
X185029092Y-97155000D01*
X184913839Y-96575582D01*
X184585625Y-96084375D01*
X184287239Y-95885000D01*
X184585625Y-95685625D01*
X184913839Y-95194418D01*
X185029092Y-94615000D01*
X184913839Y-94035582D01*
X184585625Y-93544375D01*
X184567381Y-93532184D01*
X184612765Y-93523157D01*
X184822809Y-93382809D01*
X184963157Y-93172765D01*
X185012440Y-92925000D01*
X185012440Y-92885000D01*
X188058027Y-92885000D01*
X188137800Y-92900868D01*
X188217573Y-92885000D01*
X188217574Y-92885000D01*
X188453846Y-92838003D01*
X188721777Y-92658977D01*
X188766968Y-92591344D01*
X190218313Y-91140000D01*
X191160231Y-91140000D01*
X191334375Y-91400625D01*
X191632761Y-91600000D01*
X191334375Y-91799375D01*
X191006161Y-92290582D01*
X190890908Y-92870000D01*
X191006161Y-93449418D01*
X191334375Y-93940625D01*
X191632761Y-94140000D01*
X191334375Y-94339375D01*
X191006161Y-94830582D01*
X190890908Y-95410000D01*
X191006161Y-95989418D01*
X191334375Y-96480625D01*
X191825582Y-96808839D01*
X192258744Y-96895000D01*
X192551256Y-96895000D01*
X192984418Y-96808839D01*
X193475625Y-96480625D01*
X193803839Y-95989418D01*
X193919092Y-95410000D01*
X193803839Y-94830582D01*
X193475625Y-94339375D01*
X193177239Y-94140000D01*
X193475625Y-93940625D01*
X193803839Y-93449418D01*
X193919092Y-92870000D01*
X193803839Y-92290582D01*
X193475625Y-91799375D01*
X193177239Y-91600000D01*
X193475625Y-91400625D01*
X193803839Y-90909418D01*
X193919092Y-90330000D01*
X193803839Y-89750582D01*
X193475625Y-89259375D01*
X193177239Y-89060000D01*
X193475625Y-88860625D01*
X193803839Y-88369418D01*
X193919092Y-87790000D01*
X193803839Y-87210582D01*
X193475625Y-86719375D01*
X192984418Y-86391161D01*
X192551256Y-86305000D01*
X192258744Y-86305000D01*
X191825582Y-86391161D01*
X191334375Y-86719375D01*
X191006161Y-87210582D01*
X190890908Y-87790000D01*
X191006161Y-88369418D01*
X191334375Y-88860625D01*
X191632761Y-89060000D01*
X191334375Y-89259375D01*
X191160231Y-89520000D01*
X189962574Y-89520000D01*
X189882800Y-89504132D01*
X189566753Y-89566997D01*
X189479415Y-89625355D01*
X189298823Y-89746023D01*
X189253634Y-89813653D01*
X187802288Y-91265000D01*
X185012440Y-91265000D01*
X185012440Y-91225000D01*
X184963157Y-90977235D01*
X184822809Y-90767191D01*
X184612765Y-90626843D01*
X184365000Y-90577560D01*
X182665000Y-90577560D01*
X182417235Y-90626843D01*
X182207191Y-90767191D01*
X182066843Y-90977235D01*
X182017560Y-91225000D01*
X182017560Y-92925000D01*
X182066843Y-93172765D01*
X182207191Y-93382809D01*
X182417235Y-93523157D01*
X182462619Y-93532184D01*
X182444375Y-93544375D01*
X182116161Y-94035582D01*
X182000908Y-94615000D01*
X153135000Y-94615000D01*
X153135000Y-72390000D01*
X157857041Y-72390000D01*
X157973350Y-72974725D01*
X158304570Y-73470430D01*
X158588281Y-73660000D01*
X158304570Y-73849570D01*
X157973350Y-74345275D01*
X157857041Y-74930000D01*
X157973350Y-75514725D01*
X158304570Y-76010430D01*
X158588281Y-76200000D01*
X158304570Y-76389570D01*
X157973350Y-76885275D01*
X157857041Y-77470000D01*
X157973350Y-78054725D01*
X158304570Y-78550430D01*
X158588281Y-78740000D01*
X158304570Y-78929570D01*
X157973350Y-79425275D01*
X157857041Y-80010000D01*
X157973350Y-80594725D01*
X158304570Y-81090430D01*
X158588281Y-81280000D01*
X158304570Y-81469570D01*
X157973350Y-81965275D01*
X157857041Y-82550000D01*
X157973350Y-83134725D01*
X158304570Y-83630430D01*
X158588281Y-83820000D01*
X158304570Y-84009570D01*
X157973350Y-84505275D01*
X157857041Y-85090000D01*
X157973350Y-85674725D01*
X158304570Y-86170430D01*
X158588281Y-86360000D01*
X158304570Y-86549570D01*
X157973350Y-87045275D01*
X157857041Y-87630000D01*
X157973350Y-88214725D01*
X158304570Y-88710430D01*
X158800275Y-89041650D01*
X159237402Y-89128600D01*
X159532598Y-89128600D01*
X159969725Y-89041650D01*
X160465430Y-88710430D01*
X160796650Y-88214725D01*
X160912959Y-87630000D01*
X160796650Y-87045275D01*
X160619399Y-86780000D01*
X170587560Y-86780000D01*
X170587560Y-88480000D01*
X170636843Y-88727765D01*
X170777191Y-88937809D01*
X170987235Y-89078157D01*
X171235000Y-89127440D01*
X172935000Y-89127440D01*
X173182765Y-89078157D01*
X173392809Y-88937809D01*
X173533157Y-88727765D01*
X173542184Y-88682381D01*
X173554375Y-88700625D01*
X174045582Y-89028839D01*
X174478744Y-89115000D01*
X174771256Y-89115000D01*
X175204418Y-89028839D01*
X175695625Y-88700625D01*
X176023839Y-88209418D01*
X176139092Y-87630000D01*
X176023839Y-87050582D01*
X175695625Y-86559375D01*
X175204418Y-86231161D01*
X174771256Y-86145000D01*
X174478744Y-86145000D01*
X174045582Y-86231161D01*
X173554375Y-86559375D01*
X173542184Y-86577619D01*
X173533157Y-86532235D01*
X173392809Y-86322191D01*
X173182765Y-86181843D01*
X172935000Y-86132560D01*
X171235000Y-86132560D01*
X170987235Y-86181843D01*
X170777191Y-86322191D01*
X170636843Y-86532235D01*
X170587560Y-86780000D01*
X160619399Y-86780000D01*
X160465430Y-86549570D01*
X160181719Y-86360000D01*
X160465430Y-86170430D01*
X160655000Y-85886719D01*
X160844570Y-86170430D01*
X161340275Y-86501650D01*
X161777402Y-86588600D01*
X162072598Y-86588600D01*
X162509725Y-86501650D01*
X163005430Y-86170430D01*
X163336650Y-85674725D01*
X163452959Y-85090000D01*
X163336650Y-84505275D01*
X163005430Y-84009570D01*
X162721719Y-83820000D01*
X163005430Y-83630430D01*
X163336650Y-83134725D01*
X163452959Y-82550000D01*
X163336650Y-81965275D01*
X163005430Y-81469570D01*
X162721719Y-81280000D01*
X163005430Y-81090430D01*
X163336650Y-80594725D01*
X163452959Y-80010000D01*
X163336650Y-79425275D01*
X163005430Y-78929570D01*
X162721719Y-78740000D01*
X163005430Y-78550430D01*
X163186126Y-78280000D01*
X169209488Y-78280000D01*
X171275001Y-80345514D01*
X171275001Y-81052560D01*
X171235000Y-81052560D01*
X170987235Y-81101843D01*
X170777191Y-81242191D01*
X170636843Y-81452235D01*
X170587560Y-81700000D01*
X170587560Y-83400000D01*
X170636843Y-83647765D01*
X170777191Y-83857809D01*
X170987235Y-83998157D01*
X171235000Y-84047440D01*
X172935000Y-84047440D01*
X173182765Y-83998157D01*
X173392809Y-83857809D01*
X173533157Y-83647765D01*
X173542184Y-83602381D01*
X173554375Y-83620625D01*
X174045582Y-83948839D01*
X174478744Y-84035000D01*
X174771256Y-84035000D01*
X175204418Y-83948839D01*
X175695625Y-83620625D01*
X175869769Y-83360000D01*
X180639488Y-83360000D01*
X182062059Y-84782572D01*
X182000908Y-85090000D01*
X182116161Y-85669418D01*
X182444375Y-86160625D01*
X182935582Y-86488839D01*
X183368744Y-86575000D01*
X183661256Y-86575000D01*
X184094418Y-86488839D01*
X184585625Y-86160625D01*
X184913839Y-85669418D01*
X185029092Y-85090000D01*
X184913839Y-84510582D01*
X184585625Y-84019375D01*
X184287239Y-83820000D01*
X184585625Y-83620625D01*
X184913839Y-83129418D01*
X185029092Y-82550000D01*
X184913839Y-81970582D01*
X184585625Y-81479375D01*
X184287239Y-81280000D01*
X184585625Y-81080625D01*
X184913839Y-80589418D01*
X185029092Y-80010000D01*
X184913839Y-79430582D01*
X184585625Y-78939375D01*
X184287239Y-78740000D01*
X184585625Y-78540625D01*
X184913839Y-78049418D01*
X185029092Y-77470000D01*
X184913839Y-76890582D01*
X184585625Y-76399375D01*
X184567381Y-76387184D01*
X184612765Y-76378157D01*
X184822809Y-76237809D01*
X184963157Y-76027765D01*
X185012440Y-75780000D01*
X185012440Y-75090000D01*
X190890908Y-75090000D01*
X191006161Y-75669418D01*
X191334375Y-76160625D01*
X191632761Y-76360000D01*
X191334375Y-76559375D01*
X191006161Y-77050582D01*
X190890908Y-77630000D01*
X191006161Y-78209418D01*
X191334375Y-78700625D01*
X191632761Y-78900000D01*
X191334375Y-79099375D01*
X191006161Y-79590582D01*
X190890908Y-80170000D01*
X191006161Y-80749418D01*
X191334375Y-81240625D01*
X191632761Y-81440000D01*
X191334375Y-81639375D01*
X191006161Y-82130582D01*
X190890908Y-82710000D01*
X191006161Y-83289418D01*
X191334375Y-83780625D01*
X191825582Y-84108839D01*
X192258744Y-84195000D01*
X192551256Y-84195000D01*
X192984418Y-84108839D01*
X193475625Y-83780625D01*
X193803839Y-83289418D01*
X193919092Y-82710000D01*
X193803839Y-82130582D01*
X193475625Y-81639375D01*
X193177239Y-81440000D01*
X193475625Y-81240625D01*
X193803839Y-80749418D01*
X193919092Y-80170000D01*
X193803839Y-79590582D01*
X193475625Y-79099375D01*
X193177239Y-78900000D01*
X193475625Y-78700625D01*
X193803839Y-78209418D01*
X193919092Y-77630000D01*
X193803839Y-77050582D01*
X193475625Y-76559375D01*
X193177239Y-76360000D01*
X193475625Y-76160625D01*
X193803839Y-75669418D01*
X193919092Y-75090000D01*
X193803839Y-74510582D01*
X193475625Y-74019375D01*
X192984418Y-73691161D01*
X192551256Y-73605000D01*
X192258744Y-73605000D01*
X191825582Y-73691161D01*
X191334375Y-74019375D01*
X191006161Y-74510582D01*
X190890908Y-75090000D01*
X185012440Y-75090000D01*
X185012440Y-74080000D01*
X184963157Y-73832235D01*
X184822809Y-73622191D01*
X184612765Y-73481843D01*
X184365000Y-73432560D01*
X182665000Y-73432560D01*
X182417235Y-73481843D01*
X182207191Y-73622191D01*
X182066843Y-73832235D01*
X182017560Y-74080000D01*
X182017560Y-75780000D01*
X182066843Y-76027765D01*
X182207191Y-76237809D01*
X182417235Y-76378157D01*
X182462619Y-76387184D01*
X182444375Y-76399375D01*
X182116161Y-76890582D01*
X182000908Y-77470000D01*
X182116161Y-78049418D01*
X182444375Y-78540625D01*
X182742761Y-78740000D01*
X182444375Y-78939375D01*
X182116161Y-79430582D01*
X182000908Y-80010000D01*
X182116161Y-80589418D01*
X182444375Y-81080625D01*
X182742761Y-81280000D01*
X182444375Y-81479375D01*
X182116161Y-81970582D01*
X182020752Y-82450239D01*
X181604168Y-82033656D01*
X181558977Y-81966023D01*
X181291046Y-81786997D01*
X181054774Y-81740000D01*
X181054773Y-81740000D01*
X180975000Y-81724132D01*
X180895227Y-81740000D01*
X175869769Y-81740000D01*
X175695625Y-81479375D01*
X175204418Y-81151161D01*
X174771256Y-81065000D01*
X174478744Y-81065000D01*
X174045582Y-81151161D01*
X173554375Y-81479375D01*
X173542184Y-81497619D01*
X173533157Y-81452235D01*
X173392809Y-81242191D01*
X173182765Y-81101843D01*
X172935000Y-81052560D01*
X172895000Y-81052560D01*
X172895000Y-80089769D01*
X172910867Y-80009999D01*
X172895000Y-79930230D01*
X172895000Y-79930226D01*
X172848003Y-79693954D01*
X172668977Y-79426023D01*
X172601347Y-79380834D01*
X170174168Y-76953656D01*
X170128977Y-76886023D01*
X169861046Y-76706997D01*
X169624774Y-76660000D01*
X169624773Y-76660000D01*
X169545000Y-76644132D01*
X169465227Y-76660000D01*
X163186126Y-76660000D01*
X163005430Y-76389570D01*
X162721719Y-76200000D01*
X163005430Y-76010430D01*
X163336650Y-75514725D01*
X163452959Y-74930000D01*
X163336650Y-74345275D01*
X163005430Y-73849570D01*
X162509725Y-73518350D01*
X162072598Y-73431400D01*
X161777402Y-73431400D01*
X161340275Y-73518350D01*
X160844570Y-73849570D01*
X160655000Y-74133281D01*
X160465430Y-73849570D01*
X160181719Y-73660000D01*
X160465430Y-73470430D01*
X160796650Y-72974725D01*
X160912959Y-72390000D01*
X160796650Y-71805275D01*
X160470349Y-71316932D01*
X160496365Y-71311757D01*
X160706409Y-71171409D01*
X160846757Y-70961365D01*
X160851932Y-70935349D01*
X161340275Y-71261650D01*
X161777402Y-71348600D01*
X162072598Y-71348600D01*
X162509725Y-71261650D01*
X163005430Y-70930430D01*
X163336650Y-70434725D01*
X163452959Y-69850000D01*
X163336650Y-69265275D01*
X163005430Y-68769570D01*
X162509725Y-68438350D01*
X162072598Y-68351400D01*
X161777402Y-68351400D01*
X161340275Y-68438350D01*
X160851932Y-68764651D01*
X160846757Y-68738635D01*
X160706409Y-68528591D01*
X160496365Y-68388243D01*
X160248600Y-68338960D01*
X158521400Y-68338960D01*
X158273635Y-68388243D01*
X158063591Y-68528591D01*
X157923243Y-68738635D01*
X157873960Y-68986400D01*
X157873960Y-70713600D01*
X157923243Y-70961365D01*
X158063591Y-71171409D01*
X158273635Y-71311757D01*
X158299651Y-71316932D01*
X157973350Y-71805275D01*
X157857041Y-72390000D01*
X153135000Y-72390000D01*
X153135000Y-57187230D01*
X153183939Y-56705431D01*
X153975000Y-56705431D01*
X153975000Y-57594569D01*
X154315259Y-58416026D01*
X154943974Y-59044741D01*
X155765431Y-59385000D01*
X156654569Y-59385000D01*
X157476026Y-59044741D01*
X158104741Y-58416026D01*
X158434466Y-57620000D01*
X164287560Y-57620000D01*
X164287560Y-59220000D01*
X164336843Y-59467765D01*
X164477191Y-59677809D01*
X164687235Y-59818157D01*
X164935000Y-59867440D01*
X166535000Y-59867440D01*
X166782765Y-59818157D01*
X166992809Y-59677809D01*
X167133157Y-59467765D01*
X167182440Y-59220000D01*
X167182440Y-58420000D01*
X182000908Y-58420000D01*
X182116161Y-58999418D01*
X182444375Y-59490625D01*
X182742761Y-59690000D01*
X182444375Y-59889375D01*
X182116161Y-60380582D01*
X182000908Y-60960000D01*
X182116161Y-61539418D01*
X182444375Y-62030625D01*
X182742761Y-62230000D01*
X182444375Y-62429375D01*
X182116161Y-62920582D01*
X182000908Y-63500000D01*
X182116161Y-64079418D01*
X182444375Y-64570625D01*
X182742761Y-64770000D01*
X182444375Y-64969375D01*
X182116161Y-65460582D01*
X182000908Y-66040000D01*
X182116161Y-66619418D01*
X182444375Y-67110625D01*
X182742761Y-67310000D01*
X182444375Y-67509375D01*
X182116161Y-68000582D01*
X182000908Y-68580000D01*
X182116161Y-69159418D01*
X182444375Y-69650625D01*
X182935582Y-69978839D01*
X183368744Y-70065000D01*
X183661256Y-70065000D01*
X184094418Y-69978839D01*
X184585625Y-69650625D01*
X184913839Y-69159418D01*
X185029092Y-68580000D01*
X184913839Y-68000582D01*
X184585625Y-67509375D01*
X184287239Y-67310000D01*
X184585625Y-67110625D01*
X184913839Y-66619418D01*
X185029092Y-66040000D01*
X184913839Y-65460582D01*
X184585625Y-64969375D01*
X184287239Y-64770000D01*
X184585625Y-64570625D01*
X184913839Y-64079418D01*
X185029092Y-63500000D01*
X184913839Y-62920582D01*
X184585625Y-62429375D01*
X184526697Y-62390000D01*
X190890908Y-62390000D01*
X191006161Y-62969418D01*
X191334375Y-63460625D01*
X191632761Y-63660000D01*
X191334375Y-63859375D01*
X191006161Y-64350582D01*
X190890908Y-64930000D01*
X191006161Y-65509418D01*
X191334375Y-66000625D01*
X191632761Y-66200000D01*
X191334375Y-66399375D01*
X191006161Y-66890582D01*
X190890908Y-67470000D01*
X191006161Y-68049418D01*
X191334375Y-68540625D01*
X191632761Y-68740000D01*
X191334375Y-68939375D01*
X191006161Y-69430582D01*
X190890908Y-70010000D01*
X191006161Y-70589418D01*
X191334375Y-71080625D01*
X191825582Y-71408839D01*
X192258744Y-71495000D01*
X192551256Y-71495000D01*
X192984418Y-71408839D01*
X193475625Y-71080625D01*
X193803839Y-70589418D01*
X193919092Y-70010000D01*
X193803839Y-69430582D01*
X193475625Y-68939375D01*
X193177239Y-68740000D01*
X193475625Y-68540625D01*
X193803839Y-68049418D01*
X193919092Y-67470000D01*
X193803839Y-66890582D01*
X193475625Y-66399375D01*
X193177239Y-66200000D01*
X193475625Y-66000625D01*
X193803839Y-65509418D01*
X193919092Y-64930000D01*
X193803839Y-64350582D01*
X193475625Y-63859375D01*
X193177239Y-63660000D01*
X193475625Y-63460625D01*
X193803839Y-62969418D01*
X193919092Y-62390000D01*
X193803839Y-61810582D01*
X193475625Y-61319375D01*
X192984418Y-60991161D01*
X192551256Y-60905000D01*
X192258744Y-60905000D01*
X191825582Y-60991161D01*
X191334375Y-61319375D01*
X191006161Y-61810582D01*
X190890908Y-62390000D01*
X184526697Y-62390000D01*
X184287239Y-62230000D01*
X184585625Y-62030625D01*
X184913839Y-61539418D01*
X185029092Y-60960000D01*
X184913839Y-60380582D01*
X184585625Y-59889375D01*
X184287239Y-59690000D01*
X184585625Y-59490625D01*
X184913839Y-58999418D01*
X185029092Y-58420000D01*
X184913839Y-57840582D01*
X184585625Y-57349375D01*
X184567381Y-57337184D01*
X184612765Y-57328157D01*
X184822809Y-57187809D01*
X184963157Y-56977765D01*
X185012440Y-56730000D01*
X185012440Y-55030000D01*
X184963157Y-54782235D01*
X184822809Y-54572191D01*
X184612765Y-54431843D01*
X184365000Y-54382560D01*
X182665000Y-54382560D01*
X182417235Y-54431843D01*
X182207191Y-54572191D01*
X182066843Y-54782235D01*
X182017560Y-55030000D01*
X182017560Y-56730000D01*
X182066843Y-56977765D01*
X182207191Y-57187809D01*
X182417235Y-57328157D01*
X182462619Y-57337184D01*
X182444375Y-57349375D01*
X182116161Y-57840582D01*
X182000908Y-58420000D01*
X167182440Y-58420000D01*
X167182440Y-57620000D01*
X167133157Y-57372235D01*
X166992809Y-57162191D01*
X166782765Y-57021843D01*
X166535000Y-56972560D01*
X164935000Y-56972560D01*
X164687235Y-57021843D01*
X164477191Y-57162191D01*
X164336843Y-57372235D01*
X164287560Y-57620000D01*
X158434466Y-57620000D01*
X158445000Y-57594569D01*
X158445000Y-56705431D01*
X158104741Y-55883974D01*
X157476026Y-55255259D01*
X156654569Y-54915000D01*
X155765431Y-54915000D01*
X154943974Y-55255259D01*
X154315259Y-55883974D01*
X153975000Y-56705431D01*
X153183939Y-56705431D01*
X153201510Y-56532449D01*
X153387135Y-55940117D01*
X153688073Y-55397213D01*
X154092028Y-54925910D01*
X154582503Y-54545460D01*
X155139461Y-54271402D01*
X155748914Y-54112652D01*
X156238239Y-54075000D01*
X191083390Y-54075000D01*
X191006161Y-54190582D01*
X191006161Y-54190582D01*
G37*
X191006161Y-54190582D02*
X190890908Y-54770000D01*
X191006161Y-55349418D01*
X191334375Y-55840625D01*
X191632761Y-56040000D01*
X191334375Y-56239375D01*
X191006161Y-56730582D01*
X190890908Y-57310000D01*
X191006161Y-57889418D01*
X191334375Y-58380625D01*
X191825582Y-58708839D01*
X192258744Y-58795000D01*
X192551256Y-58795000D01*
X192984418Y-58708839D01*
X193475625Y-58380625D01*
X193776722Y-57930000D01*
X197457867Y-57930000D01*
X197565359Y-58470400D01*
X197871471Y-58928529D01*
X198329600Y-59234641D01*
X198733593Y-59315000D01*
X199006407Y-59315000D01*
X199410400Y-59234641D01*
X199868529Y-58928529D01*
X200174641Y-58470400D01*
X200282133Y-57930000D01*
X202307867Y-57930000D01*
X202415359Y-58470400D01*
X202721471Y-58928529D01*
X203179600Y-59234641D01*
X203583593Y-59315000D01*
X203856407Y-59315000D01*
X204260400Y-59234641D01*
X204718529Y-58928529D01*
X205024641Y-58470400D01*
X205132133Y-57930000D01*
X205024641Y-57389600D01*
X204718529Y-56931471D01*
X204260400Y-56625359D01*
X203856407Y-56545000D01*
X203583593Y-56545000D01*
X203179600Y-56625359D01*
X202721471Y-56931471D01*
X202415359Y-57389600D01*
X202307867Y-57930000D01*
X200282133Y-57930000D01*
X200174641Y-57389600D01*
X199868529Y-56931471D01*
X199410400Y-56625359D01*
X199006407Y-56545000D01*
X198733593Y-56545000D01*
X198329600Y-56625359D01*
X197871471Y-56931471D01*
X197565359Y-57389600D01*
X197457867Y-57930000D01*
X193776722Y-57930000D01*
X193803839Y-57889418D01*
X193919092Y-57310000D01*
X193803839Y-56730582D01*
X193475625Y-56239375D01*
X193177239Y-56040000D01*
X193475625Y-55840625D01*
X193803839Y-55349418D01*
X193919092Y-54770000D01*
X193803839Y-54190582D01*
X193726610Y-54075000D01*
X197275119Y-54075000D01*
X197124062Y-54301073D01*
X197004928Y-54900000D01*
X197124062Y-55498927D01*
X197463327Y-56006673D01*
X197971073Y-56345938D01*
X198418818Y-56435000D01*
X198721182Y-56435000D01*
X199168927Y-56345938D01*
X199676673Y-56006673D01*
X200015938Y-55498927D01*
X200135072Y-54900000D01*
X200015938Y-54301073D01*
X199864881Y-54075000D01*
X202725119Y-54075000D01*
X202574062Y-54301073D01*
X202454928Y-54900000D01*
X202574062Y-55498927D01*
X202913327Y-56006673D01*
X203421073Y-56345938D01*
X203868818Y-56435000D01*
X204171182Y-56435000D01*
X204618927Y-56345938D01*
X205126673Y-56006673D01*
X205465938Y-55498927D01*
X205585072Y-54900000D01*
X205465938Y-54301073D01*
X205314881Y-54075000D01*
X208863390Y-54075000D01*
X208786161Y-54190582D01*
X208670908Y-54770000D01*
X208786161Y-55349418D01*
X209114375Y-55840625D01*
X209412761Y-56040000D01*
X209135889Y-56225000D01*
X208988861Y-56225000D01*
X208882000Y-56203744D01*
X208458654Y-56287953D01*
X208190351Y-56467227D01*
X208190350Y-56467228D01*
X208099759Y-56527759D01*
X208039228Y-56618350D01*
X206445353Y-58212226D01*
X206354760Y-58272759D01*
X206207014Y-58493876D01*
X206114953Y-58631655D01*
X206030745Y-59055000D01*
X206052001Y-59161862D01*
X206052000Y-104668143D01*
X206030745Y-104775000D01*
X206052000Y-104881857D01*
X206052000Y-104881860D01*
X206114953Y-105198345D01*
X206354759Y-105557241D01*
X206445356Y-105617776D01*
X207691226Y-106863647D01*
X207751759Y-106954241D01*
X208110654Y-107194047D01*
X208427139Y-107257000D01*
X208427143Y-107257000D01*
X208533999Y-107278255D01*
X208640855Y-107257000D01*
X212402580Y-107257000D01*
X213966535Y-108820956D01*
X213903000Y-108974343D01*
X213903000Y-109465657D01*
X214091018Y-109919571D01*
X214438429Y-110266982D01*
X214892343Y-110455000D01*
X215383657Y-110455000D01*
X215837571Y-110266982D01*
X216184982Y-109919571D01*
X216373000Y-109465657D01*
X216373000Y-108974343D01*
X216290608Y-108775431D01*
X233985000Y-108775431D01*
X233985000Y-109664569D01*
X234325259Y-110486026D01*
X234953974Y-111114741D01*
X235775431Y-111455000D01*
X236664569Y-111455000D01*
X237486026Y-111114741D01*
X238114741Y-110486026D01*
X238455000Y-109664569D01*
X238455000Y-108775431D01*
X238114741Y-107953974D01*
X237486026Y-107325259D01*
X236664569Y-106985000D01*
X235775431Y-106985000D01*
X234953974Y-107325259D01*
X234325259Y-107953974D01*
X233985000Y-108775431D01*
X216290608Y-108775431D01*
X216223000Y-108612212D01*
X216223000Y-108564856D01*
X216244255Y-108457999D01*
X216223000Y-108351139D01*
X216160047Y-108034654D01*
X215920241Y-107675759D01*
X215829647Y-107615226D01*
X213694776Y-105480356D01*
X213634241Y-105389759D01*
X213275346Y-105149953D01*
X212958861Y-105087000D01*
X212958857Y-105087000D01*
X212852000Y-105065745D01*
X212745143Y-105087000D01*
X208983421Y-105087000D01*
X208222000Y-104325580D01*
X208222000Y-100490000D01*
X208670908Y-100490000D01*
X208786161Y-101069418D01*
X209114375Y-101560625D01*
X209412761Y-101760000D01*
X209114375Y-101959375D01*
X208786161Y-102450582D01*
X208670908Y-103030000D01*
X208786161Y-103609418D01*
X209114375Y-104100625D01*
X209605582Y-104428839D01*
X210038744Y-104515000D01*
X210331256Y-104515000D01*
X210764418Y-104428839D01*
X211255625Y-104100625D01*
X211583839Y-103609418D01*
X211699092Y-103030000D01*
X211583839Y-102450582D01*
X211255625Y-101959375D01*
X210957239Y-101760000D01*
X211255625Y-101560625D01*
X211583839Y-101069418D01*
X211699092Y-100490000D01*
X211667267Y-100330000D01*
X216925908Y-100330000D01*
X217041161Y-100909418D01*
X217369375Y-101400625D01*
X217387619Y-101412816D01*
X217342235Y-101421843D01*
X217132191Y-101562191D01*
X216991843Y-101772235D01*
X216942560Y-102020000D01*
X216942560Y-103720000D01*
X216991843Y-103967765D01*
X217132191Y-104177809D01*
X217342235Y-104318157D01*
X217590000Y-104367440D01*
X219290000Y-104367440D01*
X219537765Y-104318157D01*
X219747809Y-104177809D01*
X219888157Y-103967765D01*
X219937440Y-103720000D01*
X219937440Y-102020000D01*
X219888157Y-101772235D01*
X219747809Y-101562191D01*
X219537765Y-101421843D01*
X219492381Y-101412816D01*
X219510625Y-101400625D01*
X219838839Y-100909418D01*
X219954092Y-100330000D01*
X219838839Y-99750582D01*
X219510625Y-99259375D01*
X219019418Y-98931161D01*
X218586256Y-98845000D01*
X218293744Y-98845000D01*
X217860582Y-98931161D01*
X217369375Y-99259375D01*
X217041161Y-99750582D01*
X216925908Y-100330000D01*
X211667267Y-100330000D01*
X211583839Y-99910582D01*
X211255625Y-99419375D01*
X210764418Y-99091161D01*
X210331256Y-99005000D01*
X210038744Y-99005000D01*
X209605582Y-99091161D01*
X209114375Y-99419375D01*
X208786161Y-99910582D01*
X208670908Y-100490000D01*
X208222000Y-100490000D01*
X208222000Y-87790000D01*
X208670908Y-87790000D01*
X208786161Y-88369418D01*
X209114375Y-88860625D01*
X209412761Y-89060000D01*
X209114375Y-89259375D01*
X208786161Y-89750582D01*
X208670908Y-90330000D01*
X208786161Y-90909418D01*
X209114375Y-91400625D01*
X209412761Y-91600000D01*
X209114375Y-91799375D01*
X208786161Y-92290582D01*
X208670908Y-92870000D01*
X208786161Y-93449418D01*
X209114375Y-93940625D01*
X209412761Y-94140000D01*
X209114375Y-94339375D01*
X208786161Y-94830582D01*
X208670908Y-95410000D01*
X208786161Y-95989418D01*
X209114375Y-96480625D01*
X209605582Y-96808839D01*
X210038744Y-96895000D01*
X210331256Y-96895000D01*
X210764418Y-96808839D01*
X211255625Y-96480625D01*
X211583839Y-95989418D01*
X211699092Y-95410000D01*
X211583839Y-94830582D01*
X211255625Y-94339375D01*
X210957239Y-94140000D01*
X211255625Y-93940625D01*
X211583839Y-93449418D01*
X211699092Y-92870000D01*
X211583839Y-92290582D01*
X211255625Y-91799375D01*
X210957239Y-91600000D01*
X211255625Y-91400625D01*
X211583839Y-90909418D01*
X211699092Y-90330000D01*
X211583839Y-89750582D01*
X211255625Y-89259375D01*
X210957239Y-89060000D01*
X211255625Y-88860625D01*
X211429769Y-88600000D01*
X218823288Y-88600000D01*
X218988249Y-88764961D01*
X218586256Y-88685000D01*
X218293744Y-88685000D01*
X217860582Y-88771161D01*
X217369375Y-89099375D01*
X217041161Y-89590582D01*
X216925908Y-90170000D01*
X217041161Y-90749418D01*
X217369375Y-91240625D01*
X217667761Y-91440000D01*
X217369375Y-91639375D01*
X217041161Y-92130582D01*
X216925908Y-92710000D01*
X217041161Y-93289418D01*
X217369375Y-93780625D01*
X217667761Y-93980000D01*
X217369375Y-94179375D01*
X217041161Y-94670582D01*
X216925908Y-95250000D01*
X217041161Y-95829418D01*
X217369375Y-96320625D01*
X217860582Y-96648839D01*
X218293744Y-96735000D01*
X218586256Y-96735000D01*
X219019418Y-96648839D01*
X219510625Y-96320625D01*
X219838839Y-95829418D01*
X219954092Y-95250000D01*
X219838839Y-94670582D01*
X219510625Y-94179375D01*
X219212239Y-93980000D01*
X219510625Y-93780625D01*
X219838839Y-93289418D01*
X219954092Y-92710000D01*
X219838839Y-92130582D01*
X219510625Y-91639375D01*
X219212239Y-91440000D01*
X219510625Y-91240625D01*
X219838839Y-90749418D01*
X219954092Y-90170000D01*
X219845039Y-89621752D01*
X220500200Y-90276913D01*
X220500201Y-94509822D01*
X220484332Y-94589600D01*
X220532267Y-94830582D01*
X220547198Y-94905646D01*
X220726224Y-95173577D01*
X220793854Y-95218766D01*
X223881434Y-98306347D01*
X223926623Y-98373977D01*
X224194554Y-98553003D01*
X224430826Y-98600000D01*
X224510599Y-98615868D01*
X224590372Y-98600000D01*
X224625802Y-98600000D01*
X224673914Y-98716153D01*
X225133847Y-99176086D01*
X225734778Y-99425000D01*
X226385222Y-99425000D01*
X226986153Y-99176086D01*
X227446086Y-98716153D01*
X227695000Y-98115222D01*
X227695000Y-97464778D01*
X230925000Y-97464778D01*
X230925000Y-98115222D01*
X231173914Y-98716153D01*
X231633847Y-99176086D01*
X232234778Y-99425000D01*
X232885222Y-99425000D01*
X233486153Y-99176086D01*
X233946086Y-98716153D01*
X234195000Y-98115222D01*
X234195000Y-97464778D01*
X233946086Y-96863847D01*
X233486153Y-96403914D01*
X232885222Y-96155000D01*
X232234778Y-96155000D01*
X231633847Y-96403914D01*
X231173914Y-96863847D01*
X230925000Y-97464778D01*
X227695000Y-97464778D01*
X227446086Y-96863847D01*
X226986153Y-96403914D01*
X226385222Y-96155000D01*
X225734778Y-96155000D01*
X225133847Y-96403914D01*
X224701937Y-96835824D01*
X222120200Y-94254088D01*
X222120200Y-90021172D01*
X222136068Y-89941399D01*
X222097205Y-89746023D01*
X222073203Y-89625354D01*
X221894177Y-89357423D01*
X221826547Y-89312234D01*
X221089091Y-88574778D01*
X224425000Y-88574778D01*
X224425000Y-89225222D01*
X224673914Y-89826153D01*
X225133847Y-90286086D01*
X225734778Y-90535000D01*
X226385222Y-90535000D01*
X226986153Y-90286086D01*
X227446086Y-89826153D01*
X227695000Y-89225222D01*
X227695000Y-88574778D01*
X230925000Y-88574778D01*
X230925000Y-89225222D01*
X231173914Y-89826153D01*
X231633847Y-90286086D01*
X232234778Y-90535000D01*
X232885222Y-90535000D01*
X233486153Y-90286086D01*
X233946086Y-89826153D01*
X234195000Y-89225222D01*
X234195000Y-88574778D01*
X233946086Y-87973847D01*
X233486153Y-87513914D01*
X232885222Y-87265000D01*
X232234778Y-87265000D01*
X231633847Y-87513914D01*
X231173914Y-87973847D01*
X230925000Y-88574778D01*
X227695000Y-88574778D01*
X227446086Y-87973847D01*
X226986153Y-87513914D01*
X226385222Y-87265000D01*
X225734778Y-87265000D01*
X225133847Y-87513914D01*
X224673914Y-87973847D01*
X224425000Y-88574778D01*
X221089091Y-88574778D01*
X219787968Y-87273656D01*
X219742777Y-87206023D01*
X219474846Y-87026997D01*
X219238574Y-86980000D01*
X219238573Y-86980000D01*
X219158800Y-86964132D01*
X219079027Y-86980000D01*
X211429769Y-86980000D01*
X211255625Y-86719375D01*
X210764418Y-86391161D01*
X210331256Y-86305000D01*
X210038744Y-86305000D01*
X209605582Y-86391161D01*
X209114375Y-86719375D01*
X208786161Y-87210582D01*
X208670908Y-87790000D01*
X208222000Y-87790000D01*
X208222000Y-62390000D01*
X208670908Y-62390000D01*
X208786161Y-62969418D01*
X209114375Y-63460625D01*
X209412761Y-63660000D01*
X209114375Y-63859375D01*
X208786161Y-64350582D01*
X208670908Y-64930000D01*
X208786161Y-65509418D01*
X209114375Y-66000625D01*
X209412761Y-66200000D01*
X209114375Y-66399375D01*
X208786161Y-66890582D01*
X208670908Y-67470000D01*
X208786161Y-68049418D01*
X209114375Y-68540625D01*
X209412761Y-68740000D01*
X209114375Y-68939375D01*
X208786161Y-69430582D01*
X208670908Y-70010000D01*
X208786161Y-70589418D01*
X209114375Y-71080625D01*
X209132619Y-71092816D01*
X209087235Y-71101843D01*
X208877191Y-71242191D01*
X208736843Y-71452235D01*
X208687560Y-71700000D01*
X208687560Y-73400000D01*
X208736843Y-73647765D01*
X208877191Y-73857809D01*
X209087235Y-73998157D01*
X209132619Y-74007184D01*
X209114375Y-74019375D01*
X208786161Y-74510582D01*
X208670908Y-75090000D01*
X208786161Y-75669418D01*
X209114375Y-76160625D01*
X209412761Y-76360000D01*
X209114375Y-76559375D01*
X208786161Y-77050582D01*
X208670908Y-77630000D01*
X208786161Y-78209418D01*
X209114375Y-78700625D01*
X209412761Y-78900000D01*
X209114375Y-79099375D01*
X208786161Y-79590582D01*
X208670908Y-80170000D01*
X208786161Y-80749418D01*
X209114375Y-81240625D01*
X209412761Y-81440000D01*
X209114375Y-81639375D01*
X208786161Y-82130582D01*
X208670908Y-82710000D01*
X208786161Y-83289418D01*
X209114375Y-83780625D01*
X209605582Y-84108839D01*
X210038744Y-84195000D01*
X210331256Y-84195000D01*
X210764418Y-84108839D01*
X211255625Y-83780625D01*
X211583839Y-83289418D01*
X211699092Y-82710000D01*
X211583839Y-82130582D01*
X211255625Y-81639375D01*
X210957239Y-81440000D01*
X211255625Y-81240625D01*
X211583839Y-80749418D01*
X211699092Y-80170000D01*
X211583839Y-79590582D01*
X211259236Y-79104778D01*
X216655000Y-79104778D01*
X216655000Y-79755222D01*
X216903914Y-80356153D01*
X217363847Y-80816086D01*
X217964778Y-81065000D01*
X218615222Y-81065000D01*
X219216153Y-80816086D01*
X219676086Y-80356153D01*
X219925000Y-79755222D01*
X219925000Y-79104778D01*
X223155000Y-79104778D01*
X223155000Y-79755222D01*
X223403914Y-80356153D01*
X223863847Y-80816086D01*
X224464778Y-81065000D01*
X225115222Y-81065000D01*
X225716153Y-80816086D01*
X226176086Y-80356153D01*
X226425000Y-79755222D01*
X226425000Y-79104778D01*
X226176086Y-78503847D01*
X225716153Y-78043914D01*
X225115222Y-77795000D01*
X224464778Y-77795000D01*
X223863847Y-78043914D01*
X223403914Y-78503847D01*
X223155000Y-79104778D01*
X219925000Y-79104778D01*
X219676086Y-78503847D01*
X219216153Y-78043914D01*
X218615222Y-77795000D01*
X217964778Y-77795000D01*
X217363847Y-78043914D01*
X216903914Y-78503847D01*
X216655000Y-79104778D01*
X211259236Y-79104778D01*
X211255625Y-79099375D01*
X210957239Y-78900000D01*
X211255625Y-78700625D01*
X211583839Y-78209418D01*
X211699092Y-77630000D01*
X211583839Y-77050582D01*
X211255625Y-76559375D01*
X210957239Y-76360000D01*
X211255625Y-76160625D01*
X211583839Y-75669418D01*
X211699092Y-75090000D01*
X211583839Y-74510582D01*
X211255625Y-74019375D01*
X211237381Y-74007184D01*
X211282765Y-73998157D01*
X211492809Y-73857809D01*
X211633157Y-73647765D01*
X211682440Y-73400000D01*
X211682440Y-71700000D01*
X211633157Y-71452235D01*
X211492809Y-71242191D01*
X211282765Y-71101843D01*
X211237381Y-71092816D01*
X211255625Y-71080625D01*
X211583839Y-70589418D01*
X211699092Y-70010000D01*
X211583839Y-69430582D01*
X211255625Y-68939375D01*
X210957239Y-68740000D01*
X211196696Y-68580000D01*
X228355908Y-68580000D01*
X228471161Y-69159418D01*
X228799375Y-69650625D01*
X229097761Y-69850000D01*
X228799375Y-70049375D01*
X228471161Y-70540582D01*
X228355908Y-71120000D01*
X228471161Y-71699418D01*
X228799375Y-72190625D01*
X229290582Y-72518839D01*
X229723744Y-72605000D01*
X230016256Y-72605000D01*
X230449418Y-72518839D01*
X230940625Y-72190625D01*
X231268839Y-71699418D01*
X231384092Y-71120000D01*
X231268839Y-70540582D01*
X230940625Y-70049375D01*
X230642239Y-69850000D01*
X230940625Y-69650625D01*
X231268839Y-69159418D01*
X231384092Y-68580000D01*
X231268839Y-68000582D01*
X230940625Y-67509375D01*
X230922381Y-67497184D01*
X230967765Y-67488157D01*
X231177809Y-67347809D01*
X231318157Y-67137765D01*
X231367440Y-66890000D01*
X231367440Y-65190000D01*
X231318157Y-64942235D01*
X231177809Y-64732191D01*
X230967765Y-64591843D01*
X230720000Y-64542560D01*
X229020000Y-64542560D01*
X228772235Y-64591843D01*
X228562191Y-64732191D01*
X228421843Y-64942235D01*
X228372560Y-65190000D01*
X228372560Y-66890000D01*
X228421843Y-67137765D01*
X228562191Y-67347809D01*
X228772235Y-67488157D01*
X228817619Y-67497184D01*
X228799375Y-67509375D01*
X228471161Y-68000582D01*
X228355908Y-68580000D01*
X211196696Y-68580000D01*
X211255625Y-68540625D01*
X211583839Y-68049418D01*
X211699092Y-67470000D01*
X211583839Y-66890582D01*
X211255625Y-66399375D01*
X210957239Y-66200000D01*
X211255625Y-66000625D01*
X211583839Y-65509418D01*
X211699092Y-64930000D01*
X211672844Y-64798040D01*
X218262560Y-64798040D01*
X218262560Y-66398040D01*
X218311843Y-66645805D01*
X218452191Y-66855849D01*
X218662235Y-66996197D01*
X218910000Y-67045480D01*
X220510000Y-67045480D01*
X220757765Y-66996197D01*
X220967809Y-66855849D01*
X221108157Y-66645805D01*
X221157440Y-66398040D01*
X221157440Y-64798040D01*
X221108157Y-64550275D01*
X220967809Y-64340231D01*
X220757765Y-64199883D01*
X220510000Y-64150600D01*
X218910000Y-64150600D01*
X218662235Y-64199883D01*
X218452191Y-64340231D01*
X218311843Y-64550275D01*
X218262560Y-64798040D01*
X211672844Y-64798040D01*
X211583839Y-64350582D01*
X211255625Y-63859375D01*
X210957239Y-63660000D01*
X211255625Y-63460625D01*
X211583839Y-62969418D01*
X211699092Y-62390000D01*
X211583839Y-61810582D01*
X211255625Y-61319375D01*
X210764418Y-60991161D01*
X210331256Y-60905000D01*
X210038744Y-60905000D01*
X209605582Y-60991161D01*
X209114375Y-61319375D01*
X208786161Y-61810582D01*
X208670908Y-62390000D01*
X208222000Y-62390000D01*
X208222000Y-59504420D01*
X209253102Y-58473319D01*
X209605582Y-58708839D01*
X210038744Y-58795000D01*
X210331256Y-58795000D01*
X210764418Y-58708839D01*
X211255625Y-58380625D01*
X211583839Y-57889418D01*
X211699092Y-57310000D01*
X211634446Y-56985000D01*
X218262560Y-56985000D01*
X218262560Y-58585000D01*
X218311843Y-58832765D01*
X218452191Y-59042809D01*
X218662235Y-59183157D01*
X218910000Y-59232440D01*
X220510000Y-59232440D01*
X220757765Y-59183157D01*
X220967809Y-59042809D01*
X221108157Y-58832765D01*
X221157440Y-58585000D01*
X221157440Y-58420000D01*
X228355908Y-58420000D01*
X228471161Y-58999418D01*
X228799375Y-59490625D01*
X229097761Y-59690000D01*
X228799375Y-59889375D01*
X228471161Y-60380582D01*
X228355908Y-60960000D01*
X228471161Y-61539418D01*
X228799375Y-62030625D01*
X229290582Y-62358839D01*
X229723744Y-62445000D01*
X230016256Y-62445000D01*
X230449418Y-62358839D01*
X230940625Y-62030625D01*
X231268839Y-61539418D01*
X231384092Y-60960000D01*
X231268839Y-60380582D01*
X230940625Y-59889375D01*
X230642239Y-59690000D01*
X230940625Y-59490625D01*
X231268839Y-58999418D01*
X231384092Y-58420000D01*
X231268839Y-57840582D01*
X230940625Y-57349375D01*
X230922381Y-57337184D01*
X230967765Y-57328157D01*
X231177809Y-57187809D01*
X231318157Y-56977765D01*
X231367440Y-56730000D01*
X231367440Y-56705431D01*
X233985000Y-56705431D01*
X233985000Y-57594569D01*
X234325259Y-58416026D01*
X234953974Y-59044741D01*
X235775431Y-59385000D01*
X236664569Y-59385000D01*
X237486026Y-59044741D01*
X238114741Y-58416026D01*
X238455000Y-57594569D01*
X238455000Y-56705431D01*
X238114741Y-55883974D01*
X237486026Y-55255259D01*
X236664569Y-54915000D01*
X235775431Y-54915000D01*
X234953974Y-55255259D01*
X234325259Y-55883974D01*
X233985000Y-56705431D01*
X231367440Y-56705431D01*
X231367440Y-55030000D01*
X231318157Y-54782235D01*
X231177809Y-54572191D01*
X230967765Y-54431843D01*
X230720000Y-54382560D01*
X229020000Y-54382560D01*
X228772235Y-54431843D01*
X228562191Y-54572191D01*
X228421843Y-54782235D01*
X228372560Y-55030000D01*
X228372560Y-56730000D01*
X228421843Y-56977765D01*
X228562191Y-57187809D01*
X228772235Y-57328157D01*
X228817619Y-57337184D01*
X228799375Y-57349375D01*
X228471161Y-57840582D01*
X228355908Y-58420000D01*
X221157440Y-58420000D01*
X221157440Y-56985000D01*
X221108157Y-56737235D01*
X220967809Y-56527191D01*
X220757765Y-56386843D01*
X220510000Y-56337560D01*
X218910000Y-56337560D01*
X218662235Y-56386843D01*
X218452191Y-56527191D01*
X218311843Y-56737235D01*
X218262560Y-56985000D01*
X211634446Y-56985000D01*
X211583839Y-56730582D01*
X211255625Y-56239375D01*
X210957239Y-56040000D01*
X211255625Y-55840625D01*
X211583839Y-55349418D01*
X211699092Y-54770000D01*
X211583839Y-54190582D01*
X211506610Y-54075000D01*
X236182770Y-54075000D01*
X236837551Y-54141510D01*
X237429883Y-54327135D01*
X237972787Y-54628073D01*
X238444090Y-55032028D01*
X238824540Y-55522503D01*
X239098598Y-56079461D01*
X239257348Y-56688914D01*
X239295000Y-57178239D01*
X239295001Y-109182760D01*
X239228490Y-109837551D01*
X239042864Y-110429885D01*
X238741927Y-110972787D01*
X238337972Y-111444090D01*
X237847500Y-111824539D01*
X237290539Y-112098598D01*
X236681086Y-112257348D01*
X236191761Y-112295000D01*
X156247230Y-112295000D01*
X155592449Y-112228490D01*
X155000115Y-112042864D01*
X154457213Y-111741927D01*
X153985910Y-111337972D01*
X153605461Y-110847500D01*
X153331402Y-110290539D01*
X153172652Y-109681086D01*
X153135000Y-109191761D01*
X153135000Y-108775431D01*
X153975000Y-108775431D01*
X153975000Y-109664569D01*
X154315259Y-110486026D01*
X154943974Y-111114741D01*
X155765431Y-111455000D01*
X156654569Y-111455000D01*
X157476026Y-111114741D01*
X158104741Y-110486026D01*
X158445000Y-109664569D01*
X158445000Y-109005000D01*
X169952560Y-109005000D01*
X169952560Y-110705000D01*
X170001843Y-110952765D01*
X170142191Y-111162809D01*
X170352235Y-111303157D01*
X170600000Y-111352440D01*
X172300000Y-111352440D01*
X172547765Y-111303157D01*
X172757809Y-111162809D01*
X172898157Y-110952765D01*
X172907184Y-110907381D01*
X172919375Y-110925625D01*
X173410582Y-111253839D01*
X173843744Y-111340000D01*
X174136256Y-111340000D01*
X174569418Y-111253839D01*
X175060625Y-110925625D01*
X175260000Y-110627239D01*
X175459375Y-110925625D01*
X175950582Y-111253839D01*
X176383744Y-111340000D01*
X176676256Y-111340000D01*
X177109418Y-111253839D01*
X177600625Y-110925625D01*
X177928839Y-110434418D01*
X178044092Y-109855000D01*
X177982941Y-109547571D01*
X178310512Y-109220000D01*
X196605908Y-109220000D01*
X196721161Y-109799418D01*
X197049375Y-110290625D01*
X197540582Y-110618839D01*
X197973744Y-110705000D01*
X198266256Y-110705000D01*
X198699418Y-110618839D01*
X199190625Y-110290625D01*
X199390000Y-109992239D01*
X199589375Y-110290625D01*
X200080582Y-110618839D01*
X200513744Y-110705000D01*
X200806256Y-110705000D01*
X201239418Y-110618839D01*
X201730625Y-110290625D01*
X201930000Y-109992239D01*
X202129375Y-110290625D01*
X202620582Y-110618839D01*
X203053744Y-110705000D01*
X203346256Y-110705000D01*
X203779418Y-110618839D01*
X204270625Y-110290625D01*
X204598839Y-109799418D01*
X204714092Y-109220000D01*
X204598839Y-108640582D01*
X204270625Y-108149375D01*
X203779418Y-107821161D01*
X203346256Y-107735000D01*
X203053744Y-107735000D01*
X202620582Y-107821161D01*
X202129375Y-108149375D01*
X201930000Y-108447761D01*
X201730625Y-108149375D01*
X201716905Y-108140207D01*
X204351347Y-105505765D01*
X204418977Y-105460577D01*
X204598003Y-105192646D01*
X204645000Y-104956374D01*
X204645000Y-104956373D01*
X204660868Y-104876601D01*
X204645000Y-104796828D01*
X204645000Y-104044769D01*
X204905625Y-103870625D01*
X205233839Y-103379418D01*
X205349092Y-102800000D01*
X205233839Y-102220582D01*
X204905625Y-101729375D01*
X204414418Y-101401161D01*
X203981256Y-101315000D01*
X203688744Y-101315000D01*
X203255582Y-101401161D01*
X202764375Y-101729375D01*
X202436161Y-102220582D01*
X202320908Y-102800000D01*
X202436161Y-103379418D01*
X202764375Y-103870625D01*
X203025000Y-104044769D01*
X203025000Y-104541087D01*
X200143654Y-107422434D01*
X200076024Y-107467623D01*
X200030835Y-107535253D01*
X199896998Y-107735554D01*
X199849219Y-107975753D01*
X199589375Y-108149375D01*
X199390000Y-108447761D01*
X199190625Y-108149375D01*
X198930000Y-107975231D01*
X198930000Y-104279282D01*
X199334418Y-104198839D01*
X199825625Y-103870625D01*
X200153839Y-103379418D01*
X200269092Y-102800000D01*
X200153839Y-102220582D01*
X199825625Y-101729375D01*
X199334418Y-101401161D01*
X198901256Y-101315000D01*
X198608744Y-101315000D01*
X198175582Y-101401161D01*
X197684375Y-101729375D01*
X197356161Y-102220582D01*
X197240908Y-102800000D01*
X197330675Y-103251289D01*
X197294132Y-103435000D01*
X197310001Y-103514778D01*
X197310000Y-107975231D01*
X197049375Y-108149375D01*
X196721161Y-108640582D01*
X196605908Y-109220000D01*
X178310512Y-109220000D01*
X183690513Y-103840000D01*
X191160231Y-103840000D01*
X191334375Y-104100625D01*
X191825582Y-104428839D01*
X192258744Y-104515000D01*
X192551256Y-104515000D01*
X192984418Y-104428839D01*
X193475625Y-104100625D01*
X193803839Y-103609418D01*
X193919092Y-103030000D01*
X193803839Y-102450582D01*
X193475625Y-101959375D01*
X193177239Y-101760000D01*
X193475625Y-101560625D01*
X193803839Y-101069418D01*
X193919092Y-100490000D01*
X193803839Y-99910582D01*
X193475625Y-99419375D01*
X192984418Y-99091161D01*
X192551256Y-99005000D01*
X192258744Y-99005000D01*
X191825582Y-99091161D01*
X191334375Y-99419375D01*
X191160231Y-99680000D01*
X187371774Y-99680000D01*
X187292000Y-99664132D01*
X186975953Y-99726997D01*
X186852017Y-99809809D01*
X186708023Y-99906023D01*
X186662834Y-99973653D01*
X185186088Y-101450400D01*
X181664369Y-101450400D01*
X181584599Y-101434533D01*
X181504830Y-101450400D01*
X181504826Y-101450400D01*
X181268554Y-101497397D01*
X181000623Y-101676423D01*
X180955434Y-101744053D01*
X174297429Y-108402059D01*
X174136256Y-108370000D01*
X173843744Y-108370000D01*
X173410582Y-108456161D01*
X172919375Y-108784375D01*
X172907184Y-108802619D01*
X172898157Y-108757235D01*
X172757809Y-108547191D01*
X172547765Y-108406843D01*
X172300000Y-108357560D01*
X170600000Y-108357560D01*
X170352235Y-108406843D01*
X170142191Y-108547191D01*
X170001843Y-108757235D01*
X169952560Y-109005000D01*
X158445000Y-109005000D01*
X158445000Y-108775431D01*
X158104741Y-107953974D01*
X157476026Y-107325259D01*
X156654569Y-106985000D01*
X155765431Y-106985000D01*
X154943974Y-107325259D01*
X154315259Y-107953974D01*
X153975000Y-108775431D01*
X153135000Y-108775431D01*
X153135000Y-102020000D01*
X164237560Y-102020000D01*
X164237560Y-103720000D01*
X164286843Y-103967765D01*
X164427191Y-104177809D01*
X164637235Y-104318157D01*
X164885000Y-104367440D01*
X166585000Y-104367440D01*
X166832765Y-104318157D01*
X167042809Y-104177809D01*
X167183157Y-103967765D01*
X167192184Y-103922381D01*
X167204375Y-103940625D01*
X167695582Y-104268839D01*
X168128744Y-104355000D01*
X168421256Y-104355000D01*
X168854418Y-104268839D01*
X169345625Y-103940625D01*
X169673839Y-103449418D01*
X169789092Y-102870000D01*
X169673839Y-102290582D01*
X169345625Y-101799375D01*
X168854418Y-101471161D01*
X168421256Y-101385000D01*
X168128744Y-101385000D01*
X167695582Y-101471161D01*
X167204375Y-101799375D01*
X167192184Y-101817619D01*
X167183157Y-101772235D01*
X167042809Y-101562191D01*
X166832765Y-101421843D01*
X166585000Y-101372560D01*
X164885000Y-101372560D01*
X164637235Y-101421843D01*
X164427191Y-101562191D01*
X164286843Y-101772235D01*
X164237560Y-102020000D01*
X153135000Y-102020000D01*
X153135000Y-96940000D01*
X155982560Y-96940000D01*
X155982560Y-98640000D01*
X156031843Y-98887765D01*
X156172191Y-99097809D01*
X156382235Y-99238157D01*
X156630000Y-99287440D01*
X158330000Y-99287440D01*
X158577765Y-99238157D01*
X158787809Y-99097809D01*
X158928157Y-98887765D01*
X158937184Y-98842381D01*
X158949375Y-98860625D01*
X159440582Y-99188839D01*
X159873744Y-99275000D01*
X160166256Y-99275000D01*
X160599418Y-99188839D01*
X161090625Y-98860625D01*
X161418839Y-98369418D01*
X161534092Y-97790000D01*
X161526534Y-97752000D01*
X166522760Y-97752000D01*
X166522760Y-99352000D01*
X166572043Y-99599765D01*
X166712391Y-99809809D01*
X166922435Y-99950157D01*
X167170200Y-99999440D01*
X168770200Y-99999440D01*
X169017965Y-99950157D01*
X169228009Y-99809809D01*
X169368357Y-99599765D01*
X169417640Y-99352000D01*
X169417640Y-97752000D01*
X169368357Y-97504235D01*
X169228009Y-97294191D01*
X169017965Y-97153843D01*
X168770200Y-97104560D01*
X167170200Y-97104560D01*
X166922435Y-97153843D01*
X166712391Y-97294191D01*
X166572043Y-97504235D01*
X166522760Y-97752000D01*
X161526534Y-97752000D01*
X161418839Y-97210582D01*
X161090625Y-96719375D01*
X160599418Y-96391161D01*
X160166256Y-96305000D01*
X159873744Y-96305000D01*
X159440582Y-96391161D01*
X158949375Y-96719375D01*
X158937184Y-96737619D01*
X158928157Y-96692235D01*
X158787809Y-96482191D01*
X158577765Y-96341843D01*
X158330000Y-96292560D01*
X156630000Y-96292560D01*
X156382235Y-96341843D01*
X156172191Y-96482191D01*
X156031843Y-96692235D01*
X155982560Y-96940000D01*
X153135000Y-96940000D01*
X153135000Y-94615000D01*
X182000908Y-94615000D01*
X182116161Y-95194418D01*
X182444375Y-95685625D01*
X182742761Y-95885000D01*
X182444375Y-96084375D01*
X182116161Y-96575582D01*
X182000908Y-97155000D01*
X182116161Y-97734418D01*
X182444375Y-98225625D01*
X182935582Y-98553839D01*
X183368744Y-98640000D01*
X183661256Y-98640000D01*
X184094418Y-98553839D01*
X184585625Y-98225625D01*
X184913839Y-97734418D01*
X185029092Y-97155000D01*
X184913839Y-96575582D01*
X184585625Y-96084375D01*
X184287239Y-95885000D01*
X184585625Y-95685625D01*
X184913839Y-95194418D01*
X185029092Y-94615000D01*
X184913839Y-94035582D01*
X184585625Y-93544375D01*
X184567381Y-93532184D01*
X184612765Y-93523157D01*
X184822809Y-93382809D01*
X184963157Y-93172765D01*
X185012440Y-92925000D01*
X185012440Y-92885000D01*
X188058027Y-92885000D01*
X188137800Y-92900868D01*
X188217573Y-92885000D01*
X188217574Y-92885000D01*
X188453846Y-92838003D01*
X188721777Y-92658977D01*
X188766968Y-92591344D01*
X190218313Y-91140000D01*
X191160231Y-91140000D01*
X191334375Y-91400625D01*
X191632761Y-91600000D01*
X191334375Y-91799375D01*
X191006161Y-92290582D01*
X190890908Y-92870000D01*
X191006161Y-93449418D01*
X191334375Y-93940625D01*
X191632761Y-94140000D01*
X191334375Y-94339375D01*
X191006161Y-94830582D01*
X190890908Y-95410000D01*
X191006161Y-95989418D01*
X191334375Y-96480625D01*
X191825582Y-96808839D01*
X192258744Y-96895000D01*
X192551256Y-96895000D01*
X192984418Y-96808839D01*
X193475625Y-96480625D01*
X193803839Y-95989418D01*
X193919092Y-95410000D01*
X193803839Y-94830582D01*
X193475625Y-94339375D01*
X193177239Y-94140000D01*
X193475625Y-93940625D01*
X193803839Y-93449418D01*
X193919092Y-92870000D01*
X193803839Y-92290582D01*
X193475625Y-91799375D01*
X193177239Y-91600000D01*
X193475625Y-91400625D01*
X193803839Y-90909418D01*
X193919092Y-90330000D01*
X193803839Y-89750582D01*
X193475625Y-89259375D01*
X193177239Y-89060000D01*
X193475625Y-88860625D01*
X193803839Y-88369418D01*
X193919092Y-87790000D01*
X193803839Y-87210582D01*
X193475625Y-86719375D01*
X192984418Y-86391161D01*
X192551256Y-86305000D01*
X192258744Y-86305000D01*
X191825582Y-86391161D01*
X191334375Y-86719375D01*
X191006161Y-87210582D01*
X190890908Y-87790000D01*
X191006161Y-88369418D01*
X191334375Y-88860625D01*
X191632761Y-89060000D01*
X191334375Y-89259375D01*
X191160231Y-89520000D01*
X189962574Y-89520000D01*
X189882800Y-89504132D01*
X189566753Y-89566997D01*
X189479415Y-89625355D01*
X189298823Y-89746023D01*
X189253634Y-89813653D01*
X187802288Y-91265000D01*
X185012440Y-91265000D01*
X185012440Y-91225000D01*
X184963157Y-90977235D01*
X184822809Y-90767191D01*
X184612765Y-90626843D01*
X184365000Y-90577560D01*
X182665000Y-90577560D01*
X182417235Y-90626843D01*
X182207191Y-90767191D01*
X182066843Y-90977235D01*
X182017560Y-91225000D01*
X182017560Y-92925000D01*
X182066843Y-93172765D01*
X182207191Y-93382809D01*
X182417235Y-93523157D01*
X182462619Y-93532184D01*
X182444375Y-93544375D01*
X182116161Y-94035582D01*
X182000908Y-94615000D01*
X153135000Y-94615000D01*
X153135000Y-72390000D01*
X157857041Y-72390000D01*
X157973350Y-72974725D01*
X158304570Y-73470430D01*
X158588281Y-73660000D01*
X158304570Y-73849570D01*
X157973350Y-74345275D01*
X157857041Y-74930000D01*
X157973350Y-75514725D01*
X158304570Y-76010430D01*
X158588281Y-76200000D01*
X158304570Y-76389570D01*
X157973350Y-76885275D01*
X157857041Y-77470000D01*
X157973350Y-78054725D01*
X158304570Y-78550430D01*
X158588281Y-78740000D01*
X158304570Y-78929570D01*
X157973350Y-79425275D01*
X157857041Y-80010000D01*
X157973350Y-80594725D01*
X158304570Y-81090430D01*
X158588281Y-81280000D01*
X158304570Y-81469570D01*
X157973350Y-81965275D01*
X157857041Y-82550000D01*
X157973350Y-83134725D01*
X158304570Y-83630430D01*
X158588281Y-83820000D01*
X158304570Y-84009570D01*
X157973350Y-84505275D01*
X157857041Y-85090000D01*
X157973350Y-85674725D01*
X158304570Y-86170430D01*
X158588281Y-86360000D01*
X158304570Y-86549570D01*
X157973350Y-87045275D01*
X157857041Y-87630000D01*
X157973350Y-88214725D01*
X158304570Y-88710430D01*
X158800275Y-89041650D01*
X159237402Y-89128600D01*
X159532598Y-89128600D01*
X159969725Y-89041650D01*
X160465430Y-88710430D01*
X160796650Y-88214725D01*
X160912959Y-87630000D01*
X160796650Y-87045275D01*
X160619399Y-86780000D01*
X170587560Y-86780000D01*
X170587560Y-88480000D01*
X170636843Y-88727765D01*
X170777191Y-88937809D01*
X170987235Y-89078157D01*
X171235000Y-89127440D01*
X172935000Y-89127440D01*
X173182765Y-89078157D01*
X173392809Y-88937809D01*
X173533157Y-88727765D01*
X173542184Y-88682381D01*
X173554375Y-88700625D01*
X174045582Y-89028839D01*
X174478744Y-89115000D01*
X174771256Y-89115000D01*
X175204418Y-89028839D01*
X175695625Y-88700625D01*
X176023839Y-88209418D01*
X176139092Y-87630000D01*
X176023839Y-87050582D01*
X175695625Y-86559375D01*
X175204418Y-86231161D01*
X174771256Y-86145000D01*
X174478744Y-86145000D01*
X174045582Y-86231161D01*
X173554375Y-86559375D01*
X173542184Y-86577619D01*
X173533157Y-86532235D01*
X173392809Y-86322191D01*
X173182765Y-86181843D01*
X172935000Y-86132560D01*
X171235000Y-86132560D01*
X170987235Y-86181843D01*
X170777191Y-86322191D01*
X170636843Y-86532235D01*
X170587560Y-86780000D01*
X160619399Y-86780000D01*
X160465430Y-86549570D01*
X160181719Y-86360000D01*
X160465430Y-86170430D01*
X160655000Y-85886719D01*
X160844570Y-86170430D01*
X161340275Y-86501650D01*
X161777402Y-86588600D01*
X162072598Y-86588600D01*
X162509725Y-86501650D01*
X163005430Y-86170430D01*
X163336650Y-85674725D01*
X163452959Y-85090000D01*
X163336650Y-84505275D01*
X163005430Y-84009570D01*
X162721719Y-83820000D01*
X163005430Y-83630430D01*
X163336650Y-83134725D01*
X163452959Y-82550000D01*
X163336650Y-81965275D01*
X163005430Y-81469570D01*
X162721719Y-81280000D01*
X163005430Y-81090430D01*
X163336650Y-80594725D01*
X163452959Y-80010000D01*
X163336650Y-79425275D01*
X163005430Y-78929570D01*
X162721719Y-78740000D01*
X163005430Y-78550430D01*
X163186126Y-78280000D01*
X169209488Y-78280000D01*
X171275001Y-80345514D01*
X171275001Y-81052560D01*
X171235000Y-81052560D01*
X170987235Y-81101843D01*
X170777191Y-81242191D01*
X170636843Y-81452235D01*
X170587560Y-81700000D01*
X170587560Y-83400000D01*
X170636843Y-83647765D01*
X170777191Y-83857809D01*
X170987235Y-83998157D01*
X171235000Y-84047440D01*
X172935000Y-84047440D01*
X173182765Y-83998157D01*
X173392809Y-83857809D01*
X173533157Y-83647765D01*
X173542184Y-83602381D01*
X173554375Y-83620625D01*
X174045582Y-83948839D01*
X174478744Y-84035000D01*
X174771256Y-84035000D01*
X175204418Y-83948839D01*
X175695625Y-83620625D01*
X175869769Y-83360000D01*
X180639488Y-83360000D01*
X182062059Y-84782572D01*
X182000908Y-85090000D01*
X182116161Y-85669418D01*
X182444375Y-86160625D01*
X182935582Y-86488839D01*
X183368744Y-86575000D01*
X183661256Y-86575000D01*
X184094418Y-86488839D01*
X184585625Y-86160625D01*
X184913839Y-85669418D01*
X185029092Y-85090000D01*
X184913839Y-84510582D01*
X184585625Y-84019375D01*
X184287239Y-83820000D01*
X184585625Y-83620625D01*
X184913839Y-83129418D01*
X185029092Y-82550000D01*
X184913839Y-81970582D01*
X184585625Y-81479375D01*
X184287239Y-81280000D01*
X184585625Y-81080625D01*
X184913839Y-80589418D01*
X185029092Y-80010000D01*
X184913839Y-79430582D01*
X184585625Y-78939375D01*
X184287239Y-78740000D01*
X184585625Y-78540625D01*
X184913839Y-78049418D01*
X185029092Y-77470000D01*
X184913839Y-76890582D01*
X184585625Y-76399375D01*
X184567381Y-76387184D01*
X184612765Y-76378157D01*
X184822809Y-76237809D01*
X184963157Y-76027765D01*
X185012440Y-75780000D01*
X185012440Y-75090000D01*
X190890908Y-75090000D01*
X191006161Y-75669418D01*
X191334375Y-76160625D01*
X191632761Y-76360000D01*
X191334375Y-76559375D01*
X191006161Y-77050582D01*
X190890908Y-77630000D01*
X191006161Y-78209418D01*
X191334375Y-78700625D01*
X191632761Y-78900000D01*
X191334375Y-79099375D01*
X191006161Y-79590582D01*
X190890908Y-80170000D01*
X191006161Y-80749418D01*
X191334375Y-81240625D01*
X191632761Y-81440000D01*
X191334375Y-81639375D01*
X191006161Y-82130582D01*
X190890908Y-82710000D01*
X191006161Y-83289418D01*
X191334375Y-83780625D01*
X191825582Y-84108839D01*
X192258744Y-84195000D01*
X192551256Y-84195000D01*
X192984418Y-84108839D01*
X193475625Y-83780625D01*
X193803839Y-83289418D01*
X193919092Y-82710000D01*
X193803839Y-82130582D01*
X193475625Y-81639375D01*
X193177239Y-81440000D01*
X193475625Y-81240625D01*
X193803839Y-80749418D01*
X193919092Y-80170000D01*
X193803839Y-79590582D01*
X193475625Y-79099375D01*
X193177239Y-78900000D01*
X193475625Y-78700625D01*
X193803839Y-78209418D01*
X193919092Y-77630000D01*
X193803839Y-77050582D01*
X193475625Y-76559375D01*
X193177239Y-76360000D01*
X193475625Y-76160625D01*
X193803839Y-75669418D01*
X193919092Y-75090000D01*
X193803839Y-74510582D01*
X193475625Y-74019375D01*
X192984418Y-73691161D01*
X192551256Y-73605000D01*
X192258744Y-73605000D01*
X191825582Y-73691161D01*
X191334375Y-74019375D01*
X191006161Y-74510582D01*
X190890908Y-75090000D01*
X185012440Y-75090000D01*
X185012440Y-74080000D01*
X184963157Y-73832235D01*
X184822809Y-73622191D01*
X184612765Y-73481843D01*
X184365000Y-73432560D01*
X182665000Y-73432560D01*
X182417235Y-73481843D01*
X182207191Y-73622191D01*
X182066843Y-73832235D01*
X182017560Y-74080000D01*
X182017560Y-75780000D01*
X182066843Y-76027765D01*
X182207191Y-76237809D01*
X182417235Y-76378157D01*
X182462619Y-76387184D01*
X182444375Y-76399375D01*
X182116161Y-76890582D01*
X182000908Y-77470000D01*
X182116161Y-78049418D01*
X182444375Y-78540625D01*
X182742761Y-78740000D01*
X182444375Y-78939375D01*
X182116161Y-79430582D01*
X182000908Y-80010000D01*
X182116161Y-80589418D01*
X182444375Y-81080625D01*
X182742761Y-81280000D01*
X182444375Y-81479375D01*
X182116161Y-81970582D01*
X182020752Y-82450239D01*
X181604168Y-82033656D01*
X181558977Y-81966023D01*
X181291046Y-81786997D01*
X181054774Y-81740000D01*
X181054773Y-81740000D01*
X180975000Y-81724132D01*
X180895227Y-81740000D01*
X175869769Y-81740000D01*
X175695625Y-81479375D01*
X175204418Y-81151161D01*
X174771256Y-81065000D01*
X174478744Y-81065000D01*
X174045582Y-81151161D01*
X173554375Y-81479375D01*
X173542184Y-81497619D01*
X173533157Y-81452235D01*
X173392809Y-81242191D01*
X173182765Y-81101843D01*
X172935000Y-81052560D01*
X172895000Y-81052560D01*
X172895000Y-80089769D01*
X172910867Y-80009999D01*
X172895000Y-79930230D01*
X172895000Y-79930226D01*
X172848003Y-79693954D01*
X172668977Y-79426023D01*
X172601347Y-79380834D01*
X170174168Y-76953656D01*
X170128977Y-76886023D01*
X169861046Y-76706997D01*
X169624774Y-76660000D01*
X169624773Y-76660000D01*
X169545000Y-76644132D01*
X169465227Y-76660000D01*
X163186126Y-76660000D01*
X163005430Y-76389570D01*
X162721719Y-76200000D01*
X163005430Y-76010430D01*
X163336650Y-75514725D01*
X163452959Y-74930000D01*
X163336650Y-74345275D01*
X163005430Y-73849570D01*
X162509725Y-73518350D01*
X162072598Y-73431400D01*
X161777402Y-73431400D01*
X161340275Y-73518350D01*
X160844570Y-73849570D01*
X160655000Y-74133281D01*
X160465430Y-73849570D01*
X160181719Y-73660000D01*
X160465430Y-73470430D01*
X160796650Y-72974725D01*
X160912959Y-72390000D01*
X160796650Y-71805275D01*
X160470349Y-71316932D01*
X160496365Y-71311757D01*
X160706409Y-71171409D01*
X160846757Y-70961365D01*
X160851932Y-70935349D01*
X161340275Y-71261650D01*
X161777402Y-71348600D01*
X162072598Y-71348600D01*
X162509725Y-71261650D01*
X163005430Y-70930430D01*
X163336650Y-70434725D01*
X163452959Y-69850000D01*
X163336650Y-69265275D01*
X163005430Y-68769570D01*
X162509725Y-68438350D01*
X162072598Y-68351400D01*
X161777402Y-68351400D01*
X161340275Y-68438350D01*
X160851932Y-68764651D01*
X160846757Y-68738635D01*
X160706409Y-68528591D01*
X160496365Y-68388243D01*
X160248600Y-68338960D01*
X158521400Y-68338960D01*
X158273635Y-68388243D01*
X158063591Y-68528591D01*
X157923243Y-68738635D01*
X157873960Y-68986400D01*
X157873960Y-70713600D01*
X157923243Y-70961365D01*
X158063591Y-71171409D01*
X158273635Y-71311757D01*
X158299651Y-71316932D01*
X157973350Y-71805275D01*
X157857041Y-72390000D01*
X153135000Y-72390000D01*
X153135000Y-57187230D01*
X153183939Y-56705431D01*
X153975000Y-56705431D01*
X153975000Y-57594569D01*
X154315259Y-58416026D01*
X154943974Y-59044741D01*
X155765431Y-59385000D01*
X156654569Y-59385000D01*
X157476026Y-59044741D01*
X158104741Y-58416026D01*
X158434466Y-57620000D01*
X164287560Y-57620000D01*
X164287560Y-59220000D01*
X164336843Y-59467765D01*
X164477191Y-59677809D01*
X164687235Y-59818157D01*
X164935000Y-59867440D01*
X166535000Y-59867440D01*
X166782765Y-59818157D01*
X166992809Y-59677809D01*
X167133157Y-59467765D01*
X167182440Y-59220000D01*
X167182440Y-58420000D01*
X182000908Y-58420000D01*
X182116161Y-58999418D01*
X182444375Y-59490625D01*
X182742761Y-59690000D01*
X182444375Y-59889375D01*
X182116161Y-60380582D01*
X182000908Y-60960000D01*
X182116161Y-61539418D01*
X182444375Y-62030625D01*
X182742761Y-62230000D01*
X182444375Y-62429375D01*
X182116161Y-62920582D01*
X182000908Y-63500000D01*
X182116161Y-64079418D01*
X182444375Y-64570625D01*
X182742761Y-64770000D01*
X182444375Y-64969375D01*
X182116161Y-65460582D01*
X182000908Y-66040000D01*
X182116161Y-66619418D01*
X182444375Y-67110625D01*
X182742761Y-67310000D01*
X182444375Y-67509375D01*
X182116161Y-68000582D01*
X182000908Y-68580000D01*
X182116161Y-69159418D01*
X182444375Y-69650625D01*
X182935582Y-69978839D01*
X183368744Y-70065000D01*
X183661256Y-70065000D01*
X184094418Y-69978839D01*
X184585625Y-69650625D01*
X184913839Y-69159418D01*
X185029092Y-68580000D01*
X184913839Y-68000582D01*
X184585625Y-67509375D01*
X184287239Y-67310000D01*
X184585625Y-67110625D01*
X184913839Y-66619418D01*
X185029092Y-66040000D01*
X184913839Y-65460582D01*
X184585625Y-64969375D01*
X184287239Y-64770000D01*
X184585625Y-64570625D01*
X184913839Y-64079418D01*
X185029092Y-63500000D01*
X184913839Y-62920582D01*
X184585625Y-62429375D01*
X184526697Y-62390000D01*
X190890908Y-62390000D01*
X191006161Y-62969418D01*
X191334375Y-63460625D01*
X191632761Y-63660000D01*
X191334375Y-63859375D01*
X191006161Y-64350582D01*
X190890908Y-64930000D01*
X191006161Y-65509418D01*
X191334375Y-66000625D01*
X191632761Y-66200000D01*
X191334375Y-66399375D01*
X191006161Y-66890582D01*
X190890908Y-67470000D01*
X191006161Y-68049418D01*
X191334375Y-68540625D01*
X191632761Y-68740000D01*
X191334375Y-68939375D01*
X191006161Y-69430582D01*
X190890908Y-70010000D01*
X191006161Y-70589418D01*
X191334375Y-71080625D01*
X191825582Y-71408839D01*
X192258744Y-71495000D01*
X192551256Y-71495000D01*
X192984418Y-71408839D01*
X193475625Y-71080625D01*
X193803839Y-70589418D01*
X193919092Y-70010000D01*
X193803839Y-69430582D01*
X193475625Y-68939375D01*
X193177239Y-68740000D01*
X193475625Y-68540625D01*
X193803839Y-68049418D01*
X193919092Y-67470000D01*
X193803839Y-66890582D01*
X193475625Y-66399375D01*
X193177239Y-66200000D01*
X193475625Y-66000625D01*
X193803839Y-65509418D01*
X193919092Y-64930000D01*
X193803839Y-64350582D01*
X193475625Y-63859375D01*
X193177239Y-63660000D01*
X193475625Y-63460625D01*
X193803839Y-62969418D01*
X193919092Y-62390000D01*
X193803839Y-61810582D01*
X193475625Y-61319375D01*
X192984418Y-60991161D01*
X192551256Y-60905000D01*
X192258744Y-60905000D01*
X191825582Y-60991161D01*
X191334375Y-61319375D01*
X191006161Y-61810582D01*
X190890908Y-62390000D01*
X184526697Y-62390000D01*
X184287239Y-62230000D01*
X184585625Y-62030625D01*
X184913839Y-61539418D01*
X185029092Y-60960000D01*
X184913839Y-60380582D01*
X184585625Y-59889375D01*
X184287239Y-59690000D01*
X184585625Y-59490625D01*
X184913839Y-58999418D01*
X185029092Y-58420000D01*
X184913839Y-57840582D01*
X184585625Y-57349375D01*
X184567381Y-57337184D01*
X184612765Y-57328157D01*
X184822809Y-57187809D01*
X184963157Y-56977765D01*
X185012440Y-56730000D01*
X185012440Y-55030000D01*
X184963157Y-54782235D01*
X184822809Y-54572191D01*
X184612765Y-54431843D01*
X184365000Y-54382560D01*
X182665000Y-54382560D01*
X182417235Y-54431843D01*
X182207191Y-54572191D01*
X182066843Y-54782235D01*
X182017560Y-55030000D01*
X182017560Y-56730000D01*
X182066843Y-56977765D01*
X182207191Y-57187809D01*
X182417235Y-57328157D01*
X182462619Y-57337184D01*
X182444375Y-57349375D01*
X182116161Y-57840582D01*
X182000908Y-58420000D01*
X167182440Y-58420000D01*
X167182440Y-57620000D01*
X167133157Y-57372235D01*
X166992809Y-57162191D01*
X166782765Y-57021843D01*
X166535000Y-56972560D01*
X164935000Y-56972560D01*
X164687235Y-57021843D01*
X164477191Y-57162191D01*
X164336843Y-57372235D01*
X164287560Y-57620000D01*
X158434466Y-57620000D01*
X158445000Y-57594569D01*
X158445000Y-56705431D01*
X158104741Y-55883974D01*
X157476026Y-55255259D01*
X156654569Y-54915000D01*
X155765431Y-54915000D01*
X154943974Y-55255259D01*
X154315259Y-55883974D01*
X153975000Y-56705431D01*
X153183939Y-56705431D01*
X153201510Y-56532449D01*
X153387135Y-55940117D01*
X153688073Y-55397213D01*
X154092028Y-54925910D01*
X154582503Y-54545460D01*
X155139461Y-54271402D01*
X155748914Y-54112652D01*
X156238239Y-54075000D01*
X191083390Y-54075000D01*
X191006161Y-54190582D01*
G04 #@! TD*
M02*
